<?xml version="1.0" encoding="UTF-8"?>
<svg id="Layer_2" xmlns="http://www.w3.org/2000/svg" viewBox="0 0 407.81 409.49">
  <defs>
    <style>
      .cls-1 {
        fill: #a3adb3;
      }

      .cls-2 {
        fill: #d3d5d8;
      }

      .cls-3 {
        fill: #52565b;
      }

      .cls-4 {
        fill: #6d7d83;
      }

      .cls-5 {
        fill: #5a6267;
      }

      .cls-6 {
        fill: #b46c63;
      }

      .cls-7 {
        fill: #c0bfbf;
      }

      .cls-8 {
        fill: #fdfcfc;
      }

      .cls-9 {
        fill: #a06151;
      }

      .cls-10 {
        fill: #e7b88d;
      }

      .cls-11 {
        fill: #868f94;
      }

      .cls-12 {
        fill: #7e5e46;
      }

      .cls-13 {
        fill: #b4b1af;
      }

      .cls-14 {
        fill: #cf9d7b;
      }

      .cls-15 {
        fill: #cd8b50;
      }
    </style>
  </defs>
  <g id="Layer_1-2" data-name="Layer_1">
    <path class="cls-7" d="M8.09,150.63c2.69-14.01,8.42-26.93,14.88-39.48,10.4-20.21,23.64-38.44,40.23-54.04C92.58,29.51,126.87,11.35,166.57,3.57,179.31,1.07,192.26-.14,205.09.01c24.31.29,48.14,4.34,70.91,13.4,1.26.5,2.56.76,3.11,2.19-10.13,3.26-19.18,8.05-24.8,17.64-1.27,2.17-2.74,1-4.25.39-20.07-8.09-41.77,7.87-39.78,27.95-1.19.73-1.25,1.93-1.11,3.08,1.6,12.85,8.43,23.2,22.91,26.99-.55,6.72-1.1,13.43-1.65,20.14-1.43,3.49-.59,7.25-1.31,10.83-.55.3-1.61.64-1.59.9.37,5.51-.19,11.37,1.55,16.44,3.77,10.99,8.04,21.79,13.35,32.29,5.72,11.31,14.71,17.57,25.69,20.81,6.17,1.82,7.09,4.78,7.03,9.76-6.03,13.81-9.18,28.67-15.62,42.34-1.02,2.18-2.1,3.42-4.4,4.03-6.55,1.73-13.02,3.75-19.57,5.48-3.69.97-4.29,2.73-1.88,5.55,1.4,1.63,3,3.09,3.52,5.3-2.04.66-4.09,1.31-6.13,1.97-5.06-.23-9.64-4.01-14.83-2.47-3.22.96-5.44.51-7.27-2.19,0-.86,0-1.72,0-2.58,1.61-1.14,3.1-2.52,4.85-3.36,1.92-.93,2.6-2.12,2.59-4.24-.1-22.69-.11-45.38-.14-68.07.23-.6.62-1.19.66-1.81.6-9.25-.63-18.44-.81-27.67-.06-2.94-2.23-3.92-4.57-4.35-1.76-.32-3.62-.13-5.44-.17-6.22-1.38-12.49-2.47-18.87-2.88-6.48-7.19-14.17-13.87-10.69-25.49-2.81,5.29-6.64,10.04-2.72,16.42,1.21,1.97,2.59,4.31,2.29,6.98-11.49.35-22.68-2.21-33.99-3.59-13.94-1.7-27.84-5.12-41.85-4.15-15.11,1.04-30.07,4.1-45.11,6.22-15.69,2.21-31.38,4.36-47.08,6.53ZM222.45,256.44c-1.79.1-3-.05-4.09.26-2.09.6-3.67,2.02-3.15,4.33.53,2.39,2.48,1.6,4.04,1.09,1.82-.59,3.52-.39,5.33.16,1.5.46,3.6,1.2,4.25-.93.59-1.94-.82-3.51-2.66-4.19-1.35-.51-2.87-.57-3.72-.73Z"/>
    <path class="cls-7" d="M363.2,78.61c7.11,6.91,11.82,15.53,16.79,23.93,14.41,24.35,22.55,50.76,26.22,78.76,5.23,39.96-2.58,77.51-19.78,113.49-1.35,2.82-2.65,5.74-5.14,7.83-2.15-3.82-2.26-8.18-3.05-12.31-4.46-23.33-9.92-46.39-18.34-68.64-4.24-11.19-10.7-21.04-20.09-28.7-1.58-1.29-3.35-3.97-5.79-1.18-6.09,6.95-13.62,11.48-22.43,14.11-2.5.75-5.6,1.63-6.95,3.51-1.31,1.83,1.71,3.94,2.58,6.05,1.53,3.71.09,7.76,1.51,11.84,2.1-2.61,3.89-4.85,5.79-7.21.91,1.67-.06,2.62-.54,3.59-5.92,11.9-12,23.72-17.78,35.68-3.09,6.41-8.33,9.58-14.82,11.32-.43-.45-.87-.89-1.3-1.34,2-1.98,4.58-3.12,3.94-7.13-1.4-8.78-2.3-17.67-2.73-26.55-.22-4.53-1.01-7.41-6.17-7.13,6.26-3.39,12.14-7.15,14.85-14.78,1.11,3.19,2.22,6.37,3.33,9.56-6.69,1.49-9.32,4.77-9.28,11.35.04,7.95,2.36,15.69,2.06,23.68-.06,1.67-1,4.27,1.12,4.88,2.56.73,3.47-1.95,4.47-3.8,3.31-6.12,6.4-12.36,9.88-18.38,2.14-3.71,4.76-7.09-.59-10.22,2.8-.22,3.87-1.66,4.03-4.52.34-5.81-.48-11.23-3.74-16.18-.7-1.06-1.8-2.07-1.32-3.6.35-.03.71-.07,1.06-.1,3.26-.3,6.27-1.37,9.08-3.02,3.88-.62,7.15-2.75,10.31-4.76,3.94-2.51,8.04-5.02,10.67-9.14,1.58-.92,3.35-1.84,2.19-4.11-1.75-3.44-3.29-7.09-7.15-8.84-1.1-1.01-2.53-.96-3.86-1.23-.05-4.85,4.1-8.09,4.85-12.63,5.82-2.98,8.82-8.04,10.41-14.14,5.43-2.7,8.48-9.09,7.24-15.16-.94-4.61-3.14-8.49-6.7-11.58-.17-.28-.34-.57-.51-.85.72-.44,1.26-.91,1.19-1.94-.26-3.91-.55-7.82-.6-11.74-.09-7.94.07-7.98,7.4-10.69,7.63-2.82,13.36-7.62,15.51-15.82.34-1.3.77-2.13,2.17-2.21Z"/>
    <path class="cls-8" d="M281.37,270.69c6.49-1.74,11.74-4.92,14.82-11.32,5.77-11.97,11.86-23.78,17.78-35.68.48-.97,1.45-1.92.54-3.59-1.9,2.37-3.69,4.6-5.79,7.21-1.42-4.08.02-8.13-1.51-11.84-.87-2.11-3.89-4.22-2.58-6.05,1.35-1.88,4.45-2.76,6.95-3.51,8.82-2.64,16.35-7.17,22.43-14.11,2.44-2.79,4.21-.1,5.79,1.18,9.38,7.66,15.85,17.51,20.09,28.7,8.42,22.25,13.88,45.31,18.34,68.64.79,4.12.9,8.49,3.05,12.31-3.05,9.91-9.95,17.49-15.69,25.75-2.99,4.3-5.77,8.94-10.55,11.7-19.9,4.88-39.89,6.22-60.05,1.67-.66-8.39-1.33-16.77-1.99-25.16,4.79-2.49,9.75-4.52,14.34-7.56,18.07-11.96,27.22-29.73,33.62-49.49.1-1.65.21-3.29.31-4.94.31-.6.61-1.2.92-1.8l1.01-2.17c1.13-1.95,2.24-3.91,1.41-6.81-3.92,3.56-5.75,8.09-8.51,11.91-7.8,10.78-15.62,21.8-26.93,28.93-17.58,11.09-36.59,19.25-57.21,23.08-.29-.04-.58-.04-.87,0-1.99-5.67-3.97-11.33-5.96-17,.27-3.06,3-3.21,4.99-4.08,10.74-4.68,21.67-8.96,31.22-15.95ZM328.1,319.78c.11-2.52-.78-4.21-3.6-4.18-2.14.02-3.43,1-3.46,3.27-.03,2.74,1.29,4.46,4.05,4.56,2.36.09,2.98-1.63,3-3.65ZM305.14,319.78c.02-2.21-.51-4.15-3.2-4.06-2.31.08-3.71,1.53-3.67,3.88.04,2.31,1.4,3.76,3.74,3.83,2.36.07,3.07-1.57,3.13-3.65Z"/>
    <path class="cls-8" d="M210.26,61.59c-1.99-20.08,19.71-36.04,39.78-27.95,1.52.61,2.98,1.77,4.25-.39,5.62-9.59,14.67-14.38,24.8-17.64,6.53.02,11.38,4.24,16.81,6.91,6.37,3.13,12.62,6.6,18.22,11.06-.43,2.82,2.12,4.88,1.96,7.61-.22,3.64,1.5,3.56,3.78,1.88,1.17-.86,2.73-1.34,3.33-2.88,5.19,2.06,9.04,6.03,13.06,9.62,6.61,5.9,13.95,11.11,18.93,18.67-.68,3.8-1.97,7.25-4.65,10.22-6.17,6.84-18.31,9.78-27.88,5.09-3.09-1.52-6.19-3.52-8.04-6.51-1.35-2.18.94-4.35,1.26-6.59.18-1.22.9-2.85-.69-3.54-1.29-.55-1.97.91-2.78,1.67-1.22,1.14-2.35,2.36-3.54,3.53-14.75,14.56-41.66,13.34-53.42-6.06-.69-1.14-.74-3-2.82-3.11.17,2.2.38,4.31.48,6.43.08,1.83.07,3.52-1.72,4.88-7.4,5.66-23.67,8.5-32.09-.85-3.43-3.81-5.41-8.53-9.05-12.07Z"/>
    <path class="cls-4" d="M50.8,337.71c-4.99-3.67-8.73-8.6-12.16-13.54-17.33-24.95-29.67-52.16-35.15-82.18-3.04-16.66-4.6-33.44-2.57-50.45.62-5.22.83-10.56,1.24-15.84.14-1.76-.41-3.83,2.14-4.39,16.28,2.76,32.56,5.53,48.84,8.29-.94,2.45-3.07,5.14-2.62,7.31,2.08,10.18-2.2,20.43.71,30.51-2.34,2.83-.04,5.75-.05,8.6-.15,36.08-.07,72.15-.08,108.23,0,1.15-.2,2.31-.3,3.46Z"/>
    <path class="cls-7" d="M293.01,316.57c.66,8.39,1.33,16.77,1.99,25.16-1.41-.12-2.86-.07-4.06-1.01.96-.63,1.2-1.53.89-2.57-1.95-6.38-1.62-12.97-1.78-19.51-.31-1.95-.74-3.89-.91-5.85-.49-5.55-2.02-6.35-6.97-3.63-2.49,1.37-3.76,3.3-2.92,6.1.63,2.1.91,4.2.88,6.37-.01,2.15.1,4.31-.06,6.44-.41,5.43-.54,10.63,6.42,12.12.08,5.59.15,11.18.23,16.77-.93,1.31-.79,2.84-.85,4.31-.37,10.1-.71,20.21-1.07,30.31-19.63,8.44-39.96,14.23-61.32,15.99-2.57.21-6.74,3.29-6.35-2.99.42-14.26,1.21-28.52.75-42.8-.05-2.76,1.08-5.62-.75-8.21-4.01-3.67-9.47-3.18-14.16-4.91-.26-.69-.53-1.38-.79-2.07,2.06-.55,4.15-1,6.18-1.66,6.84-2.24,8.34-4.2,8.58-11.44.12-3.64.03-7.28.03-10.92,2.68-.03,5.41,2.45,8.03-.18.75.06,1.49.13,2.24.19.07.89.42,1.72,1.37,1.77,4.26.2,8.41.28,12.58-1.46,4.41-1.84,7.2-6.07,11.85-7.38,8.79.81,16.69-2.82,24.15-6.29,7.89-3.67,15.95-7.16,23.51-11.61,7.83-4.61,15.99-8.52,21.46-16.4,5.56-8.01,11.45-15.78,16.24-24.3.66-1.18,1.23-2.4,2.88-2.34-.1,1.65-.21,3.29-.31,4.94-2.96.34-3.37,3.01-4.29,5-8,17.43-20.43,30.27-38.18,37.94-7.21,3.12-8.09,6.03-5.5,14.11Z"/>
    <path class="cls-3" d="M50.8,337.71c.11-1.15.3-2.31.3-3.46,0-36.08-.07-72.15.08-108.23.01-2.86-2.29-5.78.05-8.6,5.98-1.28,11.95-2.63,17.95-3.83,24.98-5.02,49.97-9.99,74.96-14.98-.77,4.87-.49,9.58,2.12,13.93-12.27,1.58-24.17,4.92-36.21,7.57-8.55,1.88-17.18,3.49-25.63,5.73-3.46.92-7.99-.51-10.23,3.8-1.6,1.38-3.2,2.75-4.8,4.13-1.4.56-1.23,1.81-1.25,2.95-.25,9.7-1.18,19.3-.34,29.13,1.15,13.45.29,27.06.37,40.61,0,1.73-.69,3.7,1.02,5.12.03.37.06.74.09,1.12-.09.3-.18.6-.26.9-.93.7-.87,1.36.09,1.98.33.36.66.73.98,1.09-.07.27-.1.55-.1.83-3.17,1.17-1.95,3.98-1.71,5.88.48,3.77-2.17,8.07,1.69,11.32-.5,13.27,1.39,14.29,14.33,10.33,19.02-5.81,38.03-11.63,57.04-17.45,1.25-.34,2.5-.68,3.75-1.02,6.59-1.82,11.91,2.09,17.39,4.37,4.61,1.92,8.63,1.95,12.9-.07,3.91-1.85,7.65-4.12,11.68-5.67,7.08-2.74,13.43-7.28,21.1-8.53,1.43,1.96,3.66,2.21,5.76,2.51,2.29.33,2.92,1.28,1.79,3.32-1.14.18-2.33.2-3.42.55-29.35,9.19-58.72,18.33-88.03,27.68-14.38,4.59-29.01,8.42-43.12,13.88-2.33.46-4.13-.58-5.89-1.95-8.11-6.32-15.28-13.64-22.33-21.07-.98-1.03-1.43-2.57-2.12-3.87Z"/>
    <path class="cls-1" d="M53.14,179.59c-16.28-2.76-32.56-5.52-48.84-8.29-.85-7.28,1.21-14.03,3.8-20.68,15.69-2.17,31.39-4.32,47.08-6.53,15.03-2.12,30-5.18,45.11-6.22,14.01-.97,27.91,2.46,41.85,4.15,11.3,1.38,22.5,3.94,33.99,3.59,3.69,2.75,4.1,6.74,4.1,10.88-1.95.37-3.89.77-5.85,1.09-14.83,2.42-29.7,4.65-44.49,7.29-15.12,2.7-30.27,5.2-45.37,7.97-10.49,1.93-21.16,3.36-31.37,6.74Z"/>
    <path class="cls-11" d="M81.13,364.6c14.1-5.46,28.73-9.29,43.12-13.88,29.31-9.34,58.68-18.48,88.03-27.68,1.09-.34,2.28-.37,3.42-.55.43.03.86.05,1.28.08,0,3.64.09,7.28-.03,10.92-.24,7.23-1.73,9.2-8.58,11.44-2.02.66-4.12,1.11-6.18,1.66-6.76,2.3-13.52,4.6-20.28,6.9-1.14.17-2.33.19-3.41.55-8.1,2.74-16.16,5.62-24.28,8.34-17.69,5.92-35.75,10.71-53.25,17.2-7.57-1.91-12.57-7.95-18.93-11.81-1.09-.66-.9-2.03-.93-3.18Z"/>
    <path class="cls-11" d="M217.9,361.79c.46,14.28-.33,28.53-.75,42.79-11.91,7.19-24.86,5.13-37.02,2.32-6.2-1.43-12.29-1.33-18.29-2.51-8.63-1.7-17.6-2.37-25.58-6.72-3.59-1.95-8.84-.29-11.14-5.1,5.1-1.86,10.15-3.86,15.3-5.56,18.35-6.08,36.73-12.08,55.12-18.07,7.44-2.43,14.9-4.77,22.36-7.15Z"/>
    <path class="cls-2" d="M210.26,61.59c3.64,3.54,5.62,8.25,9.05,12.07,8.42,9.35,24.69,6.51,32.09.85,1.79-1.37,1.8-3.05,1.72-4.88-.09-2.12-.31-4.23-.48-6.43,2.07.11,2.12,1.97,2.82,3.11,11.77,19.4,38.67,20.62,53.42,6.06,1.19-1.17,2.32-2.39,3.54-3.53.81-.76,1.49-2.22,2.78-1.67,1.59.69.87,2.31.69,3.54-.33,2.24-2.61,4.41-1.26,6.59,1.85,2.99,4.94,4.99,8.04,6.51,9.57,4.69,21.72,1.75,27.88-5.09,2.68-2.97,3.97-6.42,4.65-10.22,3.3,2.87,6.46,5.85,8,10.11-1.4.07-1.83.91-2.17,2.21-2.15,8.2-7.88,13-15.51,15.82-7.33,2.7-7.49,2.75-7.4,10.69.05,3.92.34,7.83.6,11.74.07,1.03-.47,1.49-1.19,1.94-7.34-5.49-16.11-7.71-24.5-10.81-1.39-4.04-1.17-8.17-.52-12.28.9-5.67-7.72-13.3-13.18-11.9-14.1,3.63-27.59,2.5-39.59-6.47-2.27-1.69-3.27-1.46-5.36.1-4.83,3.62-10.41,6.05-16.5,5.86-4.83-.15-6.28,1.81-5.81,6.15-14.48-3.79-21.31-14.13-22.91-26.99-.14-1.15-.08-2.35,1.11-3.08Z"/>
    <path class="cls-4" d="M100.99,379.58c17.5-6.49,35.56-11.28,53.25-17.2,8.11-2.71,16.17-5.59,24.28-8.34,1.07-.36,2.27-.38,3.41-.55,1.04,3.16,3.84,4.07,6.55,4.56,3.96.72,7.81-.76,11.69-1.41l.04,2.01c-.66.08-1.4-.01-1.97.25-13.79,6.29-28.46,10.04-42.71,15.01-13.15,4.59-26.37,9.01-39.56,13.51-5.89-.91-10.93-3.43-14.98-7.86Z"/>
    <path class="cls-5" d="M284.82,391.58c.35-10.1.7-20.21,1.07-30.31.05-1.47-.08-3,.85-4.31,1.64-1.15,1.48-2.9,1.34-4.52-.33-3.88,1.4-4.05,4.45-2.91,4.01,1.5,8.09,2.81,12.2,3.99,7.26,2.08,8.18,3.79,6.86,11.3-.69,3.95-1.67,8.11.71,11.96-8.64,5.9-17.9,10.65-27.48,14.81Z"/>
    <path class="cls-1" d="M115.96,387.44c13.19-4.5,26.4-8.92,39.56-13.51,14.25-4.97,28.93-8.72,42.71-15.01.58-.26,1.31-.18,1.97-.25,6.05-.35,11.58-2.45,16.95-5.09,1.83,2.59.7,5.46.75,8.21-7.46,2.38-14.92,4.72-22.36,7.15-18.38,6-36.76,11.99-55.12,18.07-5.15,1.71-10.2,3.7-15.3,5.56-3.16-1.51-7.37-1.16-9.16-5.13Z"/>
    <path class="cls-3" d="M312.3,376.77c-2.37-3.85-1.4-8.02-.71-11.96,1.32-7.51.4-9.23-6.86-11.3-4.11-1.18-8.2-2.49-12.2-3.99-3.05-1.14-4.79-.98-4.45,2.91.14,1.62.3,3.37-1.34,4.52-.08-5.59-.16-11.18-.23-16.77,1.48.18,2.97.36,4.45.54,1.2.94,2.65.89,4.06,1.01,20.16,4.56,40.15,3.21,60.05-1.67-2.66,6.04-7.69,9.87-12.74,13.69-7.17-2.32-14.34.86-21.52,0-1.13-.14-1.69.99-1.65,2.07.19,5.05-1.22,10.33,2.09,14.95-2.79,2.29-5.27,5.03-8.94,6Z"/>
    <path class="cls-5" d="M321.24,370.77c-3.31-4.62-1.9-9.9-2.09-14.95-.04-1.08.51-2.21,1.65-2.07,7.18.86,14.35-2.32,21.52,0-6.16,6.75-13.5,12.03-21.08,17.02Z"/>
    <path class="cls-2" d="M323.2,40.2c-.61,1.53-2.17,2.01-3.33,2.88-2.28,1.68-4,1.76-3.78-1.88.17-2.74-2.39-4.8-1.96-7.61,3.55,1.49,6.58,3.68,9.07,6.62Z"/>
    <path class="cls-13" d="M281.37,270.69c-9.55,6.99-20.49,11.27-31.22,15.95-2,.87-4.73,1.02-5,4.08-1.64.09-3.12.5-4.01,2.06-2.93-.03-5.58-1.12-8.24-2.17-.03-.75-.06-1.5-.09-2.25.09-.25.18-.5.25-.76,2.96.08,4.75-1.26,5.01-4.28.23-2.64-.23-5.67-3.09-6.04-5.95-.78-11.65-4.02-17.79-2.54-3.88.94-7.73,2.6-7,7.94.23,5.72,4.5,6.43,8.8,7.09.08.95.16,1.9.24,2.85-4.98,3.96-.5,6.96,1.04,10.26-.42.23-.85.47-1.27.7-2.49-1.4-5.07-1.15-7.73-.57-9.78,2.12-17.95,8.1-27.29,11.28-4.88,1.66-8.23,6.48-14.27,5.98-7.84-.65-15.23-3.12-21.98-6.46-3.12-1.55-4.82-4.3-9.45-4.19-3.43.09-7.44-1.78-11.41-2.14-2.87-.26-6.73.04-6.84-4.67,5.94,1.65,11.88,2.56,17.99.73,3.26-.98,6.28-2.08,7.07-5.92v-.02c.79-.41.9-1.11.81-1.89.38-3.73-1.99-5.17-4.99-6.34-3.69-1.44-7.55-.6-11.25-1.13-6.44-.93-12.33,1.52-15.63,7.35-3.64-1.08.27-3.67-1.05-5.22,1.98-1.67,4.49-2.08,6.83-2.88,18.71-6.34,37.68-12.02,56.07-19.19,10.7-4.17,20.53-2.98,30.96-.4,15.59,3.85,30.92,8.69,46.68,11.92,4.35.89,7.43-.57,11.51-3.19-11.92-3.2-22.96-6.16-34-9.13,2.04-.66,4.09-1.31,6.13-1.97,5.52,1.62,11.04,3.29,16.87,3.33,4.1,3.24,9.24,2.8,13.93,3.94,3.74.91,6.72-.23,9.09-3.17.99-.09,1.98-.18,2.97-.27.43.45.87.89,1.3,1.34ZM204.2,270.91c-3.88-4.37-9.46-3.83-14.34-4.18-6.21-.45-9.35,2.65-9.87,7.62-.97.38-2.01.9-1.18,2.09.63.9,1.56,1.76,2.55,2.2,6.35,2.87,12.93,3.59,19.62,1.35,4.2-1.41,5.36-4,3.23-6.5,0-.71,0-1.42,0-2.12l.38-.24-.37-.22ZM150.02,283.49c-4.3,2.69-.93,4.61.98,5.82,7.04,4.48,14.63,3.48,22.03,1.07,2.81-.92,4.57-3.32,3.86-6.71-2.63-4.69-13.44-8.33-19.62-6.68-3.55.95-6.41,2.57-7.25,6.5ZM167.99,298.67c-1.62-.03-3.24-.07-4.86-.1-4-.51-7.57.57-10.63,3.13-3.97,3.32-3.45,9.5,1.21,11.51,7.74,3.34,15.72,3.72,23.53.16,4.07-1.85,4.84-6.27,2.04-9.78-2.9-3.65-6.85-4.86-11.3-4.92ZM197.88,287.57c-1.92,0-3.59-.11-5.24.02-6.35.5-10.71,3.98-11.42,9.16-.22,1.59-.47,3.09,1.84,3.92,8.35,3,16.56,2.66,24.74-.43,3.54-1.34,4.16-3.69,2.45-7.12-2.73-5.45-7.39-6.08-12.36-5.55Z"/>
    <path class="cls-8" d="M232.07,91.65c-.47-4.33.98-6.3,5.81-6.15,6.09.19,11.67-2.24,16.5-5.86,2.09-1.57,3.1-1.8,5.36-.1,12,8.97,25.49,10.1,39.59,6.47,5.46-1.41,14.08,6.23,13.18,11.9-.65,4.11-.88,8.24.52,12.28-18.72-4.23-37.57-6.97-56.82-4.55-2.21.28-4.71-.22-6.42,1.88-1.42-.02-2.84-.04-4.26-.06-5.37.28-10.18,2.51-15.11,4.34.55-6.72,1.1-13.43,1.64-20.15Z"/>
    <path class="cls-3" d="M216.26,184.58c.03,22.69.04,45.38.14,68.07,0,2.12-.67,3.31-2.59,4.24-1.75.85-3.25,2.22-4.85,3.36-1.79-2.53-5.09-1.85-7.31-3.46,2.19-.3,2.44-1.83,2.43-3.65-.03-13.66.1-27.33-.09-40.99-.08-5.63-3.86-11.24-8-11.19-5.45.07-11.06.69-16.12,3.27-2.49-3.13-3.25-6.94-4.21-10.68.24-.57.49-1.14.73-1.71,2.12-.32,4.25-.58,6.35-.98,11.17-2.13,22.17-5.1,33.52-6.27Z"/>
    <path class="cls-8" d="M280.07,269.35c-.99.09-1.98.18-2.97.27-.8-9.81-1.6-19.61-2.39-29.42-1.64,4.71-2.25,9.37-2.59,14.05-.49,6.68-2.27,8.99-8.39,11.37-3.17,1.24-6.78,1.12-9.64,3.23-5.84-.03-11.35-1.71-16.87-3.33-.52-2.2-2.12-3.66-3.52-5.3-2.41-2.82-1.8-4.58,1.88-5.55,6.55-1.73,13.02-3.75,19.57-5.48,2.3-.61,3.37-1.86,4.4-4.03,6.43-13.67,9.59-28.54,15.62-42.34.72-.53,1.43-1.06,2.15-1.59,1.22,1.14,2.44,2.27,3.65,3.41.06,1.6-1.39,2.07-2.24,2.99-4.62,4.97-6.54,10.87-5.97,17.57.12,1.47-.31,3.58,2.37,3.35,5.16-.28,5.95,2.6,6.17,7.13.43,8.88,1.33,17.77,2.73,26.55.64,4.01-1.95,5.15-3.94,7.13Z"/>
    <path class="cls-4" d="M231.07,267.49c11.04,2.96,22.08,5.93,34,9.13-4.08,2.63-7.16,4.09-11.51,3.19-15.76-3.23-31.09-8.07-46.68-11.92-10.43-2.57-20.26-3.77-30.96.4-18.39,7.17-37.36,12.85-56.07,19.19-2.34.79-4.85,1.21-6.83,2.88-4.81,1.22-9.82,1.9-13.94,5.04-4.33.51-8.1-.63-11.16-3.84,28.73-10.35,58.03-19.04,86.85-29.12,10.24-3.58,19.8-4.81,29.9-.8,1.38.55,2.87.8,4.31,1.18,1.83,2.7,4.05,3.15,7.27,2.19,5.18-1.55,9.77,2.23,14.83,2.47Z"/>
    <path class="cls-11" d="M216.26,184.58c-11.35,1.17-22.35,4.14-33.52,6.27-2.1.4-4.23.66-6.35.98.18-5.53,2.77-10.01,6.09-14.2,3.49-4.41,6.89-8.9,6.66-14.98.27-2.69.54-5.38.82-8.07,5.39-1.31,11.28-.56,16.14-4.01,1.82.04,3.67-.15,5.44.17,2.34.43,4.51,1.41,4.57,4.35.18,9.23,1.41,18.42.81,27.67-.04.61-.43,1.2-.66,1.81ZM205.12,170.08c-.18-3.04-2-5.34-6.03-5.54-4.59-.23-7.7,2.28-7.88,6.31-.18,4.03,2.58,7.65,5.89,7.75,4.36.13,7.87-3.24,8.01-8.52Z"/>
    <path class="cls-13" d="M208.97,262.83c-1.44-.39-2.93-.64-4.31-1.18-10.1-4.01-19.66-2.78-29.9.8-28.81,10.08-58.11,18.76-86.84,29.12-3.44-.15-2.61,2.58-3.03,4.48-.9.04-1.81.08-2.71.11-.19-.07-.38-.09-.58-.06-.52-1.84-1.03-3.67-1.55-5.51.54-1.95,2.99-1.47,3.85-3.02,1.48.05,3.06.27,3.29-1.87,3.96.02,7.92.06,10.99-3.09,1.49,0,3.14.52,4.12-1.22,3.52-.61,7.51.03,9.89-3.67,1.43-.15,3.07.4,4.04-1.24,3.5.32,6.57-.73,9.3-2.89,1.37.02,2.19-.76,2.75-1.91,3.91-.17,8.13.77,11.03-3.06,1.34-.04,2.68-.07,4.02-.1,4.44.37,8.58.06,10.79-4.7,1.14-.14,2.38-.01,3.14-1.17,4.06.43,7.84-.61,11.73-1.72,10.37-2.97,20.44-8.43,31.82-4.63.22.27.5.43.84.49,2.22,1.61,5.52.93,7.31,3.46,0,.86,0,1.72,0,2.58Z"/>
    <path class="cls-13" d="M277.3,201.23c-.72.53-1.43,1.06-2.15,1.59.06-4.98-.86-7.94-7.03-9.76-10.98-3.23-19.97-9.49-25.69-20.81-5.31-10.5-9.58-21.29-13.35-32.29-1.74-5.07-1.18-10.93-1.55-16.44-.02-.26,1.03-.6,1.59-.9,1.38,5.8,1.47,12.04,5.83,16.81.83,6.39,2.03,12.62,7.09,17.28.02,1.28.03,2.56.05,3.85.14,1.47-.13,3.14.48,4.37,7.18,14.52,18.75,23.45,34.61,26.8.07,3.17-1.27,6.35.13,9.5Z"/>
    <path class="cls-12" d="M234.94,139.44c-4.36-4.77-4.45-11.01-5.83-16.81.72-3.57-.12-7.34,1.31-10.83,4.93-1.83,9.74-4.06,15.1-4.34-.81,5.67-3.77,10.45-7.55,14.3-3.82,3.88-4.04,8.04-3.49,12.76.19,1.63.31,3.28.46,4.91Z"/>
    <path class="cls-2" d="M189.96,154.59c-.27,2.69-.54,5.38-.82,8.06-1.43-4.18-2.58-8.77-8.78-6.16h-.15c0-4.14-.42-8.12-4.1-10.87.3-2.67-1.09-5.02-2.29-6.98-3.91-6.38-.09-11.14,2.72-16.42-3.48,11.61,4.21,18.29,10.69,25.49.91,2.3,1.82,4.59,2.73,6.89Z"/>
    <path class="cls-1" d="M189.96,154.59c-.91-2.3-1.82-4.59-2.73-6.89,6.37.41,12.64,1.5,18.87,2.88-4.86,3.44-10.75,2.7-16.14,4.01Z"/>
    <path class="cls-10" d="M222.45,256.44c.85.15,2.37.22,3.72.73,1.83.69,3.24,2.26,2.66,4.19-.65,2.13-2.75,1.39-4.25.93-1.81-.56-3.51-.75-5.33-.16-1.56.5-3.5,1.29-4.04-1.09-.52-2.31,1.06-3.73,3.15-4.33,1.08-.31,2.3-.17,4.09-.26Z"/>
    <path class="cls-14" d="M327.09,162.73c-.75,4.54-4.9,7.78-4.85,12.63-.91.11-1.77.29-2.26,1.2-1.55,1.45-3.8,2.05-4.91,4.04-3.2,2.88-6.96,5.18-9.34,8.92-1.04.17-1.6.79-1.7,1.83-.67.4-1.35.8-2.02,1.2-.32.01-.64.01-.97,0-.55-.26-1.4-.9-1.62-.73-4.19,3.26-8.86,2.23-13.49,1.64-.4-.81-.8-1.63-1.2-2.44,3.14-1.8,6.38-3.45,9.53-5.19,4.56-2.51,9.67-4.41,13.3-8.38,9.1-9.96,13.76-21.6,12.48-35.23-.22-2.35.85-3.79,2.01-5.41,3.41-.82,2.86-4.06,3.77-6.34,1.79-4.52,3.72-8.61,9.82-7.12,1.23.3,2.34.17,2.43-1.49,3.57,3.09,5.76,6.97,6.7,11.58,1.24,6.07-1.82,12.46-7.25,15.16-4.84.83-8.62,2.67-8.94,8.43-.11,1.92-.96,3.81-1.47,5.71ZM337.32,131.42c-5.91-1.03-8.68,2.13-8.21,8.19.07.92-.27,2.24,1.07,2.43,1.22.17,1.75-.93,1.74-1.95-.03-3.68,1.89-6.22,5.4-8.67Z"/>
    <path class="cls-12" d="M338.04,121.85c-.09,1.66-1.2,1.79-2.43,1.49-6.1-1.49-8.03,2.61-9.82,7.12-.91,2.28-.35,5.52-3.77,6.34-3.35-5.31-6.76-10.57-10.01-15.94-1.58-2.61-3.43-4.14-6.75-3.99-10.7.5-21.08-1.01-30.91-5.53-.22-.13-.55-.43-.65-.37-.52.31-.24.65.07.95.22,2.63,4.41,5.2,2.59,6.74-2.43,2.06-6.5,1.05-9.8-.14-.59-.21-1.11-.63-1.69-.88-5.67-2.44-10.43-6.21-15.09-10.15,1.71-2.09,4.2-1.6,6.42-1.88,19.25-2.42,38.1.32,56.82,4.55,8.39,3.1,17.17,5.32,24.5,10.81.17.28.34.57.51.85Z"/>
    <path class="cls-6" d="M301.03,192.53c.32.01.64.02.97,0,1.33,4.64,5.98,6.82,8.08,10.89-2.81,1.65-5.82,2.72-9.08,3.02-.08-1.92,3.72-2.12,2.28-4.34-2.31-3.57-8.29-2.91-10.41.8-1.48,2.59-2.17,6.16-6.55,5.61-3.75-.47-5.06,1.39-4.14,6.38,1.94-4.38,5.4-4.71,8.94-4.21,4.19.59,4.08,5.62,7.22,7.81,1.37-2.48-.17-4.27-1.2-5.58-3.25-4.17-1.41-5.69,2.8-6.36-.48,1.53.62,2.53,1.32,3.6,3.25,4.95,4.07,10.36,3.74,16.18-.17,2.86-1.24,4.3-4.03,4.52-3.68-1.36-5.8-4.31-7.66-7.51-1.11-3.19-2.22-6.37-3.33-9.56-2.71,7.63-8.6,11.39-14.85,14.78-2.68.24-2.25-1.87-2.37-3.35-.57-6.71,1.35-12.61,5.97-17.57.85-.92,2.3-1.39,2.24-2.99,2.28-1.83.22-2.57-.81-3.77-1.67-1.95-1.88-4.75-.49-6.41,1.82-2.17,2.79.79,4.11,1.67.61.41,1.57.3,2.37.43,5.25-.29,11.18,1.93,14.9-4.03ZM280.84,216.85c-.11-.69-.4-1.13-.95-.84-.33.18-.59.72-.64,1.13-.06.46.18,1.05.83.68.36-.2.55-.69.76-.97Z"/>
    <path class="cls-8" d="M293.3,223.33c1.87,3.2,3.99,6.15,7.66,7.51,5.35,3.13,2.73,6.51.59,10.22-3.48,6.02-6.57,12.26-9.88,18.38-1,1.84-1.91,4.53-4.47,3.8-2.11-.6-1.18-3.21-1.12-4.88.3-7.99-2.02-15.73-2.06-23.68-.04-6.58,2.59-9.86,9.28-11.35ZM295.82,244.26c-.71-1.68-1.25-3.73-3.8-3.63-2.3.09-3.03,1.67-2.92,3.7.11,2.17.99,4.03,3.43,3.83,1.95-.15,3.05-1.71,3.29-3.9Z"/>
    <path class="cls-9" d="M310.08,203.43c-2.1-4.07-6.75-6.25-8.08-10.89.67-.4,1.35-.8,2.02-1.2.13,1.58,1.01,2.62,2.54,2.09,1.86-.64,2.92-2.16,3.26-4.46-1.62.21-2.85.37-4.09.53,2.38-3.74,6.14-6.04,9.34-8.92,1.48,1.1.39,1.89-.28,2.81-.6.82-2.28,1.6-.9,2.75,1.33,1.11,2.43-.22,3.28-1.18,1.51-1.71,2.78-3.64,4.39-5.23,2.95-2.9-.12-2.59-1.58-3.18.49-.9,1.36-1.08,2.26-1.2,1.33.27,2.77.22,3.86,1.23-.05,1.44,1.45,2.73.35,4.28-1.97,2.77-.85,4.47,1.85,5.9,1.1.58,1.85,1.83,2.76,2.77-2.63,4.12-6.73,6.63-10.67,9.14-3.16,2.01-6.43,4.14-10.31,4.76ZM324.06,189.04c-.35-1.39-1.11-2.55-2.68-2.25-1.92.37-3.34,1.63-3.11,3.75.14,1.3,1.08,2.64,2.58,2.43,2.06-.29,2.83-2,3.2-3.93ZM313.63,193.86c-1.34.85-3.54.98-3.16,3.24.21,1.23.89,2.8,2.65,2.3,1.51-.44,3.6-.78,3.56-2.87-.03-1.56-1.3-2.59-3.04-2.67Z"/>
    <path class="cls-9" d="M299.94,206.55c-4.21.67-6.05,2.19-2.8,6.36,1.03,1.31,2.57,3.1,1.2,5.58-3.14-2.2-3.04-7.22-7.22-7.81-3.54-.5-7-.17-8.94,4.21-.92-4.99.39-6.85,4.14-6.38,4.38.55,5.07-3.02,6.55-5.61,2.12-3.71,8.1-4.37,10.41-.8,1.44,2.23-2.36,2.42-2.28,4.34-.35.03-.71.07-1.06.1Z"/>
    <path class="cls-12" d="M327.09,162.73c.51-1.9,1.36-3.78,1.47-5.71.32-5.76,4.1-7.6,8.94-8.43-1.59,6.1-4.59,11.16-10.41,14.14Z"/>
    <path class="cls-6" d="M331.07,189.54c-.91-.94-1.66-2.19-2.76-2.77-2.7-1.43-3.82-3.13-1.85-5.9,1.1-1.55-.39-2.84-.35-4.28,3.86,1.75,5.4,5.41,7.15,8.84,1.16,2.27-.61,3.19-2.19,4.11Z"/>
    <path class="cls-2" d="M341.28,254.58c-1.65-.07-2.21,1.16-2.88,2.34-4.79,8.52-10.68,16.29-16.24,24.3-5.46,7.87-13.63,11.78-21.46,16.4-7.56,4.45-15.62,7.94-23.51,11.61-7.46,3.47-15.36,7.1-24.15,6.29-.22-2.62.46-5.35-1.06-7.79,20.63-3.84,39.64-12,57.21-23.08,11.31-7.13,19.13-18.15,26.93-28.93,2.76-3.82,4.58-8.35,8.51-11.91.82,2.9-.28,4.86-1.41,6.81-1.49.19-2.72.5-1.01,2.17-.31.6-.61,1.2-.92,1.8Z"/>
    <path class="cls-2" d="M293.01,316.57c-2.59-8.08-1.71-10.99,5.5-14.11,17.75-7.67,30.18-20.51,38.18-37.94.91-1.99,1.33-4.66,4.29-5-6.4,19.76-15.55,37.53-33.62,49.48-4.6,3.04-9.55,5.07-14.34,7.56Z"/>
    <path class="cls-14" d="M241.14,292.78c.89-1.56,2.37-1.97,4.01-2.06,1.99,5.67,3.98,11.33,5.96,17,.23,2.31-.58,4.1-2.3,5.72-6.08,5.74-12.63,10.21-21.57,9.14-.75-.06-1.49-.13-2.24-.19-.34-1.15-2.71-.41-2.2-2.06.35-1.12,1.75-.78,2.62-.43,1.59.63,3.21.73,4.87.73,7.12,0,11.5-4.71,15.56-9.5,2.7-3.17-.18-6.62-1.08-9.75-.84-2.95.31-6.94-3.65-8.61Z"/>
    <path class="cls-10" d="M227.25,322.59c8.94,1.07,15.49-3.41,21.57-9.14,1.72-1.63,2.53-3.42,2.3-5.72.29-.04.58-.04.87,0,1.52,2.44.84,5.18,1.06,7.8-4.64,1.31-7.43,5.54-11.85,7.38-4.17,1.74-8.32,1.66-12.58,1.46-.95-.05-1.3-.88-1.37-1.77Z"/>
    <path class="cls-7" d="M328.11,319.78c-.03,2.02-.65,3.74-3,3.65-2.76-.11-4.08-1.82-4.05-4.56.02-2.27,1.32-3.25,3.46-3.27,2.82-.03,3.71,1.66,3.6,4.18Z"/>
    <path class="cls-7" d="M305.14,319.79c-.05,2.07-.77,3.71-3.13,3.64-2.33-.07-3.7-1.52-3.74-3.83-.04-2.34,1.37-3.8,3.67-3.88,2.68-.09,3.21,1.85,3.19,4.06Z"/>
    <path class="cls-7" d="M342.2,252.78c-1.71-1.68-.48-1.98,1.01-2.17-.34.72-.67,1.45-1.01,2.17Z"/>
    <path class="cls-11" d="M53.14,179.59c10.21-3.38,20.87-4.81,31.37-6.74,15.1-2.77,30.25-5.27,45.37-7.97,14.79-2.64,29.66-4.87,44.49-7.29,1.96-.32,3.9-.73,5.85-1.09,0,0,.15,0,.15,0-.15,4.13-.59,8.15-4.13,11.01-5.28.2-6.36,4.03-7.07,8.18l.03-.05c-.83.37-.61.72.01,1.07-2.66,5.3-5.12,10.65-3.94,16.85-.03.33-.06.65-.09.97-4.99.73-9.99,1.46-14.98,2.18-.12-3.04,2.28-5.18,2.83-7.98,7.16-.34,7.33-.52,7.26-7.78-.03-2.62-.16-5.25-.05-7.87.16-4.05-1.25-5.64-5.25-3.71-2.96.14-5.92.28-8.58,1.83-5.19-.04-10.19,1.21-15.23,2.25-11.3,2.32-10.18-.75-10.14,12.22q.03,10.43,10.12,7.03c3.64-.64,7.27-1.28,10.91-1.93,2.06,0,4.12,0,6.18.01-.66,2.98-3.6,4.77-4.11,7.83-24.99,4.99-49.98,9.96-74.96,14.98-6,1.2-11.97,2.55-17.95,3.83-2.91-10.08,1.37-20.33-.71-30.51-.44-2.17,1.68-4.86,2.62-7.31ZM104.9,196.67c5.78.08,9.16-6.66,6.14-12.34-.59-1.1-.97-2.78-2.66-2.48-1.55.27-1.07,1.81-1.2,2.89-.13,1.14-.04,2.63-1.56,2.66-1.62.03-1.41-1.52-1.52-2.63-.12-1.19-.27-2.47-1.59-2.81-1.56-.4-2.32,1.01-3.2,1.94-2.69,2.83-2.24,5.99-.9,9.24,1.21,2.95,3.68,3.55,6.49,3.52ZM82.57,186.19c-.2.47-.37.76-.44,1.06-.44,1.97,1.11,5.31-1.49,5.64-2.78.36-1.11-3.07-1.89-4.64-.55-1.11-.77-3.12-2.58-1.94-3.8,2.47-4.58,6.35-3.96,10.54.53,3.61,2.96,4.83,6.4,4.86,4.06.04,6.25-2.4,7.09-5.78.9-3.61,1.52-7.61-3.13-9.74Z"/>
    <path class="cls-10" d="M241.14,292.78c3.96,1.67,2.81,5.66,3.65,8.61.89,3.13,3.77,6.58,1.08,9.75-4.06,4.78-8.45,9.5-15.56,9.5-1.67,0-3.28-.1-4.87-.73-.87-.35-2.27-.69-2.62.43-.51,1.65,1.86.91,2.2,2.06-2.62,2.62-5.35.15-8.03.18-.43-.03-.86-.05-1.29-.08,1.13-2.04.5-2.99-1.79-3.32-2.11-.3-4.34-.55-5.76-2.51.33-.95.67-1.91,1-2.86,2.21-.66,4.56-1.03,5.93-3.23.36-.07.73-.14,1.09-.22,2.45-.11,4.21-1.68,5.98-3.05,1.85-1.44,5.23-3.07,4.17-5.25-.99-2.05-3.92.52-6.03.82-1.54-3.3-6.02-6.3-1.04-10.26,2.4-.73,5.34-.09,6.99-2.75.6-.06,1.2-.12,1.8-.17.99,3.63,3.24.6,4.86.92,2.66,1.05,5.31,2.14,8.24,2.17Z"/>
    <path class="cls-8" d="M290.95,340.72c-1.48-.18-2.97-.36-4.45-.54-6.97-1.48-6.83-6.69-6.42-12.11.16-2.14.05-4.3.06-6.44,3.58-.1,6.17-3.46,9.92-2.99.16,6.54-.16,13.13,1.78,19.51.32,1.04.07,1.94-.89,2.57Z"/>
    <path class="cls-3" d="M200.16,356.65c-3.88.65-7.73,2.12-11.69,1.41-2.71-.49-5.51-1.41-6.55-4.56,6.76-2.3,13.52-4.6,20.28-6.9.26.69.53,1.38.79,2.07-1.07,2.62.18,6.06-2.84,7.99Z"/>
    <path class="cls-2" d="M290.05,318.64c-3.75-.47-6.34,2.89-9.92,2.99.03-2.17-.25-4.27-.88-6.37-.84-2.8.43-4.74,2.92-6.1,4.95-2.72,6.48-1.92,6.97,3.63.17,1.96.6,3.9.91,5.85Z"/>
    <path class="cls-11" d="M200.16,356.65c3.02-1.93,1.77-5.37,2.84-7.99,4.69,1.73,10.14,1.24,14.16,4.91-5.37,2.64-10.9,4.74-16.95,5.09-.01-.67-.03-1.34-.04-2.01Z"/>
    <path class="cls-15" d="M200.81,256.29c-11.37-3.81-21.45,1.65-31.82,4.63-3.9,1.12-7.67,2.15-11.73,1.72-7.13-3.27-14.93-4.07-22.38-6.18-2.74-.78-5.11-.36-7.73.28-6.78,1.65-13.49,3.76-20.79,4.3,4.45-7.56,3.63-14.59-2.1-19.83-.29.4-.64.75-.84,1.18-.53,1.09.08,3.09-1.81,3.07-1.85-.02-1.37-1.93-1.77-3.1-.91-2.67-1.59-5.47-3.85-7.42-.94-.81-1.7-2.55-3.2-1.69-1.1.64-.55,2.11-.18,3.21,1.53,4.5-1,8.03-2.79,11.72-.37.76-1.44,1.61-1.95.96-4.13-5.24-3.76,1.1-4.27,2.01-2.3,4.1-2.27,8.74-.51,12.97,1.18,2.84.19,3.54-2.13,4.01-3.73.74-7.44,1.73-11.3,1.53-.87-11.95-.22-23.91-.27-35.87,1.6-1.38,3.2-2.75,4.8-4.13,11.06-1.19,21.61-4.73,32.44-6.97,13.4-2.77,26.85-5.3,40.02-9.1.38.18.77.35,1.15.53,6.7,7.68,7.9,15.27,1.04,23.89-2.07,2.6-2.56,7.15-.44,10.88.41.72.83,1.52,1.86,1.25.78-.21.8-.96.83-1.6.31-5.65,3.54-10.01,6.94-13.98,3.58-4.17,3.6-8.73,3.06-13.55-.38-3.34-2.51-6.05-3.8-9.07,4.74-1.31,9.48-2.67,14.49-2.27,8.91,8.55,5.43,17.99,1.96,27.64,4.75-3.14,7.55-7.46,9.42-12.65,2.2-6.09-.48-11.77-1-17.63,3.16-2.12,6.89-2,10.42-2.65,5.93-1.08,8.25.42,8.29,6.27.12,15.22-.03,30.45-.07,45.67Z"/>
    <path class="cls-9" d="M141.33,327.59c-19.01,5.82-38.02,11.64-57.04,17.45-12.94,3.95-14.83,2.93-14.33-10.34,0-5.73.01-11.47.02-17.2,0-.28.04-.56.1-.83,5.19-1.56,10.49-2.84,15.54-4.75,3.86-1.46,8.42-1.06,11.63-4.25,13.73,3.53,26.63,9.44,40.04,13.91,2.89.96,4.3,2.92,4.03,6.01Z"/>
    <path class="cls-4" d="M216.17,310.36c-.36.07-.73.14-1.09.22-2.47.17-4.75.69-5.93,3.23-.33.95-.67,1.9-1,2.86-7.67,1.25-14.02,5.8-21.1,8.53-4.02,1.55-7.76,3.82-11.68,5.67-4.27,2.02-8.29,1.98-12.9.07-5.47-2.28-10.79-6.19-17.39-4.37.22-4.77-3.4-6.57-6.83-7.86-6.27-2.35-13.04-3.5-19.1-6.25-10.04-4.55-20.5-7.65-31-10.74-.41-.69-.82-1.38-1.23-2.06.12-.76.25-1.52.37-2.28,5.9,1.08,11.47,3.26,17.09,5.25,19.59,6.91,39.17,13.87,58.77,20.76,3.66,1.29,7.37,1.91,11.17.17,5.28-2.43,10.63-4.73,15.98-7.01,8.85-3.77,17.72-7.49,26.58-11.23.72,1.81-.56,3.35-.71,5.04Z"/>
    <path class="cls-5" d="M88.15,301.73c10.5,3.09,20.96,6.18,31,10.73,6.06,2.75,12.83,3.9,19.1,6.25,3.43,1.28,7.05,3.08,6.83,7.86-1.25.34-2.5.68-3.75,1.02.27-3.08-1.14-5.04-4.03-6.01-13.4-4.47-26.31-10.38-40.04-13.91-2.1-.72-4.21-1.44-6.31-2.16-.81-1.35-3.02-1.67-2.8-3.78Z"/>
    <path class="cls-10" d="M90.95,305.51c2.1.72,4.21,1.44,6.31,2.16-3.21,3.19-7.77,2.79-11.63,4.25-5.05,1.92-10.35,3.2-15.54,4.75-.33-.36-.66-.73-.98-1.09-.03-.66-.06-1.32-.09-1.98.08-.3.17-.6.26-.9,1.27-.39,2.53-.79,3.8-1.18,3.05-.74,6.35-.82,9.23-3.3-3.51-1.79-6.78-2.84-10.17-3.55-2.48-.82-3.36-2.01-.91-3.96,3.3,1.32,6.61,2.64,9.91,3.95,3.25.6,6.29,3.59,9.83.86Z"/>
    <path class="cls-7" d="M147.81,214.11c-.38-.18-.77-.35-1.15-.53-.13-.34-.26-.69-.4-1.03-2.61-4.35-2.9-9.06-2.12-13.93.51-3.06,3.44-4.85,4.1-7.83,1.55-.79,2.85-2.14,4.78-2.05-.54,2.8-2.94,4.95-2.83,7.98-2.65,5.46.09,9.37,3.73,13.03.46.64.92,1.28,1.39,1.91-1.96,2.49-4.99,1.67-7.51,2.44Z"/>
    <path class="cls-12" d="M146.26,212.54c.13.34.26.69.4,1.03-13.17,3.8-26.62,6.33-40.02,9.1-10.83,2.24-21.38,5.78-32.44,6.97,2.24-4.31,6.77-2.89,10.23-3.8,8.46-2.24,17.08-3.85,25.63-5.73,12.04-2.65,23.94-5.98,36.21-7.57Z"/>
    <path class="cls-12" d="M69.39,233.78c.05,11.96-.59,23.92.27,35.87-.6,1.69-.41,3.41-.17,5.12.01,1.91.03,3.83.04,5.74.08,1,.16,2,.24,3-.68,2.32-.49,4.68-.22,7.03-.39,1.2-.3,2.37.17,3.53-1.15,5.81-.25,11.68-.54,17.51-1.72-1.43-1.01-3.39-1.02-5.12-.07-13.54.79-27.16-.37-40.61-.84-9.83.09-19.43.34-29.13.03-1.14-.15-2.38,1.25-2.95Z"/>
    <path class="cls-9" d="M69.18,311.59c.29-5.83-.61-11.71.54-17.51.47.21.95.42,1.42.62.02,2,.05,4,.07,6.01-2.44,1.95-1.57,3.14.91,3.96.09,2.32-.33,4.7.94,6.86-1.27.39-2.53.79-3.8,1.18-.03-.37-.06-.74-.09-1.12Z"/>
    <path class="cls-12" d="M69.99,317.51c0,5.73-.01,11.47-.02,17.2-3.86-3.24-1.21-7.54-1.69-11.32-.24-1.9-1.47-4.71,1.71-5.88Z"/>
    <path class="cls-12" d="M69.01,313.61c.03.66.06,1.32.09,1.98-.96-.61-1.02-1.27-.09-1.98Z"/>
    <path class="cls-7" d="M216.88,305.32c-8.86,3.74-17.74,7.46-26.58,11.23-5.35,2.28-10.69,4.58-15.98,7.01-3.8,1.75-7.51,1.12-11.17-.17-19.6-6.89-39.18-13.85-58.77-20.76-5.62-1.98-11.19-4.17-17.09-5.25-.8-.45-1.59-.9-2.39-1.34.41-1.9-.42-4.63,3.03-4.48,3.05,3.22,6.82,4.35,11.16,3.84,4.4,3.84,11.25,3.12,15.03,8.1,1.15-.41,2.3-.81,3.45-1.22.84.17,1.67.35,2.51.52.1,4.7,3.96,4.4,6.84,4.66,3.97.36,7.98,2.23,11.41,2.14,4.62-.12,6.33,2.64,9.45,4.19,6.75,3.35,14.14,5.82,21.98,6.46,6.04.5,9.39-4.32,14.27-5.98,9.33-3.18,17.51-9.16,27.29-11.28,2.66-.58,5.24-.83,7.73.57-.71.58-1.43,1.16-2.14,1.74Z"/>
    <path class="cls-14" d="M167.99,298.67c4.46.05,8.4,1.26,11.3,4.92,2.79,3.52,2.03,7.93-2.04,9.78-7.82,3.56-15.8,3.18-23.53-.16-4.66-2.01-5.18-8.19-1.21-11.51,3.06-2.56,6.63-3.64,10.63-3.13-.53,1.14-1.48,2.34.14,3.35,1.48.92,3.06,1,4.57.07,1.59-.99.82-2.17.15-3.31Z"/>
    <path class="cls-14" d="M197.88,287.57c4.98-.52,9.64.1,12.36,5.55,1.71,3.43,1.09,5.78-2.45,7.12-8.18,3.09-16.39,3.43-24.74.43-2.31-.83-2.06-2.33-1.84-3.92.71-5.18,5.08-8.66,11.42-9.16,1.65-.13,3.32-.02,5.24-.02Z"/>
    <path class="cls-14" d="M114.07,295.58c3.31-5.83,9.19-8.28,15.63-7.35,3.7.53,7.55-.3,11.25,1.13,3,1.17,5.38,2.61,5,6.34-.27.63-.53,1.26-.8,1.89,0,0,0,.02,0,.02-9.09,4.6-18.21,5.76-27.45.39-.66-.39-1.61-.28-2.43-.4-.38,0-.77,0-1.15.01-.01-.68-.02-1.35-.03-2.03Z"/>
    <path class="cls-14" d="M210.2,282.67c-.73-5.34,3.12-7,7-7.94,6.13-1.48,11.83,1.77,17.79,2.54,2.85.37,3.31,3.4,3.09,6.04-.26,3.02-2.05,4.36-5.01,4.28-1.36-1.45-3.02-.53-4.57-.67-6.27-.6-13.21,1.46-18.3-4.25Z"/>
    <path class="cls-14" d="M150.02,283.49c.84-3.93,3.69-5.55,7.25-6.5,6.18-1.64,16.99,2,19.62,6.68-2.36,1.25-2.82,4.8-6.25,4.9-3.11.09-6.24,1.09-9.31.88-4.49-.31-9.49-.31-11.3-5.96Z"/>
    <path class="cls-2" d="M254.08,268.85c2.86-2.1,6.47-1.99,9.64-3.23,6.13-2.39,7.91-4.7,8.39-11.37.34-4.68.95-9.34,2.59-14.05.8,9.81,1.6,19.61,2.39,29.42-2.37,2.94-5.35,4.08-9.09,3.17-4.69-1.14-9.83-.7-13.93-3.94Z"/>
    <path class="cls-14" d="M180,274.35c.52-4.97,3.66-8.07,9.87-7.62,4.87.35,10.45-.19,14.33,4.18,0,0,0,.46,0,.46,0,.71,0,1.42,0,2.12-5.48,7.02-19.08,7.5-24.21.86Z"/>
    <path class="cls-1" d="M114.07,295.58c.01.68.02,1.35.03,2.03-2.24,1.97.72,3.93.01,5.9-3.78-4.98-10.64-4.26-15.03-8.1,4.12-3.14,9.13-3.82,13.94-5.04,1.32,1.54-2.6,4.14,1.05,5.21Z"/>
    <path class="cls-6" d="M150.02,283.49c1.82,5.65,6.81,5.65,11.3,5.96,3.07.21,6.2-.79,9.31-.88,3.43-.1,3.89-3.64,6.25-4.9.71,3.39-1.06,5.79-3.86,6.71-7.4,2.41-14.98,3.41-22.03-1.07-1.91-1.21-5.28-3.13-.98-5.82Z"/>
    <path class="cls-6" d="M115.25,297.6c.82.12,1.77.01,2.43.4,9.24,5.37,18.36,4.21,27.45-.39-.79,3.85-3.81,4.95-7.07,5.92-6.1,1.83-12.05.92-17.99-.73-.84-.17-1.67-.35-2.51-.52-.77-1.56-1.54-3.13-2.31-4.69Z"/>
    <path class="cls-6" d="M180,274.35c5.13,6.64,18.73,6.16,24.21-.86,2.13,2.5.98,5.09-3.22,6.5-6.68,2.24-13.27,1.52-19.62-1.35-.99-.45-1.92-1.3-2.55-2.2-.83-1.18.21-1.71,1.18-2.09Z"/>
    <path class="cls-6" d="M210.2,282.67c5.09,5.7,12.02,3.65,18.3,4.25,1.55.15,3.21-.77,4.57.67-.08.26-.16.51-.25.76-1.59.45-3.19.89-4.78,1.33-.6.06-1.2.12-1.8.17-2.41-.03-4.82-.06-7.23-.1-4.31-.66-8.57-1.37-8.8-7.09Z"/>
    <path class="cls-5" d="M216.88,305.32c.71-.58,1.43-1.16,2.14-1.74.42-.24.85-.47,1.27-.7,2.11-.3,5.03-2.86,6.03-.82,1.06,2.18-2.32,3.82-4.17,5.25-1.76,1.37-3.53,2.94-5.98,3.05.15-1.69,1.43-3.23.71-5.04Z"/>
    <path class="cls-12" d="M167.99,298.67c.67,1.14,1.44,2.32-.15,3.31-1.51.93-3.09.85-4.57-.07-1.62-1.01-.67-2.21-.14-3.35,1.62.03,3.24.07,4.86.1Z"/>
    <path class="cls-14" d="M219,289.77c2.41.03,4.82.06,7.23.1-1.65,2.66-4.59,2.02-6.99,2.75-.08-.95-.16-1.9-.24-2.85Z"/>
    <path class="cls-14" d="M228.04,289.69c1.59-.44,3.19-.89,4.78-1.33.03.75.06,1.5.08,2.25-1.62-.32-3.87,2.71-4.86-.92Z"/>
    <path class="cls-6" d="M145.14,297.59c.27-.63.54-1.26.8-1.89.09.78-.03,1.48-.8,1.89Z"/>
    <polygon class="cls-6" points="204.2 271.37 204.2 270.91 204.58 271.13 204.2 271.37"/>
    <path class="cls-10" d="M274.35,111.35c9.82,4.52,20.21,6.03,30.91,5.53,3.31-.15,5.17,1.38,6.75,3.99,3.25,5.36,6.67,10.63,10.01,15.94-1.16,1.62-2.23,3.06-2.01,5.41,1.28,13.62-3.38,25.27-12.48,35.23-3.62,3.97-8.73,5.87-13.3,8.38-3.15,1.73-6.38,3.39-9.52,5.18-2.54-.04-5.17-1.01-7.54.73-15.86-3.35-27.43-12.28-34.61-26.8-.61-1.23-.34-2.9-.48-4.37,1.61,1.19,3.3,2.49,5.3,2.53,3.15.08,5.42-1.43,5.66-4.86.24-3.35-2.05-3.51-4.61-3.65-2.51-.14-4.53.63-6.4,2.13-5.06-4.65-6.26-10.89-7.09-17.28-.15-1.64-.28-3.28-.46-4.91-.54-4.72-.33-8.87,3.49-12.76,3.79-3.85,6.74-8.64,7.55-14.3,1.42.02,2.84.04,4.26.06,4.65,3.94,9.42,7.71,15.09,10.15.58.25,1.1.66,1.69.88,3.3,1.18,7.37,2.2,9.8.14,1.81-1.54-2.37-4.11-2.59-6.74.2-.19.39-.39.58-.59ZM303.64,144.64c-1.27,0-2.1-.03-2.93,0-3.62.13-7.69,3.28-7.25,5.99.63,3.87,3.8,4.04,6.91,3.96,1.32-.03,2.75.15,3.92-.31,2.75-1.08,5.95-2.33,5.42-6.03-.51-3.54-3.44-4.01-6.07-3.62ZM272.84,172.69c6.19-.29,11.64-2.34,15.59-7.42.93-1.19,2.59-2.89.67-4.27-1.61-1.15-2.64.78-3.53,1.86-4.17,5.11-9.45,7.04-15.93,5.94-1.41-.24-3.6-1.83-3.94.88-.24,1.93,1.92,2.42,3.59,2.7,1.14.19,2.31.21,3.54.31ZM292.9,139.93c-.46-2.77-1.44-5.99-5.26-6.21-3.68-.21-4.56,2.71-4.45,5.77.11,3.07,1.24,6.3,4.41,6.66,3.34.38,5.3-2.17,5.31-6.22ZM264.04,140.41c-3.95,1.97-3.51,5.83-5.03,8.76-2.96,5.71.7,10.81,8.8,9.28,1.85-.35,4.54-1.02,3.94-3.52-.57-2.38-2.94-1.16-4.63-.84-4.18.78-5.58-.44-4.95-4.64.46-3.04,1.23-6.03,1.86-9.04ZM253.26,144.94c-.2-3.65-1.58-6.9-5.58-6.8-3.17.08-3.85,3.25-3.72,6.03.16,3.21,1.39,6.17,5.03,6.28,3.33.11,4.34-2.47,4.27-5.51ZM295.52,124.17c-.07-.15-.11-.32-.2-.45-1.92-2.49-4.79-2.62-7.54-2.88-2.88-.27-5.62.21-7.57,2.64-.33.41-.38,1.28-.19,1.8.33.89,1.32,1.14,2.07.74,3.91-2.06,7.86-1.93,11.93-.55.77.26,1.64-.14,1.5-1.31ZM247.47,126.48c-3.45.21-6.01,1.93-8.13,4.41-.73.86-1.69,1.92-.52,3.02,1,.95,1.81-.02,2.48-.72,1.86-1.91,4.48-1.87,6.78-2.63,1.38-.45,3.92.78,3.71-1.85-.19-2.32-2.59-2.09-4.32-2.24Z"/>
    <path class="cls-7" d="M165.27,193.56c-1.18-6.2,1.28-11.55,3.94-16.86,0-.36,0-.72-.01-1.07,0,0-.03.05-.03.05,3.54-1.7,5.34-4.92,7.07-8.18,3.54-2.86,3.98-6.88,4.13-11.01,6.2-2.61,7.35,1.98,8.78,6.16.23,6.08-3.17,10.57-6.66,14.98-3.32,4.2-5.91,8.68-6.09,14.2-.24.57-.49,1.14-.73,1.72-3.47-1.18-6.93-.78-10.4,0Z"/>
    <path class="cls-12" d="M200.81,256.29c.04-15.22.19-30.45.07-45.67-.04-5.84-2.36-7.35-8.29-6.27-3.54.64-7.26.53-10.43,2.64-.48-.21-.97-.42-1.45-.63-.28-.72-.56-1.43-.84-2.15,5.07-2.58,10.67-3.2,16.12-3.27,4.14-.05,7.92,5.57,8,11.19.2,13.66.06,27.32.09,40.99,0,1.83-.25,3.35-2.43,3.65-.34-.06-.62-.22-.84-.49Z"/>
    <path class="cls-13" d="M179.87,204.23c.28.72.56,1.43.84,2.15-2.74,1.55-5.6,2.67-8.84,2.33-1.1-1.48-2.2-2.97-3.3-4.45l-3.4-9.72c.03-.32.06-.65.09-.97,3.47-.79,6.93-1.19,10.4,0,.96,3.73,1.72,7.55,4.21,10.68Z"/>
    <path class="cls-9" d="M277.17,191.73c2.37-1.74,5-.77,7.54-.73.4.82.8,1.63,1.2,2.45.07,1.04.14,2.08.21,3.12-.8-.13-1.75-.02-2.37-.43-1.33-.88-2.29-3.84-4.11-1.67-1.39,1.66-1.18,4.45.49,6.41,1.03,1.2,3.09,1.95.81,3.77-1.22-1.14-2.44-2.27-3.66-3.41-1.4-3.15-.06-6.34-.13-9.5Z"/>
    <path class="cls-3" d="M205.12,170.08c-.15,5.28-3.65,8.66-8.01,8.52-3.32-.1-6.07-3.73-5.89-7.75.18-4.03,3.29-6.54,7.88-6.31,4.02.2,5.85,2.5,6.03,5.54Z"/>
    <path class="cls-10" d="M69.49,274.77c-.24-1.72-.43-3.43.17-5.12,3.86.2,7.57-.79,11.3-1.53,2.33-.46,3.31-1.17,2.13-4.01-1.76-4.23-1.79-8.86.51-12.97.51-.91.14-7.25,4.27-2.01.51.64,1.58-.2,1.95-.96,1.79-3.69,4.32-7.22,2.79-11.72-.37-1.1-.92-2.57.18-3.21,1.49-.86,2.25.88,3.2,1.69,2.27,1.95,2.94,4.76,3.85,7.42.4,1.16-.08,3.08,1.77,3.1,1.89.02,1.28-1.98,1.81-3.07.21-.42.55-.78.84-1.18,5.73,5.24,6.55,12.27,2.1,19.83,7.31-.54,14.02-2.65,20.79-4.3,2.62-.64,4.99-1.05,7.73-.28,7.44,2.11,15.25,2.91,22.38,6.18-.76,1.16-2,1.04-3.14,1.17-3.28-.42-6.56-.84-9.84-1.26-1.89-.63-3.73-1.43-5.66-1.86-4.12-.92-8.11-3.23-12.55-1.16-.87.41-2.23.3-2.37,1.42-.16,1.22,1.09,1.44,2.04,1.65,5.82,1.27,11.36,3.68,17.34,4.32l.26,1.6c-1.34.04-2.68.07-4.02.11-4.15-1.2-8.26-2.53-12.44-3.57-5.97-1.48-11.97-4.27-18.8.09,7.13,2.31,13.67,4.42,20.21,6.54-.56,1.15-1.38,1.92-2.76,1.91-6.9-2.31-13.75-4.8-20.74-6.83-2.11-.61-4.61-.1-6.89.18-1.06.13-2.45.63-2.54,2.01-.11,1.67,1.43,1.43,2.48,1.76,6.14,1.91,12.27,3.84,18.4,5.77-.97,1.64-2.61,1.08-4.04,1.24-7.3-2.21-14.59-4.47-21.92-6.61-4.06-1.18-8.01-.96-12.53,1.77,8.72,3.02,16.64,5.76,24.56,8.51-.98,1.74-2.62,1.22-4.12,1.22-1.23-.42-2.44-.93-3.7-1.25-8.36-2.07-16.07-6.64-24.99-6.59Z"/>
    <path class="cls-15" d="M102.3,281.38c-7.92-2.74-15.84-5.49-24.56-8.51,4.52-2.73,8.47-2.95,12.53-1.77,7.33,2.13,14.61,4.4,21.92,6.61-2.37,3.71-6.36,3.06-9.89,3.67Z"/>
    <path class="cls-15" d="M69.49,274.77c8.92-.05,16.63,4.52,24.99,6.59,1.26.31,2.47.83,3.7,1.25-3.07,3.15-7.03,3.12-10.99,3.09-5.89-1.74-11.47-4.5-17.67-5.18-.01-1.91-.03-3.83-.04-5.74Z"/>
    <path class="cls-15" d="M116.23,276.47c-6.13-1.93-12.26-3.86-18.4-5.77-1.05-.33-2.6-.09-2.48-1.76.09-1.38,1.48-1.88,2.54-2.01,2.29-.28,4.78-.79,6.89-.18,6.98,2.03,13.83,4.52,20.74,6.83-2.72,2.16-5.8,3.21-9.3,2.89Z"/>
    <path class="cls-15" d="M128.28,271.68c-6.54-2.12-13.08-4.23-20.21-6.54,6.83-4.36,12.83-1.57,18.8-.09,4.18,1.04,8.3,2.37,12.44,3.57-2.9,3.83-7.12,2.88-11.03,3.06Z"/>
    <path class="cls-15" d="M69.56,290.54c-.27-2.35-.46-4.7.21-7.03,5.04.19,9.49,2.49,14.14,4.06-.85,1.55-3.31,1.06-3.85,3.02-3.52,3.95-7.01.2-10.51-.05Z"/>
    <path class="cls-10" d="M83.91,287.57c-4.65-1.57-9.1-3.87-14.14-4.06-.08-1-.16-2-.24-3,6.2.69,11.78,3.44,17.67,5.18-.23,2.14-1.81,1.92-3.29,1.87Z"/>
    <path class="cls-10" d="M69.56,290.54c3.5.24,6.99,3.99,10.51.05.51,1.84,1.03,3.67,1.54,5.51,0,0,.28.01.28.01h.29c.02.52.04,1.04.05,1.57-.4,0-.79,0-1.19,0-3.24-1.19-6.38-2.7-9.89-2.97-.47-.21-.95-.42-1.42-.62-.46-1.16-.56-2.33-.16-3.53Z"/>
    <path class="cls-14" d="M144.28,262.55c3.28.42,6.56.84,9.84,1.26-2.21,4.76-6.36,5.07-10.79,4.7-.08-.53-.17-1.07-.25-1.6.4-1.45.8-2.91,1.2-4.36Z"/>
    <path class="cls-5" d="M82.22,297.68c-.02-.52-.04-1.05-.05-1.57,0,0,.02.05.02.05.9-.04,1.81-.08,2.71-.11.8.45,1.59.9,2.39,1.35-.12.76-.25,1.52-.37,2.27-1.99.36-3.16-1.27-4.7-1.99Z"/>
    <path class="cls-9" d="M82.19,296.16s-.02-.05-.02-.05c0,0-.29,0-.29,0,0,0-.29-.01-.28-.01.21-.03.4-.01.59.06Z"/>
    <path class="cls-14" d="M242.04,156.71c1.87-1.51,3.89-2.28,6.4-2.13,2.56.15,4.85.3,4.61,3.65-.24,3.43-2.51,4.94-5.66,4.86-2-.05-3.69-1.35-5.3-2.53-.02-1.28-.03-2.56-.05-3.85Z"/>
    <path class="cls-15" d="M337.32,131.42c-3.51,2.45-5.43,4.99-5.4,8.67,0,1.01-.52,2.12-1.74,1.95-1.34-.18-1-1.5-1.07-2.43-.47-6.06,2.3-9.22,8.21-8.19Z"/>
    <path class="cls-10" d="M286.14,196.56c-.07-1.04-.14-2.08-.21-3.12,4.63.59,9.3,1.62,13.49-1.64.22-.17,1.07.47,1.62.73-3.72,5.96-9.65,3.74-14.9,4.03Z"/>
    <path class="cls-6" d="M319.98,176.55c1.45.59,4.52.28,1.58,3.18-1.61,1.59-2.89,3.53-4.39,5.23-.85.96-1.95,2.28-3.28,1.18-1.37-1.15.31-1.93.9-2.75.67-.92,1.76-1.71.28-2.81,1.11-1.99,3.36-2.59,4.91-4.04Z"/>
    <path class="cls-6" d="M305.72,189.51c1.24-.16,2.47-.32,4.09-.53-.34,2.29-1.4,3.82-3.26,4.46-1.53.52-2.41-.51-2.54-2.09.1-1.04.66-1.67,1.7-1.83Z"/>
    <path class="cls-10" d="M273.77,111.94c-.31-.3-.59-.64-.07-.95.11-.06.43.24.65.37-.19.2-.38.39-.58.59Z"/>
    <path class="cls-9" d="M280.84,216.85c-.21.28-.4.76-.76.97-.65.37-.88-.22-.83-.68.05-.41.31-.95.64-1.13.54-.3.84.14.95.84Z"/>
    <path class="cls-7" d="M295.82,244.26c-.24,2.19-1.34,3.75-3.29,3.9-2.44.19-3.32-1.67-3.43-3.83-.1-2.04.62-3.61,2.92-3.7,2.55-.1,3.09,1.95,3.8,3.63Z"/>
    <path class="cls-6" d="M324.06,189.04c-.37,1.93-1.14,3.65-3.2,3.93-1.51.21-2.44-1.13-2.58-2.43-.23-2.12,1.18-3.38,3.11-3.75,1.57-.3,2.33.86,2.68,2.25Z"/>
    <path class="cls-6" d="M313.63,193.86c1.74.08,3.01,1.11,3.04,2.67.04,2.08-2.05,2.43-3.56,2.87-1.75.51-2.44-1.06-2.65-2.3-.38-2.26,1.82-2.4,3.16-3.24Z"/>
    <path class="cls-3" d="M131.15,192.69q-10.07,3.4-10.12-7.03c-.04-12.97-1.16-9.9,10.14-12.22,5.04-1.03,10.04-2.29,15.23-2.24-.6.57-1.21,1.11-1.77,1.7-5.61,5.84-10.54,12.13-13.48,19.79Z"/>
    <path class="cls-3" d="M153.02,188.73c-1.93-.1-3.23,1.26-4.78,2.05-2.06,0-4.12,0-6.18-.02.2-2.09,1.62-3.55,2.55-5.29,3.03-5.66,8.48-9.75,10.38-16.11,3.99-1.93,5.41-.34,5.25,3.71-.11,2.62.02,5.25.05,7.87.07,7.26-.1,7.44-7.26,7.78Z"/>
    <path class="cls-5" d="M154.98,169.37c-1.9,6.36-7.34,10.45-10.38,16.11-.93,1.74-2.35,3.2-2.55,5.29-3.64.64-7.27,1.29-10.91,1.93,2.93-7.66,7.87-13.96,13.48-19.79.56-.59,1.18-1.13,1.77-1.7,2.66-1.55,5.62-1.69,8.58-1.83Z"/>
    <path class="cls-3" d="M165.17,194.53c1.13,3.24,2.27,6.48,3.4,9.72-4.17,3.73-9.78,3.61-14.64,5.5-3.64-3.66-6.39-7.57-3.73-13.03,4.99-.73,9.99-1.46,14.98-2.18Z"/>
    <path class="cls-5" d="M104.9,196.67c-2.82.03-5.28-.57-6.49-3.52-1.34-3.25-1.78-6.41.9-9.24.88-.93,1.64-2.34,3.2-1.94,1.31.34,1.47,1.62,1.59,2.81.11,1.11-.09,2.66,1.52,2.63,1.52-.03,1.42-1.52,1.56-2.66.12-1.08-.35-2.62,1.2-2.89,1.7-.3,2.08,1.37,2.66,2.48,3.02,5.68-.35,12.42-6.14,12.34Z"/>
    <path class="cls-5" d="M82.57,186.19c4.65,2.13,4.03,6.13,3.13,9.74-.84,3.38-3.04,5.82-7.09,5.78-3.44-.03-5.87-1.26-6.4-4.86-.61-4.19.17-8.07,3.96-10.54,1.81-1.18,2.03.83,2.58,1.94.78,1.58-.89,5,1.89,4.64,2.61-.33,1.06-3.67,1.49-5.64.07-.31.24-.59.44-1.06Z"/>
    <path class="cls-4" d="M176.23,167.51c-1.74,3.26-3.53,6.48-7.07,8.18.72-4.15,1.79-7.98,7.07-8.18Z"/>
    <path class="cls-4" d="M169.19,175.63c0,.36,0,.71.01,1.07-.62-.35-.85-.71-.01-1.07Z"/>
    <path class="cls-5" d="M209.15,313.81c1.18-2.54,3.46-3.06,5.93-3.23-1.37,2.2-3.72,2.57-5.93,3.23Z"/>
    <path class="cls-10" d="M147.81,214.11c2.51-.78,5.55.05,7.51-2.44.66.08,1.33.17,1.99.26,1.29,3.02,3.42,5.73,3.8,9.07.54,4.81.52,9.37-3.06,13.55-3.4,3.97-6.63,8.33-6.94,13.98-.04.65-.05,1.4-.83,1.6-1.03.27-1.45-.53-1.86-1.25-2.12-3.72-1.63-8.28.44-10.88,6.86-8.62,5.66-16.21-1.04-23.89Z"/>
    <path class="cls-10" d="M171.87,208.7c3.24.35,6.1-.78,8.84-2.33.49.21.97.42,1.45.63.53,5.86,3.2,11.54,1.01,17.64-1.87,5.19-4.67,9.51-9.42,12.65,3.47-9.66,6.95-19.09-1.96-27.65,0-.32.03-.63.08-.94Z"/>
    <path class="cls-12" d="M171.87,208.7c-.06.31-.08.63-.08.94-5.01-.4-9.75.97-14.49,2.27-.66-.09-1.33-.17-1.99-.26-.46-.64-.92-1.28-1.38-1.91,4.86-1.89,10.47-1.77,14.64-5.5,1.1,1.48,2.2,2.97,3.3,4.45Z"/>
    <path class="cls-9" d="M82.22,297.68c1.54.72,2.7,2.34,4.7,1.99.41.69.82,1.38,1.23,2.06-.21,2.12,1.99,2.43,2.8,3.78-3.54,2.73-6.58-.26-9.83-.86,1.54-2.35.71-4.67-.09-6.99.4,0,.79,0,1.19,0Z"/>
    <path class="cls-15" d="M81.03,297.67c.79,2.32,1.63,4.64.09,6.99-3.3-1.32-6.61-2.64-9.91-3.95-.02-2-.04-4-.07-6.01,3.51.28,6.65,1.78,9.89,2.97Z"/>
    <path class="cls-15" d="M73.07,311.52c-1.27-2.15-.86-4.54-.94-6.86,3.39.72,6.66,1.76,10.17,3.56-2.87,2.48-6.18,2.56-9.23,3.3Z"/>
    <path class="cls-13" d="M115.25,297.6c.77,1.56,1.54,3.13,2.31,4.69-1.15.41-2.3.81-3.45,1.22.71-1.97-2.25-3.93-.01-5.9.38,0,.77,0,1.15-.01Z"/>
    <path class="cls-14" d="M303.64,144.64c2.63-.39,5.56.08,6.07,3.62.53,3.7-2.67,4.95-5.42,6.03-1.17.46-2.6.27-3.92.31-3.1.08-6.28-.08-6.91-3.96-.44-2.71,3.63-5.87,7.25-5.99.83-.03,1.65,0,2.93,0Z"/>
    <path class="cls-12" d="M272.84,172.69c-1.23-.1-2.4-.12-3.54-.31-1.67-.28-3.82-.77-3.59-2.7.33-2.71,2.53-1.12,3.94-.88,6.48,1.1,11.76-.84,15.93-5.94.88-1.08,1.92-3.01,3.53-1.86,1.92,1.37.25,3.07-.67,4.27-3.94,5.08-9.39,7.13-15.59,7.42Z"/>
    <path class="cls-12" d="M292.9,139.93c-.01,4.06-1.96,6.61-5.31,6.22-3.17-.36-4.3-3.6-4.41-6.66-.11-3.06.78-5.98,4.45-5.77,3.82.22,4.8,3.44,5.26,6.21Z"/>
    <path class="cls-14" d="M264.04,140.41c-.63,3.01-1.4,6-1.86,9.04-.64,4.21.76,5.43,4.95,4.64,1.69-.32,4.06-1.54,4.63.84.6,2.5-2.1,3.17-3.94,3.52-8.1,1.52-11.76-3.57-8.8-9.28,1.52-2.94,1.09-6.8,5.03-8.76Z"/>
    <path class="cls-12" d="M253.26,144.94c.08,3.04-.94,5.61-4.27,5.51-3.65-.12-4.88-3.07-5.03-6.28-.13-2.77.55-5.95,3.72-6.03,4.01-.1,5.38,3.15,5.58,6.8Z"/>
    <path class="cls-12" d="M295.52,124.17c.14,1.17-.73,1.57-1.5,1.31-4.07-1.39-8.02-1.51-11.93.55-.75.39-1.73.15-2.07-.74-.19-.52-.14-1.39.19-1.8,1.94-2.43,4.69-2.91,7.57-2.64,2.75.26,5.62.39,7.54,2.88.1.13.14.3.2.45Z"/>
    <path class="cls-12" d="M247.47,126.48c1.74.15,4.14-.08,4.32,2.24.21,2.63-2.34,1.4-3.71,1.85-2.3.76-4.91.72-6.78,2.63-.68.69-1.48,1.67-2.48.72-1.17-1.1-.21-2.16.52-3.02,2.11-2.49,4.68-4.21,8.13-4.41Z"/>
    <path class="cls-15" d="M144.28,262.55c-.4,1.45-.8,2.9-1.2,4.36-5.98-.64-11.51-3.05-17.34-4.32-.96-.21-2.2-.43-2.04-1.65.15-1.12,1.5-1.01,2.37-1.42,4.44-2.07,8.43.24,12.55,1.16,1.93.43,3.78,1.23,5.66,1.86Z"/>
  </g>
</svg>