<?xml version="1.0" encoding="UTF-8"?>
<svg id="Layer_2" xmlns="http://www.w3.org/2000/svg" viewBox="0 0 409.21 409.76">
  <defs>
    <style>
      .cls-1 {
        fill: #85603f;
      }

      .cls-2 {
        fill: #bb6558;
      }

      .cls-3 {
        fill: #fefefd;
      }

      .cls-4 {
        fill: #d3e7ec;
      }

      .cls-5 {
        fill: #ac7f57;
      }

      .cls-6 {
        fill: #c2c1c0;
      }

      .cls-7 {
        fill: #c0bfbf;
      }

      .cls-8 {
        fill: #7f9098;
      }

      .cls-9 {
        fill: #585d5f;
      }

      .cls-10 {
        fill: #a85047;
      }

      .cls-11 {
        fill: #cdbba9;
      }

      .cls-12 {
        fill: #c79565;
      }

      .cls-13 {
        fill: #9fabb1;
      }

      .cls-14 {
        fill: #e7b88a;
      }

      .cls-15 {
        fill: #d2d6d8;
      }

      .cls-16 {
        fill: #c79e7b;
      }
    </style>
  </defs>
  <g id="Layer_1-2" data-name="Layer_1">
    <g>
      <path class="cls-6" d="M409.21,204.61c0,57.98-24.12,110.33-62.87,147.55-.61.59-1.23,1.18-1.86,1.76-36.58,34.3-85.77,55.29-139.87,55.29C93.38,409.21,2.87,320.45.07,209.89c0-.07-.01-.13,0-.2-.05-1.69-.07-3.38-.07-5.08,0-7.12.36-14.16,1.08-21.1,0-.02,0-.04.01-.06C7.63,119.75,43.39,64.71,94.76,31.97c.1-.06.19-.12.28-.18,2.34-1.49,4.72-2.93,7.13-4.33.2-.12.4-.24.6-.35C129.6,11.68,160.27,2.16,192.99.33c2.96-.17,5.93-.27,8.91-.31.58-.01,1.16-.02,1.74-.01.32,0,.65,0,.97,0,4.29,0,8.55.13,12.78.4.23.01.47.02.7.04,9.73.63,19.27,1.94,28.58,3.89,1.64.34,3.27.7,4.89,1.09,1.15.26,2.29.54,3.42.83,3.16.8,6.28,1.67,9.37,2.62.54.16,1.08.32,1.62.49.45.14.9.29,1.35.44.37.11.74.23,1.1.35,13.94,4.57,27.23,10.6,39.66,17.91,2.99,1.75,5.92,3.58,8.81,5.48.15.1.31.2.46.31,2.46,1.62,4.89,3.3,7.28,5.04.84.6,1.66,1.21,2.49,1.82.26.2.51.39.77.59.36.27.71.54,1.07.81,1.75,1.34,3.48,2.71,5.18,4.11,5.09,4.16,9.97,8.57,14.63,13.2,1.5,1.5,2.98,3.01,4.43,4.55,1.01,1.05,2,2.12,2.97,3.2.23.24.46.49.68.74,1.39,1.55,2.75,3.12,4.09,4.71,0,.01.02.02.02.02.55.65,1.1,1.3,1.64,1.96,29.12,35.35,46.61,80.64,46.61,130.01Z"/>
      <g>
        <path class="cls-7" d="M267.32,10.8c-.21-.56-.58-.99-1.31-1.15-13.91-3.06-27.69-7.1-41.96-7.94-2.22-.13-4.44-.24-6.66-.31-26.99-1-53.58,1.85-79.26,11.14-36.9,13.35-67.78,35.57-91.94,66.22C13.54,120.17-1.07,167.59,2.31,220.51c1.15,18.09,5.03,35.48,10.97,52.42,8.48,24.22,21.1,46.22,37.95,65.61,3.4,3.92,6.32,8.53,11.15,11.09,3.33-.05,6.69-.4,9.98-.06,4.7.48,6.2-1.03,6.23-5.96.08-14.47-1.92-28.88-1.01-43.35-3.34-2.34-7.55-2.09-11.15-3.75-2.86-1.31-5.92-2.23-8.36-4.3-4.87-4.14-4.3-10.11,1.39-12.97,6.17-3.11,12.57-2.07,18.92-.5.06-.92.24-1.78,1.12-2.31-3.61-7.08-2.43-10.27,4.82-13.77,3.92-1.89,8.92-1.55,11.82-5.63.21-.28.91-.28,1.38-.28,10.84.03,21.35-2.8,32.06-3.63,4.81-.37,8.97-2.16,13.3-3.71h.01c-.11-.46-.29-.88-.52-1.25-.11-.19-.24-.37-.38-.54-.14-.18-.28-.34-.44-.5-1.41-1.43-3.46-2.4-4.39-4.17-.1-.2-.19-.4-.27-.62-.16-.48-.25-1.02-.23-1.63-1.37-1.1-2.74-2.19-4.11-3.28-6.92.63-9.73-5.51-11.29-9.56-2.58-6.69-5.89-13.66-4.9-21.46.38-2.97,1.14-5.37,3.22-7.53,6.24-6.49,6.63-8.51,2.63-16.72-1.37-2.82-1.46-5.66-1.84-8.62-.73-5.66,3.74-7.31,7.03-9.68,1.62-1.16,3.7-.1,5.35,1.42,5.14,4.75,8.97,10.21,9.65,17.36.51,5.43,2.47,8.63,8.39,10.55,5.06,1.63,8.4,6.83,8.63,12.87.13,3.48.02,6.98.02,10.47,6.36,5.59,12.64,11.27,19.1,16.74,3.73,3.16,6.33,7.06,8.41,12.03,1.16-3.88.11-6.53-2-8.85-1.19-1.31-1.6-2.29.07-3.67,9.86-8.14,19.48-16.57,29.52-24.48,5.34-4.2,11.7-6.92,17.88-9.79.65-4.47-.76-7.52-4.66-10.44-7.61-5.7-12.84-13.45-16.35-22.4-1.49-3.78-.48-7.57-1.16-11.3-1.19-6.43-4.45-12.09-7.05-17.92-2.39-5.34-.11-9.73,1.35-14.15.97-2.91,3.97-5.14,6.06-7.68.56-4.74,1.46-9.39,3.2-13.87.77-1.98,1.88-3.33,3.89-3.93-1.34-4.12.92-7.8,1.54-11.67.47-2.9,1.42-5.72,2.16-8.57-13.07-3.35-23.03-19.06-18-33.01.43-11.39,7.23-18.53,16.44-23.66,8.99-5.01,18.1-4.48,26.7,1.3,2.02,1.36,3.8,2.28,5.65.15,4.16-4.8,9.98-6.98,15.32-9.94-.05-.21-.11-.42-.19-.61ZM88.22,251.06c-.42-6.37-4.34-9.59-9.55-12.16-6.68-3.3-9.25-10.96-6.35-17.88,1.14-2.71,2.57-5.29,4.49-7.97-2.5,9.65,3.25,15.12,9.27,20.73,5.17,4.81,5.78,10.56,2.14,17.28ZM104.36,246.69c2.82-10.7-2.85-16.69-10.84-21.9-10.36-6.78-8.46-19.58-2.22-26.59,2.32-2.6,4.53-5.29,6.88-7.87,3.47-3.81,3.48-8.42,3.33-13.14-.03-1.06-.62-2.64.78-3.09,1.58-.52,2.24,1.07,2.96,2.12,5.31,7.68,3.43,15.09-.89,22.42-5.91,10-5.57,13.12,2.16,21.49,7.02,7.6,6.49,17.56-2.16,26.56ZM190.39,198.8c-1.14,3.36-3.4,6.07-5.6,8.74-2.52,3.06-5.72,5.66-5.49,10.2.04.88-.51,1.65-1.54,1.49-.99-.15-1.1-1.03-1.26-1.88-.84-4.34.66-8.42,2.37-12.03,3.04-6.43.35-11.19-3.1-16.05-3.19-4.5-7.42-8.09-7.54-14.61-.12-6.71,5.05-14.3,12.7-18.35-5.11,9.14-5.33,18.47,3.23,25.52,5.23,4.29,8.69,9.69,6.23,16.97Z"/>
        <path class="cls-7" d="M354.38,67.61c4.06.61,5.22,4.47,7.29,7.02,21.75,26.77,36.05,57.18,43.14,90.9,1.97,9.38,3.19,18.9,3.76,28.55,1.16,19.54-.55,38.72-5.16,57.69-3.53,14.54-8.45,28.6-14.92,42.09-7.36,15.34-16.46,29.61-27.23,42.76-3.84,4.69-7.82,9.35-12.8,12.96-6.67-.02-13.34-.03-20.01-.05.02-10.79-1.44-21.49-2.03-32.24-.12-2.24-.89-2.6-3.15-2.32-5.74.72-11.54,2.28-17.29,1.4-8.52-1.3-17.18-.68-25.69-2.59-3.78-.85-6.16-1.83-6.87-5.67,1.63-.96,2.95-2.54,5.06-2.58,1.46,1.72-3.51,5.4,1.9,5.98,15.14,1.61,30.18,2.39,45.44.17,15.56-2.26,23.07-12.43,22.82-25.52-.32-17-3.89-33.14-9.99-48.79-1.59-4.09-1.46-9.34-6.2-11.87-5.05-10.56-12.43-18.71-23.61-23-1.83-.7-3.46-1.3-4.74.8-4.39,7.22-11.34,11.4-18.88,13.96-5.92,2.01-5.71,4.83-3.77,9.38,2.17,5.09,3.25,10.44,2.84,16.04-.4,5.47-1.31,6.08-6.21,4.03-3.25-1.36-6.52-2.94-8.8-5.52-3.23-3.64-7.72-6.8-7.12-12.68,2.71,6.59,8.02,10.35,14.23,13.22,3.17,1.47,4.05.5,4.08-2.76.09-8.71-2.51-16.24-10.02-22.19,3.34-.53,5.88-.6,7.98-2.13,8.94-1.76,15.79-7.13,22.36-12.99,1.81-1.61,1.78-3.23.33-5.17-2.68-3.55-5.19-7.23-7.78-10.85.08-1.57,1.48-2.07,2.39-2.97,4.21-4.16,8.78-8.05,10.71-13.97,5.02-1.88,8.23-5.69,10.81-10.16,5.1-.96,10.18-6.33,11.07-11.71,1.2-7.3-1.14-12.15-7.44-15.37-.28-1.25-.56-2.5-.84-3.75,3.13-4.96,2.39-10.75,3.3-16.17.73-4.34,1.51-7.21,7.13-7.19,8.55.04,14.83-4.8,19.39-11.79,4.99-7.65,4.88-16.31,4.53-24.97Z"/>
        <path class="cls-13" d="M192.43,301.2c-.05-4.65,1.71-9.17.85-13.85-13.27,2.04-26.7,2.93-40.05,2.85-19.67-.13-39.31-1.62-58.5-6.67-5.54-1.46-10.56-3.85-15.23-7.1-.88.53-1.06,1.39-1.12,2.31-.12,2.08-.62,4.16.01,6.24-1.22,3.25,2.16,4.36,3.09,6.62.98.6,2,1.16,2.94,1.83,2.18,1.57,1.93,3.65,1.11,5.8-.87,2.28-2.67,2.09-4.55,1.67-1.13-.25-2.26-.43-3.4-.64-.91,14.47,1.09,28.88,1.01,43.35-.03,4.93-1.53,6.44-6.23,5.96-3.29-.34-6.65.01-9.98.06.21,2.04,1.87,3.06,3.11,4.35,7.57,7.84,16.46,14.09,25.14,20.58.96-3,1.93-6,2.89-9-2.98-1.99-5.9-4.09-8.97-5.94-2.55-1.55-3.69-3.91-4.57-6.66,4.19,2.24,7.97,5.06,12.41,6.64,11.96,4.25,24.41,5.78,36.96,6.88,7.93.69,15.87,1.07,23.84,1.02,6.67-.05,13.24-1.04,19.64-2.49,7.19-1.64,11.91-7.26,15.25-13.4,2.98-5.49,4.7-11.54,4.48-18.13-.36-10.75-.01-21.52-.13-32.28ZM100,356.11c-3.71.12-6.06-2.79-6.4-6.45-.34-3.62-.94-7.29-.9-10.86.17-14.26-1.04-28.54.65-42.79.33-2.8.4-5.01,4.05-4.52,3.16.42,5.98,1.23,5.99,5.2.02,9.14.01,18.28.01,27.42h.05c0,8.48-.01,16.96,0,25.43,0,2.84.38,6.44-3.45,6.57Z"/>
        <path class="cls-3" d="M342.6,82.84c-11.59,11.23-25.83,9.3-37-.75-1.99-1.8-2.41-4.03-1.36-6.79,1.02-2.66,3.03-5.13,2.54-8.39-24.86,19.86-49.98,9.99-62-10.42-.77,5.97-4.84,9.68-11.22,10.03-8.41.46-15.43-2.65-21.83-8.03-4.8-4.03-6.05-9.69-8.33-14.93.43-11.39,7.23-18.53,16.44-23.66,8.99-5.01,18.1-4.48,26.7,1.3,2.02,1.36,3.8,2.28,5.65.15,4.16-4.8,9.98-6.98,15.32-9.94.3-.09.61-.18.91-.26,13.94,4.57,27.23,10.6,39.66,17.91,1.99,4.22,3.52,8.65,4.46,13.39.76,3.82,3.13,2.02,4.91.3,3.38-.17,6.77-.34,10.15-.51.1.02.19.04.29.06.36.27.71.54,1.07.81,1.75,1.34,3.48,2.71,5.18,4.11,5.09,4.16,9.97,8.57,14.63,13.2,1.89,7.89-.39,16.81-6.17,22.42Z"/>
        <path class="cls-13" d="M292.37,388.68c-4.36,4.29-10.31,5.59-15.67,7.73-27.56,11.03-56.38,14.62-85.86,12.96-15.41-.86-30.39-4.46-45.22-8.69-10.86-3.09-21.16-7.58-31.52-11.94-1.35-.57-2.87-.98-3.64-2.45,16.16,3.23,32.46,5.01,48.96,4.37,15.14-.59,30.14-2.13,44.38-7.76,9.87-3.9,10.16-4.71,7.74-15.13-.23-.97-.4-1.95-.6-2.93,1.45-1.67,3.58-2.22,5.39-3.3,4.72-2.79,9.03-5.93,9.56-12.04l.25-.02.25.05c.37.25.75.5,1.12.75,17.53,0,35.05,0,52.58.02,1.82,0,3.65.12,5.3-.9,11.13.13,22.26.26,33.39.39-1.01,2.52,1.95,7.2-3.15,7.4-12.3.48-24.47,2.55-36.83,2.39-12.45-.16-12.23.18-16.02,12.02-1.51,4.72-.06,7.09,3.95,9.17,8.09,4.2,16.89,5.94,25.65,7.89Z"/>
        <path class="cls-15" d="M354.07,80.82c-.05.41-.12.82-.19,1.22-.64,3.65-1.84,7.19-4.02,10.54-4.56,6.99-10.85,11.83-19.39,11.79-5.62-.03-6.4,2.85-7.13,7.18-.91,5.42-.17,11.21-3.3,16.17-2.34-3.55-5.64-6.05-9.18-8.22-4.78-2.93-9.66-5.72-14.5-8.56-.41-5.09,1.14-9.82,2.57-14.6,1.49-4.96-6.02-13.6-11.09-12.63-15.32,2.93-27.92-2.46-39.12-12.38-1.3-1.15-2.43-2.16-4.37-1.28-5.1,2.33-10.56,2.7-16.04,2.42-3.39-.17-5.88.57-6.91,4.1-13.07-3.35-23.03-19.06-18-33.01,2.28,5.24,3.53,10.9,8.33,14.93,6.4,5.38,13.42,8.49,21.83,8.03,6.38-.35,10.45-4.06,11.22-10.03,12.02,20.41,37.14,30.28,62,10.42.49,3.26-1.52,5.73-2.54,8.39-1.05,2.76-.63,4.99,1.36,6.79,11.17,10.05,25.41,11.98,37,.75,5.78-5.61,8.06-14.53,6.17-22.42,1.5,1.5,2.98,3.01,4.43,4.55.16.97.37,1.9,1.18,2.64h.01c.06,1.45.11,2.89.13,4.33.05,2.99-.03,5.97-.45,8.88Z"/>
        <path class="cls-9" d="M210.94,364.86c.2.98.38,1.96.6,2.93,2.42,10.42,2.13,11.23-7.74,15.13-14.24,5.63-29.24,7.17-44.38,7.76-16.5.64-32.8-1.14-48.96-4.37-7.37-2.63-13.03-8.16-19.84-11.74.97-3,1.93-6,2.9-9,2.2-.64,4.16.47,6.24.76,6.31.86,11.93,4.67,18.52,4.21,1,3.07,3.76,3.95,6.35,4.94,4.78,1.82,9.77,2.73,14.84,3.48,7.35,1.1,7.31,1.32,8.52-5.23,2.23-2.33,5.1-.67,7.62-1.21,1.19,8,1.19,8.03,9.17,6.55,4.03-.75,8.16-1.26,12.03-2.53,3.44-1.13,7.54-1.72,9.03-5.98,3.34.33,6.45-.72,9.65-1.45,5.22-1.2,10-3.96,15.45-4.24Z"/>
        <path class="cls-9" d="M292.37,388.68c-8.76-1.95-17.56-3.69-25.65-7.89-4.01-2.08-5.46-4.45-3.95-9.17,3.79-11.84,3.57-12.18,16.02-12.02,12.36.16,24.53-1.92,36.83-2.39,5.11-.2,2.14-4.88,3.15-7.4,2.57-4.64,3.57-4.68,6.56-.27.08,5.38,1.48,9.22,8.2,8.11,1.8-.3,3.81.64,5.72,1.01-12.71,11.58-27.08,20.75-42.11,28.96-1.52.83-3.12,1.01-4.77,1.07Z"/>
        <path class="cls-13" d="M339.26,358.65c-1.91-.37-3.92-1.31-5.72-1.01-6.72,1.11-8.12-2.73-8.2-8.11,1.04,0,2.08,0,3.13-.01,6.67.02,13.34.03,20.01.05-1.57,4.55-5.72,6.48-9.21,9.08Z"/>
        <path class="cls-15" d="M317.45,42.75c-1.78,1.72-4.15,3.52-4.91-.3-.94-4.74-2.47-9.17-4.46-13.39,2.99,1.75,5.92,3.58,8.81,5.48.15.1.31.2.46.31.03,2.63.07,5.26.1,7.9Z"/>
        <path class="cls-7" d="M327.6,42.24c-3.38.17-6.77.34-10.15.51-.03-2.64-.07-5.27-.1-7.9v-.16c3.12,2.52,6.94,4.1,9.77,7.02.16.17.32.35.48.53Z"/>
        <path class="cls-3" d="M159.44,216.52c6.36,5.59,12.64,11.27,19.1,16.74,3.73,3.16,6.33,7.06,8.41,12.03,1.15-3.89.1-6.54-2-8.85-1.19-1.31-1.6-2.29.07-3.67,9.86-8.14,19.48-16.57,29.52-24.48,5.34-4.2,11.69-6.92,17.87-9.79,2.14,4.13,3.31,8.84,7.13,11.96.56,1.48,1.61,2.47,3.11,2.98-.36.7-.72,1.41-1.09,2.11-8.92,1.31-12.4,3.71-12.95,9.8-1.22,13.37-2.16,26.76-3.22,40.14-3.46-.45-5.67-3.35-8.81-4.45-2.9-1.01-3.21-2.89-2.66-5.89,1.14-6.19,2.56-12.41,2.02-18.9-1.17,1.06-1.94,2.25-2.61,3.48-2.95,5.43-6.53,10.35-11.09,14.57-1.7,1.57-3.23,2.4-5.74,1.8-11.8-2.83-23.92-2.72-35.94-3.59-2.3-7.26-5.28-14.32-6.05-22,3.66-4.1,3.25-9.05,2.9-13.99.68,0,1.35,0,2.03,0Z"/>
        <path class="cls-15" d="M225.4,265.5c-3.46-.45-5.67-3.36-8.81-4.45-2.9-1.01-3.21-2.89-2.66-5.9,1.14-6.18,2.56-12.41,2.02-18.9-1.17,1.06-1.95,2.24-2.62,3.48-2.94,5.43-6.53,10.35-11.09,14.57-1.7,1.58-3.23,2.41-5.74,1.8-11.8-2.82-23.92-2.71-35.94-3.58.23,1.64.94,2.91,2.64,3.42,7.3-.52,14.44,1.14,21.64,1.77,9.88.86,19.7,2.41,29.11,5.8,1.7.61,3.44,1.31,4.94,2.29,2.61,1.72,5,4.03,3.1,7.37-1.95,3.45-5.07,4.24-8.93,2.54-6.52-2.88-13.34-4.83-20.52-5.21.07,2.96-1.41,4.32-4.32,4.01-2.78-.29-5.57-.61-8.33-1.09-3.33-.57-1.75-2.84-1.46-4.64-4.14-2.07-8.59-.88-12.89-1.2.29,1.24.58,2.49.88,3.74.51.33,1.14.73.74,1.39-.71,1.18-1.85.57-2.85.48-5.55,1.65-9.83.52-11.85-5.48l-4.92-.18c.04,1.47-.3,2.49-1.02,3.14-.07.08-.16.15-.26.22-.72.5-1.74.7-3.04.66-2.47-.09-4.83-.06-4.75-3.49-3.34.25-6.66.5-10.01.75.28.77.44,1.45.51,2.05.13,1.24-.16,2.15-.76,2.75-.15.14-.31.27-.49.38-.19.11-.38.2-.6.28-.9.33-2.08.37-3.45.16-4.11-.63-8.11,2.27-12.16.12-.05.82.16,1.79-.19,2.44-1.21,2.23-3.21,2.52-5.44,1.76-.88-.29-2.42-.4-1.93-1.66.72-1.86,2.65-2.32,4.5-2.54.98-.12,1.98-.07,2.97-.09.01-1.26.02-2.52.04-3.78-7.32.8-14.41,2.63-21.03,5.73-4.8,2.24-6.46-1.37-8.34-3.86-2.06-2.73.53-4.55,2.59-5.97,5.06-3.47,10.96-4.64,16.8-5.92,15.8-3.47,31.91-4.03,47.96-5.12.08-1.46.3-2.95-.89-4.13-.28.32-.55.65-.83.97-1.76,1.37-1.86-.19-2.23-1.27-.63-.93-1.4-1.66-2.6-1.7h-.01c-4.33,1.55-8.49,3.34-13.3,3.71-10.71.83-21.22,3.66-32.06,3.63-.47,0-1.17,0-1.38.28-2.9,4.08-7.9,3.74-11.82,5.63-7.25,3.5-8.43,6.69-4.82,13.77,4.67,3.25,9.69,5.64,15.23,7.1,19.19,5.05,38.83,6.54,58.5,6.67,13.35.08,26.78-.81,40.05-2.85,4.17-.99,8.31-2.1,12.5-2.95,7.37-1.49,14.16-4.42,20.69-8.02.82-3.75,2.9-7.62-1.07-10.88ZM147.98,280.67c-1.72,1.78-4.12.44-5.9.85-1.28,0-2.29.09-3.28-.03-1.51-.18-3.62.8-4.18-1.56-.5-2.16,1.06-3.35,2.68-4.32.71-.43,1.49-.81,2.29-.97,3.13-.62,5.48.84,7.5,3.02.79.85,1.9,1.95.89,3.01ZM175.15,282.48c-1.63.14-3.3.17-4.92-.01-1.49-.16-4.01.96-4.19-1.13-.17-1.87,1.9-3.3,3.97-3.75.78-.17,1.63-.02,2.45-.02.01-.07.02-.14.02-.21,1.13.16,2.37.06,3.36.52,1.48.68,3.3,1.85,3.07,3.48-.27,1.94-2.42,1.01-3.76,1.12ZM197.77,279.59c-1.48-.52-4.25.98-4.01-2.04.17-2.14,2.13-3.13,4.37-3.03,2.22.1,4.17,1.15,4.01,3.37-.21,2.74-2.86,1.14-4.37,1.7Z"/>
        <path class="cls-3" d="M221.4,76.57c1.03-3.52,3.53-4.27,6.91-4.1,5.47.28,10.94-.09,16.04-2.42,1.94-.88,3.07.12,4.37,1.28,11.19,9.91,23.79,15.3,39.11,12.37,5.08-.97,12.58,7.68,11.1,12.63-1.43,4.78-2.98,9.51-2.57,14.6-6.03-2.32-12.02-4.78-18.11-6.94-11.92-4.23-24.08-7.39-36.86-7.49-1.84-1.56-3.96-.76-6-.71-5.9.34-11.8.67-17.7,1.01-1.34-4.13.91-7.8,1.54-11.67.47-2.9,1.42-5.72,2.16-8.58Z"/>
        <path class="cls-4" d="M104.36,246.69c2.82-10.7-2.85-16.68-10.83-21.9-10.37-6.77-8.47-19.58-2.22-26.58,2.32-2.6,4.53-5.3,6.88-7.87,3.47-3.81,3.48-8.43,3.33-13.14-.03-1.06-.62-2.64.78-3.1,1.57-.51,2.23,1.08,2.95,2.12,5.31,7.69,3.44,15.09-.89,22.42-5.9,10-5.57,13.12,2.16,21.49,7.02,7.6,6.49,17.56-2.16,26.56Z"/>
        <path class="cls-4" d="M180.93,156.31c-5.11,9.14-5.33,18.47,3.23,25.51,5.23,4.3,8.69,9.69,6.22,16.98-1.13,3.35-3.4,6.06-5.6,8.74-2.51,3.06-5.71,5.66-5.49,10.19.04.88-.51,1.65-1.54,1.49-.99-.15-1.1-1.04-1.26-1.89-.84-4.33.67-8.42,2.37-12.03,3.04-6.43.34-11.19-3.11-16.05-3.19-4.5-7.42-8.09-7.54-14.6-.12-6.71,5.05-14.3,12.7-18.35Z"/>
        <path class="cls-11" d="M159.44,216.52c-.68,0-1.35,0-2.03,0-1.66-2.12-2.52-4.14-1.27-7.03.75-1.74,1.11-4.21-.72-6.02-2.31-5.84-7.43-7.64-12.89-8.95-1.85-7.54-3.81-15.06-6.76-22.27-1.32-3.23-3.75-5.14-7.36-4.56-3.78.6-4.49,3.38-4.12,6.71.82,7.25,4.2,13.84,5.43,20.98-1.79.53-2.07,2.53-3.36,3.52-5.5,4.2-6.66,9.5-5.4,16.2.62,3.3,2.88,5.5,3.59,8.47,1.17,4.88,4.5,7.46,8.95,8.99-.32,1.62-.64,3.24-.95,4.86-6.92.64-9.73-5.5-11.29-9.55-2.58-6.69-5.89-13.66-4.9-21.46.38-2.97,1.14-5.38,3.21-7.53,6.25-6.49,6.64-8.51,2.64-16.72-1.38-2.82-1.46-5.66-1.84-8.62-.73-5.65,3.74-7.31,7.02-9.67,1.62-1.17,3.7-.11,5.35,1.42,5.14,4.75,8.97,10.21,9.65,17.36.51,5.43,2.47,8.63,8.39,10.55,5.06,1.64,8.4,6.83,8.63,12.87.13,3.49.02,6.98.03,10.48Z"/>
        <path class="cls-9" d="M78.38,278.74c-.12,2.08-.63,4.16,0,6.24-3.84,1.24-7.45-1.48-11.27-.69-.93.19-2.22-.14-2.55,1.05-.45,1.6,1.04,1.82,2.05,2.22,4.8,1.89,9.83,2.97,14.86,4.04.98.61,2.01,1.16,2.94,1.83,2.18,1.56,1.93,3.65,1.11,5.8-.87,2.28-2.67,2.09-4.56,1.67-1.12-.25-2.26-.43-3.39-.64-3.34-2.34-7.55-2.09-11.15-3.75-2.86-1.32-5.92-2.23-8.36-4.3-4.88-4.14-4.3-10.1,1.39-12.97,6.17-3.11,12.57-2.07,18.92-.5Z"/>
        <path class="cls-11" d="M241.57,215.55c.36-.7.72-1.41,1.09-2.11.08-2.16-1.43-2.65-3.1-2.98-3.82-3.13-4.99-7.83-7.13-11.96.65-4.47-.76-7.53-4.66-10.45-7.61-5.7-12.84-13.45-16.36-22.4-1.48-3.78-.47-7.56-1.16-11.29-1.18-6.43-4.45-12.09-7.05-17.92-2.38-5.34-.1-9.72,1.36-14.14.96-2.91,3.97-5.15,6.06-7.69.09,2.33.18,4.65.27,6.98-7.47,3.77-7.1,16.55.62,21.93,1.01,2.99,1.78,5.99,1.97,9.19.77,13.03,6.17,23.72,16.31,32.05,2.45,2.01,4.49,4.52,6.72,6.8-1.64,4.13-3.41,8.27.9,11.94,2.64,5.46,7.12,8.59,12.82,10.2-3.68,3.13-8.37,5.19-10.46,9.98-.27-1.4.02-3.21-2.28-3.13-.05-2.12,1.92-1.86,3.05-2.59.88-.56,2.45-.84,1.03-2.4Z"/>
        <path class="cls-1" d="M210.89,121.59c-.09-2.33-.18-4.65-.28-6.98.56-4.74,1.46-9.38,3.2-13.87.77-1.98,1.88-3.33,3.89-3.93,5.9-.34,11.8-.67,17.7-1.01-.07.63.11,1.55-.24,1.85-4.98,4.29-8.98,9.82-15.23,12.47-2.12.9-2.9,2.26-3.5,4.31-1.38,4.74-1,9.82-2.93,14.43-1.96-2.03-1.48-4.94-2.62-7.27Z"/>
        <path class="cls-4" d="M88.22,251.06c-.42-6.36-4.34-9.59-9.54-12.16-6.68-3.3-9.25-10.96-6.35-17.88,1.13-2.71,2.57-5.29,4.49-7.97-2.5,9.65,3.25,15.12,9.27,20.73,5.17,4.82,5.78,10.57,2.14,17.28Z"/>
        <path class="cls-3" d="M148.55,251.41c-.28.32-.55.65-.83.97-.74-.42-1.49-.84-2.23-1.27-.64-.93-1.4-1.66-2.61-1.7-.88-3.76-6.37-4.22-6.23-8.71,2.53-.73,5.1-1.27,7.76-1.13,1.69,3.84,3.35,7.69,4.13,11.84Z"/>
        <path class="cls-16" d="M144.41,239.57c-2.66-.14-5.22.39-7.76,1.13-1.37-1.09-2.74-2.19-4.11-3.28.32-1.62.64-3.24.95-4.86.63-.03,1.26-.05,1.89-.08.18.85.38,1.49,1.58,1.21,6.29-1.48,7.21-.73,7.44,5.89Z"/>
        <path class="cls-3" d="M332.68,226.96c-.15-.46-.15-.98-.22-1.47-5.05-10.55-12.43-18.71-23.61-23-1.83-.7-3.46-1.3-4.74.8-4.39,7.22-11.34,11.4-18.88,13.96-5.92,2.02-5.71,4.83-3.77,9.39,2.17,5.08,3.25,10.44,2.84,16.03-.39,5.47-1.31,6.09-6.21,4.04-3.25-1.36-6.51-2.94-8.8-5.52-3.23-3.64-7.72-6.8-7.12-12.67-.11-.62-.23-1.24-.34-1.85-2.65-.7-2.42,1.65-3.05,2.96-2.7,5.62-7.12,9.25-12.43,12.42-5.04,3-8.09-.57-10.92-2.81-2.36-1.85-.36-5.18,1.02-7.66l.21-1.83c.21-1.57.32-3.19,2.07-3.94.17-.35.33-.69.49-1.03-.38-.56-.2-.87.44-.97l.1-.14c-.27-1.4.02-3.21-2.28-3.13-2.53,1.81-3.77,4.15-4.3,7.36-2.07,12.71-2.37,25.57-3.7,38.34-.39,3.75-.42,7.55-1.05,11.29,3.56.12,7.05-1.21,10.63-.51,3.82-1,7.63-2.07,11.47-2.98,8.99-2.11,15.82,3.02,22.98,6.98.28-.2.55-.4.82-.6-.23-3.59,1.32-4.96,5.02-4.99,6.96-.06,13.92-.72,20.89-.89,3.22-.08,4.41-1.36,4.35-4.54-.14-7.32-.09-14.65-.04-21.98.01-1.59-.48-3.29.79-5.27,2.78,3.93,2.94,8.4,3.92,12.53,1.22,5.16,2.27,10.38,3.03,15.62.32,2.17,1.6,2.69,3.19,3.2,2.81.91,5.56,1.9,7.59,3.69-.08,1.2-.54,1.48-1.03,1.27-8.05-3.42-16.27-1.51-24.47-.93-5.14.36-10.31.37-15.47.33-2.37-.02-3.93.44-3.74,3.2,2.25,7.15,1.83,14.45,1.17,21.77,8.98-.33,17.7,2.65,26.7,2.05,7.13-.47,14.19-1.49,20.86-4.09,10.12-3.94,13.61-12.25,14.37-22.38,1.36-18.09-3.04-35.17-8.78-52.05ZM241.63,265.2c-2.21-.47-4.13-1.27-4.19-3.98-.07-2.86,1.59-4.99,4.13-5.31,2.97-.37,4.3,2.36,4.55,4.81.28,2.82-2.29,3.62-4.49,4.48ZM270.93,266.48c-2.52-.04-4.2-1.33-4.34-3.85-.15-2.68,1.36-4.62,4.02-4.82,2.94-.22,3.64,2.36,4.48,4.55-.5,2.3-1.4,4.16-4.16,4.12Z"/>
        <path class="cls-15" d="M328.46,349.52c-1.04,0-2.08,0-3.13.01-2.99-4.4-3.99-4.36-6.56.27-11.13-.13-22.26-.26-33.39-.38.03-1.69,1.27-2.63,2.32-3.66,5.29-5.17,8.81-11.47,11.73-18.18.88-2.02,1.1-3.75-1.61-3.95-6.5-.47-12.34-3.5-18.71-4.5-4.04-.64-7.74-2.35-7.72-7.51,0-1.42-.87-2.04-2.12-2.33,1.12-1.35,2.77-.8,4.16-1.19.71,3.84,3.09,4.82,6.87,5.67,8.51,1.91,17.17,1.29,25.69,2.59,5.75.88,11.55-.69,17.29-1.4,2.26-.28,3.03.08,3.15,2.32.59,10.75,2.05,21.45,2.03,32.24Z"/>
        <path class="cls-16" d="M320.88,131.47c-5.5.77-8.84,3.95-10.61,9.15-.45,1.3-.4,3.51-2.11,3.65-2.18.19-1.72-2.45-2.75-3.61-.32-.37-.62-.76-.92-1.14-4.1,2.25-2.33,6.53-2.84,9.7-2.44,14.9-8.67,27.32-20.88,36.58-6.21,4.72-13.52,6.06-20.78,7.72-2.23.51-4.58.6-6.59,1.88,3.52,2.04,7.23,1.02,10.89.63,4.48-.48,8.99-1.62,13.35.61.16-.03.33-.07.48-.13,1.52-.37,2.33-2.13,4.07-2.05,2.16-4.9,6.04-7.63,11.15-8.8.08-1.57,1.47-2.07,2.39-2.98,4.21-4.16,8.78-8.05,10.71-13.96,1.11-2.74,2.1-5.53,3.37-8.19,1.65-3.43,4.87-1.62,7.44-1.98,5.1-.95,10.18-6.33,11.07-11.71,1.2-7.3-1.14-12.15-7.44-15.37ZM319.35,142.71c-2.4,1.15-3.93,2.9-3.96,5.77-.01,1.19.29,3.05-1.83,2.68-1.57-.28-.85-1.9-1.15-2.67.15-3.96,2.43-6.34,5.14-8.36,1.22-.92,2.66-.71,3.36.75.7,1.44-.73,1.43-1.56,1.83Z"/>
        <path class="cls-15" d="M279.53,303.43c8.98-.33,17.7,2.65,26.7,2.05,7.13-.47,14.18-1.49,20.86-4.09,10.12-3.94,13.61-12.25,14.37-22.38,1.36-18.09-3.04-35.17-8.78-52.05-.16-.46-.15-.98-.23-1.47,4.74,2.53,4.61,7.78,6.21,11.87,6.09,15.65,9.66,31.78,9.99,48.79.25,13.09-7.26,23.25-22.82,25.52-15.25,2.22-30.29,1.44-45.44-.17-5.42-.58-.44-4.26-1.91-5.98.35-.7.69-1.4,1.04-2.09Z"/>
        <path class="cls-1" d="M320.88,131.47c-5.51.77-8.85,3.95-10.62,9.15-.44,1.3-.39,3.51-2.11,3.65-2.17.18-1.72-2.45-2.75-3.61-.32-.37-.62-.76-.92-1.14-2.51-5.85-2.8-12.42-5.91-18.11-.84-1.54-1.42-2.75-3.44-3.01-11.03-1.42-21.87-3.45-30.9-12.54.34,1.95.41,2.76.64,3.53.46,1.58,1.45,3.52.28,4.7-1.49,1.5-3.43-.01-5.02-.66-8.26-3.38-14.78-8.74-18.73-16.92,12.77.09,24.94,3.26,36.86,7.49,6.09,2.16,12.07,4.61,18.11,6.94,4.84,2.85,9.71,5.63,14.49,8.56,3.54,2.17,6.84,4.68,9.18,8.22.28,1.25.56,2.5.84,3.75Z"/>
        <path class="cls-10" d="M301.12,196.51c-2.68-3.55-5.2-7.23-7.78-10.85-5.11,1.17-8.99,3.9-11.15,8.8,3.37.96,2.78,3.21.89,4.64-2.52,1.91-4.29,4.25-6.12,6.73-2.97,4.02-4.48,3.76-7.58-.74-1.31.04-2.62.08-3.93.12-.47.86-.94,1.72-1.4,2.59-.93,1.72-1.86,3.45-2.8,5.16-.48.86-.96,1.71-1.45,2.56-.96,1.64-2.42,2.25-4.2,1.04-2.3-1.57-3.83-.78-5.27,1.4-1.9,2.86-4.62,5.12-6.11,8.3-.43.93-1.08,1.86-.18,2.7,1.15,1.06,2.21.23,3.01-.62,1.01-1.09,1.81-2.37,2.8-3.47,1.84-2.05,3.26-4.82,6.76-4.25,1.54.34,3.08.68,4.62,1.02,4.57-1.09,5.14,3.11,7.18,5.39,1.33,1.48,2.03,4.96,4.31,3.72,2.08-1.14-.23-3.85-.68-5.83-.24-1.07-.88-2.3-1.73-2.93-4.59-3.4-2.17-6.11.9-8.43,2.43-1.85,5.6-2.57,7.96-4.67.48-.43,1.42-.43,1.71.24.2.44-.06,1.27-.4,1.72-.87,1.18-2.11,2.13-2.05,3.81,8.94-1.76,15.79-7.13,22.36-12.99,1.8-1.61,1.78-3.23.33-5.16ZM286.31,207.51c-1.43.06-3.37.25-3.23-1.92.14-2.16.92-4.44,3.46-4.89,2.24-.4,3.02,1.52,3.89,2.94-.48,2.53-1.86,3.77-4.12,3.87ZM290.84,200.47c-1.21-1.75,1.53-3.34,2.06-5.21.22-.8,1.72-.89,1.99-.05.65,2.05,1.31,3.98,3.31,5.31-2.63-.19-5.42,2.74-7.36-.05Z"/>
        <path class="cls-2" d="M261.23,221.64c4.57-1.1,5.14,3.11,7.18,5.38,1.33,1.48,2.03,4.97,4.31,3.72,2.08-1.13-.23-3.85-.68-5.83-.25-1.07-.88-2.31-1.73-2.93-4.6-3.4-2.17-6.1.89-8.43,2.43-1.85,5.6-2.57,7.96-4.67.48-.43,1.42-.43,1.72.24.19.44-.06,1.27-.4,1.72-.88,1.18-2.12,2.13-2.06,3.81-2.1,1.52-4.64,1.59-7.98,2.13,7.52,5.95,10.11,13.48,10.02,22.19-.03,3.27-.91,4.23-4.08,2.76-6.21-2.87-11.52-6.63-14.23-13.22-.11-.62-.23-1.23-.34-1.85.88-1.8.42-3.44-.59-5.02Z"/>
        <path class="cls-16" d="M279.53,303.43c-.35.7-.7,1.4-1.04,2.09-2.1.04-3.43,1.62-5.06,2.58-1.39.38-3.05-.16-4.16,1.19-11.81,4.76-25.43,2.47-32.23-5.43,3.32-2.31,7.33-1.58,11.23-3.28-.3,2.17-1.38,2.59-2.36,3.19-1.03.63-2.83.9-2.09,2.75.54,1.36,1.97.89,3.07,1,2.29.23,4.91-.82,6.82.52,4.22,2.97,8.03,1.09,11.46-.88,9.14-5.23,11.79-14.08,8.34-26.14.27-.2.55-.4.82-.61,1.34.41,2.68.83,4.03,1.24,2.25,7.16,1.83,14.46,1.17,21.77Z"/>
        <path class="cls-1" d="M306.44,168.72c1.11-2.73,2.1-5.53,3.37-8.19,1.65-3.44,4.87-1.62,7.44-1.98-2.59,4.47-5.79,8.28-10.81,10.16Z"/>
        <path class="cls-8" d="M193.28,287.35c4.16-.99,8.3-2.09,12.5-2.94,7.37-1.49,14.16-4.42,20.69-8.03,0,.35-.02.7-.03,1.05-.3,2.96-1.24,5.87-.82,8.89.11,1.14.22,2.28.33,3.42-1.64,1.95-4.18,1.7-6.28,2.5-3.11,1.18-3.95,3.58-3.08,6.29.94,2.95,3.26,3.23,5.97,1.88,1.13-.57,2.5-.67,3.76-.98-.14,16.7-.28,33.39-.42,50.09-.54,6.12-4.85,9.25-9.56,12.04-1.81,1.07-3.94,1.63-5.39,3.3-5.46.29-10.24,3.05-15.46,4.24-3.2.73-6.31,1.78-9.65,1.45-10.08.65-20.16,1.31-30.23,1.96-2.52.54-5.38-1.12-7.62,1.22-.89-.4-1.74-1.03-2.66-1.16-8.97-1.25-17.97-2.15-27.05-2.04-6.59.46-12.21-3.35-18.52-4.21-2.08-.28-4.04-1.4-6.24-.76-2.99-1.99-5.91-4.09-8.98-5.95-2.55-1.54-3.69-3.9-4.57-6.66,4.2,2.24,7.97,5.06,12.42,6.64,11.96,4.25,24.41,5.78,36.96,6.88,7.93.7,15.87,1.07,23.84,1.02,6.67-.04,13.25-1.04,19.64-2.49,7.19-1.63,11.91-7.25,15.25-13.39,2.98-5.49,4.7-11.55,4.48-18.14-.36-10.75,0-21.52-.13-32.28-.05-4.65,1.71-9.17.85-13.85Z"/>
        <path class="cls-15" d="M103.45,324.11c0,8.48,0,16.95,0,25.43,0,2.84.38,6.44-3.45,6.57-3.71.12-6.06-2.79-6.4-6.45-.34-3.62-.93-7.28-.89-10.86.16-14.26-1.04-28.54.64-42.79.33-2.8.4-5.01,4.05-4.52,3.17.42,5.98,1.23,5.99,5.2.02,9.14,0,18.28,0,27.42h.05Z"/>
        <path class="cls-7" d="M81.48,291.6c-5.03-1.07-10.06-2.14-14.86-4.04-1.01-.4-2.5-.62-2.05-2.22.33-1.18,1.62-.85,2.55-1.05,3.82-.79,7.42,1.93,11.27.69-1.22,3.25,2.16,4.36,3.09,6.62Z"/>
        <path class="cls-3" d="M297.82,323.63c-6.5-.47-12.34-3.5-18.71-4.5-4.04-.64-7.75-2.35-7.73-7.51.01-1.43-.87-2.04-2.11-2.33-11.81,4.76-25.43,2.47-32.23-5.43-3.18-.72-5.14-2.29-4.11-5.94-2.28.18-4.64-.01-6.61,1.51-.14,16.69-.29,33.39-.43,50.08h.26s.24.04.24.04c.37.25.75.5,1.12.75,17.53,0,35.05.01,52.58.02,1.82,0,3.65.12,5.29-.9.03-1.69,1.27-2.63,2.32-3.66,5.29-5.17,8.81-11.47,11.73-18.18.88-2.02,1.1-3.75-1.61-3.95ZM236.33,336.06c-2.55-.09-4.01-1.81-4.01-4.66s1.65-4.47,4.16-4.43c2.56.05,4.16,1.79,3.95,4.41.12,3.1-1.51,4.77-4.1,4.68ZM266.18,337.51c-2.13-.35-3.88-1.71-3.62-4.48.24-2.54,1.82-4.41,4.5-4.28,2.63.12,4.27,1.99,4.07,4.6-.19,2.45-1.53,4.34-4.95,4.16Z"/>
        <path class="cls-15" d="M226.39,349.55c.37.25.75.5,1.12.75-.37-.25-.75-.5-1.12-.75Z"/>
        <path class="cls-13" d="M118.28,370.53c9.07-.12,18.08.79,27.05,2.04.92.13,1.77.76,2.66,1.16-1.21,6.55-1.17,6.32-8.52,5.22-5.07-.76-10.05-1.66-14.84-3.48-2.59-.98-5.34-1.86-6.35-4.94Z"/>
        <path class="cls-13" d="M155.61,372.51c10.08-.65,20.15-1.31,30.23-1.96-1.49,4.26-5.6,4.86-9.03,5.98-3.87,1.27-8,1.78-12.03,2.53-7.98,1.48-7.98,1.45-9.17-6.55Z"/>
        <path class="cls-5" d="M144.41,239.57c-.23-6.61-1.15-7.36-7.44-5.89-1.19.28-1.4-.35-1.58-1.21,2.31-2.03,5.11-2.69,8.07-3.2,2.04-.35,4.41-1.19,3.76-4.15-.57-2.57-2.21-3.93-5.01-3.56-2.59.34-5.18.61-7.78.91l.05.05c2.66-2.93,6.46-2.03,9.74-2.84,1.24-.3,2.85.19,3.2-1.6.32-1.62-.5-2.91-1.73-3.9-2.57-2.07-5.56-1.93-8.55-1.46-1.6.25-3.12,1.18-5.16.3,3.78-2.2,7.65-2.92,11.57-2.18,4.05.76,3.3-1.55,2.62-3.64-.53-1.65-2.12-2.22-3.76-2.87-4.2-1.67-8.22.63-12.36.12,3.52-1.85,7.06-3.25,11.17-2.23,1.31.33,3.21,1.1,3.93-.8.75-1.97-.97-3-2.38-3.84-4.05-2.41-8.59-2.18-13.07-2.23-1.23-7.14-4.6-13.73-5.43-20.98-.38-3.32.33-6.11,4.12-6.71,3.61-.57,6.04,1.34,7.36,4.56,2.95,7.21,4.91,14.72,6.76,22.27,5.13,4.07,7.66,9.46,8.09,15.92.51,6.84.94,13.71,3.89,20.08.76,7.68,3.75,14.75,6.05,22,.23,1.64.94,2.91,2.64,3.42.45,3.94.52,7.96,2.34,11.63.29,1.25.58,2.5.88,3.75-1.19.07-1.93.65-2.1,1.87-5.56,1.65-9.83.52-11.85-5.48.16-4.35-1.75-8.18-3.03-12.17.09-1.46.3-2.95-.89-4.13-.79-4.15-2.45-8-4.13-11.84Z"/>
        <path class="cls-7" d="M226.44,277.42c0-.35.02-.7.03-1.05.82-3.74,2.9-7.61-1.08-10.88,1.05-13.38,1.99-26.77,3.22-40.14.56-6.09,4.03-8.49,12.95-9.8,1.42,1.56-.16,1.84-1.03,2.4-1.14.72-3.1.46-3.05,2.59-2.53,1.82-3.77,4.15-4.3,7.37-2.08,12.7-2.37,25.57-3.7,38.33-.39,3.75-.42,7.55-1.05,11.29-.66-.04-1.32-.07-1.99-.11Z"/>
        <path class="cls-16" d="M154.52,230.52c-2.95-6.37-3.38-13.23-3.89-20.08,4.05-.63,3.9-4.16,4.8-6.96,1.83,1.81,1.48,4.28.72,6.02-1.25,2.89-.39,4.92,1.27,7.03.35,4.94.76,9.88-2.9,13.99Z"/>
        <path class="cls-7" d="M239.55,210.47c1.67.33,3.19.82,3.1,2.98-1.49-.51-2.54-1.49-3.1-2.98Z"/>
        <path class="cls-8" d="M149.44,255.54c1.28,3.99,3.19,7.82,3.03,12.17-1.64-.06-3.28-.12-4.92-.18-3.14-1.89-6.13-1.09-9.07.53-3.34.25-6.68.5-10.02.75-9.55-5.99-10.47-5.89-17,1.87-7.31.8-14.41,2.63-21.03,5.73-4.8,2.25-6.46-1.37-8.34-3.86-2.06-2.73.53-4.55,2.6-5.97,5.06-3.47,10.95-4.63,16.8-5.92,15.8-3.47,31.9-4.03,47.95-5.12Z"/>
        <path class="cls-8" d="M165.54,267.58c-1.82-3.67-1.89-7.69-2.34-11.63,7.3-.53,14.44,1.13,21.64,1.77,9.88.87,19.7,2.41,29.11,5.8,1.7.61,3.44,1.31,4.94,2.29,2.61,1.72,5,4.03,3.11,7.37-1.95,3.45-5.07,4.24-8.93,2.54-6.53-2.88-13.34-4.83-20.53-5.21-4.81-6.39-6.17-6.56-14.1-1.71-4.14-2.07-8.59-.88-12.89-1.21Z"/>
        <path class="cls-4" d="M111.46,270.68c6.52-7.76,7.45-7.86,17-1.87,1.7,4.67-.75,6.24-4.78,5.62-4.12-.63-8.11,2.27-12.17.12l-.09-.09c.01-1.26.03-2.52.04-3.78Z"/>
        <path class="cls-4" d="M178.43,268.78c7.94-4.84,9.29-4.68,14.1,1.71.07,2.96-1.4,4.32-4.31,4.02-2.79-.29-5.58-.61-8.34-1.09-3.33-.57-1.75-2.84-1.46-4.64Z"/>
        <path class="cls-4" d="M142.08,281.51c-1.28,0-2.29.1-3.28-.02-1.51-.18-3.63.8-4.18-1.56-.51-2.16,1.06-3.35,2.68-4.33.7-.42,1.49-.81,2.29-.96,3.13-.62,5.48.83,7.5,3.02.79.86,1.9,1.95.89,3.01-1.71,1.79-4.12.44-5.89.85Z"/>
        <path class="cls-4" d="M172.48,277.36c1.13.15,2.37.06,3.36.52,1.48.68,3.3,1.85,3.07,3.48-.27,1.94-2.42,1.01-3.77,1.12-1.63.14-3.3.17-4.92,0-1.49-.16-4.01.96-4.19-1.13-.16-1.87,1.9-3.3,3.97-3.75.78-.17,1.63-.03,2.45-.03,0-.07.01-.14.02-.2Z"/>
        <path class="cls-4" d="M138.47,268.06c2.94-1.63,5.92-2.42,9.07-.53.09,2.99-1.42,4.12-4.32,4.02-2.47-.09-4.82-.06-4.74-3.49Z"/>
        <path class="cls-4" d="M197.77,279.59c-1.48-.52-4.25.98-4.01-2.04.17-2.14,2.14-3.13,4.38-3.03,2.21.1,4.17,1.15,4,3.38-.21,2.73-2.86,1.14-4.37,1.69Z"/>
        <path class="cls-4" d="M111.51,274.55c-.05.82.16,1.79-.19,2.45-1.2,2.23-3.2,2.51-5.44,1.76-.88-.3-2.42-.41-1.93-1.66.72-1.86,2.66-2.32,4.5-2.54.98-.12,1.98-.06,2.97-.08,0,0,.09.09.09.09Z"/>
        <path class="cls-8" d="M164.31,273.19c.17-1.22.91-1.8,2.1-1.87.52.32,1.14.73.75,1.39-.71,1.18-1.85.57-2.85.48Z"/>
        <path class="cls-7" d="M145.49,251.11c.74.42,1.48.85,2.23,1.27-1.76,1.37-1.86-.19-2.23-1.27Z"/>
        <path class="cls-14" d="M304.49,139.52c-2.51-5.86-2.8-12.43-5.91-18.11-.84-1.54-1.42-2.75-3.44-3.01-11.03-1.42-21.87-3.45-30.9-12.54.34,1.96.41,2.77.63,3.53.46,1.58,1.45,3.52.28,4.7-1.49,1.5-3.43-.01-5.02-.66-8.25-3.38-14.78-8.73-18.73-16.91-1.84-1.57-3.96-.76-6-.72-.06.63.12,1.55-.23,1.85-4.98,4.29-8.99,9.82-15.24,12.47-2.12.9-2.9,2.26-3.5,4.31-1.38,4.74-1,9.82-2.93,14.43-1.01,4.83-.44,9.89-1.99,14.65,1,2.99,1.78,5.99,1.96,9.19.77,13.03,6.18,23.72,16.31,32.05,2.45,2.01,4.49,4.52,6.72,6.8,4.72-.85,8.31,2.94,12.78,3.11.85-.15,1.62-.04,2.16.73.65,0,1.3.01,1.96.01,2.01-1.28,4.36-1.37,6.59-1.88,7.26-1.66,14.57-3,20.78-7.72,12.21-9.26,18.44-21.68,20.88-36.58.51-3.17-1.26-7.45,2.84-9.7ZM241.87,142.55c1.67-3.13,2.74-6.67,6.56-8v-.03c.07-.13.15-.26.22-.4-.06.14-.13.28-.2.42t-.02.01c-.2,3.43-2.54,5.96-3.82,8.93-1.84,4.25-.91,5.76,3.65,6.03.82.04,1.68-.14,2.48.01,1.47.27,3.92-1.07,4.19,1.21.29,2.53-2.25,2.96-4.22,3.15-3.37.33-6.69-.09-8.93-2.95-2.1-2.69-1.42-5.52.09-8.38ZM222.11,120.75c-.52-1.07.44-1.83,1.25-2.41,2.49-1.77,5.16-3.03,8.35-2.89,1.3.2,2.69.19,3.88.67,1.17.48,2.58,1.35,2.13,2.91-.45,1.55-1.85.97-2.96.72-3.5-.77-6.91-.84-10.12,1.11-.84.5-1.92,1.14-2.53-.11ZM230.11,142.2c-3.79-.46-4.66-3.7-4.83-6.57.28-4.42,2.98-7.34,6.1-6.91,4.58.63,4.5,4.58,4.54,7.61.05,3.34-1.91,6.34-5.81,5.87ZM267.46,173.76c-4.07,6.55-14.39,8.92-21.03,4.82-6.48-1.57-12.57-9.88-12.15-16.23.18-2.72,1.83-2.76,3.74-2.78,8.82,1.67,17.62,1.59,26.46.1,1.69-.29,3.65-.72,5.08.95,2.12-.34,3.02.59,2.94,2.69-.18,4.22-1.19,8.01-5.04,10.45ZM274.78,145.69c-4.04-.32-5.12-3.82-5.15-7.3-.03-3.54,1.53-6.31,5.55-6.02,3.82.27,5.02,3.19,5.38,6.7-.91,3.08-1.4,6.96-5.78,6.62ZM286.22,127.41c-1.31,1.61-2.32-.13-3.25-.84-3-2.3-6.25-3.61-10.11-3.29-1.46.12-3.77,1.26-3.91-1.31-.12-2.09,2.22-2.02,3.77-2.33.79-.16,1.65-.03,2.47-.03,3.97.02,7.52,1.05,10.15,4.26.86,1.05,1.86,2.34.88,3.54Z"/>
        <path class="cls-14" d="M129.72,195.38c4.48.05,9.01-.18,13.07,2.23,1.42.84,3.13,1.87,2.38,3.84-.72,1.9-2.62,1.13-3.93.8-4.12-1.02-7.65.38-11.17,2.23,4.14.5,8.15-1.8,12.36-.12,1.64.65,3.23,1.22,3.76,2.87.68,2.1,1.43,4.4-2.62,3.64-3.93-.74-7.8-.02-11.57,2.18,2.04.88,3.56-.05,5.16-.3,2.99-.47,5.99-.61,8.55,1.46,1.23.99,2.05,2.28,1.73,3.9-.36,1.78-1.97,1.3-3.2,1.6-3.28.8-7.08-.09-9.74,2.84-.08.12-.15.24-.23.36.06-.14.12-.27.17-.41,2.59-.3,5.19-.57,7.78-.91,2.81-.37,4.45.99,5.01,3.56.65,2.95-1.72,3.79-3.76,4.15-2.97.52-5.76,1.17-8.07,3.2-.63.03-1.26.05-1.89.08-4.45-1.54-7.78-4.11-8.95-8.99-.71-2.98-2.98-5.18-3.59-8.47-1.25-6.69-.09-12,5.4-16.2,1.29-.98,1.56-2.98,3.36-3.52Z"/>
        <path class="cls-14" d="M155.42,203.48c-.9,2.8-.75,6.33-4.8,6.96-.43-6.46-2.96-11.85-8.09-15.92,5.46,1.32,10.58,3.11,12.89,8.95Z"/>
        <path class="cls-2" d="M236.5,191.55c4.72-.84,8.31,2.94,12.78,3.11.19,1.04.02,2.23,1.16,2.88.1.39.21.78.31,1.17-.08,1.21.58,1.65,1.69,1.62,0,0,.18.18.18.18.44,2.8,1.86,3.68,4.79,3.28,2.69-.37,5.51.09,8.04,1.42-1.87,3.44-3.68,6.92-5.65,10.31-.95,1.64-2.41,2.25-4.2,1.04-2.31-1.57-3.83-.78-5.28,1.4-1.9,2.86-4.62,5.11-6.11,8.3-.43.93-1.08,1.86-.18,2.69,1.15,1.06,2.21.23,3.01-.62,1.01-1.08,1.81-2.37,2.8-3.47,1.84-2.05,3.26-4.82,6.76-4.24-1.57,7.04-4.36,13.13-11.64,16.11-7.37,3.02-8.26,2.55-8.51-5.15.07-.61.14-1.22.21-1.83,2.25-.49,1.88-2.36,2.07-3.94.16-.34.33-.68.49-1.03.14-.32.29-.65.44-.97,0,0,.1-.14.1-.14,2.09-4.79,6.78-6.85,10.46-9.98,2.03-1.71,1.14-4.34,1.99-6.46.55-1.39-.76-2.55-2.26-2.61-1.05-.04-2.79-1.04-2.85,1.42-.06,2.26-1.53,3.03-3.36,1.91-1.9-1.16-1.49-2.78.1-4.05.82-.66,1.7-1.24.88-2.37-.7-.96-1.66-.81-2.68-.4-1.63.65-3.76.27-4.65,2.37-4.31-3.68-2.54-7.82-.9-11.94Z"/>
        <path class="cls-16" d="M213.5,128.86c-1.01,4.84-.44,9.89-2,14.65-7.73-5.38-8.09-18.16-.62-21.93,1.14,2.33.66,5.24,2.62,7.27Z"/>
        <path class="cls-10" d="M237.4,203.49c.89-2.1,3.02-1.72,4.65-2.37,1.02-.4,1.98-.56,2.68.4.82,1.13-.07,1.71-.88,2.37-1.59,1.27-2,2.9-.1,4.05,1.83,1.12,3.3.34,3.36-1.91.06-2.46,1.8-1.46,2.85-1.42,1.49.06,2.81,1.22,2.26,2.61-.84,2.12.04,4.76-1.99,6.46-5.7-1.61-10.18-4.74-12.82-10.2Z"/>
        <path class="cls-14" d="M237.04,303.86c-3.18-.72-5.15-2.29-4.11-5.94.92-.32,1.86-.62,2.77-.98,4.23-1.7,8.88-2.66,11.93-6.5,1.14-1.44,2.26-3.13,1.53-4.94-.81-2.01-2.86-.92-4.37-1.01-1.79-.1-3.6.03-5.41.06-2.63-2.4-2-4.95-.32-7.54,3.82-1,7.62-2.07,11.46-2.97,8.99-2.12,15.82,3.01,22.99,6.98,3.45,12.06.8,20.91-8.34,26.14-3.44,1.97-7.25,3.85-11.46.88-1.91-1.34-4.53-.29-6.82-.52-1.1-.11-2.53.37-3.07-1-.74-1.85,1.07-2.12,2.09-2.75.98-.6,2.06-1.02,2.36-3.19-3.9,1.7-7.91.97-11.23,3.28Z"/>
        <path class="cls-7" d="M278.36,281.66c-1.34-.41-2.68-.83-4.03-1.24-.24-3.59,1.31-4.96,5.01-4.99,6.96-.05,13.92-.72,20.89-.89,3.23-.08,4.41-1.36,4.35-4.54-.14-7.32-.09-14.65-.04-21.98.01-1.6-.48-3.29.79-5.27,2.79,3.93,2.95,8.4,3.92,12.53,1.22,5.16,2.26,10.37,3.03,15.62.32,2.17,1.6,2.69,3.19,3.2,2.81.91,5.56,1.89,7.59,3.68-.08,1.2-.53,1.48-1.03,1.27-8.05-3.43-16.27-1.51-24.47-.93-5.14.36-10.31.37-15.47.33-2.37-.02-3.93.44-3.74,3.19Z"/>
        <path class="cls-7" d="M236.45,231.58c.25,7.7,1.14,8.17,8.51,5.15,7.28-2.98,10.08-9.07,11.64-16.11,1.54.34,3.08.68,4.63,1.02,1.01,1.58,1.47,3.22.59,5.02-2.64-.7-2.42,1.65-3.05,2.96-2.7,5.62-7.12,9.25-12.43,12.42-5.04,3-8.08-.57-10.92-2.81-2.36-1.86-.35-5.19,1.03-7.66Z"/>
        <path class="cls-9" d="M239.06,277.02c-1.67,2.59-2.31,5.13.32,7.54l.06-.06c-4.81-.94-9.31.48-13.82,1.82-.42-3.03.52-5.93.82-8.9.66.04,1.32.07,1.99.11,3.56.12,7.05-1.21,10.63-.51Z"/>
        <path class="cls-7" d="M241.63,265.2c-2.21-.47-4.13-1.27-4.19-3.97-.07-2.87,1.6-4.99,4.13-5.31,2.97-.37,4.3,2.36,4.54,4.81.29,2.82-2.29,3.61-4.48,4.48Z"/>
        <path class="cls-7" d="M275.09,262.36c-.5,2.3-1.41,4.16-4.16,4.12-2.53-.04-4.2-1.33-4.35-3.85-.15-2.67,1.36-4.62,4.02-4.82,2.94-.22,3.64,2.36,4.48,4.55Z"/>
        <path class="cls-11" d="M238.73,225.81c-.19,1.58.18,3.45-2.07,3.94.2-1.57.32-3.18,2.07-3.94Z"/>
        <path class="cls-11" d="M239.66,223.81c-.15.32-.29.65-.44.97-.38-.56-.2-.87.44-.97Z"/>
        <path class="cls-12" d="M250.75,198.71c-.1-.39-.21-.78-.31-1.17.84-.48.97-1.29,1-2.15.65,0,1.31,0,1.96,0,3.53,2.04,7.23,1.02,10.9.63,4.48-.48,8.99-1.62,13.34.61-.08.22-.15.45-.21.68l-.19.19c-1.09.16-1.69.79-1.82,1.88l-.1.14c-.29.28-.58.56-.86.84l-.18.12c-1.82.14-3.65.15-5.44.45-5.44.91-10.85,1.27-16.21-.44,0,0-.18-.18-.18-.18-.2-.91-.59-1.64-1.69-1.62Z"/>
        <path class="cls-2" d="M282.19,194.46c3.37.96,2.78,3.22.89,4.64-2.52,1.91-4.29,4.25-6.12,6.73-2.96,4.01-4.47,3.76-7.58-.74,1.39-1.78,3.94-2.34,4.9-4.6,0,0,.18-.12.18-.12.29-.28.58-.56.86-.84,0,0,.1-.14.1-.14.87-.37,1.53-.95,1.82-1.88,0,0,.19-.19.19-.19.23-.27.47-.54.7-.81,1.51-.37,2.32-2.13,4.06-2.06Z"/>
        <path class="cls-5" d="M312.41,148.49c.16-3.96,2.43-6.35,5.14-8.37,1.22-.91,2.66-.7,3.37.76.69,1.43-.73,1.42-1.56,1.82-2.4,1.16-3.93,2.91-3.96,5.77-.01,1.2.29,3.05-1.83,2.68-1.57-.28-.85-1.9-1.15-2.66Z"/>
        <path class="cls-14" d="M278.12,196.51c-.23.27-.47.54-.7.81.06-.23.13-.46.21-.68.17-.03.33-.07.49-.13Z"/>
        <path class="cls-14" d="M274.27,200.49c-.95,2.26-3.5,2.81-4.9,4.6-1.31.04-2.62.08-3.93.12-2.53-1.33-5.35-1.79-8.04-1.42-2.93.4-4.35-.48-4.79-3.28,5.36,1.71,10.77,1.35,16.21.44,1.79-.3,3.63-.31,5.44-.45Z"/>
        <path class="cls-2" d="M290.43,203.64c-.48,2.53-1.85,3.77-4.11,3.87-1.43.07-3.37.25-3.23-1.92.14-2.17.92-4.44,3.46-4.89,2.24-.4,3.02,1.52,3.89,2.94Z"/>
        <path class="cls-2" d="M298.2,200.52c-2.63-.19-5.41,2.74-7.36-.05-1.21-1.74,1.53-3.34,2.05-5.21.22-.79,1.73-.89,1.99-.04.65,2.05,1.31,3.98,3.31,5.31Z"/>
        <path class="cls-9" d="M239.39,284.56c1.8-.03,3.61-.17,5.41-.06,1.51.09,3.56-1,4.37,1.01.73,1.81-.39,3.51-1.53,4.94-3.05,3.84-7.7,4.8-11.93,6.5-.91.37-1.85.66-2.77.98-2.28.18-4.64,0-6.61,1.5-1.26.31-2.62.42-3.76.98-2.7,1.36-5.02,1.07-5.97-1.88-.87-2.71-.03-5.11,3.08-6.29,2.1-.8,4.64-.55,6.28-2.5,4.92-.66,10.23-.31,13.49-5.24l-.06.06Z"/>
        <path class="cls-4" d="M239.44,284.5c-3.26,4.93-8.58,4.58-13.49,5.24-.11-1.14-.22-2.29-.33-3.42,4.51-1.34,9.01-2.76,13.82-1.82Z"/>
        <path class="cls-7" d="M240.43,331.38c.12,3.1-1.51,4.77-4.1,4.68-2.54-.09-4-1.81-4.01-4.66,0-2.94,1.65-4.48,4.16-4.43,2.56.05,4.16,1.79,3.95,4.4Z"/>
        <path class="cls-7" d="M266.18,337.51c-2.13-.35-3.88-1.71-3.62-4.48.24-2.54,1.82-4.41,4.5-4.29,2.63.12,4.27,1.99,4.07,4.6-.19,2.45-1.53,4.34-4.95,4.16Z"/>
        <path class="cls-1" d="M246.43,178.58c-6.48-1.57-12.57-9.87-12.15-16.23.18-2.72,1.83-2.76,3.74-2.78.58,1.51.56,3.22,2.01,4.43,4.39,3.64,23.05,3.68,27.33-.14.94-.84,1.48-2.15,2.2-3.24,2.11-.34,3.02.59,2.93,2.69-.17,4.22-1.19,8.01-5.03,10.44-7.6-4.61-18.32-2.15-21.03,4.82Z"/>
        <path class="cls-3" d="M269.56,160.62c-.72,1.09-1.26,2.4-2.2,3.24-4.27,3.82-22.93,3.78-27.33.14-1.46-1.21-1.43-2.92-2.01-4.43,8.81,1.67,17.62,1.59,26.46.1,1.69-.29,3.65-.71,5.08.95Z"/>
        <path class="cls-16" d="M246.43,178.58c2.71-6.97,13.44-9.43,21.03-4.82-4.07,6.56-14.39,8.92-21.03,4.82Z"/>
        <path class="cls-1" d="M225.28,135.63c.28-4.42,2.98-7.34,6.1-6.91,4.58.63,4.5,4.58,4.55,7.61.05,3.34-1.92,6.34-5.82,5.86-3.79-.46-4.66-3.7-4.83-6.57Z"/>
        <path class="cls-1" d="M280.56,139.07c-.91,3.08-1.41,6.96-5.78,6.61-4.05-.32-5.12-3.82-5.15-7.3-.03-3.53,1.53-6.31,5.55-6.02,3.82.28,5.02,3.19,5.39,6.7Z"/>
        <path class="cls-12" d="M248.43,134.52c-.18,3.45-2.53,5.97-3.82,8.95-1.84,4.25-.9,5.77,3.65,6.03.83.05,1.68-.13,2.48.01,1.47.27,3.92-1.07,4.19,1.21.3,2.53-2.24,2.96-4.22,3.15-3.37.33-6.69-.09-8.93-2.95-2.1-2.69-1.41-5.52.1-8.37,1.66-3.14,2.74-6.68,6.57-8.01l-.02-.02Z"/>
        <path class="cls-1" d="M275.19,119.61c3.97.02,7.52,1.05,10.15,4.26.86,1.05,1.86,2.34.88,3.54-1.31,1.6-2.32-.14-3.24-.84-3-2.29-6.26-3.61-10.12-3.28-1.45.12-3.77,1.25-3.91-1.31-.12-2.09,2.22-2.02,3.77-2.33.79-.16,1.65-.03,2.47-.03Z"/>
        <path class="cls-1" d="M231.71,115.45c1.3.2,2.69.19,3.88.67,1.17.47,2.58,1.34,2.13,2.91-.44,1.54-1.84.96-2.96.72-3.5-.77-6.91-.84-10.12,1.1-.84.51-1.92,1.14-2.53-.1-.52-1.07.44-1.83,1.25-2.41,2.48-1.77,5.16-3.03,8.35-2.89Z"/>
        <path class="cls-16" d="M251.44,195.39c-.03.86-.15,1.67-1,2.15-1.14-.66-.97-1.84-1.16-2.88.85-.15,1.62-.04,2.16.73Z"/>
        <path class="cls-12" d="M248.45,134.54c.07-.14.14-.28.21-.42-.08.13-.15.27-.23.4,0,0,.02.02.02.02Z"/>
        <path class="cls-5" d="M134.44,222.49c-.06.14-.12.27-.17.41.08-.12.15-.24.23-.36,0,0-.05-.05-.05-.05Z"/>
        <path class="cls-14" d="M250.75,198.71c1.1-.02,1.48.71,1.69,1.62-1.11.03-1.77-.41-1.69-1.62Z"/>
        <path class="cls-14" d="M277.23,197.51c-.29.93-.94,1.51-1.82,1.88.13-1.09.73-1.72,1.82-1.88Z"/>
        <path class="cls-14" d="M275.31,199.53c-.29.28-.58.56-.86.84.29-.28.58-.56.86-.84Z"/>
      </g>
    </g>
  </g>
</svg>