<?xml version="1.0" encoding="UTF-8"?>
<svg id="Layer_2" xmlns="http://www.w3.org/2000/svg" viewBox="0 0 408.19 416.38">
  <defs>
    <style>
      .cls-1 {
        fill: #535654;
      }

      .cls-2 {
        fill: #8aaa61;
      }

      .cls-3 {
        fill: #fcfcf9;
      }

      .cls-4 {
        fill: #929ea1;
      }

      .cls-5 {
        fill: #e3b485;
      }

      .cls-6 {
        fill: #cfd4d4;
      }

      .cls-7 {
        fill: #a55143;
      }

      .cls-8 {
        fill: #9a7d5e;
      }

      .cls-9 {
        fill: #805c3e;
      }

      .cls-10 {
        fill: #b2a695;
      }

      .cls-11 {
        fill: #abacab;
      }

      .cls-12 {
        fill: #76868b;
      }

      .cls-13 {
        fill: #717271;
      }

      .cls-14 {
        fill: #edaa5d;
      }

      .cls-15 {
        fill: #cf6c59;
      }

      .cls-16 {
        fill: #c29668;
      }
    </style>
  </defs>
  <g id="Layer_1-2" data-name="Layer_1">
    <path class="cls-11" d="M38.09,89.12c3.49-7.08,8.7-12.96,13.85-18.75C80.9,37.78,116.19,15.35,158.83,5.32c42.99-10.11,84.73-5.6,125.26,11.71,24.2,10.34,44.81,25.83,63.88,43.63.78.73,1.25,1.53,1.3,2.58-7.16-2.84-14.59-2.19-22.01-1.65-2.1-9.75-6.43-17.91-16-22.31-1.73-1.25-3.36-2.7-5.22-3.73-14.05-7.83-31.51-4.56-43.74,8.4-2.54,2.69-4.28,3.34-7.84,1.49-20.75-10.75-41.37,9.73-40.95,25.65-.66,2.02-.59,4-.51,6.15.2,5.92,3.03,10.97,4.46,16.46-1.82.14-3.63.38-5.45.39-14.82.08-29.65.11-44.47.15-3.82,0-7.56.54-11.24,1.53-2.03.83-4.4,1.34-4.01,4.39l.02-.03c-2.39,1.05-1.95,3.21-1.95,5.13-.03,10.91-.13,21.83.07,32.74.05,2.97-.94,4.27-3.74,4.44-.1-12.49-.19-24.98-.29-37.47-.02-2.49.25-5.07-2.15-6.8-1.24-4.39-5.17-3.57-8.17-3.84-21.16-1.87-42.34-3.48-63.51-5.24-7.62-.63-11.08,2.26-11.17,9.92-.12,10.32-.07,20.65-.05,30.97.05,23.31.14,46.61.21,69.92-4.17.41-8.14-.44-11.99-1.97-.04-31.24.03-62.49-.2-93.73-.04-5.69.89-10.67,5.61-15.06-2.55.17-4.36.29-6.18.41-3.57-.15-7.15-.3-10.72-.45Z"/>
    <path class="cls-11" d="M368.47,86.15c6.56,6.6,10.32,15.03,14.68,23.01,12.08,22.13,19.4,45.97,22.9,70.79,3.62,25.67,2.79,51.27-3.68,76.67-7.38,28.97-19.73,55.33-38.42,78.69-1.54,1.93-2.35,4.43-4.52,5.87-1.75-6.05-1.39-12.36-2.33-18.49-2.72-17.83-4.64-35.77-7.62-53.58-3.11-18.64-8.33-35.87-24.19-47.91,2.59-.93,5.24-2.55,7.27.97.54.94,1.38.61,2.16.22.8-.4,1.34-.94,1.18-1.93-.21-1.3-.47-2.6-.57-3.91-.12-1.48.22-3.33-1.52-3.87-1.98-.61-2.31,1.42-3.03,2.62-.84,1.41-1.67,3.62-3.55,2.41-1.57-1.01-2.17-3.22-1.03-5.32.86-1.57,1.55-3.3,2.35-4.82,2.35-4.49,4.52-10.62,9.12-11.78,4.67-1.18,5.64-4.1,7.98-6.89,2.39-2.85,2.08-6.09,3.1-9.11,2.44-7.27,3.05-14-2.24-20.47-1.79-2.2-2.03-5.47-2.97-8.18-1.07-3.08-2.56-6.52-5.24-8.94.07-.7.14-1.4.21-2.1,2.31-.51,2.19-1.59.68-2.98.32-12.43-.98-9.72,6.25-11.69,13.71-3.73,22.65-15.05,22.91-29.27.06-3.34-1.1-6.7.11-10.01Z"/>
    <path class="cls-11" d="M64.36,356.05c-.33.02-.76.18-.97.03-7.68-5.54-14.48-11.86-18.34-20.78.11-2.66.3-5.31.3-7.97.04-42.48.06-84.97.08-127.45.91.16,1.83.32,2.74.48.99,1.29,2.4,1.53,3.91,1.86,10.62,2.3,21.19.64,31.73-.47,15.81-1.66,31.6-3.63,47.38-5.54,3.34-.4,4.38.89,4.27,4.15-.19,5.82,0,11.65.03,17.48-2.85.61-4.03-.71-4.01-3.45.01-1.99.02-3.99-.04-5.98-.12-3.93-1.79-5.54-6.04-4.96-10.46,1.43-20.99,2.41-31.48,3.66-7.86.94-15.7,2.02-23.55,3.04-2.33.06-4.67-.06-6.97.2-7.21.82-9.05,2.95-9.04,10.25,0,5.82.08,11.63.12,17.45.01,1.4.02,2.81.03,4.21-.03.85-.06,1.69-.09,2.53.04,1.8.07,3.6.11,5.4-1.17,3.92-1.89,7.85-.27,11.83.08,1.66.17,3.33.25,4.99-.05,4.34-.1,8.69-.14,13.03l.05,5.41c-.02,2.81-.03,5.63-.05,8.44-.88,2.93-1.37,5.86.1,8.76-.34,1.82-.67,3.63-1.01,5.45-1.68,4.68-1.59,9.36-.02,14.04,0,0-.04-.09-.04-.09.36,4.39.73,8.79,1.09,13.18-.03.83-.08,1.66-.09,2.49-.07,6.61.04,7.03,6.18,5.36,22.85-6.21,45.63-12.71,68.43-19.1.94-.26,1.24-1.01,1.54-1.79.77-.45.92-1.16.85-1.97.08-.34.17-.68.25-1.02,2.41-6.1-1.54-11.06-3.02-16.44-1.6-5.81-4.35-11.33-4.12-17.57,2.15-.05,1.51,2.47,2.89,3.14,4.19,13.03,9.28,25.59,19.04,35.65-1.93,1.99-.18,3.77,1.03,4.41,3.34,1.78,5.81,6.49,10.74,3.79,2.92.41,5.57,1.54,8.11,3.01-.93,1.82-1.41,3.24,1.42,3.97,10.08,2.6,20.32,3.26,30.67,2.95,3.57-.37,3.81,4.16,6.56,4.63,9.96,1.7,20.03,4.22,29.57-1.7,2.33-1.44,4.81-2.21,7.57-1.97.09,2.69.17,5.39.26,8.08-1.94,5.44-.44,11.12-1.11,16.63-.53,4.39.36,7.73,5.05,9.1-.21,11.74-.43,23.49-.64,35.23-17.94,4.19-36.18,4.87-54.44,3.78-13.22-.79-26.28-3.17-38.9-7.45-.67-4.92-.06-9.84-.1-14.76-.11-12.09-1.24-24.15-.87-36.26.16-5.13-.11-10.28-.18-15.42.07-1.32.13-2.63.19-3.95-.43-2.25-2.34-2.82-4.08-3.05-5.7-.74-6.97-3.76-5.45-8.98,1.14-3.9-1.95-6.07-4.5-8.1-1.57-1.25-1.93.35-1.94,1.56-.04,3.16-.32,6.36.11,9.46.59,4.28-1.48,5.81-5.2,6.84-9.58,2.65-19.1,5.5-28.59,8.44-12.47,3.86-25.16,7.05-37.35,11.8Z"/>
    <path class="cls-12" d="M45.44,199.89c-.02,42.48-.04,84.97-.08,127.45,0,2.66-.2,5.31-.3,7.97-5.42-3.56-8.71-9.04-12.04-14.25-16.93-26.52-27.4-55.61-31.38-86.69-3.02-23.61-1.84-47.24,3.47-70.72,4.95-21.88,12.84-42.41,23.91-61.82.58-1.02,1.04-2.09,2.17-2.65,4.88-1.96,9.43.88,14.17.96.03,33.25.06,66.5.1,99.75Z"/>
    <path class="cls-3" d="M327.26,61.6c7.42-.55,14.84-1.19,22.01,1.65,4.37,3.67,8.16,7.86,11.21,12.7.08,1.32-.02,2.67.27,3.94,2.71,11.88-2.59,22.34-11.33,28.18-8.4,5.61-21.07,4.02-29.74-2.99-3.62-2.93-5.5-5.98-3.04-10.66.83-1.59,1.88-3.44,1.18-6.31-9.55,10.7-21.22,15.01-34.74,12.93-13.51-2.08-23.07-9.9-28.82-22.58-.13,2.41-.06,4.54.58,6.47.72,2.16.13,3.78-1.61,4.69-3.21,1.67-6.44,3.44-10.22,3.6-11.92.5-22.78-6.92-26.91-18.24-.52-1.42-.4-3.49-2.59-3.88-.43-15.92,20.19-36.4,40.95-25.65,3.57,1.85,5.31,1.2,7.84-1.49,12.23-12.96,29.7-16.23,43.74-8.4,1.86,1.04,3.49,2.48,5.22,3.73.36,2.04,1.53,3.6,2.83,5.16,3.69,4.43,5.68,9.73,7.1,15.19,1.38,5.31,1.38,5.44,6.08,1.95Z"/>
    <path class="cls-6" d="M325.3,221.2c15.86,12.04,21.08,29.26,24.19,47.91,2.98,17.81,4.9,35.75,7.62,53.58.93,6.14.58,12.45,2.33,18.49-6.9,10.06-15.78,18.27-24.95,26.13-7.11,6.1-14.2,12.31-22.66,16.6-6.49-.98-13.06.77-19.54-.62.78-2.05,2.6-2.89,4.36-3.86,5.24-2.89,10.28-6.1,14.25-10.64,13.37-15.28,17.68-34.07,20.36-53.44.15-1.1.76-2.62-.72-3.51-2.19,1.02-2.96,3.16-4.24,4.85-4.94,6.53-10.44,12.46-17.77,16.4-10.75,5.78-22.56,8.55-34.15,11.93-1.48.43-2.98.37-3.34,2.27-2.18-1.73-4.41-1.26-6.65-.15-2.27.38-4.54.76-6.81,1.13.09-3.48-2.21-8.07,3.76-8.95,5.93-.88,11.6-2.74,17.36-4.25,21.77-5.71,40.44-15.82,51.67-36.49,3.06-5.65,6.18-11.25,7.42-17.66-4.33,6.08-7.95,12.57-12.17,18.63-6.73,9.68-13.76,18.97-25.11,24.16-15.19,6.95-31.04,11.35-47.39,14.33-2.48.45-3.87-.31-3.93-2.95-.02-1.25-.04-2.5-.06-3.75,8.57-1.13,16.76-3.86,24.95-6.4,14.8-4.59,29.59-9.79,39.89-22.17,8.81-10.59,16.46-22.18,20.64-35.48,4.68-14.88,4.76-25.42-8.83-37.23-1.86-1.62-2.94-2.49-5.15,0-5.69,6.38-12.42,11.43-21.1,13.09-1.89.36-2.28,1.17-1.36,2.68,2.52,4.13,3.67,8.77,5.12,13.3-.89,2.13-1.86,4.23-2.66,6.4-.74,2.01-1.93,2.49-3.78,1.47,1.45-9.45.42-18.34-5.98-25.99,2.41-.61,4.89-1.04,7.22-1.87,9.96-3.54,19.51-7.72,24.7-17.88.83-.02,1.66-.04,2.48-.05Z"/>
    <path class="cls-6" d="M213.51,71.1c2.19.39,2.07,2.46,2.59,3.88,4.12,11.32,14.99,18.74,26.91,18.24,3.78-.16,7.01-1.93,10.22-3.6,1.75-.91,2.33-2.53,1.61-4.69-.65-1.94-.72-4.06-.58-6.47,5.75,12.68,15.31,20.5,28.82,22.58,13.52,2.08,25.19-2.23,34.74-12.93.7,2.87-.34,4.72-1.18,6.31-2.47,4.69-.58,7.74,3.04,10.66,8.66,7.01,21.34,8.6,29.74,2.99,8.74-5.84,14.04-16.3,11.33-28.18-.29-1.27-.19-2.62-.27-3.94,3.46,2.78,5.72,6.5,8,10.2-1.21,3.32-.04,6.68-.11,10.01-.26,14.22-9.21,25.53-22.91,29.27-7.23,1.97-5.93-.74-6.25,11.69-.9.84-.82,1.9-.68,2.98-.07.7-.14,1.4-.21,2.1-.34,1.96-.69,3.93-1.03,5.89-8.99-4.65-17.98-9.3-26.97-13.96.49-3.94.76-7.92,1.53-11.8,1.8-9.14-5.56-16.76-14.71-14.87-10.63,2.19-21.13.84-29.48-5.52-7.13-5.43-12.72-6.27-21.24-3.44-6.9,2.29-13.22,2.72-13.16,11.79-20.54-.67-41.04,1.15-61.58.91-2.97-.04-4.62,1.37-5.69,3.87-1.05,2.46-1.74,4.99-1.54,7.71.43,6.09,1.38,12.16.86,18.3-1.02.27-1.94.72-1.94,1.93.01,6.83.04,13.66.13,20.48.02,1.27.93,2.08,1.97,2.71-.03,13.64-.06,27.28-.09,40.92-2.57,1.43-4.51,4.05-7.8,4.14-.18-3.31-.36-6.63-.54-9.94.11-1.82.3-3.64.3-5.46.05-27.43.06-54.86.11-82.29.01-6.93,2.33-8.97,9.21-9.4,17.43-1.09,34.88-.82,52.33-1.02,2.56-.03,5.12,0,8.56,0-3.91-3.65-7-6.54-10.1-9.44-1.43-5.49-4.26-10.54-4.46-16.46-.07-2.15-.14-4.13.51-6.15Z"/>
    <path class="cls-6" d="M151.17,342.02c.07,5.14.34,10.29.18,15.42-.37,12.11.76,24.17.87,36.26.05,4.92-.56,9.84.1,14.76-11.29-1.87-21.52-6.79-31.78-11.44-14.75-6.69-28.24-15.54-41.03-25.45-1.11-.86-3.27-1.45-2.29-3.74.43-1.93,1.92-2.22,3.56-2.86,9.42-3.69,19.54-4.81,29.02-8.17,13.8-4.89,27.58-9.85,41.37-14.78ZM97.33,366.24c-2.94.28-5.4,2.42-8.58,2.04-1.6-.19-2.11,1.35-2.11,2.79,0,1.43.46,2.68,2.04,2.98.96.18,1.98.12,2.97.07,16.51-.88,31.67-6.37,46.35-13.52,1.16-.56,2.21-1.49,3.07-2.47,1.94-2.2,2.39-4.37-.71-6.06-2.3-1.94-4.03.19-5.81.97-8.01,3.5-15.84,7.4-24.45,9.39-4.32,1-8.51,2.52-12.76,3.81Z"/>
    <path class="cls-1" d="M292.28,383.29c6.48,1.39,13.05-.36,19.54.62-3.71,4.75-8.96,7.05-14.33,9.33-7.42,3.15-14.5,7.04-22.02,10.04-9.69,3.86-19.7,6.51-29.81,8.86.21-11.74.43-23.49.64-35.23,2.9-.47,5.2,1.96,8.07,1.64.8.74,1.76.91,2.8.77,11.38,4.16,23.2,4.46,35.11,3.98Z"/>
    <path class="cls-12" d="M64.36,356.05c12.19-4.75,24.88-7.94,37.35-11.8,9.49-2.94,19.02-5.79,28.59-8.44,3.71-1.03,5.78-2.55,5.2-6.84-.42-3.1-.15-6.3-.11-9.46.02-1.21.37-2.81,1.94-1.56,2.54,2.02,5.63,4.19,4.5,8.1-1.52,5.21-.25,8.23,5.45,8.98,1.74.23,3.65.8,4.08,3.05-3.59.04-6.8,1.55-10.02,2.83-12.08,4.78-24.36,8.98-36.86,12.45-11.19,3.11-22.08,7.41-33.68,8.95-4.27.09-6.29-2.12-6.44-6.26Z"/>
    <path class="cls-3" d="M70.79,362.31c11.61-1.54,22.49-5.85,33.68-8.95,12.5-3.47,24.79-7.67,36.86-12.45,3.22-1.28,6.43-2.79,10.02-2.83-.06,1.32-.13,2.63-.19,3.95-13.79,4.93-27.57,9.89-41.37,14.78-9.49,3.36-19.61,4.48-29.02,8.17-1.64.64-3.13.94-3.56,2.86-3.45-.32-6-1.68-6.43-5.53Z"/>
    <path class="cls-4" d="M45.34,100.13c-4.74-.08-9.29-2.92-14.17-.96,1.87-3.65,3.1-7.75,6.91-10.06,3.57.15,7.14.3,10.71.45-.87,3.61-3.99,6.49-3.46,10.57Z"/>
    <path class="cls-6" d="M144.25,98.18c2.4,1.74,2.13,4.32,2.15,6.8.1,12.49.19,24.98.29,37.47,0,6.14-.02,12.28-.03,18.43-.1,8.26-.19,16.52-.28,24.78-.02,2.12.4,4.41-2.09,5.61-6.49,1.49-13.12,1.8-19.71,2.46-19.63,1.98-39.26,3.89-58.9,5.83-.1-1.16-.3-2.32-.3-3.48-.02-31.99-.02-63.97,0-95.96,0-1.15.05-2.35.36-3.45.64-2.29,2.02-3.99,4.66-3.51,8.08,1.46,16.26.54,24.36,1.11,16.51,1.17,32.91,3.75,49.5,3.88ZM71.42,148.15l.04,9.1c.05,8.71.1,17.42.15,26.12.18,2.38-.2,5.2,3.68,4.67,3.04.72,4.47-.58,5.34-3.53,1.76-5.91,2.59-11.96,3.21-18.03,1.3-12.79.16-25.44-3.37-37.81-1.28-4.49-4.03-5.18-8.1-2.46-1.18,1.07-.88,2.43-.73,3.76-.07,6.06-.14,12.11-.22,18.17Z"/>
    <path class="cls-12" d="M217.45,93.71c3.1,2.89,6.2,5.79,10.1,9.44-3.43,0-6-.03-8.56,0-17.44.2-34.89-.07-52.33,1.02-6.88.43-9.2,2.47-9.21,9.4-.05,27.43-.06,54.86-.11,82.29,0,1.82-.2,3.64-.3,5.45-2.76.69-1.28,2.98-1.69,4.56-.2.78-.08,1.79-1.23,1.78-.97-.01-1.41-.82-1.58-1.65-.16-.81-.16-1.65-.16-2.48-.12-17.1-.63-34.2-.69-51.28-.06-17.34.74-34.73.63-52.1,0,0-.02.03-.02.03,1.6-1.22,4.02-1.69,4.01-4.39,3.68-.99,7.42-1.52,11.24-1.53,14.82-.03,29.65-.07,44.47-.15,1.82,0,3.63-.26,5.45-.39Z"/>
    <path class="cls-3" d="M144.25,98.18c-16.59-.13-32.99-2.71-49.5-3.88-8.1-.57-16.28.35-24.36-1.11-2.65-.48-4.02,1.22-4.66,3.51-.31,1.1-.36,2.3-.36,3.45-.02,31.99-.01,63.97,0,95.96,0,1.16.19,2.32.3,3.48-1.37.11-2.74.22-4.11.33-.07-23.31-.15-46.61-.21-69.92-.02-10.32-.07-20.65.05-30.97.09-7.67,3.55-10.56,11.17-9.92,21.17,1.76,42.35,3.38,63.51,5.24,2.99.26,6.93-.55,8.17,3.84Z"/>
    <path class="cls-12" d="M61.56,199.92c1.37-.11,2.74-.22,4.11-.33,19.63-1.94,39.27-3.85,58.9-5.83,6.59-.67,13.23-.97,19.71-2.46-2.48,3.64-1.97,7.79-1.99,11.84-.02,4.64-.03,9.28-.04,13.92-2.11,1.44-4.46.83-6.74.81-.03-5.83-.22-11.66-.03-17.48.1-3.27-.93-4.56-4.27-4.15-15.79,1.91-31.57,3.88-47.38,5.54-10.54,1.11-21.11,2.77-31.73.47-1.51-.33-2.92-.57-3.91-1.86.98-.51,1.21-1.46,1.4-2.43,3.85,1.53,7.82,2.38,11.99,1.97Z"/>
    <path class="cls-13" d="M49.57,197.94c-.19.97-.42,1.91-1.4,2.43-.91-.16-1.83-.32-2.74-.48-.03-33.25-.06-66.5-.1-99.75-.54-4.08,2.58-6.96,3.46-10.57,1.82-.12,3.63-.24,6.18-.41-4.72,4.39-5.65,9.37-5.61,15.06.23,31.24.17,62.48.2,93.73Z"/>
    <path class="cls-13" d="M152.31,100.14c.11,17.37-.69,34.76-.63,52.1.06,17.08.58,34.18.69,51.28,0,.83,0,1.67.16,2.48.16.83.61,1.64,1.58,1.65,1.15.02,1.03-1,1.23-1.78.41-1.57-1.07-3.86,1.69-4.56.18,3.32.36,6.63.53,9.94-.42.61-.84,1.21-1.26,1.82-1.95.66-3.91,1.32-5.86,1.98-.06-16.29-.16-32.58-.12-48.87,0-2.83-.41-4.95-3.68-5.31,0-6.14.02-12.28.03-18.43,2.8-.18,3.8-1.47,3.74-4.44-.2-10.91-.1-21.83-.07-32.74,0-1.92-.44-4.09,1.95-5.13Z"/>
    <path class="cls-6" d="M327.26,61.6c-4.69,3.48-4.69,3.36-6.08-1.95-1.42-5.46-3.41-10.76-7.1-15.19-1.3-1.56-2.47-3.12-2.83-5.16,9.57,4.39,13.9,12.55,16,22.31Z"/>
    <path class="cls-13" d="M156.3,95.78c.01,2.69-2.41,3.16-4.01,4.39-.4-3.04,1.98-3.56,4.01-4.39Z"/>
    <path class="cls-10" d="M337.28,148.08c.34-1.96.69-3.93,1.03-5.89,2.68,2.43,4.17,5.87,5.24,8.94.94,2.71,1.17,5.98,2.97,8.18,5.29,6.47,4.67,13.2,2.24,20.47-1.02,3.03-.7,6.27-3.1,9.11-2.35,2.79-3.31,5.71-7.98,6.89-4.6,1.17-6.77,7.3-9.12,11.78-.8,1.53-1.49,3.25-2.35,4.82-1.15,2.11-.54,4.31,1.03,5.32,1.88,1.21,2.71-1,3.55-2.41.72-1.21,1.05-3.24,3.03-2.62,1.74.54,1.41,2.39,1.52,3.87.1,1.31.36,2.61.57,3.91.16.99-.37,1.53-1.18,1.93-.78.39-1.62.72-2.16-.22-2.02-3.52-4.68-1.9-7.27-.97-.83.02-1.66.04-2.48.05-.87-5.36-5.7-8.34-7.77-12.98.36-1.57.06-3.28,1.32-4.67,3.1-3.42,5.19-7.48,7.1-11.64,4.36-.44,5.43-4.7,8.13-7.06.96-.84,1.11-2-.2-2.87.04-1.14.76-1.7,1.69-2.19,8.72-4.63,11.76-14.15,3.88-21.79-.4-.39-.38-1.21-.56-1.83,4.33-2.28,1.95-5.28.88-8.14Z"/>
    <path class="cls-10" d="M338.52,140.09c-.14-1.08-.22-2.14.68-2.98,1.51,1.39,1.63,2.46-.68,2.98Z"/>
    <path class="cls-6" d="M150.46,215.07c1.95-.66,3.91-1.32,5.86-1.98,1.64,1.92-.01,5.27,1.84,6.43,2.17,1.35,4.59-1.14,7.01-1.46.58,2.79-.1,5.47-.76,8.14-2.09,1.36-4.47,1.72-6.87,2.04-.43-8.21-.5-8.25-8-4.83-2.38.24-4.76.47-7.14.71-2.07-1.67-4.71-1.08-7.03-1.79-2.28-1.29-4.01-1.58-3.88,1.96.05,1.28-.06,2.57-.09,3.85-2.55.22-4.66-.32-6.85-2.04-4.67-3.66-9.4-7.34-14.9-9.8-4.94-2.21-12.97-.66-17.18,3.86,3.82,0,7.07-.09,10.32.02,4.5.15,8.47,1.56,11.22,5.38,3.43,4.77,7.6,8.73,12.64,11.76,1.38.83,2.6,2.4,4.45,1.6,2.05-.89,1.09-2.88,1.25-4.42.16-1.48.12-2.98.16-4.48.95.02,1.9.04,2.85.06,2.32.24,4.51,1.5,6.93.92,2.39-.25,5.02,1.03,7.13-1.08,2.77,1.13,5.11-.92,7.71-1.03.03,3.81.06,7.62.09,11.44-1.31.03-2.37.5-3.01,1.7-1.32.03-2.63.05-3.95.08-2.7-.05-5.33.37-7.91,1.11-7.04-2.07-7.06-2.02-7.04,5.38.02,4.8-.1,9.59-.15,14.39-2.75,1.61-2.26,4.96-3.86,7.19-8.29,3.88-9.28,6.08-6.77,15.04-.23,6.24,2.52,11.76,4.12,17.57,1.48,5.38,5.43,10.34,3.02,16.44-.86.16-.97.49-.25,1.02.08.81-.08,1.52-.85,1.97-5.03-.21-9.98-1.67-15.07-.98-1.24-3.46-2.83-1.54-4.37-.28-1.44,1.18-2.61,3.42-4.9,1.25,2.98-2.97,6.64-5.43,7.41-10.03l-.14-1.5c2.9-4.35,3.43-8.7-.04-13.03l.22-.17s-.1-.26-.1-.26c.15-2.81-2.87-4.28-2.95-6.99,2.02-3.25.14-4.29-2.71-5.06-2.79-.75-3.82.03-3.13,2.88-2.05,6.37-7.79,10.9-14.02,11.07-2.63-3.94-5.06-8.5-10.41-8.65-2.54-.07-3.86-.56-5.22-2.57-1.72-2.56-14.79-1.29-16.28,1.41-.08.14-.23.32-.2.44.92,3.8-1.92,3.76-4.28,4.2.02-2.81.03-5.63.05-8.44,4.24-.79,8.5-1.49,12.73-2.37,17.71-3.68,35.42-7.36,53.1-11.21,1.83-.4,5.34-.2,4.72-3.18-.69-3.3-3.77-2.21-6.22-1.66-4.2.95-8.42,1.84-12.65,2.68-17.24,3.46-34.48,6.89-51.72,10.34.05-4.34.1-8.69.14-13.03,11.63,3.46,23.28,4.15,35.27,1.56,8.03-1.73,11.54-6.97,13.59-14.03.49-1.68,1.62-3.49-.52-4.92,2.29-1.46,2.08-3.67,1.8-5.91,4.22-5.86,3.62-8.07-2.98-9.5-8.74-1.9-17.64-2.44-26.56-2.01-3.62.17-5.07-.85-4.87-4.68.3-5.78.1-11.59.11-17.38,7.85-1.02,15.69-2.1,23.55-3.04,10.49-1.25,21.01-2.23,31.48-3.66,4.26-.58,5.92,1.03,6.04,4.96.06,1.99.06,3.99.04,5.98-.02,2.75,1.16,4.06,4.01,3.45,2.28.02,4.64.64,6.74-.81,2.94.17,5.43-1.49,8.21-1.99ZM114.37,241.83c-1.6,3.54-1.14,6.02.61,8.11,1.67,2,3.84,1.01,5.97.54,3.01-.67,5.98-2.16,9.2-.94.85.32,1.67.32,1.94-.76.26-1.05.07-2.22-1.12-2.35-2.74-.31-5.99-1.34-8.16-.29-4.58,2.22-6.93,1.02-8.44-4.3Z"/>
    <path class="cls-3" d="M70.39,210.17c-.01,5.8.19,11.6-.11,17.38-.2,3.83,1.24,4.85,4.87,4.68,8.92-.43,17.82.11,26.56,2.01,6.6,1.44,7.2,3.65,2.98,9.5-3.73-1.32-6.81,1.69-10.37,1.54-1.63-.61-3.25-.17-4.88,0-2.82.85-5.57,1.77-8.66,1.13-7.88-1.63-16.16,1.25-23.94-2.03-.63-.27-1.6.26-2.4.42.03-.85.06-1.69.08-2.54,7.45-.31,14.84.91,22.27,1.22,7.84.32,15.24-1.88,22.89-2.3.78-.04,1.56-.53,2.31-.87.91-.41,2-.93,1.86-2.05-.17-1.31-1.47-1.07-2.41-1.1-2.65-.09-5.33.1-7.95-.22-13.06-1.62-26.05-1.12-38.99,1.11-.04-5.82-.11-11.63-.12-17.45,0-7.3,1.84-9.43,9.04-10.25,2.3-.26,4.65-.14,6.97-.2Z"/>
    <path class="cls-6" d="M146.45,324c-9.77-10.06-14.85-22.61-19.04-35.65-.27-3.26.47-5.06,4.26-3.33,1.41.65,3.11.68,4.67.99,1.58.67,3.75.57,3.97,3.03-1.16.2-2.55-.68-3.71,1,2.77,2.15,5.73,3.43,9.28,3.22,1.68,1.77.86,4.72,2.98,6.28.12.62.25,1.23.37,1.85.17,1.18.33,2.36.5,3.53.53,2.18.46,4.75,3.5,5.25.65.61,1.29,1.22,1.94,1.83-2.41.54-2.39,2.29-1.41,3.8,2.2,3.38,2.52,9.7,6.73,9.63,4.7-.07,2.12,2.51,2.83,3.84-.74.31-1.06.98-.4,1.41.98.65,2.16.6,3.23-.05,1.55-.58,2.76-.38,3.89,1.04,2.46,3.1,5.82,3.51,9.66,3.72,5.87.32,11.79-.86,17.61.58.19.36.38.72.57,1.08-.25,0-.46.07-.64.24-10.44,1.42-20.72.43-30.9-2.08-2.53-1.46-5.18-2.59-8.1-3.01,2.45-1.71,2.18-3.29-.24-4.74-1.41-.84-2.84-1.63-4.27-2.44-.39-.64-.62-1.75-1.6-1.37-1.14.44-.54,1.62-.59,2.5-2.17.42-3.51-1.13-5.07-2.15ZM139.99,305.9c.9-1.55.26-2.95-.65-4.14-.87-1.14-.75-4.09-3.01-2.91-1.92,1.01-1.1,3.2.14,4.73.51.63,1.24,1.08,1.87,1.61.48,4.44,2.79,7.74,6.41,10.26-1.97-3.01-.88-7.52-4.77-9.56ZM147.98,318.87c-.28-.13-.55-.26-.83-.39-.11.28-.38.63-.29.82.09.21.51.28.79.41.11-.28.23-.56.34-.84Z"/>
    <path class="cls-3" d="M115.49,321.23c5.09-.69,10.04.77,15.07.98-.3.78-.6,1.53-1.54,1.79-22.8,6.39-45.58,12.89-68.43,19.1-6.14,1.67-6.25,1.25-6.18-5.36,0-.83.06-1.66.09-2.49.83.01,1.68-.09,2.48.05,10.88,1.98,20.79-1.18,30.44-5.71,4.84-.87,9.88-1.16,14.45-2.77,4.59-1.62,10.39-.6,13.61-5.59Z"/>
    <path class="cls-2" d="M54.38,293.92c2.37-.44,5.2-.39,4.28-4.2-.03-.12.12-.3.2-.44,1.49-2.69,14.56-3.96,16.28-1.41,1.36,2.02,2.67,2.5,5.22,2.57,5.34.15,7.78,4.72,10.41,8.65-2.84,2.47-6.25,1.11-9.39,1.28-3.71.2-7.52-.66-11.04,1.21-.55-1.65,2.37-4.01.1-4.64-2.17-.6-2.37,2.5-3,4.25-.22.6-.19,1.29-.27,1.94-4.22-.16-8.45-.31-12.67-.47-1.47-2.9-.98-5.83-.1-8.76Z"/>
    <path class="cls-4" d="M54.39,280.07c17.24-3.44,34.48-6.88,51.72-10.34,4.23-.85,8.45-1.73,12.65-2.68,2.45-.55,5.53-1.64,6.22,1.66.62,2.98-2.89,2.78-4.72,3.18-17.68,3.85-35.39,7.53-53.1,11.21-4.22.88-8.48,1.58-12.73,2.37-.02-1.8-.03-3.6-.05-5.4Z"/>
    <path class="cls-3" d="M254.37,378.55c-2.87.32-5.17-2.11-8.07-1.64-4.69-1.37-5.58-4.72-5.05-9.1.67-5.52-.83-11.19,1.11-16.63,4.08.26,7.7-2.31,11.8-1.92.07,9.76.14,19.53.2,29.29Z"/>
    <path class="cls-7" d="M54.48,302.68c4.22.16,8.45.31,12.67.46.84,1.28,1.7.94,2.55.02,3.82-.13,7.69-.73,11.29,1.18,2.61,5.72,4.78,11.49,1.89,17.79-.48.04-.97.07-1.45.11-.06-2.32.03-4.66-.2-6.96-.75-7.39-2.84-9.99-8.21-8.91-3.75.75-7.58-.07-11.2,1.19-5.32-.32-5.92.41-4.96,6.06-1.4,10.48,3.45,14.67,13.59,13.2,4.35-.63,7.15-3.54,10.99-4.59.44,1.51-.81,2.52-1.11,3.81-4.59,6.83-11.74,4.77-17.94,4.56-4.64-.15-6.35-5.24-8.98-8.52,0,0,.04.09.04.09,0-4.68.01-9.36.02-14.04.34-1.82.67-3.63,1.01-5.45Z"/>
    <path class="cls-6" d="M54.49,238.07c12.94-2.23,25.93-2.73,38.99-1.11,2.62.32,5.3.13,7.95.22.95.03,2.24-.21,2.41,1.1.14,1.11-.95,1.63-1.86,2.05-.75.34-1.52.83-2.31.87-7.65.43-15.05,2.63-22.89,2.3-7.43-.31-14.81-1.53-22.27-1.22-.01-1.4-.02-2.81-.03-4.21Z"/>
    <path class="cls-5" d="M54.28,262.05c-1.62-3.98-.9-7.91.27-11.83.37-.02.74-.05,1.12-.07,3.16.49,6.14,3.49,9.55.72.39.02.77.03,1.16.05,2.6,1.32,5.44.93,8.2,1.25,8.71,1.01,17-2.77,25.65-2.05.37.06.74.13,1.12.19-.07,1.05.27,2.22-.87,2.95-3.04-1.03-6.38-1.82-9.31-.84-9.31,3.09-18.83,1.22-28.24,1.86-2.11.14-5.4-1.3-5.94,1.86-.46,2.67.64,5.63,3.37,7.29,3.2,1.95,6.79,2.37,10.46,2.75,7.72.79,15.14-1.48,22.73-1.88-.61.53-1.14,1.33-1.84,1.54-7.89,2.32-15.94,2.88-24.11,1.98-4.95-.54-9.43-1.73-12.22-6.45-.67-1.14-.76.35-1.08.69Z"/>
    <path class="cls-6" d="M53.42,322.08c2.63,3.28,4.34,8.37,8.98,8.52,6.2.21,13.35,2.26,17.94-4.56,1.74,2.43,5.35,1.14,7.1,3.56-9.65,4.53-19.56,7.69-30.44,5.71-.81-.15-1.66-.04-2.48-.05-.36-4.39-.72-8.78-1.09-13.18Z"/>
    <path class="cls-10" d="M242.11,343.09c-2.76-.24-5.24.52-7.57,1.97-9.54,5.93-19.61,3.4-29.57,1.7-2.75-.47-3-5-6.56-4.63-.4-1.61-.8-3.23-1.19-4.84.18-.17.39-.25.63-.24,1.3-.16,2.35.47,3.42,1.06,1.16,2.08,3.45,2.72,5.16,4.11,1.79,3.96,5.27,1.19,7.85,1.96,4.39,2.56,8.72-.05,13.08-.14,5.45-.17,9.65-3.95,14.74-5.13l.29.27c-.09,1.3-.19,2.6-.28,3.91Z"/>
    <path class="cls-3" d="M54.28,262.05c.32-.34.41-1.83,1.08-.69,2.79,4.72,7.27,5.91,12.22,6.45,8.18.9,16.22.34,24.11-1.98.7-.21,1.23-1.01,1.84-1.54.29-.04.55-.15.79-.32.61.05.94-.22.94-.85.18-.18.28-.41.3-.66.35-.38.71-.76,1.06-1.14,2.73-2,2.64-5.34,3.85-8.06,1.14-.73.8-1.9.87-2.95.52-.22,1.03-.43,1.55-.65,2.14,1.43,1,3.24.52,4.92-2.05,7.06-5.57,12.3-13.59,14.03-12,2.59-23.65,1.9-35.27-1.56-.08-1.67-.17-3.33-.25-4.99Z"/>
    <path class="cls-4" d="M197.21,337.28c.4,1.61.8,3.23,1.19,4.84-10.35.31-20.59-.35-30.67-2.95-2.83-.73-2.35-2.15-1.42-3.97,10.18,2.51,20.45,3.5,30.89,2.08Z"/>
    <path class="cls-13" d="M66.37,250.91c-.39-.02-.77-.03-1.15-.05-1.83-1.88-4.46-1.73-6.7-2.52-1.3-.45-3.11-.68-2.85,1.81-.37.02-.75.05-1.12.07-.03-1.8-.07-3.6-.11-5.4.81-.16,1.77-.68,2.4-.42,7.78,3.27,16.06.39,23.94,2.03,3.09.64,5.84-.28,8.66-1.13-1.8,2.93-4.45,4.95-7.84,4.31-4.11-.78-8.18-.23-12.25-.51-1.41-.1-2.66.11-2.98,1.82Z"/>
    <path class="cls-6" d="M242.11,343.09c.09-1.3.19-2.6.28-3.91,1.21-.68,2.41-1.35,3.87-.78.38,2.3,2.08,3.14,3.95,2.58,3.93-1.17,4.49.67,4.12,3.87-.17,1.45-.11,2.93-.16,4.4-4.1-.4-7.72,2.18-11.8,1.92-.09-2.69-.17-5.39-.26-8.08Z"/>
    <path class="cls-4" d="M136.33,286.01c-1.57-.31-3.26-.35-4.67-.99-3.79-1.73-4.53.07-4.26,3.33-1.37-.67-.73-3.18-2.89-3.14-2.51-8.96-1.52-11.16,6.77-15.04,0,1.27-.01,2.54-.02,3.81-2.44.66-4.57,2.08-3.68,4.74.97,2.9,3.54,4.22,6.77,3.58.71.03,1.42.07,2.13.1-.01.29-.02.58-.03.87-.04.91-.09,1.82-.13,2.73Z"/>
    <path class="cls-4" d="M146.45,324c1.56,1.02,2.9,2.57,5.07,2.15.94.04,1.64-.4,2.18-1.13,1.42.81,2.86,1.6,4.27,2.44,2.42,1.44,2.69,3.03.24,4.74-4.93,2.7-7.4-2.01-10.74-3.79-1.21-.64-2.96-2.42-1.03-4.41Z"/>
    <path class="cls-6" d="M53.48,308.13c0,4.68-.01,9.36-.02,14.04-1.57-4.68-1.66-9.36.02-14.04Z"/>
    <path class="cls-3" d="M131.41,320.25c-.72-.53-.61-.87.25-1.02-.08.34-.16.68-.25,1.02Z"/>
    <path class="cls-3" d="M303.3,259.13c-1.45-4.53-2.6-9.17-5.12-13.3-.92-1.51-.53-2.31,1.36-2.68,8.68-1.66,15.42-6.71,21.1-13.09,2.21-2.48,3.29-1.61,5.15,0,13.59,11.81,13.51,22.35,8.83,37.23-4.18,13.29-11.83,24.89-20.64,35.48-10.3,12.37-25.09,17.58-39.89,22.17-8.19,2.54-16.38,5.27-24.95,6.4-2.4-1.16-.98-4.04-2.52-5.58-.15-.83-.3-1.67-.44-2.5-.22-.48-.45-.95-.67-1.43.06-3.54-2.68-6.09-3.29-9.39.21-3.22,2.82-4.13,5.13-5.33,5.98-.16,11.07-3.27,16.61-4.89,9.75-2.84,18.62-10.08,29.79-6.2.35.12,1.03-.06.93-1.1-.4-.2-.92-.51-1.48-.76-6-2.65-5.93-2.6-2.65-8,3.71-6.11,7.45-12.2,10.82-18.5,1.84-3.44,4.04-6.88,4.53-11.28-.75.35-1.14.4-1.29.62-.48.68-.87,1.41-1.29,2.13Z"/>
    <path class="cls-3" d="M292.28,383.29c-11.91.48-23.73.18-35.11-3.98.13-10.35.26-20.69.39-31.04,2.27-.38,4.54-.76,6.81-1.13.22,1.5-1.78,2.87-.04,4.52,1.48,1.41,2.9,3.04,5.05,2.08,3.02-1.35,1.91-4.08,1.65-6.45.36-1.89,1.86-1.83,3.34-2.27,11.59-3.38,23.4-6.15,34.15-11.93,7.33-3.94,12.83-9.86,17.77-16.4,1.28-1.69,2.05-3.84,4.24-4.85,1.48.89.87,2.41.72,3.51-2.68,19.37-6.99,38.16-20.36,53.44-3.97,4.53-9.01,7.75-14.25,10.64-1.76.97-3.58,1.81-4.36,3.86ZM301.39,350.21c.07-2.55-.91-4.2-3.71-4.09-2.73.1-4.27,1.59-4.4,4.32-.11,2.47,1.1,4.48,3.56,4.46,2.65-.02,4.71-1.51,4.54-4.69Z"/>
    <path class="cls-7" d="M315.04,208.27c2.07,4.64,6.9,7.62,7.77,12.98-5.19,10.16-14.73,14.34-24.7,17.88-2.33.83-4.81,1.26-7.22,1.87-2.4.58-2.57,1.88-1.74,4.05,1.08,2.8,2.77,5.16,4.41,7.6,1.45,2.15.55,4.57-.91,5.84-1.93,1.68-2.52-1.18-3.58-2.12-2.11-1.86-3.78-4.15-4.67-6.84-.75-2.26-2.28-2.57-4.26-2.24-1.35-.82-2.75-1.3-4.31-.63-3.42-.19-3.92,3.01-5.54,4.86-2.05,2.35-4.02,4.59-7.47,2.4.09-4.55,2.89-7.83,5.98-10.38,3.82-3.16,4.13-3.16-.36-6.34-3.48-3.72-7.88-6.72-9.4-11.98.37-2.19.73-4.38,2.38-6.06,3.32.34,6.63.68,9.95,1.02,1.26,2.34,2.52,4.68,3.79,7.02.04.34-.04.66-.21.95-1.6-.25-2.7-3.45-4.57-1.27-2.09,2.43.58,2.78,2.07,3.64,1.25.72,1.2,2.14.37,3.01-1.58,1.66-1.89,3.23.05,4.55,2.01,1.37,4.09,2.69,6.69.63,3.1-2.46,5.3-5.34,5.89-9.31,1.29-.45,2.59-.89,3.88-1.34-.57,2.22-1.54,4.46,1.81,5.54,1.69.54,2.76.01,3.05-1.42.48-2.37.48-4.78-2.91-5.06,1.03-1.31,2.07-2.62,3.1-3.94h0c.43-.34.87-.67,1.3-1,1.22-.42,2.44-.83,3.66-1.25.39,1.61.07,3.89,2.65,3.69,1.03-.08,2.14-1.16,2.03-2.42-.2-2.28-2.08-2.07-3.7-2.12,2.94-3.32,5.71-6.8,8.88-9.88,1.44-1.4,3.09-3.86,5.87-1.95ZM316.97,221.51c-.08-1.73-1.25-2.17-2.67-2.34-1.99-.24-3.3.7-3.61,2.57-.28,1.67.98,2.35,2.46,2.43,1.92.1,3.01-1.1,3.83-2.65ZM307.89,219.17c.86-.14,2.06-.58,2.3-2.19.15-.98-.42-1.69-1.33-1.69-1.69,0-2.83,1.07-3.19,2.6-.23.97.79,1.26,2.22,1.28ZM298.84,236.33c-.07-1.29-1.15-1.56-2.02-1.81-1.42-.42-2.17.52-2.4,1.76-.22,1.19.45,1.92,1.66,1.77,1.13-.14,2.21-.55,2.76-1.72Z"/>
    <path class="cls-11" d="M257.57,348.28c-.13,10.35-.26,20.69-.39,31.04-1.04.14-2-.03-2.8-.77-.07-9.76-.13-19.53-.2-29.29.04-1.47-.01-2.95.15-4.4.37-3.2-.19-5.04-4.12-3.87-1.87.56-3.57-.28-3.95-2.58.12-1.87.97-3.08,2.93-3.32.07,2.64,1.46,3.4,3.93,2.95,16.34-2.97,32.19-7.38,47.39-14.33,11.35-5.19,18.38-14.47,25.11-24.16,4.22-6.07,7.83-12.55,12.17-18.63-1.24,6.41-4.36,12.01-7.42,17.66-11.22,20.68-29.9,30.78-51.67,36.49-5.76,1.51-11.43,3.37-17.36,4.25-5.97.88-3.67,5.47-3.76,8.95Z"/>
    <path class="cls-11" d="M303.3,259.13c.42-.71.82-1.45,1.29-2.13.15-.22.54-.27,1.29-.62-.49,4.4-2.7,7.84-4.53,11.28-3.36,6.3-7.11,12.39-10.82,18.5-3.28,5.4-3.35,5.35,2.65,8,.56.25,1.08.55,1.48.76.11,1.04-.57,1.22-.93,1.1-11.17-3.89-20.04,3.35-29.79,6.2-5.54,1.62-10.64,4.73-16.61,4.89,0-.62,0-1.24.01-1.86,1.61-.81,3.19-1.67,4.82-2.42,1.71-.79,3.18-1.57,3.22-3.89.2-10.94.52-21.87.8-32.81.88,2.39,3.09-.71,4.13,1.01-2.08,10.28-2.04,20.72-2.1,31.13-.01,2.2,1.5,1.58,2.84,1.23,6.93-1.81,13.58-4.41,20.24-6.99,1.39-.54,2.12-1.49,2.8-2.64,3.14-5.27,6.24-10.57,9.46-15.79,1.14-1.85,1.24-3.37-.55-4.77.43-.43.85-.85,1.28-1.28.86-.34,1.72-.68,2.57-1.02,1.85,1.02,3.04.54,3.78-1.47.8-2.17,1.76-4.27,2.66-6.4Z"/>
    <path class="cls-15" d="M296.87,267c-.86.34-1.72.68-2.57,1.03-5.43-3.17-9.81-7.4-12.96-12.87-.15-.64-.3-1.27-.45-1.91-.25-1.98-.5-3.96-.75-5.94,1.98-.33,3.51-.02,4.26,2.24.9,2.69,2.56,4.98,4.67,6.84,1.06.94,1.65,3.8,3.58,2.12,1.47-1.27,2.36-3.69.91-5.84-1.64-2.44-3.33-4.8-4.41-7.6-.84-2.18-.66-3.48,1.74-4.05,6.4,7.65,7.42,16.54,5.97,25.99Z"/>
    <path class="cls-11" d="M271.03,347.3c.27,2.37,1.37,5.1-1.65,6.45-2.15.96-3.58-.68-5.05-2.08-1.73-1.65.26-3.03.04-4.52,2.24-1.11,4.47-1.58,6.65.15Z"/>
    <path class="cls-10" d="M249.19,335.09c-1.96.23-2.81,1.45-2.93,3.32-1.46-.57-2.67.1-3.87.78,0,0-.29-.27-.29-.27,2.29-4.12,4.17-8.38,4.51-13.16,1.53,1.55.11,4.43,2.52,5.59.02,1.25.04,2.5.05,3.75Z"/>
    <path class="cls-3" d="M233.25,110.28c-.06-9.07,6.26-9.5,13.16-11.79,8.53-2.83,14.11-2,21.24,3.44,8.35,6.36,18.85,7.71,29.48,5.52,9.15-1.88,16.51,5.74,14.71,14.87-.76,3.88-1.03,7.86-1.53,11.8-1.42-.45-2.86-.85-4.26-1.36-17.03-6.15-34.51-9.82-52.71-9.46-2.04.03-4.07.06-6.11.08-5.61.58-11.22,1.16-16.83,1.73-1.39-3.72,1.67-6.59,1.9-10,.32-1.62.64-3.23.95-4.85Z"/>
    <path class="cls-9" d="M253.34,123.31c18.2-.37,35.68,3.3,52.71,9.46,1.4.51,2.84.91,4.26,1.36,8.99,4.65,17.98,9.3,26.97,13.96,1.08,2.86,3.45,5.86-.88,8.14-2.05-.39-3.97.05-5.71,1.12-3.44,2.13-4.88,5.75-6.53,9.15-1.71,3.52-2.79,2.12-3.88-.33-2.1-5.6-4.05-11.26-6.34-16.77-1.52-3.65-1.11-8.07-8.55-6.92-7.78,1.2-15.99-2.27-23.01-6.88-.84-.55-1.62-1.87-3.01-.77-.41,2.19,1.75,3.82,1.57,6.38-11.9-2.28-21.44-7.45-27.61-17.89Z"/>
    <path class="cls-3" d="M165.17,218.06c-2.42.33-4.84,2.81-7.01,1.46-1.86-1.16-.2-4.51-1.84-6.43.42-.61.84-1.22,1.26-1.82,3.29-.08,5.23-2.71,7.8-4.14,2.07-.93,4.14-1.86,6.21-2.79,7.27-.04,14.55-.18,21.82-.07,4.75.07,8.42-1.93,10.9-5.68,2.18-3.3,1.68-6.97-.45-10.25-1.74-2.68-4.41-2.57-7.1-1.85-3.56.96-3.78,3.69-3.39,6.69h-.01c-3.57-1.37-3.63-4.16-2.26-6.9,2.62-5.21,9.91-7.24,15.09-4.51,9.69,5.11,10.88,18.93,2.49,26.23-5.54,4.83-12.18,5.65-18.99,6.1-6.11.4-12.32-.88-18.34,1.1-2.34.34-4.33,1.42-6.15,2.86Z"/>
    <path class="cls-11" d="M171.58,204.34c-2.07.93-4.14,1.86-6.21,2.79.03-13.64.06-27.28.08-40.93,2.38-.76,4.79-1.14,7.32-1.05,14.05.48,28.12-.7,42.18.83,4.77.52,6.92,2.31,7.42,6.75-4.28-.19-8.57-.42-12.86-.57-4.81-.16-9.71,1.05-14.32.61-6.48-.63-12.92-.22-19.36-.65-3.15-.21-4.58,1.03-4.52,4.3.17,9.3.19,18.61.26,27.91Z"/>
    <path class="cls-11" d="M233.25,110.28c-.32,1.62-.64,3.23-.95,4.85-15.77.14-31.51,1.54-47.29,1.06-2.66-.08-5.33-.1-7.98.09-3.21.23-5.01,1.61-4.83,5.37.32,6.47.15,12.97.19,19.45-2.36,0-4.73-.02-7.09-.03.52-6.14-.43-12.21-.86-18.3-.19-2.72.49-5.25,1.54-7.71,1.07-2.5,2.72-3.91,5.69-3.87,20.53.25,41.04-1.58,61.58-.91Z"/>
    <path class="cls-4" d="M165.3,141.07c2.36,0,4.73.02,7.09.03,1.06-.14,2.12-.28,3.18-.42.61.13,1.21.26,1.82.39-.01.31-.03.62-.05.93-.35.1-.7.2-1.05.3-1.82-.02-3.65.1-5.45-.1-4.32-.47-6.05,1.33-5.72,5.67.29,3.78.13,7.59.21,11.39.04,1.89.19,3.78,2.87,3.63,17.46.73,34.92.17,52.38.18.22,0,.45,0,.67-.05,1.95,2.9,4.5,5.46,5.09,9.12-1.26.62-2.53,1.2-3.97.62-.49-4.44-2.65-6.23-7.42-6.75-14.07-1.53-28.13-.35-42.18-.83-2.53-.09-4.94.29-7.32,1.05-1.04-.63-1.95-1.44-1.97-2.71-.09-6.83-.12-13.66-.13-20.48,0-1.21.92-1.66,1.94-1.93Z"/>
    <path class="cls-12" d="M140.36,352.07c3.1,1.68,2.65,3.85.71,6.06-.86.97-1.92,1.9-3.07,2.47-14.67,7.15-29.84,12.65-46.35,13.52-.99.05-2.01.11-2.97-.07-1.58-.3-2.04-1.55-2.04-2.98,0-1.44.51-2.98,2.11-2.79,3.18.38,5.64-1.75,8.58-2.04.26,1.65.86,2.84,2.9,2.45,13.66-2.61,26.84-6.54,38.62-14.26.91-.6,1.48-1.27,1.51-2.36Z"/>
    <path class="cls-4" d="M140.36,352.07c-.03,1.09-.6,1.76-1.51,2.36-11.78,7.73-24.95,11.65-38.62,14.26-2.03.39-2.64-.8-2.9-2.45,4.25-1.28,8.45-2.81,12.76-3.81,8.61-1.99,16.44-5.89,24.45-9.39,1.78-.78,3.51-2.92,5.81-.97Z"/>
    <path class="cls-12" d="M72.37,126.22c4.07-2.73,6.82-2.04,8.1,2.46,3.53,12.37,4.67,25.02,3.37,37.81-.62,6.06-1.46,12.12-3.21,18.03-.88,2.94-2.3,4.25-5.34,3.53.05-2.15-.34-4.42.21-6.43,4.39-16.15,3.12-32.37.66-48.57-.37-2.47-.16-5.89-3.79-6.81Z"/>
    <path class="cls-11" d="M150.46,215.07c-2.78.5-5.27,2.16-8.21,1.99.01-4.64.01-9.28.04-13.92.02-4.05-.48-8.2,1.99-11.84,2.49-1.2,2.07-3.49,2.09-5.61.1-8.26.19-16.52.28-24.78,3.27.36,3.68,2.48,3.68,5.31-.04,16.29.07,32.58.12,48.87Z"/>
    <path class="cls-13" d="M72.37,126.22c3.63.93,3.42,4.34,3.79,6.81,2.45,16.2,3.72,32.42-.66,48.57-.55,2.01-.16,4.28-.21,6.43-3.88.54-3.5-2.29-3.68-4.67,2.94-2.81,2.42-6.61,2.87-10.12.82-1.7.78-3.53.84-5.35.43-11.92.38-23.81-2.11-35.55.16-1.25-.39-2.02-1.58-2.36-.15-1.33-.45-2.69.73-3.76Z"/>
    <path class="cls-11" d="M73.22,132.34c2.49,11.75,2.54,23.63,2.11,35.55-.07,1.82-.03,3.65-.84,5.35-2.33-.98-1.96-3.04-2.15-4.99-.36-3.67,1.05-7.47-.87-11.01-.01-3.03-.02-6.06-.04-9.1,1.7-1.84.65-4.1.93-6.16.44-3.2-.91-6.57.87-9.65Z"/>
    <path class="cls-4" d="M71.46,157.25c1.93,3.53.51,7.34.87,11.01.19,1.95-.18,4.01,2.15,4.99-.45,3.52.06,7.31-2.87,10.13-.05-8.71-.1-17.42-.15-26.12Z"/>
    <path class="cls-4" d="M73.22,132.34c-1.78,3.08-.43,6.45-.87,9.65-.28,2.06.77,4.32-.93,6.16.07-6.06.14-12.11.22-18.17,1.19.34,1.74,1.12,1.58,2.36Z"/>
    <path class="cls-16" d="M320.29,166.16c1.09,2.45,2.17,3.85,3.88.33,1.65-3.4,3.09-7.02,6.53-9.15,1.74-1.08,3.65-1.52,5.71-1.12.18.62.16,1.44.56,1.83,7.88,7.65,4.84,17.16-3.88,21.79-.93.49-1.65,1.05-1.69,2.19-4.3-.53-6.56,1.33-6.92,5.68-.12,1.43-.66,2.83-1.01,4.25-1.91,4.16-4,8.22-7.1,11.64-1.26,1.39-.96,3.09-1.32,4.67-2.78-1.91-4.43.55-5.87,1.95-3.17,3.07-5.95,6.56-8.88,9.88-.33.28-.66.56-.98.84-1.22.42-2.44.83-3.66,1.25-.43.33-.87.66-1.3.99h0c-5.21.99-10.19,3.54-15.75,2.06-1.52-.4-3.02.05-3.46,1.96-1.26-2.34-2.52-4.68-3.78-7.02.8-1.12,2.03-.85,3.16-1.02,9.91-1.51,19.51-3.86,26.81-11.41,10.21-10.56,15.05-23.45,16.01-37.94.13-1.94-.84-4.71,2.96-3.66ZM329.08,173.29q2.28-4.31,8.3-7.62c.33-.18.68-.75.65-1.11-.07-1-.89-1.17-1.74-1.34-4.54-.9-8.23,3.76-7.22,10.07Z"/>
    <path class="cls-9" d="M323.46,191.96c.35-1.41.89-2.81,1.01-4.25.36-4.35,2.62-6.21,6.92-5.68,1.31.87,1.16,2.02.2,2.86-2.7,2.37-3.77,6.62-8.13,7.06Z"/>
    <path class="cls-14" d="M82.89,322.13c2.89-6.31.73-12.07-1.89-17.8,5.86.16,11.37-1.16,16.79-3.42,3.09-1.29,4.68-4.84,8.32-5.06,3.2-3.5,4.82,1.76,7.46,1.35l.1.26s-.22.17-.22.17c.01,4.34.02,8.69.03,13.03.05.5.09,1,.14,1.5-.61.18-1.47.17-1.8.58-7.55,9.16-16.68,13.5-28.61,9.64l-.32-.27Z"/>
    <path class="cls-2" d="M136.49,282.4c-.71-.03-1.42-.07-2.13-.1-2.27-2.31-1.82-5.64-3.09-8.32,0-1.27.01-2.54.02-3.81,1.6-2.23,1.1-5.58,3.86-7.19,2.39-.63,4.79-1.26,7.18-1.89,2.04.05,4.09.09,6.13.14.22,2.25,1.54,3.56,3.69,3.75,2.4.21,4.82.09,7.23.12.08,2.1,1.51,3.18,3.11,4.12-.14,2.3-.28,4.59-.42,6.89-1.43,1.05-3.25,1.5-4.72.95-2.79-1.05-4.22.6-5.86,2.14-5.8-2.68-10.59-.64-14.99,3.21ZM157.55,267.33c-3.32.05-5.55-.83-7.35.63-.74.6.28,1.54.92,1.93,2.52,1.54,3.77-.56,6.43-2.56Z"/>
    <path class="cls-3" d="M157.55,228.23c2.4-.31,4.78-.68,6.87-2.04,2.6.21,4.92-.62,7.13-1.89,6.87.21,13.89-1.47,20.37,2.64,6.32,4,9.84,11.56,6.9,17.09-2.42-10.32-9.65-12.66-18.67-11.92-2.96.25-6.1.26-8.79,1.31-3.53,1.37-8.56,2.33-6.09,8.39.19.47-.25,1.21-.5,2.24-2.34-1.49-4.64-2.25-7.16-2.02l-.33.13c-.02-.62-.04-1.25-.06-1.87-.03-3.81-.06-7.62-.09-11.44.09-.25.23-.46.42-.65Z"/>
    <path class="cls-3" d="M132.51,230.01c-.05,1.49,0,3-.17,4.48-.16,1.54.8,3.53-1.25,4.42-1.84.8-3.06-.77-4.45-1.6-5.04-3.03-9.21-6.99-12.64-11.76-2.75-3.82-6.72-5.23-11.22-5.38-3.25-.11-6.5-.02-10.32-.02,4.21-4.52,12.24-6.06,17.18-3.86,5.5,2.46,10.23,6.14,14.9,9.8,2.19,1.72,4.3,2.26,6.85,2.04.37.63.74,1.26,1.1,1.88Z"/>
    <path class="cls-11" d="M148.46,261.23c-2.04-.05-4.09-.09-6.13-.14,0-5.96,0-11.92.01-17.88,2.58-.75,5.22-1.16,7.92-1.11-.03,6.33-.06,12.66-.08,19-.57.05-1.14.09-1.71.14Z"/>
    <path class="cls-12" d="M150.17,261.09c.03-6.33.06-12.66.08-18.99,1.32-.03,2.63-.05,3.95-.08,1.02.06,2.05.12,3.07.17,0,0,.33-.13.33-.13-.1,6.37-.21,12.74-.31,19.11-2.41,3.12-4.77,2.31-7.13-.07Z"/>
    <path class="cls-5" d="M106.11,295.86c-3.64.22-5.23,3.77-8.32,5.06-5.42,2.26-10.92,3.58-16.79,3.42-3.61-1.91-7.48-1.31-11.29-1.18.21-.52.42-1.05.63-1.57,3.53-1.87,7.33-1.01,11.04-1.21,3.15-.17,6.55,1.19,9.39-1.28,6.23-.17,11.97-4.7,14.02-11.07.64.59,1.28,1.18,1.92,1.77-.2,2.02-.4,4.04-.6,6.05Z"/>
    <path class="cls-4" d="M142.34,243.21c0,5.96,0,11.92-.01,17.88-2.39.63-4.78,1.26-7.18,1.89.05-4.8.16-9.59.15-14.39-.02-7.4,0-7.45,7.04-5.38Z"/>
    <path class="cls-11" d="M87.43,329.59c-1.75-2.42-5.35-1.13-7.1-3.56.3-1.29,1.55-2.3,1.11-3.81,0,0,0,0,0,0,.49-.04.97-.07,1.45-.11,0,0,.32.27.32.27,1.71,3.21,4.77,3.7,7.94,3.78,5.39.13,10.2-2.06,15.06-3.98,2.29,2.17,3.46-.07,4.9-1.25,1.54-1.26,3.13-3.17,4.37.28-3.21,4.99-9.02,3.96-13.61,5.59-4.57,1.62-9.62,1.9-14.45,2.77Z"/>
    <path class="cls-16" d="M106.22,322.2c-4.86,1.92-9.67,4.11-15.06,3.98-3.17-.08-6.23-.57-7.94-3.78,11.92,3.86,21.06-.48,28.61-9.64.34-.41,1.19-.4,1.8-.58-.77,4.6-4.43,7.06-7.41,10.03Z"/>
    <path class="cls-3" d="M114.37,241.83c1.51,5.31,3.86,6.52,8.44,4.3,2.17-1.05,5.42-.02,8.16.29,1.19.13,1.38,1.3,1.12,2.35-.27,1.09-1.09,1.08-1.94.76-3.22-1.21-6.2.27-9.2.94-2.13.48-4.3,1.46-5.97-.54-1.75-2.09-2.22-4.57-.61-8.11Z"/>
    <path class="cls-12" d="M157.55,228.23c-.19.18-.33.4-.42.65-2.6.11-4.94,2.16-7.71,1.03.04-2.17.08-4.34.13-6.51,7.5-3.42,7.57-3.38,8,4.83Z"/>
    <path class="cls-11" d="M171.55,224.31c-2.21,1.27-4.53,2.1-7.13,1.89.66-2.68,1.34-5.35.76-8.14,1.83-1.44,3.82-2.52,6.15-2.86.07,3.04.15,6.08.22,9.12Z"/>
    <path class="cls-4" d="M142.29,230.99c-2.43.58-4.61-.67-6.93-.92,0-2.59.01-5.17.02-7.76,2.31.71,4.96.12,7.03,1.79-.04,2.29-.07,4.59-.11,6.88Z"/>
    <path class="cls-13" d="M102.88,249.66c-.52.22-1.03.43-1.55.65-.37-.06-.75-.13-1.12-.19.03-2.37-1.79-1.87-3.1-1.87-2.08,0-2.94-.95-2.8-2.96,3.56.15,6.64-2.87,10.37-1.54.27,2.24.49,4.46-1.8,5.91Z"/>
    <path class="cls-11" d="M142.29,230.99c.04-2.29.07-4.59.11-6.88,2.38-.24,4.76-.47,7.14-.71-.04,2.17-.08,4.34-.13,6.51-2.11,2.11-4.73.83-7.13,1.08Z"/>
    <path class="cls-11" d="M135.38,222.32c0,2.59-.01,5.17-.02,7.76-.95-.02-1.9-.04-2.85-.06-.37-.63-.73-1.26-1.1-1.89.04-1.28.14-2.57.09-3.85-.14-3.54,1.6-3.25,3.88-1.96Z"/>
    <path class="cls-1" d="M106.72,289.8c-.64-.59-1.28-1.18-1.92-1.77-.69-2.85.34-3.63,3.13-2.88,2.85.77,4.72,1.81,2.7,5.06-1.3-.14-2.6-.28-3.91-.42Z"/>
    <path class="cls-16" d="M106.72,289.8c1.3.14,2.6.28,3.91.42.08,2.71,3.1,4.18,2.95,6.99-2.64.41-4.25-4.85-7.46-1.35.2-2.02.4-4.04.6-6.06Z"/>
    <path class="cls-16" d="M113.49,310.67c-.01-4.34-.02-8.69-.03-13.03,3.46,4.33,2.93,8.68.03,13.03Z"/>
    <path class="cls-4" d="M157.28,242.19c-1.02-.06-2.05-.11-3.07-.17.65-1.2,1.71-1.67,3.01-1.7.02.62.04,1.25.06,1.87Z"/>
    <path class="cls-9" d="M94.32,245.29c-.15,2.01.72,2.95,2.8,2.96,1.31,0,3.14-.5,3.1,1.87-8.66-.72-16.94,3.07-25.65,2.05-2.76-.32-5.6.06-8.2-1.25.32-1.71,1.57-1.91,2.98-1.82,4.07.28,8.14-.27,12.25.51,3.39.64,6.04-1.38,7.84-4.31,1.63-.18,3.25-.62,4.88,0Z"/>
    <path class="cls-2" d="M163.3,329.27c-.72-1.32,1.87-3.91-2.83-3.84-4.22.06-4.53-6.25-6.73-9.63-.98-1.51-.99-3.25,1.41-3.8,4.91-.57,7.89.5,9.46,6.26,2.44,8.94,13.54,12.16,21.42,7.07,2.2-1.1,3.13-3.23,4.25-5.21l.05-.04c1.19-.56,1.1-1.27.23-2.06-.04-.79-.07-1.58-.11-2.37-.27-.75-.48-2.12-.81-2.15-5.52-.48-9.98-4.52-15.6-4.55-1.66-2.47-3.92-3.22-6.75-2.35.05-1.01-.07-1.93-1.18-2.35.35-2.07-1-2.26-2.51-2.3.08-.33.06-.65-.04-.97,0-.5-.02-1-.02-1.5,2.2-1.72,5.46-1.75,7.07-4.42,4.25.38,8.49.75,12.74,1.13.89,3.08,3.59,3.95,6.11,5.02-.82,2.11-1.52,4,1.72,4.85,4.16,1.1,13.41-1.44,16.03-4.68,1.62-2.01,1.64-3.57-1.26-4.26,1.56-1.53,3.69-.77,5.48-1.36.88,2.36.1,5.74,3.89,6.3.38,1.61.75,3.21,1.13,4.82-3.06,1.24-4.12,2.55-1.49,5.73,3.32,4.02,2.39,6.15-2.17,8.33-2.38,1.13-4.86.65-7.19,1.19-3.44.79-8.43-.79-9.13,5.06.02.71.03,1.42.05,2.12-1.02,2.17.51,3.99.81,5.98-.02.23-.02.45-.01.68-5.82-1.44-11.74-.25-17.61-.58-3.84-.21-7.19-.62-9.66-3.72-1.13-1.42-2.34-1.63-3.89-1.05-.38-1.63-1.58-1.54-2.83-1.36ZM191.83,316.06c2.32,1.61,3.94,2.54,6.02,1.68,1.03-.43,2.55-.87,2.04-2.27-.7-1.93-1.97-.27-2.72.11-1.48.74-3.01.43-5.34.48Z"/>
    <path class="cls-16" d="M166.09,304.25c1.11.42,1.23,1.34,1.18,2.34-3.32,8.68-2.29,11.88,4.61,16.85,4.51,3.25,9.33,2.07,14.14,1.88-7.87,5.09-18.98,1.87-21.42-7.07-1.57-5.75-4.55-6.83-9.46-6.26-.65-.61-1.29-1.22-1.94-1.83,5.49.62,9.18-2.65,12.88-5.92Z"/>
    <path class="cls-11" d="M136.33,286.01c.04-.91.09-1.82.13-2.73,1.25.66,2.47,1.38,3.98,1.14,2.52.59,5.19.84,7.53,1.84,3.6,1.54,3.88-.14,3.5-2.95.64-.31,1.28-.62,1.92-.93.03,2.18-.69,4.61,1.98,5.9-.01,1.3-.03,2.61-.04,3.91-.28.54-.56,1.08-.84,1.62-.34-.02-.69-.03-1.03-.05-1.11-2.71-3.5-2.61-5.81-2.62-2.66-.01-5.23-.23-7.34-2.12-.22-2.46-2.38-2.36-3.97-3.03Z"/>
    <path class="cls-15" d="M163.54,300.98c.11.32.12.64.04.97-.36,1.39-.59,2.88-2.49,2.99-.05-.92-.48-1.7-1.45-1.58-3.7.45-6.99-1.11-10.43-1.97-.12-.62-.25-1.23-.37-1.85,1.13-4.95,1.85-5.26,5.69-1.67,2.63,2.46,5.7,2.98,9.01,3.12Z"/>
    <path class="cls-7" d="M161.09,304.94c1.9-.1,2.13-1.59,2.49-2.99,1.51.04,2.87.23,2.51,2.3-3.7,3.28-7.39,6.54-12.88,5.92-3.04-.51-2.97-3.08-3.5-5.25,3.79,1.81,7.58,1.38,11.37.01Z"/>
    <path class="cls-16" d="M163.54,300.98c-3.31-.14-6.38-.66-9.01-3.12-3.84-3.59-4.56-3.28-5.69,1.67-2.13-1.56-1.31-4.51-2.98-6.28,2.53.17,5.06.34,7.58.51.34.02.69.03,1.03.05,2.39,2.89,5.8,4.13,9.04,5.67,0,.5.02,1,.02,1.5Z"/>
    <path class="cls-8" d="M197.28,335.97c0-.23,0-.45.01-.68,6.8.11,13.55,1.6,20.44.55-5.15,3.62-10.96,1.84-16.47,2.27-1.07-.59-2.12-1.22-3.42-1.06-.19-.36-.37-.72-.56-1.08Z"/>
    <path class="cls-5" d="M161.09,304.94c-3.79,1.36-7.58,1.8-11.37-.01-.17-1.18-.33-2.36-.5-3.54,3.44.86,6.73,2.42,10.43,1.97.97-.12,1.39.66,1.45,1.58Z"/>
    <path class="cls-10" d="M153.45,293.77c-2.53-.17-5.05-.34-7.58-.51-3.55.22-6.51-1.07-9.28-3.22,1.16-1.69,2.55-.8,3.71-1,2.11,1.88,4.68,2.1,7.34,2.11,2.31,0,4.7-.09,5.81,2.62Z"/>
    <path class="cls-10" d="M139.99,305.9c3.89,2.05,2.79,6.55,4.77,9.56-3.62-2.52-5.93-5.83-6.41-10.26.55.23,1.09.47,1.64.7Z"/>
    <path class="cls-8" d="M139.99,305.9c-.55-.23-1.09-.47-1.64-.7-.63-.53-1.36-.98-1.87-1.61-1.24-1.54-2.07-3.73-.14-4.73,2.25-1.18,2.14,1.77,3.01,2.91.91,1.19,1.55,2.59.65,4.14Z"/>
    <path class="cls-4" d="M163.3,329.27c1.25-.19,2.45-.28,2.83,1.36-1.07.65-2.25.7-3.23.06-.66-.43-.34-1.1.4-1.41Z"/>
    <path class="cls-10" d="M153.7,325.02c-.55.73-1.24,1.17-2.18,1.13.05-.88-.55-2.06.59-2.5.98-.37,1.2.73,1.6,1.37Z"/>
    <path class="cls-10" d="M147.98,318.88c-.11.28-.23.56-.34.84-.28-.13-.69-.2-.79-.41-.09-.19.18-.54.29-.82.28.13.55.26.83.39Z"/>
    <path class="cls-9" d="M70.34,301.59c-.21.52-.42,1.04-.63,1.57-.86.93-1.71,1.27-2.55-.02.08-.65.06-1.34.27-1.94.63-1.75.84-4.85,3-4.25,2.28.63-.65,3-.1,4.64Z"/>
    <path class="cls-15" d="M61.83,307.56c3.62-1.26,7.45-.44,11.2-1.19,5.36-1.08,7.45,1.52,8.21,8.91.23,2.3.15,4.64.2,6.96,0,0,0,0,0,0-3.83,1.05-6.64,3.96-10.99,4.59-10.14,1.47-14.99-2.72-13.59-13.2,3.16-.79,4.57-3.01,4.96-6.06Z"/>
    <path class="cls-5" d="M61.83,307.56c-.39,3.06-1.81,5.27-4.96,6.06-.96-5.65-.36-6.38,4.96-6.06Z"/>
    <path class="cls-14" d="M100.46,253.25c-1.21,2.72-1.12,6.06-3.85,8.06-.71.06-1.06.44-1.06,1.14-.02.26-.12.48-.3.66-.31.28-.62.56-.94.85-.24.17-.5.28-.79.32-7.59.4-15.01,2.67-22.73,1.88-3.67-.37-7.25-.8-10.46-2.75-2.73-1.66-3.83-4.62-3.37-7.29.55-3.16,3.83-1.71,5.94-1.86,9.4-.64,18.92,1.23,28.24-1.86,2.93-.97,6.26-.18,9.31.84Z"/>
    <path class="cls-9" d="M55.66,250.15c-.26-2.49,1.55-2.26,2.85-1.81,2.25.79,4.87.65,6.7,2.52-3.41,2.78-6.39-.23-9.55-.72Z"/>
    <path class="cls-5" d="M201.27,338.11c5.51-.43,11.32,1.35,16.47-2.27-6.89,1.05-13.64-.44-20.44-.55-.3-1.99-1.83-3.81-.81-5.98,6.48.25,13.1,2.5,19.35-1.26-6.5-.1-13.01.95-19.4-.86.7-5.85,5.7-4.27,9.13-5.06,2.34-.54,4.82-.05,7.19-1.19,4.56-2.17,5.49-4.3,2.17-8.33-2.62-3.18-1.57-4.49,1.49-5.73,2.6.65,3.02-.87,2.91-2.92,2.32.07,4.64.14,6.96.21-1.59,2.03-2.61,3.74,1.12,4.7,2.52.65,4.78,2.26,7.52,2.25.48.18.97.36,1.45.54,2.64,5.3,4.16,10.76,4.16,16.83,0,4.57-1.72,7.34-5.27,9.8-2.67,1.86-6.17,2.63-7.93,5.74-4.36.09-8.69,2.7-13.07.14,2.26-.27,4.39-.85,6.45-2.79-5.13-.86-9.65,1.37-14.3.82-1.71-1.39-4-2.03-5.16-4.11Z"/>
    <path class="cls-16" d="M227.36,344.04c1.76-3.11,5.26-3.88,7.93-5.74,3.54-2.47,5.27-5.23,5.27-9.8,0-6.08-1.53-11.53-4.16-16.83.63-.15,1.27-.31,1.9-.46,1.3.41,2.61.82,3.91,1.23.62,3.3,3.35,5.85,3.29,9.39.22.48.45.95.67,1.43.15.84.29,1.67.44,2.5-.34,4.78-2.22,9.04-4.51,13.16-5.1,1.18-9.29,4.96-14.75,5.13Z"/>
    <path class="cls-8" d="M206.43,342.22c4.65.54,9.17-1.68,14.3-.82-2.06,1.94-4.19,2.52-6.45,2.79-2.59-.77-6.06,2-7.85-1.96Z"/>
    <path class="cls-5" d="M95.55,262.45c0-.71.36-1.09,1.06-1.14-.35.38-.71.76-1.06,1.14Z"/>
    <path class="cls-5" d="M94.32,263.96c.31-.28.62-.56.94-.85,0,.63-.33.89-.94.85Z"/>
    <path class="cls-6" d="M131.27,273.98c1.28,2.68.82,6.01,3.09,8.32-3.23.64-5.8-.69-6.77-3.58-.89-2.66,1.24-4.07,3.68-4.74Z"/>
    <path class="cls-9" d="M140.44,284.41c-1.5.24-2.73-.48-3.98-1.14,0-.29.02-.58.03-.87,4.4-3.85,9.19-5.89,14.99-3.21-.12.71-.23,1.42-.35,2.13-6.87-2.27-8.3-1.86-10.7,3.09Z"/>
    <path class="cls-4" d="M242.2,312.43c-1.3-.41-2.61-.82-3.91-1.23,4.19-6.11,6.6-12.98,7.99-20.15,1.11-5.71.42-6.13-4.93-4.42l.99-3.99c4.96-.75,5.66-4.05,4.92-8.21.28-.76.82-1.21,1.62-1.35,3.23,1.41,2.9,4.3,2.43,6.85-1.38,7.47-1.65,15.21-5.27,22.15-.79,1.51-1.11,2.92,1.31,3.15,0,.62,0,1.24-.01,1.86-2.31,1.2-4.92,2.12-5.13,5.33Z"/>
    <path class="cls-10" d="M246.17,323.25c-.22-.48-.45-.95-.67-1.43.23.47.45.95.67,1.43Z"/>
    <path class="cls-6" d="M301.4,350.21c.16,3.18-1.9,4.67-4.54,4.69-2.47.02-3.68-1.98-3.56-4.46.12-2.73,1.66-4.22,4.4-4.32,2.79-.11,3.78,1.54,3.71,4.08Z"/>
    <path class="cls-5" d="M320.29,166.16c-3.8-1.05-2.83,1.72-2.96,3.66-.97,14.49-5.8,27.38-16.01,37.94-7.3,7.55-16.9,9.9-26.81,11.41-1.13.17-2.35-.11-3.16,1.02-3.31-.34-6.63-.68-9.95-1.02-.46-1.78-.86-4.14-2.68-4.49-7.65-1.46-12.04-7.24-16.72-12.42-4.31-4.77-7.55-10.25-9-16.83-.88-3.98.59-8.29-1.23-11.75-2.57-4.88-2.58-9.84-2.43-14.98.27-3.81.54-7.61.82-11.41.25-3.4,1-6.36,4.13-8.58,5.58-3.96,9.95-9.09,12.94-15.32,2.04-.03,4.08-.06,6.11-.08,6.17,10.44,15.71,15.62,27.61,17.89.18-2.56-1.98-4.18-1.57-6.38,1.39-1.1,2.17.22,3.01.77,7.02,4.61,15.23,8.08,23.01,6.88,7.44-1.15,7.03,3.27,8.55,6.92,2.29,5.52,4.24,11.18,6.34,16.77ZM264.22,204.53c6.85,4.03,17.42.57,21.38-7.01,2.82-2.74,3.39-6.32,3.37-9.96-.02-2.78-1.47-3-3.42-1.28-.96-1.27-2.36-1.32-3.63-.93-8.96,2.76-18,2.3-27.08.86-2.54-.22-3.71.86-3.18,3.45.97,4.72,2.39,9.26,6.01,12.7,1.8,1.71,3.71,3.39,6.53,2.17ZM251.28,162.85c-.39-2.5-.9-5.72-4.88-5.73-3.84,0-5.72,2.67-5.71,6.22,0,3.38,1.4,6.53,5.34,6.59,4.05.07,5.16-2.96,5.24-7.08ZM264.23,159.93c-3.84,3.03-5.98,6.79-6.94,11.23-1.55,7.21,2.53,11.05,9.84,9.3,2.18-.52,4.84-.77,3.97-3.76-.8-2.76-3.22-1.29-5.07-.91-4.88.99-6.18-.29-4.94-5.13.92-3.61,2.09-7.16,3.14-10.73ZM285.31,165.21c.22,2.55.62,5.92,4.56,5.86,3.74-.06,5.5-2.85,5.26-6.47-.22-3.29-1.17-6.57-5.33-6.4-3.92.16-4.49,3.26-4.5,7.01ZM283.19,147.78c5.69.53,10.34,1.27,14.77,3.02.88.35,2.08.87,2.61-.3.52-1.16-.28-2.19-1.15-3.03-3.72-3.6-10.76-3.78-16.22.32ZM235.17,149.58c3.18-1.18,5.44-2.05,7.71-2.84,2.42-.85,4.87-.42,7.33-.09,1.03.14,2.01-.4,2.2-1.53.28-1.68-1.06-2.31-2.27-2.79-4.57-1.83-12.05,1.47-14.97,7.25Z"/>
    <path class="cls-10" d="M229.34,158.71c-.14,5.14-.13,10.09,2.43,14.98,1.81,3.45.35,7.77,1.23,11.75,1.45,6.57,4.69,12.05,9,16.83,4.68,5.18,9.07,10.96,16.72,12.42,1.82.35,2.23,2.71,2.68,4.49-1.65,1.68-2.01,3.87-2.37,6.06-.29.13-.51.34-.66.63-.23-.05-.47-.1-.7-.17,1.78-4.29-.44-7.3-3.97-8.54-5.96-2.1-9.72-6.52-13.6-10.94-5.89-6.71-9.63-14.36-10.8-23.38-.47-3.59.29-7.79-2.96-10.7-.59-3.66-3.14-6.22-5.09-9.11-.14-3.33.05-6.58,2.12-9.42.86-.13,1.71-.27,2.57-.4,1.78,1.44,1.14,4.38,3.4,5.52Z"/>
    <path class="cls-15" d="M262.81,253.94c3.46,2.19,5.42-.05,7.48-2.4,1.62-1.85,2.12-5.05,5.54-4.86-.41.89-.93,1.75-1.22,2.69-3.24,10.55-8.52,14.59-19.26,14.66.49-3.54.97-7.09,1.46-10.63,2.42-.44,1.66-4.26,4.5-4.25.56,1.58-.96,3.81,1.5,4.8Z"/>
    <path class="cls-15" d="M285.43,229.41c-.59,3.97-2.79,6.85-5.89,9.31-2.6,2.06-4.68.74-6.69-.63-1.93-1.32-1.62-2.89-.05-4.55.82-.87.88-2.28-.37-3.01-1.49-.87-4.16-1.22-2.07-3.64,1.88-2.18,2.97,1.02,4.58,1.27,3.58-.28,7.06.29,10.49,1.26Z"/>
    <path class="cls-6" d="M255.35,264.02c10.74-.07,16.02-4.1,19.26-14.66.29-.93.81-1.79,1.22-2.69,1.57-.67,2.97-.2,4.31.63.25,1.98.5,3.96.75,5.94-1.78-.28-3.25-.03-4.03,1.92-2.98,7.47-9.42,10.2-16.54,11.97-1.04-1.72-3.25,1.38-4.13-1.01-.8-.5-.94-1.25-.84-2.11Z"/>
    <path class="cls-11" d="M261.31,249.13c-2.84,0-2.08,3.81-4.5,4.25-.85-5.31.49-9.84,5.15-12.83,2.57-1.65,2.48-2.93.47-4.94-2.66-2.65-4.06-5.94-4.05-9.76.15-.28.37-.49.66-.63,1.52,5.26,5.92,8.26,9.4,11.98-.85,4.32-6.01,5.69-6.88,10-.08.65-.16,1.3-.24,1.94,0,0,0-.02,0-.02Z"/>
    <path class="cls-16" d="M261.56,247.21c.87-4.31,6.03-5.67,6.88-10,4.48,3.18,4.18,3.18.36,6.34-3.08,2.55-5.89,5.84-5.98,10.38-2.46-.99-.94-3.22-1.5-4.81,0,0,0,.02,0,.02,1.03-.53,1.09-1.18.24-1.94Z"/>
    <path class="cls-5" d="M285.43,229.41c-3.43-.97-6.91-1.53-10.49-1.26.17-.29.25-.61.21-.95.44-1.91,1.93-2.36,3.46-1.96,5.56,1.47,10.54-1.07,15.75-2.06-1.03,1.31-2.07,2.62-3.1,3.94l.09-.02c-.91-.1-1.67.11-2.06,1.04l.03-.07c-1.29.45-2.59.89-3.88,1.34Z"/>
    <path class="cls-15" d="M291.25,227.13c3.39.29,3.39,2.69,2.91,5.06-.29,1.43-1.35,1.97-3.05,1.42-3.34-1.08-2.38-3.32-1.81-5.54,0,0-.03.07-.03.07.87,0,1.64-.18,2.06-1.04l-.09.02Z"/>
    <path class="cls-15" d="M316.97,221.51c-.81,1.55-1.91,2.75-3.83,2.65-1.47-.08-2.74-.76-2.46-2.43.31-1.87,1.62-2.81,3.61-2.57,1.42.17,2.59.61,2.67,2.34Z"/>
    <path class="cls-15" d="M299.31,220.94c.33-.28.66-.56.98-.84,1.62.05,3.5-.16,3.7,2.12.11,1.25-1,2.33-2.03,2.42-2.58.2-2.26-2.08-2.65-3.69Z"/>
    <path class="cls-15" d="M307.89,219.17c-1.43-.02-2.45-.31-2.22-1.28.36-1.53,1.5-2.61,3.19-2.6.92,0,1.48.71,1.33,1.69-.24,1.6-1.44,2.05-2.3,2.19Z"/>
    <path class="cls-15" d="M298.84,236.33c-.55,1.17-1.63,1.59-2.76,1.72-1.21.14-1.88-.58-1.66-1.77.23-1.24.97-2.18,2.4-1.76.87.26,1.95.53,2.02,1.81Z"/>
    <path class="cls-5" d="M294.35,223.19c.43-.33.86-.66,1.3-.99-.43.33-.86.66-1.3.99Z"/>
    <path class="cls-3" d="M258.38,225.85c-.02,3.82,1.39,7.12,4.05,9.76,2.02,2.01,2.1,3.29-.47,4.94-4.66,2.99-6,7.52-5.15,12.83-.49,3.55-.97,7.09-1.46,10.63-.1.85.04,1.61.84,2.11-.28,10.94-.59,21.87-.8,32.81-.04,2.31-1.51,3.1-3.22,3.89-1.63.75-3.22,1.61-4.82,2.42-2.41-.23-2.09-1.65-1.31-3.15,3.62-6.94,3.9-14.69,5.27-22.15.47-2.55.8-5.43-2.43-6.85-.28-.52-.55-1.04-.83-1.56.55-4.53.45-9.04.02-14.73-3.05,4.39-3.85,8.13-3.76,12.13-1.07-.19-2.14-.38-3.21-.57-1.74-7.4-3.3-8.26-10.54-5.38-2.49.99-4.83.15-7.24.13-.97-1.22-2.21-.95-3.46-.63-.22.09-.4.04-.54-.15,2.88-2.71,5.61-5.56,8.34-8.43,9.46-9.96,18.31-20.62,30.01-28.21.23.06.46.12.7.17Z"/>
    <path class="cls-3" d="M260.32,267.13c7.12-1.77,13.56-4.5,16.54-11.97.78-1.95,2.25-2.2,4.03-1.92.15.64.3,1.27.45,1.91-1.6,1.85-.15,3.56.67,4.84,2.68,4.18,6.01,7.78,11.01,9.3,1.79,1.41,1.69,2.92.55,4.77-3.22,5.22-6.32,10.52-9.46,15.79-.68,1.15-1.41,2.1-2.8,2.64-6.66,2.58-13.31,5.18-20.24,6.99-1.34.35-2.85.97-2.84-1.23.06-10.42.02-20.85,2.1-31.13ZM271.3,284.12c.02-2.54-.88-4.07-3.42-4.05-2.14.01-3.45,1.08-3.46,3.3,0,2.05.29,4.25,2.8,4.5,2.58.25,3.77-1.55,4.09-3.74Z"/>
    <path class="cls-6" d="M293.01,269.3c-5-1.52-8.33-5.12-11.01-9.3-.82-1.28-2.27-2.99-.67-4.84,3.15,5.47,7.53,9.7,12.96,12.87-.43.42-.86.85-1.28,1.28Z"/>
    <path class="cls-6" d="M225.95,153.19c-.86.13-1.71.27-2.57.4-2.97-1.99,1.36-7.32-3.46-8.14-3.39-.58-6.94-.16-10.42-.19-.5,0-.99,0-1.49,0q-8.62.02-8.51,8.69c.06,4.63,2.26,7.47,6.41,6.77,3.89-.65,7.5.9,11.27.33,1.54-.23,3.03.06,3.42,2.01-17.46,0-34.92.55-52.38-.18.03-4.58.18-9.17.04-13.75-.09-2.87.74-4.34,3.87-4.03,2.03.2,4.09.06,4.16-2.81.35-.1.7-.2,1.05-.3,13.47.09,26.95.19,40.42.27,2.28.01,4.97.56,4.66-3.25-.26-3.18-.07-6.75-4.66-6.77-4.8-.02-9.59-.14-14.41.64-3.1.51-4.68,1.99-4.79,4.66-.14,3.39-1.97,3.88-4.58,3.46-4.93-.79-9.87-.94-14.83-.36.13-3.81,1.62-7.33,3.05-11.72-5.23,3.01-5.19,7.77-6.62,11.74-1.06.14-2.12.28-3.18.43-.04-6.49.13-12.98-.19-19.45-.19-3.75,1.61-5.14,4.83-5.37,2.65-.19,5.32-.18,7.98-.09,15.78.48,31.52-.92,47.29-1.06-.23,3.41-3.3,6.28-1.9,10-1.95,2.11-3.3,4.54-4.08,7.31-1.95,6.89-1.3,13.81-.37,20.75ZM184.77,122.37v-.11c-1.32,0-2.63.03-3.95,0-1.86-.06-3.26.37-3.32,2.62-.08,2.75,1.88,2.09,3.43,2.1,2.96.02,5.93-.02,8.89.06,1.36.04,2.27-.31,2.35-1.79.08-1.44-.24-2.73-1.96-2.84-1.8-.12-3.62-.03-5.43-.03Z"/>
    <path class="cls-9" d="M225.95,153.19c-.94-6.93-1.58-13.86.37-20.75.78-2.77,2.13-5.2,4.08-7.31,5.61-.58,11.22-1.16,16.83-1.73-2.98,6.23-7.36,11.36-12.93,15.32-3.13,2.22-3.88,5.18-4.13,8.58-.28,3.8-.55,7.61-.82,11.41-2.26-1.15-1.62-4.08-3.4-5.52Z"/>
    <path class="cls-6" d="M257.68,225.69c-11.69,7.6-20.55,18.25-30.01,28.21-2.73,2.87-5.46,5.72-8.34,8.43-3.17.34-3.57-2.55-4.87-4.28-1.88-2.51-4.65-4.79-7.01-2.46-3.48,3.44-6.91,4.47-11.44,3.46-.76-.17-1.77.74-2.66,1.15-5.49.3-11.03-.61-16.5.5-2.49.17-4.99.34-7.48.51-.68-1.18-1.61-.49-2.55-.48-3.19.03-6.29,1.98-9.54.44.1-6.37.21-12.74.31-19.11,2.52-.24,4.82.53,7.17,2.02.25-1.03.69-1.76.5-2.24-2.48-6.06,2.56-7.02,6.09-8.39,2.69-1.05,5.83-1.07,8.79-1.31,9.02-.75,16.25,1.6,18.67,11.92,2.94-5.53-.58-13.09-6.9-17.09-6.48-4.11-13.5-2.43-20.37-2.64-.07-3.04-.14-6.08-.22-9.12,6.02-1.98,12.23-.7,18.34-1.1,6.82-.45,13.45-1.27,18.99-6.1,8.39-7.3,7.19-21.12-2.49-26.23-5.18-2.73-12.47-.7-15.09,4.51-1.38,2.73-1.31,5.53,2.26,6.91.33.33.66.67,1,1,.13.07.25.14.38.21-.12-.08-.24-.15-.36-.23-.33-.33-.67-.66-1-1-.39-3-.17-5.73,3.39-6.69,2.69-.72,5.36-.83,7.1,1.85,2.13,3.28,2.63,6.95.45,10.25-2.48,3.76-6.15,5.75-10.9,5.68-7.27-.11-14.54.03-21.82.07-.08-9.3-.09-18.61-.26-27.91-.06-3.27,1.37-4.51,4.52-4.3,6.44.43,12.88.03,19.36.65,4.61.45,9.52-.77,14.32-.61,4.29.15,8.57.38,12.86.57,1.44.58,2.71,0,3.97-.62,3.25,2.92,2.49,7.11,2.96,10.7,1.17,9.02,4.92,16.67,10.8,23.38,3.88,4.42,7.64,8.84,13.6,10.94,3.53,1.24,5.75,4.25,3.97,8.54ZM194.26,222.3c4.51,1.98,8.76,1.72,12.7,2.88,5.34,1.58,7.51,5.7,5.42,10.12-.51,1.07-2.63,2.14-1.22,3.26,1.77,1.41,2.93-.75,3.96-1.86,1.76-1.91,2.47-4.02,1.63-6.82-2.71-8.93-11.09-12.05-22.48-7.59Z"/>
    <path class="cls-5" d="M220.59,163.05c-.38-1.95-1.88-2.24-3.42-2.01-3.77.57-7.38-.98-11.27-.33-4.15.69-6.35-2.14-6.41-6.77q-.12-8.67,8.51-8.69c.5,0,.99,0,1.49,0,3.48.03,7.04-.39,10.42.19,4.82.82.5,6.15,3.46,8.14-2.07,2.84-2.26,6.09-2.12,9.42-.22.04-.44.06-.67.05Z"/>
    <path class="cls-10" d="M179.15,140.65c4.96-.58,9.89-.43,14.83.36,2.61.42,4.44-.07,4.58-3.46.11-2.68,1.69-4.16,4.79-4.66,4.82-.79,9.61-.66,14.41-.64,4.59.02,4.4,3.59,4.66,6.77.32,3.81-2.38,3.26-4.66,3.25-13.47-.08-26.95-.18-40.42-.27.02-.31.04-.62.05-.93.58-.14,1.17-.28,1.75-.41ZM210.45,140.12v.08c1.83,0,3.66.06,5.49-.02,1.23-.05,2.97.45,3.17-1.47.18-1.72-1.14-3.01-2.61-3.19-4.27-.53-8.6-.72-12.87.12-1.08.21-2.27.86-2.08,2.37.18,1.37,1.18,2.02,2.42,2.08,2.16.1,4.32.03,6.48.03Z"/>
    <path class="cls-3" d="M176.29,142.29c-.08,2.87-2.13,3.01-4.16,2.81-3.13-.31-3.96,1.16-3.87,4.03.14,4.58-.01,9.17-.04,13.75-2.68.15-2.83-1.74-2.87-3.63-.08-3.8.08-7.61-.21-11.39-.33-4.34,1.39-6.14,5.72-5.67,1.8.2,3.63.08,5.45.1Z"/>
    <path class="cls-3" d="M179.15,140.65c-.58.14-1.17.28-1.75.41-.61-.13-1.21-.26-1.82-.39,1.43-3.97,1.39-8.74,6.62-11.74-1.43,4.39-2.91,7.91-3.05,11.72Z"/>
    <path class="cls-8" d="M329.08,173.29c-1.01-6.31,2.68-10.97,7.22-10.07.85.17,1.67.34,1.74,1.34.02.36-.32.93-.65,1.11q-6.02,3.31-8.3,7.62Z"/>
    <path class="cls-4" d="M157.29,261.16c3.25,1.55,6.35-.41,9.54-.44.94,0,1.88-.7,2.55.48-1.24,1.3-2.61,2.4-4.37,2.94-1.88.32-3.76.63-5.64.95-2.41-.02-4.84.09-7.23-.11-2.15-.19-3.47-1.5-3.69-3.75.57-.04,1.14-.09,1.71-.14,2.35,2.38,4.72,3.19,7.12.07Z"/>
    <path class="cls-9" d="M162.07,276.11c.14-2.3.28-4.59.42-6.89.24-.18.51-.24.81-.19.26,1.55-.34,3.3,1.05,4.59.74,2.69,2.54,3.74,5.24,3.41.64.72,1.29,1.45,1.93,2.17-1.46,1.23-.52,2.72-.44,4.11-4.72-2.09-9.41-4.36-14.83-3.14,1.47-1.61,3.41-.93,5.16-1.02,4.17-.21,1.98-1.7.66-3.05Z"/>
    <path class="cls-1" d="M162.07,276.11c1.32,1.35,3.51,2.84-.66,3.05-1.75.09-3.7-.58-5.16,1.02-.95.73-1.91,1.47-2.86,2.2-.64.31-1.28.62-1.92.93-.11-.66-.21-1.32-.32-1.98.11-.71.23-1.42.35-2.13,1.64-1.54,3.08-3.19,5.86-2.14,1.47.55,3.29.1,4.72-.95Z"/>
    <path class="cls-5" d="M157.55,267.33c-2.66,2-3.91,4.1-6.43,2.56-.64-.39-1.66-1.32-.92-1.93,1.8-1.46,4.03-.58,7.35-.63Z"/>
    <path class="cls-6" d="M163.3,269.03c-.3-.06-.57,0-.81.19-1.61-.94-3.03-2.03-3.11-4.12,1.88-.32,3.76-.63,5.64-.95.06.65.12,1.31.17,1.96,0,0,.12-.01.12-.01-1.55.43-2.05,1.56-2.03,3.04l.02-.11Z"/>
    <path class="cls-10" d="M242.34,282.65c-.33,1.33-.66,2.66-.99,3.98-1.19.83-2.56,1.43-.92,3.27.94,1.05,2.42,2.38,1.05,4.19-1.3-.78-2.6-1.56-3.9-2.35-1.87-1.13-3.56-.48-5.21.55-5.61.19-11.07,1.16-16.29,3.28-.86-.13-1.72-.27-2.58-.4-.8-.14-1.52-.04-2.09.6-1.79.59-3.92-.17-5.48,1.36-.57-.02-1.15-.04-1.73-.06-1.78-1.49-3.62-2.57-5.84-.8-4.04-1.93-8.22-1.07-12.38-.62-.94-.08-1.97-.62-2.65.54-4.25-.38-8.49-.75-12.74-1.13-5.09-.96-10.18-1.91-15.27-2.87.01-1.3.03-2.61.04-3.91,2.6.01,5.24.44,7.76.42,4.15-.03,8.14,3.05,12.35.63,1.19-.39,2.37-.79,3.56-1.18.67,2.24,2.47,2.12,4.25,2.03,4.18-.49,8.68,1.58,12.52-1.58.88-.14,1.76-.29,2.63-.43.83,1.05,1.64,2.12,3.2,1.95,3.76-.17,7.71.71,11.01-2,.52.77,1.24.94,2.13.82,6.62-.94,13.29-1.66,19.49-4.42,2.66-.04,5.28-.22,7.26-2.36.29.14.56.31.82.5Z"/>
    <path class="cls-7" d="M186.02,325.33c-4.82.19-9.63,1.37-14.14-1.88-6.89-4.97-7.93-8.18-4.61-16.85,2.82-.86,5.08-.11,6.74,2.36-.59.74-1.16,1.48-1.74,2.21.11,2.02-.27,4.56,3.21,3.06,3,3.46,7.18,1.08,10.67,2.14-2.56,5.42-7.42,3.03-10.75,2.2-4.44-1.11-5.64-5.4-4.22-10.4-4.56,1.63-4.52,4.66-3.32,7.68,2.15,5.42,8.66,8.23,14.34,6.55,2.68-.79,5.38-1.51,8.07-2.27-1.12,1.98-2.05,4.11-4.25,5.21Z"/>
    <path class="cls-6" d="M204.2,297.07c.58.02,1.16.04,1.73.06,2.89.69,2.88,2.25,1.25,4.26-2.62,3.24-11.86,5.77-16.03,4.68-3.24-.85-2.54-2.75-1.72-4.85,5.32.03,10.01-2.18,14.76-4.15Z"/>
    <path class="cls-15" d="M190.27,320.12c-2.69.75-5.39,1.48-8.07,2.27-5.68,1.68-12.19-1.13-14.34-6.55-1.2-3.02-1.24-6.05,3.32-7.68-1.42,5-.23,9.29,4.22,10.4,3.32.83,8.19,3.22,10.75-2.2,1.43-.24,2.86-.48,4.28-.72.04.79.07,1.58.11,2.37-.08.69-.15,1.37-.22,2.06,0,0-.05.04-.05.04Z"/>
    <path class="cls-5" d="M190.43,315.65c-1.43.24-2.85.48-4.28.72-3.49-1.06-7.67,1.32-10.67-2.14-.29-1.84-1.09-3.14-3.2-3.06.58-.74,1.15-1.48,1.74-2.21,5.63.02,10.09,4.07,15.61,4.55.33.03.54,1.4.81,2.15Z"/>
    <path class="cls-6" d="M155.32,292.19c5.09.96,10.18,1.91,15.27,2.87-1.61,2.67-4.87,2.7-7.07,4.42-3.24-1.53-6.65-2.78-9.04-5.66.28-.54.56-1.08.84-1.62Z"/>
    <path class="cls-9" d="M204.2,297.07c-4.76,1.97-9.44,4.18-14.76,4.15-2.53-1.08-5.23-1.95-6.11-5.02.68-1.16,1.71-.62,2.65-.54,4.49,4.38,8.1,4.56,12.38.62,2.23-1.77,4.06-.69,5.84.8Z"/>
    <path class="cls-16" d="M196.44,327.19c6.39,1.82,12.9.76,19.4.86-6.25,3.76-12.87,1.51-19.35,1.26-.01-.71-.03-1.41-.05-2.12Z"/>
    <path class="cls-8" d="M211.41,295.76c.57-.64,1.3-.74,2.09-.6,1.07,1.56.53,4.05,2.83,4.89l.12.09c.06.47.13.95.19,1.42-.45.17-.9.33-1.35.5-3.79-.56-3.01-3.94-3.89-6.3Z"/>
    <path class="cls-9" d="M191.83,316.06c2.33-.05,3.87.26,5.34-.48.76-.38,2.03-2.03,2.72-.11.51,1.4-1.02,1.84-2.04,2.27-2.08.86-3.7-.07-6.02-1.68Z"/>
    <path class="cls-16" d="M215.3,302.06c.45-.17.9-.33,1.34-.5.9.8,1.79,1.6,2.69,2.4.11,2.05-.31,3.57-2.91,2.92-.37-1.61-.75-3.22-1.12-4.82Z"/>
    <path class="cls-7" d="M190.32,320.08c.07-.69.15-1.37.22-2.06.88.79.96,1.49-.22,2.06Z"/>
    <path class="cls-6" d="M175.47,289.33c-4.21,2.42-8.2-.66-12.35-.63-2.52.02-5.16-.4-7.76-.42-2.67-1.29-1.95-3.72-1.98-5.9.95-.73,1.91-1.47,2.86-2.2,5.42-1.22,10.11,1.05,14.83,3.14,0,0,.11-.11.11-.11-.3.12-.41.34-.31.65.84,2.41,3.35,3.41,4.6,5.47Z"/>
    <path class="cls-7" d="M151.14,281.32c.11.66.21,1.32.32,1.98.38,2.81.1,4.49-3.5,2.95-2.34-1-5.01-1.26-7.53-1.84,2.4-4.95,3.83-5.36,10.7-3.09Z"/>
    <path class="cls-6" d="M241.48,294.09c1.37-1.81-.11-3.14-1.05-4.19-1.64-1.84-.27-2.44.92-3.27,5.34-1.71,6.04-1.29,4.93,4.43-1.39,7.17-3.8,14.04-7.99,20.15-.63.15-1.27.31-1.9.46-.48-.18-.97-.36-1.45-.54.21-1.13.42-2.27.62-3.4,2.41-1.61,4.12-3.64,4.05-6.74.64-.53.65-1.14.2-1.79.56-1.7,1.11-3.41,1.67-5.11Z"/>
    <path class="cls-7" d="M219.34,303.97c-.9-.8-1.79-1.6-2.69-2.4-.06-.48-.12-.95-.19-1.43,10.86,2.11,11.74,1.67,15.92-7.85,1.65-1.02,3.33-1.68,5.21-.55-.64,4.11-2.6,7.49-5.58,10.33-1.9.7-3.8,1.4-5.7,2.1-2.32-.07-4.64-.14-6.96-.21Z"/>
    <path class="cls-8" d="M226.3,304.17c1.9-.7,3.8-1.4,5.71-2.1-.29,2.81,2.81,3.5,3.56,5.66-.21,1.13-.41,2.27-.62,3.4-2.74,0-5-1.6-7.52-2.25-3.73-.96-2.71-2.67-1.12-4.7Z"/>
    <path class="cls-6" d="M242.34,282.65c-.26-.19-.53-.36-.82-.5.17-2.47.83-4.97-1.93-6.75-1.44-.93-1.15-2.49.04-3.73,2.9-.05,5.26,1.39,7.64,2.77.74,4.17.04,7.46-4.92,8.21Z"/>
    <path class="cls-12" d="M247.26,274.43c-2.38-1.38-4.74-2.82-7.64-2.77-.28-1.45.07-2.62,1.49-3.3,1.07.19,2.14.38,3.21.57.73,1.61,2.33,1.97,3.73,2.6.28.52.55,1.04.83,1.56-.8.14-1.34.59-1.62,1.35Z"/>
    <path class="cls-9" d="M285.56,186.27c1.95-1.71,3.4-1.49,3.42,1.28.02,3.64-.55,7.22-3.37,9.96-8.32-2.18-16.61.54-21.38,7.02-2.82,1.22-4.74-.46-6.53-2.17-3.62-3.44-5.04-7.98-6.01-12.7-.53-2.59.63-3.67,3.18-3.45.8,1.54.23,3.51,2.05,4.81,6.47,4.61,23.83,1.83,28.65-4.75Z"/>
    <path class="cls-3" d="M285.56,186.27c-4.82,6.57-22.18,9.36-28.65,4.75-1.83-1.3-1.25-3.27-2.05-4.81,9.08,1.44,18.12,1.9,27.08-.86,1.26-.39,2.66-.34,3.63.93Z"/>
    <path class="cls-15" d="M264.22,204.53c4.77-6.47,13.07-9.19,21.38-7.02-3.97,7.58-14.54,11.05-21.38,7.02Z"/>
    <path class="cls-9" d="M251.28,162.85c-.09,4.12-1.2,7.14-5.24,7.08-3.94-.06-5.33-3.21-5.34-6.59,0-3.55,1.87-6.22,5.71-6.22,3.97,0,4.48,3.23,4.88,5.73Z"/>
    <path class="cls-16" d="M264.23,159.93c-1.06,3.57-2.22,7.12-3.14,10.73-1.24,4.84.06,6.12,4.94,5.13,1.85-.38,4.27-1.84,5.07.91.87,2.99-1.79,3.24-3.97,3.76-7.31,1.75-11.39-2.09-9.84-9.3.96-4.44,3.1-8.2,6.94-11.23Z"/>
    <path class="cls-9" d="M285.31,165.21c.01-3.75.58-6.85,4.5-7.01,4.16-.17,5.11,3.11,5.33,6.4.24,3.62-1.52,6.41-5.26,6.47-3.95.07-4.35-3.31-4.56-5.86Z"/>
    <path class="cls-9" d="M283.19,147.78c5.46-4.1,12.5-3.92,16.22-.32.87.84,1.66,1.87,1.15,3.03-.52,1.18-1.73.65-2.61.3-4.42-1.75-9.08-2.49-14.77-3.02Z"/>
    <path class="cls-9" d="M235.17,149.58c2.93-5.79,10.41-9.08,14.97-7.25,1.21.48,2.55,1.11,2.27,2.79-.19,1.13-1.17,1.67-2.2,1.53-2.46-.34-4.9-.76-7.33.09-2.28.8-4.53,1.67-7.71,2.84Z"/>
    <path class="cls-15" d="M261.56,247.21c.84.76.79,1.42-.24,1.94.08-.65.16-1.3.24-1.94Z"/>
    <path class="cls-7" d="M291.34,227.11c-.43.86-1.2,1.05-2.06,1.04.39-.93,1.15-1.14,2.06-1.04Z"/>
    <path class="cls-2" d="M241.11,268.36c-1.42.69-1.77,1.85-1.49,3.3-1.18,1.24-1.48,2.8-.03,3.73,2.76,1.79,2.1,4.28,1.93,6.75-1.98,2.14-4.6,2.32-7.25,2.36-.61-2.26-2.12-3.47-4.29-4.32-2.85-1.12-5.86-.69-8.72-1.37,2.02-2.68,2.68-5.38.08-8.12,1.84-1.95,1.9-3.71-.73-4.91-2.21-1.01-4.19-1.19-4.29,2.16-3.2-1.9-6.42,2.04-8.78.72-4.13-2.3-4.06,1.02-4.73,2.82-.78,2.09-.84,4.46-.38,6.74h0c-1.76-.3-2.11.6-1.77,2.09,0,0-.16.13-.16.12-.97-.45-1.86-.14-2.74.26-1.18-9.1-1.75-9.71-9.91-10.63-.64-.07-1.28-.23-1.92-.35.09-.38.18-.76.27-1.14,1.31-2.49,5.68-1.61,5.87-5.32.44-1.02.87-2.03,1.31-3.05.89-.41,1.89-1.32,2.66-1.15,4.53,1,7.96-.02,11.44-3.46,2.35-2.33,5.13-.04,7.01,2.46,1.3,1.73,1.71,4.63,4.87,4.28.14.19.32.24.54.15.98,1.17,2.18,1.08,3.46.63,2.41.02,4.75.86,7.24-.13,7.24-2.89,8.79-2.02,10.54,5.38Z"/>
    <path class="cls-6" d="M248.06,271.53c-1.41-.63-3-.99-3.73-2.6-.1-4.01.71-7.74,3.76-12.13.43,5.69.53,10.2-.02,14.73Z"/>
    <path class="cls-6" d="M223.33,263.11c-1.27.46-2.48.54-3.46-.63,1.25-.32,2.49-.59,3.46.63Z"/>
    <path class="cls-11" d="M271.3,284.12c-.32,2.19-1.5,3.99-4.09,3.74-2.51-.24-2.81-2.45-2.8-4.5.01-2.22,1.32-3.29,3.46-3.3,2.54-.01,3.44,1.52,3.42,4.05Z"/>
    <path class="cls-13" d="M184.77,122.37c1.81,0,3.63-.09,5.43.03,1.72.11,2.05,1.41,1.96,2.84-.08,1.49-1,1.83-2.35,1.79-2.96-.08-5.93-.03-8.89-.06-1.55-.01-3.51.64-3.43-2.1.07-2.25,1.46-2.67,3.32-2.62,1.32.04,2.63,0,3.95,0v.11Z"/>
    <path class="cls-3" d="M194.26,222.3c11.4-4.46,19.78-1.34,22.48,7.59.85,2.8.14,4.91-1.63,6.82-1.03,1.11-2.19,3.27-3.96,1.86-1.41-1.12.71-2.19,1.22-3.26,2.09-4.43-.08-8.55-5.42-10.12-3.94-1.16-8.19-.9-12.7-2.88Z"/>
    <path class="cls-9" d="M186.18,268.57c-.09.38-.18.76-.27,1.14-1.83.48-3.66.95-5.5,1.43,0-.23,0-.46-.04-.69,1.02-4.59-2.83-8.09-7.86-6.92-2.51.58-4.89,1.71-7.32,2.58-.06-.65-.11-1.31-.17-1.96,1.75-.53,3.13-1.63,4.37-2.94,2.49-.17,4.99-.34,7.48-.51,1.04,1.67,2.76,2.48,4.37,3.42,1.91,1.19,2.43,3.93,4.95,4.46Z"/>
    <path class="cls-4" d="M181.24,264.12c-1.61-.94-3.33-1.75-4.37-3.42,5.47-1.11,11-.2,16.49-.5-.44,1.02-.87,2.03-1.3,3.05-3.59.5-7.36-1.31-10.82.87Z"/>
    <path class="cls-3" d="M194.35,194.17c.12.08.24.15.36.23-.13-.07-.25-.14-.38-.21,0,0,.01-.01.01-.01Z"/>
    <path class="cls-3" d="M193.36,193.17c.33.33.67.66,1,1,0,0-.01.01-.01.01-.33-.33-.66-.67-1-1,0,0,.01-.01.01-.01Z"/>
    <path class="cls-16" d="M210.45,140.12c-2.16,0-4.32.07-6.48-.03-1.24-.06-2.24-.71-2.42-2.08-.19-1.52,1-2.16,2.08-2.37,4.27-.84,8.6-.65,12.87-.12,1.46.18,2.78,1.47,2.61,3.19-.2,1.92-1.94,1.42-3.17,1.47-1.83.08-3.66.02-5.49.02v-.08Z"/>
    <path class="cls-7" d="M180.38,270.45c.03.23.04.46.04.69-.92,1.05-1.84,2.1-2.76,3.16-1.72-.39-2.2,1.17-3.14,1.99-.04-.49.03-1.02-.13-1.46-.53-1.39,1.59-3.4-.85-4.25-1.54-.54-2.76.6-4.01,1.4-2.97,1.88,1.25,2,.77,3.25-.23.6-.47,1.2-.7,1.81-2.7.33-4.51-.72-5.24-3.41,7.08-8.88,11.6-7.61,16.03-3.17Z"/>
    <path class="cls-15" d="M180.38,270.45c-4.43-4.44-8.95-5.71-16.03,3.17-1.39-1.29-.78-3.04-1.05-4.59,0,0-.02.11-.02.11,1.5-.46,2.2-1.46,2.03-3.04,0,0-.12.01-.12.01,2.44-.88,4.82-2,7.32-2.58,5.03-1.17,8.88,2.34,7.86,6.92Z"/>
    <path class="cls-2" d="M175.47,289.33c-1.25-2.06-3.77-3.06-4.6-5.47.3-.03.59-.07.89-.1-.19-.18-.39-.37-.58-.55,0,0-.11.11-.11.11-.07-1.39-1.01-2.88.44-4.11.6.03,1.19.05,1.79.08,1.37.61,2.73,1.22,4.1,1.83h0c.33.33.67.67,1,1l.1-.11c.7,2.01,1.2,4.03.53,6.15-1.19.39-2.37.79-3.56,1.18Z"/>
    <path class="cls-5" d="M173.31,279.28c-.6-.03-1.2-.05-1.79-.08-.64-.72-1.28-1.45-1.93-2.17.23-.6.47-1.2.7-1.81.48-1.25-3.74-1.37-.77-3.25,1.25-.79,2.46-1.93,4.01-1.4,2.44.85.31,2.86.85,4.25.17.44.1.97.13,1.46-.4,1-.8,2-1.21,3Z"/>
    <path class="cls-9" d="M165.31,266.1c.17,1.58-.53,2.58-2.03,3.04-.02-1.48.48-2.61,2.03-3.04Z"/>
    <path class="cls-6" d="M212.64,288.12c-3.3,2.71-7.25,1.83-11.01,2,.66-3.35-4.31-6.04-1.15-9.69,0,0,.16-.13.15-.13.92-.41,1.63-1.01,1.78-2.09,0,0,0,0,0,0,8.94-3.41,10.72-3.19,15.13,1.89.49,1.89-2.39,2.91-1.28,4.96h0c-2.42-.44-2.55,1.86-3.62,3.04ZM213.38,282.82c-.69-2.16-2.39-2.83-4.22-2.62-2.1.25-4.69.95-4.64,3.48.06,3.03,3.24,3.12,5.25,3.18,2.09.06,2.9-2.23,3.61-4.05Z"/>
    <path class="cls-7" d="M212.64,288.12c1.07-1.18,1.19-3.48,3.62-3.06.19.75.32,2.04,1.39,1.32,3.61-2.44,7.71-2.3,12-2.35-4.66-4.2-6.41-4.03-13.38,1.04-1.11-2.05,1.77-3.07,1.28-4.96,1.23-.44,2.47-.87,3.7-1.31,2.87.68,5.87.25,8.72,1.37,2.18.85,3.68,2.06,4.29,4.32-6.21,2.77-12.88,3.49-19.5,4.43-.89.13-1.61-.05-2.13-.82Z"/>
    <path class="cls-15" d="M232.38,292.29c-4.18,9.52-5.06,9.96-15.92,7.85,0,0-.12-.09-.12-.09-.08-1.49-.17-2.99-.25-4.48,5.23-2.12,10.68-3.08,16.29-3.28Z"/>
    <path class="cls-2" d="M235.56,307.73c-.75-2.16-3.85-2.84-3.56-5.66,2.98-2.84,4.94-6.22,5.58-10.33,1.3.78,2.6,1.56,3.9,2.35-.56,1.7-1.11,3.41-1.67,5.11-1.33.45-1.71,1.01-.2,1.8.07,3.1-1.64,5.13-4.05,6.74Z"/>
    <path class="cls-7" d="M195.8,288.6c-3.84,3.16-8.34,1.09-12.51,1.58,0-.69,0-1.39,0-2.08,5.69-5.16,9.48-5.01,12.52.5Z"/>
    <path class="cls-15" d="M195.8,288.6c-3.04-5.51-6.83-5.66-12.52-.5-3.95-1.63-1.21-3.25.19-4.45,3.57-3.07,7.87-1.66,11.94-1.56.72,2.17,3.66,3.24,3.04,6.08-.88.14-1.76.29-2.63.43Z"/>
    <path class="cls-9" d="M195.4,282.08c-4.07-.1-8.36-1.51-11.94,1.56-1.4,1.2-4.14,2.82-.19,4.45,0,.69,0,1.39,0,2.08-1.78.09-3.58.21-4.25-2.03.67-2.12.17-4.14-.53-6.15,1.93.22,3.68.48,5.68-.58,3.7-1.96,7.62-2,11.22.65v.02Z"/>
    <path class="cls-16" d="M198.36,296.27c-4.28,3.93-7.88,3.75-12.38-.62,4.16-.44,8.34-1.31,12.38.62Z"/>
    <path class="cls-9" d="M198.43,288.17c.63-2.84-2.31-3.91-3.04-6.08,0,0,.01-.02.01-.02,1.07.04,2.03-.11,2.33-1.37.88-.4,1.77-.72,2.74-.26-3.16,3.65,1.81,6.34,1.15,9.69-1.57.17-2.37-.91-3.2-1.96Z"/>
    <path class="cls-7" d="M216.08,295.57c.08,1.5.17,2.99.25,4.48-2.3-.84-1.76-3.33-2.83-4.89.86.13,1.72.27,2.58.4Z"/>
    <path class="cls-15" d="M172.27,311.16c2.12-.08,2.92,1.22,3.2,3.06-3.47,1.5-3.09-1.04-3.2-3.06Z"/>
    <path class="cls-9" d="M171.18,283.21c.19.18.39.37.58.55-.29.04-.59.07-.89.1-.1-.32,0-.53.31-.65Z"/>
    <path class="cls-10" d="M239.61,300.99c-1.51-.78-1.12-1.34.2-1.8.45.66.44,1.26-.2,1.8Z"/>
    <path class="cls-5" d="M197.74,280.7c-.3,1.26-1.26,1.41-2.33,1.37-3.6-2.65-7.53-2.61-11.22-.65-2,1.06-3.75.8-5.68.58,0,0-.1.11-.1.11.18-.85-.17-1.16-1-1,0,0,0,0,0,0,.35-2.26-.95-4.58.25-6.81.92-1.05,1.84-2.1,2.76-3.16,1.83-.48,3.67-.95,5.5-1.43.64.12,1.27.28,1.91.35,8.16.92,8.74,1.54,9.91,10.63Z"/>
    <path class="cls-9" d="M221.25,278.81c-1.23.44-2.47.87-3.7,1.31-4.41-5.08-6.19-5.3-15.13-1.89-.46-2.28-.39-4.65.38-6.74.67-1.8.6-5.12,4.73-2.82,2.37,1.32,5.59-2.62,8.79-.72,1.67.92,3.34,1.83,5.01,2.75,2.6,2.73,1.94,5.43-.08,8.12Z"/>
    <path class="cls-6" d="M181.24,264.12c3.46-2.18,7.23-.37,10.82-.87-.19,3.72-4.56,2.83-5.87,5.32-2.51-.53-3.03-3.26-4.95-4.46Z"/>
    <path class="cls-6" d="M221.33,270.69c-1.67-.92-3.34-1.83-5.01-2.75.1-3.35,2.08-3.18,4.29-2.16,2.63,1.21,2.57,2.97.73,4.91Z"/>
    <path class="cls-9" d="M202.41,278.22c-.14,1.08-.85,1.68-1.78,2.09-.33-1.48.01-2.39,1.78-2.09Z"/>
    <path class="cls-9" d="M177.66,274.3c-1.2,2.23.1,4.55-.25,6.81-1.37-.61-2.73-1.22-4.1-1.83.4-1,.8-2,1.2-2.99.95-.82,1.43-2.38,3.14-1.99Z"/>
    <path class="cls-9" d="M177.4,281.11c.83-.16,1.19.15,1,1-.33-.33-.67-.67-1-1Z"/>
    <path class="cls-5" d="M213.38,282.82c-.71,1.82-1.52,4.11-3.61,4.05-2.01-.06-5.19-.15-5.25-3.18-.05-2.53,2.54-3.23,4.64-3.48,1.83-.22,3.53.45,4.22,2.62Z"/>
    <path class="cls-15" d="M216.27,285.08c6.97-5.07,8.72-5.24,13.38-1.04-4.29.05-8.39-.1-12,2.35-1.06.72-1.2-.57-1.39-1.32,0,0,0,.01,0,.01Z"/>
  </g>
</svg>