<?xml version="1.0" encoding="UTF-8"?>
<svg id="Layer_2" xmlns="http://www.w3.org/2000/svg" viewBox="0 0 408.18 416.08">
  <defs>
    <style>
      .cls-1 {
        fill: #85603f;
      }

      .cls-2 {
        fill: #bb6558;
      }

      .cls-3 {
        fill: #fefefd;
      }

      .cls-4 {
        fill: #d3e7ec;
      }

      .cls-5 {
        fill: #ac7f57;
      }

      .cls-6 {
        fill: #c0bfbf;
      }

      .cls-7 {
        fill: #7f9098;
      }

      .cls-8 {
        fill: #a85047;
      }

      .cls-9 {
        fill: #959595;
      }

      .cls-10 {
        fill: #cdbba9;
      }

      .cls-11 {
        fill: #c79565;
      }

      .cls-12 {
        fill: #9fabb1;
      }

      .cls-13 {
        fill: #e7b88a;
      }

      .cls-14 {
        fill: #d2d6d8;
      }

      .cls-15 {
        fill: #c79e7b;
      }
    </style>
  </defs>
  <g id="Layer_1-2" data-name="Layer_1">
    <path class="cls-6" d="M59.07,352.28c-5.44-2.53-7.88-7.9-11.36-12.23-16.05-19.96-28.61-41.85-36.79-66.25C2.48,248.61-1.21,222.77.35,196.34c2.43-41.17,16.16-78.57,40.35-111.84,25.88-35.6,60.1-60.22,101.81-74.32,14.49-4.9,29.39-7.68,44.66-9.21,40.91-4.1,78.89,5.06,114.58,24.58,13.85,7.58,26.47,17.01,38.25,27.69,18.96,17.19,34.1,37.2,45.53,59.92,12.1,24.07,19.35,49.59,21.8,76.58,3.43,37.7-3.52,73.28-19.58,107.36-12.38,26.27-30.04,48.48-51.21,68.1-1.28,1.19-2.54,2.14-4.37,1.94-.71-.34-1.44-1-2.14-.97-8.59.37-17.06-1.7-25.67-1.13-1.73.11-3.66.63-5.2-.82.65-5.18-1.42-10.17-1.05-15.35.12-1.66-.07-3.66-1.83-4.25-1.64-.55-2.35,1.48-3.5,2.34-7.23,5.48-13.71,12.06-22.52,15.19-.37-.37-.74-.73-1.11-1.1.56-.6,1.02-1.33,1.68-1.77,11.91-7.89,23.04-16.63,32.74-27.26,7.92-8.68,12.21-18.53,11.42-30.15-.79-11.57-4.91-22.57-6.85-33.96-.3-1.75-1.19-2.66-2.91-2.85-.74-2.89-1.4-5.8-2.24-8.65-4.82-16.29-13.59-29.46-29.4-37.05-2.03-.97-4.21-2.21-5.6.48-4.5,8.68-12.29,13.26-20.76,16.97-2.01.88-2.86,2.13-1.73,3.76,4.48,6.5,4.22,14.1,5.34,21.39.49,3.21-1.04,4.51-3.94,3.94-6.51-1.3-12.25-4.12-16.58-9.36-.65-.79-1.29-1.64.07-2.39,4.77,3.52,9.68,6.7,15.75,7.44.63-8.95-1.45-16.76-7.45-23.22-2.43-2.62-.8-2.93,1.52-3.64,7.69-2.36,14.79-5.93,20.83-11.31,2.4-2.13,6.31-4.48,4.94-7.9-1.95-4.89-3.9-10.39-9.66-12.62-.1-.19-.19-.37-.29-.56,1.18-1.39,2.42-2.73,3.53-4.17,3.93-5.07,7.91-10.12,9.61-16.49,4.47-2.73,7.05-6.96,9.19-11.54,5.95-1.12,8.53-5.81,10.3-10.67,2.35-6.44-2.45-14.97-8.63-16.4.63-1.44-.91-2.92.07-4.36-.35-.52-.69-1.04-1.04-1.56l-.09.3c.06-5.47.36-10.96.1-16.42-.24-5.18,1.67-7.94,6.92-8.98,6.03-1.19,10.8-4.85,14.53-9.65,8.81-11.36,8.83-30.67.21-41.95-.66-.86-1.5-1.26-2.54-1.34-3.42-4.26-7.22-7.92-12.35-10.32-7.23-3.37-14.39-2.11-21.67-.78-1.28-2.49-2.29-5.17-3.89-7.45-4.07-5.79-7.92-11.92-15.21-14.34-3.62-2.3-7-4.88-11.25-6.2-16.2-5.04-29.49.16-40.53,11.85-3.32,3.52-4.99,4.49-10.19,2.76-20.38-6.81-40.92,9.91-39.71,31.46-2.96,2.9-.5,6-.1,8.88,1.61,11.67,15.06,23.91,23.97,23.13-.66,7.28-1.33,14.56-1.99,21.84-1.98,1.54-2.57,3.78-3.17,6.06-1.92,7.2-.81,14.2,1.33,21.14-2.11.9-2.57,2.85-3.12,4.79-1.66,5.88-.23,11.23,3.27,15.91,3.37,4.51,5.05,9.67,6.64,14.87,4,13.09,11.94,22.84,24,29.27,0,2.33-.02,4.65-.02,6.98-5.82,3.71-11.98,6.71-16.43,12.53-7.48,9.77-13.43,20.49-20.32,30.61-1.41,2.07-1.02,3.39.25,5.28,1.68,2.5,4.01,4.88,3.57,8.35-4.74-5.15-8.91-10.63-13.35-15.88-1.82-2.16-3.01-5.28-6.52-5.54-.15-.67-.31-1.33-.46-1.99.37-5.4,5.49-9.47,3.44-15.84-1.73-5.36-7.93-13.61-11.95-12.88-3.78.69-5.08-1.06-6.75-4.06-2.1-3.78-1.21-8.58-3.62-11.62-2.72-3.42-4.23-6.87-5.14-10.98-.85-3.8-7.14-7.18-10.85-6.27-5.62,1.37-11.2,11.13-8.26,15.94,3.29,5.38,4.42,11.56,7.62,16.84,1.77,2.91,1.54,5.32.01,8.31-6.27,12.26-4.04,24.92,5.53,34.7,1.79,1.83,4.6,2.81,5.23,5.72-1.26.83-.42,1.56.02,2.42,3.12,6.13,7.51,11.42,11.21,17.16-9.41.45-18.02,3.96-26.46,7.58-5.43,2.33-10.92,5.7-10.36,13.01.99,12.93,3.53,25.58,9.03,37.41,1.76,3.8.83,4.36-2.89,4.38-12.6.09-25.14-.93-37.68-1.89Z"/>
    <path class="cls-12" d="M269.15,361.05c.37.37.74.73,1.11,1.1.5,2.87,2.8,1.82,4.4,1.85,8.16.15,16.33.15,24.49.21,1.54,1.45,3.48.94,5.2.82,8.6-.57,17.08,1.5,25.67,1.13.7-.03,1.43.63,2.14.97-.28,3.32-3.42,3.73-5.39,5.35-17.97,14.78-38.3,25.19-60.13,32.99-14.91,5.33-30.27,8-45.94,9.71-23.27,2.54-45.87-.48-68.35-6.43-18.89-5-36.75-12.35-53.14-22.83-13.83-8.83-27.15-18.51-38.38-30.7-.8-.87-1.58-1.72-1.75-2.94,12.54.96,25.07,1.98,37.68,1.89,3.72-.03,4.65-.58,2.89-4.38-5.49-11.83-8.04-24.47-9.03-37.41-.56-7.3,4.93-10.67,10.36-13.01,8.44-3.63,17.05-7.13,26.45-7.58,2.99-.17,5.97-.34,8.96-.51.61.8.96,1.68.81,2.71-1.95.37-3.9.71-5.84,1.13-9.85,2.12-19.8,3.93-29.07,8.1-3.01,1.35-6.52,3.06-6.62,6.74-.1,3.68,3.18,5.55,6.26,6.99,10.45,4.87,21.44,7.59,32.97,8.08,1.12.27,1.96,1.58,3.34.93,1.66.01,3.31.03,4.97.04.71.36,1.38.95,2.12,1.03,9.31,1.07,18.64,1.96,28.03,1.1,1.61-.05,3.23-.1,4.84-.14,13.48.5,26.86-.16,39.97-3.69,9.28-1.06,18.4-2.82,26.78-7.11,2.77-1.42,5.94-3.4,6.01-6.77.07-3.51-3.21-5.04-6.09-6.55-12.34-6.46-25.82-8.29-39.36-9.72-8.73-.93-17.52-1.74-26.3-1.81-9-.08-18.14-.97-26.98,1.81-1.57-.98-1.98-2.59-2.3-4.25,6.29-1.52,12.74-.35,19.08-1.09,3.43.46,6.86.42,10.29.07,4.19.45,8.46-.09,12.61,1,2.09.07,4.17.13,6.25.2,4.79.37,9.6.55,14.36,1.14,11.39,1.41,22.67,3.56,33.11,8.43,7.63,3.56,11.32,6.75,9.56,16.17-.52,2.76-.67,5.58-1,8.37.38.97,1.24.98,2.08,1.03.48,2.43-1.57,3.4-2.77,4.89-1.29,1.6-3.62,2.53-3.36,5.14-1.33-.06-2.65-.12-3.97-.18.03-.61.07-1.22.1-1.83,3.54-2.94,3.77-7.05,4.01-11.19.16-2.75-1.01-2.45-2.94-1.67-5.02,2.03-10.11,3.87-15.17,5.79-15.41,4.15-31.22,5.11-47.05,6.26-4.15.3-8.66-.41-12.64,1.73-8.67-1.54-17.4-2.06-26.19-1.75-1.77,0-3.54-.02-5.3-.03-1.42-1.29-3.16-1.27-4.91-1.2-4.65-.98-9.31-1.97-13.96-2.95-8.92-2.25-17.44-5.64-25.91-9.15-.16-.12-.32-.25-.48-.37.13.16.25.31.38.47.07,6.9,1.12,13.59,4.15,19.87.28.36.57.72.85,1.08.59,7.8,4.85,14.32,9.12,20.11,11.34,15.35,26.29,25.95,45.59,29.22,18.98,3.22,37.45,2.19,55.09-6.56,3.13-1.55,5.95-4.51,10.02-3.79.88.35,1.14,1.06,1.11,1.93-5.19,2.52-9.63,6.28-15.14,8.37-12.66,4.8-25.71,6.36-39.09,5.67-15.14-.78-29.45-4.09-41.66-13.89-5.93-4.76-9.79-4.12-15.08,1.43-2.96,3.11-2.29,5.55.78,7.88,3.63,2.76,7.9,4.32,12.16,5.54,15.24,4.36,30.97,5.45,46.69,5.98,12.61.43,25.28.53,37.85-.95,11.85-1.39,23.7-3.01,34.83-7.66,3.29-1.38,7.44-2.91,7.54-6.95.1-4.21-3.95-6.14-7.25-8.06-.42-.24-.95-.27-1.44-.4-.03-.3-.07-.61-.11-.91.3-.56.46-1.39.92-1.62,5.8-2.89,10.56-6.81,14.66-11.98,2.06-2.59,3.22-6.56,7.21-7.44,1.87,1.29-.82,6.39,4.21,5.04Z"/>
    <path class="cls-3" d="M264.18,48.03c7.27-1.33,14.44-2.59,21.67.78,5.13,2.39,8.92,6.05,12.35,10.32.48,5.56,2.74,10.93,1.61,16.68-2.99,15.17-17.05,28.03-36.78,21.09-4.14-1.46-7.63-4.18-10.16-7.76-1.69-2.4.87-4.65,1.12-7.03.15-1.39.7-2.87-.6-4.57-9.22,9.71-20.27,14.67-33.77,13.68-13.66-1-23.8-7.79-31.43-18.77-1.44,1.16-1.26,2.53-.83,3.43,2.17,4.56-.65,6.15-4.1,7.83-13.28,6.44-31.3-.24-37.35-13.94-.6-1.35-1.08-2.82-2.5-3.63-1.21-21.56,19.33-38.27,39.71-31.46,5.2,1.74,6.87.76,10.19-2.76,11.04-11.68,24.33-16.89,40.53-11.85,4.24,1.32,7.63,3.9,11.25,6.2.11,1.22.75,2.19,1.66,2.93,5.28,4.29,7.03,10.58,9.09,16.57,2.22,6.46,2.38,6.67,8.35,2.28Z"/>
    <path class="cls-3" d="M250.17,335.22c-.26-2.61,2.07-3.55,3.36-5.15,1.2-1.48,3.25-2.46,2.77-4.89,0,0-.09,0-.09,0,.66-.02,1.33-.05,1.99-.07,5.52-3.28,9.97-7.92,13.84-12.79,4.56-5.74,9.45-9.53,17.07-8.64.11.01.28-.51.44-.81-1.75-2.11-4.35-2.18-6.42-1.59-4.83,1.38-5.28-1.52-5.97-4.96-1.99-9.91-4.21-19.76-8.1-29.15.03-1.02-.22-2.55-1.18-2.25-1.23.37-.54,1.52.3,2.18,0,1.67.02,3.34.03,5.01-1.63,1.47-.83,3.41-.98,5.15-.34,4.1-.09,8.2-.58,12.35-1.12,9.34-3.09,18.46-5.37,27.55-.81,2.63-4.48,3.42-4.3,6.68-.27.1-.53.22-.78.38-.66-.02-1.32-.04-1.98-.06.32-2.79.48-5.61,1-8.37,1.76-9.42-1.93-12.61-9.56-16.17-10.44-4.87-21.73-7.02-33.11-8.43-4.76-.59-9.57-.77-14.36-1.14-2.02-1.18-1.99-3.08-2.07-5.13-.41-11.4.91-22.73,1.19-34.1.12-4.75.93-9.77,6.98-11.15.08.56.17,1.13.25,1.69-1.28,3.59-2.94,7.09-3.71,10.79-.5,2.39-2.27,5.45,1.02,7.52.59.28,1.61.48,1.69.86,1.04,5.06,4.19,3.32,7.06,2.22,5.87-2.25,9.74-6.54,12.26-12.19.84-1.89,1.46-4.34,4.47-2.66.14.32.29.64.43.96-.07.15-.22.34-.18.43.14.26.36.49.55.73.18.26.32.55.4.86.19.4.37.8.56,1.2.43.69.86,1.38,1.3,2.06-1.37.75-.73,1.6-.08,2.39,4.33,5.23,10.07,8.06,16.58,9.36,2.89.58,4.43-.72,3.94-3.94-1.12-7.29-.86-14.89-5.34-21.39-1.12-1.63-.28-2.87,1.73-3.76,8.47-3.72,16.26-8.3,20.76-16.97,1.4-2.69,3.58-1.45,5.6-.48,15.82,7.59,24.59,20.76,29.4,37.05.84,2.86,1.5,5.77,2.24,8.65,1.19,8.33,2.65,16.61,3.51,24.99,1.13,10.97-.47,21.41-6.72,30.36-6.47,9.26-14.76,17.06-23.98,23.7-4.54,3.27-8.47,7.51-14.06,9.18-3.7-6.72-8.06-12.93-13.81-18.08ZM241.02,279.97c-.45-2.56-1.98-4.04-4.75-3.87-2.86.18-4.09,2-4,4.7.08,2.51,1.47,4.18,4.03,4.11,2.9-.08,4.47-1.87,4.72-4.93ZM207.05,284.13c2.77.04,4.23-1.12,4.09-3.85-.15-2.8-1.75-4.13-4.46-4.18-2.7-.05-4.07,1.75-4.03,4.02.05,2.56,1.69,4.21,4.4,4.01Z"/>
    <path class="cls-14" d="M143.4,66.12c1.42.8,1.9,2.27,2.5,3.63,6.05,13.7,24.07,20.38,37.35,13.94,3.45-1.67,6.27-3.27,4.1-7.83-.43-.9-.61-2.27.83-3.43,7.63,10.98,17.77,17.77,31.43,18.77,13.5.99,24.55-3.96,33.77-13.68,1.3,1.7.75,3.18.6,4.57-.25,2.38-2.81,4.63-1.12,7.03,2.53,3.58,6.02,6.31,10.16,7.76,19.73,6.94,33.79-5.92,36.78-21.09,1.13-5.74-1.13-11.11-1.61-16.68,1.04.08,1.88.48,2.54,1.34,8.62,11.28,8.6,30.6-.21,41.95-3.72,4.8-8.49,8.46-14.53,9.65-5.25,1.03-7.15,3.8-6.92,8.98.25,5.46-.05,10.94-.1,16.41-2.14-1.24-4.18-2.71-6.43-3.68-7.76-3.33-15.6-6.48-23.42-9.7.35-5.61.86-11.22,1.02-16.83.16-5.62-8.71-12.17-14.16-10.49-14.73,4.54-28.02,1.4-40.19-7.48-2.61-1.9-4.74-2.32-7.66-.67-4.16,2.35-8.41,5.06-13.48,4.49-4.14-.46-6.52,1.01-7.4,5.03-8.91.77-22.36-11.47-23.97-23.13-.4-2.87-2.86-5.98.1-8.88Z"/>
    <path class="cls-3" d="M169.02,288.79c-6.34.74-12.78-.43-19.07,1.09-3.2-1.1-3.33-4.3-4.57-6.72-1.19-2.33-.8-5.3-2.94-7.24l.02-.09c-2.86-7.04-3.06-14.21-1.06-21.49,3.51.25,4.7,3.38,6.52,5.53,4.44,5.25,8.61,10.74,13.35,15.88.44-3.48-1.89-5.86-3.57-8.35-1.27-1.89-1.66-3.21-.25-5.28,6.89-10.12,12.84-20.84,20.32-30.61,4.46-5.82,10.61-8.82,16.43-12.53,1.01.36,1.97,1.06,1.95,2.06-.11,5.41,3.9,8.13,7.14,11.41,1.1,1.1,3.13,1.54,2.89,3.71-8.23-.13-12.43,2.47-12.95,8.39-.49,5.45-.78,10.92-.91,16.39-.23,9.64-.28,19.29-.4,28.93-4.14-1.08-8.41-.55-12.61-.99.11-8.25,2.7-16.37,1.24-24.77-3.38,8.51-6.81,16.9-11.54,24.7ZM162.84,278.33c.02-.13.04-.26.06-.38-.17.03-.34.07-.51.1.04.12.06.26.15.34.04.04.19-.04.3-.06Z"/>
    <path class="cls-3" d="M167.27,98.13c.88-4.02,3.26-5.49,7.4-5.03,5.07.56,9.31-2.15,13.48-4.49,2.92-1.64,5.05-1.23,7.66.67,12.16,8.88,25.46,12.02,40.19,7.48,5.44-1.68,14.32,4.86,14.16,10.49-.16,5.62-.66,11.22-1.02,16.83-1.78-.37-3.59-.63-5.33-1.13-16.23-4.69-32.76-7.15-49.68-6.72-1.42.04-3.03-.61-4.16.87-2.26.07-4.52.15-6.78.22-5.97.88-11.94,1.77-17.91,2.65.66-7.28,1.33-14.56,1.99-21.84Z"/>
    <path class="cls-1" d="M189.97,117.1c1.13-1.49,2.74-.84,4.16-.87,16.92-.43,33.45,2.03,49.68,6.72,1.74.5,3.55.76,5.33,1.13,7.81,3.22,15.65,6.37,23.42,9.7,2.26.97,4.29,2.44,6.43,3.68,0,0,.09-.3.09-.3-.29.95.17,1.39,1.04,1.56-.98,1.44.56,2.92-.07,4.36-7.91.09-10.03,1.43-12.47,9.71-1.07,3.63-2.32,3.83-4.97,1.93-1.86-6.7-5.89-12.49-8.14-18.98-1-2.88-2.3-3.54-4.94-3.49-11.78.22-22.85-2.48-33.07-8.53-.1.4-.32.76-.22,1,.52,1.39,1.26,2.72,1.64,4.15.31,1.2,1.76,2.41.65,3.64-1.06,1.16-2.5.28-3.75-.04-9.9-2.47-18.67-6.79-24.8-15.36Z"/>
    <path class="cls-15" d="M262.61,154.71c2.65,1.9,3.9,1.7,4.97-1.93,2.43-8.28,4.56-9.62,12.47-9.71,6.18,1.43,10.98,9.96,8.63,16.4-1.78,4.87-4.35,9.56-10.3,10.67-2.47.62-5.96-1.31-7.15,2.5-.92,2.94-2.23,5.84-2.04,9.05-1.7,6.37-5.68,11.42-9.61,16.49-1.11,1.44-2.35,2.78-3.53,4.16-3.94,1.32-6.33,4.9-9.88,6.78-9.15,3.91-19.32,4.99-28.05,10.06-.92-.03-1.84-.07-2.75-.1-1.82-.63-2.9-1.93-3.38-3.76,4.84.11,9.62-.55,14.11-2.24,12.31-4.64,22.84-11.13,28.84-23.92,5.19-11.07,7.21-22.51,7.7-34.45ZM271.12,158.75c.16,1.23-.34,3.1,1.54,3.08,1.87-.02,1.45-1.9,1.45-3.12,0-2.98.85-5.19,4.24-5.61.97-.12,2.74.48,2.29-1.52-.3-1.32-1.68-1.41-2.87-1.44-3.17-.09-6.55,4.31-6.65,8.61Z"/>
    <path class="cls-8" d="M246.15,209.12c3.55-1.89,5.94-5.47,9.88-6.78.1.19.19.37.29.56,1.47,5.3.33,10.52-.82,15.73,1.67.35,3.51-1.13,4.21.96.68,2.05-1.43,2.24-2.47,3.13-.89.76-1.8,1.48-3.07,1.4-.32-1.63.99-4.63-2.7-3.48-.99.31-2.37,1.35-1.77,2.56.93,1.86,2.94.68,4.46.94-1.56,4.06-4.9,6.22-8.7,4.89-2.73-.96-3.26-.4-4.46,1.6-1.23,2.05-2.78,4.32-5.87,2.77-.83-.41-1.61-1.54-2.56-.54-.91.97-.48,2.21.07,3.25,1.56,2.91,3.37,5.7,4.74,8.7.83,1.83,2.39,4.8.73,5.78-2.31,1.34-3.33-1.79-4.49-3.47-.75-1.08-1.7-2.17-2-3.39-.83-3.45-2.9-4.11-5.94-3.11-1.64.44-3.7-.2-4.75,1.81-2.19-.46-3.77.68-5.44,1.87-2.16,1.54-4.15,6.27-6.34,4.14-2.95-2.88,1.97-5.47,3.14-8.33.06-.15.18-.31.31-.38,3.36-1.72.8-2.63-.5-3.72,1.58-1.64.57-2.49-.9-3.43-2.8-1.79-5.57-3.64-8.25-5.61-5.16-3.8-6.66-8.77-4.62-14.77,4.53,1.13,8.85,3.22,13.66,3.15.48,1.83,1.56,3.13,3.38,3.76.64,1.94,2.32,2.98,3.74,4.23.53,2.29-1.11,3.84-2.29,5.23-2.66,3.16-1.54,5.43,1.26,7.35,3.24,2.22,5.33-.03,6.87-2.44,1.75-2.74,3.05-5.77,4.54-8.67,1.77.3,2.4-1.45,3.67-2.06-.25,3.35,1.76,4.52,4.61,4.22,2.36-.25,3.91-1.29,2.87-4.37-.62-1.82,1.25-2.78,2.86-3.41,4.74-1.85,5-3.14,1.5-7.19.39-.96.79-1.91,1.18-2.87ZM253.89,210.54c-.38-.5-.86-1.68-1.32-1.67-1.23.03-1.94,1.1-2.26,2.24-.25.9.13,1.79,1.15,1.64,1.06-.16,2.29-.49,2.43-2.21Z"/>
    <path class="cls-14" d="M263.97,353.3c5.59-1.68,9.52-5.91,14.06-9.18,9.22-6.64,17.51-14.43,23.98-23.7,6.25-8.96,7.85-19.39,6.72-30.36-.87-8.39-2.32-16.67-3.51-24.99,1.72.19,2.61,1.1,2.91,2.85,1.94,11.39,6.07,22.39,6.85,33.96.79,11.62-3.5,21.47-11.42,30.15-9.7,10.63-20.83,19.37-32.74,27.26-.66.44-1.12,1.17-1.68,1.77-5.03,1.35-2.34-3.75-4.21-5.04-.32-.9-.64-1.8-.97-2.7Z"/>
    <path class="cls-10" d="M116.2,272.21c-.63-2.91-3.44-3.89-5.23-5.72-9.57-9.78-11.8-22.43-5.53-34.7,1.53-2.99,1.75-5.4-.01-8.31-3.2-5.28-4.33-11.47-7.62-16.84-2.94-4.81,2.64-14.57,8.26-15.94,3.71-.9,10,2.47,10.85,6.27.92,4.11,2.43,7.56,5.14,10.98,2.41,3.04,1.52,7.84,3.62,11.62,1.66,3,2.96,4.75,6.75,4.06,4.02-.73,10.21,7.52,11.95,12.88,2.06,6.36-3.07,10.43-3.43,15.83-.88-.11-1.77-.21-2.65-.32.54-2.65-1.84-5.34.09-7.97,4.3-2.54,4.02-10.08-.53-13.7-1.83-1.46-3.72-2-5.65-.15-1.01-.35-2.02-.7-3.02-1.05-1.36-1.7-3.26-.82-4.93-1.05-1.39-11.17-6.44-21.05-11.3-30.93-1-2.03-3.72-3.84-6.76-2.27-.82.14-1.72.14-2.02,1.18h-.02c-3.03.31-2.84,2.8-3.09,4.81-.42,3.4.95,6.45,2.18,9.53,2.62,6.57,6.39,12.67,8.01,19.65-2.99,5.27-6.65,9.76-5.34,17.03,2.17,12.04,9.55,19.52,21.12,22.07l1.34,3.74c-4.1.62-8.19.91-12.16-.7Z"/>
    <path class="cls-2" d="M254.17,224.11c1.27.08,2.18-.63,3.07-1.4,1.04-.89,3.15-1.08,2.47-3.13-.7-2.09-2.54-.61-4.21-.96,1.14-5.21,2.28-10.43.82-15.73,5.76,2.23,7.71,7.73,9.66,12.62,1.36,3.42-2.55,5.77-4.94,7.9-6.04,5.38-13.14,8.95-20.83,11.31-2.32.71-3.95,1.02-1.52,3.64,5.99,6.46,8.07,14.27,7.45,23.22-6.06-.74-10.98-3.92-15.75-7.44-.43-.69-.86-1.38-1.3-2.06-.19-.4-.37-.8-.56-1.2-.08-.31-.21-.6-.4-.86-.13-.38-.25-.77-.38-1.16-.14-.32-.29-.64-.43-.96.34-2.64-1.45-4.8-1.66-7.32,3.04-1,5.11-.35,5.94,3.1.3,1.22,1.25,2.31,2,3.39,1.17,1.69,2.19,4.81,4.49,3.47,1.67-.97.11-3.95-.73-5.78-1.37-3-3.17-5.79-4.74-8.7-.56-1.03-.99-2.28-.07-3.25.95-1.01,1.73.12,2.56.54,3.09,1.55,4.64-.72,5.87-2.77,1.2-2,1.73-2.55,4.46-1.6,3.81,1.33,7.15-.83,8.7-4.89h.01Z"/>
    <path class="cls-1" d="M165.27,119.97c5.97-.88,11.94-1.77,17.91-2.65-1.44,6.88-5.67,11.9-11.18,15.78-2.7,1.91-4.28,4.07-4.4,7.26-.19,4.96-.26,9.93-.39,14.89-1.26-2.69-2.52-5.39-3.78-8.08-2.14-6.94-3.25-13.94-1.33-21.14.61-2.27,1.19-4.52,3.17-6.06Z"/>
    <path class="cls-14" d="M299.15,364.21c-8.16-.05-16.33-.06-24.49-.21-1.6-.03-3.9,1.02-4.4-1.85,8.81-3.13,15.3-9.71,22.52-15.19,1.14-.86,1.86-2.89,3.5-2.34,1.75.59,1.95,2.59,1.83,4.25-.38,5.17,1.69,10.17,1.05,15.35Z"/>
    <path class="cls-15" d="M163.43,147.17c1.26,2.69,2.52,5.39,3.78,8.08.46,11.31,2.24,22.41,7.11,32.67,2.56,5.41,5.57,10.87,10.58,14.53,3.76,2.75,7.39,5.53,10.05,9.41-.25.04-.49.08-.73.14-12.06-6.43-20-16.19-24-29.27-1.59-5.2-3.27-10.36-6.64-14.87-3.5-4.68-4.93-10.03-3.27-15.91.55-1.94,1.01-3.89,3.12-4.79Z"/>
    <path class="cls-3" d="M116.2,272.21c3.97,1.6,8.06,1.32,12.16.7,4.08,5.51,6.05,11.95,8.03,18.38-2.99.17-5.98.34-8.96.5-3.7-5.75-8.08-11.04-11.2-17.16-.44-.87-1.29-1.59-.02-2.42Z"/>
    <path class="cls-14" d="M264.18,48.03c-5.97,4.39-6.13,4.18-8.35-2.28-2.06-5.99-3.81-12.29-9.09-16.57-.91-.74-1.55-1.7-1.66-2.93,7.29,2.42,11.14,8.54,15.21,14.34,1.6,2.27,2.61,4.95,3.89,7.45Z"/>
    <path class="cls-10" d="M194.22,212.01c.24-.06.48-.11.73-.14,1.12.1,2.24.2,3.35.3-2.05,6-.54,10.97,4.62,14.77,2.68,1.97,5.45,3.82,8.25,5.61,1.47.94,2.48,1.78.9,3.43-3.58.3-4.2,4.76-7.55,5.39-.08-.56-.17-1.13-.25-1.69.02-1.51,2.13-1.89,1.91-3.53.24-2.16-1.8-2.6-2.89-3.71-3.25-3.27-7.25-5.99-7.14-11.41.02-1-.95-1.7-1.95-2.06,0-2.33.02-4.65.02-6.98Z"/>
    <path class="cls-15" d="M138.29,252.03c.88.1,1.77.21,2.65.32.15.67.3,1.33.46,1.99-2,7.28-1.8,14.45,1.06,21.49-.6-.16-1.64-.2-1.74-.51-1.5-5.15-4.8-9.78-4.57-15.43,1.08-1.45,1.1-3.11.97-4.81l1.17-3.05Z"/>
    <path class="cls-1" d="M269.17,181.68c-.18-3.21,1.12-6.11,2.04-9.05,1.19-3.8,4.68-1.87,7.15-2.5-2.14,4.58-4.72,8.82-9.19,11.54Z"/>
    <path class="cls-14" d="M280.11,138.71c-.87-.17-1.33-.61-1.04-1.56.35.52.69,1.04,1.04,1.56Z"/>
    <path class="cls-4" d="M152.25,294.14c8.84-2.78,17.98-1.89,26.98-1.81,8.77.07,17.56.88,26.3,1.81,13.54,1.44,27.02,3.26,39.36,9.72,2.89,1.51,6.16,3.04,6.09,6.55-.06,3.37-3.24,5.35-6.01,6.77-8.38,4.29-17.5,6.06-26.78,7.11,1.05-5.2-1.74-8.54-6.19-9.55-8.27-1.88-16.33-.24-23.92,3.52-1.84-.34-3.66-.53-5.25.81-3.41.43-4.79-1.06-4.69-4.5.16-5.52.04-11.05.04-17.8-2.49,2.56-4.37,4.11-5.76,6.02-1.32,1.82-2.45,3.53-5.01,3.27-1.49-1.93-4.05-2.76-5.21-5.04-.35-.3-.69-.6-1.04-.9-.86-.12-1.71-.25-2.57-.37l-.16-.16c-1.16-2.85-5-2.64-6.19-5.45ZM209.75,308.11c-.39-1.59-1.37-2.61-2.99-2.73-1.55-.11-2.38.93-2.61,2.36-.26,1.66.62,2.42,2.22,2.42,1.52,0,2.96-.16,3.38-2.05Z"/>
    <path class="cls-7" d="M242.26,377.96c.48.13,1.02.16,1.44.4,3.31,1.92,7.36,3.85,7.25,8.06-.1,4.04-4.25,5.58-7.54,6.95-11.13,4.66-22.97,6.27-34.83,7.66-12.58,1.48-25.24,1.37-37.85.95-15.72-.53-31.45-1.61-46.69-5.98-4.27-1.22-8.53-2.78-12.16-5.54-3.06-2.33-3.73-4.78-.78-7.88,5.28-5.55,9.15-6.18,15.08-1.43,12.21,9.8,26.52,13.11,41.66,13.89,13.38.69,26.43-.86,39.09-5.67,5.52-2.09,9.95-5.85,15.14-8.37,1.62.28,3.23.68,4.86.82,5.54.47,11.08.86,15.32-3.86Z"/>
    <path class="cls-4" d="M134.91,325.04c-11.53-.49-22.52-3.21-32.97-8.08-3.08-1.43-6.36-3.31-6.26-6.99.1-3.68,3.61-5.39,6.62-6.74,9.26-4.17,19.22-5.98,29.07-8.1,1.94-.42,3.89-.76,5.84-1.13,2.27,3.75,1.17,7.51-.39,11-2.91,6.52-3.16,13.18-1.91,20.04Z"/>
    <path class="cls-10" d="M220.96,379.07c-4.07-.72-6.89,2.24-10.02,3.79-17.65,8.75-36.12,9.78-55.09,6.56-19.3-3.27-34.25-13.87-45.59-29.22-4.27-5.79-8.53-12.31-9.12-20.11,5.21-.3,7.73,2.78,9.1,7.26,1.3,4.28,3,8.33,5.57,12.04,3.67,5.31,6.02,6.28,12.32,4.71,4.57,4.84,7.87,10.95,14.17,14.05.18,4.23,5.69,8.34,11.66,8.97,9.27.98,18.56,1.06,27.87,1,8.67-.06,16.69-2.05,24.48-6.18,3.85-2.04,7.17-5.47,11.88-5.84,1.03,0,2.05.01,3.08.02-.05.64-.1,1.28-.15,1.92-.05.35-.1.69-.15,1.04Z"/>
    <path class="cls-5" d="M173.37,328.13c-9.39.87-18.72-.02-28.03-1.1-.74-.08-1.42-.68-2.12-1.03-.03-2.83-.09-5.65-.09-8.48.01-11.57,6.59-15.76,17.13-10.93.59.27,1.26.37,1.9.55.88,1.79,2.2,3.25,3.4,4.82,3.69,4.83,7.48,9.68,7.8,16.16Z"/>
    <path class="cls-11" d="M162.17,307.14c-.63-.18-1.31-.28-1.9-.55-10.54-4.83-17.12-.64-17.13,10.93,0,2.83.06,5.65.09,8.48-1.66-.01-3.31-.03-4.97-.04-.03-6.62-.74-13.37,1.52-19.73,1.88-5.3,1.8-10.42.09-15.57-1.41-4.24-2.88-8.46-4.56-12.62-2.16-5.35-6.3-10.35-4.17-16.81,1.68-.45,3.35-.89,5.03-1.34-.23,5.66,3.07,10.28,4.57,15.43.09.31,1.13.35,1.74.51,0,0-.02.09-.02.09-.79,4.56.31,8.88,1.56,13.22,1.5,5.22,8.63,10.49,14.43,10.44,0,0,.16.16.16.16.27,2.91,3.41,4.43,3.57,7.39Z"/>
    <path class="cls-14" d="M167.41,306.06c2.57.26,3.69-1.45,5.01-3.27,1.39-1.91,3.26-3.46,5.76-6.02,0,6.74.11,12.27-.04,17.8-.1,3.44,1.28,4.93,4.69,4.5.26,2.11,1.79,2.75,3.52,2.55,1.93-.22,2.11-1.74,1.73-3.36,7.6-3.76,15.66-5.4,23.92-3.52,4.45,1.01,7.23,4.35,6.19,9.55-13.11,3.54-26.49,4.19-39.97,3.7-.95-8.61-5.61-15.4-10.8-21.93ZM197.9,320.62c-2.89-.66-5.51.87-5.81,3.15-.29,2.29,2.38,1.06,3.85.93,5.1.31,10.22,1.23,15.23-.61,1.48.06,3.08.13,3.7-1.54.49-1.31-.66-2-1.6-2.65-4.61-4.3-11.38-3.99-15.38.71Z"/>
    <path class="cls-14" d="M128.12,364.1c-6.3,1.57-8.65.59-12.32-4.71-2.57-3.71-4.27-7.77-5.57-12.04-1.36-4.47-3.89-7.56-9.1-7.26-.28-.36-.57-.72-.85-1.08,1.47-2.29,2.21-5.47,5.48-5.79,4.08-.4,8.09-1.76,12.27-1.1.7,5.92-2.21,13.5,7.1,15.49.08.02.1.3.15.45-3.38-.27-4.6.5-2.62,4.06,2.13,3.82,3.66,7.98,5.45,11.99Z"/>
    <path class="cls-15" d="M221.11,378.03c.05-.64.1-1.28.15-1.92,1.97-.02,3.94-.05,5.92-.07,4.26,2.93,7.24-1.24,10.85-1.96,7.74-.34,17.72-10.53,18.19-18.35.34-5.6-.75-10.47-5.17-14.36-1.5-1.32-4.01-.97-4.83-3.2-.03-1.02-.05-2.04-.08-3.05l.04-.08c1.32.06,2.65.12,3.97.18,5.75,5.15,10.11,11.36,13.81,18.08.32.9.64,1.8.97,2.7-4,.88-5.15,4.85-7.21,7.44-4.1,5.17-8.86,9.09-14.66,11.98-.46.23-.62,1.07-.92,1.62-6.96,1.5-13.91,3.04-21.04.99Z"/>
    <path class="cls-6" d="M206.19,236.16c.22,1.64-1.89,2.02-1.91,3.53-6.04,1.37-6.86,6.39-6.97,11.14-.28,11.37-1.61,22.7-1.19,34.1.07,2.06.04,3.95,2.07,5.13-2.08-.07-4.17-.13-6.25-.2.12-9.65.17-19.29.4-28.93.13-5.47.42-10.94.91-16.39.53-5.91,4.72-8.52,12.95-8.39Z"/>
    <path class="cls-5" d="M131.13,261.22c-2.13,6.46,2.01,11.46,4.17,16.81,1.68,4.16,3.16,8.38,4.56,12.62,1.71,5.16,1.79,10.27-.09,15.57-2.26,6.36-1.55,13.11-1.52,19.73-1.38.65-2.22-.66-3.34-.93-1.25-6.86-1.01-13.51,1.91-20.04,1.56-3.49,2.66-7.25.39-11,.15-1.03-.2-1.91-.81-2.71-1.98-6.43-3.95-12.87-8.03-18.38-.45-1.25-.89-2.49-1.33-3.74-1.52-4.14-1.08-7.27,4.1-7.95Z"/>
    <path class="cls-14" d="M246.29,333.21c-.03.61-.07,1.22-.1,1.83,0,0-.04.08-.04.08-2.2-.07-4.49-.51-6.07-1.89-3.54-3.09-6.76-3.46-10.12.06-2.67-2.32-5.55-2.01-8.52-.71-3.23-.62-6.49-1.42-9.13,1.51-.76.02-1.53.04-2.29.06-2.7-2.07-5.15-.82-7.58.59-3.1-1.57-5.37,1.95-8.31,1.35-1.85-1.86-4.05-.82-6.14-.75-2.59-2.3-5.19-1.14-7.8-.02-2.74-.1-5.47-.21-8.21-.31.17-.31.34-.61.51-.92,3.98-2.13,8.49-1.43,12.64-1.73,15.83-1.14,31.63-2.1,47.05-6.26,5.29,1.18,9.24,5.04,14.1,7.07Z"/>
    <path class="cls-4" d="M118.04,332.12c-4.18-.66-8.18.7-12.27,1.1-3.27.32-4.02,3.51-5.48,5.79-3.04-6.28-4.08-12.97-4.15-19.87l.09-.09c8.48,3.51,16.99,6.9,25.91,9.15-.56.97-2.08,1.23-1.97,2.69-.71.41-1.42.82-2.14,1.24Z"/>
    <path class="cls-5" d="M172.5,334.12c-.17.31-.34.61-.51.92-3.71,3.47-7.95,4.46-12.79,2.78-4.02-1.4-6.82-.29-9.17,3.48-2.72,4.38-7.18,3.95-9.81-.55-1.08-1.86-2.05-3.78-3.06-5.67-.36-1.31-.71-2.61-1.07-3.92,1.75-.07,3.49-.09,4.91,1.19,0,2.29,1.25,4.14,2.32,5.98.88,1.52,2.15,3.88,3.91,3.17,2.04-.81.77-3.13.29-4.82-.4-1.44-.81-2.87-1.22-4.31,8.79-.31,17.52.21,26.19,1.75Z"/>
    <path class="cls-15" d="M167.41,306.06c5.19,6.52,9.85,13.31,10.8,21.93-1.62.05-3.23.09-4.84.14-.32-6.48-4.11-11.33-7.8-16.16-1.2-1.57-2.52-3.03-3.4-4.82-.16-2.96-3.3-4.48-3.57-7.39.86.12,1.72.24,2.57.37.35.3.69.6,1.04.9,1.16,2.27,3.71,3.11,5.21,5.04Z"/>
    <path class="cls-14" d="M169.02,288.79c4.73-7.79,8.16-16.19,11.54-24.7,1.46,8.4-1.13,16.52-1.24,24.77-3.43.35-6.87.39-10.29-.07Z"/>
    <path class="cls-4" d="M246.29,333.21c-4.87-2.02-8.82-5.88-14.1-7.07,5.06-1.92,10.15-3.76,15.17-5.79,1.94-.78,3.1-1.08,2.94,1.67-.24,4.14-.47,8.24-4.01,11.19Z"/>
    <path class="cls-15" d="M158.44,299.59c-5.81.05-12.93-5.22-14.43-10.44-1.25-4.34-2.35-8.66-1.56-13.22,2.15,1.94,1.76,4.91,2.94,7.24,1.24,2.43,1.36,5.63,4.57,6.72.32,1.66.73,3.27,2.3,4.25,1.18,2.82,5.03,2.61,6.19,5.45Z"/>
    <path class="cls-9" d="M221.11,378.03c7.12,2.05,14.08.51,21.04-.99.04.3.08.61.11.91-4.24,4.73-9.78,4.33-15.32,3.86-1.63-.14-3.24-.54-4.86-.82.03-.87-.23-1.58-1.11-1.93.05-.35.1-.69.14-1.04Z"/>
    <path class="cls-15" d="M146.31,332.37c.41,1.44.81,2.87,1.22,4.31.48,1.69,1.75,4.01-.29,4.82-1.76.7-3.03-1.65-3.91-3.17-1.07-1.84-2.31-3.7-2.32-5.98,1.77.01,3.53.02,5.3.03Z"/>
    <path class="cls-14" d="M136.1,331.15c.36,1.31.71,2.61,1.07,3.92-5.57-1.76-10.72-5.28-16.99-4.19-.11-1.46,1.41-1.72,1.97-2.68,4.65.98,9.3,1.97,13.96,2.95Z"/>
    <path class="cls-6" d="M254.21,324.16c.66.02,1.32.04,1.98.06.01.32.02.64,0,.96,0,0,.09,0,.09,0-.84-.05-1.7-.05-2.08-1.03Z"/>
    <path class="cls-4" d="M96.14,319.15c-.13-.16-.25-.31-.38-.47.16.13.32.25.48.37,0,0-.09.09-.09.09Z"/>
    <path class="cls-14" d="M261.26,317.16c2.28-9.09,4.25-18.21,5.37-27.55.5-4.15.25-8.24.58-12.35.14-1.74-.66-3.69.98-5.15,3.37,8.47,4.32,17.49,5.92,26.35.39,2.15,1.93,4.52.03,6.64-3.94,4.39-7.45,9.26-12.88,12.06Z"/>
    <path class="cls-2" d="M204.53,241.37c3.35-.63,3.97-5.09,7.55-5.39,1.3,1.08,3.86,2,.5,3.72-.13.07-.25.24-.31.38-1.16,2.86-6.08,5.45-3.14,8.33,2.18,2.13,4.18-2.6,6.34-4.14,1.67-1.19,3.25-2.33,5.44-1.87-.12,3.84-1.95,6.84-4.34,9.75-3.86,4.72-9.35,5.97-14.74,7.53-3.29-2.07-1.52-5.13-1.02-7.52.77-3.69,2.43-7.2,3.71-10.79Z"/>
    <path class="cls-6" d="M261.26,317.16c5.43-2.8,8.94-7.67,12.88-12.06,1.91-2.12.36-4.49-.03-6.64-1.6-8.86-2.55-17.88-5.92-26.35,0-1.67-.02-3.34-.03-5.01.29.02.59.04.88.07,3.89,9.39,6.11,19.24,8.1,29.15.69,3.44,1.14,6.33,5.97,4.96,2.07-.59,4.67-.52,6.42,1.59-.16.3-.33.82-.44.81-7.62-.89-12.51,2.9-17.07,8.64-3.87,4.87-8.32,9.51-13.84,12.79-.41-.42-.82-.84-1.22-1.27-.18-3.27,3.49-4.05,4.3-6.68Z"/>
    <path class="cls-6" d="M201.84,259.69c5.39-1.56,10.88-2.81,14.74-7.53,2.39-2.92,4.21-5.91,4.34-9.75,1.05-2.01,3.11-1.37,4.75-1.81.21,2.52,2,4.68,1.66,7.32-3.01-1.68-3.63.78-4.47,2.66-2.53,5.65-6.4,9.94-12.26,12.19-2.87,1.1-6.02,2.84-7.06-2.22-.08-.39-1.1-.58-1.69-.86Z"/>
    <path class="cls-6" d="M241.02,279.97c-.25,3.06-1.82,4.85-4.72,4.93-2.56.07-3.95-1.6-4.03-4.11-.09-2.69,1.14-4.52,4-4.7,2.77-.17,4.3,1.32,4.75,3.87Z"/>
    <path class="cls-6" d="M207.05,284.13c-2.71.2-4.35-1.45-4.4-4.01-.04-2.27,1.33-4.07,4.03-4.02,2.71.05,4.31,1.38,4.46,4.18.14,2.73-1.31,3.89-4.09,3.85Z"/>
    <path class="cls-14" d="M269.05,267.18c-.29-.03-.59-.05-.88-.07-.85-.67-1.54-1.81-.3-2.18.96-.29,1.21,1.23,1.18,2.25Z"/>
    <path class="cls-12" d="M256.97,323.85c.41.42.82.84,1.22,1.27-.66.02-1.33.05-1.99.07,0-.32,0-.64,0-.96.24-.16.5-.28.78-.38Z"/>
    <path class="cls-6" d="M228.53,250.89c.19.4.37.8.56,1.2-.19-.4-.37-.8-.56-1.2Z"/>
    <path class="cls-6" d="M227.76,248.87c.13.39.25.77.38,1.16-.19-.24-.41-.46-.56-.73-.05-.09.11-.28.18-.43Z"/>
    <path class="cls-6" d="M162.84,278.33c-.1.02-.26.1-.3.06-.08-.08-.1-.22-.15-.34l.51-.1c-.02.13-.04.26-.06.38Z"/>
    <path class="cls-13" d="M198.31,212.17c-1.12-.1-2.23-.2-3.35-.3-2.66-3.89-6.29-6.66-10.05-9.42-5.01-3.66-8.02-9.12-10.58-14.53-4.87-10.27-6.65-21.37-7.11-32.67.12-4.96.19-9.93.39-14.89.12-3.19,1.7-5.35,4.4-7.26,5.51-3.88,9.75-8.9,11.18-15.78,2.26-.07,4.52-.15,6.79-.22,6.13,8.57,14.89,12.89,24.8,15.36,1.25.31,2.69,1.2,3.75.04,1.12-1.23-.33-2.44-.65-3.64-.38-1.43-1.12-2.75-1.64-4.15-.09-.24.13-.6.22-1,10.22,6.05,21.28,8.75,33.07,8.53,2.64-.05,3.95.61,4.94,3.49,2.25,6.49,6.28,12.28,8.14,18.98-.49,11.94-2.51,23.38-7.7,34.45-5.99,12.79-16.52,19.28-28.84,23.92-4.49,1.69-9.27,2.34-14.11,2.24-4.81.07-9.12-2.02-13.66-3.15ZM210.13,193.05c8.53-.12,15.55-3.44,20.81-10.24.74-.95,3.07-1.84,1.16-3.54-1.95-1.74-2.7.07-3.65,1.51-1.57,2.38-3.65,4.13-6.29,5.47-7.29,3.71-14.52,4.37-21.93.59-1.24-.63-2.79-1.36-3.57-.07-.85,1.41.86,2.51,1.84,3.09,3.53,2.1,7.3,3.62,11.63,3.19ZM191.09,158.62c-.06-3.19-2.42-6.22-5.97-6.13-2.8.07-5.98,3.86-5.87,7,.12,3.51,3.71,7.27,6.95,6.95,3.61-.36,5.08-2.73,4.9-7.82ZM226.83,157.53c.06,4.53,1.95,7.4,4.84,7.36,3.76-.06,6.35-3.12,6.28-7.4-.06-3.86-2.98-7.6-6.08-7.15-3.93.57-5.24,3.48-5.05,7.2ZM204.6,153.74c-2.9,3.5-4.06,6.75-5.66,9.78-3.76,7.16.07,13.9,9.69,12.65,2.33-.3,4.73-1.14,4.24-3.74-.5-2.62-2.71-.6-4.11-.41-6.36.88-8.2-1.33-6.33-7.43.98-3.2,3.05-6.21,2.17-10.86ZM190.86,140.56c-.59-2.34-2.61-3.08-4.55-3.16-4.96-.19-9.05,1.84-12.07,5.8-.55.72-1.46,1.71-.64,2.66,1.01,1.18,2.1.4,3.07-.3,3.33-2.41,6.74-4.26,11.09-2.67,1.86.68,2.73-.59,3.1-2.33ZM241.62,140.67c-.26-.4-.51-.82-.8-1.22-2.63-3.55-12.61-4.81-16.12-2.04-.8.63-1.61,1.27-1.08,2.43.62,1.36,1.77,2.22,3.17,1.6,4.11-1.81,7.96-1.37,11.88.62,1.02.52,2.7.71,2.94-1.4Z"/>
    <path class="cls-11" d="M246.15,209.12c-.39.96-.79,1.91-1.18,2.87-2.01,1.74-4.02,3.48-6.03,5.21-1.42-.11-2.63.08-2.79,1.86l-.03.02c-6.01.62-12.01,2.41-18.03.1,8.74-5.07,18.9-6.15,28.05-10.06Z"/>
    <path class="cls-13" d="M218.09,219.19c6.02,2.31,12.02.52,18.03-.1-1,1.22-2,2.43-3,3.65-1.27.61-1.89,2.36-3.67,2.06-3.05-3.34-6.85-1.5-10.38-1.48-1.42-1.26-3.09-2.29-3.74-4.23.92.03,1.84.07,2.75.1Z"/>
    <path class="cls-5" d="M271.12,158.75c.09-4.3,3.48-8.7,6.64-8.61,1.19.03,2.57.13,2.87,1.44.45,2-1.32,1.4-2.29,1.52-3.39.41-4.23,2.63-4.24,5.61,0,1.23.41,3.1-1.45,3.12-1.88.02-1.38-1.85-1.53-3.08Z"/>
    <path class="cls-2" d="M219.08,223.32c3.53-.01,7.33-1.86,10.38,1.48-1.49,2.9-2.79,5.93-4.54,8.67-1.54,2.4-3.63,4.66-6.87,2.44-2.8-1.92-3.93-4.19-1.26-7.35,1.18-1.4,2.81-2.94,2.29-5.23Z"/>
    <path class="cls-2" d="M233.13,222.74c1-1.22,2-2.43,3-3.65,0,0,.03-.02.03-.02,1.24-.16,2.28-.61,2.79-1.86,2.01-1.74,4.02-3.48,6.03-5.21,3.5,4.05,3.23,5.34-1.5,7.19-1.62.63-3.48,1.59-2.86,3.41,1.04,3.08-.51,4.12-2.87,4.37-2.85.3-4.86-.87-4.61-4.22Z"/>
    <path class="cls-2" d="M254.16,224.12c-1.52-.26-3.53.92-4.46-.94-.6-1.21.77-2.25,1.77-2.56,3.69-1.14,2.38,1.85,2.7,3.48,0,0-.01.01-.01.01Z"/>
    <path class="cls-2" d="M253.89,210.54c-.14,1.71-1.37,2.05-2.43,2.21-1.02.16-1.4-.74-1.15-1.64.32-1.14,1.03-2.22,2.26-2.24.46,0,.95,1.17,1.32,1.67Z"/>
    <path class="cls-13" d="M131.13,261.22c-5.19.68-5.62,3.81-4.1,7.95-11.57-2.55-18.95-10.03-21.12-22.07-1.31-7.27,2.35-11.76,5.34-17.03,1.14.13,2.23.1,3.1-.79,3.25-.81,6.5-1.58,9.89-1.17,1.67.22,3.58-.65,4.93,1.05,1.77,3.83.71,5.35-3.64,5.04-3.55-.25-6.99.56-10.16,3.8,1.36,0,2.07.18,2.63-.03,3.45-1.33,6.93-2.2,10.7-1.91,2.72.2,4.08,1.94,4.19,4.14.15,3-2.55,1.84-4.09,1.92-3.93.2-7.09,1.84-10.43,4.63,2.92.47,4.71-1.12,6.77-1.41,2.23-.31,4.31-1.5,6.81-.52,2.04.8,2.97,2.05,3.15,3.98.25,2.64-1.93,1.97-3.4,2.47-3.41,1.15-7.49.82-10.87,4.8,6.05-.78,11.09-3.77,16.28-.97.13,1.69.12,3.36-.97,4.81-1.68.44-3.35.89-5.03,1.34Z"/>
    <path class="cls-11" d="M124.23,228.1c-3.39-.41-6.64.36-9.89,1.17.07-2.63-1.68-4.61-2.45-6.93-2.9-8.66-8.49-16.54-7.75-26.27,0,0,.02,0,.02,0,.92.03,1.71-.17,2.02-1.18,3.03-1.56,5.76.24,6.76,2.27,4.86,9.88,9.91,19.76,11.3,30.93Z"/>
    <path class="cls-11" d="M137.12,255.08c-5.19-2.8-10.23.19-16.28.97,3.38-3.98,7.46-3.65,10.87-4.8,1.47-.5,3.65.17,3.4-2.47-.18-1.94-1.12-3.18-3.15-3.98-2.5-.98-4.57.21-6.81.52-2.06.29-3.85,1.88-6.77,1.41,3.34-2.79,6.5-4.43,10.43-4.63,1.54-.08,4.24,1.09,4.09-1.92-.11-2.19-1.47-3.93-4.19-4.14-3.77-.28-7.25.59-10.7,1.91-.56.21-1.26.03-2.63.03,3.16-3.24,6.61-4.05,10.16-3.8,4.35.31,5.4-1.2,3.64-5.04,1.01.35,2.02.7,3.02,1.05,2.06,4.62,4.12,9.23,6.19,13.85-1.94,2.64.45,5.32-.09,7.97-.39,1.02-.78,2.03-1.17,3.05Z"/>
    <path class="cls-5" d="M104.14,196.07c-.75,9.73,4.85,17.61,7.75,26.27.77,2.32,2.52,4.3,2.45,6.93-.87.89-1.97.92-3.1.79-1.62-6.98-5.39-13.08-8.01-19.65-1.23-3.08-2.6-6.13-2.18-9.53.25-2.01.07-4.5,3.09-4.82Z"/>
    <path class="cls-13" d="M138.38,244.06c-2.06-4.62-4.12-9.23-6.19-13.85,1.93-1.85,3.82-1.31,5.65.15,4.55,3.62,4.83,11.16.53,13.7Z"/>
    <path class="cls-5" d="M106.18,194.9c-.31,1.01-1.1,1.21-2.02,1.18.3-1.04,1.2-1.03,2.02-1.18Z"/>
    <path class="cls-12" d="M209.75,308.11c-.42,1.89-1.86,2.06-3.38,2.05-1.6,0-2.48-.77-2.22-2.42.23-1.43,1.05-2.47,2.61-2.36,1.62.11,2.61,1.14,2.99,2.73Z"/>
    <path class="cls-7" d="M188.07,318.26c.39,1.62.2,3.14-1.73,3.36-1.73.19-3.26-.45-3.52-2.55,1.58-1.34,3.4-1.14,5.24-.8Z"/>
    <path class="cls-14" d="M162.2,301.02c-.35-.3-.69-.6-1.04-.9.35.3.69.6,1.04.9Z"/>
    <path class="cls-13" d="M227.17,376.04c-1.97.02-3.95.05-5.92.07-1.03,0-2.05-.01-3.08-.02,0-1-.02-2-.03-3,5.94-.96,12.15-1.25,16.99-6.36-2.48-1.01-3.67.64-5.2.99-6.15,1.41-12.13,4.32-18.7,2.27,0-1.57.01-3.14.02-4.71,7.58-.05,15.1-.35,21.45-5.39-7.55.65-14.73,4.62-22.54,2.23-.1-.78.28-2.14-.55-2.18-1.5-.07-1.99,1.34-2.36,2.65-2.2,7.81-2.61,8.1-10.03,7.45-.5-.88,1.37-2.24-.54-2.77-.32-.09-1.02.3-1.15.62-.61,1.49.3,2.03,1.6,2.23-.74,2.26,3.99,1.46,2.34,3.96-1.19,1.8-2.96,3.23-5.45,2.44-1.16-.37-1.84.28-2.64.9-5.01,3.86-10.91,5.4-17.01,5.59-10.95.34-21.53-2.24-32.07-4.88-6.3-3.09-9.6-9.21-14.17-14.05-1.79-4.01-3.33-8.16-5.46-11.99-1.98-3.55-.76-4.32,2.62-4.06.59.29,1.17.76,1.79.83,9.99,1.09,19.96,1.64,27.39,10.31,1.54,1.8,6.58,4.34,9.76-.14.63-.01,1.25-.02,1.88-.03.47.83.86.54,1.23-.09l.11-.18c9.14.61,16.67-2.92,23.01-9.13,1.61.73-.86,2.99,1.71,3.49,9.7,1.89,19.01.9,27.81-3.6,1.49-.76,3.89-2.56,2.9-4.12-3.14-5,.77-6.47,3.61-8.62,1.1.05,2.21.09,3.31.13,5.45.63,11.07-.82,16.41,1.28.81,2.23,3.33,1.88,4.83,3.2,4.42,3.89,5.51,8.76,5.17,14.36-.48,7.82-10.45,18.01-18.19,18.35.38-.67.76-1.34,1.13-2,.12-.05.25-.08.34-.16.06-.05.05-.17.07-.26-.13.15-.26.29-.39.44-4.26.53-8.18,2.07-12,3.95ZM139.13,361.96c2.05-.06,3.9-.18,4.71-1.85.9-1.85-.75-3.12-1.8-4.28-1.84-2.03-4.32-3.06-6.97-3.63-2.01-.43-3.7.18-4.51,2.18-.82,2.01-.75,3.8,1.41,5.19,2.32,1.49,4.8,2.21,7.16,2.39ZM214.51,356.91c5.79-.18,10.34-1.8,16.28-5.65,1.42-.92,4.44-1.17,3.65-3.19-.59-1.51-3.15-2.67-5.34-2.91-1.29-.14-2.62-.02-4.01-.02q1.83,5.97-10.59,11.77ZM172.93,369.21c2.61-.33,6.12-.07,6.6-3.5.31-2.29-2.34-3.45-4.65-3.34-2.88.14-5.99.87-6.39,4.21-.34,2.81,2.39,2.49,4.45,2.63ZM166.11,375.16c-.73-1.91-2.38-2.62-4.2-2.63-1,0-2.65.45-2.3,1.89.47,1.94,2.22,2.66,4.16,2.62,1.17-.02,2.3-.27,2.34-1.88ZM151.2,371.99c-1.42-3.13-3.13-4.35-5.76-3.68-1.07.27-1.72,1.53-1.25,2.33,1.63,2.81,4.23,1.29,7.01,1.35ZM200.27,360.04c.05-1.3-.6-1.95-1.78-1.94-1.66.01-2.96.71-3.17,2.49-.13,1.13.62,2,1.75,1.96,1.59-.06,2.83-.84,3.2-2.51ZM188.81,372.99c-.17-1.32-1.12-1.61-2.1-1.69-1.59-.14-3.01.34-3.34,2.08-.24,1.27.82,1.67,1.87,1.55,1.43-.17,2.89-.43,3.57-1.94Z"/>
    <path class="cls-15" d="M197.22,370.04c7.42.65,7.83.35,10.03-7.45.37-1.31.86-2.72,2.36-2.65.84.04.46,1.4.55,2.18.01,1.18-.07,2.39,1.1,3.17,0,1.57-.01,3.14-.02,4.71-1.28.8-2.66,1.17-4.17,1.17-.89,0-1.62.42-1.69,1.38-.07,1.1.58,1.87,1.56,2.23,1.26.45,2.74.69,3.77-.16,2.27-1.89,4.86-1.53,7.44-1.53,0,1,.02,2,.03,3-4.7.37-8.03,3.8-11.88,5.84-7.79,4.13-15.81,6.12-24.48,6.18-9.3.06-18.6-.02-27.87-1-5.96-.63-11.47-4.74-11.66-8.97,10.54,2.64,21.12,5.22,32.07,4.88,6.1-.19,12-1.73,17.01-5.59.8-.61,1.47-1.26,2.64-.9,2.5.79,4.27-.65,5.45-2.44,1.65-2.5-3.08-1.71-2.34-3.96l.09-.09Z"/>
    <path class="cls-10" d="M211.17,324.09c-5.01,1.84-10.13.92-15.23.61.98-1.2,2.6-2.11,1.96-4.09,4-4.7,10.77-5.02,15.38-.71-3.22.13-3.64,1.67-2.11,4.19Z"/>
    <path class="cls-5" d="M197.9,320.62c.64,1.98-.98,2.88-1.96,4.09-1.47.12-4.14,1.36-3.85-.94.29-2.28,2.91-3.81,5.81-3.15Z"/>
    <path class="cls-13" d="M211.17,324.09c-1.53-2.52-1.11-4.06,2.11-4.19.93.65,2.08,1.34,1.6,2.65-.62,1.67-2.22,1.6-3.7,1.54Z"/>
    <path class="cls-10" d="M226.51,336.76c-2.85,2.16-6.76,3.62-3.61,8.62.98,1.57-1.41,3.36-2.9,4.12-8.81,4.49-18.11,5.49-27.81,3.6-2.57-.5-.1-2.76-1.71-3.49-6.35,6.21-13.87,9.73-23.01,9.13.95-4.93-1.48-8-6.11-7.34-1.96.28-5.44.3-4.98,2.86.54,3.04,3.23.61,4.86.22,1.96-.46,3.3.32,4.44,1.54,1.83,1.97-1.64,1.67-1.42,3.02-3.18,4.48-8.23,1.94-9.76.14-7.43-8.67-17.4-9.22-27.39-10.31-.62-.07-1.19-.54-1.79-.83-.05-.16-.07-.43-.15-.45-9.3-1.99-6.4-9.56-7.1-15.49.71-.41,1.42-.82,2.13-1.24,6.28-1.09,11.42,2.42,16.99,4.18,1.02,1.89,1.98,3.82,3.06,5.67,2.63,4.5,7.09,4.93,9.81.55,2.35-3.78,5.14-4.88,9.17-3.48,4.83,1.69,9.08.7,12.79-2.78,2.74.1,5.47.21,8.21.31-.29,1.16-2.72,2.18-.22,3.51,2.76,1.47,6.8-.3,8.02-3.49,2.09-.08,4.29-1.11,6.14.75-3.04,3.9-2.8,7.18,1.23,10.57,2.85,2.4,5.86,3.47,9-.12,1.47-1.68,3.66-2.82,5.7-3.86,4.96-2.53,5.25-3.37,2.24-8.6,2.64-2.93,5.9-2.13,9.13-1.51-.87,1.16-1.71,2.34.75,2.43,1.67.06,3.68-.84,4.31,1.74ZM128.9,340.01c1.45.42,2.87,1.68,3.32-.62.24-1.23-.36-2.27-1.4-2.95-1.97-1.3-7.84.12-9.07,2.18-.62,1.04-.91,2.2-.05,3.22.92,1.07,2.05.77,3.15.19,1.41-.74,2.42-2.38,4.05-2.02ZM186.9,346.46c-.15-.99-.96-1.41-2.03-1.46-2.56-.1-4.43,1.11-5.53,3.33-.61,1.22-2.18,2.79-.78,3.94,1.94,1.59,2.01-.96,2.94-1.8,1.05-.95,2.51-1.44,3.8-2.14.71-.38,1.52-.66,1.6-1.87ZM205.3,350.47c4.7.51,7.35-.37,9.17-3.33.53-.86.84-1.84,0-2.7-.89-.9-1.87-.52-2.63.14-1.86,1.58-3.64,3.27-6.53,5.89ZM170.55,345.65c-.24-1.78-1.83-1.58-2.97-1.96-.95-.32-2.33-.42-2.39.8-.08,1.62,1.7,1.73,2.85,2.15.97.36,1.95.1,2.51-.98Z"/>
    <path class="cls-10" d="M246.22,338.18c-5.34-2.1-10.96-.65-16.41-1.28.05-1.2.1-2.4.14-3.6,3.35-3.52,6.57-3.16,10.12-.06,1.58,1.38,3.87,1.81,6.07,1.89.03,1.02.05,2.04.08,3.05Z"/>
    <path class="cls-11" d="M227.17,376.04c3.82-1.88,7.74-3.42,12-3.95h-.01c-.38.65-.75,1.32-1.13,1.99-3.61.72-6.59,4.89-10.85,1.96Z"/>
    <path class="cls-13" d="M212.32,334.1c3.01,5.24,2.73,6.07-2.24,8.6-2.04,1.04-4.24,2.19-5.7,3.86-3.15,3.59-6.15,2.52-9,.12-4.03-3.39-4.27-6.68-1.23-10.57,2.94.59,5.21-2.93,8.3-1.36-1.85,2.35-6.82,4.2-5.17,6.84,2,3.21,6.28.12,9.54-.57.32-.07.6-.3.91-.4,3.59-1.16,4.19-3.37,2.31-6.47.76-.02,1.53-.04,2.29-.06Z"/>
    <path class="cls-2" d="M210.03,334.17c1.89,3.1,1.28,5.31-2.31,6.47-.31.1-.59.33-.91.4-3.26.68-7.54,3.77-9.54.57-1.65-2.64,3.32-4.5,5.17-6.84,2.43-1.41,4.88-2.66,7.58-.59Z"/>
    <path class="cls-5" d="M229.96,333.3c-.05,1.2-.09,2.4-.14,3.6-1.11-.05-2.21-.09-3.31-.14-.63-2.59-2.64-1.69-4.31-1.75-2.46-.08-1.62-1.27-.75-2.43,2.97-1.3,5.85-1.61,8.52.71Z"/>
    <path class="cls-15" d="M188,335.37c-1.22,3.19-5.26,4.95-8.02,3.49-2.5-1.33-.06-2.35.22-3.51,2.6-1.12,5.2-2.28,7.79.02Z"/>
    <path class="cls-1" d="M210.13,193.05c-4.33.43-8.1-1.09-11.63-3.19-.98-.58-2.69-1.68-1.84-3.09.78-1.29,2.33-.57,3.57.07,7.41,3.78,14.64,3.12,21.93-.59,2.64-1.34,4.72-3.09,6.29-5.47.95-1.44,1.7-3.25,3.65-1.51,1.92,1.7-.42,2.59-1.16,3.54-5.26,6.8-12.28,10.12-20.81,10.24Z"/>
    <path class="cls-1" d="M191.09,158.62c.19,5.09-1.28,7.46-4.9,7.82-3.24.32-6.82-3.44-6.95-6.95-.11-3.14,3.07-6.92,5.87-7,3.55-.09,5.9,2.94,5.97,6.13Z"/>
    <path class="cls-1" d="M226.84,157.53c-.2-3.73,1.11-6.63,5.04-7.2,3.1-.45,6.02,3.29,6.08,7.15.07,4.28-2.52,7.34-6.28,7.4-2.9.05-4.79-2.82-4.84-7.35Z"/>
    <path class="cls-11" d="M204.6,153.74c.89,4.65-1.19,7.66-2.17,10.86-1.87,6.1-.03,8.31,6.33,7.43,1.4-.19,3.61-2.21,4.11.41.5,2.6-1.9,3.44-4.24,3.74-9.62,1.25-13.45-5.5-9.69-12.65,1.59-3.03,2.75-6.28,5.66-9.78Z"/>
    <path class="cls-1" d="M190.86,140.56c-.37,1.75-1.24,3.01-3.1,2.33-4.35-1.59-7.76.26-11.09,2.67-.97.7-2.07,1.48-3.07.3-.81-.95.09-1.94.64-2.66,3.02-3.97,7.11-6,12.07-5.8,1.94.08,3.96.81,4.55,3.16Z"/>
    <path class="cls-1" d="M241.62,140.67c-.25,2.11-1.92,1.92-2.94,1.4-3.92-2-7.76-2.43-11.88-.62-1.4.62-2.56-.25-3.17-1.6-.53-1.17.28-1.81,1.08-2.43,3.5-2.76,13.49-1.5,16.12,2.04.29.39.54.82.8,1.22Z"/>
    <path class="cls-13" d="M238.94,217.21c-.51,1.25-1.55,1.7-2.79,1.86.15-1.78,1.37-1.97,2.79-1.86Z"/>
    <path class="cls-2" d="M139.13,361.96c-2.35-.18-4.83-.9-7.16-2.39-2.16-1.38-2.22-3.17-1.41-5.19.81-2,2.5-2.61,4.51-2.18,2.64.56,5.13,1.6,6.97,3.63,1.05,1.16,2.7,2.43,1.8,4.28-.82,1.67-2.66,1.79-4.71,1.85Z"/>
    <path class="cls-11" d="M218.15,373.09c-2.58,0-5.17-.36-7.44,1.53-1.02.85-2.51.61-3.77.16-.99-.36-1.63-1.13-1.56-2.23.06-.97.79-1.39,1.69-1.38,1.51,0,2.9-.37,4.17-1.17,6.57,2.05,12.55-.87,18.7-2.27,1.53-.35,2.72-2.01,5.2-.99-4.83,5.11-11.05,5.4-16.99,6.36Z"/>
    <path class="cls-15" d="M214.51,356.91q12.41-5.8,10.59-11.77c1.39,0,2.71-.11,4.01.02,2.19.23,4.75,1.4,5.34,2.91.79,2.02-2.23,2.27-3.65,3.19-5.94,3.86-10.49,5.47-16.28,5.65Z"/>
    <path class="cls-2" d="M172.93,369.21c-2.05-.14-4.78.18-4.45-2.63.4-3.34,3.51-4.07,6.39-4.21,2.32-.11,4.97,1.06,4.65,3.34-.47,3.43-3.99,3.17-6.6,3.5Z"/>
    <path class="cls-11" d="M211.26,365.28c-1.17-.78-1.08-1.99-1.1-3.17,7.82,2.39,14.99-1.58,22.54-2.23-6.35,5.05-13.87,5.34-21.45,5.39Z"/>
    <path class="cls-5" d="M164.23,359.05c-.21-1.35,3.26-1.05,1.42-3.02-1.14-1.22-2.48-2-4.44-1.54-1.63.38-4.32,2.82-4.86-.22-.46-2.57,3.03-2.59,4.98-2.86,4.63-.65,7.06,2.42,6.11,7.34,0,0-.11.18-.11.18-.41.03-.82.06-1.23.09-.63.01-1.25.02-1.88.03Z"/>
    <path class="cls-5" d="M166.11,375.16c-.04,1.62-1.17,1.86-2.34,1.88-1.93.04-3.68-.68-4.16-2.62-.35-1.44,1.3-1.89,2.3-1.89,1.82.01,3.47.72,4.2,2.63Z"/>
    <path class="cls-1" d="M151.2,371.99c-2.79-.06-5.38,1.47-7.01-1.35-.47-.8.18-2.05,1.25-2.33,2.63-.67,4.34.54,5.76,3.68Z"/>
    <path class="cls-1" d="M200.27,360.04c-.37,1.67-1.61,2.45-3.2,2.51-1.13.04-1.88-.83-1.75-1.96.21-1.78,1.51-2.48,3.17-2.49,1.18,0,1.83.64,1.78,1.94Z"/>
    <path class="cls-5" d="M188.81,372.99c-.68,1.5-2.14,1.77-3.57,1.94-1.05.12-2.11-.28-1.87-1.55.33-1.74,1.75-2.21,3.34-2.08.98.08,1.92.37,2.1,1.69Z"/>
    <path class="cls-15" d="M197.13,370.13c-1.3-.2-2.2-.75-1.6-2.23.13-.33.83-.71,1.15-.62,1.91.53.04,1.89.54,2.77,0,0-.09.09-.09.09Z"/>
    <path class="cls-11" d="M239.17,372.1c.13-.15.26-.29.39-.44-.02.09,0,.21-.07.26-.09.08-.23.11-.34.16,0,0,.01.01.01.01Z"/>
    <path class="cls-10" d="M166.12,359.02c.41-.03.82-.06,1.23-.09-.36.63-.75.92-1.23.09Z"/>
    <path class="cls-5" d="M128.9,340.01c-1.63-.36-2.64,1.28-4.05,2.02-1.1.58-2.24.88-3.15-.19-.87-1.01-.58-2.17.05-3.22,1.23-2.06,7.09-3.47,9.07-2.18,1.04.68,1.64,1.73,1.4,2.95-.45,2.3-1.87,1.04-3.32.62Z"/>
    <path class="cls-5" d="M186.9,346.46c-.07,1.21-.89,1.49-1.6,1.87-1.28.7-2.75,1.19-3.8,2.14-.93.85-1,3.39-2.94,1.8-1.4-1.15.17-2.72.78-3.94,1.1-2.22,2.96-3.44,5.53-3.33,1.06.04,1.87.47,2.03,1.46Z"/>
    <path class="cls-5" d="M205.3,350.47c2.9-2.63,4.67-4.31,6.53-5.89.77-.65,1.75-1.03,2.63-.14.85.86.54,1.84,0,2.7-1.82,2.96-4.48,3.83-9.17,3.33Z"/>
    <path class="cls-1" d="M170.55,345.65c-.56,1.08-1.54,1.34-2.51.98-1.15-.42-2.93-.53-2.85-2.15.06-1.22,1.44-1.12,2.39-.8,1.14.38,2.73.19,2.97,1.96Z"/>
  </g>
</svg>