<?xml version="1.0" encoding="UTF-8"?>
<svg id="Layer_2" xmlns="http://www.w3.org/2000/svg" viewBox="0 0 408.09 416.54">
  <defs>
    <style>
      .cls-1 {
        fill: #535654;
      }

      .cls-2 {
        fill: #fcfcf9;
      }

      .cls-3 {
        fill: #929ea1;
      }

      .cls-4 {
        fill: #e3b485;
      }

      .cls-5 {
        fill: #cfd4d4;
      }

      .cls-6 {
        fill: #a55143;
      }

      .cls-7 {
        fill: #9a7d5e;
      }

      .cls-8 {
        fill: #805c3e;
      }

      .cls-9 {
        fill: #b2a695;
      }

      .cls-10 {
        fill: #abacab;
      }

      .cls-11 {
        fill: #76868b;
      }

      .cls-12 {
        fill: #717271;
      }

      .cls-13 {
        fill: #edaa5d;
      }

      .cls-14 {
        fill: #cf6c59;
      }

      .cls-15 {
        fill: #c29668;
      }
    </style>
  </defs>
  <g id="Layer_1-2" data-name="Layer_1">
    <path class="cls-10" d="M18.97,294.19C8.9,272.59,2.92,249.94.82,226.19c-3.16-35.57,2.92-69.54,17.03-102.17,7.77-17.98,18.05-34.49,30.52-49.55,20.26-24.47,44.93-43.22,73.88-56.45C153.17,3.87,185.62-1.84,219.35.52c29.61,2.07,57.56,10.78,83.13,25.77,34.66,20.31,62.3,47.72,80.93,83.77,11.64,22.53,18.97,46.28,22.6,71.34,1.95,13.41,2.6,26.87,1.66,40.26-1.55,22.08-6.4,43.56-15.07,64.06-6.54,15.48-14.39,30.2-24.73,43.51-2.31-6.37.31-12.62.58-18.91.41-9.63,2.55-19.31,1.95-28.83-.48-7.56,1.15-14.73,1.12-22.07-.03-6.39,3.4-13-.79-19.21.08-.99.16-1.97.24-2.96,5.1-1.88,1.86-6.34,2.69-9.49,1.08-4.05-.37-8.12-2.61-11.86-2.03-3.38-5.14-1.04-7.53-1.95-5.57-2.12-10.42-.05-13.41,3.93-4.23,5.62-9.16,4.52-14.58,3.78-5.87-.79-11.11-4.08-17.27-3.88-2.31.07-3.9.07-4.36,2.63-.98-.04-1.95-.08-2.93-.12-.9-.26-1.18-.93-1.22-1.78.15-.19.3-.38.45-.57-.19.15-.37.3-.56.46-6.96-10.25-15.85-18.09-27.75-22.15-.94-1.47-1.93-2.87-3.93-2.92-.28-1.76.65-3.97-.98-5.2-4.15-3.13-2.88-7.11-2.55-11.27.46-5.76,4.63-10.71,3.36-16.75.59-1.34,1.19-2.69,1.78-4.03,2.03.27,4.17.47,5.4-1.55,3.28-5.36,6.86-10.26,6.14-17.47-.96-9.67-6.65-16.52-16.69-17.53-.25.02-.44-.08-.55-.31-.27-5.34-1.66-10.5-3.22-15.53-1.55-4.99-.57-8.14,4.18-10.49,4.19-2.07,7.85-5.21,9.87-9.38,2.94-6.04,3.84-12.64,3.17-19.39-1.03-10.29-5.95-18.04-14.95-23.19-3.7-2.68-6.9-5.94-11.63-7.17-8.45-2.19-15.9.45-23.31,3.87-5.27-9.72-13.63-15.08-24.29-17.2-17.63-8.16-40.05,4.88-46.47,21.45-1.14,2.95-2.63,3.45-5.18,3.04-1.63-.26-3.23-.78-4.86-.87-20.6-1.03-33.61,22.32-26.26,39.91-1.3,5.62,2.09,9.56,5.11,13.47,6.5,8.42,15.92,10.6,25.82,11.58.33,7.35-.12,14.75,1.15,22.05-.04,2.97-.07,5.94-.11,8.9-1.32,1.17-2.32,2.72-1.82,4.37,1.51,5.07.56,10.23.85,15.33.06,1.16-.17,2.45.79,3.29,3.48,3.06,5.05,7.69,9.01,10.43,1.95,1.34,3.63,3.18,4.47,5.78,2.22,6.82,7.06,11.78,11.69,17.15,4.13,4.79,9.95,6.43,14.09,10.64-10.98,9.28-19.35,20.72-26.85,32.83-4.98,8.04-9.65,16.32-17.12,22.43-9.76,7.97-19.62,15.84-29.43,23.75-6.73.76-12.09,4.93-16.67,8.96-9.93,8.77-20.37,6.39-31.21,3.7.19-1.88,1.81-2.68,2.92-3.86,5.48-5.86,8.23-12.91,7.08-20.75-1.07-7.31-3.3-14.47-5.17-21.65-.44-1.68-1.12-3.63-3.58-3.44l-.03-.03c-.03-2.46-2.25-2.39-3.62-2.63-6.37-1.11-12.77-1.4-19.18.03-4.16.93-6.56,3.18-7.72,7.4-3.82,13.86-5.91,27.56,1.64,40.93-.21.25-.44.74-.62.72-7.57-.9-15.22-1.07-22.76-2.47-3.54-.66-7.56-3.72-10.7.98Z"/>
    <path class="cls-15" d="M360.77,337.37c-.37,3.99-3.35,6.49-5.75,9.07-13.97,15.01-29,28.8-46.49,39.73-23.44,14.64-48.83,23.88-76.11,28.12-29.07,4.52-57.69,2.18-85.7-6.35-36.81-11.21-68.03-31.56-93.61-60.25-12.76-14.31-23.37-30.22-31.66-47.59-.57-1.19-.93-2.47-1.4-3.71,1.93-.37,3.73-1.45,5.82-.9,12.14,3.22,24.92,2.37,37.03,5.84,3.05,1.44,4.2,3.73,3.98,7.17-.29,4.48-.09,8.99-.08,13.48.01,7.34,0,7.25-7.06,9.19-3.21.88-7.27,1.04-7.19,6-.63-.05-.75-2.06-1.69-.59-1.65,2.58-1.11,5.05,1.65,6.23,11.59,4.96,23.24,4.66,34.56-.77,4.12-1.98,3.67-4.33-.87-6.76-1.99-2.79-4.98-3.67-8.12-4.24-.36-.55-.78-.69-1.27-.16-.63-.18-1.27-.36-1.9-.54-3.27-9.38-2.72-18.76-.04-28.15l.06-.04c4.09.09,8.14.39,12.17,1.19,5.92,1.18,11.91,1.86,17.96,1.91,3.21.7,1.16,2.88.66,3.8-4.06,7.41-.4,13.83,2.41,20.32.52,1.19,1.77,3.32,2.69.03.35-.06.71-.13,1.06-.19.46.84,1.22,1.19,2.13,1.27-.07.82-.14,1.64-.21,2.46-3.45-.2-5.78,2.22-8.54,3.66-8.17,4.26-16.56,8.15-23.53,14.37-2.19.07-4,1.02-5.51,2.51-1.43,1.41-1.29,2.48.87,2.88-.44,2.82,1.35,2.98,3.35,2.72,1.79-.23,3.61-.42,5.34-.91,11.72-3.32,23.92-5.79,32.74-15.18,3.81-4.06,8.63-5.72,13.87-7.71-.6,1.58-1.04,2.75-1.48,3.92-2.57,4.5-4.06,9.07-.97,13.96-1.85,4.86,2.03,11.5,8.06,14.97,15.57,8.95,32.8,10.88,50.17,12,12.93.84,25.82-.53,38.65-2.07,2.83-.34,5.79-1.94,4.22,3.33-.5,1.67,1.63,2.22,3.04,2.67,1.73.55,3.74.64,5.16,1.61,3.63,2.49,7.3,2,10.8.36,5.35-2.5,9.77-6.14,12.72-11.47,1.6-2.9,3.66-6.3,7.19-6.26,6.52.08,12.81-1.21,19.2-1.96-1.18,5.42-6.33,4.44-9.82,5.78-6.37,2.44-11.57,6.12-15.72,11.49-1.28,1.65-.1,1.34.84,1.42,1.62,3.86,4.87,4.91,8.67,4.98.44,1.86,1.92,2.55,3.42,2.01,6.02-2.16,12.5-4.72,14.93-10.82,2.59-6.49,7.69-9.7,12.74-13.2,6.95-4.82,14.03-9.45,20.34-15.1.83-.74,4.32-2.04.43-3.69-1.33-3.23-4.99-3.77-9.27-2.33-3.63,1.22-5.49,5.4-9.7,5.3-.42-2.99,2.2-4.13,3.88-5.26,5.71-3.83,11.12-7.99,16.08-12.75,4.68.04,9.36.08,14.03.13,3.69,2.14,7.76,1.95,11.8,1.89,2.85,1.47,5.95.99,8.97,1.12Z"/>
    <path class="cls-8" d="M360.77,337.37c-3.02-.13-6.12.35-8.97-1.12,1.5-11.15,2.45-22.36,3.14-33.59.53-8.59,1.36-17.16,2.2-25.72,1.17-12.01,2.24-24.04,3.82-35.99,1-7.6-.69-16.22,6.91-21.79,3.21.44,4.3,2.25,4.01,5.45-.38,4.21-1.39,8.38-.91,12.65-.08.99-.16,1.97-.24,2.96-.24.78-.64,1.54-.71,2.33-2.58,31.12-5.12,62.23-7.67,93.35l-1.57,1.48Z"/>
    <path class="cls-9" d="M362.34,335.89c2.55-31.12,5.1-62.24,7.67-93.35.07-.79.47-1.55.71-2.33,4.18,6.22.76,12.83.79,19.21.03,7.33-1.6,14.51-1.12,22.07.61,9.53-1.54,19.2-1.95,28.83-.27,6.29-2.89,12.54-.58,18.91-1.36,2.62-2.68,5.27-5.53,6.66Z"/>
    <path class="cls-9" d="M62.9,301.32c-12.1-3.46-24.89-2.61-37.03-5.84-2.09-.55-3.89.52-5.82.9-.36-.73-.73-1.46-1.09-2.19,3.14-4.71,7.16-1.64,10.7-.98,7.54,1.4,15.18,1.57,22.76,2.47.17.02.41-.47.62-.72,3.63,1.59,7.07,3.47,9.86,6.36Z"/>
    <path class="cls-2" d="M129.93,353.19c-3.1-4.89-1.61-9.46.97-13.96,7.78-6.77,17.56-9.03,27.01-12.04,13.94-3.12,28.03-4.34,42.29-3.01,3.51.33,6.14-1.62,8.42-3.62,2.68-2.34-1.07-1.49-1.57-2.34-.08-1.65-.15-3.3-.23-4.96-.36-7.79-.31-15.63-1.18-23.36-.89-7.89-.49-15.93-2.73-23.66.32-7.47-1.09-14.76-2.35-23.24-2.91,9.28-7.15,16.72-11.81,23.92-8.92,13.78-22.42,22.3-35.88,30.79-1.74,1.1-3.32,2.95-5.79,2.45-2.3-4.7-5.58-8.43-10.27-10.95-2.63-1.41-5.82-1.04-8.24-2.92,9.81-7.91,19.67-15.78,29.43-23.75,7.47-6.1,12.13-14.38,17.12-22.43,7.5-12.11,15.87-23.55,26.85-32.83.99-.74,1.98-1.47,2.97-2.21,1.79-.14,3.45.29,5.01,1.16-.46,2.34,1.23,3.96,2,5.88.02,3.94,2.7,6.02,5.57,7.95,1.28.86,3.27.91,3.34,3.08-7.7,2.13-10.01,5.98-9.16,13.92,1.29,12.04,2.19,24.13,3.31,36.19,1.27,13.72,2.6,27.44,3.9,41.15.11,1.15-.02,2.64,1.6,2.58,1.66-.06,1.41-1.62,1.35-2.71-.3-5.47-.55-10.96-1.06-16.41-1.13-12.06-2.62-24.1-3.52-36.18-.35-4.64-2.11-9.41.06-14.07l3.55-.62c.18,6.02.89,6.34,6.27,3.69,5.36-2.64,8.57-7.17,11.45-12.07.71-1.21.37-3.44,2.07-3.53,1.57-.08,2.06,1.93,2.82,3.17,3.52,5.77,8.42,9.61,15.04,11.35,6,1.58,7.96.3,7.28-5.68-.58-5.11-1.83-10.11-4.04-14.79-1.27-2.69-4.18-5.49-3.78-7.79.33-1.88,4.46-3.11,6.92-4.61,8-4.88,12.11-12.99,16.96-20.48,11.91,4.05,20.79,11.89,27.75,22.15l.1.11c.03.85.32,1.52,1.22,1.78.65,2.39,1.72,4.56,3.42,6.38.16.86.31,1.73.47,2.59-.98,4.15,1.51,7.53,2.71,11.12,4.84,14.51,7.39,29.28,4.24,44.41-2.38,11.45-8.15,21.66-13.86,31.75-1.71,3.03-2.73,6.67-5.97,8.69-3.5-4.48-7.7-7.52-13.77-7.12-3.1.21-6.23.1-9.34.13,2.06-4.85,4.25-9.65,6.13-14.56,2.89-7.54,7.41-14.41,9.19-22.4,4.52-2.12,9.41-2.98,14.88-3.56-2.72-3.28-5.65-2.51-8.32-2.44-2.62.07-4.82,2.16-7.59,1.77-1.44-9.03-3.27-17.93-8.25-25.83-.18-.89.21-2.51-.93-2.4-1.74.16-.82,1.69-.67,2.72.02.81.05,1.61.07,2.42.82,4.12-.12,8.18-.46,12.26-1.87,22.84-9.17,43.02-28.01,57.61-7.27-.78-14.53-1.56-21.8-2.36-2.07-.23-4.05-.42-2.06,2.58-1.54,3.04-4.65,4.05-7.23,5.83-4.23,2.92-10.14,3.29-12.91,8.41l-1.87-2.28c.04-.31-.02-.6-.17-.88,0-.62-.31-.96-.93-.98l.03.05c-.3-.44-.61-.88-.91-1.31-4.71-6.56-12.14-7.71-18.5-2.88-1.24.46-2.48.93-3.71,1.39-.56.35-1.11.71-1.67,1.06-6.16.92-12.33,1.77-18.49,2.76-5.28.85-10.32,2.47-14.53,5.92-2.91,2.38-4.88,5.64-2.43,9.04,2.24,3.11,4.83,6.43,9.25,6.97,4.49,7.57,12.37,10.7,20.58,8.21,3.78-1.15,7.58-2.26,11.37-3.38.67,1.27,1.92,1.39,3.02,1.14,6.38-1.43,12.88-.47,19.28-1.04,8.75-.78,17.28-2.64,24.88-7.43,3.03-1.91,6.44-4.25,5.41-8.05-.95-3.48-3.31-6.9-7.77-7.38.04-2.11,3.48-5.38-1.92-5.65.08-1.97.16-3.93.23-5.9,3.93,1.24,7.85,2.47,11.78,3.71.45.79,1.18.95,2.01.85.68.32,1.36.65,2.04.97.42.8,1.11,1.07,1.98.98,1.09,1.16,2.16,2.36,3.98,2.18l-.14-.04c.58,2.22,2.47,3.24,4.11,4.49,1.04,3.69,1.88,7.4.93,11.26-4.95,6.93-12.44,10-19.92,13.08-.26-.18-.59-.56-.78-.5-10.84,3.39-22.02,4.2-33.27,5.08-13.67,1.08-27.17.26-40.55-2.2-10.08-1.86-19.57-5.91-29.18-9.42l-.07-.06c-.1-1.19-.79-1.75-1.95-1.79-1.04-1.03-2.08-2.05-3.12-3.08ZM264.85,295.87c-.71-2.48-2.13-4.46-4.94-4.54-2.49-.06-3.89,1.6-3.99,4.07-.12,2.94,1.38,4.62,4.34,4.83,3,.21,3.83-1.95,4.59-4.36ZM231.6,302.17c2.15-.82,4.24-2.13,4.06-4.74-.17-2.39-1.52-4.42-4.48-4.21-2.7.2-4.4,1.66-4.19,4.42.19,2.56,1.82,4.13,4.62,4.53ZM260.88,264.06c-.16-2.53-1.25-4.39-3.77-4.61-2.89-.25-4.4,1.96-4.6,4.3-.22,2.62,1.82,4.28,4.38,4.4,2.63.13,3.7-1.79,3.99-4.09ZM227.77,261.22c-2.68.55-4.01,2.15-3.91,4.88.1,2.74,2.13,3.85,4.29,3.93,2.33.09,4.37-1.66,4.32-3.9-.05-2.56-1.78-4.55-4.7-4.91Z"/>
    <path class="cls-2" d="M130.92,84.28c-7.35-17.59,5.66-40.93,26.26-39.91,1.63.08,3.24.6,4.86.87,2.55.41,4.04-.1,5.18-3.04,6.42-16.57,28.84-29.61,46.47-21.45.83,1.78,2.72,2.33,4.08,3.49,4.79,4.08,9.77,8,12.9,13.61,3.04,5.46,3.47,5.52,7.31.1,7.41-3.42,14.86-6.07,23.31-3.87,4.73,1.23,7.94,4.5,11.63,7.17.17.63.2,1.34.52,1.88,10.89,18.55,2.83,37.57-18.01,41.65-5.53,1.08-11.11-.21-16.12-3.44-3.93-2.54-1.92-6.27-2.47-9.49-.18-1.07.5-2.65-.97-3.01-1.41-.35-1.74,1.22-2.3,2.17-6.78,11.45-16.48,18.37-30.02,19.3-12.9.89-23.57-3.64-32.53-13.86.09,3.45,1.9,5.53,2.94,7.86.82,1.82,1.13,3.19-.67,4.82-10.68,9.68-22.97,10.31-34.77,1.51-2.64-1.97-5.08-4.22-7.61-6.35Z"/>
    <path class="cls-5" d="M130.92,84.28c2.53,2.12,4.97,4.37,7.61,6.35,11.79,8.8,24.09,8.17,34.77-1.51,1.8-1.63,1.49-2.99.67-4.82-1.05-2.33-2.85-4.41-2.94-7.86,8.96,10.22,19.63,14.75,32.53,13.86,13.54-.93,23.24-7.85,30.02-19.3.57-.96.89-2.52,2.3-2.17,1.48.36.79,1.94.97,3.01.55,3.22-1.46,6.96,2.47,9.49,5,3.23,10.59,4.52,16.12,3.44,20.84-4.08,28.91-23.1,18.01-41.65-.32-.54-.35-1.25-.52-1.88,8.99,5.14,13.92,12.9,14.95,23.19.67,6.75-.23,13.35-3.17,19.39-2.03,4.17-5.69,7.32-9.87,9.38-4.76,2.35-5.73,5.5-4.18,10.49,1.56,5.02,2.95,10.19,3.22,15.53-3.74-1.89-7.84-2.22-11.9-2.61-6.58-.63-13.17-1.09-19.76-1.62-.1-1.66-.25-3.31-.28-4.97-.14-9.01-1.48-17.23-12.34-19.43-.16-.03-.31-.13-.44-.23-1.78-1.26-3.35-.68-5.04.35-13.27,8.12-27.04,8.95-41.17,2.51-2.43-1.11-4.06-.8-5.62,1.15-2.7,3.36-6.4,5.35-10.33,6.66-4.23,1.42-6.95,3.33-5.14,8.28-9.9-.98-19.32-3.16-25.82-11.58-3.02-3.91-6.41-7.85-5.11-13.47Z"/>
    <path class="cls-2" d="M161.85,109.33c-1.81-4.96.91-6.87,5.14-8.28,3.93-1.32,7.63-3.3,10.33-6.66,1.57-1.95,3.2-2.26,5.62-1.15,14.12,6.44,27.9,5.61,41.17-2.51,1.68-1.03,3.26-1.62,5.04-.35.13.1.28.19.44.23,10.86,2.2,12.2,10.42,12.34,19.43.03,1.66.18,3.31.28,4.97-15.71-.41-31.19,1.52-46.43,5.1-2.55.6-6.03-.07-7.59,3.21-2.61-.3-5.2-.52-7.44,1.29-6.46.83-11.64,5.02-17.75,6.79-1.26-7.3-.81-14.7-1.15-22.05Z"/>
    <path class="cls-7" d="M314.38,226.67c-1.7-1.82-2.78-3.99-3.42-6.38.98.04,1.95.08,2.93.12,11,2.77,22.02,5.48,32.99,8.37,2.31.61,2.76-.35,3.35-2.21,3.29-10.26,7.95-12.18,17.63-7.43-7.6,5.56-5.91,14.19-6.91,21.79-1.58,11.96-2.64,23.99-3.82,35.99-.84,8.56-1.67,17.14-2.2,25.72-.69,11.23-1.63,22.44-3.14,33.59-4.04.05-8.11.25-11.8-1.89,1.24-5.52,1.3-11.16,1.83-16.76,1.27-13.35,2.66-26.68,4.01-40.02.97-10.19,2.21-20.36,2.85-30.58.67-10.64,1.43-11.18-6.45-15.09-7.67-3.8-16.5-3.32-24.34-6.56-1.21-.5-2.63.1-3.51,1.32Z"/>
    <path class="cls-5" d="M62.9,301.32c-2.79-2.89-6.24-4.76-9.86-6.36-7.55-13.37-5.46-27.07-1.64-40.93,1.16-4.22,3.56-6.47,7.72-7.4,6.41-1.43,12.81-1.15,19.18-.03,1.37.24,3.59.17,3.62,2.63-4.41-.57-8.8-1.5-13.22-1.61-3.91-.1-7.9.28-11.66,1.7-.77.29-1.57.81-1.51,1.75.07,1.11,1.12.98,1.89,1.16,7.05,1.61,14.16,1.11,21.25.47,1.81-.16,3.64-.92,3.28-3.44,2.47-.19,3.14,1.75,3.58,3.44,1.88,7.18,4.1,14.34,5.17,21.65,1.15,7.85-1.6,14.9-7.08,20.75-1.11,1.18-2.73,1.99-2.92,3.87-2.27.44-5.21-.33-5.79,3.19,0,0-.06.04-.06.04-2.92.34-3.71,2.39-3.73,4.88-.04,6.01-.16,12.02.12,18.02.1,2.18-.14,5.31,3.65,5.24.63.18,1.27.36,1.9.54.42.05.85.1,1.27.16,3.15.58,6.13,1.45,8.12,4.24-.37,3.3-2.99,4.22-5.54,4.88-6.99,1.79-14.06,1.91-21.12.34-2.57-.57-5.26-.96-6.98-3.34-.08-4.95,3.98-5.12,7.19-6,7.05-1.93,7.07-1.84,7.06-9.19,0-4.5-.21-9.01.08-13.48.23-3.44-.93-5.73-3.98-7.17ZM85.86,272.85c.16-1.98-1.11-2.39-2.72-2.77-4.18-.97-8.32-1.92-12.67-1.87-8.46.1-8.44,0-10.69-7.96-.4-1.42-.92-2.94-2.87-2.9-1.9.04-1.84,1.47-2.02,2.8-.59,4.22-1.24,8.44-1.86,12.65-2.38.63-2.24,2.52-2.2,4.38.19,7.22,3.12,12.97,8.56,17.78,3.05,2.69,6.8,4.51,10.15,3.68,10.25-2.54,19.29-9.48,17.19-24.31l-.86-1.49Z"/>
    <path class="cls-8" d="M188.19,123.3c1.56-3.28,5.04-2.61,7.59-3.21,15.25-3.58,30.73-5.51,46.43-5.1,6.59.53,13.18,1,19.76,1.62,4.06.39,8.16.71,11.9,2.61.11.23.3.33.55.31,1.04,2.88,3.54,6.05-1.52,7.74-4.3,2.79-5.9,7.04-6.05,11.86-.1,3.15-1.16,3.17-3.59,1.96-2.05-1.02-3.61-3.05-6.15-3.05-1.07-4.05-5.19-5.76-7.04-9.45-2.66-5.31-6.79.49-10.27-.33-1.09-.26-2.32.05-3.48.07-7.41.17-14.84.48-21.92-3.52.18,3.67,3.21,4.57,4.08,6.74-1.39,1.36-2.79.9-4.06.97-10.01.55-18.25-3.98-26.24-9.21Z"/>
    <path class="cls-5" d="M281.89,196.26c-4.85,7.49-8.96,15.59-16.96,20.48-2.46,1.5-6.59,2.73-6.92,4.61-.4,2.3,2.51,5.1,3.78,7.79,2.21,4.68,3.46,9.68,4.04,14.79.68,5.97-1.27,7.25-7.28,5.68-6.63-1.74-11.52-5.58-15.04-11.35-.76-1.25-1.25-3.26-2.82-3.17-1.7.09-1.37,2.32-2.07,3.53-2.87,4.9-6.09,9.44-11.45,12.07-5.38,2.65-6.09,2.33-6.27-3.69,6.47-1.46,10.74-5.3,13.32-11.46,1.25-2.98,1.51-6.49,4.18-8.81.36-.07.71-.14,1.07-.2.55,1.19,1.06,2.39,1.65,3.55,3.38,6.79,7.6,12.68,15.71,14.27,1.75.73,4.59,2.71,4.42-.92-.24-5.25-.47-10.83-4.21-15.26v-.02c-.06-.6-.32-1.01-.97-1.06l.05.02c.04-.89-.29-1.55-1.14-1.92h0c-.33-.39-.66-.79-.99-1.19-.73-1.9-3.51-2.37-3.38-4.86,1.52-.91,3.03-1.82,4.55-2.73.76.03,1.4-.19,1.8-.89,4.26-2.22,9.09-3.67,11.37-8.53l.29-.32c4.45-3.43,8.06-7.39,8.6-13.34l.37.07.38-.05c2,.05,2.99,1.45,3.93,2.92Z"/>
    <path class="cls-9" d="M74.91,302.16c.58-3.52,3.52-2.75,5.79-3.19,10.84,2.68,21.28,5.06,31.21-3.71,4.57-4.04,9.93-8.2,16.67-8.96,2.42,1.87,5.61,1.51,8.24,2.92,4.69,2.52,7.97,6.24,10.27,10.95,2.07,3.67,1.18,8.04,2.81,11.81-1.38,1.1-2.75,2.2-4.13,3.3-2.51-.51-4.72.37-6.87,1.5-.13-2.14,1.37-3.68,2.04-5.53,1.55-4.25,2.83-8.72-.27-12.67-3.66-4.67-8.01-9.02-14.69-7.17-8.39,2.32-15.57,6.8-20.93,13.86-6.05-.05-12.04-.74-17.96-1.91-4.03-.8-8.08-1.1-12.17-1.19Z"/>
    <path class="cls-9" d="M367.86,219.15c-9.68-4.75-14.34-2.83-17.63,7.43-.6,1.86-1.05,2.81-3.35,2.21-10.97-2.89-21.99-5.6-32.99-8.37.46-2.57,2.05-2.56,4.36-2.63,6.16-.2,11.4,3.09,17.27,3.88,5.42.73,10.36,1.84,14.58-3.78,3-3.98,7.84-6.05,13.41-3.93,2.38.91,5.5-1.43,7.53,1.95,2.24,3.74,3.69,7.8,2.61,11.86-.84,3.15,2.4,7.61-2.69,9.49-.48-4.27.53-8.44.91-12.65.29-3.2-.8-5.01-4.01-5.45Z"/>
    <path class="cls-9" d="M204.95,205.07c-.99.74-1.98,1.47-2.97,2.21-4.14-4.21-9.97-5.85-14.09-10.64-4.63-5.38-9.47-10.33-11.69-17.15-.85-2.6-2.52-4.43-4.47-5.78-3.96-2.73-5.54-7.37-9.01-10.43-.95-.84-.73-2.14-.79-3.29-.29-5.11.66-10.26-.85-15.33-.49-1.65.5-3.21,1.82-4.37,1.06,4.4,1.75,8.92,4.28,12.83-3.05,7.77,1.86,16.93,10.7,19.98,3.57,9.99,8.6,18.81,17.46,25.34,3.15,2.32,7.28,3.24,9.63,6.65Z"/>
    <path class="cls-9" d="M272.91,127.27c5.05-1.69,2.55-4.86,1.52-7.74,10.03,1.02,15.72,7.87,16.68,17.53.72,7.22-2.86,12.12-6.14,17.47-1.24,2.02-3.37,1.82-5.4,1.55,1.03-4.31-1.95-2.38-3.7-2.38.65-2.49,3.03-3.42,4.66-4.96,5.53-5.24,5.44-12.68.33-18.29-2.39-2.62-5.65-1.34-7.95-3.18Z"/>
    <path class="cls-8" d="M167.17,153.11c-2.53-3.91-3.22-8.43-4.28-12.83.04-2.97.07-5.94.11-8.9,6.11-1.77,11.28-5.96,17.75-6.79-1.95,5.46-4.13,10.78-9.42,13.99-1.96,1.18-1.73,3.04-1.44,4.83.85,5.18,1.79,10.34,2.69,15.51-2.93-.88-3.6-3.88-5.41-5.8Z"/>
    <path class="cls-9" d="M277.96,193.33l-.38.05s-.37-.07-.37-.07c-1.32-1.09-2.14-2.9-4.2-2.93-1.53-3.07-5.5-3.52-7.06-6.56,1.48-6.18,3.49-12.15,6.85-17.6,2.53-1.33,3.26-4.13,4.98-6.11,1.27,6.04-2.9,10.99-3.36,16.75-.33,4.16-1.61,8.13,2.55,11.27,1.63,1.23.7,3.44.98,5.2Z"/>
    <path class="cls-5" d="M237.98,37.95c-3.83,5.41-4.26,5.35-7.31-.1-3.13-5.61-8.11-9.53-12.9-13.61-1.36-1.16-3.25-1.72-4.08-3.49,10.65,2.13,19.01,7.49,24.28,17.21Z"/>
    <path class="cls-8" d="M277.79,160.12c-1.73,1.98-2.45,4.78-4.98,6.11.03-3.26.13-6.52.06-9.78-.05-2.19,1.95-1.9,3.01-2.75,1.75,0,4.73-1.93,3.7,2.38-.59,1.34-1.19,2.69-1.78,4.03Z"/>
    <path class="cls-9" d="M309.64,218.4c.19-.15.37-.3.56-.46-.15.19-.3.38-.45.57,0,0-.1-.11-.1-.11Z"/>
    <path class="cls-7" d="M238.86,365.16c7.48-3.09,14.96-6.15,19.92-13.08,1.65,2.47-1.26,5.6,1.18,7.95-2.81,5.98-9.56,6.54-14.04,10.22-1.85,1.58-3.76,3.09-5.52,4.76-1.33,1.27-4.24,1.33-3.47,4.31-.2.65-1.18,1.36.12,1.91.38.98,1.2.93,2.03.86.83,1.55,2.34.94,3.59,1.15,6.61-2.09,14.63-3.29,16.39-11.08,1.32-5.83,4.38-9.77,7.95-13.85.81.36.84,1.11.94,1.83.41,4.14,2.89,3.45,5.24,1.99,3.32-2.07,5.29-5.33,6.9-8.84.87-1.9,1.32-4.17,3.57-5.65.61,3.35-1.65,5.38-2.1,7.93-.27,1.5-2.59,3.01-.9,4.35,1.6,1.27,2.82-1.01,4.21-1.73,1.14,1.23,1.59,4.1,4.23,1.78,2.84-1.01,3.89-3.82,5.79-5.76,2.8,3.36,4.16.75,5.2-1.46,2.26-4.84,3.16-10,2.92-15.35,1.19-.32,2.69-.12,3.05-1.83,1.55-1.68,3.1-3.35,4.64-5.03.72.57,1.33,1.37,2.43,1.12,3.85.41,7.71.82,11.56,1.24.43.44.85.88,1.28,1.32-4.95,4.76-10.37,8.92-16.08,12.75-1.68,1.12-4.3,2.27-3.88,5.26-5.01,5.44-10.64,10.15-16.86,14.17-6.38.75-12.67,2.04-19.2,1.96-3.53-.05-5.59,3.36-7.19,6.26-2.94,5.33-7.37,8.97-12.72,11.47-3.51,1.64-7.17,2.13-10.8-.36-1.42-.97-3.44-1.06-5.16-1.61-1.41-.45-3.54-1-3.04-2.67,1.57-5.27-1.39-3.67-4.22-3.33-12.83,1.54-25.72,2.91-38.65,2.07-17.37-1.13-34.6-3.05-50.17-12-6.04-3.47-9.91-10.11-8.06-14.97,1.04,1.02,2.08,2.05,3.12,3.07.02,1.28.59,1.97,1.95,1.79,0,0,.07.06.07.06.47,1.94,2.3,2.3,3.71,3.02,7.74,3.91,15.8,7.17,24.17,9.24,18.78,4.65,37.82,4.99,56.8,1.3,6.59-1.28,13.36-2.53,19.11-6.52Z"/>
    <path class="cls-4" d="M105.04,305.26c5.36-7.07,12.54-11.54,20.93-13.86,6.68-1.85,11.04,2.5,14.69,7.17,3.1,3.96,1.83,8.42.27,12.67-.67,1.84-2.17,3.38-2.04,5.53-4.07,2.77-5.97,6.98-7.51,11.42-.32.02-.47.18-.47.5-.34.51-.68,1.01-1.02,1.52,0,0,.02-.02.02-.02-3.27.41-6.22.21-7.08-3.84,1.19-2.73,2.26-5.51,3.59-8.16,1.55-3.09,1.82-6.15.72-10.07-5.18,5.97-11.72,10.5-8.65,19.38-1.28,1.32-2.62,2.56-4.48,3-.92-.08-1.67-.43-2.13-1.27-2.43-6.92-.61-13.62,1.58-20.29-5.03,5.48-6.06,15.18-2.65,20.47-.92,3.3-2.17,1.16-2.69-.03-2.82-6.5-6.47-12.91-2.41-20.32.5-.92,2.55-3.1-.66-3.8Z"/>
    <path class="cls-7" d="M130.9,328.68c0-.32.15-.48.47-.5,5.04.45,8.62-2.73,12.57-5,3.51-2.01,4.61-4.49,1.81-7.91,1.38-1.1,2.75-2.2,4.13-3.3.58-.09,1.15-.18,1.73-.26,10.76,1.26,21.52,2.52,32.27,3.77-.91,2.71-3.33,3.42-5.66,4.1-6.12,1.8-12.29,3.47-18.42,5.25-1.08.31-2.95.23-1.9,2.35-9.45,3.01-19.24,5.28-27.01,12.04.44-1.17.88-2.34,1.48-3.92-5.24,1.99-10.06,3.65-13.87,7.71-8.83,9.39-21.02,11.86-32.74,15.18-1.73.49-3.55.68-5.34.91-2.01.25-3.79.1-3.35-2.72,1.95-.7,3.9-1.4,5.85-2.1,9.76-1.3,18.32-5.8,26.92-10.17,2.95-.51,5.35-1.62,5.67-5.07.13-.59.25-1.19.38-1.78,5.29-1.12,9.6-4.2,14.01-7.07,0,0-.02.02-.02.02.34-.51.68-1.01,1.02-1.52Z"/>
    <path class="cls-10" d="M289.15,366.39c6.21-4.01,11.84-8.72,16.86-14.17,4.22.09,6.07-4.09,9.71-5.3,4.28-1.44,7.94-.9,9.27,2.33-2.05,1.36-4.05,2.8-6.16,4.06-9.89,5.86-20.41,10.76-28.59,19.16-3.51-1.07-6.2,2.01-9.6,1.86-3.01-.13-4.85,1.65-5.53,4.59-3.53,2.09-6.66,4.86-10.64,6.17-.94-.07-2.12.24-.84-1.42,4.14-5.37,9.35-9.04,15.72-11.49,3.49-1.34,8.64-.36,9.82-5.78Z"/>
    <path class="cls-9" d="M325.96,334.22c-.43-.44-.85-.88-1.28-1.32.06-.9.12-1.8.18-2.7,2.66,0,5.31-.02,7.97.02,2.28.04,3.94-.6,4.02-3.25.13-4.46,1.43-8.8,1.06-13.33-.64-7.84.84-15.37,3.51-22.76,1.02-2.82.86-5.96.1-8.84-.68-2.55-3.4-1.41-5.13-2.13-1.26-.53-2.44-1.12-2.57-2.71.64-.27,1.28-.53,1.92-.8,3.47-.51,6.76.48,10.1,1.17-1.34,13.34-2.73,26.67-4.01,40.02-.53,5.59-.6,11.24-1.83,16.76-4.68-.04-9.35-.08-14.03-.12Z"/>
    <path class="cls-7" d="M290.23,372.47c8.19-8.39,18.71-13.3,28.6-19.16,2.11-1.25,4.11-2.7,6.16-4.06,3.89,1.65.39,2.95-.43,3.7-6.31,5.65-13.39,10.28-20.34,15.1-5.04,3.5-10.14,6.7-12.74,13.2-2.43,6.1-8.92,8.65-14.93,10.82-1.5.54-2.97-.16-3.42-2.01.23-.3.46-.61.69-.92,12.39-3.57,15.7-6.94,16.42-16.67Z"/>
    <path class="cls-5" d="M115.89,337.25c-.13.59-.25,1.19-.38,1.78-3.82-1.53-5.14-.35-5.67,5.07-8.6,4.37-17.16,8.87-26.92,10.17-.4-1.1-.8-2.19-1.2-3.29,6.97-6.22,15.36-10.11,23.53-14.37,2.76-1.44,5.08-3.86,8.54-3.66,1.21,1.19,1.63,2.75,2.1,4.29Z"/>
    <path class="cls-7" d="M52.55,337.16c1.72,2.38,4.41,2.77,6.98,3.34,7.06,1.57,14.13,1.45,21.12-.34,2.56-.66,5.18-1.57,5.54-4.88,4.54,2.42,4.99,4.78.87,6.76-11.32,5.43-22.97,5.73-34.56.77-2.76-1.18-3.3-3.66-1.65-6.23.95-1.48,1.06.54,1.69.59Z"/>
    <path class="cls-1" d="M115.89,337.25c-.48-1.54-.9-3.11-2.1-4.29.07-.82.14-1.64.21-2.47,1.86-.44,3.2-1.68,4.48-3,1.47-.31,2.68-1.61,4.35-1.15.86,4.05,3.8,4.24,7.08,3.84-4.41,2.87-8.72,5.95-14.01,7.07Z"/>
    <path class="cls-11" d="M273.81,389.14c-.23.31-.46.61-.69.92-3.8-.07-7.04-1.12-8.67-4.98,3.99-1.3,7.12-4.08,10.65-6.17,1.86.31,1.83,1.09.53,2.17-1.94,1.62-4.5,2.48-6.27,4.89,4.58.07,7.14-4.41,11.66-4.32-1.23,4.01-6.17,3.84-7.21,7.48Z"/>
    <path class="cls-9" d="M74.89,330.35c-3.79.07-3.55-3.06-3.65-5.24-.28-5.99-.16-12.01-.12-18.02.02-2.49.81-4.54,3.73-4.88-2.67,9.39-3.23,18.77.04,28.15Z"/>
    <path class="cls-7" d="M110.8,329.41c-3.42-5.3-2.39-15,2.65-20.47-2.19,6.67-4.01,13.36-1.58,20.29-.36.06-.71.13-1.06.19Z"/>
    <path class="cls-10" d="M81.72,350.99c.4,1.1.8,2.19,1.2,3.29-1.95.7-3.9,1.4-5.85,2.1-2.15-.4-2.3-1.47-.87-2.88,1.51-1.49,3.33-2.44,5.51-2.51Z"/>
    <path class="cls-9" d="M78.07,331.04c-.42-.05-.85-.1-1.27-.16.5-.53.91-.4,1.27.16Z"/>
    <path class="cls-4" d="M172.58,158.91c-.9-5.17-1.84-10.33-2.69-15.51-.29-1.79-.52-3.64,1.44-4.83,5.29-3.21,7.47-8.52,9.42-13.99,2.24-1.81,4.83-1.58,7.44-1.29,7.99,5.23,16.23,9.76,26.24,9.21,1.27-.07,2.66.38,4.06-.97-.87-2.17-3.9-3.06-4.08-6.74,7.08,4,14.51,3.69,21.92,3.52,1.16-.03,2.39-.33,3.48-.07,3.48.82,7.61-4.98,10.27.33,1.85,3.7,5.97,5.4,7.04,9.46.07,1.31-.22,2.79.29,3.91,3.69,8.14,3.87,16.74,3.48,25.4-.63,14.16-13.65,34.75-29.14,36.96-1.66.24-3.28.69-3.93,2.56-5.99.82-11.9-.49-17.86-.63-1.56-.87-3.22-1.3-5.01-1.16-2.35-3.41-6.48-4.32-9.63-6.65-8.85-6.53-13.89-15.35-17.45-25.33-.8-5.08-4.38-9.13-5.28-14.18ZM238.74,157.45c.03-4.5-2.8-8.4-5.77-8.24-3.15.17-4.71,2.28-4.89,5.25-.24,3.84,2.58,7.87,5.46,7.8,3.41-.08,5.03-2.13,5.21-4.81ZM184.84,162.38c-.04,4.69,2.69,8.02,5.9,8.12,3.6.11,4.47-2.45,4.72-5.14.34-3.62-2.81-7.36-5.9-7.31-3.29.05-4.59,2.11-4.72,4.33ZM217.06,190.28c7.22-.56,13.73-2.51,17.48-9.5.65-1.21,2.25-2.95.56-3.92-1.77-1.02-2.3,1.34-2.98,2.48-3.55,5.98-9.15,7.8-15.63,7.96-2.2.05-5.86-2.74-6.18.47-.27,2.7,4.21,1.96,6.75,2.51ZM205.33,157.77c-.81,3.95-1.69,7.89-2.39,11.86-.58,3.3.52,6.24,3.74,7.27,3.55,1.14,7.26.89,10.13-2.12.39-.41.75-1.27.58-1.72-.36-.95-1.3-.74-2.11-.49-.79.25-1.57.54-2.36.78-5.28,1.6-6.74.32-7.05-5.27-.19-3.44,2.12-6.72-.54-10.31ZM239.88,138.5c-.16-1.13-.91-1.77-1.75-2.33-3.16-2.14-12.5-1.12-15.06,1.63-.68.74-1.43,1.51-.87,2.59.69,1.33,1.87,1.23,2.98.64,3.92-2.05,7.83-3.57,12.21-1.19,1.2.65,2.24.13,2.47-1.35ZM186.75,144.21c-3.46.11-6.51,2.01-9.08,4.77-.96,1.03-2.58,2.24-.98,3.74,1.32,1.25,2.42-.12,3.33-1.05,2.06-2.12,4.47-3.37,7.49-3.44,1.55-.04,3.89.43,3.7-2.04-.16-2.1-2.32-1.96-4.46-1.98Z"/>
    <path class="cls-8" d="M345.84,277.57c-3.33-.69-6.63-1.68-10.1-1.17-5.02-.16-6.38-3.07-7.14-7.73-1.98-12.12-5.67-23.82-10.81-35.01-.74-1.61-1.03-3.56-2.94-4.4-.15-.86-.31-1.73-.47-2.59.88-1.22,2.29-1.82,3.51-1.32,7.84,3.25,16.67,2.76,24.34,6.56,7.88,3.9,7.12,4.44,6.45,15.09-.64,10.21-1.87,20.39-2.85,30.58Z"/>
    <path class="cls-10" d="M202.91,266.24c2.24,7.73,1.84,15.77,2.73,23.66.87,7.73.83,15.57,1.18,23.36-3.56-.21-7.05-.8-10.68-.72-2.83.06-5.68.59-8.68.29-8.85-.88-17.08-6.27-26.39-3.65-1.47.42-2.93-.31-4.26-1.03,1.34-.96,2.62-2.03,4.04-2.87,16.86-9.97,31.93-21.84,42.07-39.05Z"/>
    <path class="cls-5" d="M314.85,229.26c1.91.84,2.2,2.79,2.94,4.4,5.14,11.19,8.83,22.89,10.81,35.01.76,4.66,2.12,7.57,7.14,7.73-.64.27-1.28.53-1.92.8-2.53-.29-3.86.32-4.06,3.37-.43,6.41-.97,12.99-3.87,18.78-5.15,10.25-2.84,20.5-1.02,30.85-.06.9-.12,1.8-.18,2.7-3.86-.41-7.71-.82-11.57-1.23,2.67-5.81,5.9-11.4,7.38-17.72-4.21,5.03-6.91,10.87-9.81,16.6-1.55,1.68-3.1,3.35-4.64,5.03-1.36-3.45-2.72-6.9-4.07-10.34,3.24-2.03,4.26-5.67,5.97-8.69,5.71-10.09,11.48-20.3,13.86-31.75,3.14-15.13.6-29.9-4.24-44.41-1.2-3.59-3.68-6.97-2.71-11.12Z"/>
    <path class="cls-5" d="M202.91,266.24c-10.13,17.21-25.21,29.08-42.07,39.05-1.42.84-2.69,1.91-4.03,2.87-1.7,1.24-4.4,1-5.2,3.55-.58.09-1.15.18-1.73.27-1.62-3.78-.73-8.15-2.81-11.82,2.48.5,4.06-1.36,5.79-2.45,13.47-8.49,26.96-17.01,35.88-30.79,4.66-7.2,8.9-14.64,11.81-23.92,1.26,8.48,2.67,15.77,2.35,23.24Z"/>
    <path class="cls-5" d="M254.92,323.83c18.83-14.59,26.14-34.77,28.01-57.61.33-4.08,1.27-8.14.45-12.26,1.8.65,2.23,2.06,2.59,3.84,1.12,5.5,2.31,11,3.85,16.39,1.45,5.05,1.29,9.58-1.41,14.3-2.86,5.01-5.2,10.36-7.39,15.71-2.55,6.24-5.87,12.21-6.93,19l-.18.24h-2.13c0,.19,0,.37,0,.56h2.1c.04.37.08.75.12,1.12-.84.23-1.67.45-2.51.67-5.55-.37-11.14-.46-16.56-1.97Z"/>
    <path class="cls-5" d="M233.76,339.23c4.46.48,6.83,3.9,7.77,7.38,1.03,3.8-2.37,6.14-5.41,8.05-7.6,4.79-16.13,6.65-24.88,7.43-6.4.57-12.9-.39-19.28,1.04-1.11.25-2.35.13-3.02-1.14,3.38-3.35,8.9-3.17,11.89-7.18,2,.36,3.51-.55,4.86-1.87,1.6.37,2.52-.46,3.16-1.79.33-.32.67-.65,1-.97,8.28-2.99,16.45-6.2,23.92-10.94Z"/>
    <path class="cls-14" d="M238.4,226.72c-2.67,2.32-2.93,5.83-4.18,8.81-2.58,6.15-6.85,10-13.32,11.46-1.18.21-2.37.41-3.56.62-1.01-.51-1.27-1.47-1.47-2.47.22-.44.58-.88.62-1.34.81-8.28,3.04-15.86,10.19-21.08.25-.18.07-.94.1-1.43,1.38-.64,4,3.59,3.6.33-.57-4.69.78-7.82,3.41-11.03,3.04-.03,5.93-2.63,9.1-.53-1.19,4.08-3.97,7.56-4.26,12.01-.12,1.83-1.86,2.34-3.4,2.06-5.5-.96-8.16,2.99-10.73,6.5-1.15,1.56-3.12,4.53-.64,6.14,2.21,1.43,3.52-1.68,5.01-3.02.96-.86,1.68-2.06,2.26-3.23,1.52-3.08,3.99-4.16,7.26-3.79Z"/>
    <path class="cls-15" d="M259.96,360.03c-2.44-2.35.47-5.49-1.18-7.95.95-3.86.11-7.57-.93-11.26-.06-2.69-1.28-4.33-4.11-4.49,0,0,.14.04.13.04-1.07-1.2-1.33-3.89-3.98-2.18-.86.09-1.55-.18-1.98-.98-.68-.32-1.36-.65-2.04-.97-.83.1-1.55-.05-2.01-.85-.68-4.2,1.23-6.51,6.04-6.06,7.06.66,14.05,1.97,21.08,3.01-3.57,5.2-6.44,10.7-6.85,17.13-.2,3.13-1.33,6.91,3.64,7.69.1.63.2,1.27.31,1.9-2.71,1.66-5.41,3.31-8.12,4.97Z"/>
    <path class="cls-5" d="M157,357.16c-4.41-.54-7.01-3.85-9.25-6.97-2.45-3.41-.48-6.67,2.43-9.04,4.21-3.44,9.25-5.06,14.53-5.92,6.15-.99,12.32-1.85,18.49-2.76-.36,1.21-.71,2.42-.25,3.69-4.97,2.04-9.98,4-14.89,6.16-2.24.99-5.48,1.17-5.14,4.93-1.7,1.23-3.91,2.39-3.78,4.7.13,2.28-1.13,3.61-2.13,5.22Z"/>
    <path class="cls-10" d="M215.87,245.14c.2.99.46,1.96,1.47,2.47-2.17,4.67-.41,9.43-.06,14.07.9,12.08,2.39,24.12,3.52,36.18.51,5.46.76,10.94,1.06,16.41.06,1.09.31,2.65-1.35,2.71-1.61.06-1.49-1.43-1.6-2.58-1.3-13.72-2.63-27.43-3.9-41.15-1.12-12.06-2.02-24.15-3.31-36.19-.85-7.94,1.46-11.78,9.16-13.92.66.65.36,1.18-.25,1.59-5.58,3.8-7.43,11.65-4.75,20.4Z"/>
    <path class="cls-10" d="M238.86,365.16c-5.74,4-12.51,5.25-19.11,6.52-18.98,3.68-38.02,3.34-56.8-1.3-8.37-2.07-16.43-5.34-24.17-9.24-1.41-.71-3.24-1.08-3.71-3.02,9.61,3.51,19.1,7.56,29.18,9.42,13.38,2.46,26.88,3.28,40.55,2.2,11.25-.89,22.43-1.7,33.27-5.08.19-.06.52.33.78.5Z"/>
    <path class="cls-10" d="M157,357.16c1-1.61,2.27-2.94,2.13-5.22-.14-2.3,2.07-3.47,3.78-4.7,5.67.32,11.53.26,14.12,6.89.86,3.67.26,6.71-3.91,7.72-3.27.79-6.25-1.78-9.77-1.34,5.09,4.83,11.4,5.1,17.12.71,4.76-3.66,10-6.46,15.36-9.09.51,3.05,3.69,1.11,5,2.68-2.99,4-8.5,3.83-11.88,7.18-3.79,1.13-7.59,2.24-11.37,3.38-8.21,2.49-16.08-.65-20.58-8.21ZM171.08,352.03c-2.03-1.75-4.4-2.5-6.88-1.42-2.69,1.18-3.82,2.85-.34,4.67,1.38,4.17,5.83,2.94,8.63,4.68,1.44.9,2.78-1.43,2.42-3.27-.42-2.14-1.27-4.16-3.83-4.66Z"/>
    <path class="cls-15" d="M157.92,327.19c-1.05-2.13.82-2.04,1.9-2.35,6.13-1.78,12.3-3.45,18.42-5.25,2.33-.68,4.75-1.39,5.66-4.1,7.72.91,15.44,1.82,23.17,2.74.49.85,4.24,0,1.57,2.34-2.28,2-4.91,3.94-8.42,3.62-14.26-1.32-28.34-.11-42.29,3.01Z"/>
    <path class="cls-10" d="M274.08,323.21c1.06-6.79,4.38-12.76,6.93-19,2.19-5.35,4.53-10.7,7.39-15.71,2.7-4.72,2.86-9.26,1.41-14.3-1.54-5.39-2.73-10.89-3.85-16.39-.36-1.78-.79-3.19-2.59-3.84-.02-.81-.04-1.61-.07-2.42.53-.11,1.06-.21,1.6-.31,4.98,7.9,6.81,16.8,8.25,25.83-.18,1.54-.8,3.18,1.03,4.23-1.78,7.99-6.3,14.86-9.19,22.4-1.88,4.92-4.08,9.71-6.13,14.56-2.19,1.07-2.07,4.38-4.78,4.95Z"/>
    <path class="cls-13" d="M188.58,330.01c6.36-4.84,13.78-3.68,18.5,2.87.3.44.61.88.91,1.31,0,0-.03-.05-.03-.05.31.33.62.66.93.98.15.27.21.57.17.88-.13,1.51-.51,3.08.83,4.31,0,.59,0,1.18.01,1.77-.77.52-.97,1.29-.94,2.16.73,3.08-3.66,3.78-3.15,6.76l-.13.11c-.84,0-1.68.01-2.52.02-1.15-1.33-1.22-2.93-1.29-4.61-.31-7.39-4.32-12.42-11.68-14.25-1.62-.4-1.72-1.05-1.61-2.27Z"/>
    <path class="cls-9" d="M207.05,318.21c-7.72-.91-15.44-1.83-23.17-2.74-10.76-1.25-21.51-2.51-32.27-3.77.8-2.56,3.5-2.32,5.2-3.55,1.33.72,2.78,1.44,4.26,1.03,9.31-2.62,17.54,2.77,26.39,3.65,3,.3,5.85-.23,8.68-.29,3.64-.08,7.13.51,10.68.72.08,1.65.15,3.31.23,4.96Z"/>
    <path class="cls-6" d="M233.8,210.6c-2.64,3.21-3.99,6.34-3.41,11.03.4,3.25-2.22-.97-3.6-.33-1.34-.12-2.33-.83-3.16-1.83.37-1.43.79-2.85,1.09-4.3.27-1.34-.43-2.28-1.65-2.67-1.28-.41-2.39.16-2.77,1.4-.33,1.07-.24,2.27-.34,3.41-3.29-.77-5.33-3.46-7.99-5.2-.77-1.92-2.46-3.54-2-5.88,5.96.14,11.87,1.45,17.86.63.36.43.72.86,1.09,1.29.63,2.83,2.93,2.3,4.89,2.44Z"/>
    <path class="cls-9" d="M274.08,323.21c2.71-.58,2.59-3.88,4.78-4.95,3.11-.03,6.24.07,9.34-.13,6.07-.4,10.27,2.64,13.77,7.12,1.36,3.45,2.72,6.89,4.07,10.34-.36,1.71-1.86,1.51-3.05,1.83-.99-2.31-1.26-5.09-4.07-6.2-5.19-9.41-12.6-11.6-22.08-6.63-.82.43-1.9.38-2.86.55-.04-.37-.08-.75-.12-1.12.03-.18.05-.37.04-.56l.18-.24Z"/>
    <path class="cls-5" d="M232.08,327.68c-.08,1.97-.16,3.93-.23,5.9-6.73,3.62-13.46,7.25-20.19,10.88-.03-1.83.03-3.69-1.09-5.29.05-.32.17-.6.35-.86,2.77-5.13,8.68-5.49,12.91-8.41,2.58-1.78,5.69-2.79,7.23-5.83,1.54.87.95,2.34,1.02,3.62Z"/>
    <path class="cls-7" d="M232.08,327.68c-.07-1.28.52-2.75-1.02-3.62-1.99-3-.01-2.8,2.06-2.58,7.27.79,14.53,1.57,21.8,2.36,5.42,1.5,11.01,1.6,16.56,1.96.57.99.4,1.83-.5,2.54-7.02-1.04-14.02-2.35-21.08-3.01-4.81-.45-6.72,1.86-6.04,6.06-3.93-1.24-7.85-2.47-11.78-3.71Z"/>
    <path class="cls-10" d="M211.66,344.45c6.73-3.63,13.46-7.25,20.19-10.88,5.39.27,1.95,3.54,1.91,5.65-7.47,4.74-15.65,7.95-23.92,10.94l-.34-.27,2.16-5.45Z"/>
    <path class="cls-5" d="M211.96,212.12c2.66,1.74,4.7,4.43,7.99,5.2.82,1.41,2.28,1.73,3.67,2.15.83,1,1.82,1.71,3.16,1.83-.02.49.15,1.25-.1,1.43-7.16,5.22-9.39,12.8-10.19,21.08-.04.46-.41.89-.62,1.34-2.69-8.75-.83-16.6,4.75-20.4.6-.41.9-.95.25-1.59-.06-2.17-2.06-2.22-3.34-3.08-2.87-1.93-5.55-4.02-5.57-7.95Z"/>
    <path class="cls-7" d="M188.58,330.01c-.11,1.22-.01,1.86,1.61,2.27,7.36,1.83,11.38,6.86,11.68,14.25.07,1.67.13,3.27,1.28,4.61-4.85,3.17-3.92-1.25-4.64-3.52-.09-1.19.02-2.43-.99-3.35-.83-4.93-4.45-7.03-8.65-8.55.05-.63,2.5-.53.52-1.8-1.46-.94-3.69-.49-4.53-2.52,1.24-.46,2.48-.93,3.71-1.39Z"/>
    <path class="cls-5" d="M264.85,295.87c-.76,2.41-1.59,4.58-4.59,4.36-2.96-.21-4.47-1.89-4.34-4.83.1-2.47,1.51-4.13,3.99-4.07,2.81.07,4.23,2.06,4.94,4.54Z"/>
    <path class="cls-5" d="M231.6,302.17c-2.8-.4-4.43-1.97-4.62-4.53-.2-2.76,1.5-4.22,4.19-4.42,2.96-.22,4.31,1.82,4.48,4.21.19,2.62-1.91,3.93-4.06,4.74Z"/>
    <path class="cls-10" d="M260.88,264.06c-.29,2.31-1.36,4.22-3.99,4.09-2.56-.12-4.6-1.78-4.38-4.4.2-2.34,1.71-4.55,4.6-4.3,2.52.22,3.61,2.08,3.77,4.61Z"/>
    <path class="cls-5" d="M227.77,261.22c2.93.36,4.66,2.35,4.7,4.91.04,2.24-2,3.99-4.32,3.9-2.16-.09-4.2-1.19-4.29-3.93-.09-2.73,1.23-4.33,3.91-4.88Z"/>
    <path class="cls-5" d="M294.19,281.29c-1.83-1.04-1.21-2.69-1.03-4.23,2.77.39,4.98-1.71,7.6-1.77,2.66-.07,5.59-.84,8.32,2.44-5.47.57-10.36,1.44-14.88,3.56Z"/>
    <path class="cls-8" d="M184.86,331.4c.84,2.03,3.07,1.58,4.53,2.52,1.98,1.27-.47,1.17-.52,1.8-1.93.77-3.94.47-5.93.43-.46-1.27-.11-2.48.25-3.69.56-.35,1.11-.71,1.67-1.06Z"/>
    <path class="cls-7" d="M253.74,336.32c2.83.16,4.05,1.8,4.11,4.49-1.64-1.25-3.53-2.28-4.11-4.49Z"/>
    <path class="cls-7" d="M249.89,334.18c2.66-1.71,2.91.98,3.98,2.18-1.83.18-2.9-1.01-3.98-2.18Z"/>
    <path class="cls-5" d="M284.91,251.23c-.53.1-1.07.21-1.6.31-.15-1.03-1.07-2.56.67-2.72,1.14-.1.74,1.52.93,2.4Z"/>
    <path class="cls-7" d="M210.92,338.3c-.19.26-.31.55-.35.86-.23.39-.45.77-.68,1.16-1.34-1.23-.96-2.79-.83-4.31.62.76,1.25,1.52,1.87,2.29Z"/>
    <path class="cls-10" d="M135.01,358.06c-1.36.18-1.93-.52-1.95-1.79,1.16.04,1.85.6,1.95,1.79Z"/>
    <path class="cls-7" d="M245.87,332.23c.68.32,1.36.65,2.04.97-.68-.32-1.36-.65-2.04-.97Z"/>
    <path class="cls-7" d="M207.98,334.2c-.3-.44-.61-.88-.91-1.31.3.44.61.88.91,1.31Z"/>
    <path class="cls-7" d="M208.88,335.13c-.31-.33-.62-.66-.93-.98.63.03.93.37.93.98Z"/>
    <path class="cls-1" d="M86.72,274.35c2.11,14.83-6.94,21.77-17.19,24.31-3.35.83-7.09-.99-10.15-3.68-5.44-4.81-8.38-10.56-8.56-17.78-.05-1.87-.19-3.75,2.2-4.38-.02.22.08.33.3.33-.21,1.31-.31,2.62.33,3.86-.44,7.59,3.27,14.07,8.89,15.53,2.44.27,4.87.74,7.31.76,5.85.05,10.77-3.13,11.88-7.79.68-2.85.81-5.83,1.18-8.76,1.27-.8,2.53-1.6,3.8-2.4Z"/>
    <path class="cls-2" d="M53.02,272.81c.62-4.22,1.27-8.43,1.86-12.65.19-1.33.13-2.76,2.02-2.8,1.96-.04,2.47,1.48,2.87,2.9,2.25,7.96,2.23,8.06,10.69,7.96,4.36-.05,8.49.9,12.67,1.87,1.62.38,2.88.79,2.72,2.77-8.16-2.13-16.42-2.86-24.83-1.85-1.75.21-3.26.41-3.77,2.4-1.32-.09-2.63-.18-3.94-.26-.22,0-.33-.1-.3-.33Z"/>
    <path class="cls-10" d="M81.94,249.26c.36,2.52-1.48,3.28-3.28,3.44-7.09.64-14.2,1.14-21.25-.47-.77-.18-1.82-.05-1.89-1.16-.06-.94.74-1.46,1.51-1.75,3.76-1.42,7.76-1.8,11.66-1.7,4.42.11,8.81,1.04,13.22,1.61l.03.03Z"/>
    <path class="cls-12" d="M57.27,273.41c.5-1.99,2.01-2.19,3.76-2.4,8.41-1.01,16.66-.28,24.83,1.85.29.5.57,1,.86,1.49-1.27.8-2.53,1.6-3.8,2.4-.35.05-.69.1-1.04.15-.25-2.23-1.33-3.41-3.7-3.86-6.92-1.31-13.71-1.43-20.38,1.16-.1-.33-.27-.59-.53-.79Z"/>
    <path class="cls-15" d="M228.91,208.15c-.36-.43-.73-.86-1.09-1.29.64-1.88,2.26-2.33,3.93-2.57,15.48-2.21,28.5-22.8,29.14-36.96.39-8.66.2-17.26-3.48-25.4-.51-1.12-.21-2.6-.29-3.91,2.54,0,4.11,2.03,6.16,3.05,2.42,1.21,3.49,1.2,3.59-1.96.15-4.82,1.76-9.07,6.05-11.86,2.3,1.84,5.56.56,7.95,3.18,5.12,5.61,5.21,13.05-.33,18.29-1.63,1.55-4.01,2.47-4.66,4.96-1.06.85-3.06.55-3.01,2.75.07,3.26-.03,6.52-.06,9.78-3.36,5.45-5.38,11.42-6.85,17.6-1.67,1.83-3.38,3.62-5.01,5.48-4.33,4.95-8.62,9.94-12.93,14.91-1.51-.82-.93.48-1.08,1.06h0c-6.04.75-11.68,4.04-18.03,2.87ZM270.91,142.34c.51.92-.81,3.14,1.15,3.49,2.63.48,1.7-2.26,2.23-3.53,1.03-2.45.58-5.73,4.22-6.52.59-.13,1.12-.76.9-1.53-.29-1.03-1.23-.93-2.02-.96-3.12-.11-6.22,4.08-6.48,9.05Z"/>
    <path class="cls-6" d="M248.01,204.22c4.31-4.97,8.6-9.95,12.93-14.91,1.63-1.86,3.34-3.66,5.01-5.48,1.56,3.04,5.53,3.48,7.06,6.55,1.32,5.55.07,10.26-4.44,14-.68.57-.47,1.52.04,2.27,0,0-.29.32-.29.32-.81-.25-1.62-.5-2.44-.74-.02-1.85-.07-3.73-2.57-3.83-1.05-.04-2.08.65-2,1.68.22,2.63,2.4,2.01,4.08,2.13.16.01.32.01.48.02-2.64,2.48-4.49,6.12-8.86,6.07-1.46-.59-2.91-1.95-4.26.29-1.8,2.98,1.93,2.33,2.39,3.8-1.52.91-3.03,1.82-4.55,2.73-1.83.39-4.53-.73-5.18,1.74-.59,2.24,1.88,3.17,3.39,4.36.78.61,1.66,1.12,2.32,1.84,1.9,2.08,3.59,4.37,3.53,7.34-.02,1.01-1.06,1.75-2.14,1.69-3.32-.21-4.69-2.64-5.87-5.3-1.37-3.12-3.24-5.47-7.19-4.28-.36.07-.72.14-1.07.2-3.27-.37-5.74.72-7.26,3.79-.58,1.17-1.3,2.38-2.26,3.23-1.5,1.34-2.8,4.45-5.01,3.02-2.49-1.61-.51-4.58.64-6.14,2.58-3.5,5.23-7.46,10.73-6.5,1.55.27,3.29-.23,3.4-2.06.29-4.44,3.07-7.93,4.26-12,2.05-.99,3.29-2.68,4.03-4.78,0,0,0,0,0,0,.36-.35.72-.7,1.08-1.06ZM250.17,206.28c-1.31.48-2.63,1.33-3.13,3.03-.27.93.33,1.86,1.19,1.52,1.56-.61,3.71-.76,4.18-2.78.25-1.05-.86-1.59-2.25-1.76Z"/>
    <path class="cls-14" d="M239.46,226.52c3.95-1.2,5.82,1.16,7.19,4.28,1.17,2.66,2.55,5.09,5.87,5.3,1.08.07,2.12-.68,2.14-1.69.06-2.98-1.63-5.26-3.53-7.34-.66-.72-1.54-1.23-2.32-1.84-1.51-1.19-3.99-2.12-3.39-4.36.65-2.47,3.36-1.35,5.18-1.74-.13,2.49,2.65,2.97,3.38,4.86.33.4.66.8.99,1.2,0,0,0,0,0,0-.06.9.08,1.68,1.14,1.91,0,0-.05-.02-.05-.02.32.35.65.71.97,1.06,0,0,0,.02,0,.02,0,5.4,2.46,10.82-.21,16.18-8.11-1.59-12.33-7.48-15.71-14.27-.58-1.17-1.1-2.37-1.65-3.55Z"/>
    <path class="cls-8" d="M268.61,206.66c-.51-.75-.72-1.71-.04-2.27,4.5-3.74,5.75-8.45,4.44-14,2.06.04,2.88,1.85,4.2,2.94-.54,5.95-4.15,9.91-8.6,13.34Z"/>
    <path class="cls-7" d="M256.82,244.34c2.67-5.36.21-10.79.21-16.18,3.74,4.43,3.97,10.01,4.21,15.26.16,3.63-2.67,1.65-4.42.92Z"/>
    <path class="cls-8" d="M265.88,206.23c.81.25,1.62.49,2.44.74-2.27,4.87-7.11,6.32-11.36,8.53.02-1.07.04-2.13.06-3.2,4.37.05,6.21-3.6,8.86-6.07h0Z"/>
    <path class="cls-14" d="M257.02,212.31c-.02,1.07-.04,2.13-.06,3.2-.4.7-1.04.92-1.8.89-.46-1.47-4.19-.82-2.39-3.8,1.35-2.24,2.8-.89,4.26-.29Z"/>
    <path class="cls-7" d="M256.11,227.1c-1.06-.23-1.19-1.02-1.14-1.91.84.36,1.18,1.03,1.14,1.91Z"/>
    <path class="cls-7" d="M257.03,228.14c-.33-.35-.65-.71-.97-1.06.65.05.92.46.97,1.06Z"/>
    <path class="cls-7" d="M254.97,225.19c-.33-.4-.66-.8-.99-1.2.33.4.66.8.99,1.2Z"/>
    <path class="cls-1" d="M145.76,315.27c2.8,3.42,1.69,5.9-1.81,7.91-3.96,2.27-7.54,5.45-12.57,5,1.54-4.44,3.44-8.64,7.51-11.42,2.15-1.13,4.36-2.01,6.87-1.5Z"/>
    <path class="cls-15" d="M172.58,158.91c.9,5.05,4.48,9.1,5.28,14.18-8.84-3.04-13.75-12.2-10.7-19.98,1.82,1.92,2.48,4.92,5.41,5.8Z"/>
    <path class="cls-4" d="M270.98,328.33c.9-.7,1.07-1.55.5-2.54.83-.22,1.67-.44,2.5-.67.96-.17,2.04-.12,2.86-.55,9.48-4.97,16.89-2.77,22.08,6.63,1.71,6.73-.12,12.82-3.24,18.74-.65,1.23-.56,2.84-.81,4.28-1.91,1.94-2.96,4.75-5.8,5.77.01-3.23,3.53-5.8,1.97-9.91-2.94,2.51-4.2,5.6-6.19,8.13-1.38.73-2.61,3-4.21,1.73-1.69-1.34.63-2.85.9-4.35.46-2.54,2.71-4.58,2.1-7.93-2.25,1.48-2.7,3.75-3.57,5.65-1.61,3.51-3.58,6.77-6.9,8.84-2.34,1.46-4.82,2.15-5.24-1.99,1.09-1.1,1.8-2.38,1.79-3.97,2.84-5.34,4.42-11.03,4.27-17.29-2.08,4.75-4.16,9.51-6.24,14.26-4.96-.78-3.83-4.56-3.64-7.69.41-6.43,3.28-11.93,6.85-17.13Z"/>
    <path class="cls-10" d="M259.96,360.03c2.71-1.66,5.41-3.31,8.12-4.97.14.37.27.73.41,1.1-.49.72-.98,1.44-1.47,2.16-3.56,4.08-6.63,8.02-7.95,13.85-1.76,7.79-9.78,8.98-16.39,11.08,1.93-2.88,6.35-2.88,7.67-6.56-1.51-.99-2.91-.17-4.31-.02-.09-.55-.18-1.1-.28-1.65.06-.27.12-.53.19-.8,1.79-1.34-.51-2.64-.04-3.97,4.48-3.68,11.24-4.24,14.04-10.22Z"/>
    <path class="cls-15" d="M294.87,354.22c.25-1.44.16-3.05.81-4.28,3.12-5.92,4.95-12.01,3.24-18.74,2.81,1.11,3.08,3.89,4.07,6.2.23,5.35-.66,10.51-2.92,15.35-1.04,2.22-2.39,4.82-5.2,1.46Z"/>
    <path class="cls-10" d="M310.69,330.55c2.9-5.73,5.6-11.57,9.81-16.6-1.49,6.32-4.71,11.91-7.38,17.72-1.09.24-1.71-.55-2.43-1.12Z"/>
    <path class="cls-15" d="M284.86,358.21c1.99-2.53,3.26-5.62,6.19-8.13,1.56,4.11-1.96,6.68-1.97,9.91-2.63,2.32-3.08-.55-4.22-1.78Z"/>
    <path class="cls-11" d="M246.04,376.67c1.4-.15,2.8-.97,4.31.02-1.32,3.68-5.74,3.68-7.67,6.56-1.26-.21-2.77.4-3.6-1.15,2.49-1.59,5.63-2.35,6.96-5.43Z"/>
    <path class="cls-3" d="M245.91,370.25c-.46,1.33,1.83,2.63.04,3.97-.36.34-.72.69-1.09,1.03l.07-.05c-.88-.04-1.68.07-2.06,1.03,0,0,.04-.03.04-.03-.34.35-.69.69-1.03,1.04l.04-.03c-.88-.06-1.64.12-2.04,1.03l.04-.03c-1,.37-1.99.74-2.99,1.12-.78-2.97,2.14-3.04,3.47-4.31,1.76-1.68,3.67-3.18,5.52-4.76Z"/>
    <path class="cls-3" d="M246.04,376.67c-1.33,3.08-4.47,3.84-6.96,5.43-.83.07-1.64.11-2.03-.86,1.2-.78,2.88-1.1,2.87-3.03,0,0-.04.03-.04.03.9.09,1.63-.15,2.04-1.03,0,0-.04.03-.04.03.34-.35.69-.69,1.03-1.04,0,0-.04.03-.04.03.91.1,1.59-.25,2.06-1.03,0,0-.07.05-.07.05.3-.05.6-.13.89-.23.09.55.18,1.1.28,1.65Z"/>
    <path class="cls-12" d="M239.92,378.21c.02,1.93-1.67,2.25-2.87,3.03-1.3-.56-.32-1.26-.12-1.91,1-.37,1.99-.74,2.99-1.12Z"/>
    <path class="cls-15" d="M267.01,358.32c.49-.72.98-1.44,1.47-2.16.42,0,.84.01,1.25.02,0,1.6-.7,2.87-1.79,3.97-.1-.72-.12-1.48-.93-1.84Z"/>
    <path class="cls-7" d="M122.83,326.34c-1.67-.46-2.88.83-4.35,1.15-3.07-8.88,3.48-13.41,8.65-19.38,1.1,3.93.84,6.99-.72,10.07-1.33,2.65-2.4,5.44-3.59,8.16Z"/>
    <path class="cls-1" d="M130.9,328.68c-.34.51-.68,1.01-1.02,1.52.34-.51.68-1.01,1.02-1.52Z"/>
    <path class="cls-10" d="M109.84,344.1c.53-5.42,1.85-6.6,5.67-5.07-.32,3.45-2.72,4.56-5.67,5.07Z"/>
    <path class="cls-5" d="M273.81,389.14c1.03-3.64,5.97-3.47,7.21-7.48-4.52-.1-7.08,4.39-11.66,4.32,1.77-2.41,4.33-3.27,6.27-4.89,1.31-1.09,1.33-1.86-.53-2.17.67-2.94,2.51-4.72,5.53-4.59,3.4.15,6.09-2.93,9.6-1.86-.72,9.74-4.03,13.1-16.42,16.67Z"/>
    <path class="cls-10" d="M324.87,330.21c-1.82-10.35-4.13-20.6,1.02-30.85,2.91-5.79,3.45-12.37,3.87-18.78.2-3.05,1.54-3.66,4.06-3.37.13,1.59,1.3,2.19,2.56,2.71,1.73.72,4.46-.42,5.13,2.13.76,2.88.92,6.02-.1,8.84-2.67,7.38-4.15,14.91-3.51,22.76.37,4.52-.92,8.87-1.06,13.33-.08,2.65-1.74,3.29-4.02,3.25-2.66-.04-5.31-.02-7.97-.02Z"/>
    <path class="cls-8" d="M238.74,157.45c-.17,2.68-1.79,4.73-5.21,4.81-2.88.06-5.7-3.96-5.46-7.8.19-2.98,1.74-5.08,4.89-5.25,2.97-.16,5.8,3.75,5.77,8.24Z"/>
    <path class="cls-8" d="M184.84,162.38c.13-2.22,1.43-4.28,4.72-4.33,3.09-.05,6.24,3.7,5.9,7.31-.25,2.69-1.12,5.25-4.72,5.14-3.2-.1-5.94-3.43-5.9-8.12Z"/>
    <path class="cls-8" d="M217.06,190.28c-2.55-.55-7.03.19-6.75-2.51.32-3.22,3.99-.42,6.18-.47,6.49-.16,12.08-1.97,15.63-7.96.68-1.14,1.21-3.5,2.98-2.48,1.69.97.09,2.71-.56,3.92-3.76,6.99-10.26,8.94-17.48,9.5Z"/>
    <path class="cls-15" d="M205.33,157.77c2.66,3.59.35,6.87.54,10.31.3,5.59,1.77,6.87,7.05,5.27.79-.24,1.57-.53,2.36-.78.81-.26,1.75-.46,2.11.49.17.45-.18,1.31-.58,1.72-2.87,3.01-6.58,3.27-10.13,2.12-3.23-1.04-4.33-3.97-3.74-7.27.7-3.97,1.59-7.91,2.39-11.86Z"/>
    <path class="cls-8" d="M239.88,138.5c-.23,1.49-1.27,2.01-2.47,1.35-4.39-2.38-8.3-.86-12.21,1.19-1.11.58-2.28.69-2.98-.64-.57-1.08.18-1.86.87-2.59,2.55-2.76,11.89-3.78,15.06-1.63.83.57,1.59,1.2,1.75,2.33Z"/>
    <path class="cls-8" d="M186.75,144.21c2.14.02,4.3-.12,4.46,1.98.19,2.47-2.14,2-3.7,2.04-3.02.08-5.43,1.33-7.49,3.44-.91.94-2.01,2.3-3.33,1.05-1.6-1.5.02-2.71.98-3.74,2.57-2.76,5.62-4.66,9.08-4.77Z"/>
    <path class="cls-10" d="M273.9,323.44c0,.19,0,.38-.04.56-.7,0-1.4,0-2.1,0,0-.19,0-.37,0-.56h2.13Z"/>
    <path class="cls-15" d="M198.52,347.62c.71,2.27-.21,6.69,4.64,3.52.84,0,1.68-.01,2.52-.02,0,.61,0,1.21,0,1.82-1.35,1.33-2.86,2.23-4.86,1.87-1.31-1.57-4.49.37-5-2.68.55-1.71,1.03-3.47,2.69-4.52Z"/>
    <path class="cls-10" d="M205.69,352.94c0-.61,0-1.21,0-1.82,0,0,.13-.11.13-.11.92-.06,1.85-.13,2.77-.2l.26.33c-.63,1.34-1.55,2.17-3.16,1.79Z"/>
    <path class="cls-10" d="M209.84,350.17c-.33.32-.67.65-1,.97,0,0-.26-.33-.26-.33.3-.3.61-.61.91-.91,0,0,.34.27.34.27Z"/>
    <path class="cls-4" d="M246.93,205.28c-.75,2.1-1.98,3.79-4.03,4.78-3.17-2.1-6.06.5-9.1.53-1.97-.14-4.27.38-4.89-2.44,6.35,1.16,11.98-2.12,18.03-2.87Z"/>
    <path class="cls-7" d="M269.74,356.18c-.42,0-.83-.01-1.25-.02-.14-.37-.28-.73-.41-1.1-.1-.64-.2-1.27-.3-1.9,2.08-4.75,4.16-9.51,6.24-14.26.15,6.26-1.43,11.95-4.27,17.29Z"/>
    <path class="cls-2" d="M182.95,336.16c1.99.04,4,.34,5.93-.43,4.2,1.52,7.82,3.62,8.65,8.54-2.21-.38-3.65.84-5.3,2.11-4.57,3.5-8.93,7.54-15.2,7.76-2.59-6.63-8.45-6.57-14.12-6.89-.33-3.76,2.9-3.94,5.14-4.93,4.92-2.16,9.92-4.12,14.89-6.16Z"/>
    <path class="cls-5" d="M177.03,354.13c6.27-.21,10.64-4.25,15.2-7.76,1.65-1.27,3.09-2.5,5.3-2.11,1.01.92.9,2.17.99,3.35-1.66,1.05-2.14,2.8-2.69,4.51-5.35,2.63-10.59,5.43-15.36,9.09-5.72,4.39-12.03,4.12-17.12-.71,3.52-.44,6.49,2.13,9.77,1.34,4.17-1.01,4.77-4.04,3.91-7.72Z"/>
    <path class="cls-5" d="M171.08,352.03c2.55.5,3.41,2.52,3.82,4.66.36,1.84-.98,4.17-2.42,3.27-2.8-1.75-7.25-.51-8.63-4.68l.1-.1c2.32,0,4.64.02,6.97.03.12.62.08,1.37.93,1.47.16.02.56-.4.53-.56-.13-.83-.84-.83-1.49-.88-.09-.91-.18-1.81-.27-2.72.15-.16.3-.33.45-.49Z"/>
    <path class="cls-5" d="M163.86,355.28c-3.48-1.82-2.34-3.49.34-4.67,2.48-1.09,4.85-.34,6.88,1.42-.15.16-.3.33-.45.49-2.37.53-6.18-2.56-6.68,2.67l-.1.1Z"/>
    <path class="cls-15" d="M209.5,349.9c-.3.3-.6.61-.91.91-.93.06-1.85.13-2.78.19-.52-2.98,3.88-3.68,3.15-6.76.77-.52.92-1.31.94-2.16,0-.59,0-1.18-.01-1.77.23-.39.45-.77.68-1.16,1.12,1.61,1.06,3.46,1.09,5.29-.72,1.82-1.44,3.64-2.16,5.45Z"/>
    <path class="cls-7" d="M209.9,342.09c-.02.85-.18,1.64-.94,2.16-.03-.87.17-1.64.94-2.16Z"/>
    <path class="cls-14" d="M223.62,219.47c-1.39-.43-2.85-.75-3.67-2.15.1-1.14.01-2.34.34-3.41.38-1.25,1.49-1.81,2.77-1.4,1.22.39,1.92,1.33,1.65,2.67-.3,1.45-.72,2.87-1.09,4.3Z"/>
    <path class="cls-6" d="M81.88,276.9c.35-.05.69-.1,1.04-.15-.37,2.92-.5,5.9-1.18,8.76-1.11,4.66-6.03,7.83-11.88,7.79-2.44-.02-4.88-.49-7.31-.76-2.18-4.62-5.53-8.85-4.73-14.44,8.06.48,16.17,1.91,24.05-1.2Z"/>
    <path class="cls-9" d="M57.82,278.09c-.81,5.59,2.55,9.82,4.73,14.44-5.62-1.46-9.33-7.94-8.9-15.53,1.26.07,2.52.14,3.78.21.14.29.27.59.39.88Z"/>
    <path class="cls-5" d="M57.43,277.21c-1.26-.07-2.52-.14-3.78-.21-.64-1.24-.54-2.55-.33-3.86,1.31.09,2.63.18,3.95.26.26.2.43.46.53.79-.12,1.01-.24,2.01-.36,3.01Z"/>
    <path class="cls-14" d="M57.43,277.21c.12-1,.24-2.01.36-3.01,6.67-2.59,13.46-2.46,20.38-1.16,2.37.45,3.46,1.63,3.7,3.86-7.88,3.11-15.99,1.67-24.05,1.19-.12-.3-.25-.59-.39-.89Z"/>
    <path class="cls-7" d="M270.91,142.34c.26-4.97,3.36-9.16,6.48-9.05.79.03,1.72-.07,2.02.96.22.77-.32,1.4-.9,1.53-3.64.8-3.19,4.07-4.22,6.52-.53,1.27.39,4.01-2.23,3.53-1.96-.36-.64-2.57-1.15-3.49Z"/>
    <path class="cls-4" d="M248.01,204.22c-.36.35-.72.7-1.08,1.06.14-.57-.44-1.88,1.08-1.06Z"/>
    <path class="cls-14" d="M250.17,206.28c1.39.17,2.49.71,2.25,1.76-.47,2.02-2.62,2.17-4.18,2.78-.87.34-1.46-.59-1.19-1.52.49-1.7,1.82-2.55,3.13-3.03Z"/>
    <path class="cls-14" d="M265.88,206.24c-.16,0-.32,0-.48-.02-1.68-.13-3.86.5-4.08-2.13-.09-1.03.95-1.72,2-1.68,2.5.1,2.56,1.98,2.57,3.83,0,0,0,0,0,0Z"/>
    <path class="cls-12" d="M245.76,375.02c-.29.1-.59.18-.89.23.36-.34.72-.69,1.09-1.03-.07.26-.14.53-.19.8Z"/>
    <path class="cls-12" d="M244.94,375.2c-.46.78-1.15,1.14-2.06,1.03.37-.97,1.18-1.08,2.06-1.03Z"/>
    <path class="cls-12" d="M241.92,377.21c-.41.88-1.14,1.12-2.04,1.03.4-.9,1.16-1.08,2.04-1.03Z"/>
    <path class="cls-12" d="M242.92,376.2c-.34.35-.69.69-1.03,1.04.34-.35.69-.69,1.03-1.04Z"/>
    <path class="cls-10" d="M163.96,355.18c.49-5.23,4.31-2.14,6.68-2.67.09.91.18,1.82.26,2.72,0,0,.03-.03.03-.03-2.32,0-4.64-.02-6.97-.03Z"/>
    <path class="cls-10" d="M170.9,355.24c.65.05,1.36.05,1.49.88.03.17-.37.58-.53.56-.85-.11-.82-.85-.93-1.47,0,0-.03.03-.03.03Z"/>
  </g>
</svg>