<?xml version="1.0" encoding="UTF-8"?>
<svg id="Layer_2" xmlns="http://www.w3.org/2000/svg" viewBox="0 0 407.25 408.83">
  <defs>
    <style>
      .cls-1 {
        fill: #d5d8db;
      }

      .cls-2 {
        fill: #d79d76;
      }

      .cls-3 {
        fill: #f8e5bd;
      }

      .cls-4 {
        fill: #a77d5a;
      }

      .cls-5 {
        fill: #c36257;
      }

      .cls-6 {
        fill: #c2c1c0;
      }

      .cls-7 {
        fill: #ad4e42;
      }

      .cls-8 {
        fill: #cf8e67;
      }

      .cls-9 {
        fill: #75543c;
      }

      .cls-10 {
        fill: #a4afb4;
      }

      .cls-11 {
        fill: #fefefe;
      }

      .cls-12 {
        fill: #ecbb8e;
      }
    </style>
  </defs>
  <g id="Layer_1-2" data-name="Layer_1">
    <path class="cls-6" d="M31.84,311.63c-4.53-2.86-6.12-7.87-8.32-12.2-10.98-21.59-18.51-44.29-21.7-68.45-5.75-43.59,2.18-84.67,22.65-123.25,18.26-34.42,44.72-61.2,78.5-80.75C126.89,13.14,152.53,4.67,179.95,1.58c9.33-1.05,18.69-2.54,28.11-.71-5.51,3.67-11.29,7.06-14.69,13.08-.9,1.6-2,1.5-3.27.67-3.73-2.43-7.93-2.12-12.08-2.09-16.67.11-29.87,15.75-27.06,32.06-1.57,1.31-1.07,2.96-.69,4.55,2.92,12.28,9.44,21.09,22.64,23.46-.03,6.54-1.48,13.01-.97,19.57-2.7.69-2.64,3.09-3.12,5.12-1.62,6.84.52,13.44,1.41,20.11-5.53,8.32-3.96,15.21,4.82,21.09,1.75,17.41,10.74,29.88,25.95,38.13-.05,2.25-.11,4.49-.16,6.74-6.24,3.44-12.44,6.81-17.05,12.61-5.86,7.38-9.86,15.77-14.11,24.05-7.37,14.35-12.33,29.83-20.75,43.69-1.74,2.86.29,3.05,2.37,2.79,8.63-1.07,16.51.82,23.59,5.91,1.65,2.58,3.3,5.15,5.01,7.82,4.44-5.81,6.01-12.91,10.03-18.69.36,5.33.72,10.66,1.07,16-1.64,1.24-1.03,3.04-1.05,4.62-.05,6.15,0,12.3.02,18.45-5.49.52-9.46-3.12-14.02-5.15.15-1.28.03-2.67.51-3.81,2.42-5.86-.01-10.56-3.33-15.1-1.82-5.51-6.96-6.24-11.41-7.48-14.34-3.99-27.15,3.8-24.67,19.37-8.5,2.84-13.31,9.39-17.08,16.99-7.27-.91-13.51,1.27-19.35,5.64-2.36,1.77-4.91,4.12-8.44,3.57-1.44-.35-2.9-1.07-4.33-1-18.72.82-37.28-2.75-56-2.01ZM129.59,270.23c-7.08.43-16.71,15.32-14,21.44.4.91.84,1.97,2.1,1.62,1.2-.34,1.15-1.49,1.15-2.48.03-5.81,2.91-10.41,6.19-14.86,1.43-1.94,3.96-3.03,4.56-5.72ZM118.32,270.01c-7.55,1.62-12.94,10.09-11.36,16.45.16.63.17,1.51,1,1.47.53-.03,1.39-.54,1.48-.96,1.24-6.23,4.14-11.66,8.88-16.96Z"/>
    <path class="cls-6" d="M249.83,5.8c12.11,2.28,23.71,6.24,34.91,11.26,21.53,9.66,40.97,22.5,58.12,38.82,23,21.89,39.91,47.73,51.15,77.38,10.71,28.24,14.98,57.58,12.62,87.49-2.55,32.35-12.76,62.6-29.78,90.4-3.55,5.79-7.07,11.6-11.84,16.51-16.9-.37-33.79-.73-50.68-1.1-.11-1.62-.24-3.24-.32-4.86-.07-1.49-.71-2.08-2.18-1.53-.16-1.15-1.13-1.37-1.98-1.73-1.09-1.03-1.7-2.14-2.06-3.74-1.37-6.03-.71-12.21-1.8-18.27-1.13-6.32-1.69-12.74-2.49-19.12-4.89,10.59-13.27,17.75-21.38,25.09-2.32,2.1-5.29,3.52-5.28,7.3,0,1.5-1.11,1.98-2.45,1.68-1.46-.33-.95-1.38-.78-2.37.5-2.99.8-5.98-1.47-8.5-.6-4.78-2.87-8.74-6.06-12.23-9.46-10.34-15.37-10.82-26.48-2.64-3.13,2.31-2.55,3.46.5,4.74-.36.79-.71,1.59-1.07,2.38-1.58,0-3.17,0-4.75,0-1.16-8.15,4.87-12.16,10.43-14.69,6.89-3.14,11.32-8.54,16.56-13.29,1.51-1.36,2.32-2.97,2.8-5.08,1.99-8.74,3.78-17.49,5.24-26.34.66-4,.43-8.4,3.63-13.23-.62,13.11-2.23,24.73-4.58,36.24-.76,3.71.36,4.72,3.67,3.94,3.66-.86,6.27,1.02,9.05,2.55-15.43,1.51-15.36,1.58-24.24,11.07-2.22,2.37-1.88,3.37.96,4.44,5.97,2.25,10.28,6.51,13.9,11.65,1.08,1.53.55,4.2,3.21,4.61.02,2.29-.57,5.32,1.79,6.24,1.87.73,3.74-1.6,5.31-2.98,6.97-6.12,13.77-12.42,17.37-21.28,5.78-14.21,7.18-29.06,6.37-44.22-.96-3.41-.64-6.92-.8-10.39-1.02-21.35-10.18-33.21-28.53-41.71-1.95-.9-3.38-.97-4.58,1.15-4.64,8.23-12.18,13.02-20.51,16.65-2.67,1.16-2.76,2.37-1.51,4.47,2.58,4.33,4.3,9.03,4.94,14,1.26,9.79-.05,11.04-9.04,7.48-5.77-2.29-11.82-5.04-12.74-12.57,4.37,4.19,8.57,8.57,15.02,9.64,2.23.37,3-.06,3.01-2.32.03-7.26-2.04-13.62-7.56-18.6-1.19-1.08-2.89-1.77-2.75-3.8.4-.24.8-.48,1.19-.72,3.53,1.61,6.16-.73,9.04-2.03,6.14-1.89,11.27-5.47,15.75-9.93,5.25-5.23,5.12-5.93.36-11.86-2.45-3.05-5.27-5.45-8.98-6.75.04-.98,0-1.98.79-2.74,4.35-4.14,6.75-9.49,9.17-14.83,4.13-2.64,6.96-6.28,8.42-10.97,6.6-.6,9.54-7.17,10.23-12.85.79-6.47-1.6-9.72-8.8-13.18.23-1.56-.48-2.88-1.08-4.23.06-6.14.19-12.28.13-18.42-.02-2.53.85-3.86,3.38-4.66,3.12-.98,6.33-1.75,9.17-3.67,10.36-7.02,13.92-17.08,12.28-28.88-.85-6.16-1.86-12.91-8.68-16.18-.55-.99-.96-2.11-1.69-2.96-8.06-9.46-18.24-10.28-29.37-7.08-.04-3.62-2.84-5.83-4.35-8.71-2.02-3.82-6.77-5.43-7.8-9.96Z"/>
    <path class="cls-10" d="M314.31,326.56c16.89.37,33.79.73,50.68,1.1-3.27,5.81-7.8,10.67-12.3,15.47-15.19,16.24-32.67,29.57-52.15,40.3-20.81,11.47-43.04,18.94-66.39,22.94-13.1,2.24-26.43,3.02-39.7,2.05-28.99-2.1-56.84-8.6-82.79-22.31-9.83-5.19-19.46-10.59-28.31-17.33-.7-.53-1.28-1.02-1.37-1.93,4.46.36,8.93.62,13.38,1.09,17.84,1.89,35.67,3.81,53.49,5.77,13.53,1.48,27.04,3.12,40.57,4.53,10.88,1.14,21.79,2.06,32.69,3.07,9.07,1.02,18.15,1.88,27.19,3.1,5.58.76,9.8-1.08,13.87-4.84,14.76-13.65,29.66-27.13,44.68-40.5,3.88-3.46,7.07-6.92,6.45-12.52Z"/>
    <path class="cls-4" d="M222.12,381.32c-10.9-1.02-21.8-1.93-32.69-3.07-13.53-1.42-27.04-3.05-40.57-4.53-17.83-1.96-35.66-3.88-53.49-5.77-4.45-.47-8.92-.74-13.38-1.09-4.23-1.77-7.74-4.65-11.3-7.43-1.19-1.66-2.32-3.39-4.58-3.73-.45-.45-.9-.89-1.35-1.33-.02-1.31-4-2.71.08-3.95,2.09.52,4.18.9,6.34,1.16,10.86,1.3,21.74,2.25,32.64,3.18,14.84,1.27,29.6,3.46,44.44,4.63,15.36,1.21,30.67,2.97,46,4.41,20.27,1.91,40.48,4.5,60.81,5.89-.04,1.16-.11,2.31-.12,3.47-.09,10.51-.67,10.42-11.38,9-7.02-.93-14.21-3-21.44-.84Z"/>
    <path class="cls-10" d="M31.84,311.63c18.71-.74,37.27,2.83,56,2.01,1.43-.06,2.88.65,4.32,1-.55,2.52-2.43,3.86-4.48,5.04-11.63,6.68-22.55,14.44-33.64,21.95-8.97-7.62-15.07-17.53-21.55-27.12-.51-.76-.44-1.91-.65-2.88Z"/>
    <path class="cls-2" d="M54.04,341.63c11.09-7.51,22.01-15.27,33.64-21.95,2.05-1.18,3.93-2.52,4.48-5.04,3.54.55,6.08-1.8,8.44-3.57,5.84-4.37,12.09-6.55,19.35-5.64,3.88.47,3.74,2.48,1.97,5.12-5.39-3.64-10.98-2.12-15.87.47-6.19,3.28-11.4,8.19-17.61,11.64-7.3,4.06-14.13,8.88-20.94,13.79-8.92,6.43-9.34,5.85-2.68,13.95-4.08,1.24-.1,2.63-.08,3.95-4.72-1.03-9.76-7.02-10.71-12.73Z"/>
    <path class="cls-2" d="M66.11,355.69c2.27.34,3.4,2.07,4.58,3.73-2.59.06-4.22-1.05-4.58-3.73Z"/>
    <path class="cls-12" d="M201,176.63c-15.21-8.25-24.2-20.73-25.95-38.13-.06-5.01.62-10.09-1.19-14.96.01-4.16.09-8.32,0-12.47-.05-2.33.47-4.2,2.54-5.56,5.91-3.89,9.59-9.57,12.5-15.84,1.99-.47,3.89-1.42,6.03-.98,4.53,7.15,11.51,10.78,19.25,13.2,2.11.66,4.84,2.54,6.5.74,1.56-1.68-1.19-3.78-1.63-5.83-.14-.67-.29-1.27.47-2,9.54,5.54,20.05,7.4,31.04,6.96,1.86-.08,2.94.33,3.78,2.24,2.74,6.22,5.76,12.31,8.67,18.45-.73,6.22-.77,12.63-2.33,18.63-3.08,11.83-7.98,22.84-19,29.69-3.46,2.15-7.15,3.95-10.73,5.91-4.43.75-8.86,1.49-13.29,2.24-4.44-.76-8.89-1.52-13.33-2.27-1.11,0-2.22,0-3.33,0ZM247.79,132.62c-2.79-.34-5.51.4-8.02,2.41-1.32,1.06-2,2.09-1.81,3.74.21,1.88,1.33,3.3,3.01,3.53,4.12.58,8.36.77,11.79-2.2,1.23-1.07,3.56-2.07,2.5-4.28-.85-1.75-2.36-3.23-4.67-3.21-.83,0-1.66,0-2.8,0ZM186.84,147.65c2.99-.93,7.85-.24,7.79-5.23-.05-3.97-3.85-4.89-7.37-4.77-3.68.12-7.21,1.05-7.22,5.57,0,4.12,3.51,4.05,6.8,4.43ZM213.94,158.35c8.48-.11,16.27-3.84,19.75-9.6.62-1.03,2.03-2.29.63-3.5-1.66-1.44-2.19.52-2.95,1.41-7.85,9.27-15.28,10.95-26.74,6.04-.85-.37-1.9-1.18-2.57.07-.6,1.1.39,1.87,1.14,2.46,3.15,2.49,6.86,3.12,10.75,3.11ZM239.13,126.04c-.28-3.17-1.05-6.27-5.16-6.52-4.13-.25-5.35,2.9-5.76,6.07-.39,3,3.39,6.86,6.18,6.62,3.55-.31,4.51-2.91,4.74-6.18ZM208.67,123.35c-3.62,2.93-4.91,6.59-5.76,10.53-1.5,6.95,2.94,11.22,9.82,9.22,1.73-.5,4.66-.59,3.8-3.43-.67-2.18-2.76-.69-4.28-.41-4.96.92-6.83-1.21-5.44-6.02.91-3.13,2.75-6.09,1.86-9.89ZM195.9,128.75c.34-3.72-.86-6.63-4.81-6.76-3.73-.12-5.13,2.83-5.06,6.09.08,3.41,1.56,6.38,5.5,6.36,3.55-.01,4.81-2.41,4.36-5.69ZM239.5,111.53c1.11-.05,2.51.42,3.02-1.02.49-1.39-.67-2.17-1.65-2.69-4.5-2.36-9.12-2.93-13.82-.55-.96.48-2.54.72-1.78,2.35.57,1.23,1.62,2.27,3.18,1.68,3.73-1.4,7.39-1.05,11.05.23ZM190.44,112.32c2.48.3,4.9,1.04,4.88-1.71-.02-2.24-2.5-2.38-4.28-2.47-4.27-.23-7.8,1.43-10.48,4.75-.74.92-1.26,2.16-.21,3.16.99.94,1.84-.08,2.57-.64,2.44-1.85,5.04-3.23,7.52-3.09Z"/>
    <path class="cls-11" d="M191,277.54c-.36-5.33-.72-10.66-1.07-16,.4-6.16-.49-12.26-1-18.38-.49-5.84,1.01-11.87-1.42-18.7-2.38,12.09-3.21,23.28-8,33.73-6.12-5.12-6.65-5.28-11.4-3.52.79.57,1.38,1.09,2.06,1.46,8.37,4.7,8.88,6.17,5.08,14.82-.2.45-.24.96-.35,1.45-7.08-5.08-14.96-6.98-23.59-5.91-2.08.26-4.11.07-2.37-2.79,8.42-13.86,13.38-29.34,20.75-43.69,4.25-8.28,8.25-16.67,14.11-24.05,4.61-5.81,10.81-9.17,17.05-12.61,2.27,5.5,6.19,9.82,10.07,14.17-5.48,1.43-11.02,3.18-10.96,10.16.11,11.75.6,23.5,1.16,35.23.78,16.17,1.77,32.33,2.67,48.5-1.98.15-2.99-1.35-4-2.58-3-3.71-5.87-7.53-8.78-11.31Z"/>
    <path class="cls-3" d="M175.95,295.46c4.56,2.03,8.53,5.67,14.02,5.15,3.05,3.34,7.72.97,11.09,3.15-.01,3.17-2.46,5.41-3.16,8.33-.5,2.09-1.23,3.09-4.08,2.84-5.29-.48-7.75,1.09-9.35,4.49,5.72-1.14,11.33-2.55,16.46,1.11l.48.06.48-.02c.42,4.95,2.91,7.49,8.06,6.96,2.37,3.48,14.64,5.26,17.86,2.58.51-.42.95-.93,1.42-1.4.71-.7,1.36-1.47,2.14-2.08,2.04-1.6,4.46-1.85,6.45-.38,2.23,1.64.46,3.65-.4,5.32-3.18,6.2-10.57,9.16-18.39,7.55-7.83-1.61-15.86-2.99-23.58-.43-14.51,4.82-27.54,2.13-40.18-5.78-4.11-2.57-8.72-3.43-14.17-2.67-9.78,1.36-19.67.56-26.33-8.69.16-4.53,2.13-7.91,6.29-9.91,4.04,1.08,6.09,5.19,10.89,5.85,7.08.98,13.09-.61,19.07-3.74,2.57-.86,4.36-2.41,4.74-5.25,4.59-4.46,9.73-.17,14.67-.74-3.07-2.54-6.14-4.57-10.21-4.22-1.08.09-2.43.33-3.04-1.05-.61-1.39,0-2.52.85-3.64,2.08-2.72,4.97-4.25,7.98-5.64,1.2.01,2.39.02,3.59.03,1.74,1.78,3.96,2.21,6.33,2.22Z"/>
    <path class="cls-1" d="M150.96,44.59c3.05,3.23,5.14,7.19,8.54,10.2,8.18,7.26,20.16,8.73,29.09,3.51,3.38-1.98,5.05-4.02,2.84-7.85-.45-.78-.35-1.87-.74-4.28,8.05,11.35,17.49,17.82,30.38,18.48,12.94.67,23.53-3.98,31.9-13.97,1.6,2.28.1,3.95-.21,5.56-1.14,5.81-.15,8.28,5.01,10.72,15.92,7.54,29.64,2.27,35.96-13.02,2.7-6.53,1.08-13.01-.67-19.43,6.82,3.27,7.82,10.03,8.68,16.18,1.64,11.81-1.91,21.87-12.28,28.88-2.84,1.92-6.05,2.69-9.17,3.67-2.54.8-3.4,2.13-3.38,4.66.05,6.14-.08,12.28-.13,18.42-2.54-1.9-5.26-3.49-8.23-4.62-6.19-2.35-12.39-4.66-18.58-6.99.16-4.63-.23-9.24.8-13.89,1.12-5.09-7.94-13.26-12.86-11.62-14.16,4.72-27.07,2.24-39.11-6.12-2.15-1.49-3.93-1.58-6.29.05-3.7,2.57-7.98,4.56-12.52,4.31-4.19-.22-6.13,1.47-7.05,5.15-13.2-2.37-19.72-11.19-22.64-23.46-.38-1.59-.88-3.24.69-4.55Z"/>
    <path class="cls-11" d="M172.9,72.6c.92-3.68,2.86-5.37,7.05-5.15,4.54.24,8.83-1.74,12.52-4.31,2.35-1.63,4.13-1.55,6.29-.05,12.04,8.36,24.95,10.84,39.11,6.12,4.92-1.64,13.98,6.52,12.86,11.62-1.03,4.65-.63,9.26-.8,13.89-1.45-.24-2.96-.32-4.35-.76-16.53-5.22-33.47-6.45-50.66-5.29-2.13-.44-4.04.51-6.03.98-5.83-.36-11.29,1.78-16.96,2.52-.51-6.57.94-13.03.97-19.57Z"/>
    <path class="cls-12" d="M151.04,313.75c-5.98,3.13-11.99,4.72-19.07,3.74-4.81-.66-6.85-4.77-10.89-5.85.29-.36.57-.72.86-1.09,1.77-2.64,1.9-4.66-1.97-5.12,3.77-7.6,8.58-14.15,17.08-16.99.92.12,1.63-.25,2.22-.93,2.07.36,3.31-1.26,4.86-2.1,9.31-5.1,17.63-2.16,21.92,7.8-3.01,1.39-5.9,2.92-7.98,5.64-.85,1.12-1.47,2.25-.85,3.64.61,1.37,1.96,1.14,3.04,1.05,4.07-.34,7.14,1.69,10.21,4.22-4.93.58-10.08-3.71-14.67.74-1.9-4.54-.95-9.01,1.23-14.65-4.47,3.43-5.04,7.09-5.06,10.79-.02,4.07-1.41,6.34-5.83,5.75-.43-5.11-.02-10.22-.13-15.37-3.25,5.57-1.99,11.61-1.82,17.51.02.6,1.12.18,1.71-.07,1.83-.03,3.63.1,5.16,1.29ZM137.45,297.1c-3.97,4.46-3.38,13.71,1.37,17.58-1.94-6.18-2.51-11.8-1.37-17.58ZM130.33,313.01c-1.02-4.21-.04-8.44-.62-12.86-2.61,4.68-2.44,10.04.62,12.86Z"/>
    <path class="cls-1" d="M174.88,272.42c.11-.48.16-1,.35-1.45,3.8-8.65,3.3-10.13-5.08-14.82-.68-.38-1.27-.9-2.06-1.46,4.75-1.77,5.28-1.6,11.4,3.52,4.79-10.46,5.62-21.65,8-33.73,2.43,6.84.94,12.87,1.42,18.7.51,6.12,1.39,12.21,1,18.38-4.02,5.78-5.59,12.88-10.03,18.69-1.71-2.67-3.36-5.24-5.01-7.82Z"/>
    <path class="cls-11" d="M139.26,287.51c-.58.68-1.3,1.05-2.22.93-2.48-15.57,10.32-23.36,24.67-19.37,4.46,1.24,9.6,1.97,11.41,7.48-2.61,2.46-3.67,5.81-5.11,8.94-6.75-6.06-14.4-7.94-23.01-4.69-3.04,1.15-5.66,2.91-5.74,6.7Z"/>
    <path class="cls-9" d="M171.93,92.17c5.67-.74,11.13-2.88,16.96-2.52-2.91,6.27-6.59,11.95-12.5,15.85-2.07,1.36-2.59,3.23-2.54,5.56.09,4.15,0,8.31,0,12.47-2.13-1.5-1.08-4.88-3.63-6.13-.89-6.67-3.03-13.27-1.41-20.11.48-2.03.42-4.43,3.12-5.12Z"/>
    <path class="cls-1" d="M201.06,303.76c-3.37-2.19-8.04.18-11.09-3.15-.02-6.15-.07-12.3-.02-18.44.01-1.58-.6-3.38,1.05-4.62,2.92,3.78,5.78,7.6,8.78,11.31,1,1.24,2.02,2.73,4,2.58.09,3.07.17,6.14.25,9.21-.36.66-.73,1.32-1.09,1.98-.85-.06-1.61.07-1.93,1.01l.05.13Z"/>
    <path class="cls-2" d="M170.22,117.4c2.55,1.25,1.5,4.63,3.63,6.13,1.82,4.88,1.13,9.95,1.19,14.96-8.78-5.88-10.35-12.77-4.82-21.09Z"/>
    <path class="cls-1" d="M168.01,285.49c1.44-3.13,2.5-6.48,5.11-8.94,3.32,4.54,5.76,9.24,3.34,15.1-.47,1.14-.35,2.53-.51,3.81-2.37-.01-4.59-.44-6.33-2.22,2.01-3.11-.69-5.25-1.61-7.75Z"/>
    <path class="cls-1" d="M210.9,197.54c-3.88-4.35-7.8-8.67-10.07-14.17.05-2.25.11-4.5.16-6.74,1.11,0,2.22,0,3.33,0-.83,2.86-2.56,5.77.48,8.41.17.92.71,1.48,1.63,1.64,1.11,2.46,2.8,4.3,5.47,5.08,1.15,1.81,3.01,2.42,4.94,2.9.72.91,1.73,1.07,2.8,1.06-2.45,3.38-6.61,5.03-8.78,8.7,0-.68.02-1.36.03-2.04-.03-1.61,2.15-3.22.01-4.84Z"/>
    <path class="cls-11" d="M129.59,270.23c-.6,2.69-3.13,3.78-4.56,5.72-3.28,4.45-6.16,9.06-6.19,14.86,0,.98.05,2.14-1.15,2.48-1.26.35-1.7-.71-2.1-1.62-2.71-6.12,6.92-21.01,14-21.44Z"/>
    <path class="cls-11" d="M118.32,270.01c-4.75,5.29-7.64,10.73-8.88,16.96-.08.42-.95.94-1.48.96-.83.04-.84-.83-1-1.47-1.57-6.36,3.81-14.84,11.36-16.45Z"/>
    <path class="cls-11" d="M210.89,202.39c0,.68-.02,1.36-.03,2.04,0,0-.06.1-.06.1-.24.44-.48.88-.72,1.32,0,.29-.11.53-.34.71-3.04,3.39-4.24,9.85-2.42,13.09.85,2.9,3.02.84,4.55,1.21-1.25,3.43-1.36,5.57,3.45,3.84,6.58-2.38,11.24-6.56,13.71-13.13.8-2.15,1.72-3.85,3.8-.97.12.29.16.6.13.92.93,7.54,6.97,10.29,12.74,12.57,8.99,3.56,10.3,2.3,9.04-7.48-.64-4.97-2.36-9.67-4.94-14-1.25-2.1-1.16-3.31,1.51-4.47,8.33-3.63,15.88-8.42,20.51-16.65,1.19-2.12,2.62-2.05,4.58-1.15,18.36,8.5,27.52,20.36,28.53,41.71.17,3.48-.16,6.98.81,10.39-1.06.31-1.84.95-1.74,2.11.41,4.59-1.31,8.83-2.2,13.18-1.69,8.25-3.27,16.68-7.22,24.15-4.77,9.01-11.89,16.26-19.69,22.8-2.66-.4-2.14-3.08-3.21-4.61-3.62-5.14-7.93-9.4-13.9-11.65-2.83-1.07-3.18-2.06-.96-4.44,8.88-9.5,8.81-9.56,24.24-11.07-2.79-1.53-5.39-3.41-9.05-2.55-3.31.78-4.43-.23-3.67-3.94,2.34-11.5,3.96-23.12,4.58-36.24-3.21,4.83-2.97,9.23-3.63,13.23-1.46,8.85-3.25,17.6-5.24,26.34-.48,2.11-1.3,3.71-2.8,5.08-5.24,4.74-9.67,10.15-16.56,13.29-5.56,2.53-11.59,6.54-10.43,14.68-.6,2.87-2.81,2.76-5.03,2.79-5.79.06-11.57.19-17.36.29-3.36-1.22-3.95-3.59-4.25-7.07-.47-5.47-.46-10.94-.87-16.39-1.57-20.68-2.17-41.41-2.82-62.13-.15-4.85,2.12-7.49,6.98-7.87ZM249.81,271.18c.36-3.49-1.39-5.03-3.85-5.31-2.65-.3-4.47,1.67-4.72,4.03-.25,2.39,1.02,4.5,3.93,4.66,2.76.15,4.19-1.4,4.64-3.38ZM243.61,242.53c2.3-.08,3.99-1.27,4.28-4.07.28-2.7-1.36-4.31-3.64-4.39-2.6-.1-5.05,1.32-5.05,4.29,0,2.21,1.33,4.08,4.4,4.17ZM219.89,239.16c-.71-2.24-2.14-3.84-4.9-3.6-2.45.21-4.12,1.6-3.97,4.13.16,2.76,2.07,4.01,4.76,3.85,2.5-.15,3.83-1.62,4.11-4.38ZM216.63,267.53c-2.12.58-3.66,1.78-3.75,4.36-.09,2.71,1.61,4.17,3.88,4.21,2.54.05,4.36-1.48,4.19-4.4-.15-2.56-1.71-3.77-4.32-4.17Z"/>
    <path class="cls-8" d="M121.93,310.56c-.29.36-.57.72-.86,1.09-4.15,2-6.13,5.38-6.29,9.91-.31.65-.62,1.31-.92,1.96-.31,0-.61.01-.92,0-1.54-3.37-4.06-.4-6.03-.94-2.05-1.57-3.62-.93-4.89,1.06-1.14-.08-2.33-.31-3.09.91-.62.03-1.23.06-1.85.08-2.21-.26-3.91.25-4.19,2.84-1.91.11-3.92.4-1.26,2.53,1.87,1.49,4.14,2.48,6.24,3.69,1.86,2.29.28,5.92,3.06,7.85.34.32.68.64,1.02.95,2.69,2.97,5.52,2.93,7.88-.13.33-.6.66-1.21.99-1.81,3.28-.12,1.28-4.58,4.15-5.03,4.65,3.74,10.02,5.32,15.91,6.2,9.46,1.41,18.93,3.11,27.74,7.18,6.56,3.03,13.55,4.26,20.67,4.58,8.94.4,17.68-2.56,26.66-1.88,1,2.03.39,4.82,2.93,6.11,2.56-.03,5.12-.36,7.62-.6,4-.39,6.65-4.5,10.89-3.27,2.86.83,5.67,1.86,8.56,2.56,4.22,1.02,7.72-2.06,11.84-2.39,2.44-.2,5.32.44,7.67-1.28,1.01-.75,2.67-.91,1.83-2.81l-4.37-5.62c2.13-4.21,5.06-8.03,6.16-12.74.25-1.06,1.05-1.64,2.08-1.92,10.09-2.7,19.2-7.77,28.69-11.93,6.71-1.02,13.3,1.58,20,.73.85.36,1.82.58,1.98,1.73-.66.73-1.25,1.53-1.99,2.18-12.61,11.2-25.14,22.5-37.92,33.52-5.5,4.74-10.65,9.94-16.85,13.82-20.33-1.39-40.54-3.99-60.81-5.89-15.33-1.44-30.64-3.2-46-4.41-14.84-1.17-29.6-3.37-44.44-4.63-10.9-.93-21.78-1.88-32.64-3.18-2.16-.26-4.25-.64-6.34-1.16-6.66-8.11-6.24-7.52,2.68-13.95,6.81-4.91,13.65-9.73,20.94-13.79,6.2-3.45,11.42-8.36,17.61-11.64,4.89-2.59,10.48-4.11,15.87-.47ZM266.86,343.64c1.16-.47,3.46.47,3.6-1.49.15-2.14-2.29-2.08-3.78-2.31-1.48-.22-3.37.3-3.42,2.07-.07,2.34,2.15,1.31,3.6,1.73Z"/>
    <path class="cls-12" d="M113.86,323.51c.31-.65.62-1.31.92-1.96,6.66,9.25,16.54,10.05,26.33,8.69,5.45-.76,10.06.1,14.17,2.67,12.64,7.91,25.67,10.6,40.18,5.78,7.72-2.57,15.74-1.19,23.58.43,7.82,1.61,15.21-1.35,18.39-7.55.86-1.67,2.63-3.68.4-5.32-1.99-1.46-4.41-1.22-6.45.38-.78.61-1.43,1.38-2.14,2.08-.47.47-.91.97-1.42,1.4-3.22,2.68-15.5.9-17.86-2.58,1.36-.05,1.96-.71,1.69-2.09.12-4.99,3.77-8.79,4.53-13.64-4.25,3.19-6.07,7.77-7.43,12.63-3.16.52-3.85-1.44-3.99-3.96.37-6.7,5.1-11.3,7.98-16.86-6.18,4.09-9.43,10.19-11.8,16.92-5.14-3.67-10.74-2.25-16.46-1.11,1.61-3.39,4.06-4.96,9.35-4.49,2.85.26,3.58-.74,4.08-2.84.7-2.92,3.15-5.16,3.16-8.33,0,0-.05-.13-.05-.13.85.05,1.54-.2,1.93-1.01.36-.66.73-1.32,1.09-1.98,3.75.27,5.03-3.5,7.83-4.78,5.79-.1,11.57-.23,17.36-.29,2.22-.02,4.43.08,5.03-2.79,1.59,0,3.17,0,4.75,0,2.79,2.04,6.15,3.13,8.58,5.84,4.27,4.76,4.38,7.42-.13,11.86-2.92,2.88-6.45,4.39-10.46,5.27-6.2,1.37-12.12,8.23-12.08,13.47,1.68-.32,2.49-1.61,3.13-2.94,1.95-4.1,5.14-6.18,9.66-6.55,2.79-.23,5.54-.83,8.31-1.27,8.24,9.86,6.17,19.09-5.51,24.22-6.98,3.07-14.37,4.62-21.89,3.53-7.24-1.06-14.33-.1-21.31.93-14.94,2.2-29.41,2.62-43.21-4.93-4.69-2.56-10.09-3.21-15.41-3.71-5.64-.53-11.24-1.4-16.45-3.71-4.83-2.14-8.11-5.63-8.36-11.26ZM217.95,309.59c.44-.14.88-.29,1.31-.43-.09-.13-.26-.37-.27-.36-.38.23-.75.48-1.11.73-.14.17-.27.34-.41.52.16-.15.32-.3.47-.45ZM224.75,315.4c-3.95.81-4.05,4.92-6.19,7.27-.54.6-.91,1.63-.14,2.22,1.16.89,1.8-.25,2.25-1.05,1.5-2.71,2.9-5.48,4.34-8.22.24-.34.5-.67.71-1.02.01-.02-.32-.25-.49-.38l-.47,1.18Z"/>
    <path class="cls-9" d="M255.06,369.69c6.21-3.88,11.36-9.08,16.85-13.82,12.77-11.02,25.3-22.32,37.92-33.52.73-.65,1.33-1.45,1.99-2.18,1.47-.55,2.11.04,2.18,1.53.07,1.62.21,3.24.32,4.86.62,5.61-2.56,9.07-6.45,12.52-15.01,13.36-29.92,26.85-44.68,40.5-4.07,3.76-8.29,5.6-13.87,4.84-9.04-1.22-18.13-2.09-27.19-3.1,7.23-2.16,14.42-.09,21.44.84,10.7,1.42,11.28,1.51,11.38-9,.01-1.16.08-2.31.12-3.47Z"/>
    <path class="cls-1" d="M309.83,318.44c-6.71.85-13.29-1.75-20-.73-9.36-.76-18.83-4.29-27.97,1.13-.77.46-1.92.29-2.89.42,1.8-3.44.68-7.13.93-10.7,5.45-.58,7.97-5.63,12.21-8.04,2.27,2.52,1.97,5.51,1.47,8.5-.16.98-.67,2.04.78,2.37,1.33.3,2.45-.18,2.45-1.68-.01-3.78,2.96-5.2,5.28-7.3,8.11-7.34,16.49-14.5,21.38-25.09.81,6.38,1.36,12.8,2.49,19.12,1.09,6.05.43,12.24,1.8,18.27.36,1.6.97,2.72,2.06,3.74Z"/>
    <path class="cls-9" d="M194.92,88.67c17.19-1.16,34.13.06,50.66,5.29,1.39.44,2.9.51,4.35.76,6.19,2.33,12.39,4.64,18.58,6.99,2.97,1.13,5.69,2.72,8.23,4.62.59,1.35,1.31,2.67,1.08,4.23-6.76.46-8.98,2.28-10.84,9.34-.6,2.29-.83,4.52-3.98,2.54-2.91-6.14-5.93-12.24-8.67-18.45-.84-1.91-1.92-2.31-3.78-2.24-10.99.44-21.5-1.42-31.04-6.96-.76.73-.61,1.33-.47,2,.43,2.05,3.18,4.15,1.63,5.83-1.67,1.8-4.39-.08-6.5-.74-7.73-2.42-14.72-6.05-19.25-13.2Z"/>
    <path class="cls-2" d="M263.01,122.43c3.15,1.98,3.38-.25,3.98-2.54,1.86-7.06,4.07-8.88,10.84-9.34,7.2,3.47,9.59,6.72,8.8,13.18-.69,5.67-3.63,12.24-10.23,12.84-2.13.7-5.3-1.31-6.3,2.29-.8,2.87-1.42,5.79-2.12,8.69-2.42,5.34-4.82,10.68-9.17,14.83-.79.76-.75,1.76-.79,2.74-2.69,2.16-5.37,4.32-8.06,6.48-3.76-.13-6.93,1.35-10.09,3.28-2.65,1.62-5.38,4.15-8.93,1.78,3.58-1.96,7.27-3.76,10.73-5.91,11.02-6.85,15.92-17.87,19-29.69,1.56-6.01,1.6-12.41,2.33-18.63ZM269.89,126.08c.25,1.06-.52,2.74,1.07,2.92,1.8.19,1.77-1.51,1.94-2.82.32-2.52.72-5,3.85-5.6.98-.19,2.17-.32,1.52-1.77-.46-1.03-1.51-1.29-2.55-1.01-4.22,1.15-5.35,4.5-5.84,8.28Z"/>
    <path class="cls-7" d="M249.97,171.6c2.69-2.16,5.37-4.32,8.06-6.48,3.71,1.29,6.53,3.7,8.98,6.75,4.76,5.93,4.89,6.63-.36,11.86-4.48,4.47-9.61,8.04-15.75,9.93.43-1.17,1.44-2.37-.39-3.31-1.05-.54-2.49-1.33-3.14-.35-1.51,2.27-4.43,3.09-5.51,5.69-.4.24-.8.48-1.19.72-3.35.37-4.82,1.38-1.96,4.58,1.75,1.95,3.15,4.24,4.57,6.46.71,1.11,1.28,2.71-.07,3.55-1.2.75-1.93-.84-2.82-1.48-2.99-2.17-4.43-6.35-8.77-6.77-1.46,0-2.93,0-4.39.01-3.77-.75-5.21,2.28-7.06,4.48-1.32,1.57-2.16,3.62-4.84,4.02.06-2.85,1.01-5.13,2.39-7.14,1.97-2.86,3.39-6.72,8.37-4.8,1.77.68,3.02-1.23,3.93-2.53,1.99-2.83,4.13-5.62,5.01-9.08.97-.71,1.93-1.43,2.9-2.14,1.48,1.19,1.03,4.59,4.19,3.79,1.3-.33,2.41-1.35,2.61-2.68.37-2.52-2.03-2.5-3.46-3.34.71-.84,1.9-1.38,1.74-2.77l-.06.04.49.03.45-.17c.34,0,.68.01,1.02.02,1.39.4.62,3.73,3.3,2.39,1.47-.73,3.28-1.46,3.3-3.22.02-2.3-2.1-1.96-3.67-2.11.72-1.99,1.44-3.97,2.17-5.96ZM254.74,181.64c-1.74.2-2.52,1.5-2.46,2.72.1,2.22,2.23,3.29,3.87,3.72,1.29.33,2.66-1.38,2.61-2.96-.08-2.5-2.34-2.79-4.02-3.48ZM263.97,177.89c-.02-1.69-.64-3.11-2.74-3.31-1.93-.18-2.9,1.19-2.94,2.69-.06,2.35,2.14,2.78,3.85,3.12,1.57.31,1.78-1.09,1.84-2.5Z"/>
    <path class="cls-11" d="M272.11,300.52c-4.25,2.42-6.76,7.46-12.21,8.04-.85-1.42-1.69-2.83-2.54-4.25-3.1-7.95-8.85-12.6-17.29-13.92-3.06-1.28-3.64-2.43-.5-4.74,11.11-8.18,17.02-7.7,26.48,2.64,3.19,3.49,5.46,7.45,6.06,12.23Z"/>
    <path class="cls-2" d="M240.07,290.39c8.44,1.32,14.19,5.98,17.28,13.92-1.15,2.34-2.5,4.45-4.65,6.1-1.79,1.38-3.41,3.11-3.44,5.68-1.37.39-3.25.08-3.26,2.35-2.77.43-5.53,1.04-8.31,1.27-4.52.37-7.71,2.46-9.66,6.55-.64,1.33-1.44,2.62-3.13,2.94-.04-5.24,5.88-12.1,12.08-13.47,4.02-.88,7.54-2.39,10.46-5.27,4.51-4.44,4.4-7.1.13-11.86-2.43-2.71-5.79-3.8-8.58-5.84.36-.79.71-1.59,1.07-2.38Z"/>
    <path class="cls-5" d="M231.61,202.75c4.34.42,5.78,4.6,8.77,6.77.89.65,1.62,2.24,2.82,1.48,1.35-.85.78-2.44.07-3.55-1.42-2.23-2.82-4.51-4.57-6.46-2.87-3.2-1.39-4.21,1.96-4.58-.14,2.03,1.56,2.73,2.76,3.8,5.52,4.98,7.59,11.34,7.56,18.6,0,2.26-.78,2.7-3.01,2.32-6.45-1.07-10.64-5.45-15.02-9.64.03-.32-.01-.62-.13-.92.42-2.74-.49-5.27-1.21-7.82Z"/>
    <path class="cls-9" d="M267.98,147.55c.7-2.9,1.31-5.82,2.12-8.69,1.01-3.6,4.17-1.58,6.3-2.29-1.45,4.7-4.29,8.33-8.42,10.97Z"/>
    <path class="cls-5" d="M241.85,195.69c1.08-2.6,4-3.42,5.51-5.69.65-.97,2.09-.18,3.14.35,1.83.93.82,2.14.39,3.31-2.87,1.3-5.51,3.64-9.04,2.03Z"/>
    <path class="cls-8" d="M249.97,171.6c-.72,1.99-1.44,3.97-2.17,5.96-1.29.66-2.21,1.7-2.92,2.93-.34,0-.68-.01-1.02-.02-.4-.53-.7-.35-.94.15,0,0,.06-.04.06-.04-7.3,2.45-14.68,3.88-22.36,1.98-.91-.33-1.83-.66-2.74-1-.07-.89-.14-1.78-.21-2.67,4.43-.75,8.86-1.49,13.29-2.24,3.55,2.37,6.29-.17,8.93-1.78,3.16-1.93,6.33-3.4,10.09-3.28Z"/>
    <path class="cls-2" d="M247.79,132.62c1.15,0,1.98,0,2.8,0,2.31-.03,3.82,1.45,4.67,3.21,1.07,2.21-1.27,3.21-2.5,4.28-3.42,2.98-7.67,2.78-11.79,2.2-1.68-.24-2.8-1.66-3.01-3.53-.19-1.65.49-2.68,1.81-3.74,2.51-2.01,5.23-2.76,8.02-2.41Z"/>
    <path class="cls-2" d="M186.84,147.65c-3.29-.38-6.81-.31-6.8-4.43,0-4.52,3.54-5.45,7.22-5.57,3.52-.11,7.32.8,7.37,4.77.06,4.98-4.8,4.3-7.79,5.23Z"/>
    <path class="cls-9" d="M213.94,158.35c-3.89.01-7.6-.62-10.75-3.11-.75-.59-1.73-1.36-1.14-2.46.68-1.26,1.72-.44,2.57-.07,11.46,4.91,18.89,3.22,26.74-6.04.76-.9,1.29-2.85,2.95-1.41,1.4,1.21,0,2.47-.63,3.5-3.48,5.76-11.27,9.49-19.75,9.6Z"/>
    <path class="cls-9" d="M239.13,126.04c-.23,3.27-1.19,5.87-4.74,6.18-2.79.24-6.57-3.62-6.18-6.62.41-3.17,1.62-6.32,5.76-6.07,4.11.25,4.88,3.35,5.16,6.52Z"/>
    <path class="cls-7" d="M217.66,178.9c.07.89.14,1.78.21,2.67-1.99,3.24-3.99,6.47-5.97,9.72-.07.11,0,.32,0,.48-2.67-.79-4.36-2.62-5.47-5.08,1.74-.19,4.14.27,4.03-2.43-.06-1.5-1.59-2.52-3.24-2.63-2.57-.17-2.29,1.81-2.43,3.43-3.04-2.64-1.31-5.55-.48-8.41,4.45.76,8.89,1.52,13.34,2.27Z"/>
    <path class="cls-8" d="M208.67,123.35c.9,3.8-.95,6.76-1.86,9.89-1.4,4.81.48,6.94,5.44,6.02,1.52-.28,3.61-1.78,4.28.41.87,2.84-2.07,2.93-3.8,3.43-6.88,1.99-11.32-2.27-9.82-9.22.85-3.94,2.14-7.6,5.76-10.53Z"/>
    <path class="cls-9" d="M195.9,128.75c.45,3.28-.81,5.68-4.36,5.69-3.95.01-5.43-2.95-5.5-6.36-.07-3.25,1.33-6.2,5.06-6.09,3.95.13,5.15,3.04,4.81,6.76Z"/>
    <path class="cls-9" d="M239.5,111.53c-3.66-1.28-7.32-1.63-11.05-.23-1.56.59-2.61-.46-3.18-1.68-.76-1.63.83-1.86,1.78-2.35,4.7-2.38,9.32-1.81,13.82.55.98.52,2.15,1.3,1.65,2.69-.51,1.44-1.91.97-3.02,1.02Z"/>
    <path class="cls-9" d="M190.44,112.32c-2.48-.14-5.08,1.24-7.52,3.09-.73.56-1.59,1.58-2.57.64-1.04-1-.53-2.24.21-3.16,2.68-3.32,6.21-4.98,10.48-4.75,1.78.1,4.26.24,4.28,2.47.02,2.76-2.4,2.01-4.88,1.71Z"/>
    <path class="cls-6" d="M211.86,295.86c-2.8,1.28-4.08,5.05-7.83,4.78-.08-3.07-.17-6.14-.25-9.21-.9-16.17-1.89-32.33-2.67-48.5-.56-11.74-1.05-23.49-1.16-35.23-.07-6.98,5.48-8.73,10.96-10.16,2.14,1.62-.05,3.23-.01,4.84-4.86.38-7.13,3.02-6.98,7.87.65,20.72,1.25,41.45,2.82,62.13.41,5.45.4,10.92.87,16.39.3,3.49.89,5.86,4.25,7.07Z"/>
    <path class="cls-2" d="M168.01,285.49c.93,2.5,3.63,4.64,1.61,7.75-1.2,0-2.4-.02-3.59-.03-4.29-9.96-12.61-12.9-21.92-7.8-1.54.84-2.78,2.46-4.86,2.1.08-3.8,2.7-5.55,5.74-6.7,8.61-3.26,16.26-1.38,23.01,4.69Z"/>
    <path class="cls-2" d="M151.04,313.75c-1.53-1.19-3.33-1.32-5.16-1.29.08-.69.16-1.38.24-2.07,4.42.59,5.81-1.69,5.83-5.75.02-3.7.59-7.36,5.06-10.79-2.17,5.64-3.12,10.11-1.23,14.65-.38,2.83-2.18,4.39-4.75,5.25Z"/>
    <path class="cls-8" d="M200.93,320.52c2.37-6.73,5.61-12.83,11.8-16.92-2.88,5.56-7.61,10.16-7.97,16.86-.95.03-1.91.07-2.87.1l-.48.02-.48-.06Z"/>
    <path class="cls-2" d="M201.88,320.57c.96-.03,1.91-.07,2.87-.1.14,2.52.83,4.48,3.99,3.96.68,1.16,1.77,1.14,2.9,1.01.27,1.37-.33,2.03-1.69,2.09-5.15.54-7.65-2.01-8.06-6.96Z"/>
    <path class="cls-8" d="M137.45,297.1c-1.14,5.79-.57,11.4,1.37,17.58-4.75-3.88-5.34-13.12-1.37-17.58Z"/>
    <path class="cls-8" d="M146.12,310.39c-.08.69-.16,1.38-.24,2.07-.59.25-1.7.66-1.71.07-.17-5.89-1.42-11.93,1.82-17.51.11,5.15-.3,10.26.13,15.37Z"/>
    <path class="cls-8" d="M130.33,313.01c-3.06-2.83-3.23-8.19-.62-12.86.58,4.43-.4,8.66.62,12.86Z"/>
    <path class="cls-3" d="M202.94,302.62c-.4.81-1.09,1.06-1.93,1.01.33-.95,1.08-1.07,1.93-1.01Z"/>
    <path class="cls-5" d="M211.91,191.76c0-.16-.08-.36,0-.48,1.98-3.24,3.98-6.48,5.97-9.72.91.33,1.83.66,2.75,1,1.01,3.06,3,4.51,6.3,3.94,2.82-.48,5.5.08,8.08,1.22-.88,3.46-3.02,6.24-5.01,9.08-.91,1.29-2.16,3.21-3.93,2.53-4.98-1.92-6.4,1.94-8.37,4.8-1.38,2-2.32,4.29-2.39,7.14,2.68-.4,3.52-2.45,4.84-4.02,1.86-2.2,3.3-5.23,7.06-4.48-1.62,9-6.74,15.02-15.36,18.08-1.53-.37-3.69,1.7-4.55-1.21.81-4.36,1.61-8.73,2.41-13.09.23-.18.34-.42.34-.71.24-.44.48-.88.73-1.32,0,0,.06-.1.06-.1,2.16-3.67,6.32-5.32,8.78-8.7,2.1-1.6,2.66-3.74,1.96-6.17-.25-.89-1.29-1.11-2.09-.85-2.45.8-1.34,3.48-2.48,5-.18.24-.13.64-.19.97-1.93-.48-3.79-1.09-4.94-2.9Z"/>
    <path class="cls-7" d="M216.84,194.67c.06-.33,0-.73.19-.97,1.15-1.52.04-4.2,2.48-5,.8-.26,1.84-.04,2.09.85.69,2.43.14,4.58-1.96,6.17-1.07.02-2.08-.15-2.8-1.06Z"/>
    <path class="cls-5" d="M204.8,185.04c.14-1.63-.14-3.6,2.43-3.43,1.64.11,3.17,1.13,3.24,2.63.11,2.7-2.28,2.24-4.03,2.43-.93-.16-1.46-.72-1.64-1.64Z"/>
    <path class="cls-1" d="M211.87,220.85c8.61-3.06,13.74-9.08,15.36-18.08,1.46,0,2.93,0,4.39-.01.72,2.56,1.64,5.09,1.21,7.82-2.09-2.88-3-1.17-3.8.97-2.46,6.57-7.12,10.76-13.71,13.13-4.81,1.74-4.7-.41-3.45-3.84Z"/>
    <path class="cls-6" d="M249.81,271.18c-.45,1.98-1.88,3.52-4.64,3.38-2.9-.16-4.18-2.27-3.93-4.66.25-2.36,2.06-4.33,4.72-4.03,2.46.28,4.21,1.82,3.85,5.31Z"/>
    <path class="cls-6" d="M243.61,242.53c-3.08-.09-4.4-1.97-4.4-4.17,0-2.97,2.45-4.39,5.05-4.29,2.28.09,3.92,1.7,3.64,4.39-.29,2.8-1.98,3.99-4.28,4.07Z"/>
    <path class="cls-6" d="M219.89,239.16c-.29,2.76-1.61,4.23-4.11,4.38-2.69.16-4.59-1.09-4.76-3.85-.15-2.53,1.52-3.92,3.97-4.13,2.76-.24,4.19,1.37,4.9,3.6Z"/>
    <path class="cls-6" d="M216.63,267.53c2.61.4,4.17,1.61,4.32,4.17.17,2.92-1.66,4.45-4.19,4.4-2.27-.04-3.98-1.5-3.88-4.21.09-2.58,1.63-3.78,3.75-4.36Z"/>
    <path class="cls-1" d="M209.74,206.55c-.8,4.36-1.61,8.73-2.41,13.09-1.82-3.24-.63-9.71,2.41-13.09Z"/>
    <path class="cls-1" d="M210.8,204.53c-.24.44-.48.88-.73,1.32.24-.44.48-.88.73-1.32Z"/>
    <path class="cls-4" d="M246.01,318.45c.01-2.27,1.89-1.96,3.26-2.35,2.98,1.83,5.88,3.91,9.7,3.16.97-.12,2.12.04,2.89-.42,9.14-5.43,18.61-1.89,27.97-1.13-9.48,4.17-18.6,9.23-28.69,11.93-1.03.28-1.83.86-2.08,1.92-1.1,4.71-4.03,8.53-6.16,12.74-7.12,1.67-13.7,5.13-20.97,6.32-.7.01-1.39.02-2.09.03-5.27.07-10.54.14-15.81.21-2.8-.85-5.35,1.06-8.1.74-8.98-.68-17.72,2.28-26.66,1.88-7.12-.32-14.11-1.56-20.67-4.58-8.81-4.07-18.28-5.77-27.74-7.18-5.89-.88-11.25-2.46-15.91-6.2-1.06-1.98-2.13-3.97-3.19-5.95-.06-1-.11-2-.17-3,1.51-.55,1.24-1.88,1.35-3.05.31,0,.61,0,.92,0,.24,5.64,3.52,9.13,8.36,11.26,5.21,2.3,10.81,3.17,16.45,3.71,5.32.5,10.72,1.15,15.41,3.71,13.81,7.55,28.28,7.13,43.21,4.93,6.98-1.03,14.07-1.99,21.31-.93,7.52,1.1,14.91-.46,21.89-3.53,11.68-5.13,13.75-14.36,5.51-24.22Z"/>
    <path class="cls-12" d="M231.93,350.62c7.27-1.18,13.85-4.64,20.97-6.32,0,0,4.37,5.61,4.37,5.61.84,1.9-.82,2.06-1.83,2.81-2.34,1.72-5.22,1.08-7.67,1.28-4.12.34-7.61,3.42-11.84,2.39-2.89-.7-5.7-1.73-8.56-2.56-4.23-1.23-6.89,2.88-10.89,3.27-2.5.24-5.06.58-7.62.6,1.72-2.29,3.45-4.57,5.17-6.85,5.27-.07,10.54-.14,15.81-.21.2.71.23,1.72,1.29,1.45.37-.09.54-.97.8-1.49Z"/>
    <path class="cls-12" d="M111.6,326.57c.06,1,.11,2,.17,3-.37.52-.83,1-1.09,1.57-2.68,5.86-3.31,6.09-8.81,2.9-1.31-.76-2.55-1.52-4-.36-2.09-1.21-4.37-2.19-6.24-3.69-2.65-2.12-.65-2.41,1.26-2.52,1.38-.31,2.77-.63,4.15-.94.39.23,1.13.65,1.12.66-3.43,6.2,1.82,4.05,4.25,4.29,1.07.11,2.2-.59,3.32-.82,2.86-.61,2.32-3.16,2.03-4.69-.44-2.36-1.89-1.24-3.2-.22-1.34,1.03-2-.27-2.65-1.22.02-.29.06-.58.1-.87,1.27-2,2.84-2.64,4.89-1.07,1.56,1.33,3.12,2.66,4.69,3.99Z"/>
    <path class="cls-2" d="M97.87,333.68c1.45-1.16,2.69-.39,4,.36,5.5,3.18,6.13,2.96,8.81-2.9.26-.57.72-1.05,1.09-1.57,1.06,1.98,2.12,3.97,3.19,5.95-2.86.46-.87,4.92-4.15,5.03-5.04-3.13-7.79-2.85-9.89.98-2.77-1.94-1.19-5.56-3.06-7.85Z"/>
    <path class="cls-3" d="M101.92,324.52c.65.95,1.31,2.25,2.65,1.22,1.32-1.02,2.76-2.14,3.2.22.29,1.53.83,4.08-2.03,4.69-1.12.24-2.25.93-3.32.82-2.43-.24-7.68,1.91-4.25-4.29,0,0-.73-.43-1.12-.66.01-.63.03-1.26.04-1.89.62-.03,1.23-.06,1.85-.08,1-.01,1.99-.02,2.99-.03Z"/>
    <path class="cls-3" d="M100.92,341.54c2.1-3.84,4.85-4.11,9.89-.98-.33.6-.66,1.21-.99,1.81-2.63.04-5.25.08-7.88.12-.34-.32-.68-.64-1.02-.95Z"/>
    <path class="cls-2" d="M214.04,350.87c-1.72,2.28-3.45,4.57-5.17,6.85-2.54-1.29-1.93-4.09-2.93-6.11,2.75.32,5.3-1.59,8.1-.74Z"/>
    <path class="cls-3" d="M266.86,343.64c-1.45-.42-3.67.61-3.6-1.73.05-1.76,1.94-2.29,3.42-2.07,1.49.23,3.93.17,3.78,2.31-.14,1.96-2.44,1.02-3.6,1.49Z"/>
    <path class="cls-2" d="M111.6,326.57c-1.56-1.33-3.12-2.66-4.69-3.99,1.98.54,4.5-2.43,6.03.94-.11,1.17.17,2.5-1.35,3.05Z"/>
    <path class="cls-2" d="M101.94,342.49c2.63-.04,5.25-.08,7.88-.12-2.36,3.05-5.19,3.1-7.88.12Z"/>
    <path class="cls-2" d="M97.08,324.64c-.01.63-.03,1.26-.04,1.89-1.38.32-2.77.63-4.15.94.28-2.59,1.98-3.1,4.19-2.84Z"/>
    <path class="cls-2" d="M101.92,324.52c-1,.01-1.99.02-2.99.03.76-1.22,1.95-.98,3.09-.91-.04.29-.08.58-.1.87Z"/>
    <path class="cls-8" d="M211.64,325.44c-1.13.13-2.22.15-2.9-1.01,1.36-4.85,3.18-9.44,7.43-12.63-.76,4.84-4.41,8.64-4.53,13.64Z"/>
    <path class="cls-8" d="M225.01,315.62c-1.44,2.74-2.84,5.51-4.34,8.22-.44.8-1.08,1.94-2.25,1.05-.77-.59-.4-1.62.14-2.22,2.14-2.36,2.24-6.46,6.19-7.27l.26.22Z"/>
    <path class="cls-8" d="M217.88,309.52c.37-.25.73-.5,1.11-.73.01,0,.18.24.27.36-.44.14-.88.29-1.31.43l-.07-.07Z"/>
    <path class="cls-8" d="M224.75,315.4l.47-1.18c.17.13.51.36.49.38-.21.36-.46.69-.71,1.02,0,0-.26-.22-.26-.22Z"/>
    <path class="cls-8" d="M217.95,309.59c-.16.15-.32.3-.47.45.14-.17.27-.34.4-.52,0,0,.07.07.07.07Z"/>
    <path class="cls-10" d="M258.97,319.26c-3.82.75-6.72-1.34-9.7-3.16.03-2.57,1.65-4.3,3.44-5.68,2.15-1.65,3.5-3.76,4.65-6.1.85,1.41,1.7,2.83,2.54,4.24-.25,3.57.87,7.26-.93,10.7Z"/>
    <path class="cls-8" d="M269.89,126.08c.49-3.78,1.62-7.13,5.84-8.28,1.04-.28,2.09-.02,2.55,1.01.65,1.45-.54,1.58-1.52,1.77-3.13.6-3.53,3.08-3.85,5.6-.17,1.31-.14,3.02-1.94,2.82-1.59-.17-.82-1.86-1.07-2.92Z"/>
    <path class="cls-12" d="M235,187.73c-2.58-1.14-5.27-1.7-8.08-1.22-3.31.57-5.29-.88-6.3-3.94,7.68,1.9,15.06.47,22.36-1.98.16,1.39-1.03,1.93-1.74,2.77-1.3.46-2.49,1.08-3.33,2.23-.97.71-1.93,1.43-2.9,2.14Z"/>
    <path class="cls-5" d="M254.74,181.64c1.68.68,3.95.98,4.02,3.48.05,1.58-1.33,3.3-2.61,2.96-1.65-.43-3.78-1.5-3.87-3.72-.05-1.22.72-2.52,2.46-2.72Z"/>
    <path class="cls-5" d="M237.9,185.59c.84-1.15,2.04-1.77,3.33-2.23,1.43.84,3.83.82,3.46,3.34-.2,1.33-1.31,2.35-2.61,2.68-3.16.8-2.71-2.6-4.19-3.79Z"/>
    <path class="cls-5" d="M263.97,177.89c-.06,1.4-.27,2.8-1.84,2.5-1.71-.34-3.91-.77-3.85-3.12.04-1.5,1.02-2.87,2.94-2.69,2.1.2,2.72,1.61,2.74,3.31Z"/>
    <path class="cls-5" d="M244.88,180.5c.72-1.23,1.63-2.28,2.92-2.93,1.57.15,3.69-.19,3.67,2.11-.02,1.76-1.82,2.49-3.3,3.22-2.68,1.33-1.91-2-3.3-2.39Z"/>
    <path class="cls-12" d="M242.91,180.63c.24-.5.54-.67.94-.15,0,0-.45.17-.45.17l-.49-.03Z"/>
    <path class="cls-8" d="M231.93,350.62c-.26.52-.43,1.4-.8,1.49-1.06.26-1.09-.74-1.29-1.45.7,0,1.39-.02,2.09-.03Z"/>
  </g>
</svg>