<?xml version="1.0" encoding="UTF-8"?>
<svg id="Layer_2" xmlns="http://www.w3.org/2000/svg" viewBox="0 0 408.24 416.11">
  <defs>
    <style>
      .cls-1 {
        fill: #d5d8db;
      }

      .cls-2 {
        fill: #d79d76;
      }

      .cls-3 {
        fill: #75858d;
      }

      .cls-4 {
        fill: #4e575d;
      }

      .cls-5 {
        fill: #a77d5a;
      }

      .cls-6 {
        fill: #c36257;
      }

      .cls-7 {
        fill: #c2c1c0;
      }

      .cls-8 {
        fill: #ad4e42;
      }

      .cls-9 {
        fill: #cf8e67;
      }

      .cls-10 {
        fill: #75543c;
      }

      .cls-11 {
        fill: #a4afb4;
      }

      .cls-12 {
        fill: #fefefe;
      }

      .cls-13 {
        fill: #ecbb8e;
      }

      .cls-14 {
        fill: #989898;
      }

      .cls-15 {
        fill: #e89148;
      }
    </style>
  </defs>
  <g id="Layer_1-2" data-name="Layer_1">
    <path class="cls-7" d="M70.8,364.01c-3.68-2.14-7.13-4.52-8.69-8.76,1.47-.01,2.94-.08,4.41-.01,1.61.07,3.45.68,4.13-1.49.6-1.91,1-3.93-1.54-4.95-.38-.41-.76-.43-1.15-.02-4.29.34-8.62-.44-12.88.49-13.01-14.77-24.38-30.71-33.07-48.38C10.5,277.47,3.23,252.84.88,226.69c-3.79-42.14,4.76-81.64,24.81-118.61,12.94-23.85,29.96-44.41,51.2-61.71C103.38,24.78,133.17,10.54,166.4,3.78c21.35-4.35,43.01-4.89,64.84-1.91,33.89,4.62,64.22,17.6,91.76,37.37,24.66,17.71,43.77,40.39,58.62,66.87,12.34,22.01,20.13,45.54,24.11,70.25,4.23,26.3,3.07,52.55-3.11,78.54-6.89,29.02-19.46,55.39-37.34,79.12-9.81,13.02-21.21,24.71-33.76,35.22-1.66,1.39-3.3,2.15-5.41,1.99-.4-.07-.79-.14-1.18-.21.72-3.69-.93-7.15-.98-10.81-.1-7.58-.24-15.21-1.15-22.72-.42-3.47.17-7.26-1.86-10.49.02-1.01.04-2.02.06-3.02,2.92-3.98,5.89-7.83,7.24-12.81,3.99-14.66,4.99-29.48,3.88-44.6-.56-7.69-2.82-14.89-4.6-22.26-.28-1.14-1-2.12-2.37-2.26-3.08-11.3-11.31-17.46-21.57-21.59-1.66-.67-2.36.35-3.11,1.59-4.73,7.79-12.09,12.18-20.4,15-3.54,1.2-4.51,2.27-2.39,5.76,3.75,6.14,4.24,13.13,4.19,20.15-.01,1.84.04,3.84-2.64,3.9-5.5.13-15.16-7.35-16.82-13,3.91,3.07,7.74,6.2,12.78,7.44,2.06.51,2.67.27,2.58-1.88-.35-8.3-1.46-16.3-8.45-22.01-1.12-.92-1.35-1.77-.82-2.98,10.93-1.23,20.35-5.6,28.05-13.52.89-.92,2.74-2.21,1.89-3.14-3.32-3.61-2.89-9.8-8.28-11.87,4.43-5.49,10.71-9.56,12.92-16.77.55-.12,1.14-.18.98-1l-.06.08c5.06-1.05,7.7-4.79,9.94-8.97,1.54-.88,3.19-1.5,4.73-2.46,10.46-6.55,10.29-18.45-.5-24.64-.13-3.14-.32-6.26-2.2-8.96.84-.15,1.88-.43,1.84-1.36-.23-4.73,2.16-9.01,2.22-13.69.05-3.88,1.59-5.9,6.02-6.08,10.1-.39,17.36-5.64,22.23-14.42,5.64-10.19,3.5-20.48.39-30.72-.47-1.56-1.43-3.44-3.58-3.79-1.6-4.25-4.69-7.04-8.56-9.28-6.72-3.89-13.96-4.91-21.54-4.47-1.54-9.36-5.22-17.37-13.99-22.18-1.89-1.61-3.68-3.37-5.69-4.81-13.05-9.37-32.65-7.81-44.52,3.42-1.92,1.82-3.5,4.88-6.98,2.26-6.88-5.19-14.49-5.6-22.7-3.97-11.88,2.36-23.41,16.19-22,26.07-5.03,12.41,4.73,30.52,17.82,33.05-1.09,6.64-3.84,12.96-3.87,19.81-2.19,1.2-3.07,3.34-3.93,5.5-2.38,5.96-2.84,12.17-2.42,18.49-6.43,2.23-5.74,7.78-5.7,12.78.04,4.63,2.37,8,6.93,9.54.7,1.83.32,4.3,2.94,5.01,0,.56,0,1.11-.01,1.67-1.66,1.89-1.06,4.12-.73,6.18.62,3.88,2.51,7.5,3.38,11.2,1.36,5.76,5.27,9.35,8.56,13.58,2.86,3.68,6.19,6.74,10.52,8.66,1.21.54,1.33,1.81,1.39,3-3.22,2.75-4.68,6.16-3.88,10.41-1.42-.86-2.7-.54-4.21.09-8.1,3.37-14.54,8.64-19,16.2-6.99,11.88-13.63,23.98-20.96,35.64-2.7,4.29-4.27,7.39.92,10.55.6.37,1.27,1.17-.1,2.84-4.97-7.03-11.7-3.59-18.09-2.97-1.81.18-3.63.35-5.4.74-6.39,1.43-13.14.66-19.33,3.24-1.71,0-3.54-.71-4.99.84-1.61-.35-3.21-.69-4.82-1.04-.6-.28-1.17-.69-1.8-.82-6.29-1.35-12.08-4.63-18.96.25-5.07,3.59-11.56-.36-12.05-5.76,8.11,4.21,8.59,4.22,12.32-.14-11.47-1.15-22.38-4.24-33.7-4.61-.33-.07-.66-.13-.99-.2-.42-2.86-3.73-3.64-4.51-6.22-.89-2.96-2.83-4.26-5.9-4.05-3.08.21-4.76,2.33-5.79,4.74-.82,1.92-1.48,3.63-3.65,4.24-1.34.06-2.68.11-4.03.17-.68-2.93-3.21-3.33-5.01-2.3-3.03,1.75-8.21,1.85-7.33,7.53.06,1.16-.06,2.36.2,3.47,2.12,8.85,3.29,18.79,12.15,23.52,18.86,10.07,39.17,16,60.48,18.27,7.75,1.84,15.65,2.25,23.56,2.62,10.01.46,19.09-1.63,25.9-9.73.56.3,1.11.83,1.69.86,7.04.29,14.11-.37,21.12,1.05,1.55.31,3.33.33,4.55-1.2,1.58.12,3.17.24,4.75.36.1,8.61.42,9.15,5.78,9.79-.08,2.82.01,5.65-.26,8.44-1.15,11.85-2.17,23.7-2.57,35.6-6.92.03-13.83.06-20.75.09-.34-1.44-.21-3.64-1.11-4.2-5.49-3.44-5.05-9.33-6.5-14.45-.66-2.33-1.89-3.69-4.57-3.65-6.33.08-12.66-.03-18.99-.09-2.17-.02-4.08.24-4.2,3.01-.13,3.02,1.77,3.54,4.23,3.52,3-.01,6.04-.2,8.98.22,3.63.52,4.96,3.55,4.68,6.65-.28,3.09-3.23,1.47-4.87,1.49-13.66.14-27.32.09-40.97.04-1.73,0-3.78.67-4.85-1.54.11-1.01.21-2.03.32-3.04,4.55,1.41,9.13,1.4,13.73.26,5.35-.75,8.37-3.4,8.93-8.21.58-5.02-.45-9.77-2.54-14.39-1.46-3.22-2.98-2.57-4.47-.34-2.01,3-3.76,6.17-5.62,9.27-.24-.02-.45.05-.63.21-2.51-.13-2.47-2.11-2.97-3.86-1.7-5.93-4.54-11.3-8.4-16.13-1.59-2-3.31-2.38-4.71-.06-3.56,5.88-8.4,11.08-9.85,18.11-.26.28-.52.56-.78.84-.64-.62-1.28-1.23-1.93-1.85v-.07c-.13-.48-.12-1.04-.37-1.43-1.66-2.61-2.76-6.96-5.8-6.81-2.66.13-3.15,4.55-4.16,7.25-3.8,10.14-1.59,14.98,8.2,18.52,4.16,1.58,8.43.54,12.66.55.17.97.35,1.93.52,2.9-1.4-.07-2.8-.14-4.2-.21-.7-.68-1.41-.68-2.11,0-.96,0-1.91-.01-2.87-.02-.38,0-.77,0-1.15,0-1.63-.01-3.26-.02-4.89-.03-1.04-.68-2.07-.68-3.08.05-4.73.13-9.46.26-14.19.38ZM72.1,258.78l.26.17c3.16,2.9,10.01,2.88,12.26-.04l.33-.17c.81.27,1.48.23,1.66-.81.98-1.13,3.09-1.65,2.06-3.86,2.06-2.01.03-3.43-1.04-4.42-5.21-4.8-10.66-9.33-14.95-15.05-.73-.97-1.81-1.44-3.09-1.07-2.08-2.58-3.55-1.34-5.02.72-4.79,6.75-3.7,14.53,3.05,21.52-.11,1.07.6,1.19,1.4,1.2.46.31.92.62,1.38.92.22.96.87,1.09,1.69.88ZM113.29,266.9c1.51,1.66,3.07,1.4,4.65.1,2.42-.85,4.97-1.57,5.24-4.78.9-.55,1.51-1.35,1.64-2.38.5-3.73-2.6-7.55-7.45-9.26-3.02-1.07-9.14,1.11-10.67,3.8-1.59,2.8-.46,9.58,1.87,11.57.86.74,1.64,1.09,2.58.2.71.25,1.42.5,2.14.76ZM149.93,246.93c.3-.59.6-1.19.9-1.78,2.67-6.52.81-12.03-4.6-13.55-1.42-.19-2.65.23-3.6,1.28-3.97,4.42-8.01,8.77-11.79,13.34-1.06,1.29-1.69,3.04.07,4.88,4.6,4.84,17.87,2.34,18.89-4.01l.12-.17ZM112,211.08h-.02c4.22-.46,8.26-1.11,12.39,1.45,2.08,1.29,1.92,4.42,4.72,4.57,1.12-.15,1.69-.75,1.88-1.91.75-4.6-2.79-9.05-8.44-10.52-5.59-1.45-11.65,1.01-13.04,5.29-.39,1.21.12,1.87,1.29,2.13.41-.33.82-.66,1.23-1ZM56.05,257.99c.03-1.49.57-3.14-1.36-3.95-1.25-2.11-2.46-4.24-3.76-6.32-1.2-1.93-3.04-2.64-4.21-.41-1.9,3.61.3,6.68,2.4,9.45,1.82,2.41,4.1,3.77,6.93,1.24ZM113.51,188.29c.43-4.89-3.74-8.25-8.35-7.05-4.75,1.24-7.6,3.47-9.44,8.58-1.53,4.27-1.26,6.79,1.83,9.48,3.23,1.74,7.29-.47,10.32,2.19,1.79,1.57,3.62,2.2,5.73.43,2.16-1.8,3.13-4.02,1.8-6.54-1.2-2.28-1.34-4.72-1.9-7.1ZM92.22,241.1c-1.07,4.19,2.4,5.72,4.88,7.09,3.99,2.22,8.05.7,11.65-1.67,1.41-.93,2.7-2.18,1.71-4.14-1.69-3.35-2.87-7.32-7.82-7.14-2.22.08-2.96-1.09-2.59-3.15.95-.17,1.9-.34,2.85-.51,2.83-.5,3.93-2.43,3.33-4.94-.56-2.36-2.68-3.62-4.95-2.82-2.57.9-3.18,3.08-1.82,5.59.46.85,1.18,1.63.6,2.7-2.03.48-3.03-1.73-4.9-1.85-1.99-.13-4.61-1.68-5.38,1.22-.74,2.76-2.45,6.17,1.4,8.36.34.42.68.85,1.03,1.27ZM69.25,218.81l.13.13c-.46,3.66,3.11,6.61,4.64,6.52,4.66-.28,10,2.25,14.07-2.07,1.12-1.19,2.57-2.15,2.77-4,.72-6.76,0-12.88-6.49-16.98-4.04-2.55-10.58-3.07-14.07-.69-4.36,2.97-5.76,7.1-4.39,13.08.43,1.88-.34,4.83,3.34,4.01ZM73.51,187.9c.02,2.01.09,4.07,1.93,5.33,1.13.78,2.52-.02,3.16-.72,3.11-3.36,5.71-7.13,7.16-11.52.44-1.34.67-3.45-1.7-3.1-4.64.67-11.61,5.69-10.56,10.02ZM121.07,234.09c3.96.06,4.5-.07,7.05-1.67,4.58-2.88,5.13-7.35,1.28-10.31-2.94-2.26-14.15.94-15.57,4.44-2.03,5,.32,7.44,7.25,7.54ZM142.71,271.34c.1-1.83-.07-3.34-1.54-4.21-1.8-1.07-2.79.48-3.73,1.51-1.79,1.95-3.4,4.06-5.09,6.09-.95,1.14-1.3,2.3-.24,3.57.94,1.14,2.11,1.65,3.52,1.05,3.73-1.57,6.35-4.14,7.09-8.01ZM100,265.61c-.23-2.51-1.43-4.17-4.01-4.21-2.57-.04-3.37,2.08-3.55,4.05-.25,2.68,1.82,3.88,4.08,4.06,2.53.2,3.25-1.77,3.48-3.9ZM155.01,265.54c-.37-1.82-.98-3.62-3.27-3.57-1.82.04-3.15,1.12-3.22,3.06-.08,2.12,1.06,3.51,3.22,3.53,1.82.02,3.09-.98,3.27-3.03ZM55.93,222.14c-1.71.14-2.87,1.04-2.82,3.09.03,1.5.76,2.67,2.29,2.71,1.87.05,3.11-1.21,3.4-2.96.31-1.84-.97-2.61-2.87-2.84ZM119.5,278.62c.74-1.33.83-2.54-.05-4.07-.59,1.57-.56,2.77.05,4.07Z"/>
    <path class="cls-3" d="M306.04,386.09c-5.06,5.61-12.04,8.15-18.59,11.17-13.1,6.04-26.5,11.37-40.77,14.07-9.42,1.78-18.79,3.51-28.45,3.98-7.45.36-14.91,1.06-22.35.7-15.73-.75-31.18-3.23-46.38-7.54-16.24-4.61-31.58-11.15-46.1-19.69-1.27-.75-2.83-1.12-3.38-2.74,68.68.02,137.35.03,206.03.05Z"/>
    <path class="cls-11" d="M306.04,386.09c-68.68-.02-137.35-.03-206.03-.05-8.17-3.22-14.56-8.98-20.94-14.75,33.42-.05,66.85-.1,100.27-.15,6.92-.03,13.83-.06,20.74-.09,5.27-.4,10.67,1.27,15.82-1.05,1.31.78,2.68,1.3,4.24,1,19.9-.07,39.81-.15,59.71-.22,15.02.76,30.04.17,45.07.23.39.07.79.14,1.18.21-.23.94-.15,2.3-.75,2.77-6.01,4.71-11.72,9.93-19.32,12.09Z"/>
    <path class="cls-4" d="M179.35,371.14c-33.42.05-66.85.1-100.27.15-2.97-2.18-6.11-4.18-8.28-7.27,4.73-.13,9.46-.26,14.19-.38,1.03.39,2.06.39,3.08-.06,1.63.01,3.26.02,4.89.03.38,0,.77,0,1.15,0,.96,0,1.91.01,2.87.02.7,0,1.41,0,2.11,0,1.4.07,2.8.14,4.21.22,1.65-.08,1.57-1.39,1.83-2.5.33-1.38,1.17-2.59,2.52-2.82,1.67-.28,1.16,1.71,1.95,2.42.49.44,1.04.8,1.57,1.2,1.07,2.21,3.12,1.53,4.85,1.54,13.66.05,27.32.1,40.97-.04,1.64-.02,4.59,1.6,4.87-1.49.29-3.11-1.05-6.13-4.68-6.65-2.94-.42-5.98-.24-8.98-.22-2.46.01-4.36-.51-4.23-3.52.12-2.78,2.02-3.04,4.2-3.01,6.33.07,12.66.17,18.99.09,2.69-.03,3.92,1.32,4.57,3.65,1.44,5.11,1.01,11.01,6.5,14.45.9.56.76,2.76,1.11,4.2Z"/>
    <path class="cls-4" d="M55.08,349.27c4.26-.93,8.59-.15,12.88-.49.38,0,.77.01,1.15.02,2.54,1.02,2.13,3.04,1.54,4.95-.68,2.16-2.52,1.56-4.13,1.49-1.47-.06-2.94,0-4.41.01-3.25-.93-4.87-3.77-7.02-5.99Z"/>
    <path class="cls-12" d="M314.98,59.36c7.58-.44,14.81.58,21.54,4.47,3.87,2.24,6.95,5.03,8.56,9.28.87,3.07.98,6.2.97,9.36-.04,12.76-4.67,19.88-16.27,24.77-7.66,3.23-20.19.04-27.08-6.91-2.59-2.61-4.19-5.19-1.74-9.01,1.12-1.74,2.79-3.86,1.45-6.86-10.29,8.05-21.4,12.31-34.66,9.18-12.91-3.05-21.98-10.44-27.44-22.71.04,5.03.11,9.33-5.79,10.97-7.52,2.09-14.47,1.06-21.02-2.81-7.33-4.33-11.83-10.93-14.39-18.95-1.42-9.88,10.11-23.72,22-26.07,8.22-1.63,15.82-1.22,22.7,3.97,3.47,2.62,5.06-.44,6.98-2.26,11.87-11.23,31.47-12.79,44.52-3.42,2.01,1.44,3.8,3.2,5.69,4.81,2.9,6.44,6.72,12.5,7.94,19.62.91,5.33,1.01,5.37,6.04,2.57Z"/>
    <path class="cls-12" d="M262.42,253.85c1.66,5.65,11.32,13.13,16.82,13,2.68-.06,2.63-2.06,2.64-3.9.04-7.02-.44-14-4.19-20.15-2.13-3.49-1.15-4.55,2.39-5.76,8.31-2.82,15.67-7.21,20.4-15,.75-1.24,1.45-2.25,3.11-1.59,10.26,4.13,18.49,10.28,21.57,21.59,4.52,18.45,3.32,36.76-1.27,55-2.58,10.28-7.19,18.84-18.01,22.66-9.14,3.24-18.57,5.01-28.19,5.33-10.44.35-20.92.42-31.33-1.02-.82-6.49.51-13.07-.87-19.54.51-1.26,1.06-2.36,2.73-2.47,3.14-.2,6.27-.91,9.39-.82,15.56.49,31.03-4.47,46.77-.28-.47-1.87-1.6-2.93-2.74-3.24-6.05-1.66-5.88-5.44-5.04-10.75,1.32-8.42,2.11-17.02.9-25.63-.67,1.21-1.26,2.45-1.36,3.72-.62,8.61-3.11,16.95-3.78,25.5-.36,4.66-2.72,5.37-6.35,5.6-12.07.77-24.09,2.44-36.23,2.16-1.13-.03-2.27.52-3.42.56-2.92.1-3.59,1.86-3.44,4.33-6.71-1.04-12.75-3.64-18.12-7.8.92-8.23,1.58-16.48,2.4-24.71.85-8.54.53-17.21,2.59-25.65,1.09-4.48,3.35-5.86,7.55-3.88-.85,1.66-1.7,3.32-2.54,4.99-2.85,2.42-3.34,5.54-2.65,9,.04,1.42-.82,3.33,1.82,3.33.54.37,1.47.67,1.56,1.13,1,4.88,3.81,3.69,6.9,2.28,5.45-2.49,9.44-6.35,12.09-11.74,1.05-2.13,1.38-4.82,3.88-6.06.1.58.21,1.15.31,1.73-.34.57-.13.97.39,1.28.14.26.21.54.22.84-.29.95-.07,1.69.89,2.13.18.18.29.4.34.64-.05,1.42.18,2.67,1.8,3.13l.08.05ZM237.16,284.17c2.83-.09,4.68-1.36,4.66-4.13-.02-2.61-1.86-4.51-4.3-4.62-2.38-.11-4.52,1.26-4.5,4.19.02,2.74,1.63,4.15,4.13,4.56ZM267.27,286.01c2.55-.44,3.9-1.93,3.81-4.45-.1-2.7-1.55-4.4-4.35-4.47-2.75-.07-4.59,1.4-4.51,4.18.09,3.01,2.6,3.96,5.05,4.74Z"/>
    <path class="cls-13" d="M210.89,164.34c-2.61-.71-2.24-3.17-2.93-5.01-.35-5.06,1.67-9.94,1.08-15.01,2.12-3.7,1.87-7.95,2.48-11.93.6-3.9,2.42-6.04,5.75-7.86,5.36-2.92,10.56-6.24,13.01-12.33,3.18.31,6.36.62,9.54.93,5.2,10.18,14.13,15.59,24.8,20.11-.35-2.87-.67-4.8-.81-6.74-.11-1.56.84-2.4,2.1-1.32,2.64,2.24,5.94,3.8,8.33,7.3-1.78,0-2.95-.14-4.07.03-1.83.28-4.08.8-3.8,3.05.28,2.26,2.56,1.49,4.12,1.42,3.05-.14,5.91.21,8.56,1.98,1.18.79,2.26,3.21,4.07,1.24,1.91-2.09-.74-3.09-1.53-4.52.24-.28.49-.56.73-.84,4.52,1.05,8.78,3.1,13.49,3.42.87.06,1.78.31,1.92,1.25.98,6.73,5.58,12.51,5.1,19.61-1.13.21-1.58.9-1.82,2.03-.95,4.53-2,9.05-3.07,13.56-4.72,20.04-17.8,31.42-37.26,36.63-4.91,1.31-9.96-.44-14.65,1.67-3.27-.07-5.98-1.77-8.86-3-.83-.97-2.03-1.1-3.17-1.36-.06-1.19-.18-2.47-1.39-3-4.32-1.91-7.66-4.98-10.52-8.66-3.29-4.23-7.2-7.82-8.56-13.58-.87-3.7-2.77-7.32-3.38-11.2-.33-2.05-.93-4.29.73-6.18,3.45,2.77,7.43,3.45,11.72,3.11,2.26-.18,3.8-1.19,4.31-3.42.5-2.19-.36-3.86-2.2-5.14-4.54-3.14-10.9-1.42-13.81,3.78ZM234.34,175.28c-2.45.31-3.32,1.41-2.68,4.02,1.05,4.25,3.63,7.21,7.49,8.65,7.83,2.92,15.59,2.44,22.91-1.82,2.35-1.37,4.16-3.38,4.59-6.18.26-1.7.35-3.67-2.49-2.52-.71-1.16-1.86-1.31-3.05-1.24-8.96.51-17.87-.17-26.79-.92ZM282.13,172.13c.99,0,1.98,0,2.98,0,3.07,0,5.23-1.66,5.71-4.47.57-3.34-2.28-4.67-4.85-5.23-2.37-.52-5.01-.56-7.38-.1-2.77.54-4.7,2.5-4.5,5.63.19,3.07,2.21,4.21,5.08,4.17.99-.01,1.98,0,2.98,0ZM266.99,153.04c.31,3.13,1.25,6.13,5.27,6.44,3.12.24,5.87-3.23,5.51-7.01-.31-3.33-1.48-6.55-5.57-6.35-3.88.19-5.19,3.08-5.22,6.92ZM232.09,147.75c-.08-2.26-1.3-5.6-5.42-5.42-3.81.17-4.71,3.62-4.81,6.97-.11,3.64,1.58,6.47,5.25,6.49,3.87.02,5.06-3.1,4.97-8.04ZM245.52,150.41c-2.56,2.38-6.54,7.75-7.46,9.98-1.71,4.13.1,8.02,4.39,9.39,2.33.74,4.55.13,6.83-.45,1.84-.47,4.05-.66,3.5-3.14-.64-2.87-2.73-1.61-4.32-.79-2.44,1.26-4.63.63-6.42-1.04-2.25-2.11,0-3.97.82-5.77,1.16-2.55,3.45-4.72,2.65-8.17ZM229.78,134.97c1.8-.16,4.68,1.12,4.8-1.76.11-2.61-2.67-2.93-4.88-3.08-4.26-.28-7.81,1.24-10.69,4.33-.81.87-1.56,2-.75,3.11.95,1.3,2.11.36,3.06-.24,2.59-1.63,5.3-2.78,8.46-2.37ZM249.95,197.09c1.62-.52,4.78-.26,4.66-2.33-.18-3.05-2.77-.46-4.26-.71-.49-.08-1-.03-1.48-.15-1.82-.44-4.74-1.9-5.09.31-.45,2.82,3.42,1.4,4.99,2.67.22.18.64.12,1.17.2Z"/>
    <path class="cls-12" d="M143.95,285.39c6.19-2.58,12.94-1.81,19.33-3.24,1.77-.4,3.59-.57,5.4-.74,6.39-.63,13.12-4.07,18.09,2.97,1.36-1.68.7-2.48.1-2.84-5.19-3.16-3.61-6.26-.92-10.55,7.33-11.67,13.96-23.76,20.96-35.64,4.45-7.56,10.9-12.84,19-16.2,1.5-.62,2.78-.95,4.21-.09.18.23.28.48.31.76.19,4.23,2.35,7.52,5.28,10.28,2.56,2.41,2.78,3.71-1.04,4.81-8.21,2.37-10.11,5.44-10.65,13.86-1,15.53-2.4,31.03-3.63,46.54-4.24,2.38-8.32,5.19-13.5,5.06,1.44-13.03,2.88-26.06,4.31-39.08-4.01,9.96-8.47,19.57-12.14,29.48-1.82,4.92-5.47,7.15-10.26,8.42-5.25,1.39-10.58.68-15.87,1.09-7.26-7.27-16.6-10.37-26.15-13.07-.94-.6-1.87-1.21-2.81-1.81Z"/>
    <path class="cls-1" d="M199.11,60.16c2.56,8.01,7.06,14.62,14.39,18.95,6.55,3.87,13.5,4.91,21.02,2.81,5.9-1.64,5.83-5.94,5.79-10.97,5.46,12.28,14.53,19.66,27.44,22.71,13.25,3.13,24.37-1.13,34.66-9.18,1.35,3-.33,5.11-1.45,6.86-2.45,3.82-.85,6.4,1.74,9.01,6.9,6.95,19.42,10.15,27.08,6.91,11.59-4.89,16.23-12.01,16.27-24.77,0-3.17-.11-6.3-.97-9.36,2.15.35,3.11,2.23,3.58,3.79,3.12,10.24,5.25,20.53-.39,30.72-4.86,8.79-12.12,14.03-22.23,14.42-4.43.17-5.97,2.2-6.02,6.08-.06,4.68-2.45,8.96-2.22,13.69.04.92-.99,1.2-1.84,1.36-7.61-5.79-16.17-10.08-24.1-15.37-.22-4.56,1.48-8.78,2.45-13.12,1.52-6.76-3.81-13.46-10.88-13.54-5.12-.06-10.27.6-15.37-.45-7.98-1.64-14.87-5.39-20.89-10.81-3.08-2.77-5.94-4.75-10.53-2.25-3.93,2.14-8.85,2.42-13.12,1.34-4.44-1.12-5.81.63-6.6,4.24-13.09-2.53-22.85-20.64-17.82-33.05Z"/>
    <path class="cls-12" d="M216.93,93.21c.79-3.6,2.16-5.36,6.6-4.24,4.27,1.08,9.19.8,13.12-1.34,4.6-2.51,7.45-.52,10.53,2.25,6.02,5.42,12.91,9.17,20.89,10.81,5.09,1.04,10.24.38,15.37.45,7.07.09,12.39,6.78,10.88,13.54-.97,4.34-2.67,8.55-2.45,13.12-3.46-1.57-6.89-3.21-10.38-4.71-13.32-5.72-27.08-9.61-41.69-9.96-3.18-.31-6.36-.62-9.54-.93-5.73.28-11.47.55-17.2.83.03-6.85,2.78-13.17,3.87-19.81Z"/>
    <path class="cls-1" d="M324.93,371.01c-15.02-.06-30.05.52-45.06-.23.26-1.61,1.46-2.6,2.56-3.59,5.35-4.82,8.19-11.24,11.24-17.51,1.45-2.99,1.31-4.9-2.98-4.6-13.71.97-27.01-2.54-40.47-4.21-7.5-.93-9.78-3.91-10.25-11,.86-1.77,2.32-2.19,4.12-1.85-.12,6.65,0,6.35,6.37,7.18,11.75,1.53,23.53,1.11,35.26.74,12.28-.39,24.37-2.45,35.2-8.95,2.03,3.23,1.44,7.02,1.86,10.49.91,7.51,1.05,15.13,1.15,22.72.05,3.65,1.7,7.12.98,10.81Z"/>
    <path class="cls-3" d="M115.59,323.27c-21.32-2.27-41.63-8.2-60.48-18.27-8.86-4.73-10.03-14.66-12.15-23.52-.27-1.11-.15-2.31-.2-3.47,3.42,0,3.72,3.87,6.35,5.03,10.39,4.58,20.53,9.81,31.93,11.54,6.95,3.38,14.45,4.57,22.01,5.53,13.05,4.09,26.62,5.33,40.08,7.15.03,1.8-.96,3.06-2.15,4.29-4.47,4.6-9.81,7.59-15.92,9.57-3.13,1.02-6.67-.05-9.47,2.14ZM64.11,306.23c-1.55-3.74-3.74-7.36-4.47-11.25-.83-4.39-3.63-6.06-7.06-7.5-.96-.4-1.99-1.68-3.1-.47-.73.8-.32,1.87-.02,2.84,2.35,7.38,6.5,13.3,14.64,16.39Z"/>
    <path class="cls-1" d="M246.35,324.02c10.41,1.44,20.88,1.37,31.33,1.02,9.62-.32,19.04-2.09,28.19-5.33,10.82-3.83,15.43-12.39,18.01-22.66,4.59-18.24,5.79-36.55,1.27-55,1.37.14,2.1,1.12,2.37,2.26,1.79,7.36,4.04,14.57,4.6,22.26,1.11,15.12.11,29.94-3.88,44.6-1.36,4.98-4.32,8.83-7.24,12.82-3.35,1.45-6.65,3.01-10.06,4.32-19.7,7.57-40.18,5.19-60.51,4.65-3.06-.08-4.95-1.68-4.53-5.1.15-1.28.3-2.56.45-3.84Z"/>
    <path class="cls-4" d="M55.09,272.78c1.34-.06,2.68-.11,4.03-.17,0,.2.09.35.25.46.44,3.69,1.05,7.48,5.29,8.58,3.2.84,6.33,1.57,9.35,3.09,2.03,1.03,4.42.46,6.4-1.41,2.05-1.94.81-3.49.13-5.34-.44-1.21-.41-2.59-.58-3.9,11.32.37,22.24,3.46,33.7,4.61-3.73,4.36-4.21,4.35-12.32.14.49,5.4,6.98,9.36,12.05,5.76,6.89-4.88,12.67-1.6,18.96-.25.63.14,1.2.54,1.8.82-.45,2.43-2.47,3.82-3.7,5.74-2.48,3.86-1.67,5.75,2.68,6.94,0,0,.14.16.14.16.96,5.67,4.73,2.17,7.19,2,7.5-.5,9.45-2.7,9.53-9.85,4.71,2.06,9.47,4.01,14.1,6.23,2.17,1.04,5.32,2.34,4.67,5.07-.62,2.63-4.02,2.53-6.43,2.67-4.15.24-8.32.34-12.46.16-15.78-.69-31.28-3.5-46.76-6.37-.09-.3-.25-.56-.48-.77,1.28-4.98-1.76-7.89-4.92-10.99-3.55-3.49-7.79-3.75-11.9-2.51-3.68,1.11-4.61,4.8-4.82,8.44l-.08.13c-9.11-3.01-18.4-5.55-26.93-10.1-2.7-1.44-6.84-2.77-6.45-5.99.39-3.23,4.82-2.55,7.56-3.39ZM116.68,298.17c2.62.21,5.08-1.2,7.42-2.76,1.46-.97,2.44-2.49,1.57-4.25-.85-1.72-2.62-1.23-3.96-.77-2.33.8-4.62,1.8-6.82,2.9-1.29.64-2.93,1.51-2.38,3.3.53,1.69,2.28,1.63,4.17,1.59Z"/>
    <path class="cls-2" d="M246.02,212.99c4.69-2.1,9.75-.35,14.65-1.66,19.46-5.21,32.54-16.6,37.26-36.63,1.06-4.51,2.11-9.02,3.07-13.56.24-1.13.69-1.82,1.82-2.03.73,1.53.34,4.11,2.76,4.12,1.88,0,2.31-2.14,2.97-3.6,1.91-4.2,3.91-8.21,9.63-7.49,10.79,6.19,10.96,18.1.5,24.64-1.54.97-3.19,1.59-4.73,2.46-4.25-1.32-7.14-.38-8.06,4.47-.3,1.56-1.24,3-1.88,4.49,0,0,.06-.08.06-.08-.33.33-.65.66-.98,1-2.21,7.21-8.49,11.28-12.92,16.77-3,.84-5.28,2.99-7.96,4.4-10.56,2.57-21.02,5.72-32.1,4.87-.64-.05-1.41.07-1.58.88-.25,1.18.6,1.95,1.42,2.37,4.69,2.36,9.63,3.41,14.85,2.27,1.78-.39,3.51-1.14,5.17.25-.33.35-.65.7-.98,1.05-1.97,1.05-3.95,2.1-5.92,3.15-3.64-1.57-7.33-2.48-11.21-.86-.92-.54-1.84-1.09-2.75-1.63-.92-2.15-1.85-4.3-2.77-6.45-.1-1.07-.2-2.14-.3-3.21ZM311.01,170.27c.83-.48,1.5-.64,1.61-.98,1.09-3.31,2.6-5.93,6.5-6.75,1.19-.25.05-1.72-.84-2.06-2.3-.87-4.21-.14-5.78,1.71-1.69,1.98-2.85,4.12-2.19,6.82.11.46.47.85.7,1.25Z"/>
    <path class="cls-10" d="M318.18,152.12c-5.71-.71-7.72,3.29-9.63,7.49-.66,1.46-1.09,3.6-2.97,3.6-2.42,0-2.03-2.58-2.76-4.12.48-7.1-4.12-12.88-5.1-19.61-.14-.95-1.05-1.2-1.92-1.25-4.71-.32-8.97-2.37-13.49-3.42-.63-.51-1.29-.82-2.05-.24.44.36.88.72,1.32,1.08.79,1.43,3.44,2.43,1.53,4.52-1.8,1.97-2.89-.45-4.07-1.24-2.64-1.77-5.51-2.12-8.56-1.98-1.56.07-3.84.84-4.12-1.42-.28-2.25,1.97-2.77,3.8-3.05,1.12-.17,2.28-.03,4.07-.03-2.38-3.49-5.68-5.05-8.33-7.3-1.26-1.07-2.21-.24-2.1,1.32.14,1.94.45,3.87.81,6.74-10.67-4.52-19.61-9.93-24.8-20.11,14.61.35,28.37,4.25,41.69,9.96,3.49,1.5,6.92,3.14,10.38,4.71,7.93,5.29,16.5,9.57,24.1,15.37,1.88,2.71,2.07,5.83,2.2,8.96ZM263.93,123.77c-.1-.12-.21-.24-.31-.37-.12.11-.32.22-.32.33,0,.12.18.24.29.37.12-.11.23-.22.35-.33Z"/>
    <path class="cls-15" d="M120.88,345.91c.18-.16.39-.23.64-.21,3.36.8,3.39-2.29,4.7-3.95,1.13-1.44,2.36-4.02,4.41-1.17,3.29,4.56,1.43,12.77-3.36,15.64-1.26.76-1.82,1.8-2.05,3.15-4.6,1.14-9.18,1.15-13.73-.26-.11-1.46-.22-2.92-.32-4.38-.15-2.2-.38-4.35-3.21-4.69-3.08-.38-4,1.51-4.24,4.09-1.97,5.05-6.15,5.25-10.63,4.87-.96-.08-1.94.13-2.91.2-.69-1.71-2.47-2.1-3.75-3.09-3.59-2.77-4.82-9.4-2.26-13.94,3-5.33,4.96,1.34,7.59.79.16-.03.33-.04.49-.06,0,0,.01.07,0,.07-.19,1.48.36,2.19,1.93,1.85.26-.28.52-.56.78-.84,1.08.14,2.22-.15,2.52-1.13,1.35-4.47,4.73-7.75,6.7-11.85,1.43-2.97,3.28-3.53,5.54-.73,2.51,3.11,4.59,6.48,5.28,10.45.38,2.19,1.24,4.16,2.46,5.87,1.25,1.74,2.88,2.63,3.42-.66Z"/>
    <path class="cls-12" d="M215.91,370c-5.14,2.32-10.55.65-15.82,1.05.4-11.9,1.42-23.75,2.58-35.6.27-2.8.18-5.63.26-8.44,5.57-.23,9.23,5.27,14.84,5,.15,0,.35,1.17.52,1.8-1.64,12.01-1.9,24.11-2.39,36.19Z"/>
    <path class="cls-8" d="M282.2,210.29c2.69-1.41,4.96-3.56,7.96-4.4,5.39,2.08,4.97,8.26,8.28,11.87.85.92-1,2.22-1.89,3.14-7.7,7.92-17.12,12.29-28.05,13.52-3.79-.31-5.75.6-3.16,4.65,1.24,1.94,2.57,3.86,3.55,5.93.95,2,3.13,5.17,1.48,6.17-2.43,1.47-3.05-2.44-4.5-3.9-2.17-2.19-2.4-6.47-6.87-6.1-.34-.33-.68-.65-1.02-.98-.94-1.19-1.92-1.16-2.93-.09-.54.11-1.08.22-1.62.33-2.52-.73-4.04.81-5.58,2.4-1.62,1.66-3.25,3.35-5.05,4.8-.92.74-3,.66-2.26-.88,1.83-3.85,4.57-7.1,7.86-10.06,2.27-2.05,3.12-.03,4.63.22,1.63.27,2.99-.5,3.85-1.8,2.14-3.27,4.15-6.63,6.2-9.96,1.97-1.05,3.95-2.1,5.92-3.15-.13.64-.2,1.31-.4,1.93-.45,1.4-1.3,2.9.49,3.9,1.01.56,1.87-.22,2.6-.92,1.19-1.15,1.77-2.4.6-3.92-.5-.65-.98-1.33-1.47-1.99.27-1.15.98-1.85,2.14-2.09,1.53.8,2.63,3.12,4.92.94,1.91-1.81,2.82-3.49.97-5.79,1.12-1.25,2.25-2.5,3.37-3.75ZM289.83,219.94c1.54-.41,2.94-1.29,2.82-2.87-.12-1.5-.66-3.63-2.63-3.53-1.82.09-3.37,1.74-3.58,3.49-.24,2.03,1.98,2.19,3.39,2.92ZM285.79,223.7c-.97-.85-1.49-2.86-3.29-2.11-1.37.57-3.34,1.29-3.27,3.26.06,1.82,1.57,2.46,3.21,2.23,1.76-.24,2.98-1.26,3.35-3.38Z"/>
    <path class="cls-4" d="M115.59,323.27c2.8-2.2,6.34-1.13,9.47-2.14,6.11-1.99,11.45-4.97,15.92-9.57,1.19-1.23,2.18-2.48,2.15-4.29,9.75-.31,19.64,1.48,29.2-1.86-.2,1.08-.17,2.06,1.01,2.59-.92,1.7-.38,3.16.76,4.52-3.59-.2-7.2-.45-9.05,3.64-6.81,8.1-15.89,10.2-25.9,9.73-7.91-.37-15.82-.78-23.56-2.62Z"/>
    <path class="cls-4" d="M197.15,317.22c-1.58-.12-3.17-.24-4.75-.35,0,0-.18-.02-.18-.02-.4-.1-.79-.21-1.19-.31-2.98-.74-6.73.54-8.51-3.29,1.7-1.14,1.27-2.71.87-4.28.63-1.36.37-2.75.11-4.13,6.57-.7,13.03,1,19.58.88,3.44.23,6.88.46,10.32.71,1.25.09,2.91-.53,3.55.95.78,1.78-1.05,2.53-2,3.55-3.01,3.23-7.09,4.67-10.98,6.42-2.28-.04-4.56-.07-6.83-.11Z"/>
    <path class="cls-2" d="M197.15,317.22c2.28.04,4.56.07,6.83.11-1.59,1.42-5.12.65-4.91,4.03.17,2.74,2.53,3.34,4.67,3.67,1.96.31,3.92.02,5.9-.6,1.49-.47,2.92-1.78,4.69-.97.03,2.46-3.29,2.11-3.59,4.28,2.8,1.18,5.51,1.22,8.19-.09,1.36-.66,2.66-.62,3.57.66,2,2.82,4.74,2.01,7.23,1.37,8.05-2.04,13.42-10.95,11.87-19.35-.4-2.16-1.76-4.5.99-6.16.96.1,1.92.2,2.87.31,1.39,6.46.06,13.05.88,19.53-.15,1.28-.3,2.56-.45,3.84-.6.06-1.2.11-1.8.17-1.8-.34-3.27.08-4.12,1.86-5.52,3.17-11.37,4.98-17.81,4.37-1.29-.15-2.58-.3-3.86-.45-.18-.63-.38-1.81-.52-1.8-5.61.27-9.28-5.22-14.84-5-5.36-.64-5.68-1.17-5.78-9.79Z"/>
    <path class="cls-6" d="M149.81,247.1c-1.02,6.35-14.29,8.85-18.89,4.01-1.76-1.85-1.14-3.6-.07-4.88,3.77-4.57,7.82-8.93,11.79-13.34.95-1.05,2.18-1.48,3.6-1.28,4.83,5.02,4.1,10.59,1.58,16.32-.32.34-.64.68-.96,1.01-.46.17-1.45.07-1.05.79.32.59.97-.06,1.35-.5.34-.31.68-.63,1.02-.94.55-.39,1.1-.78,1.65-1.18Z"/>
    <path class="cls-10" d="M213.07,113.02c5.73-.28,11.46-.55,17.2-.83-2.45,6.09-7.64,9.41-13,12.34-3.33,1.82-5.15,3.95-5.75,7.86-.61,3.99-.36,8.24-2.48,11.93-.77-2.44-1.54-4.87-2.31-7.31-.42-6.32.05-12.53,2.42-18.49.86-2.16,1.74-4.29,3.93-5.5Z"/>
    <path class="cls-6" d="M259,241.16c4.47-.37,4.7,3.91,6.87,6.1,1.45,1.46,2.07,5.37,4.5,3.9,1.65-1-.53-4.16-1.48-6.17-.98-2.07-2.31-3.99-3.55-5.93-2.59-4.05-.63-4.96,3.16-4.65-.53,1.22-.3,2.07.82,2.99,6.99,5.71,8.1,13.71,8.45,22.01.09,2.15-.52,2.4-2.58,1.88-5.04-1.25-8.86-4.38-12.78-7.44,0,0-.08-.05-.08-.05-.17-1.29-.63-2.41-1.8-3.13-.05-.25-.16-.46-.34-.64.05-.85-.18-1.59-.89-2.13,0-.3-.08-.58-.22-.84-.13-.43-.26-.85-.39-1.28-.1-.58-.21-1.15-.31-1.73.2-.97.4-1.93.61-2.9Z"/>
    <path class="cls-5" d="M59.11,272.61c2.17-.61,2.84-2.32,3.65-4.24,1.03-2.42,2.71-4.53,5.79-4.74,3.07-.21,5.01,1.09,5.9,4.05.78,2.58,4.09,3.36,4.51,6.22-4.66.61-1.16,2.87-.78,4.34.36,1.4,1.59,2.68.05,4.06-1.48,1.32-2.32-.29-3.46-.71-5.45-2.01-11.71-2.54-14.92-8.49-.04-.07-.32,0-.48,0-.17-.11-.25-.26-.25-.46Z"/>
    <path class="cls-11" d="M244.1,328.03c.6-.06,1.2-.11,1.8-.17-.42,3.41,1.48,5.01,4.53,5.09,20.33.54,40.81,2.92,60.51-4.65,3.4-1.31,6.71-2.87,10.06-4.32-.02,1.01-.04,2.01-.06,3.02-10.84,6.5-22.92,8.56-35.2,8.95-11.74.37-23.51.78-35.26-.74-6.38-.83-6.49-.53-6.37-7.18Z"/>
    <path class="cls-13" d="M69.25,218.8c-3.69.82-2.92-2.13-3.35-4-1.37-5.98.03-10.11,4.39-13.08,3.49-2.38,10.03-1.85,14.07.69,6.5,4.1,7.21,10.21,6.49,16.98-.2,1.85-1.65,2.81-2.77,4-4.07,4.32-9.41,1.79-14.07,2.07-1.53.09-5.1-2.86-4.64-6.52,1.6.22,2.48,1.51,3.64,2.42,3.12,2.44,9.77,2.3,12.45-.17.29-.19.47-.44.56-.77.34-.44.68-.88,1.02-1.31,1.08-.61,1.63-1.39,1.55-2.79-.27-4.6-1.48-8.28-5.8-11.13-3.4-2.25-6.26-2.26-9.68-1.09-3.35,1.15-4.56,3.53-4.24,6.89-2.11,2.71-.21,5.23.37,7.81Z"/>
    <path class="cls-14" d="M100.06,232.08c-.37,2.06.37,3.23,2.59,3.15,4.95-.18,6.12,3.79,7.82,7.14.99,1.96-.3,3.21-1.71,4.14-3.6,2.37-7.66,3.89-11.65,1.67-2.48-1.38-5.95-2.91-4.88-7.09,1.78,2.07,4.18,3.16,6.62,4.14,3.14,1.26,7.18,1.8,8.37-1.52,1.26-3.49-3.11-3.68-5.52-4.8-3.34-1.55-7.41-1.92-9.42-5.71-1.96,1.95-1.1,4.35-1.09,6.62-3.85-2.19-2.14-5.6-1.4-8.36.77-2.91,3.39-1.35,5.38-1.22,1.87.12,2.87,2.32,4.9,1.85h-.01Z"/>
    <path class="cls-11" d="M55.09,272.78c-2.74.84-7.17.15-7.56,3.39-.39,3.22,3.75,4.55,6.45,5.99,8.53,4.54,17.82,7.09,26.93,10.1.05.78.09,1.56.13,2.34-11.41-1.74-21.55-6.97-31.93-11.55-2.63-1.16-2.93-5.03-6.35-5.03-.88-5.67,4.29-5.78,7.32-7.53,1.8-1.04,4.33-.63,5.01,2.3Z"/>
    <path class="cls-2" d="M143.95,285.39c.94.6,1.87,1.21,2.81,1.81.06.55.13,1.09.19,1.64,1.16,5.63-1.78,8.06-6.89,8.67-2.25.27-4.53.35-6.79.52,0,0-.14-.16-.14-.16-1.57-5.64,1.73-8.84,5.84-11.64,1.45-1.56,3.28-.84,4.99-.84Z"/>
    <path class="cls-5" d="M73.52,187.9c-1.05-4.33,5.92-9.35,10.56-10.02,2.36-.34,2.14,1.76,1.7,3.1-1.45,4.39-4.05,8.16-7.16,11.52-.65.7-2.03,1.5-3.16.72-1.85-1.26-1.91-3.32-1.93-5.33Z"/>
    <path class="cls-5" d="M97.57,199.31c-3.1-2.7-3.37-5.22-1.84-9.49,1.83-5.1,4.68-7.33,9.44-8.58,4.61-1.2,8.78,2.15,8.35,7.04-1.05.67-1.62,2.21-3.26,1.83-.01-3.63-1.53-5.44-5.44-4.97-3.67.44-5.45,2.31-5.86,5.97-.45,4.02,1.65,5.27,5.12,5.39-1.67,2.1-3.96,2.73-6.5,2.8Z"/>
    <path class="cls-2" d="M206.72,137c.77,2.44,1.54,4.87,2.31,7.31.59,5.07-1.43,9.96-1.08,15.01-4.57-1.54-6.89-4.91-6.93-9.54-.04-5.01-.74-10.56,5.7-12.78Z"/>
    <path class="cls-2" d="M210.89,164.34c2.92-5.19,9.28-6.91,13.81-3.78,1.84,1.27,2.7,2.95,2.2,5.14-.51,2.23-2.04,3.25-4.31,3.42-4.29.34-8.27-.34-11.72-3.11,0-.56,0-1.12,0-1.67Z"/>
    <path class="cls-13" d="M110.25,190.11c1.64.38,2.21-1.16,3.26-1.83.56,2.38.7,4.82,1.9,7.1,1.33,2.53.36,4.74-1.8,6.54-2.11,1.76-3.94,1.13-5.73-.43-3.04-2.66-7.1-.45-10.32-2.19,2.54-.07,4.84-.7,6.51-2.8,1.02-3.14,2.77-5.57,6.18-6.39Z"/>
    <path class="cls-11" d="M121.07,234.09c-6.93-.1-9.28-2.54-7.25-7.54,1.42-3.5,12.63-6.7,15.57-4.44,3.85,2.96,3.3,7.43-1.28,10.31-2.55,1.6-3.08,1.73-7.05,1.67ZM121.09,232.27c1.9.1,4.24-.99,6.28-2.83,1.13-1.02,2.36-2.13,1.49-3.78-.83-1.59-2.34-1.57-3.89-1.02-2.02.71-4.09,1.31-6.07,2.1-1.52.61-3.32,1.32-2.76,3.46.52,1.99,2.36,2.02,4.95,2.07Z"/>
    <path class="cls-1" d="M314.98,59.36c-5.03,2.8-5.13,2.77-6.04-2.57-1.22-7.12-5.04-13.18-7.94-19.62,8.76,4.81,12.45,12.82,13.99,22.18Z"/>
    <path class="cls-6" d="M230.42,219.8c-.03-.28-.13-.54-.31-.76-.8-4.25.67-7.66,3.88-10.41,1.14.26,2.34.39,3.17,1.36-2.24,1.99-4.99,3.83-1.12,6.88,2.45,1.93-1.43,4.79.46,6.26,1.35,1.05,3.49-1.62,5.92.42,3.64,3.06-1.05,4.53-.58,6.79-5.27-1.92-7.86-6.76-11.42-10.53Z"/>
    <path class="cls-5" d="M91.2,239.83c-.02-2.27-.88-4.67,1.09-6.62,2,3.79,6.08,4.16,9.42,5.71,2.4,1.12,6.78,1.31,5.52,4.8-1.2,3.32-5.23,2.78-8.37,1.52-2.44-.98-4.85-2.07-6.62-4.14-.34-.42-.68-.84-1.02-1.27Z"/>
    <path class="cls-9" d="M120.88,345.91c-.54,3.29-2.18,2.41-3.42.66-1.22-1.71-2.08-3.67-2.46-5.87-.69-3.98-2.78-7.34-5.28-10.45-2.26-2.8-4.11-2.24-5.54.73-1.97,4.1-5.36,7.38-6.7,11.85-.29.98-1.44,1.27-2.52,1.13,1.44-7.03,6.29-12.23,9.85-18.11,1.41-2.32,3.12-1.94,4.71.06,3.86,4.83,6.7,10.19,8.4,16.13.5,1.75.46,3.73,2.97,3.86Z"/>
    <path class="cls-14" d="M111.15,266.15c-.94.89-1.72.54-2.58-.2-2.33-1.99-3.45-8.77-1.87-11.57,1.52-2.68,7.64-4.86,10.67-3.8,4.85,1.71,7.94,5.53,7.45,9.26-.14,1.03-.75,1.83-1.64,2.38-.42-.12-.85-.24-1.27-.36.12-2.61.7-5.38-2-7.17-2.99-1.98-6.4-2.75-9.1-.14-3.12,3.01-2.19,6.56.36,9.72,0,.62,0,1.25,0,1.87Z"/>
    <path class="cls-2" d="M69.6,233.53c1.28-.37,2.36.1,3.09,1.07,4.29,5.72,9.74,10.25,14.95,15.05,1.07.98,3.1,2.4,1.04,4.42-.53-.31-1.06-.61-1.6-.92-.56-2.79-2.27-4.1-5.1-3.99-.95,0-1.91,0-2.86,0-2.15-1.93-6.69-2.33-5.86-6.16.95-4.39-1.27-6.63-3.9-9.06l.25-.42Z"/>
    <path class="cls-5" d="M142.71,271.34c-.74,3.87-3.36,6.44-7.09,8.01-1.41.59-2.58.08-3.52-1.05-1.05-1.27-.71-2.43.24-3.57,1.7-2.03,3.3-4.14,5.09-6.09.94-1.03,1.93-2.58,3.73-1.51,1.47.87,1.64,2.38,1.54,4.21Z"/>
    <path class="cls-9" d="M92.23,342.89c-.16.02-.33.03-.49.06-2.63.56-4.59-6.12-7.59-.79-2.55,4.54-1.33,11.17,2.26,13.94,1.28.99,3.07,1.38,3.75,3.09-.02.41-.04.81-.06,1.22-9.8-3.54-12.01-8.39-8.21-18.52,1.01-2.7,1.5-7.12,4.16-7.25,3.04-.15,4.14,4.2,5.8,6.81.25.4.25.95.36,1.43Z"/>
    <path class="cls-10" d="M59.37,273.08c.17,0,.45-.06.48,0,3.21,5.95,9.48,6.48,14.92,8.49,1.14.42,1.98,2.04,3.46.71,1.54-1.38.31-2.66-.05-4.06-.38-1.47-3.88-3.73.78-4.34.33.07.66.13.99.2.18,1.31.14,2.69.58,3.9.68,1.85,1.92,3.4-.13,5.34-1.98,1.87-4.37,2.44-6.4,1.41-3.02-1.52-6.14-2.25-9.35-3.09-4.23-1.11-4.85-4.9-5.29-8.58Z"/>
    <path class="cls-1" d="M182.53,313.24c1.78,3.83,5.53,2.56,8.51,3.29.4.1.79.21,1.19.31,0,0,.18.02.18.02-1.22,1.52-3,1.51-4.55,1.2-7-1.42-14.08-.75-21.12-1.05-.57-.02-1.13-.56-1.69-.86,1.86-4.09,5.47-3.85,9.05-3.65,2.73,1.18,5.63.35,8.42.73Z"/>
    <path class="cls-9" d="M125.22,359.37c.23-1.34.78-2.39,2.05-3.15,4.79-2.87,6.65-11.09,3.36-15.64-2.05-2.85-3.28-.27-4.41,1.17-1.3,1.66-1.33,4.75-4.7,3.95,1.86-3.1,3.61-6.27,5.62-9.27,1.49-2.23,3.01-2.88,4.47.34,2.09,4.62,3.12,9.38,2.54,14.39-.56,4.81-3.58,7.46-8.93,8.21Z"/>
    <path class="cls-3" d="M110.77,212.08c-1.18-.26-1.68-.91-1.29-2.13,1.39-4.28,7.45-6.75,13.04-5.29,5.65,1.47,9.2,5.92,8.44,10.52-.19,1.16-.75,1.76-1.88,1.91.56-5.04-2.66-7.84-6.61-9.2-3.82-1.32-7.72-.25-10.5,3.18,0,0,.02,0,.02,0-.41.33-.82.66-1.23,1Z"/>
    <path class="cls-8" d="M69.6,233.53s-.25.42-.24.42c-4.52,2.03-6.2,7.01-4.96,12.98.74,3.58,3.76,5.79,4.67,9.16l-.11.11c-.44-.14-.89-.28-1.33-.42-6.76-6.99-7.84-14.77-3.05-21.52,1.47-2.07,2.94-3.31,5.02-.72Z"/>
    <path class="cls-10" d="M103.71,354.13c.25-2.57,1.16-4.47,4.24-4.09,2.84.35,3.07,2.49,3.21,4.69.1,1.46.21,2.92.32,4.38-.11,1.01-.21,2.02-.32,3.04-.52-.4-1.08-.76-1.57-1.2-.79-.72-.28-2.71-1.95-2.42-1.36.23-2.2,1.44-2.52,2.82-.27,1.11-.18,2.42-1.83,2.5-.18-.97-.35-1.93-.53-2.9,1.74-2.08.66-4.55.94-6.83Z"/>
    <path class="cls-5" d="M56.05,257.99c-2.83,2.53-5.11,1.17-6.93-1.24-2.09-2.77-4.3-5.84-2.4-9.45,1.17-2.23,3.01-1.51,4.21.41,1.3,2.08,2.51,4.21,3.76,6.32-.61,1.68-3.18,4.05,1.36,3.96Z"/>
    <path class="cls-5" d="M100.08,232.1c.58-1.07-.14-1.85-.6-2.7-1.36-2.51-.75-4.69,1.82-5.59,2.27-.8,4.39.46,4.95,2.82.6,2.51-.5,4.45-3.33,4.94-.95.17-1.9.34-2.85.51,0,0,.01.01.01.01Z"/>
    <path class="cls-1" d="M111.98,211.08c2.79-3.43,6.69-4.5,10.5-3.18,3.94,1.36,7.16,4.16,6.61,9.2-2.8-.15-2.65-3.28-4.72-4.57-4.13-2.56-8.16-1.91-12.39-1.45Z"/>
    <path class="cls-2" d="M100,265.61c-.24,2.12-.95,4.1-3.48,3.9-2.26-.18-4.33-1.38-4.08-4.06.18-1.96.98-4.08,3.55-4.05,2.59.04,3.78,1.7,4.01,4.21Z"/>
    <path class="cls-10" d="M304.01,188.2c.65-1.49,1.59-2.93,1.88-4.49.92-4.85,3.81-5.79,8.06-4.47-2.24,4.18-4.88,7.91-9.94,8.97Z"/>
    <path class="cls-8" d="M147.8,247.92c2.52-5.74,3.25-11.3-1.58-16.32,5.4,1.52,7.27,7.03,4.6,13.55-.3.59-.6,1.19-.9,1.78,0,0-.12.17-.12.17-.55.39-1.1.78-1.65,1.18-.11-.12-.23-.24-.35-.36Z"/>
    <path class="cls-10" d="M138.97,286.23c-4.11,2.8-7.41,6-5.84,11.64-4.36-1.2-5.16-3.09-2.68-6.95,1.23-1.91,3.26-3.31,3.7-5.74,1.61.35,3.21.69,4.82,1.04Z"/>
    <path class="cls-8" d="M155.01,265.54c-.19,2.05-1.45,3.04-3.27,3.03-2.16-.02-3.3-1.42-3.22-3.53.07-1.95,1.41-3.03,3.22-3.06,2.29-.05,2.9,1.75,3.27,3.57Z"/>
    <path class="cls-8" d="M87.08,253.15c.53.31,1.07.61,1.6.92,1.03,2.2-1.08,2.73-2.06,3.86-.55.27-1.1.54-1.66.81,0,0-.33.17-.32.18-4.08,1.12-8.17,1.36-12.27.04,0,0-.26-.17-.26-.16-.56-.29-1.13-.59-1.7-.88-.46-.31-.92-.62-1.38-.92.02-.26,0-.52-.06-.78,0,0,.11-.11.11-.11,1.75-.24,3.14.76,4.67,1.32,5.56,2.04,11.27.19,13.34-4.25Z"/>
    <path class="cls-13" d="M103.71,354.13c-.28,2.28.79,4.75-.94,6.83-4.23,0-8.5,1.03-12.66-.55.02-.4.04-.81.06-1.21.97-.07,1.96-.28,2.91-.2,4.48.38,8.65.18,10.63-4.87Z"/>
    <path class="cls-10" d="M121.91,261.86c.42.12.85.24,1.27.36-.28,3.21-2.82,3.93-5.24,4.78-1.55-.03-3.1-.07-4.65-.1-.71-.25-1.42-.5-2.13-.76,0-.62,0-1.25,0-1.87,3.98.97,7.58.26,10.75-2.41Z"/>
    <path class="cls-1" d="M55.93,222.14c1.9.22,3.18,1,2.87,2.84-.3,1.74-1.53,3-3.4,2.96-1.53-.04-2.26-1.21-2.29-2.71-.05-2.05,1.11-2.94,2.82-3.09Z"/>
    <path class="cls-2" d="M72.37,258.94c4.09,1.32,8.18,1.08,12.27-.04-2.25,2.92-9.11,2.94-12.27.04Z"/>
    <path class="cls-14" d="M56.05,257.99c-4.55.1-1.97-2.27-1.36-3.96,1.93.81,1.4,2.47,1.36,3.96Z"/>
    <path class="cls-14" d="M113.29,266.9c1.55.03,3.1.07,4.65.1-1.58,1.29-3.13,1.56-4.65-.1Z"/>
    <path class="cls-4" d="M119.5,278.62c-.61-1.29-.64-2.49-.05-4.07.88,1.53.78,2.73.05,4.07Z"/>
    <path class="cls-9" d="M94.17,344.81c-1.56.34-2.11-.37-1.93-1.85.64.62,1.29,1.23,1.93,1.85Z"/>
    <path class="cls-14" d="M88.07,363.57c-1.02.45-2.05.44-3.08.06,1.01-.73,2.04-.74,3.08-.06Z"/>
    <path class="cls-14" d="M99.09,363.64c-.7,0-1.41,0-2.11,0,.71-.68,1.41-.68,2.11,0Z"/>
    <path class="cls-2" d="M68.97,256.19c.06.26.08.52.06.78-.81,0-1.51-.13-1.4-1.2.45.14.89.28,1.34.42Z"/>
    <path class="cls-6" d="M149.93,246.93c.3-.59.6-1.19.9-1.78-.3.59-.6,1.19-.9,1.78Z"/>
    <path class="cls-2" d="M84.96,258.73c.55-.27,1.11-.54,1.66-.81-.18,1.04-.84,1.08-1.66.81Z"/>
    <path class="cls-2" d="M70.41,257.9c.57.29,1.13.59,1.7.88-.83.21-1.48.08-1.7-.88Z"/>
    <path class="cls-10" d="M303.09,189.11c.33-.33.65-.66.98-1,.17.81-.43.88-.98,1Z"/>
    <path class="cls-14" d="M69.11,348.8c-.38,0-.77-.01-1.15-.02.39-.41.77-.39,1.15.02Z"/>
    <path class="cls-1" d="M110.77,212.08c.41-.33.82-.67,1.23-1-.41.33-.82.67-1.23,1Z"/>
    <path class="cls-14" d="M94.11,363.62c-.38,0-.77,0-1.15,0,.38,0,.77,0,1.15,0Z"/>
    <path class="cls-12" d="M222.16,334.25c6.44.61,12.29-1.2,17.81-4.37.47,7.09,2.75,10.07,10.25,11,13.46,1.67,26.75,5.19,40.47,4.21,4.28-.3,4.43,1.61,2.98,4.6-3.05,6.27-5.89,12.69-11.24,17.51-1.1.99-2.3,1.97-2.56,3.59-19.91.07-39.81.14-59.72.22.67-12.25,1.34-24.5,2.01-36.75ZM267.86,352.84c-.47-2.44-1.95-4.23-4.42-4.49-2.71-.29-4.3,1.38-4.37,4.13-.07,2.73,1.42,4.25,4.12,4.53,2.99.31,3.93-1.74,4.68-4.17ZM233,355.79c2.12-.83,3.98-2.19,3.86-4.85-.11-2.47-1.73-3.82-4.22-3.9-2.51-.08-4.38,1.2-4.38,3.63,0,2.68,1.78,4.48,4.74,5.12Z"/>
    <path class="cls-7" d="M222.16,334.25c-.67,12.25-1.34,24.5-2.01,36.75-1.56.3-2.93-.23-4.24-1,.49-12.08.75-24.18,2.39-36.19,1.29.15,2.58.3,3.86.45Z"/>
    <path class="cls-13" d="M242.6,304.18c-2.76,1.66-1.39,4.01-.99,6.16,1.55,8.4-3.82,17.31-11.87,19.35-2.5.63-5.24,1.45-7.23-1.37-.91-1.28-2.21-1.32-3.57-.66-2.69,1.31-5.4,1.27-8.19.09.3-2.17,3.62-1.82,3.59-4.28-1.77-.81-3.2.5-4.69.97-1.97.62-3.94.9-5.9.6-2.13-.33-4.5-.93-4.67-3.67-.21-3.38,3.31-2.62,4.91-4.03,3.88-1.75,7.96-3.19,10.98-6.42.95-1.01,2.78-1.77,2-3.55-.65-1.48-2.3-.86-3.55-.95-3.44-.25-6.88-.47-10.32-.71-.04-2.7.65-4.89,3.78-5.35,5.18.13,9.26-2.68,13.5-5.06,1.47.03,2.95.06,4.42.08,5.37,4.15,11.41,6.75,18.12,7.8-.1.33-.21.67-.31,1.01Z"/>
    <path class="cls-7" d="M224.79,295.38c-1.48-.03-2.95-.06-4.42-.08,1.24-15.51,2.63-31.01,3.64-46.54.54-8.41,2.44-11.49,10.65-13.86,3.82-1.1,3.6-2.4,1.04-4.81-2.93-2.76-5.09-6.05-5.28-10.28,3.57,3.77,6.15,8.61,11.42,10.53,1.15,1.05,2.47,1.75,4.06,1.84.2.71.99,1.72-.02,2.09-3.65,1.35-5.4,4.97-8.55,6.87-4.2-1.97-6.46-.6-7.55,3.88-2.06,8.44-1.74,17.11-2.59,25.65-.82,8.23-1.47,16.48-2.4,24.71Z"/>
    <path class="cls-6" d="M237.33,241.13c3.15-1.9,4.91-5.52,8.55-6.87,1.01-.37.22-1.38.02-2.09,2.29-2.4,3.27-5.79,5.94-7.91,3.88-1.61,7.57-.71,11.21.86-2.06,3.33-4.06,6.69-6.2,9.96-.85,1.3-2.22,2.08-3.85,1.8-1.51-.25-2.35-2.27-4.63-.22-3.28,2.96-6.02,6.21-7.86,10.06-.74,1.55,1.34,1.62,2.26.88,1.81-1.45,3.43-3.14,5.05-4.8,1.55-1.59,3.06-3.13,5.58-2.4-1.67,11.22-9.21,16.09-19.47,18.02-2.64,0-1.78-1.91-1.82-3.33.88-3,1.77-6,2.65-9,.85-1.66,1.7-3.32,2.54-4.99Z"/>
    <path class="cls-7" d="M242.6,304.18c.1-.34.21-.67.31-1.01-.15-2.47.52-4.23,3.44-4.33,1.14-.04,2.28-.58,3.42-.56,12.14.28,24.15-1.38,36.23-2.16,3.63-.23,5.98-.94,6.35-5.6.67-8.55,3.16-16.89,3.78-25.5.09-1.27.69-2.5,1.36-3.72,1.21,8.6.42,17.2-.9,25.63-.83,5.3-1.01,9.09,5.04,10.75,1.14.31,2.27,1.37,2.74,3.24-15.75-4.2-31.22.76-46.77.28-3.12-.1-6.25.61-9.39.82-1.67.11-2.22,1.21-2.73,2.47-.96-.1-1.92-.2-2.88-.3Z"/>
    <path class="cls-7" d="M233.96,258.45c10.26-1.93,17.8-6.8,19.47-18.02.54-.11,1.08-.22,1.62-.33.98.03,1.95.06,2.93.09.34.33.68.65,1.02.98-.2.97-.4,1.93-.61,2.9-2.5,1.24-2.83,3.93-3.88,6.06-2.66,5.4-6.65,9.25-12.09,11.74-3.09,1.41-5.91,2.6-6.9-2.28-.09-.46-1.02-.76-1.56-1.13Z"/>
    <path class="cls-7" d="M237.16,284.17c-2.5-.41-4.11-1.82-4.13-4.56-.02-2.93,2.12-4.3,4.5-4.19,2.43.11,4.27,2.01,4.3,4.62.02,2.77-1.84,4.04-4.66,4.13Z"/>
    <path class="cls-7" d="M267.27,286.01c-2.45-.78-4.96-1.73-5.05-4.74-.08-2.78,1.76-4.25,4.51-4.18,2.79.07,4.24,1.78,4.35,4.47.1,2.53-1.26,4.01-3.81,4.45Z"/>
    <path class="cls-7" d="M234.79,246.12c-.88,3-1.77,6-2.65,9-.69-3.46-.19-6.58,2.65-9Z"/>
    <path class="cls-7" d="M260.54,250.67c1.17.71,1.63,1.84,1.8,3.13-1.62-.46-1.85-1.71-1.8-3.13Z"/>
    <path class="cls-7" d="M259.31,247.9c.71.54.93,1.28.89,2.13-.96-.43-1.17-1.18-.89-2.13Z"/>
    <path class="cls-7" d="M258.7,245.78c.13.43.26.85.39,1.28-.52-.31-.73-.71-.39-1.28Z"/>
    <path class="cls-10" d="M264.17,177.44c2.83-1.15,2.75.82,2.49,2.52-.43,2.81-2.24,4.82-4.59,6.18-7.32,4.26-15.09,4.74-22.91,1.82-3.86-1.44-6.44-4.41-7.49-8.65-.65-2.61.23-3.72,2.68-4.03.17,1.7.72,3.19,2.03,4.38,5.83,5.34,22.74,4,27.8-2.23Z"/>
    <path class="cls-1" d="M264.17,177.44c-5.06,6.23-21.97,7.57-27.8,2.23-1.31-1.2-1.87-2.69-2.03-4.38,8.91.75,17.83,1.43,26.78.92,1.19-.07,2.34.08,3.05,1.24Z"/>
    <path class="cls-8" d="M251.85,224.27c-2.67,2.12-3.65,5.5-5.94,7.91-1.59-.09-2.91-.79-4.06-1.84-.47-2.26,4.22-3.73.58-6.79-2.43-2.04-4.57.63-5.92-.42-1.89-1.47,1.99-4.33-.46-6.26-3.87-3.05-1.12-4.9,1.12-6.88,2.88,1.22,5.59,2.93,8.86,3,.1,1.07.2,2.14.29,3.2-.82,1.24-3.75,1.41-2.67,3.36.98,1.78,2.84,3.47,5.45,3.09.92.54,1.84,1.09,2.75,1.63Z"/>
    <path class="cls-2" d="M282.13,172.13c-.99,0-1.98-.01-2.98,0-2.87.04-4.88-1.1-5.08-4.17-.2-3.13,1.73-5.09,4.5-5.63,2.38-.46,5.01-.42,7.38.1,2.58.56,5.42,1.89,4.85,5.23-.48,2.81-2.64,4.47-5.71,4.47-.99,0-1.98,0-2.98,0Z"/>
    <path class="cls-10" d="M266.99,153.04c.03-3.84,1.34-6.73,5.22-6.92,4.08-.2,5.25,3.01,5.57,6.35.36,3.78-2.39,7.25-5.51,7.01-4.03-.31-4.97-3.31-5.27-6.44Z"/>
    <path class="cls-10" d="M232.09,147.75c.08,4.94-1.1,8.06-4.97,8.04-3.68-.02-5.36-2.85-5.25-6.49.1-3.35,1-6.8,4.81-6.97,4.12-.18,5.34,3.16,5.42,5.42Z"/>
    <path class="cls-2" d="M245.52,150.41c.8,3.45-1.49,5.62-2.65,8.17-.82,1.8-3.07,3.67-.82,5.77,1.79,1.67,3.97,2.3,6.42,1.04,1.59-.82,3.68-2.08,4.32.79.55,2.48-1.66,2.67-3.5,3.14-2.28.58-4.5,1.19-6.83.45-4.29-1.36-6.1-5.26-4.39-9.39.92-2.23,4.89-7.6,7.46-9.98Z"/>
    <path class="cls-10" d="M229.78,134.98c-3.16-.42-5.87.73-8.46,2.36-.95.6-2.11,1.54-3.06.24-.81-1.11-.07-2.24.75-3.11,2.88-3.09,6.43-4.62,10.69-4.33,2.21.15,4.99.47,4.88,3.08-.12,2.88-3,1.6-4.8,1.76Z"/>
    <path class="cls-2" d="M249.95,197.09c-.53-.08-.95-.02-1.17-.2-1.57-1.26-5.44.15-4.99-2.67.35-2.21,3.27-.75,5.09-.31.48.11.99.07,1.48.15,1.49.24,4.08-2.35,4.26.71.12,2.07-3.04,1.8-4.66,2.33Z"/>
    <path class="cls-1" d="M206.87,300.35c-3.14.46-3.82,2.65-3.78,5.35-6.54.12-13-1.58-19.57-.88-3.12.8-6.29.25-9.43.26-.05-1.69-.08-3.38-1.17-4.82,5.28-.42,10.61.3,15.87-1.09,4.79-1.27,8.44-3.5,10.26-8.42,3.67-9.91,8.14-19.52,12.14-29.48-1.44,13.03-2.88,26.06-4.31,39.08Z"/>
    <path class="cls-11" d="M172.91,300.27c1.09,1.44,1.12,3.13,1.17,4.82-.58.11-1.17.21-1.75.32-9.56,3.34-19.45,1.55-29.2,1.86-13.46-1.82-27.02-3.05-40.08-7.15.02-.72.03-1.44.05-2.17,15.49,2.87,30.99,5.68,46.76,6.37,4.15.18,8.32.08,12.46-.16,2.42-.14,5.81-.04,6.43-2.67.65-2.73-2.5-4.03-4.67-5.07-4.63-2.23-9.39-4.17-14.1-6.23-1.01-.45-2.03-.9-3.04-1.35-.06-.55-.12-1.09-.19-1.64,9.54,2.7,18.88,5.8,26.14,13.07Z"/>
    <path class="cls-14" d="M64.11,306.23c-8.14-3.08-12.29-9.01-14.64-16.39-.31-.96-.72-2.04.02-2.84,1.11-1.2,2.14.07,3.1.47,3.43,1.44,6.23,3.11,7.06,7.5.73,3.89,2.92,7.51,4.47,11.25Z"/>
    <path class="cls-14" d="M103.11,297.95c-.02.72-.03,1.44-.05,2.17-7.56-.95-15.06-2.15-22.01-5.53-.04-.78-.09-1.56-.13-2.34,0,0,.08-.13.08-.13,1.59.04,3.17.08,4.76.13l.16.15c4.8,4.29,10.9,4.04,16.72,4.79.23.21.39.46.48.77Z"/>
    <path class="cls-9" d="M102.62,297.19c-5.81-.75-11.92-.5-16.72-4.79,2.26-.75,4.23.43,6.28.96,2.32.6,5.27,2.25,6.56-.69,1.21-2.75-1.83-4.4-3.73-5.79-1.38-1.01-3.4-1.63-5.11-1.57-2.04.06-4.25.44-5.67,2.49-1.57,2.27,2.09,2.61,1.5,4.45-1.59-.04-3.17-.08-4.76-.13.2-3.63,1.14-7.33,4.82-8.44,4.11-1.24,8.35-.97,11.9,2.51,3.16,3.1,6.2,6.01,4.92,10.99Z"/>
    <path class="cls-5" d="M116.68,298.17c-1.89.04-3.64.1-4.17-1.59-.55-1.78,1.09-2.65,2.38-3.3,2.21-1.1,4.49-2.1,6.82-2.9,1.34-.46,3.11-.95,3.96.77.87,1.76-.12,3.28-1.57,4.25-2.34,1.56-4.8,2.98-7.42,2.76Z"/>
    <path class="cls-10" d="M146.95,288.84c1.01.45,2.03.9,3.04,1.35-.08,7.16-2.03,9.35-9.53,9.85-2.47.17-6.23,3.67-7.19-2,2.27-.17,4.54-.25,6.8-.52,5.11-.62,8.04-3.04,6.89-8.67Z"/>
    <path class="cls-9" d="M282.2,210.29c-1.12,1.25-2.25,2.5-3.37,3.75-1.96,1.62-3.93,3.23-5.89,4.85-1.16.23-1.87.94-2.14,2.09-.28.04-.56.02-.84-.05-1.66-1.39-3.39-.64-5.17-.25-5.22,1.14-10.16.09-14.85-2.27-.83-.42-1.67-1.19-1.42-2.37.17-.81.94-.93,1.58-.88,11.08.85,21.54-2.31,32.1-4.87Z"/>
    <path class="cls-5" d="M311.01,170.27c-.23-.4-.59-.8-.7-1.25-.66-2.71.51-4.84,2.19-6.82,1.57-1.84,3.48-2.58,5.78-1.71.89.34,2.03,1.81.84,2.06-3.91.81-5.42,3.44-6.5,6.75-.11.34-.78.49-1.61.98Z"/>
    <path class="cls-6" d="M269.97,220.93c.28.07.56.09.84.05.49.66.96,1.34,1.47,1.99,1.17,1.52.6,2.76-.6,3.92-.73.71-1.59,1.49-2.6.92-1.8-1-.95-2.5-.49-3.9.2-.62.27-1.28.4-1.93.33-.35.65-.7.98-1.05Z"/>
    <path class="cls-9" d="M249.09,222.64c-2.61.37-4.47-1.31-5.45-3.09-1.07-1.95,1.85-2.11,2.67-3.36.93,2.15,1.85,4.3,2.78,6.45Z"/>
    <path class="cls-13" d="M281.57,135.66c-.44-.36-.88-.72-1.32-1.08.76-.58,1.42-.27,2.05.24-.24.28-.49.56-.73.84Z"/>
    <path class="cls-13" d="M263.93,123.77c-.12.11-.23.22-.35.33-.1-.12-.29-.25-.29-.37,0-.12.21-.22.32-.33.1.12.21.24.31.37Z"/>
    <path class="cls-6" d="M289.83,219.94c-1.4-.73-3.63-.89-3.39-2.92.21-1.75,1.75-3.4,3.58-3.49,1.97-.1,2.52,2.03,2.63,3.53.12,1.58-1.28,2.46-2.82,2.87Z"/>
    <path class="cls-6" d="M285.79,223.7c-.37,2.12-1.59,3.14-3.35,3.38-1.64.23-3.15-.41-3.21-2.23-.07-1.97,1.9-2.69,3.27-3.26,1.8-.75,2.32,1.26,3.29,2.11Z"/>
    <path class="cls-6" d="M272.94,218.89c1.96-1.62,3.93-3.23,5.89-4.85,1.85,2.3.94,3.98-.97,5.79-2.29,2.18-3.39-.14-4.92-.94Z"/>
    <path class="cls-6" d="M257.98,240.18c-.98-.03-1.95-.06-2.93-.09,1.01-1.07,1.99-1.1,2.93.09Z"/>
    <path class="cls-3" d="M182.53,313.24c-2.8-.38-5.7.44-8.42-.73-1.14-1.36-1.68-2.81-.76-4.52,3.35.32,6.71.64,10.06.96.4,1.57.83,3.14-.87,4.28Z"/>
    <path class="cls-14" d="M183.4,308.96c-3.35-.32-6.71-.64-10.06-.96-1.18-.53-1.21-1.51-1.01-2.59.59-.11,1.17-.22,1.75-.32,3.15,0,6.31.55,9.43-.26.25,1.39.51,2.77-.11,4.13Z"/>
    <path class="cls-7" d="M192.22,316.85c-.4-.1-.79-.21-1.19-.31.4.1.79.21,1.19.31Z"/>
    <path class="cls-8" d="M147.14,249.22c-.37.45-1.03,1.09-1.35.5-.39-.72.6-.62,1.06-.79,0,0,.29.29.29.29Z"/>
    <path class="cls-8" d="M148.16,248.28c-.34.31-.68.63-1.02.94,0,0-.29-.28-.29-.28.32-.34.64-.68.96-1.02.12.11.24.23.35.36Z"/>
    <path class="cls-15" d="M68.88,210.99c-.31-3.36.9-5.75,4.24-6.89,3.42-1.17,6.28-1.16,9.68,1.09,4.31,2.85,5.52,6.52,5.8,11.13.08,1.4-.47,2.17-1.55,2.79-.34.44-.68.88-1.02,1.31-.09.33-.28.59-.57.77-7.74.2-14.04-1.94-16.58-10.19Z"/>
    <path class="cls-5" d="M68.88,210.99c2.54,8.25,8.84,10.39,16.58,10.19-2.67,2.47-9.32,2.61-12.44.17-1.16-.91-2.04-2.2-3.64-2.42,0,0-.13-.13-.13-.13-.57-2.59-2.48-5.11-.37-7.82Z"/>
    <path class="cls-5" d="M86.04,220.41c.34-.44.68-.88,1.02-1.31-.34.44-.68.88-1.02,1.31Z"/>
    <path class="cls-10" d="M110.25,190.11c-3.42.82-5.16,3.25-6.18,6.39-3.47-.12-5.57-1.37-5.12-5.39.41-3.66,2.19-5.53,5.86-5.97,3.91-.47,5.43,1.34,5.44,4.97Z"/>
    <path class="cls-5" d="M121.09,232.27c-2.59-.05-4.43-.08-4.95-2.07-.56-2.14,1.24-2.85,2.76-3.46,1.99-.79,4.05-1.39,6.07-2.1,1.55-.55,3.06-.57,3.89,1.02.87,1.66-.36,2.76-1.49,3.78-2.04,1.84-4.38,2.93-6.28,2.83Z"/>
    <path class="cls-13" d="M121.91,261.86c-3.16,2.67-6.77,3.39-10.75,2.41-2.55-3.16-3.48-6.71-.36-9.72,2.7-2.61,6.11-1.84,9.1.14,2.7,1.79,2.13,4.55,2,7.17Z"/>
    <path class="cls-6" d="M87.08,253.15c-2.06,4.45-7.78,6.29-13.34,4.25-1.53-.56-2.92-1.56-4.67-1.32-.92-3.37-3.93-5.58-4.67-9.16-1.24-5.97.44-10.95,4.96-12.98,2.63,2.43,4.85,4.66,3.9,9.06-.83,3.82,3.72,4.22,5.86,6.16-.16,1.84-1.5,3.13-2.32,4.7,2.51,1.67,5.33,2.07,7.26-.05,1.96-2.14-1.69-2.91-2.09-4.65,2.83-.11,4.54,1.2,5.1,3.99Z"/>
    <path class="cls-8" d="M81.98,249.16c.4,1.74,4.04,2.51,2.09,4.65-1.93,2.12-4.76,1.72-7.26.05.81-1.57,2.16-2.85,2.32-4.7.95,0,1.91,0,2.86,0Z"/>
    <path class="cls-7" d="M267.86,352.84c-.74,2.43-1.69,4.49-4.68,4.17-2.7-.28-4.19-1.8-4.12-4.53.07-2.75,1.66-4.42,4.37-4.13,2.48.26,3.96,2.05,4.42,4.49Z"/>
    <path class="cls-7" d="M233,355.79c-2.96-.64-4.74-2.44-4.74-5.12,0-2.44,1.88-3.72,4.38-3.63,2.49.08,4.11,1.44,4.22,3.9.12,2.66-1.74,4.02-3.86,4.85Z"/>
    <path class="cls-15" d="M85.75,292.25c.6-1.84-3.06-2.18-1.5-4.45,1.41-2.05,3.63-2.43,5.67-2.49,1.71-.05,3.73.56,5.11,1.57,1.9,1.39,4.94,3.04,3.73,5.79-1.29,2.94-4.24,1.29-6.56.69-2.06-.53-4.03-1.71-6.28-.96,0,0-.16-.15-.16-.15Z"/>
  </g>
</svg>