<?xml version="1.0" encoding="UTF-8"?>
<svg id="Layer_2" xmlns="http://www.w3.org/2000/svg" viewBox="0 0 408.08 416.21">
  <defs>
    <style>
      .cls-1 {
        fill: #d5d8db;
      }

      .cls-2 {
        fill: #d79d76;
      }

      .cls-3 {
        fill: #75858d;
      }

      .cls-4 {
        fill: #f8e5bd;
      }

      .cls-5 {
        fill: #4e575d;
      }

      .cls-6 {
        fill: #a77d5a;
      }

      .cls-7 {
        fill: #c36257;
      }

      .cls-8 {
        fill: #c2c1c0;
      }

      .cls-9 {
        fill: #ad4e42;
      }

      .cls-10 {
        fill: #cf8e67;
      }

      .cls-11 {
        fill: #75543c;
      }

      .cls-12 {
        fill: #a4afb4;
      }

      .cls-13 {
        fill: #fefefe;
      }

      .cls-14 {
        fill: #ecbb8e;
      }

      .cls-15 {
        fill: #989898;
      }
    </style>
  </defs>
  <g id="Layer_1-2" data-name="Layer_1">
    <path class="cls-8" d="M139.86,404.17c-3.87.34-7.1-1.64-10.38-3.11-23.64-10.61-45.23-24.13-64.17-42.17-33.05-31.47-52.98-69.7-61.97-114.08C-.13,227.72-.58,210.41.55,193.19c1.72-26.37,8.68-51.48,20.19-75.44,9.89-20.59,22.56-39.19,38.28-55.54,18.61-19.34,40.41-34.36,65.08-45.25,17.76-7.84,36.18-13.26,55.37-15.53,17-2.01,34.05-1.92,51.16.42,24.88,3.41,48.11,11.46,69.95,23.47,21.57,11.87,40.49,27.14,56.58,45.92,17.52,20.44,31.01,43.21,39.39,68.75,5.84,17.8,9.81,36,11.07,54.92,1.38,20.62-.45,40.7-5,60.7-4.9,21.58-13.5,41.64-24.96,60.51-15.58,25.66-35.87,46.96-60.36,64.2-11.84,8.34-24.49,15.37-38.03,20.67-.66-8.66-1.31-17.33-1.97-25.99,0-.64-.02-1.28-.03-1.91,11.58-7.21,22.21-15.63,31.26-25.86,5.23-5.91,9.07-12.71,8.74-20.97-.45-11.22-4.01-21.72-8.45-31.86-1.24-2.83-1.01-6.65-4.46-8.36-2.41-8.79-7.63-16.15-12.1-23.89-7.55-13.1-17.51-23.7-31.6-29.89-1.55-.68-3.1-2.21-4.66.29-5.47,8.8-13.69,13.75-23.52,16.21-4.01,1-4.81,2.43-2.24,6.02,4.57,6.37,5.04,13.89,4.83,21.42-.06,2.27-.91,4.49-4,3.55-5.12-1.56-9.91-3.67-12.68-8.69,3.42.37,5.86,3.04,9.07,3.87,1.04.27,2.72,1.47,2.93-.99.65-7.56-.58-20.72-10.26-25.11,1.16-2.89,4.21-1.7,6.17-2.87,2.9-.35,5.64-1.21,8.18-2.68,7.05-2.14,12.29-6.93,17.4-11.9.66-.64,1.78-1.52.89-2.49-3.44-3.74-4.48-9.35-9.32-12-.14-1.31.64-2.16,1.51-2.92,5.24-4.54,9.25-10.12,13.3-15.67,4.97-2.41,8.92-5.82,10.97-11.11,7.14-.42,12.64-4.6,13.44-11.37.75-6.33-.95-13.81-8.38-16.7-1.77-2.71-.39-6.2-2.21-8.9,2.57-5.76,3.13-12,4.06-18.1.43-2.81.96-3.88,4.03-4.08,23.36-1.52,33.69-23.52,27.18-42.4-1.19-3.44-.92-8.28-5.87-9.63-1.4-3.44-3.7-6.04-6.73-8.24-7.42-5.37-15.75-6.25-24.49-5.5-.01-.83.19-1.74-.07-2.48-3.17-9.18-8.98-16.56-16.05-23.02-.62-.57-1.88-.45-2.84-.65-15.34-12.73-36.45-9.69-50.07,2.72-2.03,1.85-3.4,2.52-5.91.82-5.55-3.74-11.79-4.97-18.49-4.59-14.37.82-28.14,13.75-28.58,27.07-2.34,8.95-1.34,17.28,4.37,24.85,3.77,5,7.94,9.28,14.52,10.22-1.57,7.24-4.16,14.25-4.8,21.69-5.15,7.3-6.12,15.59-5.75,24.2-2.42.6-3.1,2.97-4.25,4.63-4.66,6.74-2.28,15.65,4.91,19.43.45,2.25,1.03,4.45,1,6.81-.06,7.45,1.83,15.13,5.18,21.07,4.18,7.43,9.51,15,17.28,19.79,2.02,1.24,3.1,2.86,3.45,5.11-1.89,2.58-4.72,4.59-4.95,8.18-11.93,3.47-22.65,9.23-32.46,16.83-3.51,2.72-6.77,5.91-11.15,7.37-.86-2.23-.53-4.57-.53-6.86-.02-8.31-2-10.37-9.99-12.53-3.79-1.02-7.13,1.31-10.69.25-3.58-5.37-7.06-10.8-10.77-16.08-2.64-3.76-7.78-4.19-10.16-.98-1.89,2.56-1.44,5.27-.18,8.02,2.57,5.59,6.98,10.14,9.1,15.98-4.03,2.77-5.28,6.57-5.04,11.4.17,3.48,1.09,7.15-.67,10.56-1.66-.11-2.9.67-3.78,1.97-8.99,13.27-18.76,26.28-15.44,43.88.88,5.79,3.33,11.28,8.02,14.33,6.68,4.34,14.72,4.27,22.03,1.55,11.05-4.11,21.15-10.22,30.95-16.78,1.38,3.86,2.59,7.76,2.86,11.89-1.31.99-2.48,2.31-3.94,2.92-6.16,2.56-11.59,6.09-16.29,10.87-4.09,4.16-6.05,8.66-3.8,14.39.33.32.66.64.99.96h0c1.74,9.72,7.16,17.62,12.89,25.27,2.97,3.97,7.35,6.73,10.16,10.91.22,6.7-1.05,13.28-1.54,19.93Z"/>
    <path class="cls-1" d="M277.32,375.01c.66,8.66,1.31,17.33,1.97,25.99-14.43,6.75-29.76,10.42-45.37,12.98-5.83.96-11.7,2.38-17.71,1.45,3.42-4.07,9.17-5.86,11.12-11.37.08-.14.15-.28.23-.42-.08.14-.15.28-.23.43-1.31.16-2.66.16-3.92.5-15.14,4.13-30.39,4.6-45.75,1.4q-8.4-1.75-8.25,6.92c-1.39-.36-2.78-.72-4.17-1.08.63-6.28.75-12.28-6.2-15.66-1.35-.66-2.59-2.04-2.81-3.84,4.33.31,8.01,2.78,12.15,3.72,12.38,2.13,24.69,1.58,36.94-1.01,1.92.03,3.84.07,5.76.1,1.86,1.86,4.15.81,6.27.93,1.06,1.16,2.41.88,3.7.7,9.6-1.37,17.66-5.92,24.89-12.13,1.35-1.16,2.32-2.87,4.43-2.8,3.27,4.06,6.9,4.97,11.57,2,4.98-3.17,10.25-5.89,15.39-8.8Z"/>
    <path class="cls-13" d="M227.33,404.06c-1.94,5.51-7.7,7.3-11.12,11.37-15.73,1.58-31.34.79-46.8-2.55q-.15-8.69,8.25-6.92c15.36,3.21,30.61,2.74,45.75-1.4,1.26-.34,2.61-.34,3.92-.5h0Z"/>
    <path class="cls-13" d="M156.22,392.31c.22,1.8,1.46,3.18,2.81,3.84,6.95,3.38,6.83,9.38,6.2,15.66-8.74-1.59-17.52-3.07-25.38-7.63.49-6.64,1.76-13.23,1.54-19.93,5.42,1.81,9.33,6.39,14.82,8.06Z"/>
    <path class="cls-13" d="M218.41,271.05c2.77,5.02,7.57,7.13,12.68,8.69,3.09.94,3.94-1.28,4-3.55.21-7.53-.26-15.04-4.83-21.42-2.57-3.59-1.77-5.02,2.24-6.02,9.83-2.46,18.05-7.41,23.52-16.21,1.55-2.5,3.11-.97,4.66-.29,14.09,6.19,24.05,16.79,31.6,29.89,4.46,7.74,9.69,15.1,12.1,23.89,1.06,3.83,2,7.7,3.22,11.47,5.96,18.47,3.77,35.3-11.14,48.69-12.5,11.23-26.43,20.57-42.16,26.89-3.41-6.01-6.08-12.54-11.73-17-.09-.34-.18-.68-.27-1.02.01-2,1.57-2.72,2.96-3.61,12.97-8.28,24.61-18.13,35.01-29.46,2.26-.45,4.64-.61,6.73-1.45,1.27-.51,4.13.52,3.64-2.07-.37-1.93-2.74-1.37-4.34-1.33-.8.02-1.62.33-2.39.6-3.58,1.25-5.25.29-6.89-3.55-4.37-10.27-9.2-20.39-16.4-29.36.2,17.48,2.21,34.93-1.31,52.22-.7,1.1-1.51,2.04-2.97,1.99-.11-7.37.67-14.78-.97-22.08-.02-4.75-1.9-8.21-6.49-10.14-13.06-5.48-26.71-3.86-40.22-3.29-10.92.46-21.52,3.24-32.19,5.45-.46-.6-.93-1.19-1.39-1.79.37-.91.99-1.8,1.07-2.74.77-8.86,1.13-17.77,2.24-26.59.87-6.88.15-13.88,1.89-20.65,1.22-4.77,3.81-5.97,8.26-4.01-3.24,4.54-4.59,9.76-5.77,15.11-.73,3.34.38,4.25,3.44,3.72.58.26,1.68.6,1.65.76-.91,6.01,2.72,3.63,5.27,2.78,1.55-.52,2.95-1.48,4.4-2.27,6.32-3.41,9.32-9.41,11.83-16.02.89,1.25,1.44,2.02,2,2.8,1.69,2.98,3.37,5.96,5.06,8.94.32.32.63.64.95.96l.05.05c.32.32.63.63.95.95l.05.06ZM188.24,298.09c3.5.15,4.85-2.12,4.88-5,.03-2.77-1.94-3.97-4.67-4-3.42-.04-4.9,2.03-4.91,4.99-.01,2.81,2.06,3.93,4.7,4.02ZM224.34,293.93c.15-1.89-1.53-2.89-4.35-2.95-2.99-.06-4.86.84-4.73,4.22.12,2.98,1.52,4.75,4.57,4.76,3.12,0,4.39-1.91,4.51-6.03Z"/>
    <path class="cls-13" d="M270.3,62.26c8.74-.75,17.06.13,24.49,5.5,3.04,2.2,5.33,4.81,6.73,8.24,1.92,6.49,2.39,13.03.06,19.47-7.7,21.27-31.39,22.97-45.48,7.96-2.21-2.35-2.14-4.61-.82-7.26,1.19-2.4,2.83-4.72,2.38-8.33-10.92,8.92-22.53,13.55-36.32,10.47-13.68-3.05-23.12-11.39-29.45-24.01-1.26,1.92-2.03,3.48-1.43,4.84,1.7,3.84-1.13,4.6-3.53,5.62-8.12,3.45-15.88,2.24-23.3-2.08-8.02-4.66-12.59-11.95-15.33-20.57.43-13.31,14.21-26.24,28.58-27.07,6.7-.38,12.94.85,18.49,4.59,2.51,1.69,3.88,1.03,5.91-.82,13.62-12.41,34.73-15.44,50.07-2.72,5.54,6.69,10.72,13.64,11.91,22.55.87,6.49.66,6.52,7.04,3.6Z"/>
    <path class="cls-14" d="M184.21,219.94c-.35-2.24-1.43-3.86-3.45-5.11-7.77-4.79-13.1-12.37-17.28-19.79-3.35-5.94-5.24-13.62-5.18-21.07.02-2.36-.56-4.56-1-6.81.67-5.72,1.35-11.45,2.02-17.17,1.48-3.06,1.72-6.37,1.99-9.67.33-3.97,1.61-6.99,5.68-8.99,6.34-3.11,11.44-7.94,15.24-14,3.02-.12,6.07-.64,9.03.48,3.03,9.09,16.68,19.95,25.71,20.39.36-2.96-1.66-5.75-.53-9.53,9.78,8.96,21.19,13.94,33.77,16.39,1.06.21,1.94.68,2.17,1.78,1.21,5.83,4.89,10.99,4.62,17.22-2.94,2.4-2.16,5.98-2.59,9.03-2.02,14.22-6.45,27.33-18.17,36.46-10.57,8.23-22.03,14.81-36.37,12.68-1.28-.19-2.71-.42-3.56,1.06-3.65-1.13-6.96-3.45-11.03-3.15-.36-.06-.71-.12-1.07-.18ZM182.99,181.32c-1.9.22-3.44.55-3.67,3.1-.64,7.37,5.63,17.1,12.79,19.47,9.32,4.15,18.57,2.42,24.35-4.56,3.86-2.73,4.9-6.97,5.82-11.19.43-1.94.25-3.96-2.78-2.77-2.12-3.95-5.33-1.3-7.99-1.17-9.67.48-19.02-1.95-28.53-2.88ZM238.39,184.09c3.03-.09,6.59.86,7.8-3.32.98-3.4-.93-5.72-3.43-7.57-3.54-2.63-11.87-1.07-14.46,2.47-1.72,2.36-.33,4.1.98,5.74,2.35,2.94,5.74,2.86,9.1,2.69ZM169.32,163.14v-.04c-.66,0-1.33,0-1.99,0-2.99-.02-5.31,1.12-5.84,4.23-.53,3.17,1.41,4.81,4.25,5.77,2.24.76,4.51,1.37,6.81.89,2.82-.59,5.81-1.58,5.62-5.17-.18-3.39-2.49-5.28-5.87-5.67-.98-.11-1.99-.02-2.98-.02ZM173.37,153.04c-.09,4,2.2,7.12,5.47,6.94,4.2-.22,5.43-3.28,5.67-6.9.24-3.62-1.15-6.35-4.99-6.81-3.61-.44-6.05,2.47-6.15,6.77ZM231.55,160.97c.09-3.7-1.4-6.51-5.33-6.28-4.15.24-5.17,3.54-5.14,7.22.03,3.67,1.51,6.38,5.45,6.24,4.44-.15,4.99-3.62,5.02-7.18ZM196.85,156.84c-2.69,3.65-5.08,6.37-6.85,9.45-1.65,2.86-1.11,6.16,1.54,8.04,3.54,2.51,7.86,2.2,11.97,1.39,1.46-.29,2-1.7,1.64-3.17-.39-1.6-1.54-1.24-2.76-1.01-1.6.32-3.28.61-4.89.49-4.81-.36-5.73-2.22-3.49-6.43,1.26-2.39,3.79-4.29,2.85-8.78ZM227.11,141.63c-1.97.38-4.75.05-4.83,3.03-.07,2.86,2.42,1.98,4.14,2.01,3.72.06,6.63,1.92,9.35,4.22.84.71,1.78,1.83,3,.68,1.02-.97.67-2.18.05-3.22-2.63-4.36-6.74-6.19-11.7-6.72ZM180.64,133.32c-2.93.06-5.5.59-7.7,2.27-1.22.93-2.43,2.22-1.51,3.77.89,1.49,2.34.48,3.53,0,2.16-.87,4.34-1.82,6.71-1.05,2.44.8,5.89,2.5,6.59-.78.65-3.06-3.55-3.09-5.89-4.02-.59-.23-1.3-.15-1.74-.19ZM201.32,214.08c0,.05,0,.1.01.16,1.47-.14,2.98-.1,4.38-.48,1.17-.32,2.86-.81,2.26-2.58-.53-1.56-1.85-.76-2.93-.47-2.1.58-4.22.57-6.33.06-1.66-.4-4.21-1.74-4.65.37-.47,2.21,2.45,2.52,4.3,2.91.94.2,1.97.04,2.95.04Z"/>
    <path class="cls-12" d="M156.22,392.31c-5.49-1.67-9.4-6.25-14.82-8.06-2.81-4.18-7.2-6.94-10.16-10.91-5.72-7.65-11.15-15.55-12.89-25.28,2.79,1.79,5.42,3.95,8.98,4.02,1.1.34,2.18.86,3.3.99,10.15,1.18,20.18,2.14,30.55,1.29,18.76-1.54,36.94-5.05,54.65-11.28,5.14-1.81,10.07-4.26,15.55-5.01,1.02,5.26.1,10.24-2.13,15.03-5.07-.94-10-1.4-15.13.48-2.8,1.03-2.8,3.04-3.26,4.93-.48,1.98,1.32,2.91,2.83,3.56,1.81.79,3.74,1.3,5.62,1.94-.83,2.51-3.84,2.83-5.02,4.98-3.86.71-8.03-1.05-11.67,1.05-5.25,3.03-7.13,9.61-5.15,16.9-5.32,2.53-11.06,3.9-16.52,5.97-4.14,1.57-9.04-.41-12.58,3.11-4.14-.94-7.81-3.41-12.15-3.72ZM138.09,359.05c-5.86-.05-6.04.04-4.74,3.01,5.36,12.23,14.83,20.11,27.08,24.79,1.3.5,3.57,1.94,4.51.26,1.11-2.01-1.21-3.03-2.64-4.1-7.25-5.42-13.67-11.59-17.46-20-1.45-3.23-3.75-4.49-6.74-3.96Z"/>
    <path class="cls-1" d="M148.3,62.13c2.75,8.62,7.31,15.91,15.33,20.57,7.42,4.31,15.19,5.52,23.3,2.08,2.4-1.02,5.23-1.78,3.53-5.62-.6-1.36.17-2.92,1.43-4.84,6.32,12.62,15.77,20.95,29.45,24.01,13.78,3.08,25.39-1.56,36.32-10.47.45,3.62-1.19,5.94-2.38,8.33-1.32,2.65-1.39,4.91.82,7.26,14.08,15.01,37.78,13.3,45.48-7.96,2.33-6.44,1.86-12.99-.06-19.47,4.95,1.34,4.69,6.19,5.87,9.63,6.51,18.88-3.82,40.88-27.18,42.4-3.07.2-3.6,1.26-4.03,4.08-.93,6.1-1.5,12.35-4.06,18.1-8.76-6.96-18.71-12.02-28.21-17.81,2.88-2.3,2.62-5.91,3.81-8.93,2.5-6.3,1.82-10.96-4.36-15.29-3.48-2.44-6.14-2.44-9.85-2.19-14.15.95-26.38-3.7-36.56-13.67-1.54-1.51-2.72-3.98-5.73-2.16-5.86,3.54-12.5,3.65-18.87,2.73-4.26-.61-4.85,1.19-5.16,4.31-6.58-.94-10.75-5.22-14.52-10.22-5.71-7.58-6.72-15.9-4.37-24.85Z"/>
    <path class="cls-13" d="M135.66,252.32c4.37-1.46,7.64-4.65,11.15-7.37,9.81-7.61,20.53-13.36,32.46-16.83.08.61.17,1.22.25,1.83.04,7.41,7.06,10.35,10.55,15.92-2.11.53-3.9.88-5.62,1.43-4.7,1.5-8.51,3.95-8.99,9.46-1.38,15.85-2.73,31.7-4.09,47.55-5.98-4.79-11.97-9.58-17.95-14.38,1.36-6.26,3.06-12.48,2.02-19.14-2.7,4.76-5.39,9.51-8.09,14.27-2.52-2.02-5.03-4.05-7.55-6.07.93-2.87-.63-4.92-2.3-6.93-.47-.99-.93-1.97-1.4-2.96,2.03-3.62,2.56-7.15.37-11.07-.85-1.54-1.57-3.67-.81-5.72Z"/>
    <path class="cls-15" d="M139.79,279c2.52,2.02,5.03,4.05,7.55,6.07,2.02,1.62,4.05,3.25,6.07,4.87,5.98,4.79,11.97,9.58,17.95,14.38.9,1.4,1.98,2.56,3.71,2.89.46.6.93,1.19,1.39,1.79.91,1.66,1.98,3.37,4.19,2.69,11.87-3.64,24.16-4.01,36.38-5.2,9.44-.92,18.53.2,27.58,2.5,3.05.77,6.03,2.33,6.27,5.65.22,3.12-1,6.23-4.23,7.89-.42-.16-.84-.32-1.26-.47-3.77-3.11-8.06-4.6-12.96-3.97-1.94.25-3.57-.03-4.97-1.55-3.5-3.78-7.33-3.03-11.28-.73-3.12,1.82-5.55,4.64-9.38,5.48-7.74,1.69-14.93-1.87-22.45-1.91-1.24-.26-2.47-.5-3.02,1.1-.67-.08-1.33-.16-2-.25,0-3.8-2.02-6.34-5.13-8.19-6.08-6.98-12.94-13.08-20.68-18.17-.24-.17-.61-.55-.7-.49-.67.42-.12.71.18,1.01,5.21,6.76,10.92,13.05,17.3,18.73,0,.98.01,1.96.02,2.94-1.49-.38-2.98-.75-4.47-1.13-1.62-6.45-7.2-9.63-11.45-13.91-1.78-3.24-4.04-5.99-8.1-7.05,1.93,2.76,3.87,5.52,5.8,8.29,3.18,4.76,5.38,10.24,10.26,13.73.14,3.52,3.66,5.5,4.07,8.9-1.15.84-1.05,2.03-.88,3.23-.84-.01-1.68-.03-2.52-.04-1.49-1.25-1.39,0-1.47.95l-.36.25c-.73-.02-1.39.09-1.72.87l-.14.09c-1.41.39-3.81-1.1-3.8,1.99-5.79.68-5.82.81-2.86,6.04.56.99,2.3,2.21.66,3.32-1.27.85-2.49-.44-3.23-1.54-.82-1.23-1.46-2.58-2.14-3.9-.65-1.26-1.41-2.34-3.05-1.71-7.23,2.78-14.93,4.97-17.65,13.6v-.03c-7.87-2.74-8.99-7.16-3.48-13.11,4.38-4.72,9.86-7.69,15.6-10.28,2.8-1.27,3.93-2.88,2-5.69-.27-4.13-1.48-8.03-2.86-11.89-.63-4.42-1.56-8.77-3.11-12.97.07-3.82-.72-7.37-3.15-10.43,1.37-3.4,4.22-4.39,7.53-4.64ZM149.31,291.11c-.03-.13-.04-.27-.1-.37-.04-.06-.17-.07-.25-.1.14.14.28.28.41.42.06.14.1.3.2.4.05.06.2.03.31.04-.19-.13-.37-.26-.56-.39ZM149.04,309.35c-.09,3.08,1.1,5.75,2.72,8.25,1.48,2.3,3.44,1.45,5.2.5,2.27-1.23.39-2.68-.24-3.61-2.29-3.38-4.84-6.58-7.3-9.84-1.64-4.53-4.45-8.32-7.79-11.83,2.13,5.68,3.11,11.83,7.42,16.54ZM140.35,296.53c-.43.14-.86.27-1.29.41,2.17,8.04,4.31,16.08,6.53,24.1.25.88,1.17,1.12,2.06.74,1.22-.53,1.91-1.54,1.43-2.8-2.86-7.5-5.81-14.97-8.73-22.44ZM230.78,313.19c.95-.4,2.98.56,3.02-1.36.03-1.83-1.67-2.75-3.5-2.82-1.54-.06-3.43.19-3.46,1.99-.04,2.31,2.2,1.88,3.94,2.19ZM143.83,290.44c.07-.27.1-.43.14-.58-.09.03-.26.06-.26.09,0,.12.05.24.12.49Z"/>
    <path class="cls-13" d="M167.2,97.2c.3-3.12.89-4.92,5.16-4.31,6.37.92,13,.81,18.87-2.73,3.02-1.82,4.19.65,5.73,2.16,10.17,9.97,22.41,14.62,36.56,13.67,3.71-.25,6.37-.25,9.85,2.19,6.18,4.33,6.86,8.99,4.36,15.29-1.19,3.01-.93,6.63-3.81,8.93-2.45-.99-4.91-1.95-7.35-2.97-14.54-6.07-29.54-10.33-45.3-11.63-2.96-1.11-6-.6-9.03-.48-6.67-.14-13.24.87-19.84,1.57.64-7.44,3.23-14.45,4.8-21.69Z"/>
    <path class="cls-13" d="M77.52,307.93c-3.32-17.6,6.45-30.61,15.44-43.88.88-1.3,2.12-2.07,3.78-1.97,1.17,12.61,8.66,20.22,20.6,20.92-1.46,11.64-4.34,22.64-13.4,31.02-5.84,5.4-14.26,5.4-20.16.09-2.19-1.97-3.51-4.8-6.26-6.18Z"/>
    <path class="cls-2" d="M196.31,223.27c.85-1.47,2.28-1.25,3.56-1.06,14.34,2.13,25.8-4.45,36.37-12.68,11.72-9.13,16.16-22.24,18.17-36.46.43-3.05-.35-6.63,2.59-9.03.12.47.2.97.38,1.42.77,1.9.36,4.98,2.72,5.33,2.48.38,2.93-2.65,3.89-4.42,2.27-4.18,4.88-7.7,10.34-7.27,7.43,2.89,9.12,10.37,8.38,16.7-.8,6.77-6.3,10.95-13.44,11.37-2.32.65-5.44-1.47-6.94,2.11-1.26,3.03-2.69,6-4.04,9-4.05,5.55-8.06,11.13-13.3,15.67-.88.76-1.65,1.62-1.51,2.92-3.49-.22-6.2,1.71-9.02,3.3-8.93,3.87-18.22,5.49-27.97,4.99-3.15-.16-6.12-1.74-9.33-.97-.28-.31-.56-.62-.84-.93ZM265.34,175.69c.19,1.37-.45,3.78,1.83,3.73,1.83-.03,2.05-2.28,2.05-3.94,0-2.59.82-4.54,3.49-5.31.87-.25,2.32.05,2.08-1.41-.22-1.32-1.52-1.57-2.74-1.64-3.53-.19-6.68,3.75-6.71,8.56Z"/>
    <path class="cls-11" d="M274.33,159.11c-5.45-.42-8.07,3.09-10.34,7.27-.96,1.76-1.41,4.79-3.89,4.42-2.36-.36-1.95-3.44-2.72-5.33-.18-.45-.26-.95-.38-1.42.27-6.22-3.41-11.39-4.62-17.22-.23-1.1-1.11-1.57-2.17-1.78-12.58-2.44-23.99-7.42-33.77-16.39-1.14,3.78.89,6.57.53,9.53-9.03-.44-22.68-11.3-25.71-20.39,15.76,1.3,30.76,5.56,45.3,11.63,2.44,1.02,4.9,1.98,7.35,2.97,9.5,5.78,19.46,10.85,28.21,17.81,1.82,2.7.44,6.19,2.21,8.9Z"/>
    <path class="cls-1" d="M254.3,373.1c15.73-6.33,29.66-15.67,42.16-26.9,14.91-13.39,17.1-30.23,11.14-48.69-1.22-3.78-2.15-7.65-3.22-11.47,3.45,1.71,3.22,5.53,4.46,8.36,4.44,10.15,8,20.65,8.45,31.86.33,8.27-3.51,15.06-8.74,20.97-9.05,10.23-19.67,18.64-31.26,25.86-5.5.84-9.9,4.04-14.51,6.77-5.34,3.17-5.32,3.19-7.6-1.82-.3-1.65-.59-3.3-.89-4.96Z"/>
    <path class="cls-1" d="M77.52,307.93c2.75,1.38,4.07,4.21,6.26,6.18,5.9,5.31,14.32,5.31,20.16-.09,9.05-8.37,11.94-19.38,13.4-31.02,1.28-.2,2.56-.39,3.84-.58.6,7.27-3.41,13.26-5.43,19.8-.35,1.14-2.01,2.42-.52,3.48,1.53,1.09,2.03-1.14,3.14-1.64,2.25-.23,3.62-2.08,5.49-3.01,4.05-2.01,6.82-6.14,11.56-7,1.55,4.2,2.48,8.55,3.11,12.97-9.79,6.56-19.9,12.67-30.95,16.78-7.31,2.72-15.35,2.79-22.03-1.55-4.69-3.05-7.14-8.54-8.02-14.33Z"/>
    <path class="cls-9" d="M234.46,220.19c2.83-1.59,5.53-3.52,9.02-3.3,4.84,2.65,5.87,8.25,9.32,12,.89.96-.23,1.84-.89,2.49-5.11,4.96-10.35,9.76-17.4,11.89-6.05-3.94-7.63-3.42-8.18,2.68-1.96,1.17-5.01-.02-6.17,2.87-1.98.28-3.11.67-1.66,3.11,1.76,2.96,2.98,6.25,4.43,9.4.36.79.58,1.73-.2,2.25-.82.55-1.65-.07-2.09-.76-1.15-1.8-2.02-3.81-3.3-5.51-1.86-2.47-2.95-6.38-7.46-4.71-1.01-.03-2.03-.06-3.04-.09-2.98-1.72-5.24-.84-7.15,1.84-1.24,1.74-2.63,3.39-4.07,4.97-.7.76-1.51,2.15-2.81,1.05-.82-.69-.46-1.84-.18-2.8,1.31-4.48,7.93-9.09,12.45-8.76.76.06,1.81-.03,2.29-.49,3.5-3.4,7.23-6.66,8.82-11.53.79-1.09,1.73-1.9,3.18-1.86-.2,2.41.63,4.29,3.06,4.97,1.49.42,2.58-.7,3.22-1.83,2.16-3.84-2.32-3.39-3.44-5.14.66-.66,1.32-1.32,1.98-1.98,4.47-2.59,8.51-5.59,10.28-10.77ZM240.34,233.11c2.13.13,3.91-.72,5.46-2.06,1.04-.9,1.9-1.97,1.19-3.47-.51-1.08-1.35-1.96-2.51-2.29-1.73-.48-2.18,1.12-3.03,2.06-1.52,1.69-1.06,3.75-1.14,5.72-2.84-1.47-4.78-.34-5.84,2.32-.68,1.72.54,3.11,2.12,3.2,3.44.2,3.77-2.36,3.75-4.99,0-.16,0-.33-.01-.49Z"/>
    <path class="cls-2" d="M121.18,282.42c-1.28.2-2.56.39-3.84.59-11.94-.7-19.43-8.32-20.6-20.92,1.76-3.41.85-7.08.67-10.57-.24-4.84,1-8.64,5.04-11.4.38.16.76.33,1.14.49.6,1.16.53,2.11-.6,3.03-4.29,3.53-4.06,8.17-2.95,12.93,1.56,6.71,5.6,11.81,10.58,16.37,4.23,3.88,7.02,4.21,11.95,1.44,3.86-2.17,7.14-5.39,11.6-6.48,0,0,.25.32.25.32-2.22,3.63-7.01,4.47-9.01,8.33-1.64.95-2.39,2.39-2.36,4.27-.94.16-1.74.49-1.87,1.61Z"/>
    <path class="cls-11" d="M162.39,118.89c6.6-.7,13.18-1.71,19.84-1.57-3.8,6.07-8.9,10.89-15.24,14.01-4.07,2-5.35,5.02-5.68,8.99-.28,3.31-.51,6.62-1.99,9.67-.89-2.3-1.79-4.6-2.68-6.89-.37-8.61.6-16.9,5.75-24.2Z"/>
    <path class="cls-3" d="M103.59,240.61c-.38-.16-.76-.33-1.14-.49-2.12-5.84-6.53-10.38-9.1-15.98-1.26-2.75-1.72-5.46.18-8.02,2.37-3.21,7.52-2.78,10.16.98,3.7,5.28,7.19,10.71,10.76,16.08.03.65.06,1.31.08,1.96-3.65,1.82-7.29,3.65-10.94,5.47ZM96.35,221.17c.24,1.97,1.4,2.94,3.31,2.82,1.46-.09,2.59-.94,2.43-2.49-.18-1.79-1.4-3.06-3.18-3.2-1.83-.15-2.49,1.21-2.56,2.87Z"/>
    <path class="cls-7" d="M209.86,252.6c4.52-1.66,5.61,2.25,7.46,4.71,1.28,1.7,2.14,3.71,3.3,5.51.44.69,1.28,1.3,2.09.76.78-.53.56-1.46.2-2.25-1.45-3.15-2.67-6.43-4.43-9.4-1.45-2.44-.31-2.84,1.66-3.11,9.68,4.38,10.91,17.55,10.26,25.11-.21,2.46-1.89,1.26-2.93.99-3.2-.83-5.64-3.5-9.07-3.87,0,0-.05-.06-.05-.05-.31-.31-.63-.63-.95-.95,0,0-.05-.05-.05-.05-.32-.32-.63-.64-.95-.96-1.69-2.98-3.37-5.96-5.06-8.94-.27-2.55.27-5.25-1.49-7.5Z"/>
    <path class="cls-2" d="M114.53,235.14c-.03-.65-.06-1.31-.09-1.96,3.56,1.06,6.9-1.27,10.7-.25,7.99,2.16,9.97,4.22,9.99,12.53,0,2.29-.32,4.63.53,6.86-.76,2.05-.04,4.18.81,5.72,2.18,3.93,1.66,7.45-.37,11.07-.56-.3-1.12-.6-1.68-.9,0,0-.25-.32-.25-.32.8-2.28,3.46-4.26,1.12-7.04-.31-.85-.62-1.7-.93-2.55-2.27-12.84-10.37-2.73-15.84-3.96,1.6-4.12,5.57-3.58,8.6-4.74,1.27-.48,3.14-.36,3.18-2.51.03-1.71-.99-2.77-2.26-3.61-1.56-1.03-3.16-1.13-5.13-.88-2.75.35-5.06,2.94-8.85,1.67,2.71-2.21,5.21-3.31,7.85-4.12.93-.28,2.11-.19,2.26-1.47.15-1.35-.83-2.03-1.87-2.65-2.46-1.47-5.13-.97-7.76-.9Z"/>
    <path class="cls-1" d="M141.38,318.92c1.93,2.81.8,4.43-2,5.69-5.73,2.59-11.22,5.55-15.6,10.28-5.51,5.95-4.4,10.37,3.47,13.11.03,1.36.05,2.72.08,4.08-3.56-.07-6.19-2.23-8.98-4.02,0,0,0,0,0,0-.33-.32-.66-.64-.99-.96-2.26-5.73-.29-10.23,3.8-14.39,4.7-4.78,10.13-8.31,16.29-10.87,1.47-.61,2.64-1.93,3.94-2.92Z"/>
    <path class="cls-2" d="M156.64,143.1c.89,2.3,1.79,4.6,2.68,6.89-.67,5.72-1.35,11.44-2.02,17.17-7.19-3.78-9.57-12.69-4.91-19.43,1.15-1.66,1.83-4.03,4.25-4.63Z"/>
    <path class="cls-1" d="M270.3,62.26c-6.38,2.92-6.17,2.89-7.04-3.6-1.2-8.91-6.38-15.86-11.91-22.55.96.2,2.22.08,2.84.65,7.07,6.46,12.88,13.84,16.05,23.02.26.75.05,1.65.07,2.48Z"/>
    <path class="cls-12" d="M255.19,378.06c2.28,5.01,2.27,4.99,7.6,1.82,4.61-2.74,9.01-5.93,14.51-6.77,0,.64.02,1.28.02,1.91-5.14,2.91-10.41,5.63-15.39,8.8-4.67,2.98-8.3,2.06-11.57-2,1.16-1.83,3.24-2.48,4.82-3.76Z"/>
    <path class="cls-11" d="M258.29,198.29c1.35-3,2.77-5.97,4.04-9,1.49-3.58,4.61-1.46,6.94-2.11-2.05,5.29-6,8.7-10.97,11.11Z"/>
    <path class="cls-6" d="M179.52,229.96c-.08-.61-.17-1.22-.25-1.84.22-3.59,3.05-5.6,4.95-8.18.36.06.71.12,1.07.18-.99,2.35-1.98,4.7-2.97,7.05-.06,1.64-.12,3.28-.17,4.92-.87-.71-1.75-1.43-2.62-2.14Z"/>
    <path class="cls-7" d="M226.33,245.94c.55-6.1,2.13-6.61,8.18-2.68-2.54,1.47-5.28,2.32-8.18,2.68Z"/>
    <path class="cls-12" d="M117.36,347.1c.33.32.66.64.99.96-.33-.32-.66-.64-.99-.96Z"/>
    <path class="cls-14" d="M197.47,386.94c-1.99-7.28-.11-13.86,5.15-16.9,3.64-2.1,7.8-.34,11.67-1.05,2.52,2.23,4.54-.36,6.76-.77,1.56-.29,4.47.04,3.6-2.65-.67-2.09-3-2.92-5.35-1.57-1.88-.63-3.81-1.15-5.62-1.94-1.51-.65-3.31-1.58-2.83-3.56.46-1.89.46-3.91,3.26-4.93,5.13-1.88,10.06-1.41,15.13-.48,2.04,3.72,6.3,1.44,9.01,3.33.41.7.7,1.52,1.25,2.07,12.29,12.33,8.92,23.23-4.07,30.32-2.65,1.45-5.21,4.72-9.11,3.24.76-1.62,1.8-3.72-1.51-2.17-3.64,1.7-7.33,2.94-11.33,3.18-1.36.08-2.09.81-2.43,2.05-1.92-.03-3.84-.07-5.76-.1,0-2.19-2.79-3.47-1.94-5.94,6.64-.16,13.54,1.19,19.39-3.5-6.87.08-13.57,2.02-20.45,1.53-1.61-.06-3.23-.11-4.84-.17ZM220.75,378.02c-6.02.51-11.98-.08-17.92.1-1.02.03-2.15.08-2.2,1.39-.02.44.72,1.31,1.15,1.33,6.51.34,13.1,1.1,18.97-2.82Z"/>
    <path class="cls-2" d="M226.33,392.06c3.9,1.48,6.46-1.79,9.11-3.24,12.99-7.09,16.36-17.99,4.07-30.32-.55-.55-.84-1.38-1.25-2.08,1.43-.11,2.87-.22,4.3-.32,5.65,4.46,8.32,10.98,11.73,17,.3,1.65.59,3.3.89,4.96-1.59,1.28-3.67,1.93-4.82,3.76-2.11-.07-3.09,1.65-4.43,2.8-7.24,6.21-15.3,10.76-24.89,12.13-1.29.18-2.64.46-3.7-.7,2.39-2.69,6.39-1.78,8.99-3.99Z"/>
    <path class="cls-15" d="M203.38,389.08c-.85,2.47,1.94,3.75,1.94,5.94-12.25,2.58-24.56,3.14-36.94,1.01,3.54-3.52,8.44-1.54,12.58-3.11,5.46-2.07,11.2-3.44,16.52-5.97,1.61.05,3.23.11,4.84.17,0,.84.22,1.58,1.06,1.97Z"/>
    <path class="cls-10" d="M226.33,392.06c-2.61,2.21-6.6,1.3-8.99,3.99-2.12-.12-4.41.94-6.27-.93.34-1.24,1.07-1.97,2.43-2.05,4-.25,7.69-1.48,11.33-3.18,3.31-1.55,2.27.55,1.51,2.17Z"/>
    <path class="cls-13" d="M227.33,404.06c.08-.14.15-.28.23-.43-.08.14-.15.28-.23.42,0,0,0,0,0,0Z"/>
    <path class="cls-15" d="M242.57,356.1c-1.43.11-2.87.21-4.3.32-2.72-1.88-6.97.4-9.01-3.32,2.23-4.8,3.15-9.78,2.13-15.03-.04-1.52,1.2-1.62,2.2-2.2,4.83-2.78,10.11-4.95,13.75-9.47,3.99-2.02,5.45-6.19,8.04-9.41,1.64,7.3.86,14.71.97,22.08-3.87,4.49-8.95,7.54-13.43,11.3-1.69,1.41-3.85,2.7-.61,4.73.09.34.18.68.27,1.02Z"/>
    <path class="cls-1" d="M259.32,337.07c3.51-17.29,1.51-34.74,1.31-52.22,7.2,8.97,12.04,19.09,16.4,29.36,1.63,3.84,3.31,4.8,6.89,3.55.78-.27,1.59-.58,2.39-.6,1.6-.04,3.98-.6,4.34,1.33.49,2.59-2.37,1.56-3.64,2.07-2.1.85-4.48,1.01-6.73,1.45-4.51-2.87-5.53-8.21-8.31-13.06-1.21,3.16-.14,5.16.53,7.13,1.64,4.81,1.39,8.98-3.01,12.37-3.51,2.71-6.79,5.73-10.17,8.61Z"/>
    <path class="cls-7" d="M216.17,236.79c-1.58,4.88-5.31,8.13-8.82,11.53-.48.47-1.53.55-2.29.49-4.53-.33-11.14,4.28-12.45,8.76-.28.97-.64,2.11.18,2.8,1.3,1.1,2.11-.29,2.81-1.05,1.45-1.58,2.83-3.23,4.07-4.97,1.91-2.68,4.17-3.56,7.15-1.84-.58,1.17-1.33,2.28-1.7,3.51-2.3,7.63-7.5,12.11-14.97,14.39-1.32.4-3.05.1-3.94,1.64-3.06.53-4.18-.38-3.44-3.72,1.18-5.35,2.53-10.58,5.77-15.11,2.64-2.18,5.2-4.52,8.37-5.9,2.13-.92,1.85-1.81.33-2.99,3.78-1.99,3.43-6.25,5.18-9.36,4.68-.1,9.37-.32,13.75,1.81Z"/>
    <path class="cls-8" d="M197.24,244.34c1.52,1.17,1.8,2.06-.33,2.99-3.17,1.38-5.73,3.72-8.37,5.9-4.45-1.96-7.04-.75-8.26,4.01-1.74,6.77-1.02,13.78-1.89,20.65-1.11,8.82-1.48,17.73-2.24,26.59-.08.94-.7,1.82-1.07,2.74-1.73-.33-2.81-1.49-3.71-2.89,1.36-15.85,2.71-31.7,4.09-47.55.48-5.51,4.29-7.96,8.99-9.46,1.72-.55,3.51-.9,5.62-1.43-3.49-5.58-10.51-8.51-10.55-15.92.87.71,1.75,1.43,2.62,2.15.21.38.42.76.62,1.14,1.9,3.31,4.5,5.84,8.11,7.24.71,1.37,1.88,2.15,3.31,2.62,1.02.41,2.04.83,3.06,1.24Z"/>
    <path class="cls-1" d="M255.37,316.98c-2.58,3.22-4.05,7.39-8.04,9.41-.23-1.29-.45-2.57-.68-3.86,3.22-1.66,4.45-4.77,4.23-7.89-.24-3.32-3.22-4.88-6.27-5.65-9.05-2.29-18.14-3.42-27.58-2.5-12.22,1.19-24.51,1.56-36.38,5.2-2.21.68-3.28-1.03-4.19-2.69,10.67-2.21,21.27-4.99,32.19-5.45,13.51-.57,27.16-2.19,40.22,3.29,4.59,1.93,6.47,5.39,6.49,10.14Z"/>
    <path class="cls-8" d="M259.32,337.07c3.38-2.88,6.66-5.9,10.17-8.61,4.39-3.4,4.64-7.57,3.01-12.37-.67-1.97-1.74-3.97-.53-7.13,2.78,4.85,3.8,10.19,8.31,13.06-10.4,11.33-22.05,21.18-35.01,29.46-1.39.89-2.95,1.61-2.96,3.61-3.23-2.02-1.07-3.31.61-4.73,4.48-3.76,9.56-6.81,13.43-11.3,1.47.05,2.27-.89,2.97-1.99Z"/>
    <path class="cls-1" d="M186.21,272.05c.88-1.54,2.62-1.24,3.94-1.64,7.47-2.28,12.67-6.76,14.97-14.39.37-1.23,1.13-2.34,1.7-3.51,1.01.03,2.03.06,3.04.09,1.76,2.25,1.22,4.96,1.49,7.5-.55-.77-1.11-1.55-2-2.8-2.5,6.61-5.51,12.61-11.83,16.02-1.46.78-2.85,1.75-4.4,2.27-2.55.85-6.17,3.23-5.27-2.78.03-.17-1.08-.51-1.65-.76Z"/>
    <path class="cls-8" d="M188.24,298.09c-2.64-.09-4.72-1.22-4.7-4.02.01-2.95,1.49-5.03,4.91-4.99,2.74.03,4.71,1.24,4.67,4-.03,2.88-1.39,5.15-4.88,5Z"/>
    <path class="cls-8" d="M224.34,293.93c-.12,4.12-1.39,6.03-4.51,6.03-3.05,0-4.45-1.78-4.57-4.76-.14-3.38,1.74-4.28,4.73-4.22,2.82.06,4.5,1.07,4.35,2.95Z"/>
    <path class="cls-8" d="M217.42,270.05c.32.32.63.63.95.95-.32-.32-.63-.63-.95-.95Z"/>
    <path class="cls-8" d="M216.41,269.04c.32.32.63.64.95.96-.32-.32-.63-.64-.95-.96Z"/>
    <path class="cls-11" d="M192.12,203.89c-7.17-2.37-13.44-12.1-12.79-19.47.22-2.55,1.76-2.88,3.66-3.1,1.14,5.3,4.8,7.47,9.82,8.4,5.77,1.07,11.55,1.52,17.37,1.05,3.86-.31,7.66-1.12,9.34-5.4,3.03-1.2,3.2.83,2.78,2.77-.93,4.22-1.96,8.46-5.82,11.19-9.13-5.33-19.21-3.44-24.35,4.56Z"/>
    <path class="cls-1" d="M219.52,185.37c-1.68,4.28-5.48,5.09-9.34,5.4-5.82.47-11.6.02-17.37-1.05-5.01-.93-8.68-3.1-9.82-8.4,9.51.93,18.86,3.36,28.53,2.88,2.67-.13,5.87-2.78,7.99,1.17Z"/>
    <path class="cls-2" d="M238.39,184.09c-3.36.18-6.75.25-9.1-2.69-1.31-1.64-2.7-3.38-.98-5.74,2.58-3.53,10.92-5.09,14.46-2.47,2.5,1.85,4.4,4.17,3.43,7.57-1.21,4.18-4.77,3.24-7.8,3.32Z"/>
    <path class="cls-10" d="M192.12,203.89c5.13-8.01,15.22-9.9,24.35-4.56-5.78,6.98-15.03,8.72-24.35,4.56Z"/>
    <path class="cls-2" d="M169.32,163.14c1,0,2-.1,2.98.02,3.38.39,5.69,2.28,5.87,5.67.19,3.59-2.8,4.58-5.62,5.17-2.31.48-4.57-.13-6.81-.89-2.83-.96-4.78-2.61-4.25-5.77.52-3.11,2.85-4.25,5.84-4.23.66,0,1.33,0,1.99,0v.04Z"/>
    <path class="cls-9" d="M182.32,227.18c.99-2.35,1.98-4.7,2.97-7.05,4.06-.3,7.37,2.02,11.03,3.15.28.31.56.62.84.93.48,1.03.95,2.07,1.43,3.1-.13.58-.26,1.15-.39,1.73-2.17.08-4.19.28-3.26,3.38.61,2.02-.1,3.04-2.19,2.25-1.86-.71-2.81.07-3.57,1.57-1.85-.11-2.75-1.22-3.07-2.93,2.08-4.98,1.49-5.93-3.79-6.12Z"/>
    <path class="cls-11" d="M173.37,153.04c.1-4.29,2.55-7.2,6.15-6.77,3.84.46,5.22,3.2,4.99,6.81-.24,3.62-1.47,6.67-5.67,6.9-3.27.18-5.56-2.94-5.47-6.94Z"/>
    <path class="cls-11" d="M231.55,160.97c-.03,3.55-.58,7.02-5.02,7.18-3.94.14-5.42-2.57-5.45-6.24-.03-3.68.99-6.97,5.14-7.22,3.93-.23,5.43,2.58,5.34,6.28Z"/>
    <path class="cls-10" d="M196.85,156.84c.94,4.49-1.58,6.39-2.85,8.78-2.23,4.21-1.32,6.07,3.49,6.43,1.61.12,3.28-.18,4.89-.49,1.22-.24,2.36-.59,2.76,1.01.36,1.46-.18,2.88-1.64,3.17-4.11.81-8.43,1.11-11.97-1.39-2.66-1.88-3.19-5.19-1.54-8.04,1.77-3.08,4.16-5.8,6.85-9.45Z"/>
    <path class="cls-11" d="M227.11,141.63c4.97.52,9.08,2.35,11.7,6.72.62,1.04.97,2.25-.05,3.22-1.22,1.15-2.16.03-3-.68-2.73-2.3-5.63-4.16-9.35-4.22-1.72-.03-4.21.85-4.14-2.01.08-2.98,2.86-2.64,4.83-3.03Z"/>
    <path class="cls-11" d="M180.64,133.32c.44.04,1.16-.04,1.74.19,2.34.92,6.54.96,5.89,4.02-.7,3.28-4.15,1.58-6.59.78-2.37-.77-4.55.18-6.71,1.05-1.2.48-2.64,1.5-3.53,0-.93-1.55.29-2.84,1.51-3.77,2.19-1.68,4.77-2.21,7.7-2.27Z"/>
    <path class="cls-2" d="M201.32,214.08c-.99,0-2.01.17-2.95-.04-1.85-.4-4.77-.7-4.3-2.91.44-2.1,2.99-.77,4.65-.37,2.12.52,4.23.52,6.33-.06,1.07-.29,2.4-1.09,2.93.47.6,1.77-1.09,2.26-2.26,2.58-1.4.38-2.92.34-4.38.48,0-.05,0-.1-.01-.16Z"/>
    <path class="cls-8" d="M246.66,322.53c.23,1.28.45,2.57.68,3.86-3.64,4.53-8.92,6.69-13.75,9.48-1,.58-2.24.68-2.2,2.2-5.48.76-10.41,3.21-15.55,5.01-17.71,6.23-35.89,9.75-54.65,11.28-10.37.85-20.41-.11-30.55-1.29-1.12-.13-2.2-.65-3.3-.99-.03-1.36-.05-2.72-.08-4.08,0,0,.01.03.01.03,5.25,3.08,11.25,2.63,16.87,2.89,16.27.75,32.34-1.2,48.28-4.73,16.44-3.63,32.11-9.06,46.62-17.6,2.61-1.54,5.78-2.87,6.36-6.54.42.16.84.32,1.26.47Z"/>
    <path class="cls-1" d="M138.09,359.05c2.99-.53,5.29.73,6.74,3.96,3.79,8.41,10.21,14.58,17.46,20,1.43,1.07,3.75,2.09,2.64,4.1-.93,1.68-3.21.23-4.51-.26-12.26-4.68-21.72-12.55-27.08-24.79-1.3-2.97-1.11-3.06,4.74-3.01Z"/>
    <path class="cls-15" d="M219.3,364.01c2.35-1.35,4.68-.52,5.35,1.57.86,2.69-2.05,2.37-3.6,2.65-2.22.41-4.25,2.99-6.76.77,1.18-2.16,4.19-2.47,5.02-4.98Z"/>
    <path class="cls-1" d="M153.42,289.94c-2.02-1.62-4.05-3.25-6.07-4.87,2.7-4.76,5.39-9.51,8.09-14.27,1.04,6.66-.66,12.88-2.02,19.14Z"/>
    <path class="cls-3" d="M139.79,279c-3.31.25-6.16,1.24-7.53,4.64-2.34,0-3.07-1.84-4-3.46.69-5.43,4.92-6.81,9.24-8.1,1.66,2.01,3.23,4.06,2.3,6.93Z"/>
    <path class="cls-5" d="M137.5,272.07c-4.32,1.29-8.55,2.68-9.24,8.1-.95-1.21-1.9-2.42-2.85-3.63,2-3.86,6.79-4.7,9.01-8.33.56.3,1.12.6,1.68.9.47.98.93,1.97,1.4,2.96Z"/>
    <path class="cls-4" d="M245.4,322.06c-.58,3.67-3.75,5-6.36,6.54-14.51,8.54-30.19,13.97-46.62,17.6-15.94,3.52-32.01,5.48-48.28,4.73-5.61-.26-11.62.19-16.87-2.89,2.72-8.63,10.43-10.82,17.65-13.6,1.64-.63,2.4.46,3.05,1.71.68,1.32,1.31,2.67,2.14,3.9.74,1.11,1.97,2.4,3.23,1.54,1.64-1.1-.1-2.33-.66-3.32-2.96-5.23-2.92-5.36,2.86-6.04,2.43,3.4,3.62,7.95,8.42,9.22-1.16-2.56-2.71-4.8-4.32-7-1.01-1.38-2.13-2.67-.29-4.22,0,0,.14-.09.13-.09.57-.29,1.15-.58,1.72-.87,0,0,.36-.25.35-.25.49-.31.98-.63,1.48-.95.84.01,1.68.03,2.52.04,2.03,3.38,4.07,6.76,6.1,10.14.6,1,1.25,2.3,2.6,1.39,1.36-.92.21-2.03-.31-2.99-2.09-3.85-5.08-7.17-6.59-11.35,1.69-.78,3.37-1.57,5.06-2.35,2.76.35,2.68,3.05,3.87,4.69,1.63,2.26,1.68,5.58,4.79,7.43,1.21-5.92-3.52-9.35-4.61-13.99,1.04-.03,2.14.13,2.89-.87.67.08,1.33.16,1.99.24,3.34,3.34,2.7,8.47,5.47,12.87,2.2-5.72-.9-9.7-2.44-13.97,7.53.04,14.72,3.6,22.45,1.91,3.83-.84,6.26-3.66,9.38-5.48,3.95-2.3,7.78-3.05,11.28.73,1.4,1.52,3.03,1.79,4.97,1.55,4.9-.62,9.19.87,12.96,3.97ZM176.03,344.43c9.73.5,19.04-.94,27.66-5.64,1.1-.6,2.82-1.61,2.02-2.94-.95-1.6-2.6-.64-3.88.23-4.64,3.16-9.98,4.05-15.35,5.23-3.5.77-7.65-.44-10.46,3.13ZM159.47,346.07c-4.06-1.84-8.9-.92-12.38-4-1.47-1.3-2.64-3.03-4.19-.59-1.32,2.08.42,3.55,2.03,4.31,4.79,2.29,9.68,1.34,14.54.28ZM220.31,333.69c2.26-1.27,5.34-2.86,8.25-4.72,1-.64,1.07-2.08.29-3.14-.68-.92-1.94-1.02-2.7-.46-2.76,2.07-5.4,4.31-8.03,6.55-.29.25-.46.95-.34,1.32.24.72.96.77,2.53.45ZM205.31,325.91c-2.23.87-6.33-1.25-6.39,1.63-.06,2.83,4.02,1.38,6.25,1.52,1.97.12,5.51.87,5.46-1.63-.06-2.8-3.54-.64-5.32-1.52Z"/>
    <path class="cls-13" d="M125.41,276.55c.95,1.21,1.9,2.42,2.85,3.63.93,1.62,1.67,3.47,4,3.46,2.43,3.06,3.22,6.62,3.15,10.43-4.74.86-7.51,4.99-11.56,7-1.87.93-3.24,2.77-5.49,3.01-.14-1.73.79-3.13,1.33-4.67,2.11-6.01,4.78-11.93,3.35-18.58-.03-1.87.73-3.31,2.36-4.27Z"/>
    <path class="cls-1" d="M153.52,293.87c7.74,5.09,14.6,11.19,20.68,18.17-1.3.36-2.6.72-3.9,1.08-6.38-5.68-12.1-11.97-17.3-18.73.18-.17.35-.35.52-.53Z"/>
    <path class="cls-13" d="M154.41,301.03c4.25,4.28,9.83,7.47,11.45,13.91-1.32-.19-2.43.36-3.49,1.05-4.88-3.49-7.08-8.97-10.26-13.73.49-.92,1.36-1.14,2.3-1.24Z"/>
    <path class="cls-8" d="M140.35,296.53c2.92,7.48,5.87,14.94,8.73,22.44.48,1.26-.21,2.27-1.43,2.8-.88.38-1.81.14-2.06-.74-2.22-8.02-4.37-16.06-6.53-24.1.43-.14.86-.27,1.29-.41Z"/>
    <path class="cls-1" d="M149.42,304.65c2.45,3.27,5,6.47,7.3,9.84.64.94,2.52,2.39.24,3.61-1.76.95-3.71,1.8-5.2-.5-1.62-2.5-2.81-5.17-2.71-8.26.12-1.57.25-3.14.37-4.7Z"/>
    <path class="cls-12" d="M162.36,315.99c1.06-.69,2.17-1.24,3.49-1.05,1.49.38,2.98.75,4.47,1.13,0,0,.02.02.02.02-.68,2.7,2.47,4.26,2.05,6.88-1.69.78-3.37,1.57-5.06,2.35-.3-.15-.6-.28-.91-.42-.41-3.4-3.93-5.38-4.07-8.9Z"/>
    <path class="cls-12" d="M170.31,313.13c1.3-.36,2.6-.72,3.9-1.08,3.11,1.85,5.13,4.39,5.13,8.19-.75,1-1.85.84-2.89.87-2.71-.86-3.14-4.47-6.1-5.02,0,0-.02-.02-.02-.02,0-.98-.01-1.96-.02-2.94Z"/>
    <path class="cls-6" d="M166.43,324.9c.31.13.61.27.91.42,1.51,4.19,4.5,7.51,6.59,11.36.52.96,1.67,2.07.31,2.99-1.35.91-2-.39-2.6-1.39-2.03-3.38-4.06-6.76-6.1-10.14-.17-1.2-.26-2.38.88-3.23Z"/>
    <path class="cls-8" d="M149.42,304.65c-.12,1.57-.24,3.13-.37,4.7-4.31-4.7-5.28-10.86-7.42-16.53,3.34,3.51,6.15,7.3,7.79,11.83Z"/>
    <path class="cls-6" d="M184.35,319.38c1.54,4.26,4.65,8.24,2.44,13.97-2.77-4.39-2.12-9.53-5.47-12.87.56-1.6,1.79-1.36,3.02-1.1Z"/>
    <path class="cls-6" d="M159.35,330.24c-1.84,1.54-.72,2.84.29,4.22,1.62,2.19,3.16,4.44,4.32,7-4.8-1.27-6-5.82-8.42-9.22,0-3.09,2.4-1.6,3.81-1.99Z"/>
    <path class="cls-1" d="M154.41,301.03c-.94.09-1.8.32-2.3,1.24-1.93-2.76-3.87-5.52-5.8-8.29,4.06,1.06,6.31,3.81,8.1,7.05Z"/>
    <path class="cls-1" d="M230.78,313.19c-1.74-.31-3.98.13-3.94-2.19.03-1.79,1.92-2.04,3.46-1.99,1.83.07,3.53.99,3.5,2.82-.03,1.91-2.07.96-3.02,1.36Z"/>
    <path class="cls-6" d="M163.03,328.08c-.49.32-.99.63-1.48.95.09-.95-.02-2.19,1.48-.95Z"/>
    <path class="cls-1" d="M143.83,290.44c-.07-.25-.12-.37-.12-.49,0-.03.17-.06.26-.09-.04.15-.07.31-.14.58Z"/>
    <path class="cls-6" d="M161.2,329.28c-.57.29-1.15.58-1.72.87.33-.78.99-.89,1.72-.87Z"/>
    <path class="cls-1" d="M153,294.4c-.3-.3-.85-.59-.18-1.01.09-.06.46.31.7.49-.17.18-.34.36-.52.53Z"/>
    <path class="cls-1" d="M149.31,291.12c.19.13.37.26.56.39-.11-.01-.26.02-.31-.04-.1-.11-.13-.26-.2-.4,0,0-.06.05-.06.05Z"/>
    <path class="cls-1" d="M149.37,291.06c-.14-.14-.28-.28-.41-.42.09.03.22.04.25.1.06.1.07.24.1.37,0,0,.06-.05.06-.05Z"/>
    <path class="cls-10" d="M198.58,227.31c-.47-1.03-.95-2.07-1.43-3.1,3.21-.77,6.18.81,9.33.97,9.74.5,19.04-1.11,27.97-4.99-1.76,5.17-5.8,8.18-10.27,10.77-1.91-1.51-4.22-1.03-6.16-.63-6.91,1.39-13.29.12-19.44-3.02Z"/>
    <path class="cls-6" d="M265.34,175.69c.03-4.81,3.18-8.75,6.71-8.56,1.23.07,2.53.32,2.74,1.64.24,1.46-1.21,1.16-2.08,1.41-2.68.77-3.5,2.73-3.49,5.31,0,1.65-.21,3.9-2.05,3.94-2.27.04-1.64-2.36-1.83-3.73Z"/>
    <path class="cls-8" d="M123.04,280.81c1.43,6.65-1.24,12.58-3.35,18.58-.54,1.54-1.47,2.95-1.33,4.67-1.1.5-1.61,2.73-3.14,1.64-1.49-1.06.17-2.34.52-3.48,2.02-6.54,6.03-12.53,5.43-19.8.12-1.12.92-1.45,1.86-1.61Z"/>
    <path class="cls-14" d="M198.58,227.31c6.15,3.14,12.53,4.41,19.44,3.02,1.95-.39,4.25-.88,6.16.63-.66.66-1.32,1.32-1.98,1.98-.95.67-1.9,1.33-2.85,2-1.45-.05-2.4.77-3.18,1.86-4.38-2.14-9.07-1.92-13.75-1.81-1.03-1.31-2.06-2.62-3.09-3.93-.38-.67-.76-1.34-1.14-2.01.13-.58.26-1.15.39-1.73Z"/>
    <path class="cls-7" d="M240.31,233.07c.09-1.97-.38-4.03,1.14-5.72.85-.94,1.29-2.55,3.03-2.06,1.17.32,2,1.2,2.51,2.29.71,1.5-.15,2.57-1.19,3.47-1.56,1.34-3.34,2.19-5.46,2.06l-.03-.03Z"/>
    <path class="cls-7" d="M219.35,234.93c.95-.67,1.9-1.33,2.85-2,1.12,1.74,5.6,1.3,3.44,5.14-.64,1.14-1.73,2.25-3.22,1.83-2.44-.68-3.26-2.56-3.06-4.97Z"/>
    <path class="cls-7" d="M240.34,233.11c0,.16.01.33.01.49.01,2.63-.31,5.19-3.75,4.99-1.59-.09-2.81-1.48-2.12-3.2,1.05-2.65,3-3.79,5.84-2.32,0,0,.03.03.03.03Z"/>
    <path class="cls-14" d="M135.28,260.86c2.34,2.78-.32,4.76-1.12,7.04-4.46,1.09-7.74,4.31-11.6,6.48-4.94,2.77-7.72,2.44-11.95-1.44-4.98-4.56-9.01-9.67-10.58-16.37-1.11-4.76-1.34-9.4,2.95-12.93,1.13-.93,1.2-1.87.6-3.03,3.65-1.82,7.29-3.64,10.94-5.47,2.63-.07,5.3-.57,7.76.9,1.04.62,2.02,1.3,1.87,2.65-.15,1.29-1.33,1.19-2.26,1.47-2.64.81-5.15,1.91-7.85,4.12,3.8,1.27,6.11-1.32,8.85-1.67,1.98-.25,3.57-.15,5.13.88,1.27.84,2.29,1.9,2.26,3.61-.03,2.15-1.91,2.03-3.18,2.51-3.03,1.16-7,.62-8.6,4.74,5.47,1.23,13.57-8.89,15.84,3.95-4.1-.15-7.6,1.01-10.18,4.27,3.9.07,7.25-2.23,11.11-1.72Z"/>
    <path class="cls-12" d="M96.35,221.17c.07-1.66.73-3.02,2.56-2.87,1.78.14,3,1.41,3.18,3.2.16,1.56-.98,2.4-2.43,2.49-1.91.12-3.07-.85-3.31-2.82Z"/>
    <path class="cls-10" d="M135.28,260.86c-3.86-.52-7.21,1.79-11.11,1.72,2.58-3.26,6.08-4.43,10.18-4.27.31.85.62,1.7.93,2.55Z"/>
    <path class="cls-7" d="M182.32,227.18c5.28.19,5.86,1.14,3.79,6.12-1.11-.02-2.22-.04-3.34-.05-.21-.38-.41-.76-.62-1.14.06-1.64.11-3.28.17-4.92Z"/>
    <path class="cls-10" d="M220.75,378.02c-5.87,3.92-12.46,3.15-18.97,2.82-.43-.02-1.17-.88-1.15-1.33.06-1.31,1.19-1.36,2.2-1.39,5.94-.18,11.9.41,17.92-.1Z"/>
    <path class="cls-10" d="M203.38,389.08c-.85-.39-1.06-1.13-1.06-1.97,6.88.49,13.58-1.44,20.45-1.53-5.84,4.69-12.75,3.34-19.39,3.5Z"/>
    <path class="cls-9" d="M199.33,231.04c1.03,1.31,2.06,2.62,3.09,3.93-1.75,3.11-1.4,7.38-5.18,9.36-1.02-.41-2.04-.83-3.06-1.24,0-.94-.02-1.89-.03-2.83.86-3.56,5.49-5.01,5.18-9.22Z"/>
    <path class="cls-6" d="M182.77,233.24c1.11.02,2.23.03,3.34.05.32,1.71,1.22,2.82,3.07,2.93.04,1.67,1.48,2.55,2.16,3.86-.16.13-.31.26-.46.39-3.61-1.4-6.21-3.93-8.11-7.24Z"/>
    <path class="cls-6" d="M194.15,240.26c.01.94.02,1.89.03,2.83-1.43-.46-2.6-1.25-3.31-2.62.15-.13.3-.26.46-.39.94.06,1.88.12,2.82.18Z"/>
    <path class="cls-7" d="M194.15,240.26c-.94-.06-1.88-.12-2.82-.18-.68-1.31-2.12-2.19-2.16-3.86.76-1.5,1.7-2.27,3.56-1.57,2.09.79,2.8-.22,2.19-2.25-.93-3.09,1.09-3.29,3.26-3.38.38.67.76,1.34,1.14,2,.31,4.22-4.32,5.66-5.18,9.22Z"/>
    <path class="cls-14" d="M176.03,344.43c2.81-3.57,6.95-2.36,10.46-3.13,5.37-1.18,10.7-2.07,15.35-5.23,1.28-.87,2.93-1.83,3.88-.23.79,1.34-.92,2.34-2.02,2.94-8.62,4.7-17.94,6.14-27.66,5.64Z"/>
    <path class="cls-15" d="M170.34,316.09c2.96.55,3.39,4.17,6.1,5.02,1.09,4.64,5.82,8.07,4.61,13.99-3.11-1.86-3.16-5.17-4.79-7.43-1.19-1.65-1.1-4.35-3.87-4.69.41-2.62-2.73-4.18-2.05-6.88Z"/>
    <path class="cls-14" d="M159.47,346.07c-4.87,1.05-9.76,2-14.54-.28-1.61-.77-3.35-2.23-2.03-4.31,1.55-2.44,2.72-.71,4.19.59,3.48,3.09,8.32,2.16,12.38,4Z"/>
    <path class="cls-14" d="M220.31,333.69c-1.58.31-2.29.27-2.53-.45-.13-.37.04-1.07.34-1.32,2.63-2.24,5.27-4.48,8.03-6.55.75-.56,2.02-.47,2.7.46.78,1.06.71,2.5-.29,3.14-2.91,1.86-5.99,3.45-8.25,4.72Z"/>
    <path class="cls-14" d="M205.31,325.91c1.78.88,5.26-1.27,5.32,1.52.05,2.5-3.49,1.75-5.46,1.63-2.23-.14-6.31,1.31-6.25-1.52.06-2.88,4.16-.76,6.39-1.63Z"/>
  </g>
</svg>