<?xml version="1.0" encoding="UTF-8"?>
<svg id="Layer_2" xmlns="http://www.w3.org/2000/svg" viewBox="0 0 408.27 416.24">
  <defs>
    <style>
      .cls-1 {
        fill: #a3adb3;
      }

      .cls-2 {
        fill: #d3d5d8;
      }

      .cls-3 {
        fill: #b46c63;
      }

      .cls-4 {
        fill: #c0bfbf;
      }

      .cls-5 {
        fill: #fdfcfc;
      }

      .cls-6 {
        fill: #969696;
      }

      .cls-7 {
        fill: #a06151;
      }

      .cls-8 {
        fill: #e7b88d;
      }

      .cls-9 {
        fill: #868f94;
      }

      .cls-10 {
        fill: #7e5e46;
      }

      .cls-11 {
        fill: #b4b1af;
      }

      .cls-12 {
        fill: #cf9d7b;
      }

      .cls-13 {
        fill: #cd8b50;
      }
    </style>
  </defs>
  <g id="Layer_1-2" data-name="Layer_1">
    <path class="cls-4" d="M59.92,352.31c-6.72-3.01-10.2-9.43-14.48-14.7-15.33-18.83-26.87-39.96-34.63-62.98-5.14-15.26-8.69-30.88-10-47.07-1.78-22.02-.77-43.71,4.08-65.3,4.18-18.63,11.05-36.22,19.83-53.03,12.22-23.39,28.78-43.58,48.76-60.64,20.91-17.86,44.7-31,71.04-39.36C168.25,1.7,192.58-1.24,217.29.48c31.99,2.23,61.71,12.17,89.29,28.55,24.79,14.73,45.52,33.92,62.28,57.27,19.69,27.44,32.09,58.03,37.03,91.43,7.03,47.52-1.52,92.19-25.5,133.91-7.82,13.61-17.27,25.97-27.36,37.9-1.31,1.55-2.71,2.99-5.02,2.76-20.71-.01-41.43-.02-62.14-.04,1.49-4.36,6.87-4.87,8.74-8.86,1.02-.14,1.77-.59,2.48-1.43,3.38-4.05,6.46-8.2,8.86-13,4.82-9.64,9.48-19.16,9.08-30.39-.24-6.68-2.22-12.97-3.24-19.47.38-.3.77-.59,1.15-.89,12.27-.12,27.3-13.81,17.72-28.56-2.45-3.77-3.19-2.15-4.89-.82-2.07-4.83-6.47-7.49-8.55-11.91-.54-1.16-3.43,1.29-4.99-.41-1.48-1.61-3.85-1.96-4.95-.95-1.49,1.37-2.22,3.82-2.02,6.08.48,5.44-1.43,9.08-6.37,11.67-4.52-6.75-8.67-13.77-13.96-19.96-5.86-6.88-12.79-12.48-21.12-16.18-1.24-.55-2.66-1.85-3.8.26-4.94,9.09-13.41,13.46-22.66,16.57-2.51.85-2.52,1.58-1.09,3.3,5.64,6.78,4.6,14.93,4.69,22.87.03,2.89-1.61,3.66-3.84,2.77-4.74-1.9-9.59-3.44-13.37-7.4-3.11-3.25-4.3-7.68-7.86-11.56-1.59,4.84-4.97,7.57-7.91,10.68-2.43,2.57-5.45,3.78-8.74,4.41-3.05.58-4.43-4.07-7.94-2.83-.18.06-1.87-2.06.17-3.06.52,2.12,1.82,1.57,3.44,1.31,10.1-1.6,16.41-7.42,19.47-17.02,1.05,0,2.1,0,3.14-.01,1.79,9.81,6.95,16.95,16.23,21.05,2.73,1.21,3.83.37,3.82-2.21-.04-7.91-.98-15.57-7.22-21.42-.58-.55-1.23-1.14-.85-2.11,3.37-1.74,7.39-1.85,10.53-4.17.58-.25,1.23-.44,1.02-1.31l.06.14c7.28-1.29,12.03-6.02,16.11-11.72,1.54-2.15.14-3.25-1.38-4.38-.17-1.31-.76-2.36-1.85-3.11.01-1.65-1.25-2.69-1.93-4.02-.94-.99-1.53-1.62.21-2.76,6.91-4.51,11.64-11.01,15.71-18.05,3.45-2.8,7.07-5.46,8.3-10.08,10.35-.21,13.81-10.48,12.04-18.35-.99-4.38-3.09-8.09-8.25-8.71.83-4.03-.8-6.6-4.52-8.22-2.09-.92-3.99-2.3-5.97-3.47,2.45-.6,4.5.77,6.7,1.38,2.96.82,5.01.41,4.68-3.33-.35-4,.7-7.88.91-11.82.13-2.51.95-3.36,3.45-3.65,7.12-.85,12.9-4.85,17.02-10.18,8.02-10.39,8.59-22.34,4-34.3-1.56-4.05-3.38-8.7-8.32-10.41-4.47-4.84-9.78-7.83-16.38-9.25-5.12-1.1-9.79.48-14.66.54-3.75-8.35-7.8-16.48-15.83-21.7-.97-.63-1.9-2.32-3.19-.37-16.45-12.58-40.26-8.76-52.25,8.49-1.14,1.64-1.67,2.22-3.77,1.05-21.58-12.12-43.65,6.79-43.04,25.29-1.73,4.48-1.7,9.3-.32,13.55,3.52,10.83,10.6,18.35,22.35,20.47-.51,6.99-2.45,13.84-1.91,20.92-4.93,5.15-4.04,11.73-4.4,18-4.6,4.98-6.57,10.58-4.91,17.45,1.02,4.19,4.29,6.72,6.17,10.11,3.41,6.15,5.16,13.19,8.27,19.53,1.9,3.87,2.86,9.13,8.7,9.68.46.1.91.21,1.37.31-.11,1.25.43,1.83,1.7,1.69.74,1.13,1.49,2.26,2.23,3.38-.07,1.25.56,1.79,1.77,1.74.38.43.77.87,1.16,1.3-.75,1.27-1.32,2.7-2.28,3.78-2.81,3.17-2.49,5.85.92,8.26l.11-.13c-.19.33-.15.63.12.89l1.98,2.14c1.46,1.91,2.68,4.05,5.01,5.11,1.58,2,3.94,2.81,6.09,3.93,1.94,1.01,2.63,2.37.32,3.39-2.47,1.09-3.62,3.7-6.11,4.62-4.63-2.14-8.78.62-9.23,6.29-.46,5.79-.59,11.61-1.1,17.39-.45,5.08-1.22,10.14-1.86,15.2-1.06-1.38-2.12-2.76-3.17-4.14.41-9.1.71-18.21,1.26-27.31.52-8.51,2.33-10.45,10.72-12.34.32-.07.66-.09.98-.16,1.04-.24,2.62.32,2.82-1.3.13-1.08-1.1-1.49-1.89-2.09-4.47-3.35-8.4-7.43-9.9-12.77-1-3.55-2.17-3.1-4.63-2.12-7.85,3.13-15.78,6.06-23.62,9.21-2.61,1.05-4.49.87-6.64-1.24-3.2-3.12-6.92-5.7-11.18-7.27-4.1-1.51-8.1-2.2-10.92,2.37-2.34-1.14-3.45,5.71-6.59.8-5.2-8.13-9.11-9.38-18.24-6.66-.5-1.74.77-3.91-1.88-5.12-6.16-2.81-12.03-3.88-18.46-.35-6.09,3.34-9.66,8.44-12.11,14.54-1.86,4.63-.53,10.64,2.47,12.96,1.92,7.74,8.03,7.05,13.87,6.88-.19,1.8.97,2.87,2.14,3.93-.1,1.47-.97,2.3-2.13,3.14-6.45,4.64-12.79,9.42-19.24,14.06-5.35,3.85-8.15,8.6-7.86,15.57.6,14.34,16.62,36.1,30.65,41.42,5.7,2.16,10.6,1.71,15.29-2,8.92-7.05,18.02-13.87,26.69-21.22,9.31-7.9,18.67-15.37,31.63-15.84-.99,9.94-1.97,19.88-2.96,29.82-1.69,3.36-5.24,2.22-7.88,3.01-9.78,2.95-13.95,8.02-13.25,16.96,1.88,8.19,3.92,16.33,6.98,24.18-29.36.02-58.71.03-88.07.05ZM308.88,225.02c1.65-.63,2.45-2.06,2.69-3.76.13-.9-.64-1.64-1.55-1.55-2.27.24-2,2.36-2.53,3.82-.37,1.02.21,1.53,1.39,1.49Z"/>
    <path class="cls-1" d="M285.88,352.27c20.71.01,41.43.02,62.14.04-.07,4.32-3.73,6.18-6.3,8.51-12.78,11.59-26.69,21.62-41.76,30.11-20.24,11.39-41.79,19.42-64.6,22.99-21.97,3.45-44.07,3.07-66.2-1.23-19.72-3.84-38.09-10.69-55.92-19.59-19.45-9.7-36.2-23.04-51.99-37.74-1-.93-1.2-1.89-1.3-3.04,29.36-.02,58.71-.03,88.07-.05,3.48,5.11,6.8,10.35,11.28,14.67,2.15,2.07,3.19,4.51,3.72,7.31-2.17.79-4.44,1.4-6.49,2.44-1.59.8-3.34,1.99-3.34,4.02,0,2.08,1.77,3.07,3.48,3.81,2.25.98,4.51,1.95,6.82,2.77,14.24,5.02,29.24,4.76,43.98,5.77,14.2.97,28.38-.31,42.25-3.94,4.02,3.95,8.53,6.2,14.29,4.12.12.44.23.87.35,1.31l.38-.25c-.25-.34-.51-.68-.76-1.03.37-.92-.85-2.92,1.86-2.19,3.4.91,6.89,1.07,10.15-.78,1.08,4.33,3.99,2.2,6.14,1.51,4.3-1.36,9.47-1.87,10.73-8.63-3.24,2.54-5.97.66-8.63.96-.69-1.11.57-3.65-1.71-3.4-5.67.61-11.01-1.63-16.58-1.47-3.94-3.79-8.7-5.95-14.01-6.98,1.6-3.72,4.14-8.02,7.99-7.57,5.76.67,10.7-.96,15.76-2.61,4.32-1.41,7.57-4.37,9.13-8.85.37-.32.73-.64,1.1-.96ZM113,379.14c3.9-.06,6.84,2.5,9.41,4.65,1.49,1.25,2.94-1.13,3.53.84.24.8-.24,2.25,1.46,1.75,1.34-.39,1.74-1.37,1.33-2.7-.36-1.17.4-1.37,1.28-1.48,2.32,3.13,4.84-.12,7.27.23,5.82.84,7.97-4.62,11.85-7.1.51-.33.81-1.43.09-1.68-3.52-1.24-3.58-7.55-8.91-6.05-.76.21-1-.33-1.4-.92-2.64-3.83-6.74-4.94-11.05-3.13-3.1.17-6.98-1.92-9.14.59-3.76,4.36-9.42,5.09-13.57,8.45-4.14-5.89-8.18-1.81-12.9.12,4.86,1.72,8.78,4.94,13.74,2.32.97.1,1.94.2,2.91.31-.06,2.81,1.83,3.53,4.11,3.82ZM149.68,392.24c1.41-.35,3.79.95,3.95-1.58.13-2.07-1.87-2.44-3.61-2.43-1.71,0-3.68.25-3.75,2.33-.08,2.35,2.13,1.31,3.42,1.68Z"/>
    <path class="cls-5" d="M266.97,53.54c4.88-.06,9.54-1.64,14.66-.54,6.6,1.42,11.91,4.41,16.38,9.25.51,1.39.87,2.86,1.57,4.15,6,11.06.35,25.27-6.78,31.35-11.22,9.58-26.23,5.56-33.92-.98-3.06-2.6-5.07-5.18-2.23-9.28.88-1.27.95-3.14,1.23-4.77.1-.57-.12-1.5-.53-1.78-.84-.58-1.48.15-2.04.81-9.13,10.8-20.76,14.85-34.58,12.51-11.66-1.97-21.12-7.49-27.29-17.94-.5-.85-.48-2.43-2.16-2.07-1.52,3.47,3.57,7.7-1.65,10.83-3.54,2.13-7.22,3.09-11.21,3.58-7.66.93-13.69-2.57-19.47-6.86-5.28-3.92-7.79-9.64-10.06-15.51-.61-18.51,21.46-37.41,43.04-25.29,2.1,1.18,2.63.59,3.77-1.05,11.99-17.24,35.8-21.07,52.25-8.49,4.87,6.19,9.79,12.34,11.94,20.16,1.48,5.38,2.11,5.53,7.09,1.92Z"/>
    <path class="cls-5" d="M312.93,278.23c-.38.3-.77.59-1.15.89-3.04,1.06-2.05,3.74-1.64,5.49,2.22,9.49-.57,18.24-3.33,27.09-2.57,8.24-8.48,14.4-12.88,21.51-1.44-1.03-1.65-2.66-2.25-4.18-2.22-5.66-6.56-8.78-12.47-9.82-1.77-.31-3.54-.58-5.31-.86.98-6.51,4.62-11.93,7.27-17.76,3.06-6.72,10.54-6.57,16.56-9.82-4.36-1.02-7.69.01-11.05.81-2.38.56-3.88,3.31-6.72,2.68h0c-.11-4.38-2.31-7.79-5.05-10.96-2.73-6.75-6.25-13-11.5-19.6-.53,4.92-.82,8.56-.02,12.1,1.29,5.68.53,11.23-.73,16.72-.48,2.09-1.23,4.69-4.79,2.52-2.5-1.53-10.03,1.75-12.48,5.06,4.8.46,9.31-.66,13.86-.33,2.51.18,2.74.8,2.72,2.67-.01,1.16,0,2.33-.01,3.49-.06,5.85-.36,5.77-5.94,4.56-6.55-1.42-12.76-4.36-19.67-4.24-3.32.06-6,.48-6.44,4.49-.14,1.23-.85,2.58-2.2,1.92-1.12-.55-3.11-1.5-2.06-3.34,2.89-5.1-1.14-4.86-3.93-4.94-7.14-.22-14.3-.22-21.45-.04-3.26.08-4.96-.95-5.29-4.33-.31-3.13-1.66-6.04-2.48-9.05-1.55-5.71-6.7-9.6-7.46-15.6.63-5.07,1.41-10.12,1.86-15.2.51-5.78.65-11.6,1.1-17.39.45-5.68,4.59-8.43,9.23-6.29-1.7,3.65-4.29,6.87-5.13,10.92-1.24.82-1.18,1.82-.4,2.92-.09.97-.17,1.94-.26,2.91-2.04,1-.35,3.13-.17,3.06,3.51-1.23,4.89,3.41,7.94,2.83,3.29-.63,6.32-1.84,8.74-4.41,2.94-3.12,6.32-5.84,7.91-10.68,3.56,3.88,4.75,8.31,7.86,11.56,3.78,3.95,8.64,5.5,13.37,7.4,2.23.89,3.87.12,3.84-2.77-.09-7.93.96-16.08-4.69-22.87-1.43-1.72-1.43-2.45,1.09-3.3,9.25-3.12,17.73-7.48,22.66-16.57,1.15-2.11,2.56-.81,3.8-.26,8.33,3.7,15.25,9.29,21.12,16.18,5.28,6.2,9.43,13.22,13.96,19.96.14.81.03,1.81.46,2.41,5.11,7.15,6.85,16.33,13.59,22.49ZM200.97,277.11c.26-2.53-1.34-4.31-3.9-4.35-2.61-.03-4.83,1.53-4.93,4.5-.09,2.63,1.51,4.58,4.12,4.66,2.7.09,4.74-1.3,4.71-4.81ZM226.34,274.25c-2.55.3-4.43,1.57-4.16,4.42.21,2.16,1.08,4.5,3.85,4.38,2.66-.12,4.94-1.18,4.84-4.48-.08-2.82-1.62-4.21-4.53-4.32Z"/>
    <path class="cls-8" d="M184.22,196.32c-.46-.1-.91-.21-1.36-.31.41-3.65-3.42-4.62-4.59-7.24-5.12-11.39-10.92-22.6-9.4-35.74.42-4.61,1.01-9.21,1.19-13.82.1-2.68,1.17-3.82,3.56-5.11,6.42-3.46,12.24-7.78,14.37-15.38,2.97-1.03,6-.4,9.02-.31,5.41,9.92,14.72,14.42,24.84,17.71,2.89.94,3.6-.31,2.56-3.06-.65-1.73-2.17-3.24-1.91-5.8,11.53,6.36,23.3,10.43,36.22,10.3,1.76-.02,2.11,1.36,2.33,2.7.69,4.18,2.39,8.03,3.79,11.97-1.76.27-1.98,1.56-1.86,2.97.72,8.14-2.05,15.72-4.17,23.3-2.52,9.01-6.71,16.9-15.28,22.26-6.44,4.03-13.28,6.3-20.63,7.92.68.88,2.06.11,1.93,1.52-6.97.15-13.92.36-20.8-.95-4.54-1.01-8.22-4.34-12.95-4.81-.38-.43-.77-.87-1.15-1.3-.08-1.09-.6-1.75-1.77-1.75-.74-1.13-1.49-2.26-2.23-3.38-.1-1.03-.67-1.6-1.7-1.69ZM249.03,180.02c2.78-1.26,6.89-.24,7.75-4.31.82-3.89-2.09-5.77-5.1-6.92-3.8-1.44-7.68-.17-10.92,1.57-2.75,1.48-2.32,4.33-.39,6.85,2.32,3.02,5.94,1.42,8.66,2.81ZM184.86,168.27c-3.72-.02-5.17.34-7.08,1.8-3.52,2.69-3.44,5.97.54,7.62,2.32.96,4.82,1.83,7.69,1.14,3.54-.86,6.97-2.23,6.61-6.07-.38-4.02-4.3-4.44-7.76-4.48ZM214.33,190.36c1.49-.09,3.01-.02,4.47-.29,4.64-.84,8.99-2.4,12.36-5.9.82-.85,1.45-2.05.44-3.11-1.03-1.08-1.67.14-2.42.69-8.21,6.02-16.77,7.59-25.87,1.98-.92-.57-2.02-.93-2.72-.05-1.07,1.35.34,2.1,1.17,2.74,3.69,2.85,7.92,4.08,12.57,3.92ZM242.76,160.97c-.06-4.12-2.9-7.57-5.87-7.16-3.89.54-4.99,3.5-5.06,6.91-.08,4.08,2.41,6.94,5.74,6.63,4.08-.38,4.76-3.52,5.19-6.39ZM184.91,159.84c.12,3.02,2.04,5.83,5.86,5.75,3.74-.08,5.15-3.32,5.08-6.69-.07-3.36-1.53-6.2-5.32-6.62-3.05-.34-5.73,3.05-5.62,7.57ZM210.44,172.27c-3.12.79-4.01-1.3-3.36-4.3.59-2.73,1.66-5.35,2.53-8.01.27-.82.48-1.75-.41-2.17-.9-.42-1.59.32-1.95,1.08-1.19,2.55-2.32,5.12-3.42,7.71-2.66,6.26.1,10.51,6.88,10.69,3.05.08,5.88-1.31,5.68-4.14-.22-3.22-3.18-.44-4.85-.86-.16-.04-.33,0-1.1,0ZM236.67,140.75c-.82.13-1.63.24-2.45.38-1.72.29-4.22,0-3.91,2.6.26,2.22,2.54,1.59,4.07,1.43,3.71-.39,7.22-.1,10.51,1.91,1.05.65,2.52,1.54,3.35-.3.72-1.6-.69-2.38-1.72-3.14-2.91-2.18-6.39-2.51-9.85-2.88ZM190.66,139.23c-4.4-.07-7.7.82-10.3,3.51-.81.84-1.74,1.83-.88,3.04.93,1.3,2.07.57,3.04-.12,3.02-2.14,6.36-2.92,9.94-2.1,1.75.4,3.07.35,3.35-1.65.29-2.13-1.46-2.31-2.93-2.56-.98-.16-1.99-.12-2.22-.13ZM216.27,194.22c-1.81.72-5.46-1.24-5.53,1.9-.05,2.54,3.46,2.09,5.68,2.15.98.03,1.97,0,2.95-.02.99-.03,2.1-.05,2.33-1.29.26-1.38-.65-2.2-1.84-2.48-1.1-.26-2.28-.18-3.6-.26Z"/>
    <path class="cls-2" d="M185.04,275.33c.76,6,5.91,9.89,7.46,15.6.81,3.01,2.17,5.92,2.48,9.05.34,3.39,2.04,4.41,5.29,4.33,7.15-.17,14.3-.17,21.45.04,2.79.09,6.82-.16,3.93,4.94-1.04,1.84.94,2.79,2.06,3.34,1.36.66,2.06-.69,2.2-1.92.45-4.01,3.12-4.43,6.44-4.49,6.91-.12,13.12,2.82,19.67,4.24,5.59,1.21,5.89,1.29,5.94-4.56.01-1.16,0-2.33.01-3.49.02-1.87-.21-2.48-2.72-2.67-4.55-.33-9.06.78-13.86.33,2.44-3.31,9.97-6.59,12.48-5.06,3.56,2.18,4.31-.43,4.79-2.52,1.26-5.49,2.02-11.04.73-16.72-.8-3.54-.51-7.18.02-12.1,5.25,6.6,8.77,12.85,11.5,19.6-1.7.16-3.22,1.06-2.68,2.77,1.5,4.72-.29,9.68,1.06,14.21,1.54,5.18-.16,9.35-2.45,13.58-.78,1.45-1.85,2.74-1.86,4.49-.04,1.35-.75,1.96-2.07,1.89-5.72-5.78-12.92-8.1-20.78-8.92-1.7-.18-3.31-.61-3.03,2.07.09.83-.36,1.67-1.3,1.85-1.36.27-1.6-.78-1.84-1.76-.25-1.01-1.03-1.16-1.9-1.15-4.87-3.78-5.61,4.78-9.73,3.26.2.61.4,1.22.61,1.84-.65-.01-1.29-.02-1.94-.03-2.78-3.75-8.96-4.25-9.66-10.04,0-.08-.93-.05-1.43-.06-5.47.01-10.94-.02-16.41.07-1.14.02-3.25-.64-2.98,1.43.5,3.74,1.33,7.48,2.43,11.09.67,2.2,2.65,1.41,4.22.81,4.04-1.55,8.11-2.91,12.53-2.68,3.94.41,6.99,3.88,11.23,3.25,1.34.67,2.68,1.34,4.03,2.01h-.02c1.28,2.52,3.19,2.21,5.42,1.38,5.5-2.04,10.56-.88,15.3,2.34,1.34.91,2.83,1.61,4.25,2.4-.44,2.78-2.98,3.18-4.86,3.58-10.68,2.25-21.46,4.14-32.41,4.23-19.4.16-38.82.38-57.79-4.77-2.23-.6-4.06-.18-3.85,2.81-5.33-2.39-10.65-4.78-15.98-7.16-.7-8.95,3.47-14.01,13.25-16.96,2.64-.8,6.19.34,7.88-3.01,4.83.08,9.5-1.04,14.21-1.9,1.49-.27,2.46-1.11,2.5-2.65.31-10.75.04-21.32-8.57-29.52-2.88-2.74-5.57-5.7-8.35-8.56,2.85-2.42,6.57,1.52,9.37-1.28,3.04,2.49,7.34,3.46,8.91,7.8.38,1.04.96-.76,1.66-.81,1.06,1.38,2.12,2.76,3.17,4.14ZM169.99,323.25c.74-.07,1.47-.13,2.21-.2,1.13.63,1.84,2.34,3.28,1.96,2.15-.57,5.15-1.02,5.37-3.58.33-3.86.98-7.89-.65-11.69-.1-.23-.93-.26-1.4-.2-10.08,1.18-19.98,3.16-29.04,7.9-2.38,1.24-5.67,2.96-4.19,6.85,1.28,3.36,8.37,7.38,10.9,6.14,4.58-2.25,9.03-4.78,13.53-7.2Z"/>
    <path class="cls-11" d="M141.01,328.08c5.33,2.39,10.65,4.78,15.98,7.16,14.07,3.92,28.49,5.41,43.02,5.99,15.42.62,30.7-1.02,45.95-2.99-1.83,18.38-12.65,30.26-28.17,38.57-8.98,4.81-18.79,5.95-28.84,5.57-6.3-.12-11.72-2.89-17.11-5.71-2.79-1.46-5.54-2.92-8.85-2.43-.54-2.79-1.58-5.24-3.72-7.31-4.47-4.31-7.8-9.56-11.28-14.67-3.06-7.85-5.1-15.99-6.98-24.18ZM155.98,339.5c-3.73-.42-3.19,2.04-2.6,4.39,1.79,7.08,5.66,13.06,10.36,18.47,4.75,5.45,10.49,9.63,17.41,12.03,1.11.39,2.26.98,3.14-.27.93-1.32-.18-2.14-.98-2.95-.58-.59-1.21-1.14-1.88-1.63-7.81-5.64-13.38-13.12-15.78-22.32-1.45-5.54-4.89-6.96-9.68-7.73Z"/>
    <path class="cls-2" d="M165.1,278.29c-12.96.47-22.31,7.95-31.63,15.84-8.67,7.35-17.77,14.17-26.69,21.22-4.69,3.71-9.58,4.16-15.29,2-14.02-5.32-30.05-27.08-30.65-41.42-.29-6.97,2.51-11.72,7.86-15.57,6.45-4.64,12.79-9.42,19.24-14.06,1.16-.83,2.03-1.67,2.13-3.14,1.17.1,2.21-.08,3.26-.77,7.42-4.83,14.57-10.01,20.93-16.21,4.44-2.55,4.68-4.6.97-7.7-2.95-2.47-6.3-3.62-10.14-3.29l-.13.05c.01-.88-.29-1.58-1.16-1.93.08-1,.15-1.99.23-2.99,9.13-2.71,13.04-1.47,18.24,6.66,3.14,4.91,4.25-1.94,6.59-.8-.29,2.28-1.05,4.61-.79,6.83,1.78,15.22,9.72,27.06,20.73,37.2,3.11,2.86,7.52,4.35,9.27,8.66-7.62.31-15.06,2.1-22.62,2.95-18.35,2.06-36.56,3.41-54.6-1.92,1.74-3.34,5.54-3.98,8.1-6.2,7.03-6.08,14.26-11.86,21.97-17.08,3.69-2.5,7.11-5.43,10.42-8.42,1.81-1.64,1.78-3.86.11-5.81-1.75-2.03-2.98-.08-4.22.72-11.83,7.66-22.67,16.65-33.77,25.27-3.57,2.77-8.06,4.57-10.45,8.78-5.47,1.09-7.84,5.8-6.7,12.47,2.5,14.57,12.11,23.91,23.55,31.66,4.47,3.03,9.64,3.15,14.38-.58,10.02-7.89,20.23-15.54,30.18-23.51,7.54-6.03,14.97-12,25.19-12.76,1.85-.14,4.09.61,5.61-1.29,1.45,1.76,4.39,2.05,5.18,5.12h-5.31Z"/>
    <path class="cls-2" d="M148.89,66.3c2.27,5.87,4.78,11.59,10.06,15.51,5.78,4.29,11.8,7.8,19.47,6.86,3.99-.49,7.67-1.45,11.21-3.58,5.22-3.13.13-7.36,1.65-10.83,1.68-.36,1.66,1.22,2.16,2.07,6.17,10.45,15.63,15.97,27.29,17.94,13.81,2.33,25.45-1.72,34.58-12.51.55-.66,1.19-1.39,2.04-.81.41.28.63,1.21.53,1.78-.27,1.63-.34,3.5-1.23,4.77-2.84,4.1-.83,6.67,2.23,9.28,7.68,6.54,22.69,10.55,33.92.98,7.13-6.08,12.78-20.3,6.78-31.35-.7-1.29-1.05-2.76-1.57-4.15,4.94,1.72,6.77,6.36,8.32,10.41,4.59,11.96,4.02,23.91-4,34.3-4.12,5.33-9.9,9.34-17.02,10.18-2.5.3-3.31,1.14-3.45,3.65-.21,3.94-1.27,7.82-.91,11.82.33,3.74-1.72,4.14-4.68,3.33-2.2-.61-4.25-1.98-6.7-1.38-.25,0-.46-.09-.61-.29-.52-2.38-2.12-2.45-4.02-1.89-.69-.29-1.39-.59-2.08-.88-.46-2.53-1.53-3.71-3.99-1.8-2.23-.92-4.46-1.85-6.69-2.77-.24-3.98-.24-7.88.55-11.87,1.86-9.49-6.86-16.59-16.3-14.62-13.57,2.84-26.44.57-37.35-8.66-2.34-1.98-3.88-2.88-6.77-.79-4.57,3.32-10.37,4.69-15.6,3.91-5.56-.83-5.95,1.37-5.78,5.42-11.75-2.12-18.83-9.64-22.35-20.47-1.38-4.24-1.42-9.07.32-13.55Z"/>
    <path class="cls-5" d="M158.09,268.88c-1.75-4.31-6.16-5.8-9.27-8.66-11.02-10.14-18.96-21.98-20.73-37.2-.26-2.21.5-4.55.79-6.83,2.81-4.58,6.82-3.88,10.92-2.38,4.26,1.57,7.99,4.15,11.18,7.27,2.15,2.1,4.03,2.29,6.64,1.24,7.84-3.15,15.77-6.08,23.62-9.21,2.46-.98,3.63-1.43,4.63,2.12,1.5,5.33,5.43,9.42,9.9,12.77.79.59,2.02,1.01,1.89,2.09-.2,1.62-1.78,1.06-2.82,1.3-.32.07-.66.09-.98.16-8.39,1.88-10.2,3.82-10.72,12.34-.55,9.1-.85,18.21-1.26,27.31-.7.05-1.28,1.85-1.66.81-1.57-4.34-5.87-5.31-8.92-7.8.01-10.29-4.48-19.15-9.78-27.38-4.85-7.52-10.91-14.32-19.22-18.47-2.69-1.34-5.68-2.86-8.46-.73-2.97,2.28-2.19,5.82-1.55,8.84,1.99,9.33,6.88,17.25,12.86,24.5,4.76,5.77,9.68,11.43,16.78,14.52,2.78,2.86,5.46,5.81,8.35,8.56,8.61,8.19,8.88,18.77,8.57,29.52-.04,1.54-1.01,2.37-2.5,2.65-4.71.86-9.38,1.98-14.21,1.9.99-9.94,1.98-19.88,2.96-29.82,1.64,0,3.27,0,5.31,0-.79-3.07-3.73-3.36-5.18-5.12-2.21-1.71-4.48-3.32-7.14-4.29Z"/>
    <path class="cls-5" d="M170.92,100.32c-.17-4.04.22-6.24,5.78-5.42,5.22.78,11.03-.6,15.6-3.91,2.89-2.1,4.42-1.19,6.77.79,10.91,9.23,23.78,11.5,37.35,8.66,9.44-1.97,18.16,5.13,16.3,14.62-.78,4-.79,7.9-.55,11.87-4.16-1.12-8.31-2.26-12.48-3.35-13.99-3.64-28.12-6.23-42.68-5.16-3.01-.09-6.04-.72-9.02.31-6.33.84-12.65,1.68-18.98,2.52-.54-7.08,1.4-13.94,1.91-20.92Z"/>
    <path class="cls-12" d="M204.02,209.25c6.88,1.31,13.83,1.1,20.8.95.13-1.4-1.25-.64-1.93-1.52,7.36-1.62,14.19-3.89,20.63-7.92,8.57-5.36,12.76-13.25,15.28-22.26,2.12-7.58,4.89-15.16,4.17-23.3-.12-1.41.1-2.69,1.86-2.97.31.58.65,1.15.92,1.75.72,1.56.61,4.17,2.83,4.09,1.8-.07,1.66-2.6,2.35-4.01,1.92-3.99,3.89-7.77,9.13-7.81,5.16.62,7.27,4.33,8.25,8.71,1.77,7.87-1.69,18.14-12.04,18.35-1.93.34-4.58-1.23-5.53,1.72-.9,2.8-2.7,5.29-2.77,8.35-4.06,7.04-8.8,13.54-15.71,18.05-1.74,1.14-1.15,1.77-.21,2.76-5.77,1.88-11.76,3.31-16.17,7.97l.02.06c-.39.29-.79.58-1.18.87-1.22.77-2.02,2.24-3.72,2.18-5.5.52-10.97,1.24-16.54,1.13-2.15-.04-4.28-2.25-6.46-.21-2.1-1.88-4.14-3.79-3.98-6.96ZM272.95,162.68c.18,1.35-.44,3.21,1.44,3.27,1.9.06,1.37-1.82,1.56-3.03.83-5.28,1.8-5.9,6.89-4.39.63.19,1.28.62,1.7-.13.47-.84.05-1.5-.66-2.09-1.85-1.52-3.85-2.87-6.26-1.69-3.31,1.63-4.17,4.84-4.67,8.06Z"/>
    <path class="cls-10" d="M280.06,146.26c-5.24.04-7.21,3.82-9.13,7.81-.68,1.42-.55,3.94-2.35,4.01-2.22.09-2.11-2.52-2.83-4.09-.28-.6-.61-1.17-.92-1.75-1.4-3.95-3.1-7.8-3.79-11.97-.22-1.34-.58-2.72-2.33-2.7-12.92.13-24.68-3.94-36.22-10.3-.26,2.56,1.26,4.06,1.91,5.8,1.04,2.75.33,4-2.56,3.06-10.12-3.29-19.43-7.79-24.84-17.71,14.56-1.07,28.69,1.52,42.68,5.16,4.17,1.08,8.32,2.23,12.48,3.35,2.23.92,4.46,1.85,6.69,2.77,1.33.6,2.66,1.2,3.99,1.8.69.29,1.39.59,2.08.88,1.09,1.16,2.57,1.51,4.02,1.89.15.2.36.3.61.29,1.98,1.17,3.87,2.55,5.97,3.47,3.72,1.62,5.36,4.19,4.52,8.22Z"/>
    <path class="cls-2" d="M312.93,278.23c-6.74-6.15-8.48-15.34-13.59-22.49-.43-.6-.32-1.6-.46-2.41,4.94-2.59,6.85-6.23,6.37-11.67-.2-2.26.53-4.71,2.02-6.08,1.1-1.01,3.47-.65,4.95.95,1.57,1.7,4.45-.75,4.99.41,2.07,4.42,6.48,7.08,8.55,11.91,1.7-1.33,2.44-2.96,4.89.82,9.58,14.74-5.44,28.44-17.72,28.56Z"/>
    <path class="cls-7" d="M204.02,209.25c-.16,3.17,1.88,5.08,3.98,6.96.75,1.22,1.49,2.43,2.24,3.65-.31.94-.9,1.88-.88,2.8.09,3.41-.03,7.37,3.35,9.12,2.83,1.47,5-1.07,7.1-3.08,3.2-3.07.93-5.91.16-8.87,2.04.25,4.08.53,6.11-.04,1.03,1.65-2.71,4.52.78,5.08,2.1.34,5.43-.73,5.79-3.57.34-2.75,1.37-3.96,3.85-4.7,1.17-.35,2.09-1.51,3.16-2.26.71-.5,1.36-1.05,1.03-1.98-.46-1.29-1.46-.98-2.44-.7-.78.22-1.58.35-2.37.52,4.4-4.66,10.4-6.08,16.17-7.97.67,1.32,1.94,2.36,1.93,4.02-.29.16-.56.34-.86.49-1.15.59-2.35,1.1-3.45,1.77-2.33,1.42-2.05,4.01.45,4.67,3.37.9,3.58-2.89,5.71-3.82,1.52,1.12,2.92,2.22,1.38,4.38-4.08,5.7-8.84,10.43-16.11,11.72-1.86-4.78-3.5-5.34-6.63-1.51-1.99,2.43-4.8,5.19-6.95,4.91-8.8-1.15-2.55,3.41-2.12,5.26.4,1.7,1.72,3.18,2.63,4.76.94,1.62,1.93,3.91.05,4.76-1.89.85-2.5-1.78-2.9-3.2-1.15-4.03-2.89-6.74-7.68-4.93-1.05,0-2.1,0-3.15.01-3-2.01-5.23-1.2-6.79,1.89-1.25,2.48-3.34,3.75-6.62,4.92,1.15-3.25,1.71-5.91,3.52-8.08,5.1-6.07,4.89-8.56-1.12-14.12-1.27-1.18-2.54-2.18-4.37-1.65-2.09.6-1.91,2.42-2.05,4.05-2.33-1.06-3.55-3.2-5.01-5.11.52-.38.99-.92,1.57-1.1,2.2-.68,2.99-2.21,2.19-4.21-.59-1.48-1.68-3.32-3.46-3.04-1.81.28-2.27,2.18-2.27,3.97,0,.49-.16.98-.25,1.47-3.42-2.41-3.74-5.09-.92-8.26.96-1.08,1.53-2.51,2.28-3.78,4.74.47,8.41,3.81,12.95,4.81ZM205.7,216.35c-.12-.26-.18-.62-.38-.73-.17-.09-.5.1-.76.16.13.25.21.59.41.73.14.09.46-.09.73-.16Z"/>
    <path class="cls-8" d="M104.04,210.33c-.08,1-.15,1.99-.22,2.98-1.26,1.63-.04,1.77,1.16,1.93,0,0,.13-.05.13-.05-.05.73-.1,1.45-.14,2.18.04,2.17.29,4.85-2.13,5.56-2.47.73-3.44-2-4.77-3.6-1.16-1.4-2.35-2.77-3.5-4.18-.71-.86-1.31-2.43-2.62-1.56-1.52,1,.04,2.01.62,2.85,1.67,2.46,3.52,4.81,5.15,7.29,1.12,1.7,1.99,3.53-.03,5.33-2.48,2.21-3.36-.5-4.84-1.47-3.19-2.1-4.03-6.72-8.58-8.17.83,4.14,4.14,6,5.76,8.94.73,1.32,3.01,2.65,1.33,4.22-1.49,1.39-3.87,1.17-5.52-.21-1.76-1.48-3.23-3.31-4.77-5.03-.71-.8-1.03-2.2-2.57-1.39-.1,5.14,5.52,6.87,6.55,11.28-2.32.44-4.06-.78-6.02-1.74-1.8-.88-2.3-3.72-4.93-3.14-3-2.32-4.33-8.33-2.47-12.96,2.45-6.1,6.02-11.2,12.11-14.54,6.43-3.53,12.3-2.46,18.46.35,2.64,1.21,1.38,3.38,1.88,5.12Z"/>
    <path class="cls-2" d="M293.94,333.2c4.39-7.11,10.31-13.27,12.88-21.51,2.75-8.85,5.55-17.59,3.33-27.09-.41-1.75-1.4-4.43,1.64-5.49,1.03,6.49,3.01,12.79,3.24,19.47.4,11.23-4.26,20.75-9.08,30.39-2.4,4.8-5.47,8.96-8.86,13-.7.84-1.45,1.29-2.47,1.43-.22-3.4-.45-6.8-.68-10.2Z"/>
    <path class="cls-3" d="M217.51,237.47c4.78-1.8,6.53.91,7.68,4.93.4,1.41,1.01,4.05,2.9,3.2,1.88-.85.89-3.13-.05-4.76-.91-1.58-2.23-3.06-2.63-4.76-.43-1.85-6.68-6.41,2.12-5.26,2.15.28,4.96-2.47,6.95-4.91,3.13-3.83,4.76-3.27,6.63,1.51,0,0-.06-.14-.06-.14-.34.44-.68.87-1.02,1.31-3.14,2.32-7.16,2.44-10.53,4.17-.38.97.27,1.56.85,2.11,6.24,5.85,7.18,13.51,7.22,21.42.01,2.58-1.09,3.42-3.82,2.21-9.28-4.1-14.44-11.25-16.23-21.05Z"/>
    <path class="cls-3" d="M196.93,224.49c.13-1.63-.04-3.45,2.05-4.05,1.83-.53,3.1.47,4.37,1.65,6.01,5.56,6.22,8.06,1.12,14.12-1.82,2.16-2.38,4.82-3.52,8.08,3.27-1.16,5.37-2.44,6.62-4.92,1.56-3.09,3.8-3.89,6.79-1.89-3.06,9.59-9.37,15.41-19.47,17.02-1.62.26-2.92.81-3.44-1.31.09-.97.17-1.94.26-2.91.13-.97.27-1.95.4-2.92.84-4.05,3.43-7.27,5.13-10.92,2.49-.92,3.64-3.53,6.11-4.62,2.31-1.02,1.62-2.38-.32-3.39-2.15-1.12-4.51-1.93-6.09-3.93Z"/>
    <path class="cls-10" d="M169.01,121.24c6.33-.84,12.65-1.68,18.98-2.52-2.14,7.6-7.95,11.92-14.37,15.38-2.39,1.29-3.46,2.42-3.56,5.11-.18,4.62-.77,9.22-1.19,13.82-4.08-3.78-2.79-9.21-4.24-13.8.36-6.27-.53-12.84,4.4-18Z"/>
    <path class="cls-12" d="M293.94,333.2c.23,3.4.46,6.8.68,10.2-1.87,3.99-7.25,4.5-8.74,8.86-.37.32-.73.64-1.1.96-3.78,2.26-7.34,5.19-11.42,6.62-4.6,1.61-9.78,4.94-14.42-.37,6.31.15,12.25-.67,16.49-6.15.47-.6,1.68-1.37,2.04-.43,1.19,3.12,2.16.74,3.41.15,3.88-1.8,5.25-5.48,6.58-8.97,3.72-9.79-1.97-20.38-12.17-22.83-1.61-.39-2.39-.89-2.21-2.54.29-.09.56-.21.82-.36,1.77.29,3.55.55,5.31.86,5.91,1.04,10.25,4.17,12.47,9.82.59,1.51.8,3.15,2.25,4.18Z"/>
    <path class="cls-12" d="M164.62,139.24c1.45,4.59.16,10.02,4.24,13.8-1.52,13.13,4.28,24.35,9.4,35.74,1.18,2.62,5,3.59,4.59,7.24-5.84-.55-6.8-5.81-8.7-9.68-3.11-6.34-4.87-13.38-8.27-19.53-1.88-3.39-5.15-5.92-6.17-10.11-1.67-6.87.31-12.47,4.91-17.45Z"/>
    <path class="cls-2" d="M266.97,53.54c-4.98,3.62-5.61,3.46-7.09-1.92-2.15-7.81-7.07-13.96-11.94-20.16,1.3-1.95,2.23-.26,3.19.37,8.03,5.22,12.08,13.36,15.83,21.7Z"/>
    <path class="cls-5" d="M114.27,226.18c-6.36,6.2-13.5,11.38-20.93,16.21-1.05.69-2.09.87-3.26.77-1.18-1.06-2.33-2.13-2.14-3.93.23-.52.46-1.03.69-1.55,11.34-.91,18.38-6.64,19.7-16.03,3.69-.74,4.7,2.05,5.94,4.53Z"/>
    <path class="cls-10" d="M267.97,183.39c.07-3.06,1.88-5.56,2.77-8.35.94-2.95,3.6-1.38,5.53-1.72-1.23,4.62-4.85,7.28-8.3,10.08Z"/>
    <path class="cls-3" d="M189.71,216.47c.09-.49.25-.98.25-1.47,0-1.79.45-3.69,2.27-3.97,1.77-.28,2.87,1.56,3.46,3.04.8,2,0,3.52-2.19,4.21-.58.18-1.05.72-1.57,1.1-.66-.71-1.32-1.43-1.98-2.14.76-.4.74-.71-.12-.89l-.11.13Z"/>
    <path class="cls-6" d="M88.63,237.68c-.23.52-.46,1.03-.69,1.55-5.85.17-11.95.86-13.87-6.88,2.64-.58,3.14,2.26,4.94,3.14,1.96.96,3.71,2.18,6.02,1.74,1.2.15,2.4.3,3.61.45Z"/>
    <path class="cls-3" d="M255.84,211.34c-2.13.93-2.33,4.72-5.71,3.82-2.5-.67-2.78-3.25-.45-4.67,1.1-.67,2.3-1.18,3.45-1.77.29-.15.57-.32.86-.49,1.1.75,1.68,1.81,1.85,3.11Z"/>
    <path class="cls-5" d="M308.88,225.02c-1.18.05-1.77-.47-1.39-1.49.53-1.46.27-3.58,2.53-3.82.91-.09,1.68.65,1.55,1.55-.24,1.7-1.04,3.13-2.69,3.76Z"/>
    <path class="cls-12" d="M184.22,196.32c1.03.1,1.6.66,1.7,1.69-1.27.14-1.81-.45-1.7-1.69Z"/>
    <path class="cls-12" d="M188.15,201.39c1.17,0,1.68.65,1.77,1.75-1.21.04-1.84-.5-1.77-1.75Z"/>
    <path class="cls-7" d="M240.02,228.61c.34-.44.68-.87,1.02-1.31.21.87-.44,1.06-1.02,1.31Z"/>
    <path class="cls-7" d="M189.82,216.35c.86.19.88.49.12.89-.27-.27-.31-.57-.12-.89Z"/>
    <path class="cls-9" d="M162.99,374.24c3.31-.49,6.05.97,8.85,2.43,5.39,2.82,10.81,5.6,17.11,5.71.18.85.51,1.59,1.49,1.75,10.14,1.71,20.3,1.72,30.53.64,11.55-1.22,21-7.41,30.92-12.52,5.32,1.03,10.07,3.18,14.01,6.98,0,.99,0,1.98,0,2.97l.04-.04c-2.39.83-4.04,2.81-6.31,3.97-3.23,1.65-6.67,1.88-9.94,2.95-13.87,3.62-28.06,4.91-42.25,3.94-14.74-1.01-29.74-.75-43.98-5.77-2.31-.81-4.57-1.79-6.82-2.77-1.71-.74-3.48-1.73-3.48-3.81,0-2.03,1.75-3.21,3.34-4.02,2.05-1.04,4.32-1.64,6.49-2.44Z"/>
    <path class="cls-6" d="M251.89,372.26c-9.93,5.11-19.38,11.29-30.92,12.52-10.22,1.08-20.38,1.07-30.53-.64-.98-.17-1.31-.9-1.49-1.75,10.05.38,19.86-.77,28.84-5.57,15.52-8.31,26.34-20.19,28.17-38.57,1.73-.51,3.44-1.15,5.2-1.49,4.69-.92,9.2-2.22,12.98-5.34,1.49.24,3.73-1.14,4.26,1.02.37,1.5-1.24,2.76-2.57,3.9-3.46,2.96-7.62,4.61-11.55,6.7-2.23,1.18-4.04,2.52-2.27,5.38.83,2.3-2.32,6.21,2.74,6.81.39.08.77.16,1.16.25.02,1.32.07,2.62,1.84,2.76.39.42.79.83,1.18,1.25,4.64,5.31,9.82,1.97,14.42.36,4.08-1.43,7.63-4.35,11.42-6.62-1.56,4.48-4.82,7.44-9.14,8.85-5.06,1.66-10,3.28-15.76,2.61-3.85-.45-6.39,3.85-7.99,7.57Z"/>
    <path class="cls-5" d="M105.14,372.57c4.15-3.36,9.81-4.09,13.57-8.45,2.16-2.5,6.04-.41,9.14-.59,2.06,4.71,7.36,5.57,10.89,8.96-3.06,1.3-5.9,2.51-8.75,3.72-5.01.79-10-.36-15-.1-1.86-1.61-4.03-.81-6.1-.79-.97-.1-1.94-.2-2.91-.31-.28-.82-.56-1.63-.84-2.45Z"/>
    <path class="cls-2" d="M249.69,389.09c3.27-1.07,6.7-1.3,9.94-2.95,2.27-1.16,3.92-3.14,6.31-3.97.05.13.07.27.15.37.05.06.18.05.27.08-.15-.14-.31-.27-.46-.41,0-.99,0-1.98,0-2.97,5.58-.16,10.92,2.08,16.58,1.47,2.28-.25,1.02,2.3,1.71,3.41-.91,1.37-1.94,3.3-3.58,2.96-3.02-.62-3.41,1.73-4.66,3.2-3.26,1.85-6.75,1.69-10.15.78-2.71-.73-1.49,1.27-1.86,2.19l.03-.03c-5.76,2.08-10.27-.17-14.29-4.12Z"/>
    <path class="cls-2" d="M129.99,376.22c2.85-1.21,5.69-2.42,8.75-3.72-3.53-3.39-8.83-4.24-10.89-8.96,4.31-1.8,8.41-.69,11.05,3.14.41.59.64,1.14,1.4.92,5.33-1.5,5.39,4.81,8.91,6.05.71.25.42,1.35-.09,1.68-3.89,2.48-6.04,7.94-11.85,7.1-2.43-.35-4.95,2.91-7.27-.23-.4-1.99,1.67-3.99-.01-5.98Z"/>
    <path class="cls-4" d="M129.99,376.22c1.68,1.99-.38,3.99.01,5.98-.87.11-1.64.32-1.28,1.48.41,1.32.01,2.3-1.33,2.7-1.7.5-1.22-.95-1.46-1.75-.59-1.97-2.04.41-3.53-.84-2.57-2.15-5.51-4.71-9.41-4.65.66-1.01,1.33-2.02,1.99-3.02,5-.26,10,.88,15,.1Z"/>
    <path class="cls-4" d="M275.95,390.27c1.24-1.48,1.64-3.83,4.66-3.2,1.64.34,2.68-1.58,3.58-2.96,2.65-.3,5.39,1.58,8.63-.96-1.26,6.77-6.43,7.27-10.73,8.63-2.15.68-5.06,2.82-6.14-1.51ZM281.03,389.99c.1-.08.21-.16.31-.24-.09-.1-.17-.19-.26-.29-.13.13-.27.26-.4.39.12.04.23.09.35.13Z"/>
    <path class="cls-2" d="M105.14,372.57c.28.82.56,1.63.84,2.45-4.96,2.62-8.88-.61-13.74-2.33,4.72-1.93,8.76-6.01,12.9-.12Z"/>
    <path class="cls-5" d="M149.68,392.24c-1.28-.37-3.5.66-3.42-1.68.07-2.08,2.04-2.32,3.75-2.33,1.74,0,3.74.37,3.61,2.43-.16,2.53-2.53,1.23-3.95,1.58Z"/>
    <path class="cls-2" d="M114.99,376.12c-.66,1.01-1.33,2.02-1.99,3.02-2.28-.29-4.17-1.01-4.11-3.82,2.07-.01,4.24-.81,6.1.79Z"/>
    <path class="cls-2" d="M263.94,393.24c.25.34.51.68.76,1.03l-.38.25c-.12-.44-.23-.87-.35-1.31,0,0-.03.03-.03.03Z"/>
    <path class="cls-4" d="M273.9,318.34c-.26.15-.53.27-.82.35-1.37-.12-2.73-.24-4.1-.36,0-1.75,1.08-3.05,1.86-4.49,2.29-4.24,3.99-8.41,2.45-13.58-1.34-4.52.44-9.49-1.06-14.21-.54-1.71.98-2.61,2.68-2.77,2.73,3.17,4.93,6.59,5.05,10.96-.75.1-1.61.09-1.53,1.21,0,.12.2.31.32.32,1.13.08,1.11-.78,1.22-1.53,2.84.63,4.34-2.11,6.72-2.68,3.36-.8,6.7-1.83,11.05-.81-6.02,3.26-13.5,3.11-16.56,9.82-2.65,5.82-6.3,11.25-7.27,17.76Z"/>
    <path class="cls-4" d="M200.97,277.11c.02,3.51-2.01,4.9-4.71,4.81-2.61-.08-4.2-2.03-4.12-4.66.1-2.97,2.32-4.53,4.93-4.5,2.56.03,4.15,1.82,3.9,4.35Z"/>
    <path class="cls-4" d="M226.34,274.25c2.91.11,4.45,1.5,4.53,4.32.1,3.3-2.18,4.37-4.84,4.48-2.77.12-3.64-2.21-3.85-4.38-.28-2.85,1.61-4.13,4.16-4.42Z"/>
    <path class="cls-4" d="M192.1,247.35c-.13.97-.27,1.95-.4,2.92-.78-1.1-.84-2.1.4-2.92Z"/>
    <path class="cls-12" d="M249.03,180.02c-2.72-1.4-6.34.21-8.66-2.81-1.94-2.52-2.36-5.37.39-6.85,3.24-1.74,7.13-3.01,10.92-1.57,3.01,1.15,5.92,3.03,5.1,6.92-.86,4.07-4.97,3.05-7.75,4.31Z"/>
    <path class="cls-12" d="M184.86,168.27c3.46.05,7.38.46,7.76,4.48.36,3.84-3.06,5.22-6.61,6.07-2.87.69-5.37-.18-7.69-1.14-3.98-1.64-4.06-4.93-.54-7.62,1.91-1.46,3.35-1.82,7.08-1.8Z"/>
    <path class="cls-10" d="M214.33,190.36c-4.65.16-8.88-1.07-12.57-3.92-.83-.64-2.24-1.39-1.17-2.74.7-.88,1.8-.52,2.72.05,9.1,5.61,17.67,4.03,25.87-1.98.75-.55,1.39-1.77,2.42-.69,1.01,1.06.38,2.26-.44,3.11-3.37,3.5-7.72,5.06-12.36,5.9-1.46.26-2.98.2-4.47.29Z"/>
    <path class="cls-10" d="M242.76,160.97c-.43,2.87-1.1,6.01-5.19,6.39-3.33.31-5.82-2.55-5.74-6.63.07-3.41,1.17-6.37,5.06-6.91,2.97-.41,5.81,3.04,5.87,7.16Z"/>
    <path class="cls-10" d="M184.91,159.84c-.11-4.52,2.57-7.91,5.62-7.57,3.79.42,5.25,3.27,5.32,6.62.07,3.37-1.35,6.61-5.08,6.69-3.82.09-5.74-2.73-5.86-5.75Z"/>
    <path class="cls-12" d="M210.44,172.27c.76,0,.94-.03,1.1,0,1.67.42,4.63-2.36,4.85.86.19,2.83-2.64,4.22-5.68,4.14-6.77-.18-9.54-4.43-6.88-10.69,1.1-2.59,2.23-5.16,3.42-7.71.35-.76,1.04-1.5,1.95-1.08.9.42.68,1.34.41,2.17-.87,2.66-1.94,5.29-2.53,8.01-.65,3,.24,5.09,3.36,4.3Z"/>
    <path class="cls-10" d="M236.67,140.74c3.46.38,6.93.71,9.84,2.89,1.03.77,2.44,1.54,1.72,3.14-.83,1.83-2.3.94-3.35.3-3.28-2.01-6.8-2.3-10.51-1.91-1.53.16-3.81.78-4.07-1.43-.31-2.6,2.2-2.31,3.91-2.6.81-.14,1.63-.25,2.45-.38Z"/>
    <path class="cls-10" d="M190.66,139.23c.23.01,1.24-.03,2.22.13,1.47.24,3.22.43,2.93,2.56-.28,2-1.59,2.05-3.35,1.65-3.58-.82-6.92-.04-9.94,2.1-.97.69-2.11,1.41-3.04.12-.87-1.21.07-2.2.88-3.04,2.6-2.7,5.9-3.58,10.3-3.51Z"/>
    <path class="cls-12" d="M216.27,194.22c1.32.08,2.5,0,3.6.26,1.18.28,2.1,1.1,1.84,2.48-.23,1.24-1.34,1.26-2.33,1.29-.98.03-1.97.05-2.95.02-2.22-.06-5.73.4-5.68-2.15.07-3.14,3.72-1.18,5.53-1.9Z"/>
    <path class="cls-1" d="M161.93,265.49c-7.1-3.1-12.02-8.75-16.78-14.52-5.99-7.26-10.87-15.17-12.86-24.5-.64-3.02-1.42-6.56,1.55-8.84,2.78-2.13,5.77-.61,8.46.73,8.31,4.15,14.37,10.95,19.22,18.47,5.3,8.23,9.79,17.09,9.78,27.38-2.79,2.8-6.51-1.14-9.36,1.28Z"/>
    <path class="cls-8" d="M268.99,318.33c1.37.12,2.73.24,4.1.36-.18,1.66.6,2.16,2.21,2.55,10.2,2.46,15.89,13.04,12.17,22.83-1.33,3.5-2.7,7.17-6.58,8.97-1.26.58-2.23,2.97-3.41-.15-.36-.95-1.57-.18-2.04.43-4.23,5.48-10.17,6.3-16.49,6.15-.39-.41-.79-.83-1.18-1.25,1.56-1.44,3.68-1.33,5.53-1.79,3.43-.85,6.46-2.38,9.27-4.4.93-.67,1.89-1.84,1.03-2.93-1.13-1.44-2.01.09-2.74.79-4.2,3.98-9.52,4.88-14.93,5.57-.39-.08-.77-.16-1.16-.25-.52-3.45,1.07-4.95,4.42-5.68,3.04-.66,5.94-2.07,8.81-3.36,1.38-.62,2.88-1.53,2.32-4.28-5.84,3.74-11.5,6.88-18.28,6.5-1.77-2.86.04-4.2,2.27-5.38,3.93-2.09,8.09-3.73,11.55-6.7,1.33-1.14,2.93-2.4,2.57-3.9-.53-2.16-2.77-.79-4.27-1.02-1.08-1.67-2.85-1.1-4.36-1.35-1.98-4.25.33-6.3,3.97-7.6,1.28-.46,3.11-.05,3.17-2.22,1.33.07,2.03-.54,2.07-1.89Z"/>
    <path class="cls-6" d="M169.99,323.25c-4.5,2.41-8.95,4.95-13.53,7.2-2.54,1.24-9.63-2.78-10.9-6.14-1.48-3.9,1.82-5.61,4.19-6.85,9.06-4.74,18.96-6.72,29.04-7.9.47-.06,1.3-.03,1.4.2,1.64,3.79.98,7.83.65,11.69-.22,2.56-3.21,3.01-5.37,3.58-1.44.38-2.15-1.34-3.28-1.96-.5-1.49,1.81-3.19-.17-4.47-.96-.62-2.33-.45-3.19.49-1.78,1.93.94,2.73,1.15,4.18Z"/>
    <path class="cls-4" d="M259.78,330.05c1.51.26,3.28-.31,4.36,1.35-3.77,3.12-8.28,4.43-12.97,5.34-1.76.34-3.47.99-5.2,1.49-15.25,1.98-30.54,3.61-45.95,2.99-14.53-.58-28.95-2.07-43.02-5.99-.21-2.98,1.62-3.41,3.85-2.81,18.97,5.15,38.39,4.93,57.79,4.77,10.95-.09,21.73-1.98,32.41-4.23,1.88-.39,4.42-.8,4.86-3.58,1.26.41,2.49,1.04,3.88.66Z"/>
    <path class="cls-6" d="M259.78,330.05c-1.4.39-2.62-.24-3.88-.66-1.42-.79-2.91-1.49-4.25-2.4-4.74-3.23-9.8-4.39-15.3-2.34-2.23.83-4.14,1.14-5.42-1.39,2.46-.15,1.69-2.44,2.5-3.69.81-1.25.04-3.13,1.56-3.98,2.12-1.18,1.39,3.02,3.58,1.98.92-1.87-1.11-3.44-.52-5.24.87,0,1.65.14,1.9,1.15.25.98.49,2.02,1.84,1.76.94-.19,1.39-1.02,1.3-1.85-.28-2.69,1.34-2.25,3.03-2.07,7.86.82,15.06,3.13,20.78,8.92-.06,2.17-1.88,1.76-3.17,2.22-3.64,1.3-5.94,3.35-3.97,7.6Z"/>
    <path class="cls-6" d="M215.7,318.01c-4.42-.24-8.49,1.13-12.53,2.68-1.56.6-3.54,1.39-4.22-.81-1.11-3.61-1.94-7.35-2.43-11.09-.28-2.08,1.84-1.42,2.98-1.43,5.47-.09,10.94-.06,16.41-.07-1.39,2.82-2.78,5.64-4.2,8.52.91,1.26,3.88-.78,3.99,2.2Z"/>
    <path class="cls-4" d="M215.7,318.01c-.1-2.98-3.07-.94-3.99-2.2,1.42-2.88,2.81-5.7,4.2-8.52.5.02,1.42-.01,1.43.07.7,5.79,6.88,6.29,9.66,10.04-.02,1.29-.04,2.58-.07,3.87-4.24.63-7.29-2.84-11.23-3.25Z"/>
    <path class="cls-4" d="M238.06,312.33c-.59,1.8,1.44,3.37.52,5.24-2.18,1.04-1.46-3.16-3.58-1.98-1.53.85-.75,2.73-1.56,3.98-.81,1.25-.05,3.54-2.5,3.69,0,0,.02,0,.02,0-.22-2.1-2.89-3.36-2.02-5.85-.2-.61-.4-1.22-.61-1.84,4.12,1.52,4.85-7.04,9.73-3.26Z"/>
    <path class="cls-4" d="M169.99,323.25c-.21-1.45-2.93-2.26-1.15-4.18.86-.93,2.23-1.11,3.19-.49,1.98,1.28-.33,2.98.17,4.47-.73.06-1.47.13-2.2.2Z"/>
    <path class="cls-6" d="M228.93,317.43c-.87,2.48,1.8,3.74,2.02,5.85-1.34-.67-2.68-1.34-4.03-2.01.02-1.29.04-2.58.07-3.87.65.01,1.29.02,1.94.03Z"/>
    <path class="cls-2" d="M155.98,339.5c4.79.76,8.23,2.18,9.68,7.73,2.4,9.2,7.96,16.68,15.78,22.32.67.48,1.3,1.04,1.88,1.63.79.81,1.9,1.63.98,2.95-.88,1.26-2.02.66-3.14.27-6.92-2.4-12.66-6.58-17.41-12.03-4.71-5.41-8.57-11.39-10.36-18.47-.6-2.36-1.13-4.81,2.6-4.39Z"/>
    <path class="cls-1" d="M158.09,268.88c2.66.97,4.93,2.57,7.14,4.29-1.52,1.89-3.76,1.15-5.61,1.29-10.22.76-17.65,6.72-25.19,12.76-9.95,7.97-20.16,15.62-30.18,23.51-4.74,3.73-9.91,3.61-14.38.58-11.44-7.75-21.05-17.09-23.55-31.66-1.14-6.66,1.23-11.37,6.7-12.47,0,0,.06.06.06.06-.06,1.65-1.33,2.58-2.22,3.74-1.1,1.44-1.42,3.25-.29,4.59,1.43,1.7,2.57-.2,3.75-.88,1.88-1.07,3.57-2.37,4.72-4.26.61-.17,1.23-.35,1.84-.52,18.04,5.32,36.25,3.97,54.6,1.92,7.57-.85,15-2.63,22.62-2.95Z"/>
    <path class="cls-5" d="M80.87,269.91c-.61.17-1.23.35-1.84.52-1.24-2.45-3.45-3.09-5.95-3.2,0,0-.06-.06-.06-.06,2.39-4.21,6.88-6.01,10.45-8.78,11.1-8.62,21.95-17.61,33.77-25.27,1.24-.8,2.46-2.75,4.22-.72,1.68,1.95,1.7,4.17-.11,5.81-3.3,3-6.73,5.93-10.42,8.42-7.71,5.22-14.94,11-21.97,17.08-2.56,2.22-6.36,2.87-8.1,6.2Z"/>
    <path class="cls-11" d="M114.27,226.18c-1.25-2.47-2.25-5.26-5.95-4.53-.82-1.67-.64-4.11-3.36-4.28.05-.73.1-1.45.14-2.18,3.84-.33,7.19.81,10.14,3.28,3.7,3.1,3.46,5.15-.97,7.7Z"/>
    <path class="cls-12" d="M104.97,215.25c-1.19-.16-2.42-.3-1.16-1.93.87.36,1.17,1.05,1.16,1.93Z"/>
    <path class="cls-4" d="M262.85,131.49c-1.33-.6-2.66-1.2-3.99-1.8,2.46-1.91,3.53-.73,3.99,1.8Z"/>
    <path class="cls-4" d="M268.96,134.27c-1.46-.38-2.93-.74-4.02-1.89,1.9-.56,3.51-.48,4.02,1.89Z"/>
    <path class="cls-3" d="M235.89,212.17c.79-.17,1.6-.3,2.37-.52.98-.28,1.99-.59,2.44.7.33.94-.32,1.49-1.03,1.98-1.07.75-1.99,1.91-3.16,2.26-2.49.74-3.51,1.95-3.85,4.7-.35,2.85-3.68,3.91-5.79,3.57-3.49-.56.25-3.43-.78-5.08,1.43-1.73,3.83-2.4,4.91-4.51,1.7.06,2.51-1.41,3.73-2.18,1.45,1.13,1.09-.17,1.18-.87l-.02-.06Z"/>
    <path class="cls-8" d="M231.01,215.28c-1.08,2.11-3.49,2.78-4.91,4.51-2.03.57-4.07.29-6.11.04-3.25-2.01-6.49.39-9.74.03-.75-1.22-1.49-2.43-2.24-3.65,2.18-2.04,4.31.16,6.46.21,5.57.11,11.04-.61,16.54-1.13Z"/>
    <path class="cls-13" d="M272.95,162.68c.5-3.21,1.36-6.43,4.67-8.06,2.41-1.19,4.41.17,6.26,1.69.72.59,1.13,1.25.66,2.09-.42.75-1.07.32-1.7.13-5.09-1.51-6.06-.88-6.89,4.39-.19,1.21.34,3.09-1.56,3.03-1.88-.06-1.26-1.92-1.44-3.27Z"/>
    <path class="cls-7" d="M235.91,212.23c-.09.7.27,2-1.18.87.39-.29.79-.58,1.18-.87Z"/>
    <path class="cls-3" d="M210.24,219.86c3.25.36,6.49-2.03,9.74-.03.76,2.96,3.04,5.8-.16,8.87-2.1,2.01-4.26,4.55-7.1,3.08-3.38-1.75-3.26-5.71-3.35-9.12-.03-.93.57-1.87.88-2.8Z"/>
    <path class="cls-12" d="M205.7,216.35c-.26.07-.59.25-.73.16-.21-.14-.28-.47-.41-.73.26-.07.59-.26.76-.16.2.11.25.47.38.73Z"/>
    <path class="cls-12" d="M104.96,217.38c2.72.17,2.55,2.61,3.36,4.28-1.31,9.39-8.36,15.12-19.69,16.03-1.2-.15-2.4-.3-3.6-.45-1.03-4.41-6.65-6.14-6.55-11.28,1.54-.81,1.86.59,2.57,1.39,1.54,1.73,3.01,3.56,4.77,5.03,1.64,1.38,4.03,1.61,5.52.21,1.68-1.57-.6-2.91-1.33-4.22-1.62-2.94-4.93-4.8-5.76-8.94,4.54,1.44,5.38,6.06,8.58,8.17,1.48.97,2.36,3.68,4.84,1.47,2.03-1.8,1.15-3.62.03-5.33-1.63-2.48-3.47-4.83-5.15-7.29-.57-.84-2.13-1.85-.62-2.85,1.31-.86,1.91.7,2.62,1.56,1.15,1.41,2.34,2.78,3.5,4.18,1.33,1.6,2.3,4.32,4.77,3.6,2.41-.71,2.17-3.39,2.13-5.56Z"/>
    <path class="cls-12" d="M252.02,348.41c6.78.38,12.44-2.76,18.28-6.5.56,2.75-.93,3.66-2.32,4.28-2.87,1.29-5.77,2.7-8.81,3.36-3.35.73-4.94,2.23-4.42,5.68-5.06-.6-1.91-4.51-2.74-6.81Z"/>
    <path class="cls-12" d="M255.92,355.47c5.41-.69,10.73-1.59,14.93-5.57.73-.69,1.61-2.22,2.74-.79.86,1.09-.1,2.26-1.03,2.93-2.81,2.02-5.84,3.55-9.27,4.4-1.85.46-3.97.35-5.53,1.79-1.78-.15-1.83-1.44-1.84-2.76Z"/>
    <path class="cls-1" d="M265.9,382.21c.15.14.3.27.46.41-.09-.02-.23-.02-.27-.08-.08-.1-.1-.24-.15-.37,0,0-.04.04-.04.04Z"/>
    <path class="cls-2" d="M281.03,389.99c-.12-.04-.23-.09-.35-.13.13-.13.27-.26.4-.39.09.1.17.19.26.29-.1.08-.21.16-.31.24Z"/>
    <path class="cls-2" d="M279.96,294.25c-.1.75-.09,1.61-1.22,1.53-.12,0-.31-.2-.32-.32-.08-1.13.78-1.11,1.53-1.21,0,0,0,0,0,0Z"/>
    <path class="cls-2" d="M73.08,267.23c2.5.11,4.71.74,5.95,3.2-1.15,1.89-2.84,3.18-4.72,4.26-1.18.67-2.32,2.58-3.75.88-1.13-1.34-.81-3.15.29-4.59.89-1.17,2.16-2.09,2.22-3.74Z"/>
  </g>
</svg>