<?xml version="1.0" encoding="UTF-8"?>
<svg id="Layer_2" xmlns="http://www.w3.org/2000/svg" viewBox="0 0 408.17 416.31">
  <defs>
    <style>
      .cls-1 {
        fill: #85603f;
      }

      .cls-2 {
        fill: #bb6558;
      }

      .cls-3 {
        fill: #fefefd;
      }

      .cls-4 {
        fill: #ac7f57;
      }

      .cls-5 {
        fill: #c0bfbf;
      }

      .cls-6 {
        fill: #585d5f;
      }

      .cls-7 {
        fill: #a85047;
      }

      .cls-8 {
        fill: #959595;
      }

      .cls-9 {
        fill: #cdbba9;
      }

      .cls-10 {
        fill: #c79565;
      }

      .cls-11 {
        fill: #9fabb1;
      }

      .cls-12 {
        fill: #e7b88a;
      }

      .cls-13 {
        fill: #d2d6d8;
      }

      .cls-14 {
        fill: #c79e7b;
      }
    </style>
  </defs>
  <g id="Layer_1-2" data-name="Layer_1">
    <path class="cls-5" d="M43.33,333.26c-7.47-7.3-12.44-16.37-17.39-25.35-12.66-22.91-20.9-47.47-24.23-73.36-3.24-25.19-1.88-50.38,4.14-75.17,7.41-30.49,20.86-58.15,40.56-82.52C77.27,38.69,116.79,14.36,164.93,3.96,181.83.31,198.86-.57,215.94.33c19.12,1.01,37.72,5.06,55.72,11.87,19.72,7.45,37.99,17.23,54.77,30.14,28.15,21.66,49.38,48.55,63.6,81.01,9.93,22.67,15.61,46.33,17.54,71.09,2.77,35.66-4.15,69.26-19.05,101.51-8.57,18.54-19.95,35.2-33.11,50.73-1.08,1.27-1.92,2.77-3.94,2.55-13.78-1.62-27.67-.74-41.47-1.87-.86-1.29-.48-4.3-3.53-2.53-3.26-3.14-7.48-2.23-11.37-2.73,0-3.97,1.56-8.68-4.55-9.82-.69-4.55-.7-8.52,4.69-10.71,3.15-1.28,5.92-3.63,8.63-5.78,7.53-5.98,13.68-13.1,12.93-23.37-.64-8.78-3.29-17.26-6.97-25.3-2.08-4.54-3.05-9.76-7.39-13.05-1.08-2.42-2.02-4.92-3.26-7.26-7.47-14.08-17.16-26.03-31.84-33.22-2.34-1.15-4.03-1.79-5.55,1.32-4.43,9.1-12.14,14.3-21.62,17.06-2.7.79-2.67,1.52-1.05,3.63,5.22,6.79,4.12,15.11,5.11,22.92.2,1.58-.6,2.38-2.31,2.5-5.84.42-15.31-6.21-17.27-12.2,3.84,2.25,7.34,5.04,11.69,6.47,3.25,1.07,4.16.17,3.99-3.07-.41-7.95-2.81-15.08-8.69-21.26,3.76-1.38,7.17-2.6,10.55-3.89,6.48-2.47,12.08-6.21,16.32-11.79,2.33-3.07,2.77-6.01-.99-8.41-.59-1.03-1.17-2.06-1.76-3.09-.66-1.62-1.61-2.99-3.28-3.72-.42-.62-.84-1.24-1.26-1.86,2.34.11,4.15-.2,4.45-3.23.13-1.33,1.29-2.64,2.18-3.8,4.1-5.29,7.57-10.8,6.64-17.94,1.18-.19,1.85-.85,1.94-2.06,4.49-.42,4.05-5.68,7.45-7.44,7.56-3.92,8.23-11.04,7.41-18.41-.75-6.79-5.34-10.56-11.29-12.99-.84-1.21-1.67-2.41-2.51-3.62-.38-5.11-.55-10.25-1.18-15.33-.62-4.99.93-8.1,5.92-9.78,3.25-1.09,6.42-2.74,8.72-5.57,8.53-10.5,11.14-22.14,5.77-34.77-1.78-4.18-3.15-9.23-8.29-11.16-5.09-6.99-11.88-10.52-20.59-11.1-5.58-.37-10.31,2.15-15.46,3.16-2.85-10.51-10.6-16.09-20.05-19.96-19.88-9.94-40.16-2.11-50.34,14.24-2.06,3.31-4.03,2.35-6.62,1.57-19.53-5.92-40.55,13.46-35.98,33.14-2.36,6.61,1.93,17.55,8.42,22.73,5.29,4.22,11.42,6.32,17.7,8.25.2,6.85-.1,13.68-.98,20.47-2.68,7.52-1.87,14.98.41,22.41-6.13,9.14-3.89,21.4,5.08,27.37,1.3.87,2.27,1.61,2.41,3.4.77,9.78,7.24,16.57,12.81,23.8,3.58,4.65,9.69,6.29,13.29,10.95-.37.33-.68.8-1.11.98-16.83,6.96-31.8,16.96-45.94,28.28-13.11,10.51-20.23,23.42-16.23,40.84.92,3.99.65,8.29,3.91,11.45-6.94,5.33-7.48,7.92-2.76,12.96-2.17,4.7-.5,8.74,2.4,12.4,1.49,1.88,5.73,2.01,4.29,5.68-1.41,3.57-5.09,1.14-7.52,2.08-4.13,1.61-9.92.72-11.23,6.93-6.71-.23-13.23,1.29-19.82,2.17-4.46-.15-8.92-.18-13.37-.46-12.62-.8-25.24-1.71-37.85-2.58Z"/>
    <path class="cls-11" d="M310,347.36c13.8,1.13,27.69.25,41.47,1.87-.12.98-.15,1.9-.94,2.73-23.62,24.97-52.12,42.51-84.1,54.45-13.05,4.87-26.81,7.22-40.7,8.78-19.14,2.16-38.15,1.11-56.98-2.32-16.83-3.07-32.82-9.04-48.52-15.8-4.89-2.11-9.71-4.23-13.76-7.77,7.6.7,15.2,1.29,22.79,2.11,23.07,2.52,46.13,5.14,69.2,7.7,17.63,1.96,35.27,3.87,52.9,5.82,2.35.26,4.87.61,6.65-1.18,4.33-4.35,9.63-7.66,13.44-12.56.52-.4,1.12-.74,1.55-1.22,8.87-9.84,19.5-17.78,29.25-26.66,5.2-4.73,9.25-8.61,7.75-15.97Z"/>
    <path class="cls-10" d="M83.4,374c-2.92-2.37-5.85-4.75-8.77-7.12-2.58-2.1-2.97-4.1-.07-6.41,4.01-3.2,9.39-4.02,13.04-7.86,1.08-1.13,2.43.49,3.71.54.19,4.31,3.41,7.25,4.96,10.94-2.62,2.78-2.03,4.76,1.81,5.98,9.35,2.99,18.83,2.52,28.29.82,4.56-.82,5.24-4.01,1.99-7.84.53-1.3,1.48-2.49,1.05-4.04,0,0-.03.08-.03.08.35-.5.71-1.01,1.06-1.51,1.96-7.76-.67-13.56-7.65-16.86-1.19-.81-2.38-1.62-3.57-2.43-.61-1.99-3.92-1.56-3.78-4.23,4.33-3.94,9.35-3.47,14.8-3.19,12.02.62,24.06.8,36.01,2.4-.29,2.67,1.87,3.49,3.46,4.9,5.03,4.44,10.93,3.21,16.72,2.92.34.33.69.65,1.03.98.74,1.53,2.2,1.97,3.66,2.41.73,4.15,3.36,6.55,7.22,7.83,3.09,1.03,6.16,2.1,9.24,3.15-.3,1.31,1.65,1.26,1.6,2.4-7.4.74-14.89.65-21.25,4.95.04.49.07.97.11,1.46h22.48c-2.02,3.32-5.61,5.02-8.11,7.86-1.48,1.68-2.33,3.04-.56,5.04,2.16,2.44,2.94,5.4,2.73,8.63-1.32.03-2.66.22-3.96.07-13.76-1.56-27.48-3.68-41.29-4.62-11.88-.8-23.69-2.24-35.49-3.52-13.46-1.46-26.96-2.39-40.42-3.72ZM163.57,360.11c-3.79-2.44-8.16-4.12-10.48-8.6-.46,1.01-.73,1.73-.51,2.24,1.98,4.56-.85,4.83-4,4.29-3.2-.56-6.58-.87-9.13-3.37-.9-.88-1.9-2.17-3.29-.64-1.09,1.2-.51,2.42.04,3.68.65,1.49,1.88,2.21,3.21,2.93,5.87,3.19,12.3,3.34,18.73,3.49,2.97,3.08,6.81,2.76,10.61,2.88,2.8.09,4.77-1.03,6.19-3.29.55-.87.71-1.93.07-2.79-.64-.86-1.44-.18-2.21,0-3.15.74-6.21.18-9.22-.82ZM140.16,369.43c-1.25,2.63-.1,4.4,1.82,5.17,6.55,2.62,13.24,2.5,19.8,0,1.91-.73,1.96-2.76,1.29-4.31-.72-1.66-1.94-.28-2.93.05-6.75,2.28-13.47,3.28-19.97-.91Z"/>
    <path class="cls-4" d="M83.4,374c13.46,1.34,26.96,2.26,40.42,3.72,11.8,1.28,23.61,2.72,35.49,3.52,13.8.93,27.52,3.06,41.29,4.62,1.3.15,2.64-.04,3.96-.07,4.24.35,8.49.7,12.73,1.05,8.14,1.02,16.26,2.33,24.44,2.96,6.76.52,14.16,3.22,19.57-3.76,3.02,2.44,6.31,4.34,10.16,5.15-3.81,4.9-9.1,8.21-13.44,12.56-1.78,1.79-4.3,1.44-6.65,1.18-17.63-1.95-35.27-3.86-52.9-5.82-23.07-2.56-46.13-5.18-69.2-7.7-7.58-.83-15.19-1.42-22.79-2.11-8.91-3.26-15.7-9.72-23.08-15.3Z"/>
    <path class="cls-11" d="M43.33,333.26c12.62.87,25.23,1.77,37.85,2.58,4.45.28,8.91.32,13.37.46-.66,2.31-1.33,4.62-1.99,6.93,0,0,.01.07.01.07-.64.13-1.73.1-1.84.42-2.23,6.24-8.21,8.09-13.05,11.25-10.71,6.98-10.82,7.04-19.45-2.63-4.95-5.56-9.54-11.44-14.25-17.21-.39-.48-.45-1.24-.66-1.86Z"/>
    <path class="cls-7" d="M129.4,359.02c.44,1.55-.52,2.74-1.05,4.04-6.54,4.89-13.41,8.22-22.02,6.16-3.88-.93-6.38-4.11-10.07-5.13-1.55-3.69-4.76-6.63-4.96-10.94.42-3.28.84-6.57,1.27-9.85,0,0-.01-.07-.01-.07.36.01.71.03,1.07.04-.35,4.6,2.5,7.93,4.62,11.55-1.3.26-2.62.45-2.73,2.23-.16,2.56,5.11,8.29,8.51,8.59,2.85.25,5.05-1.13,5.36-4.4,6.91,1.41,13.65,1.29,20.01-2.21Z"/>
    <path class="cls-3" d="M224.67,248.82c1.96,5.98,11.43,12.62,17.27,12.2,1.71-.12,2.51-.92,2.31-2.5-.99-7.8.11-16.13-5.11-22.92-1.62-2.11-1.65-2.84,1.05-3.63,9.47-2.76,17.18-7.96,21.62-17.06,1.52-3.11,3.21-2.47,5.55-1.32,14.68,7.19,24.38,19.15,31.84,33.22,1.24,2.34,2.18,4.83,3.25,7.26,2.2,8.14,6.14,15.73,7.49,24.15,1.59,9.98.54,19.1-7.49,26.43-5.3,4.84-10.91,9.22-17.27,12.45-5.7,2.9-11.04,6.94-17.88,6.99-2.54-9.03-7.92-14.99-17.61-16.28-.32-1.71.94-2.29,2.1-2.98,5.3-3.13,10.56-6.31,15.88-9.41,6.89-4.02,13.62-8.52,22.25-7.57.92.1,2.33-.11,2.72-1.9-2.82-1.44-5.88-1.06-8.73-.78-3.66.36-5.4-1.11-6.76-4.33-2.46-5.82-5.3-11.48-8.08-17.16-.73-1.49-1.19-3.4-3.53-3.89v4.23c-.37,9.7-.74,19.4-1.11,29.11-.51,1.12-1.51,1.67-2.54,2.21-7.73,4.06-16.19,7.25-19.68,16.4-1.65.12-3.29.25-4.94.37-1.66-1.16-1.84-2.87-2.1-4.73-.28-1.98-1.81-3.07-3.85-3.26-1.84-.17-3.27.56-4.21,2.08-.98,1.59-.78,3.17.51,4.55.91.97,1.91,1.87,1.92,3.35-10.2,3.19-14.83,10.76-16.32,20.79-.55.03-1.11.06-1.67.09-.33-.06-.66-.13-1-.19-2.94-.64-5.91-.55-8.88-.27-4.38-1.59-8.17-4.07-11.41-7.41,1.72-1.42,1.03-3.39,1.06-5.12.48-26.5-1.01-53.05,1.97-79.5.69-6.12,1.47-7.25,7.9-7.43-3.23,4.52-4.98,9.66-6.11,15.02-.31,1.48-1.28,3.36,1.26,4.04,5.82,5.1,11.17,3.14,16.39-1.07,2.55-2.05,3.53-5.09,5.07-7.79.92-1.6.96-4.04,3.61-4.16l1.04,3.03c-.13.18-.27.37-.4.55.23.06.46.12.68.17.17.26.27.55.29.86-.26.66-.01,1.04.65,1.2.33.63.67,1.27,1,1.9ZM202.6,279.07c1.97-.22,3.74-1.45,3.81-4.23.08-2.98-1.59-4.56-4.53-4.65-2.97-.08-4.2,2.06-4.19,4.45.01,2.4,1.32,4.41,4.91,4.43ZM230.81,270.25c-2.25.79-4.21,2.16-4.2,4.81,0,2.82,1.91,4.14,4.64,4,2.53-.13,4.1-1.62,4.04-4.14-.07-2.63-1.68-4.22-4.47-4.68ZM202.02,304.09c-2.64.04-4.3,1.37-4.41,3.84-.13,3.05,2.17,4.58,4.76,4.69,2.29.1,4.02-1.43,3.96-4.12-.06-2.87-1.8-4.07-4.32-4.4Z"/>
    <path class="cls-3" d="M242.4,44.17c5.15-1.01,9.88-3.53,15.46-3.16,8.71.57,15.5,4.11,20.59,11.1,1.53,4.6,1.98,9.3,2.05,14.17.27,18.18-16.38,31.53-36.06,23.71-7.22-2.87-7.69-3.95-7.05-11.61.16-1.87.27-3.75.48-6.66-9.06,10.66-18.23,18.68-32.64,18.67-13.89,0-24.45-5.31-32.99-16.05-.11,1.87-.19,3.56.45,4.91,1.8,3.85-.16,6.17-3.15,7.74-7.97,4.17-16.01,5.58-24.73,1.47-7.11-3.36-12.12-8.33-15.39-15.31-4.56-19.68,16.46-39.06,35.98-33.14,2.59.79,4.56,1.74,6.62-1.57,10.18-16.34,30.45-24.18,50.34-14.24.42.87.64,1.95,1.29,2.57,5.44,5.15,10.06,10.71,12.78,17.93,1.71,4.56,4.17,1.99,5.98-.54Z"/>
    <path class="cls-3" d="M129.19,294.09c-3.26-3.16-3-7.46-3.92-11.45-4-17.42,3.12-30.33,16.23-40.84,14.13-11.32,29.1-21.32,45.94-28.28.43-.18.74-.64,1.11-.98.68.16,1.35.33,2.03.5,3.09,7.63,9.65,11.74,16.15,15.92.51,3.25-2.51,1.85-3.73,2.83-7.51-1.77-12.11.86-13.67,8.04-2.3,10.62-.93,21.47-1.55,32.2-1.02,17.72-.3,35.53-.31,53.3-5.4-1.39-9.27-5.49-14.07-7.95-1.2-.62-1.87-1.83-1.7-3.32.27-.58.74-1.14.78-1.73,1.03-16.41,2.01-32.82,3.01-49.23,1.95-5.58.36-11.26.58-17.05-3.65,5.86-7.44,11.17-13.49,14.87-3.14,1.93-4.99,2.2-7.83.15-2.53-1.82-5.27-3.91-10.1-1.91,7.59,2.33,11.39,7.34,14.61,12.95.68,5.46,1.37,10.91,2.05,16.37-9.87-7.11-18.23-7.22-27.85-.37-2.13,1.34-3.95,2.89-3.67,5.77-.25-.05-.45.02-.6.22Z"/>
    <path class="cls-13" d="M129.41,73.15c3.27,6.98,8.28,11.96,15.39,15.31,8.72,4.11,16.76,2.7,24.73-1.47,2.99-1.57,4.95-3.89,3.15-7.74-.64-1.36-.56-3.05-.45-4.91,8.54,10.74,19.11,16.04,32.99,16.05,14.41,0,23.58-8.01,32.64-18.67-.21,2.91-.32,4.79-.48,6.66-.64,7.66-.17,8.74,7.05,11.61,19.68,7.82,36.33-5.53,36.06-23.71-.07-4.87-.53-9.57-2.05-14.17,5.14,1.93,6.51,6.98,8.29,11.16,5.37,12.62,2.76,24.26-5.77,34.77-2.3,2.83-5.47,4.48-8.72,5.57-5,1.67-6.54,4.79-5.92,9.78.63,5.08.81,10.22,1.18,15.33-9.72-4.12-20.08-6.15-30.07-9.38-.02-5.33-.17-10.66,0-15.98.08-2.69-.73-4.35-3.28-5.41-1.64-.69-3.05-1.97-4.54-3-1.98-1.36-3.89-2.24-6.48-1.25-14.66,5.6-28.87,5-42.45-3.4-1.62-1-3.18-1.54-4.97.06-3.41,3.07-7.64,4.82-12.02,5.76-4.63.99-8.51,2.19-8.17,8.01-6.28-1.93-12.41-4.03-17.7-8.25-6.49-5.17-10.78-16.12-8.42-22.73Z"/>
    <path class="cls-3" d="M155.53,104.13c-.35-5.82,3.54-7.02,8.17-8.01,4.38-.94,8.6-2.69,12.02-5.76,1.79-1.61,3.35-1.06,4.97-.06,13.57,8.4,27.79,9,42.45,3.4,2.58-.99,4.5-.11,6.48,1.25,1.5,1.03,2.9,2.31,4.54,3,2.55,1.07,3.36,2.72,3.28,5.41-.17,5.32-.02,10.65,0,15.98-1.47-.19-2.96-.32-4.42-.58-17.4-3.07-34.84-3.85-52.35-1.01-2.47.58-4.94,1.17-7.41,1.75-6.42,1.01-12.65,2.75-18.7,5.1.88-6.8,1.18-13.62.98-20.47Z"/>
    <path class="cls-1" d="M180.66,117.75c17.51-2.84,34.95-2.06,52.35,1.01,1.46.26,2.95.39,4.42.58,9.99,3.23,20.36,5.26,30.07,9.38.84,1.21,1.67,2.41,2.51,3.62.07,1.26.13,2.51.2,3.77-6.64.17-9.62,2.6-10.78,8.97-.32,1.76-.07,4.05-1.79,4.81-2.24,1-2.37-2.26-4.02-2.82-3.04-5.92-7.7-10.84-10.43-16.95-.78-1.74-2.14-2.34-4.04-2.1-10.62,1.34-21.11,1.23-31.12-3.3-1.13,2.79,1.75,4.11,1.4,6.24-6.67.37-13.35-1.07-19.61-4.72-3.63-2.11-7.7-3.95-9.16-8.49ZM206.64,123.76l.27.16v-.3s-.27.14-.27.14Z"/>
    <path class="cls-10" d="M261.29,386.05c-5.4,6.98-12.81,4.28-19.57,3.76-8.17-.63-16.29-1.94-24.44-2.96.35-1.2.71-2.4,1.06-3.6,4.42-.36,9.05-1.72,13.21-.85,5.93,1.23,11.53.1,17.17-.52,9-.99,11.65-5.39,8.49-12.76-2.16-1.79-4.31-3.59-6.47-5.38,4.05-2.2,8.77-1.39,12.98-2.88,7.56-2.67,14.55-7.59,23.23-5.84.43.09.95-.25,1.42-.38,5.42-1.55,6.34-3.86,3.78-9.01-.31-.63.07-1.61.14-2.43.94-.36,1.87-.73,2.81-1.09,3.89.5,8.12-.4,11.37,2.73-1.13,2.95-3.87,4.36-6.05,6.3-13.05,11.64-26.09,23.28-39.13,34.92Z"/>
    <path class="cls-13" d="M267.3,324.09c6.84-.05,12.18-4.09,17.88-6.99,6.36-3.24,11.97-7.62,17.27-12.45,8.03-7.33,9.08-16.44,7.49-26.43-1.34-8.41-5.29-16.01-7.49-24.15,4.33,3.28,5.31,8.5,7.39,13.05,3.68,8.04,6.33,16.52,6.97,25.3.75,10.27-5.4,17.39-12.93,23.37-2.71,2.15-5.49,4.51-8.63,5.78-5.39,2.19-5.39,6.16-4.69,10.7-1.95,3.59-4.4,2.68-4.89-.38-.88-5.53-3.29-4.2-6.34-2.27-3.19,2.01-6.38,4.04-9.58,6.06-.92-.58-1.41-1.43-1.61-2.47.66-2.88-.92-5.49-.97-8.29-.02-.29.02-.56.14-.82Z"/>
    <path class="cls-1" d="M261.29,386.05c13.04-11.64,26.09-23.29,39.13-34.92,2.18-1.95,4.92-3.35,6.05-6.3,3.05-1.76,2.67,1.25,3.53,2.53,1.5,7.35-2.55,11.23-7.75,15.97-9.74,8.87-20.38,16.82-29.25,26.66-.43.48-1.03.82-1.55,1.22-3.84-.81-7.14-2.72-10.16-5.15Z"/>
    <path class="cls-9" d="M129.79,293.87c-.28-2.88,1.54-4.42,3.67-5.77,1.19,1.46.29,3.72,1.94,5-.43,4.91-3.19,9.17-3.67,14.13-.44,4.55,4.13,11.1,8.9,11.77,1.51,1.16,1.17,3.75,3.51,4.52v-3.38c2.08.44,2.61,3.83,5.43,2.87.96.72,1.92,1.43,2.89,2.15,4.12,2.8,4.98-1.71,7.18-3.21,1.05.84,2.11,1.67,3.16,2.51-.74,3.11.4,5.02,3.59,5.62l-.13,3.19c-11.95-1.6-23.99-1.78-36.01-2.4-5.46-.28-10.47-.75-14.8,3.19-.35.02-.7.05-1.06.07,1.31-6.21,7.09-5.33,11.23-6.93,2.43-.94,6.11,1.48,7.52-2.08,1.45-3.67-2.79-3.8-4.29-5.68-2.9-3.66-4.57-7.69-2.4-12.4,1.52.51,3.05,1.49,3.26-1.46.15-2.08.68-4.27,1.62-6.11,1.31-2.56.24-4.07-1.52-5.59Z"/>
    <path class="cls-2" d="M223.02,245.72c-.02-.31-.12-.6-.29-.86.09-.31,0-.55-.28-.72-.35-1.01-.69-2.02-1.04-3.03.39-2.07-.86-3.75-1.31-5.62,2.33-1.95,3.73-.72,5.17,1.31,2.37,3.36,3.92,7.38,7.44,10.06,1.11-1.9.4-3.12-.42-4.44-2.01-3.2-3.83-6.53-5.86-9.71-1.31-2.05-1.41-3.99-.02-5.95.46-.65,1.08-1.45,2-1.18,1.27.37.84,1.57.94,2.49-.43.16-.85.31-1.28.47.09.12.25.36.27.35.38-.21.74-.45,1.11-.69,2.87-.64,6.17-.78,5.95-5.06,7.13-1.99,15.25-1.63,20.54-8.35-1.26-1.13-2.58-1.3-3.81-1.75-2.57-.94-1.89-5.3.82-5.82,3.28-.63.31,3.37,2.65,3.46,1.32-.89,1.67-2.31,1.93-3.78,3.76,2.4,3.32,5.34.99,8.41-4.23,5.58-9.83,9.31-16.32,11.79-3.38,1.29-6.79,2.5-10.55,3.89,5.89,6.18,8.28,13.3,8.69,21.26.17,3.24-.73,4.14-3.99,3.07-4.35-1.43-7.85-4.21-11.69-6.47-.33-.64-.67-1.27-1-1.91-.22-.4-.43-.8-.65-1.2Z"/>
    <path class="cls-9" d="M190.58,213.04c-.68-.17-1.35-.34-2.03-.5-3.6-4.66-9.71-6.29-13.29-10.94-5.57-7.23-12.04-14.02-12.81-23.8-.14-1.79-1.11-2.53-2.41-3.4-8.97-5.98-11.21-18.24-5.08-27.37,1.04,1.18,1.4,2.6,1.46,4.12-3.43,1.84-3.6,5.19-2.65,8.05,1.52,4.55,2.65,9.82,8.65,11,4.92,2.45,5.1,8.09,6.37,12.03,2.48,7.68,7.38,12.7,12.83,17.85,3.17,3,7.93,4.55,9.09,9.49-.05,1.16-.09,2.32-.14,3.47Z"/>
    <path class="cls-1" d="M156.42,151.14c-.06-1.53-.42-2.95-1.46-4.12-2.28-7.43-3.09-14.89-.41-22.41,6.06-2.35,12.28-4.08,18.7-5.09-1.8,4.46-2.96,9.67-6.72,12.61-7.08,5.54-8,12.32-6.2,20.27.29,1.28.17,2.65.24,3.97-3.17-.32-2.28-3.87-4.15-5.22Z"/>
    <path class="cls-7" d="M257.53,206.88c-.26,1.47-.6,2.88-1.93,3.78-2.34-.09.63-4.09-2.65-3.46-2.72.53-3.4,4.89-.82,5.82,1.23.45,2.55.61,3.81,1.75-5.29,6.72-13.41,6.37-20.54,8.35,0,0,0,0,0,0,.78-6.56-4.26-4.6-7.58-5.17.87-.94,1.75-1.88,2.62-2.82,0,0-.03.03-.03.03.54-.12,1.08-.24,1.62-.36,1.13.1,2.27.23,3.4.29,2.26.11,4.72.58,6.2-1.77,1.71-2.73-1.88-3.34-2.28-5.26.65-3.78,4.76-4.66,6.39-7.63,1.86-.31,2.65-2.62,4.72-2.52.23.18.48.28.77.3.42.62.84,1.24,1.26,1.86-.1,2.29-.18,4.57,3.28,3.72.59,1.03,1.17,2.06,1.76,3.09ZM246.39,214.3c-1.43.58-2.75,1.49-2.84,3.43-.04.83.66,1.26,1.32,1.04,1.56-.53,3.32-1.04,3.4-3.12.04-.93-.66-1.46-1.87-1.34Z"/>
    <path class="cls-13" d="M242.4,44.17c-1.81,2.53-4.27,5.1-5.98.54-2.72-7.22-7.34-12.79-12.78-17.93-.66-.62-.87-1.7-1.29-2.57,9.45,3.88,17.21,9.45,20.05,19.96Z"/>
    <path class="cls-9" d="M270.21,136.11c-.07-1.26-.13-2.52-.2-3.77,5.95,2.43,10.54,6.2,11.29,12.99.82,7.37.15,14.5-7.41,18.41-3.4,1.76-2.96,7.02-7.45,7.44,0,0-.28-.25-.28-.25,1-2.64,3.19-4.79,3.28-7.81,4.89-2.69,8.93-5.68,9.07-12.24.15-6.83-1.72-11.98-8.31-14.76Z"/>
    <path class="cls-8" d="M269.75,335.68c3.19-2.02,6.38-4.05,9.57-6.06,3.05-1.93,5.47-3.26,6.34,2.27.49,3.06,2.94,3.97,4.89.38,6.11,1.15,4.55,5.85,4.55,9.82-.94.36-1.87.73-2.81,1.09-.61-.03-1.22-.07-1.83-.1-.34-.12-.67-.25-1.01-.37,1.62-6.07,1.39-6.37-4.95-6.57-1.13-.04-2.6.43-3.22-.75-2.15-4.07-4.49-1.88-6.91-.41-1.24.76-2.24,2.08-3.94,1.9-.23-.4-.46-.8-.68-1.2Z"/>
    <path class="cls-9" d="M251.23,198.21c-.29-.02-.55-.11-.77-.3-.2-1.71-.02-3.27,1.3-4.58,3.61-3.57,5.3-8.26,7.65-12.61,1.52-2.82-.68-6.49,2.6-8.52.13.64.26,1.29.39,1.93-.64-.2-.79.04-.55.62.18-.21.36-.42.54-.62.65-.35,1.3-.7,1.95-1.05l.17.17c.93,7.15-2.54,12.65-6.64,17.94-.9,1.16-2.05,2.47-2.18,3.8-.3,3.03-2.11,3.34-4.45,3.23Z"/>
    <path class="cls-6" d="M129.79,293.87c1.76,1.52,2.83,3.04,1.52,5.59-.94,1.84-1.47,4.04-1.62,6.11-.21,2.95-1.74,1.98-3.26,1.46-4.73-5.04-4.18-7.63,2.76-12.96.16-.19.36-.27.6-.21Z"/>
    <path class="cls-8" d="M114.37,334.13c.35-.02.7-.05,1.06-.07-.14,2.66,3.18,2.23,3.79,4.23-2.19-.48-4.38-.96-6.57-1.45-8.42-2.31-14.78-.17-19.01,6.42-.36-.01-.71-.03-1.07-.04.66-2.31,1.33-4.62,1.99-6.93,6.59-.87,13.11-2.39,19.82-2.17Z"/>
    <path class="cls-2" d="M255.77,203.79c-3.46.85-3.38-1.44-3.28-3.72,1.67.74,2.62,2.1,3.28,3.72Z"/>
    <path class="cls-9" d="M266.44,171.18c-.09,1.21-.76,1.87-1.94,2.06,0,0-.16-.17-.16-.17.61-.71,1.22-1.43,1.82-2.14l.28.25Z"/>
    <path class="cls-4" d="M290.47,343.09c.61.03,1.22.07,1.83.1-.06.82-.45,1.8-.14,2.43,2.56,5.15,1.63,7.46-3.78,9.01-.48.14-.99.47-1.42.38-8.68-1.75-15.67,3.17-23.23,5.84-4.21,1.49-8.93.68-12.97,2.87-2.78-.27-5.56-.53-8.35-.79-1.62-1.26-3.29-1.15-4.99-.18-.66-.01-1.31-.03-1.97-.04-.43-.11-.85-.22-1.28-.32-2.59.11-5.19.22-7.78.33-1.42-.85-2.76-.99-3.94.43l-5.56,1.63c-2.07-.88-4.23-.61-6.37-.51h-22.48c-.04-.49-.07-.97-.11-1.46,6.37-4.3,13.86-4.21,21.25-4.95.05-1.14-1.9-1.09-1.6-2.4,6.14,1.05,12.28,2.54,18.5.41.58,2.52,2.23,3.32,4.71,3.26,4.76-.11,9.6.47,14.26-.2,3.42-.49,7.48.73,10.25-2.58,2.38-.15,4.77-.29,7.15-.44,4.15.3,5.89-2.18,6.67-5.77.04-1.07.07-2.13.11-3.2.57-3.51-.41-6.74-1.76-9.91.99-.05,1.98-.1,2.97-.15,1.7.19,2.7-1.14,3.94-1.89,2.41-1.47,4.76-3.66,6.91.41.63,1.19,2.09.72,3.22.75,6.34.2,6.57.49,4.95,6.57-5.75.9-11.56,0-17.35.63,5.83,2.55,11.83,2.06,17.84,1.07.24-.04.34-.87.51-1.33Z"/>
    <path class="cls-13" d="M93.63,343.27c4.23-6.59,10.59-8.74,19.01-6.42,0,0-.24.3-.24.3-3.74.12-7.67-.82-10.92,1.97,0,0-.04.03-.04.03-.32.32-.64.64-.96.96l-.05.04c-.86-.09-1.61.03-1.95.98l-.03.02c-1.48,1.97-4.07,3.93-.07,5.97,1.52,1.86,1.41,5.41,5.15,4.96.3.29.61.57.92.86-.03,1.35.65,2.06,1.99,2.17,4.1,3.58,9.14,2.81,13.97,3.03,1.01,1.19,2.01,1.39,2.99-.05l.06-.03c.83.04,1.59-.04,1.94-.97l.05-.03c4.26-2.15,4.68-4.01,1.97-8.91l-.03-.03c-.05-.6-.34-.95-.97-.97l-.03-.03c.3-1.57-.63-2.42-1.83-3.11-.72-.95-1.44-1.9-2.16-2.85.13-.14.26-.29.4-.43,6.97,3.31,9.6,9.1,7.65,16.87-.35.5-.71,1.01-1.06,1.51,0,0,.03-.08.03-.08-6.37,3.51-13.11,3.62-20.01,2.21-4.02-1.6-7.75-3.72-11.14-6.42-2.12-3.62-4.97-6.94-4.62-11.55Z"/>
    <path class="cls-4" d="M158.13,364.14c-6.43-.15-12.85-.31-18.73-3.49-1.33-.72-2.57-1.44-3.21-2.93-.54-1.26-1.13-2.48-.04-3.68,1.39-1.53,2.39-.24,3.29.64,2.55,2.49,5.93,2.81,9.13,3.37,3.15.55,5.98.28,4-4.29-.22-.51.05-1.23.51-2.24,2.32,4.48,6.7,6.16,10.48,8.6-.33,1.34-.04,3.32-2.54,2.3-1.68-.68-2.44.29-2.89,1.72Z"/>
    <path class="cls-13" d="M226.06,355.87c-6.21,2.13-12.35.64-18.49-.41-3.08-1.05-6.15-2.13-9.24-3.15-3.86-1.28-6.48-3.68-7.22-7.83.13-.17.27-.35.4-.52,2.91,1.15,5.86,2.22,8.72,3.48,6.5,2.85,13.05,5.52,20.16,6.47,1.31.1,2.63.2,3.94.3.52.04,1.05.09,1.57.13.05.51.1,1.02.15,1.54Z"/>
    <path class="cls-4" d="M96.26,364.09c3.69,1.02,6.19,4.2,10.07,5.13,8.61,2.06,15.48-1.27,22.02-6.16,3.25,3.82,2.57,7.02-1.99,7.84-9.46,1.7-18.94,2.17-28.29-.82-3.83-1.23-4.42-3.21-1.81-5.98Z"/>
    <path class="cls-14" d="M210.5,364.27c2.15-.1,4.31-.37,6.37.51-2.65,1.56-5.36,3.03-7.92,4.72-2.58,1.7-3.75,4.03-2.4,7.13-1.83,1.88-.2,2.83.99,4,3.1,3.05,7.07,2.33,10.81,2.62-.35,1.2-.71,2.4-1.06,3.6-4.25-.35-8.49-.7-12.73-1.05.22-3.23-.57-6.19-2.73-8.63-1.77-1.99-.92-3.36.56-5.04,2.51-2.84,6.09-4.55,8.11-7.86Z"/>
    <path class="cls-7" d="M140.16,369.43c6.5,4.19,13.22,3.19,19.97.91.99-.34,2.21-1.71,2.93-.05.67,1.55.62,3.59-1.29,4.31-6.56,2.5-13.26,2.63-19.8,0-1.92-.77-3.07-2.54-1.82-5.17Z"/>
    <path class="cls-13" d="M166.24,333.26c.04-1.06.09-2.13.13-3.19,7,3.09,13.44,7.2,20.05,11.01h0c-5.79.29-11.69,1.52-16.72-2.92-1.6-1.41-3.76-2.23-3.46-4.9Z"/>
    <path class="cls-7" d="M158.13,364.14c.45-1.44,1.22-2.41,2.89-1.72,2.5,1.02,2.22-.97,2.54-2.3,3.01,1,6.07,1.56,9.22.82.77-.18,1.58-.86,2.21,0,.64.87.48,1.92-.07,2.79-1.42,2.26-3.39,3.38-6.19,3.29-3.8-.12-7.65.2-10.61-2.88Z"/>
    <path class="cls-13" d="M112.64,336.84c2.19.48,4.38.96,6.57,1.45,1.19.81,2.38,1.62,3.57,2.43-.13.14-.26.28-.4.43-1.69-.18-3.15-1.46-4.97-1.01h-.02c-.34-.97-1.15-1.02-1.99-1h0c-1-.67-2-1.33-3.01-1.99l.24-.3Z"/>
    <path class="cls-13" d="M191.11,344.47c-1.46-.44-2.92-.88-3.66-2.41h-.02c1.7-.1,3.15.33,4.08,1.89-.14.17-.27.34-.4.52Z"/>
    <path class="cls-7" d="M129.37,359.1c.35-.5.7-1.01,1.06-1.51-.35.5-.7,1.01-1.06,1.51Z"/>
    <path class="cls-13" d="M187.46,342.07c-.34-.33-.69-.65-1.03-.98,0,0,0,0,0,0,.34.33.67.66,1.01.98h.02Z"/>
    <path class="cls-2" d="M98.25,354.81c3.39,2.7,7.11,4.82,11.14,6.42-.31,3.27-2.51,4.65-5.36,4.4-3.4-.3-8.67-6.03-8.51-8.59.11-1.78,1.43-1.96,2.73-2.23Z"/>
    <path class="cls-12" d="M237.27,312.12c1.65-.12,3.29-.25,4.94-.37,1.08.1,2.16.21,3.24.31,1.48.01,2.98-.08,4.45.06,8.57.81,11.97,7.12,7.69,14.45-1.14,1.96-2.81,3.61-4.23,5.4-5.26,2.55-9.33,6.28-11.77,11.68-.56,1.24-1.31,2.68-2.87,2.22-1.98-.59-1.32-2.44-1.1-3.83.46-2.86,2.38-5.44,1.84-8.57-2.63,2.95-4.03,6.45-5.03,10.1-.8,2.93-3.06,2.89-5.17,2.46-2.86-.58-1.52-2.64-1.18-4.37,1.04-5.34,3.7-10.09,5.44-15.2-4.77,4.09-6.58,9.54-7.13,15.53-.14,1.57-.13,3.22-2.29,3.02-1.69-.16-3.37-.77-3.63-2.79-.25-1.98-.05-3.94.69-5.88,1.55-4,2.94-8.06,4.39-12.1.29-.37.59-.73.89-1.1l.4-.45c-.15.13-.3.26-.46.39-.36.3-.72.6-1.08.91-5.06,3.13-5.56,8.61-6.76,13.61-.62,2.58-1.22,4.16-4.11,2.44-1.85-1.37.8-3.81-1.22-5.14,1.49-10.03,6.12-17.6,16.32-20.79,2.62-.53,5.36-.56,7.74-1.99ZM241.52,331.24c.23-.4.48-.79.68-1.21.02-.05-.21-.22-.33-.33-.21.42-.42.84-.63,1.26l-.37.7c.22-.14.44-.28.66-.42Z"/>
    <path class="cls-11" d="M187.43,342.07c-.34-.33-.67-.66-1.01-.98-6.61-3.81-13.05-7.92-20.05-11.01-3.19-.6-4.33-2.51-3.59-5.62,2.38.83,4.17.68,4.58-2.39.33-2.49,1.63-4.61,2.93-6.71.47-.44.94-.87,1.41-1.31-.17,1.48.5,2.7,1.7,3.32,4.8,2.46,8.67,6.56,14.07,7.95.54,1.2,1.48,1.78,2.78,1.79,3.23,3.35,7.03,5.83,11.4,7.41,2.7,3.29,6.16,5.83,9.05,8.86,3.27,3.44,8.98,4.75,9.69,10.52-7.11-.95-13.66-3.62-20.16-6.47-2.87-1.26-5.81-2.32-8.72-3.48-.93-1.56-2.38-1.99-4.08-1.89Z"/>
    <path class="cls-2" d="M203,231.78c1.22-.97,4.24.43,3.73-2.83-.9-3.62,2.72-5.07,3.72-7.78.43-.15.86-.29,1.29-.44-.09-.12-.25-.36-.26-.36-.38.22-.74.47-1.1.71-1.56.23-3.6-.74-4.57.89-.95,1.61-1.74,2.38-3.32,1.11-1.76-1.41-1.42-3.31-.4-4.83,2.59-3.87,5.93-3.16,9.34-1.14.28,0,.56,0,.84-.01.45,2.32,2.29,2.22,3.76,1.71,2.99-1.05,5.69-.12,8.47.61-.79,4.39-4.32,7.28-6.13,11.11-.5,1.05-1.75,1.7-2.95,1.49-4.8-.85-6.51,2.34-8.59,5.77-1.42,2.33-1.32,4.91.3,5.55,2.39.94,2.84-2.13,3.25-3.83.84-3.52,2.36-5.18,6.01-3.36-2.11,11.1-9.67,16.11-20.05,17.98-2.53-.68-1.57-2.56-1.26-4.04,1.14-5.36,2.88-10.5,6.11-15.02,1.24-.74,1.71-1.9,1.81-3.27Z"/>
    <path class="cls-5" d="M203,231.78c-.1,1.37-.57,2.54-1.81,3.27-6.43.18-7.21,1.31-7.9,7.43-2.99,26.45-1.49,53-1.97,79.5-.03,1.74.67,3.7-1.06,5.12-1.31-.01-2.24-.6-2.78-1.79.01-17.77-.71-35.59.31-53.3.62-10.73-.76-21.57,1.55-32.2,1.56-7.17,6.15-9.81,13.67-8.04Z"/>
    <path class="cls-5" d="M245.45,312.06c-1.08-.1-2.16-.2-3.24-.31,3.49-9.15,11.95-12.34,19.68-16.4,1.03-.54,2.03-1.09,2.54-2.21,9.03-1.68,11.39-5.38,8.66-13.57-.94-2.81-1.62-5.73-2.87-8.39-1.2-2.56-1.44-5.88-4.68-7.14v-4.23c2.34.49,2.8,2.4,3.53,3.89,2.78,5.68,5.61,11.34,8.08,17.16,1.36,3.21,3.1,4.69,6.76,4.33,2.85-.28,5.92-.66,8.73.78-.39,1.79-1.8,2-2.72,1.9-8.63-.95-15.35,3.55-22.25,7.57-5.32,3.1-10.58,6.28-15.88,9.41-1.16.69-2.42,1.26-2.11,2.98-2.53.3-4.47,1.19-4.23,4.25Z"/>
    <path class="cls-14" d="M245.45,312.06c-.24-3.06,1.7-3.94,4.23-4.25,9.7,1.29,15.07,7.25,17.62,16.28-.11.26-.16.54-.13.82-2.48.3-4.66,1.31-4.62,4.07.04,3.46,3.06,3.67,5.59,4.22.2,1.04.69,1.89,1.61,2.47.23.4.46.81.69,1.2-.99.05-1.98.1-2.97.15-1.82-2.95-4.52-4.11-7.92-3.98-2.12.08-4.3.26-6.19-1.07,1.43-1.79,3.09-3.44,4.24-5.4,4.28-7.33.87-13.64-7.69-14.45-1.47-.14-2.96-.05-4.45-.06Z"/>
    <path class="cls-13" d="M265.54,264.03c3.24,1.26,3.48,4.58,4.68,7.14,1.25,2.66,1.93,5.59,2.87,8.39,2.74,8.19.37,11.9-8.66,13.57.37-9.7.74-19.4,1.11-29.11Z"/>
    <path class="cls-5" d="M196.33,254.12c10.39-1.86,17.95-6.88,20.05-17.98,1.02-1.46,2.43-.74,3.72-.66.44,1.87,1.7,3.56,1.31,5.62-2.65.12-2.7,2.56-3.61,4.16-1.55,2.7-2.52,5.74-5.07,7.79-5.22,4.21-10.57,6.17-16.39,1.07Z"/>
    <path class="cls-14" d="M220.4,353.9c-.71-5.77-6.42-7.07-9.69-10.52-2.88-3.04-6.35-5.57-9.05-8.86,2.97-.28,5.94-.37,8.88.27.33.06.67.13,1,.19.56-.03,1.11-.06,1.67-.09,2.02,1.33-.63,3.77,1.22,5.14-1.98,2.37.77,2.99,1.65,4.19,2.55,3.49,7.05,5.36,8.26,9.97-1.31-.1-2.63-.2-3.94-.3Z"/>
    <path class="cls-5" d="M237.27,312.12c-2.38,1.44-5.13,1.47-7.74,1.99,0-1.48-1-2.38-1.91-3.35-1.3-1.37-1.5-2.95-.51-4.55.94-1.53,2.38-2.26,4.21-2.08,2.05.19,3.57,1.28,3.85,3.26.26,1.85.45,3.57,2.1,4.73Z"/>
    <path class="cls-5" d="M202.6,279.07c-3.59-.02-4.9-2.04-4.91-4.43-.01-2.38,1.22-4.53,4.19-4.45,2.93.08,4.61,1.67,4.53,4.65-.07,2.78-1.84,4.01-3.81,4.23Z"/>
    <path class="cls-5" d="M230.81,270.25c2.79.45,4.4,2.05,4.47,4.68.06,2.52-1.51,4.01-4.04,4.14-2.73.14-4.63-1.19-4.64-4,0-2.65,1.95-4.02,4.2-4.81Z"/>
    <path class="cls-5" d="M202.02,304.09c2.52.34,4.26,1.54,4.32,4.4.06,2.69-1.67,4.22-3.96,4.12-2.59-.11-4.89-1.64-4.76-4.69.1-2.46,1.77-3.8,4.41-3.84Z"/>
    <path class="cls-12" d="M211.54,334.99c-.33-.07-.67-.13-1-.19.33.07.67.13,1,.19Z"/>
    <path class="cls-5" d="M223.02,245.72c.22.4.43.8.65,1.2-.66-.16-.91-.54-.65-1.2Z"/>
    <path class="cls-5" d="M222.45,244.13c.28.17.37.41.28.72-.23-.06-.45-.12-.68-.17.13-.18.27-.37.4-.55Z"/>
    <path class="cls-5" d="M171.71,314.05c-.47.44-.94.87-1.41,1.31-1.13-2-3.43-2.49-5.03-3.88,2.67-4.21,1.8-8.55-.65-12.17-1.58-2.34-2.19-4.63-2.61-7.18-.23-1.22-.46-2.43-.7-3.65-.68-5.46-1.37-10.91-2.05-16.37,5.88-2.16,10.32-6.91,16.23-9.01-.99,16.41-1.98,32.82-3.01,49.23-.04.59-.51,1.15-.78,1.73Z"/>
    <path class="cls-13" d="M175.49,263.09c-5.91,2.1-10.35,6.85-16.23,9.01-3.22-5.61-7.02-10.62-14.61-12.95,4.83-2,7.57.09,10.1,1.91,2.84,2.05,4.69,1.77,7.83-.15,6.04-3.71,9.83-9.01,13.49-14.87-.21,5.78,1.37,11.47-.58,17.05Z"/>
    <path class="cls-7" d="M210.45,221.17c-1,2.71-4.62,4.16-3.72,7.78-6.5-4.17-13.06-8.29-16.15-15.92.05-1.16.09-2.32.13-3.47,6.76,1.86,13.43,4.22,20.62,3.82.03,1.24.06,2.48.09,3.72-3.41-2.02-6.75-2.72-9.34,1.15-1.02,1.52-1.36,3.43.4,4.83,1.58,1.26,2.37.49,3.32-1.11.96-1.62,3.01-.66,4.57-.89l.08.09Z"/>
    <path class="cls-14" d="M161.3,288.47c.23,1.22.46,2.43.7,3.65-1.48,0-2.94.05-4.15-1.09-6.9-6.51-17.29-3.15-22.46,2.07-1.65-1.28-.75-3.55-1.94-5,9.62-6.85,17.97-6.74,27.85.37Z"/>
    <path class="cls-12" d="M211.33,213.38c-7.18.41-13.85-1.96-20.62-3.82-1.15-4.93-5.92-6.49-9.09-9.49-5.45-5.16-10.35-10.18-12.83-17.85-1.27-3.94-1.45-9.58-6.37-12.03-1.57-4.48-.22-9.36-1.85-13.83-.07-1.33.05-2.7-.24-3.97-1.8-7.96-.88-14.73,6.2-20.27,3.76-2.94,4.92-8.15,6.72-12.61,2.47-.59,4.94-1.17,7.41-1.76,1.46,4.54,5.53,6.37,9.16,8.49,6.26,3.65,12.94,5.09,19.61,4.72.34-2.14-2.53-3.46-1.4-6.24,10,4.54,20.5,4.64,31.12,3.3,1.91-.24,3.27.37,4.04,2.1,2.73,6.11,7.39,11.03,10.43,16.95-1.95,1.34-1.26,3.3-1,5,2.6,17.42-1.71,33.01-12.25,46.99-.73.4-1.53.71-2.17,1.22-7.78,6.17-15.48,12.48-26.22,12.38-.21,0-.43.47-.64.72ZM203.01,197.8c9.01,1.25,16.56-.92,21.46-9.23,2.59-3.49,1.58-7.79,2.57-11.66.53-2.05-1.19-2.75-3.07-2.67-6.04,1.57-12.06,3.27-18.14,4.68-4.74,1.1-9.79.47-14.43,2.31-2.66-.3-3.5.8-3.07,3.45,1.01,6.12,8.23,12.67,14.68,13.12ZM229.64,153.46c-.43-3.36-1.38-6.95-5.73-7.15-3.77-.18-4.88,3.01-5.11,6.12-.32,4.33,2.53,7.73,6.05,7.58,4.02-.18,4.58-3.1,4.79-6.54ZM184.04,158.87c-.06-3.64-2.56-6.82-5.41-6.78-3.94.05-4.95,2.79-5.07,6.04-.14,3.8,2.57,6.84,5.85,6.64,3.77-.24,4.15-3.2,4.62-5.89ZM197.27,151.32c-3.25,3.71-4.44,7.78-4.78,12.04-.62,7.84,4.76,11.37,12.09,8.14,1.84-.81,3.51-2.04,2.54-4.12-1.02-2.19-2.51-.05-3.76.26-2.45.6-5.07,1.45-7.09-.44-1.84-1.72-.36-4.01-.16-6.11.3-3.09,3.09-5.9,1.15-9.78ZM232.55,136.7c-.22-.37-.48-.98-.88-1.46-2.6-3.08-11.75-3.63-14.93-.91-.74.64-1.65,1.32-1.08,2.46.43.85,1.36.86,2.19.7,4.15-.78,8.24-.95,12.2.88,1.4.64,2.2.09,2.49-1.66ZM182.37,138.95c-.12-.05-.93-.32-1.65-.74-3.58-2.1-14.24,2.7-15.02,6.82-.11.57-.02,1.38.32,1.8.67.83,1.52.36,2.15-.19,3.35-2.92,7.04-4.86,11.68-4.48,1.3.11,2.12-.73,2.53-3.2Z"/>
    <path class="cls-14" d="M240.37,199.06c10.53-13.98,14.85-29.57,12.25-46.99-.25-1.7-.95-3.66,1-5,1.66.56,1.78,3.82,4.02,2.82,1.72-.76,1.47-3.06,1.79-4.81,1.16-6.37,4.14-8.8,10.78-8.97,6.59,2.78,8.45,7.93,8.31,14.76-.14,6.56-4.18,9.56-9.07,12.24-6.67-.41-6.69,4.64-7.44,9.08-3.28,2.03-1.07,5.7-2.6,8.52-2.35,4.35-4.04,9.04-7.65,12.61-1.33,1.31-1.5,2.87-1.3,4.58-2.07-.1-2.86,2.21-4.72,2.52-1.82-.34-3.75-.22-5.36-1.37ZM263.87,155.31c1.44-.95,1.3-2.52,1.66-3.92.54-2.13,1.58-3.95,3.65-5.04.96-.5,3.35.33,2.56-1.85-.69-1.91-2.72-1.63-4.27-.85-4.04,2.04-7.01,4.13-3.6,11.66Z"/>
    <polygon class="cls-12" points="206.64 123.76 206.92 123.62 206.91 123.92 206.64 123.76"/>
    <path class="cls-13" d="M206.55,376.62c-1.35-3.1-.18-5.43,2.4-7.13,2.57-1.69,5.28-3.16,7.92-4.72,1.86-.54,3.71-1.09,5.57-1.63,1.31-.14,2.63-.28,3.94-.43,2.59-.11,5.19-.22,7.78-.34.43.11.85.22,1.28.32.66.01,1.31.03,1.97.04,1.65.53,3.32.5,5,.18,2.78.26,5.57.52,8.35.79,2.15,1.8,4.31,3.6,6.47,5.39.79,3.88-1.54,5.94-4.61,7.13-5.32,2.06-10.89,2.24-16.48,1.17-.88-.17-2.31-.02-2.26-1.3.05-1.49,1.82-1,2.67-1.65.58.08,1.16.17,1.74.25,5.32.82,10.58,1.23,15.15-2.5,2.03-1.61,1.12-2.95-.58-3.82-3.91-1.99-8.22-2.53-12.52-2.85-1.36-.1-1.97,1.02-2,2.36-7.05,7.84-16.13,10.57-26.32,10.39-1.93-.03-4.03.14-5.46-1.68ZM223.26,365.68c-4.6.5-8.55,2.63-12.2,5.23-1.88,1.34-3.27,3.73.05,4.85,3.12,1.05,6.55.78,9.76-.49,2.98-1.18,1.01-3.78,1.64-5.63.26-.76.73-1.45,1.11-2.18.96-.11,1.91-.67,2.94.02-.92,1.35-3.49,2.58-1.69,4.33,2.11,2.05,4.35-.15,6.18-1.24,1.69-1.01,4.32-1.59,4.02-4.42-.1-.93-1.16-1.15-1.99-1.11-3.28.16-6.62-.73-9.82.62Z"/>
    <path class="cls-2" d="M206.55,376.62c1.43,1.81,3.53,1.64,5.46,1.68,10.2.18,19.28-2.55,26.32-10.39.37.1.75.2,1.12.29.04,1.52-.49,2.85-1.35,4.07-.93.44-1.57,1.08-1.55,2.19-.85.65-2.62.16-2.67,1.65-.05,1.28,1.39,1.14,2.26,1.3,5.59,1.06,11.16.89,16.48-1.17,3.06-1.19,5.4-3.25,4.61-7.13,3.16,7.37.51,11.76-8.49,12.76-5.64.62-11.24,1.76-17.17.52-4.16-.87-8.79.49-13.21.85-3.74-.29-7.72.43-10.81-2.62-1.19-1.17-2.83-2.13-.99-4Z"/>
    <path class="cls-11" d="M268.13,333.2c-2.53-.55-5.55-.76-5.59-4.22-.03-2.76,2.14-3.76,4.62-4.07.06,2.79,1.63,5.41.97,8.29Z"/>
    <path class="cls-12" d="M135.39,293.11c5.17-5.23,15.56-8.58,22.46-2.07,1.21,1.14,2.68,1.1,4.15,1.09.42,2.55,1.03,4.84,2.61,7.18,2.45,3.62,3.33,7.96.65,12.17-2.01-.43-2.99-2.29-4.49-3.4-1.82,1.67-1.81,3.92-2.34,5.96-1.38,1.04-1.37,2.09-.03,3.15.4,1.59.81,3.18,1.21,4.77-2.2,1.5-3.06,6.01-7.18,3.21-1.01-4.06-2.03-8.11-3.37-13.51-1.46,4.97.53,8.07.48,11.36-2.82.95-3.35-2.43-5.43-2.87-1.69-2.2-1.16-5.22-2.82-8.3-1.45,2.79-.69,5.02-.7,7.17-4.76-.66-9.33-7.22-8.9-11.77.48-4.96,3.24-9.23,3.67-14.13Z"/>
    <path class="cls-6" d="M158.44,314.03c.53-2.04.52-4.29,2.34-5.96,1.5,1.11,2.47,2.97,4.49,3.4,1.6,1.4,3.9,1.88,5.03,3.88-1.3,2.09-2.61,4.21-2.93,6.71-.41,3.07-2.2,3.22-4.58,2.39-1.05-.84-2.11-1.67-3.16-2.51-.4-1.59-.81-3.18-1.21-4.77.01-1.05.02-2.1.03-3.15Z"/>
    <path class="cls-10" d="M140.62,319c0-2.14-.75-4.38.7-7.17,1.66,3.07,1.13,6.09,2.82,8.3,0,1.09,0,2.17,0,3.38-2.34-.77-2-3.35-3.51-4.52Z"/>
    <path class="cls-10" d="M149.56,323.01c.04-3.29-1.95-6.38-.48-11.36,1.35,5.39,2.36,9.45,3.37,13.51-.96-.72-1.92-1.43-2.89-2.15Z"/>
    <path class="cls-7" d="M220.1,235.48c-1.29-.08-2.7-.8-3.72.66-3.65-1.82-5.18-.16-6.01,3.36-.41,1.7-.86,4.77-3.25,3.83-1.62-.64-1.72-3.22-.3-5.55,2.08-3.42,3.79-6.61,8.59-5.77,1.19.21,2.45-.44,2.95-1.49,1.81-3.84,5.34-6.73,6.13-11.12.55-.19,1.1-.37,1.66-.56,2.67,2.31,5.39,4.54,9.25,4.27,0,0,0,0,0,0,.22,4.28-3.08,4.42-5.95,5.06l-.11-.13c-.1-.92.33-2.12-.94-2.49-.92-.26-1.54.53-2,1.18-1.39,1.96-1.29,3.9.02,5.95,2.04,3.19,3.86,6.51,5.86,9.71.83,1.32,1.54,2.54.42,4.44-3.53-2.68-5.07-6.71-7.44-10.06-1.43-2.03-2.84-3.25-5.17-1.31Z"/>
    <path class="cls-7" d="M229.45,228.19c-.37.23-.73.48-1.11.69-.02.01-.18-.23-.27-.35.43-.16.85-.31,1.28-.47,0,0,.11.13.11.13Z"/>
    <path class="cls-14" d="M160.57,156.36c1.63,4.47.28,9.35,1.85,13.83-6.01-1.18-7.14-6.45-8.65-11-.95-2.85-.79-6.21,2.65-8.05,1.87,1.35.98,4.9,4.15,5.22Z"/>
    <path class="cls-10" d="M240.37,199.06c1.61,1.15,3.54,1.03,5.36,1.37-1.62,2.97-5.74,3.85-6.38,7.63-2.8,1.42-4.06,4.71-7.09,5.84-1.71-1.19-1.71.14-1.85,1.26,0,0,.03-.03.03-.03-6.06.65-12.13,1.3-18.19,1.95-.28,0-.56,0-.84.01-.03-1.24-.06-2.48-.09-3.72.21-.25.43-.72.64-.71,10.75.1,18.44-6.22,26.22-12.38.64-.51,1.44-.82,2.17-1.22Z"/>
    <path class="cls-12" d="M212.25,217.09c6.06-.65,12.13-1.3,18.19-1.95-.87.94-1.75,1.88-2.62,2.82-.56.3-1.12.6-1.68.9-.55.19-1.1.37-1.66.56-2.78-.73-5.49-1.66-8.47-.61-1.47.52-3.31.61-3.76-1.71Z"/>
    <path class="cls-2" d="M232.26,213.91c3.04-1.13,4.3-4.42,7.09-5.84.4,1.92,3.99,2.53,2.28,5.26-1.48,2.36-3.93,1.89-6.2,1.77-1.14-.06-2.27-.19-3.4-.29.09-.3.16-.6.23-.9Z"/>
    <path class="cls-2" d="M226.14,218.85c.56-.3,1.12-.6,1.68-.9,3.31.57,8.35-1.4,7.58,5.17-3.86.27-6.58-1.96-9.25-4.27Z"/>
    <path class="cls-2" d="M246.39,214.3c1.22-.12,1.91.41,1.87,1.34-.08,2.08-1.84,2.59-3.4,3.12-.66.22-1.36-.2-1.32-1.04.09-1.93,1.41-2.85,2.84-3.43Z"/>
    <path class="cls-12" d="M232.26,213.91c-.06.3-.14.6-.23.9-.54.12-1.08.24-1.62.36.14-1.12.14-2.44,1.85-1.26Z"/>
    <path class="cls-1" d="M262.01,172.2c.75-4.44.77-9.49,7.44-9.08-.09,3.02-2.28,5.17-3.28,7.81-.61.71-1.22,1.43-1.82,2.14-.65.35-1.3.7-1.95,1.05,0,0,0,0,0,0-.13-.64-.26-1.29-.39-1.93Z"/>
    <path class="cls-1" d="M290.47,343.09c-.17.46-.27,1.29-.51,1.33-6.02.99-12.02,1.48-17.84-1.07,5.79-.63,11.6.27,17.35-.63.33.12.67.24,1.01.37Z"/>
    <path class="cls-1" d="M262.4,174.13c-.18.21-.36.42-.54.62-.24-.58-.09-.82.55-.62,0,0,0,0,0,0Z"/>
    <path class="cls-10" d="M224.34,354.2c-1.22-4.61-5.72-6.49-8.26-9.97-.88-1.2-3.63-1.82-1.65-4.19,2.89,1.72,3.49.14,4.11-2.44,1.21-5.01,1.7-10.48,6.76-13.61l.25.25c-1.45,4.04-2.84,8.1-4.39,12.1-.75,1.93-.94,3.89-.69,5.88.26,2.02,1.94,2.64,3.63,2.79,2.17.2,2.15-1.44,2.29-3.02.55-5.99,2.36-11.44,7.13-15.53-1.74,5.11-4.39,9.86-5.44,15.2-.34,1.73-1.68,3.78,1.18,4.37,2.11.43,4.37.47,5.17-2.46,1-3.65,2.39-7.15,5.03-10.1.54,3.13-1.38,5.7-1.84,8.57-.23,1.39-.88,3.25,1.1,3.83,1.56.46,2.3-.97,2.87-2.22,2.44-5.39,6.51-9.13,11.77-11.68,1.89,1.34,4.07,1.15,6.19,1.07,3.4-.12,6.1,1.03,7.92,3.98,1.35,3.17,2.33,6.4,1.76,9.91-2.79-.21-4.59,2.43-7.13,2.75-1.63-2.45.66-5.79-2.32-7.94-.15.82-.31,1.3-.31,1.78q-.11,6.95-6.73,7.62c-.66.07-1.34.12-1.95.34-3.6,1.31-5.46.23-5.38-3.75.02-.96.03-2.34-1.34-2.17-1.31.16-1.99,1.45-1.43,2.68,2.1,4.64-.73,4.94-4.15,5.08-1.97.08-3.92.58-5.88.9-1.64-.66-.65-2.79-2.36-3.86-1.01,1.73-2.19,3.46-4.33,3.96-.52-.04-1.05-.09-1.57-.13Z"/>
    <path class="cls-7" d="M232.6,354.23c1.96-.31,3.91-.82,5.88-.9,3.42-.14,6.25-.44,4.15-5.08-.56-1.23.12-2.52,1.43-2.68,1.37-.17,1.35,1.21,1.34,2.17-.08,3.98,1.78,5.06,5.38,3.75.61-.22,1.3-.28,1.95-.34q6.63-.67,6.73-7.62c0-.48.16-.95.31-1.78,2.98,2.15.69,5.48,2.32,7.94,2.54-.32,4.34-2.95,7.13-2.75-.04,1.07-.07,2.13-.11,3.2-2.77,1.29-5.89,2.19-6.68,5.78-2.38.15-4.77.29-7.15.44-3.26-.3-6.44-.19-9.74.41-4.47.81-9.19,1.14-12.95-2.53Z"/>
    <path class="cls-2" d="M232.6,354.23c3.75,3.66,8.47,3.34,12.95,2.53,3.3-.6,6.48-.71,9.74-.41-2.77,3.3-6.84,2.09-10.25,2.58-4.67.67-9.5.08-14.26.2-2.49.06-4.13-.75-4.71-3.26-.05-.51-.1-1.02-.15-1.54,2.14-.5,3.32-2.22,4.33-3.96,1.71,1.07.72,3.2,2.36,3.86Z"/>
    <path class="cls-2" d="M262.44,355.92c.79-3.59,3.9-4.49,6.68-5.78-.78,3.59-2.53,6.08-6.68,5.78Z"/>
    <path class="cls-14" d="M242.4,362.93c-1.68.31-3.35.35-5-.18,1.7-.97,3.37-1.08,5,.18Z"/>
    <path class="cls-14" d="M226.38,362.72c-1.31.14-2.63.28-3.94.43,1.18-1.41,2.52-1.27,3.94-.43Z"/>
    <path class="cls-14" d="M235.44,362.7c-.43-.11-.85-.22-1.28-.32.43.11.85.22,1.28.32Z"/>
    <path class="cls-3" d="M103.52,352.07c-3.74.45-3.63-3.1-5.15-4.96.02-1.99.05-3.98.07-5.97,0,0,.03-.02.03-.02.95.27,1.58-.09,1.95-.98,0,0,.05-.04.05-.04.59-.05,1.01-.26.96-.96,0,0,.04-.03.04-.03,4.64,0,9.29,0,13.93,0,0,0,0,0,0,0,.33.99,1.14,1.03,1.99.99,0,0,.02,0,.02,0,1.77,1.32,3.54,2.64,5.31,3.96-1.02-.1-2.04-.2-3.06-.31-3.95-3.24-8.46-4.42-13.4-3.19-6.69,1.66-7.67,5.37-2.96,10.6.04.3.11.59.21.88Z"/>
    <path class="cls-3" d="M120.39,358.13c-4.83-.22-9.87.55-13.97-3.03,0,0,.07-.07.07-.07,1.25.09,2.5.19,3.76.28,4.3,1.86,8.62,3.82,12.48-.83,3.19-1.79,2.99-4.05.92-6.57-.1-.86.01-1.63.81-2.15.64.45,1.27.9,1.91,1.35l.03.03c.03.62.27,1.02.97.97,0,0,.03.03.03.03-.05,3.1-.13,6.2-1.97,8.91,0,0-.05.03-.05.03-.85-.09-1.58.07-1.94.97,0,0-.06.03-.06.03-1,.02-1.99.03-2.99.05Z"/>
    <path class="cls-9" d="M115.4,339.13c-4.64,0-9.29,0-13.93,0,3.26-2.79,7.18-1.86,10.92-1.97,1,.66,2,1.32,3.01,1.98Z"/>
    <path class="cls-9" d="M125.42,357.05c1.84-2.71,1.93-5.8,1.97-8.91,2.7,4.9,2.29,6.76-1.97,8.91Z"/>
    <path class="cls-9" d="M122.73,344.1c-1.77-1.32-3.54-2.64-5.31-3.96,1.82-.44,3.28.83,4.97,1.01.72.95,1.44,1.9,2.16,2.85,0,0-.17.15-.17.15-.55-.02-1.1-.03-1.65-.05Z"/>
    <path class="cls-9" d="M98.44,341.14c-.02,1.99-.05,3.98-.07,5.97-3.99-2.04-1.4-4,.07-5.97Z"/>
    <path class="cls-3" d="M106.42,355.1c-1.33-.11-2.01-.81-1.99-2.16.59.13,1.17.25,1.76.38.1.57.2,1.15.29,1.72l-.07.07Z"/>
    <path class="cls-5" d="M106.2,353.31c-.59-.13-1.17-.25-1.76-.38-.31-.29-.61-.57-.92-.86-.11-.28-.18-.58-.21-.88.14-.13.28-.26.41-.39,1.28.2,2.17.99,2.93,1.99-.14.18-.29.35-.45.52Z"/>
    <path class="cls-9" d="M126.38,347.11c-.64-.45-1.27-.9-1.91-1.34-.03-.54-.06-1.08-.09-1.62,0,0,.17-.15.17-.15,1.2.69,2.13,1.54,1.83,3.11Z"/>
    <path class="cls-9" d="M120.39,358.13c1-.02,1.99-.03,2.99-.05-.97,1.44-1.97,1.23-2.99.05Z"/>
    <path class="cls-9" d="M100.42,340.15c-.37.89-1.01,1.24-1.95.98.34-.94,1.09-1.06,1.95-.98Z"/>
    <path class="cls-9" d="M123.43,358.05c.36-.9,1.09-1.06,1.94-.97-.35.92-1.12,1-1.94.97Z"/>
    <path class="cls-9" d="M101.43,339.15c.05.69-.37.91-.96.96.32-.32.64-.64.96-.96Z"/>
    <path class="cls-9" d="M127.37,348.11c-.7.05-.94-.35-.97-.97.63.02.92.37.97.97Z"/>
    <path class="cls-9" d="M117.4,340.13c-.85.04-1.65,0-1.99-.99.84-.02,1.64.03,1.99.99Z"/>
    <path class="cls-10" d="M241.24,330.96c.21-.42.42-.84.63-1.25.12.11.35.28.33.33-.2.41-.44.81-.68,1.21l-.29-.28Z"/>
    <path class="cls-10" d="M226.37,323.08c.15-.13.3-.26.46-.39-.13.15-.27.3-.4.45,0,0-.06-.06-.06-.06Z"/>
    <path class="cls-10" d="M225.3,323.98c.36-.3.72-.6,1.08-.91,0,0,.06.06.06.06-.3.37-.59.73-.89,1.1,0,0-.25-.25-.25-.25Z"/>
    <path class="cls-10" d="M241.52,331.24c-.22.14-.44.28-.66.42.12-.23.25-.46.37-.7,0,0,.28.28.28.28Z"/>
    <path class="cls-7" d="M210.37,221.08c.36-.24.73-.49,1.1-.71.01,0,.17.23.26.36-.43.15-.86.29-1.29.44,0,0-.08-.09-.08-.09Z"/>
    <path class="cls-1" d="M223.97,174.24c1.88-.08,3.6.62,3.07,2.67-.99,3.86.02,8.17-2.57,11.65-9.74-2.59-17.9.91-21.46,9.23-6.45-.44-13.67-7-14.68-13.12-.44-2.66.41-3.75,3.07-3.46,1.05,2.86,2.72,4.82,6.12,4.88,6.75.13,13.22-1.06,19.46-3.59,3.77-1.53,6.43-4.02,7-8.27Z"/>
    <path class="cls-13" d="M223.97,174.24c-.56,4.25-3.23,6.75-7,8.27-6.24,2.53-12.71,3.72-19.46,3.59-3.4-.06-5.07-2.02-6.12-4.88,4.64-1.83,9.69-1.21,14.43-2.31,6.08-1.41,12.1-3.1,18.14-4.68Z"/>
    <path class="cls-14" d="M203.01,197.8c3.56-8.31,11.72-11.82,21.46-9.23-4.9,8.31-12.45,10.48-21.46,9.23Z"/>
    <path class="cls-1" d="M229.64,153.46c-.21,3.45-.77,6.37-4.79,6.54-3.52.16-6.37-3.25-6.05-7.58.23-3.11,1.34-6.3,5.11-6.12,4.35.21,5.3,3.79,5.73,7.15Z"/>
    <path class="cls-1" d="M184.04,158.87c-.48,2.7-.85,5.66-4.62,5.89-3.28.21-5.99-2.83-5.85-6.64.12-3.24,1.13-5.99,5.07-6.04,2.85-.04,5.35,3.14,5.41,6.78Z"/>
    <path class="cls-10" d="M197.27,151.32c1.94,3.88-.84,6.69-1.15,9.78-.21,2.1-1.68,4.39.16,6.11,2.02,1.89,4.65,1.04,7.09.44,1.24-.31,2.74-2.45,3.76-.26.97,2.08-.7,3.31-2.54,4.12-7.34,3.23-12.71-.3-12.09-8.14.34-4.26,1.53-8.33,4.78-12.04Z"/>
    <path class="cls-1" d="M232.55,136.7c-.29,1.75-1.1,2.31-2.49,1.66-3.96-1.83-8.05-1.66-12.2-.88-.84.16-1.76.15-2.19-.7-.57-1.14.33-1.82,1.08-2.46,3.18-2.72,12.32-2.16,14.93.91.41.48.66,1.09.88,1.46Z"/>
    <path class="cls-1" d="M182.37,138.95c-.41,2.47-1.23,3.31-2.53,3.2-4.64-.38-8.32,1.57-11.68,4.48-.63.55-1.48,1.03-2.15.19-.34-.42-.43-1.23-.32-1.8.79-4.12,11.45-8.92,15.02-6.82.72.42,1.52.69,1.65.74Z"/>
    <path class="cls-10" d="M263.87,155.31c-3.41-7.53-.45-9.62,3.6-11.66,1.55-.78,3.58-1.06,4.27.85.79,2.18-1.6,1.35-2.56,1.85-2.07,1.08-3.11,2.91-3.65,5.04-.36,1.41-.22,2.97-1.66,3.92Z"/>
    <path class="cls-14" d="M223.62,367.47c-.37.72-.84,1.41-1.11,2.18-.63,1.85,1.34,4.45-1.64,5.63-3.2,1.27-6.63,1.53-9.76.49-3.32-1.11-1.93-3.51-.05-4.85,3.65-2.6,7.6-4.74,12.2-5.23.12.6.24,1.19.36,1.79Z"/>
    <path class="cls-14" d="M238.09,372.27c.86-1.22,1.4-2.55,1.35-4.07,5.23-.65,9.7,1.36,13.98,4.01-4.57,3.73-9.83,3.32-15.15,2.51-.06-.81-.12-1.63-.19-2.44Z"/>
    <path class="cls-8" d="M223.62,367.47c-.12-.6-.24-1.19-.36-1.79,3.2-1.36,6.55-.46,9.82-.63.83-.04,1.89.17,1.99,1.11.3,2.84-2.33,3.41-4.02,4.42-1.83,1.09-4.07,3.29-6.18,1.24-1.8-1.75.77-2.98,1.69-4.33-1.03-.69-1.99-.13-2.94-.02Z"/>
    <path class="cls-4" d="M253.43,372.21c-4.28-2.66-8.75-4.66-13.98-4.01-.37-.1-.75-.19-1.12-.29.02-1.34.64-2.46,2-2.36,4.3.32,8.61.85,12.52,2.85,1.7.87,2.61,2.21.58,3.82Z"/>
    <path class="cls-4" d="M238.09,372.27c.06.82.12,1.63.19,2.44-.58-.08-1.16-.17-1.74-.25-.01-1.11.62-1.76,1.55-2.19Z"/>
    <path class="cls-9" d="M158.44,314.03c-.01,1.05-.02,2.1-.03,3.15-1.34-1.06-1.35-2.11.03-3.15Z"/>
    <path class="cls-5" d="M103.31,351.2c-4.71-5.23-3.73-8.93,2.96-10.6,4.94-1.23,9.45-.05,13.4,3.19-.18.23-.36.46-.55.68-2.77-1.08-5.47-2.29-8.58-2.32-6.98-.06-8.61,1.92-6.82,8.65-.14.13-.28.26-.42.39Z"/>
    <path class="cls-5" d="M124.37,344.15c.03.54.06,1.08.09,1.62-.8.51-.92,1.29-.81,2.14-.23.18-.47.36-.69.53-1.28-1.32-2.56-2.64-3.84-3.96.18-.23.37-.45.55-.68,1.02.1,2.04.2,3.06.3.55.02,1.1.03,1.65.05Z"/>
    <path class="cls-5" d="M122.73,354.48c-3.87,4.65-8.18,2.69-12.48.83.12-.15.23-.3.35-.45,3.9.12,7.85.92,11.57-1.01.2.2.38.41.56.63Z"/>
    <path class="cls-5" d="M123.66,347.91c2.06,2.52,2.26,4.78-.92,6.57-.18-.22-.37-.43-.56-.63.71-1.74,1.49-3.47.79-5.41.23-.17.47-.35.7-.53Z"/>
    <path class="cls-5" d="M106.49,355.03c-.1-.57-.2-1.15-.29-1.72.16-.16.31-.34.45-.51,1.57.19,3.04.6,3.95,2.06-.12.15-.23.3-.35.45-1.25-.09-2.5-.19-3.76-.28Z"/>
    <path class="cls-3" d="M110.6,354.86c-.91-1.46-2.38-1.87-3.95-2.06-.75-.99-1.64-1.79-2.93-1.99-1.79-6.73-.16-8.71,6.82-8.65,3.11.03,5.8,1.24,8.58,2.32,1.28,1.32,2.56,2.64,3.84,3.96.7,1.95-.08,3.67-.79,5.41-3.72,1.93-7.67,1.13-11.57,1.01ZM117.65,346.87l-1-.99c-.67-.35-1.34-.69-2.01-1.04-1.36-.54-2.67-1.24-4.08-1.59-1.94-.49-3.62.2-4.68,1.92-1.11,1.81-.15,3.1,1.34,4.15.34.32.69.63,1.03.95.66.36,1.32.71,1.98,1.06.68.32,1.35.64,2.03.96,2.12,1.36,4.25,1.37,6.41.1,3.32-1.5,1.68-3.03.03-4.56-.35-.32-.7-.64-1.06-.96Z"/>
    <path class="cls-5" d="M107.22,349.31c-1.48-1.05-2.44-2.34-1.33-4.15,1.05-1.72,2.73-2.41,4.68-1.92,1.4.36,2.72,1.05,4.08,1.59,0,0-.27.34-.27.34-2.65.64-7.42-2.5-6.86,3.86l-.28.27Z"/>
    <path class="cls-5" d="M118.71,347.82c1.65,1.53,3.28,3.07-.03,4.56-.13-.14-.25-.28-.38-.42.02-1.27.03-2.54.05-3.81l.36-.34Z"/>
    <path class="cls-5" d="M118.67,352.38c-2.16,1.27-4.29,1.26-6.41-.1,0,0,.19-.23.19-.22,1.95-.03,3.89-.06,5.84-.09.13.14.26.28.38.42Z"/>
    <path class="cls-5" d="M114.64,344.84c.67.35,1.34.69,2.01,1.04l-.29.31c-.66-.33-1.33-.67-1.99-1l.27-.34Z"/>
    <path class="cls-5" d="M110.23,351.33c-.66-.36-1.32-.71-1.98-1.07,0,0,.22-.22.22-.22.66.34,1.32.67,1.99,1.01,0,0-.23.28-.23.28Z"/>
    <path class="cls-5" d="M112.26,352.28c-.68-.32-1.35-.64-2.03-.96,0,0,.22-.28.22-.27.66.34,1.33.67,1.99,1.01,0,0-.19.23-.19.23Z"/>
    <path class="cls-5" d="M108.25,350.26c-.34-.32-.69-.63-1.03-.95,0,0,.28-.27.28-.27.32.33.65.67.97,1l-.22.22Z"/>
    <path class="cls-5" d="M117.65,346.86c.35.32.7.64,1.05.96,0,0-.36.34-.36.34-.32-.34-.64-.68-.97-1.01l.27-.28Z"/>
    <path class="cls-5" d="M116.65,345.88c.33.33.67.66,1,.99,0,0-.27.28-.27.28-.34-.32-.68-.64-1.02-.96l.29-.31Z"/>
    <path class="cls-13" d="M116.36,346.18c.34.32.68.64,1.02.96.32.34.64.68.97,1.01-.02,1.27-.03,2.54-.05,3.81-1.95.03-3.9.06-5.84.09-.66-.34-1.33-.67-1.99-1.01-.66-.34-1.32-.67-1.99-1.01-.32-.33-.65-.67-.97-1-.56-6.36,4.21-3.22,6.86-3.86.66.33,1.33.67,1.99,1Z"/>
  </g>
</svg>