<?xml version="1.0" encoding="UTF-8"?>
<svg id="Layer_2" xmlns="http://www.w3.org/2000/svg" viewBox="0 0 407.23 407.75">
  <defs>
    <style>
      .cls-1 {
        fill: #85603f;
      }

      .cls-2 {
        fill: #bb6558;
      }

      .cls-3 {
        fill: #fefefd;
      }

      .cls-4 {
        fill: #d3e7ec;
      }

      .cls-5 {
        fill: #ac7f57;
      }

      .cls-6 {
        fill: #c0bfbf;
      }

      .cls-7 {
        fill: #7f9098;
      }

      .cls-8 {
        fill: #585d5f;
      }

      .cls-9 {
        fill: #a85047;
      }

      .cls-10 {
        fill: #959595;
      }

      .cls-11 {
        fill: #cdbba9;
      }

      .cls-12 {
        fill: #c79565;
      }

      .cls-13 {
        fill: #9fabb1;
      }

      .cls-14 {
        fill: #e7b88a;
      }

      .cls-15 {
        fill: #d2d6d8;
      }

      .cls-16 {
        fill: #c79e7b;
      }
    </style>
  </defs>
  <g id="Layer_1-2" data-name="Layer_1">
    <g>
      <path class="cls-6" d="M31.11,310.96c-14.47-22.16-23.3-46.52-27.93-72.44C.89,225.77-.41,212.88.12,199.88c1.07-26.6,6.31-52.25,16.87-76.81,10.65-24.77,25.59-46.53,44.86-65.3,18.63-18.15,39.83-32.58,63.93-42.53C148.82,5.72,172.69-.12,197.8,0c1.49,0,2.98.17,4.47.27-2.84,3.85-7.32,6.27-9.49,10.68-1.55,3.15-3.69,3.6-6.94,2.57-5.74-1.81-11.74-2.68-17.55-.51-14.6,5.46-20.38,14.45-20.3,31.01-1.38,1.41-.73,3.02-.56,4.65.51,4.73,2.62,8.86,4.96,12.8,4.18,7.03,9.98,11.77,18.74,11.52.66,7.04-1.28,13.96-.99,20.98-2.14,1.48-1.56,4.03-2.36,6.04-2.72,1.4-2.92,4.56-2.39,6.37,1.87,6.35-.12,12.15-1.63,18.01-1.5,5.83-.46,11.21,3.66,15.1,3.7,3.49,6.68,7.24,8.23,11.88,3.34,10,9.08,17.87,17.9,23.81,2.99,2.01,5.69,3.81,9.32,3.83-.49,10.89,8,14.79,15.45,19.8-3.22,1.87-5.86,4.3-7.91,7.34-.39-1.63-1.2-2.22-2.86-1.38-2.78,1.4-4.06,3.68-4.47,6.7-1.1,8.08-1.03,16.2-1.06,24.32-.07,26.41-.18,52.81-.27,79.22-1.51-.36-3.01-.73-4.52-1.09-.02-4.82.56-9.64.64-14.41.47-29.27.59-58.54.66-87.82.02-6.03,2.62-10.08,8.57-11.73,1.24-.34,2.61-.35,3.61-1.83-3.52-3.82-7.96-7.1-8.73-12.86-.2-1.5-1.44-.97-2.35-.56-7.01,3.15-13.93,6.44-18.17,13.36-4.69,7.65-9.3,15.35-14.04,22.97-4.37,7.03-4.41,7,.15,13.17.21.29.03.87.03,2.41-7.04-7.52-16.15-9.25-24.47-12.66-.04-1.16-.27-2.21-.83-3.3-5.05-9.79-13.6-13.98-24.05-14.63-14.19-.88-20.82,8.09-15.05,19.98-.42,3.4-3.85,5.41-4.08,8.9-1.5,2.82-1.45,5.09,1.48,7.23,3.7,2.69,7.06,5.85,10.57,8.8-1.44,1.31-2.92,2.53-3.93,4.28-.8,1.38-1.56,2.53-.2,3.93,2.65,2.74,10.17,2.01,13.09-1.28,6.12,3.6,10.22,1.81,12.57-4.69.04-.12.28-.17.42-.25.36.48.72.97,1.08,1.45-4.63,10.84-4.57,11.31,1.84,16.76,4.02,2.88,9.13,2.1,11.84-1.84.88-1.28,1.03-3.23,3.15-3.34.98.14,1.97.2,2.92.45,9.94,2.55,19.18,2.21,27.27-5.35,1.84-1.72,3.02-4.39,5.81-5.06-.01,1.66.12,3.33-.05,4.97-1.85,17.94-1.81,35.97-2.87,53.95-1.22.17-2.56.08-3.1,1.59-1.53-.72-3.06-1.45-4.59-2.17.5-2.79-1.28-3.1-3.25-2.7-1.91.39-3.95.84-5.59,1.82-6.46,3.9-13.51,4.18-20.59,3.22-2.41-.33-4.51-.24-6.72.39-2.38-2.58-5.01-.06-7.52-.35-7.89-.92-15.84-1.18-23.72-1.94-8.64-.83-17.27-.22-25.85-.96-17.33-1.5-34.65-2.91-52.06-2.86Z"/>
      <path class="cls-6" d="M251.13,5.91c9.24,1.4,17.93,4.62,26.62,7.92,29.48,11.19,54.59,28.83,75.6,52.1,23.53,26.07,39.74,56.08,47.97,90.51,4.92,20.58,6.78,41.28,5.53,62.21-1.33,22.15-7.12,43.41-15.59,63.94-6.18,14.98-14.3,28.84-23.67,42.01-.94,1.32-2.34,2.31-3.52,3.46-.78-1.13-1.96-1.09-3.12-1.07-19.35.36-38.6-2.2-57.95-2.11-1.11-11.86-1.97-23.74-3.45-35.55-.56-4.48.43-9.38-2.55-13.43.01-.63.03-1.26.04-1.89,5.9,1.45,11.73,1.11,17.72.12,15.97-2.65,22.4-12.11,18.48-28-.92-3.75-1.06-7.95-5.05-10.22-2.99-10.12-9.33-18.31-15.52-26.53-9.48-12.58-20.97-22.63-36.23-27.77-2.4-.81-4.07-.92-5.21,1.79-3.51,8.36-10.34,13.31-18.23,16.85-3.1,1.4-3.63,2.83-2.06,5.62,3.71,6.61,4.85,13.73,3.94,21.21-2.5.78-5.03,1.23-7.66.9-8.45-3.27-13.11-9.83-15.61-18.95-3.76,7.2-6.12,14.56-13.79,17.75-1.67.69-3.56,2.35-4.97,1.44-1.9-1.22.14-3.28.28-5,7.13-4.01,12.8-9.09,13.12-18.06l.02-.02c.64-.24,1.28-.48,1.92-.71,1.5,1.28,4.46-.48,5.16,2.47.9,8.8,6.38,14.94,14.8,17.19,2.7.72,3.56-.41,3.47-2.46-.3-6.9-1.57-13.47-6.94-18.57-1.4-1.33-3.7-1.73-4.24-3.96.52-.09,1.05-.18,1.57-.27,3.27-.01,5.96-1.87,8.84-2.99,7.09-2.74,13.13-6.99,17.12-13.7.94-1.59,2.03-3.33.35-4.97-2.97-2.88-4.85-6.73-8.31-9.16,1.87-7.13,8.91-11.51,10.08-19.01,4.79-3.3,8.78-7.26,10.65-12.96,8.74-1.84,13.19-15.2,7.17-22.34-1.97-2.34-3.13-6.24-7.42-5.81-.83-1.62-1.67-3.24-2.5-4.86,2.3-5.42.82-11.11.96-16.65.09-3.64.83-5.68,4.71-6.82,16.37-4.81,22.55-22.71,17.9-36.91-1.37-4.19-2.27-9.55-7.49-11.64-2.51-6.48-8.14-8.9-14.11-10.91-6.77-2.27-13.3-.42-19.84,1.13.07-2.25-1.06-4.01-2.1-5.92-1.88-3.46-5.68-5.48-6.86-9.41Z"/>
      <path class="cls-13" d="M302.99,324.87c19.35-.1,38.59,2.46,57.95,2.11,1.16-.02,2.35-.06,3.12,1.07-2.55,6.58-8.19,10.8-12.65,15.77-14.43,16.09-31.87,28.61-50.63,39.11-18.88,10.56-39.15,17.92-60.48,21.69-24,4.24-47.94,4.17-72.13-.21-18.85-3.41-36.62-9.4-53.75-17.44-22.32-10.47-41.84-25.17-58.6-43.12-9.34-10-18.48-20.43-24.71-32.9,17.41-.05,34.73,1.37,52.06,2.86,8.58.74,17.21.13,25.85.96,7.88.76,15.84,1.02,23.72,1.94,2.51.29,5.14-2.23,7.52.35-.02.99-.04,1.98-.05,2.97-1.82.15-2.92.99-2.84,2.96-3.08.69-6.2,1.21-9.22,2.09-9.09,2.63-18.26,5.15-26.01,10.95-5.65,4.23-6.08,9.4-1.12,14.32,1.87,1.85,4.07,3.37,6.12,5.04.05,1.42-.62,2.47-1.51,3.55-3.96,4.8-2.33,10.34,3.37,13.13,17.94,8.79,37.36,11.51,56.83,12.55,17.02.91,34.17.91,51.28-.51,13.81-1.15,27.16-3.92,40.24-8.19,4.24-1.38,8.43-3.16,11.67-6.45,4.1-4.16,4.03-8.05-.07-12.12-1.12-1.11-3.07-1.61-2.94-3.72.83-.79,1.61-1.66,2.51-2.36,5.68-4.44,5.96-9.68.73-14.59-2.7-2.53-6-4.07-9.34-5.54-10.52-4.64-21.6-7.18-32.96-8.62-.55-.18-1.1-.37-1.66-.56-.06-.34-.13-.67-.19-1.01,2.16-.02,4.32-.06,6.48-.07,10.14-.03,20.22,1.94,30.39.91,3.61.39,7.17,1.07,10.84,1.22,10.07.41,20.12,1.2,30.18,1.83Z"/>
      <path class="cls-3" d="M294.31,50.22c-6.08,18.64-25.05,20.71-39.1,12.23-3.1-1.87-4.73-4.41-2.79-8.28.84-1.67.91-3.73,1.74-7.41-22.02,22.99-43.31,22.84-64.71,1.56.84,8.01.51,8.62-6.66,11.81-8.05,3.58-15.49,1.79-22.69-2.55-5.46-3.29-8.64-8.54-12.12-13.56-.08-16.56,5.7-25.55,20.3-31.01,5.81-2.17,11.81-1.31,17.55.51,3.25,1.02,5.39.57,6.94-2.58,2.18-4.41,6.65-6.82,9.5-10.67.12-.04.24-.07.36-.11.32,0,.65,0,.97,0,4.53,0,9.02.15,13.48.44,9.73.63,19.27,1.94,28.58,3.89,3.39,5.14,7.03,10.13,8.84,16.2,1.31,4.36,2.33,4.36,5.59.56,6.55-1.54,13.08-3.4,19.85-1.13,5.97,2,11.61,4.43,14.11,10.91,1.22,6.39,2.29,12.99.26,19.2Z"/>
      <path class="cls-15" d="M260.09,21.24c-3.26,3.8-4.28,3.8-5.59-.56-1.81-6.07-5.45-11.06-8.84-16.2,1.64.34,3.27.7,4.89,1.09.19.12.38.23.58.34,1.18,3.93,4.98,5.95,6.86,9.41,1.04,1.91,2.17,3.67,2.1,5.92Z"/>
      <path class="cls-3" d="M276.06,280.44c-1.98-1.3-4.11-2.38-6.14-3.58-.58-.34-1.16-.7-1.72-1.07-.56-.37-1.11-.76-1.64-1.18-1.33-1.03-2.54-2.23-3.55-3.7h0c-2,.98-3.9,2.18-5.81,3.37-3.17,1.97-6.36,3.9-10.11,4.73-.84,2.17-2.78,2.05-4.55,2.04-1.85-.01-3.62-.02-5.08,1.33h0s0,.01,0,.01c-.38.88-.87,1.63-1.44,2.26-1.27,1.41-2.97,2.29-4.89,2.89-4.39,3.07-7.24.1-9.95-2.7-2.55-2.64-3.76-7.05-9.02-5.59-1.22.34-2.78-1.02-3.04-2.74-.24-1.64-.47-4.22,1.03-4.46,4.53-.73,5.33-5.58,8.88-7.16,2.45-1.64,5.08-2.49,8.05-1.91.33-1.34.66-2.68,1-4.02-.65-4.11,3.91-4.47,5.18-7.21-.27-9.99,2.07-18.48,12.7-22.29.53-.18.84-.97,1.26-1.48-8.45-3.27-13.11-9.82-15.61-18.95-3.76,7.2-6.12,14.56-13.79,17.75-1.67.69-3.56,2.35-4.97,1.44-1.9-1.23.14-3.29.28-5-7.24,1.95-7.14,1.96-6.3-5.77.44-4.04,1.96-7.66,3.58-11.28-.39-1.64-1.2-2.22-2.86-1.38-2.78,1.4-4.06,3.68-4.47,6.7-1.1,8.08-1.03,16.2-1.06,24.32-.06,26.41-.18,52.81-.27,79.22,3.28,2.84,7.37,2.98,11.37,3.39,4.52-1.6,8.67-1.44,11.99,2.56,2.17-.03,4.33-.07,6.49-.07,10.14-.03,20.22,1.94,30.39.91,5.14-7.02,10.1-14.09,13.04-22.47,1.77-5.03,2.89-10.07,3.6-15.31.32-2.36-1.22-2.73-2.56-3.6ZM212.73,238.9c2.76,0,3.81,1.92,3.89,4.13.08,2.27-1.7,3.35-3.92,3.79-2.34-.44-3.64-1.84-3.63-4.36.01-2.43,1.24-3.58,3.66-3.56ZM212.97,309.04c-2.08.02-3.12-.84-2.94-2.97.17-1.94,1.19-3,3.1-3.09,2.1.17,2.96,1.35,3.02,3.28.06,2.24-1.26,2.76-3.18,2.78ZM246.89,308.62c-.27,2.53-1.91,3.73-4.56,3.36-2.6-.35-4.41-1.66-4.03-4.5.33-2.47,2.16-3.68,4.62-3.48,2.74.22,4.26,1.89,3.97,4.62ZM247.07,279.01h.02s.01-.02.01-.03l-.03.03Z"/>
      <path class="cls-3" d="M201.96,185.29c-.2-1.49-1.44-.97-2.35-.56-7.01,3.16-13.93,6.44-18.17,13.36-4.68,7.65-9.3,15.35-14.03,22.98-4.37,7.03-4.41,6.99.14,13.17.22.29.03.87.03,2.4-7.04-7.51-16.15-9.25-24.47-12.66,0,1,0,1.99-.01,2.99,2.71,3.79,2.43,7.91,1.28,12.11-.22.84-.44,1.68-.66,2.52.47,1.63.95,3.26,1.42,4.89.56.11,1.09.26,1.6.45,2.22.8,4.03,2.28,5.74,3.94,2.06,1.02,2.46,3.01,2.95,4.96,1.47.18,2.97.25,4.42.56,8.38,1.81,14.89-1.28,18.99-8.9,3.69-6.82,6.58-13.96,8.71-21.46,1.31,10.07-1.1,19.99-.52,29.97-.01,1.65.11,3.33-.06,4.97-1.84,17.93-1.81,35.97-2.87,53.95,4.37-.37,8.63-2.2,13.12-.99-.02-4.82.56-9.64.64-14.41.47-29.27.58-58.55.66-87.82.01-6.03,2.62-10.08,8.56-11.72,1.25-.35,2.61-.36,3.62-1.84-3.53-3.82-7.97-7.1-8.74-12.86ZM169.78,239.23c-.11.02-.28.1-.34.06-.09-.09-.11-.25-.16-.38.19-.04.38-.07.57-.11-.02.14-.05.28-.07.43Z"/>
      <path class="cls-15" d="M147.98,44.02c3.48,5.02,6.66,10.27,12.12,13.56,7.2,4.34,14.64,6.12,22.69,2.55,7.17-3.19,7.5-3.8,6.66-11.8,21.4,21.27,42.69,21.42,64.71-1.56-.82,3.68-.89,5.74-1.73,7.41-1.94,3.87-.31,6.41,2.79,8.28,14.05,8.48,33.02,6.41,39.1-12.23,2.03-6.21.96-12.81-.26-19.2,5.21,2.1,6.12,7.45,7.49,11.64,4.65,14.2-1.53,32.1-17.9,36.91-3.88,1.14-4.62,3.18-4.71,6.82-.14,5.55,1.34,11.23-.96,16.65-9.01-4.35-18.61-7.09-28-10.4.36-4.96.91-9.91,1.04-14.88.17-6.72-7.36-12.31-13.7-9.88-14.22,5.46-27.42,2.75-40.06-4.5-2.38-1.36-4.22-1.62-6.41-.27-4.02,2.49-8.47,4.2-13.06,4.63-3.78.35-5.64,1.97-6.65,5.25-8.76.25-14.56-4.49-18.74-11.52-2.34-3.94-4.46-8.07-4.96-12.8-.18-1.63-.82-3.24.56-4.65Z"/>
      <path class="cls-3" d="M171.12,73c1.01-3.28,2.87-4.9,6.65-5.25,4.59-.43,9.03-2.14,13.06-4.63,2.19-1.35,4.03-1.1,6.41.27,12.65,7.24,25.85,9.95,40.06,4.5,6.34-2.43,13.88,3.15,13.7,9.88-.13,4.96-.67,9.92-1.03,14.88-17.76-4.47-35.78-5.77-54.02-4.54-3.03-.18-5.9.39-8.63,1.74-5.91.64-11.44,2.88-17.21,4.14-.29-7.02,1.65-13.94.99-20.98Z"/>
      <path class="cls-14" d="M225.04,332c-4.27-.95-8.52-2.07-12.94-2.07-2.92-.08-7.19,1.08-8.29-1.31-1.21-2.63,2.98-4.43,4.67-6.71,1.25-1.69,3.32-2.05,4.63-3.49-4-.41-8.09-.55-11.37-3.39-1.5-.37-3.01-.73-4.52-1.09-4.49-1.21-8.75.62-13.12.99-1.22.16-2.56.08-3.1,1.58,1.16,2.54,5.35,4.73,3.08,7.49-2.16,2.64-4.87-1.22-7.44-1.86-1.43-.35-2.8-.99-4.18-1.52-1.61-.62-3.7-.65-3.33-3.39.37-2.7,2.35-2.91,4.33-3.12.96-.1,1.97.14,2.95.23.5-2.79-1.28-3.09-3.25-2.7-1.91.39-3.94.84-5.58,1.83-6.46,3.89-13.51,4.18-20.59,3.22-2.42-.33-4.51-.24-6.73.38-.02.99-.03,1.98-.05,2.97l.05.04c1.46-.53,2.85-3.28,4.42-.14,6.31.01,11.46,4.05,17.48,5.05,3.11-3.69,6.68-3.32,11.21-1.27-3.77,2.29-7.28.83-10.53,1.38,3.58,3.64,3.42,4.39-1.81,6.26-5.45,1.95-11.01,1.94-16.71.96-2.94-.51-4.03-1.86-3.94-4.6-.4.04-.8.08-1.2.12-3.4,1.16-6.42,3.04-9.34,5.09.54,2.37-2.07,2.6-2.8,4.11-1.97,7.98.65,10.93,9.08,11.9,9.43,1.09,18.77,2.9,28.12,4.57,3.29.58,6.5.4,10.11.25-2.15-1.69-5.08.45-6.65-2.26,3.57-1.52,7.78-.82,11.77-3.68-5.14-1.59-9.32-5.03-13.48.1-3.25,2.83-6.49,2.3-9.63-.14-1.04-.8-2.01-1.85-.44-3.13,2.48-3,5.5.52,8.14-.67l.04-.04c-1.22-2.95,1.27-2.1,2.3-1.95,6.72.96,13.67.91,19.92,4.16.9-.1,1.81-.2,2.72-.31,5.81-3.56,12.17-5.64,18.79-7.06,3.32-1.88,4.85-.36,5.36,2.9.4,2.52-.24,4.87-1.4,7.1,2.08,2.05,2.85-.3,2.9-1.31.38-7.55,6.2-8.23,11.6-9.53.93-.23,1.82-.68,2.72-1.03-1.32-1.64-2.65-3.28-3.97-4.91ZM168.97,328.62c4.45-1.08,8.87-1.49,13.16,1.3.13.15.25.3.38.46-.16-.13-.32-.25-.48-.37h-13.1c.01-.46.03-.93.04-1.39ZM183.2,340.25c-.75,1.08-1.54,1.51-2.9.81-2.19-1.14-4.39-2.35-6.74-3.05-5.19-1.53-10.41-2.51-15.04,1.71-.46.41-1.57.11-2.38.15-1.77,1.53-6.66.38-4.54,5.28.03.06-.21.24-.32.36-2.75-2.6-6.57,1.45-9.27-1.48-3.76,1.29-7.47,1.77-10.8-1.05-1.11-.94-2.38-1.97-1.04-3.72,3.52-4.62,13.95-3.66,16.62,1.55,2.71-2.63,5.97-2.46,9.32-1.8,6.56-7.78,19.13-8.57,26.47-1.72,1,.94,1.48,1.73.62,2.96ZM190.53,319c.99-.07,1.98-.01,2.66-.01,3.4-.3,6.18.71,8.89,2,.87.41,2.03,1,1.6,2.14-.47,1.27-1.65.7-2.52.33-3.44-1.44-7.03-1.7-10.7-1.61-1.01.02-2.73.64-2.84-.99-.12-1.74,1.61-1.77,2.91-1.86ZM186.22,330.83c-1.5-.22-2.94-1.18-1.25-3.06,2.41-3.64,6.06-4.36,9.91-3.6,1.31.26,4.4.99,2.2,3.3-.18.19-.4.4-.67.62-.22.3-.44.58-.67.84-.35.37-.71.7-1.09.96-.5.36-1.04.63-1.59.83-.27.1-.55.18-.84.24-1.89.43-3.96.17-6-.13ZM203.82,336.87c-6.04-.78-11.31,1.68-16.88,3.74,4.47-4.92,10.66-6.06,16.71-7.42,1.18-.27,2.21.77,2.24,2.15.03,1.33-1.06,1.66-2.07,1.53ZM213.95,337.13c-.3-.2-.54-1.14-.41-1.24,2.19-1.72,4.52-.85,8.04-.34-3.05,2.39-5.18,3.24-7.63,1.58Z"/>
      <path class="cls-2" d="M213.12,223.22c-7.24,1.95-7.14,1.96-6.3-5.77.44-4.04,1.96-7.66,3.58-11.28,2.05-3.04,4.69-5.48,7.91-7.34-7.44-5.01-15.94-8.92-15.45-19.8.4-.42.8-.84,1.21-1.26,1.02.68,2.04,1.35,3.06,2.03-2.05,3.64,3.85,5,1.91,8.59,3.99-.8,5.76-5.28,9.95-4.39.37,0,.74-.02,1.12-.02.37,4.28,2.14,6.44,6.82,4.87,2.66-.89,5.45-1.54,8.16.02-1,5.77-5.41,10.03-6.91,15.58-.64.24-1.28.48-1.92.71-.79-2.5-2.06-5.43-5.02-3.47-3.9,2.59-5.88,6.87-6.8,11.5,2.52-1.77,5.49-3.02,6.48-6,1.03-3.09,2.9-3.06,5.32-2.01-.32,8.96-5.99,14.04-13.12,18.06Z"/>
      <path class="cls-15" d="M155.43,255.84c1.48.18,2.98.25,4.42.56,8.38,1.81,14.89-1.29,19-8.9,3.68-6.83,6.58-13.96,8.71-21.47,1.31,10.07-1.1,19.99-.53,29.97-2.79.67-3.97,3.34-5.81,5.06-8.1,7.55-17.33,7.89-27.27,5.35-.95-.24-1.95-.3-2.92-.45.28-3.89,5.3-5.72,4.41-10.12Z"/>
      <path class="cls-11" d="M204.07,177.76c-.4.42-.8.84-1.21,1.26-3.64-.02-6.33-1.82-9.32-3.83-8.82-5.94-14.56-13.81-17.9-23.81-1.55-4.64-4.53-8.39-8.23-11.88-4.13-3.89-5.16-9.27-3.66-15.1,1.51-5.85,3.49-11.66,1.63-18.01-.53-1.81-.33-4.98,2.39-6.37-.31,6.74.07,13.42,1.94,19.94-4.82,3.44-3.26,8.83-2.16,12.6,1.19,4.06,3.73,8.91,9.48,9.38.1,3.5,3.2,5.61,4.03,8.84,2.58,10,8.3,17.51,17.7,22.19,2.07,1.03,4.79,1.83,5.31,4.78Z"/>
      <path class="cls-11" d="M143.11,223.98c0,1,0,1.99-.01,2.99-.36.03-.71.06-1.07.08-.46-.18-1.22-.26-1.32-.55-1.93-5.87-7.29-8.26-11.86-11.15-4.35-2.75-9.28-5-14.76-2.58-.34.41-.69.81-1.03,1.22l.02-.03c-1.26.16-2.7-.03-3.75.53-4.07,2.16-4.63,6.48-1.26,8.49.1,2.45,1.66,3.09,3.77,3.06.42.45.83.9,1.24,1.36-.39.58-.78,1.17-1.17,1.75-3.62.94-5.27-3.64-8.74-3.11-5.77-11.89.86-20.86,15.05-19.98,10.45.65,19,4.83,24.05,14.63.56,1.09.79,2.14.83,3.3Z"/>
      <path class="cls-15" d="M103.18,226.03c3.47-.53,5.12,4.05,8.74,3.11,2.6,3.68,10.96,6.76,14.76,4.54,5.39-3.15,8.66-1.43,11.44,3.28,1.04,2.55,2.22,4.93,5.6,4.64.48,1.63.95,3.26,1.43,4.89-4.87.94-7.87,4.49-10.96,7.9-.36-.48-.72-.97-1.09-1.45,0-.67-.01-1.34-.02-2.01,6.24-4.96,6.12-6.32-1.06-9.97-1.01-.51-2.16-.81-3.28-1.02-8.87-1.69-17.75-3.33-26.63-4.98-1-.01-2.01-.02-3.01-.03.23-3.49,3.66-5.5,4.08-8.9Z"/>
      <path class="cls-4" d="M99.1,234.93c1,.01,2.01.02,3.01.03.3.75.39,1.9.92,2.17,9.81,5.04,19.21,11.01,30.05,13.8,0,.67.01,1.34.02,2.01-.14.08-.38.13-.42.25-2.35,6.51-6.45,8.29-12.57,4.69-2.32-3.18-5.25-5.55-8.96-6.93-3.51-2.96-6.87-6.11-10.57-8.8-2.94-2.14-2.99-4.41-1.48-7.23Z"/>
      <path class="cls-1" d="M169.71,119.96c-1.88-6.53-2.26-13.2-1.95-19.94.8-2.01.22-4.55,2.36-6.04,5.76-1.27,11.29-3.5,17.21-4.14-1.37,7.62-6.07,13.08-11.84,17.71-1.58,1.27-2.52,2.38-2.41,4.44.24,4.62.35,9.25.51,13.87-2.54-1.14-2.26-4.15-3.88-5.9Z"/>
      <path class="cls-13" d="M155.43,255.84c.89,4.4-4.13,6.23-4.41,10.12-2.12.11-2.27,2.06-3.15,3.34-2.71,3.94-7.82,4.72-11.84,1.84.33-.55.87-1.07.95-1.66,1.38-9.38,6.46-15.63,15.5-18.61,2.06,1.01,2.46,3.01,2.94,4.96Z"/>
      <path class="cls-7" d="M152.48,250.88c-9.04,2.98-14.12,9.23-15.5,18.61-.09.59-.63,1.11-.95,1.66-6.41-5.45-6.46-5.92-1.84-16.76,3.09-3.41,6.09-6.95,10.96-7.9,2.98.57,5.24,2.35,7.34,4.39Z"/>
      <path class="cls-1" d="M181,316.51c1.16,2.53,5.34,4.73,3.08,7.48-2.17,2.64-4.87-1.21-7.44-1.85-1.43-.36-2.8-.99-4.19-1.53-1.61-.62-3.69-.64-3.32-3.38.37-2.7,2.35-2.91,4.32-3.12.97-.1,1.97.14,2.96.23,1.53.72,3.06,1.45,4.59,2.17Z"/>
      <path class="cls-11" d="M111.15,250.96c3.71,1.37,6.64,3.75,8.96,6.93-2.93,3.29-10.44,4.03-13.09,1.28-1.35-1.4-.59-2.55.2-3.93,1.01-1.76,2.49-2.98,3.93-4.28Z"/>
      <path class="cls-3" d="M254.87,227.09c.91-7.49-.23-14.6-3.94-21.21-1.57-2.79-1.04-4.23,2.06-5.62,7.89-3.55,14.72-8.5,18.23-16.85,1.14-2.71,2.82-2.6,5.21-1.79,15.26,5.13,26.75,15.19,36.23,27.77,6.19,8.22,12.53,16.41,15.52,26.53-.21,4.77,2.72,9.09,1.41,14.13-3.37,13.05-16.35,16.52-26.67,15.67-7.55-.62-14.92-2.85-22.56-2.97,1.96-8.42,3.37-16.81-1.62-24.78,11.92-.22,23.71,1.88,35.63,2.25-6.94-4.1-14.9-3.45-22.31-5.23-2.23-4.9-6.07-8.51-9.79-12.21-.66-.66-1.35-1.82-2.44-1.22-1.29.72-.6,2.01-.39,3.11.62,3.39,1.92,6.67,1.51,10.21-1.05.1-2.21-.15-2.95.93-.68.07-1.36.15-2.04.22-3.9-3.21-7.92-6.06-13.17-6.77-2.69-.36-5.28-1.42-7.91-2.17Z"/>
      <path class="cls-15" d="M261.98,321.82c5.15-7.02,10.1-14.09,13.04-22.47,1.77-5.03,2.89-10.07,3.6-15.31.32-2.37-1.22-2.73-2.56-3.6-4.52-2.94-9.82-4.82-13.04-9.53,2.22-1.48,4.38-4.35,7.3-2.1,7.96,6.13,17.51,5.79,26.68,7.08,2.98,4.06,1.99,8.95,2.55,13.43,1.49,11.81,2.35,23.7,3.45,35.55-10.06-.64-20.11-1.42-30.18-1.83-3.67-.15-7.23-.83-10.84-1.22Z"/>
      <path class="cls-1" d="M195.96,88.1c18.24-1.23,36.26.07,54.02,4.54,9.39,3.31,18.99,6.05,27.99,10.4.83,1.62,1.67,3.24,2.5,4.86-.31.57-.53,1.55-.95,1.64-5.87,1.29-7.58,5.83-8.87,10.86-.28,1.1-.11,2.79-2.05,3.19-1.75-2.54-3.52-5.11-5.28-7.68-.29-.59-.7-1.16-.84-1.79-2.39-10.5-9.69-13.13-19.49-13.17-7.77-.03-15.11-3.25-22.59-5.28-.3-.33-.64-.61-.97-.09-.05.08.29.4.45.61.29.77.57,1.55.87,2.32.46,1.21,1.84,2.47,1.01,3.66-1.14,1.63-2.73.06-4.09-.15-5.32-.81-10.31-2.98-14.89-5.47-2.99-1.62-6.49-4.08-6.8-8.45Z"/>
      <path class="cls-16" d="M287.9,113.7c-1.97-2.33-3.13-6.24-7.42-5.81-.32.57-.53,1.56-.95,1.65-5.87,1.29-7.58,5.83-8.87,10.86-.28,1.1-.12,2.79-2.06,3.19-1.74-2.54-3.51-5.11-5.28-7.69-2.28,2.03-1.38,4.69-1.01,6.96,2.52,15.48-.88,29.36-10.35,41.92-4.23,5.6-10.53,8.2-15.89,12.16,1.21,2.45,3.43,2.66,4.8.89,2.96-3.84,7.78-3.47,11.36-5.74,1.49-1.03,2.82-2.36,4.78-2.48.3-1.84,1.71-1.59,2.99-1.59,1.87-7.13,8.91-11.51,10.07-19.01.37-1.74.7-3.5,1.12-5.23q1.84-7.53,9.54-7.73c8.74-1.85,13.19-15.2,7.17-22.35ZM277.25,125.61c-.33,1.2-.39,3.2-2.06,2.82-1.96-.45-.59-2.1-.33-3.24.37-1.6.64-3.25,1.24-4.77,1.3-3.26,3.34-4.41,7.5-1-4.4.58-5.53,3.24-6.35,6.19Z"/>
      <path class="cls-14" d="M275.96,236.02c-3.9-3.21-7.92-6.06-13.18-6.77-2.68-.36-5.28-1.42-7.91-2.16-2.5.78-5.03,1.23-7.66.89-.42.51-.73,1.3-1.26,1.48-10.63,3.81-12.97,12.3-12.7,22.29.28.06.56.13.84.22,1.12.4,2.24.8,3.36,1.2,3.33,1.98,6.63,4.19,10.66,1.62-.37-.59-.74-1.18-1.11-1.78-.27-5,.56-9.67,4.73-14.9-.58,5.96-3.04,10.19-2.69,14.83,2.01.08,4.06.35,5.81-1.03.28-4.77,2.93-8.46,5.97-13.57-.17,5.78-3.74,9.19-3.55,13.56,2.69.55,4.06-.92,5.6-2.95,4.33-5.73,6.1-6.08,12.45-3.47,2.17-3.02.78-6.28.64-9.46ZM239.7,252.06c-1.35-7.8-.94-9.71,2.82-14.66.8,1.66-.19,7.09-2.82,14.66Z"/>
      <path class="cls-15" d="M280.35,262.73c7.64.12,15.01,2.35,22.56,2.97,10.33.85,23.3-2.62,26.67-15.67,1.3-5.04-1.62-9.36-1.41-14.13,3.99,2.26,4.13,6.47,5.05,10.22,3.92,15.88-2.5,25.35-18.48,28-5.98.99-11.82,1.33-17.72-.12-4.28-.98-8.57-1.94-12.84-2.94q-6.51-1.53-4.94-8.01l1.11-.32Z"/>
      <path class="cls-9" d="M252.23,172.09c1.49-1.03,2.82-2.37,4.78-2.48-.11.65-.13,1.33-.36,1.93-.49,1.28-2.5,2.46-.96,3.86,1.6,1.45,2.55-.33,3.48-1.47.64-.78,1.38-.82,2.09-.09.97,1,1.02,2.23.1,3.11-2.39,2.29-3.35,5.68-6.21,7.64-1.68,1.15-2.97,2.52-.82,4.81,1.45,1.55.37,3.84-1.63,3.09-6.53-2.44-8.46,2.02-10.69,6.34-.52.09-1.05.18-1.57.27-2.16.11-4.03.25-1.76,3.06,2.08,2.58,4.01,5.29,5.83,8.05.84,1.28,1.15,3.1-.08,4.16-1.56,1.36-2.56-.47-3.74-1.27-2.68-1.8-3.54-5.74-7.33-6.21-.7-2.95-3.66-1.2-5.16-2.47,1.5-5.55,5.91-9.81,6.91-15.58.65-.03,1.3-.06,1.96-.09.58,1.67-1.23,4.25,1.64,4.98,1.91.48,6.24-3.88,6.37-5.98.13-2.25-1.08-2.89-3.03-2.8.03-.65.06-1.31.09-1.96l-.03.02c.35-.03.71-.07,1.06-.1,3.97-2.82,6.79-6.61,9.09-10.83Z"/>
      <path class="cls-2" d="M242,198.83c2.23-4.32,4.16-8.78,10.69-6.34,2.01.75,3.08-1.54,1.63-3.09-2.15-2.3-.86-3.66.82-4.81,2.86-1.96,3.82-5.35,6.21-7.64.92-.88.87-2.11-.1-3.11-.71-.73-1.45-.69-2.09.09-.92,1.14-1.88,2.91-3.48,1.47-1.54-1.4.47-2.58.96-3.86.23-.6.25-1.28.36-1.93.3-1.84,1.71-1.59,2.99-1.6,3.45,2.43,5.34,6.28,8.31,9.16,1.69,1.64.6,3.38-.35,4.97-3.98,6.71-10.03,10.96-17.12,13.7-2.88,1.11-5.57,2.98-8.84,2.99Z"/>
      <path class="cls-2" d="M233.34,206.9c3.79.46,4.65,4.4,7.33,6.21,1.18.8,2.18,2.62,3.74,1.27,1.22-1.06.91-2.89.08-4.16-1.82-2.77-3.75-5.48-5.83-8.05-2.27-2.81-.4-2.95,1.76-3.06.54,2.23,2.84,2.63,4.24,3.96,5.37,5.11,6.65,11.67,6.94,18.57.09,2.05-.77,3.18-3.47,2.46-8.42-2.25-13.9-8.39-14.8-17.19Z"/>
      <path class="cls-13" d="M279.25,263.05q-1.57,6.46,4.94,8.01c4.27,1.01,8.56,1.96,12.84,2.94-.01.63-.03,1.26-.04,1.89-9.17-1.29-18.72-.95-26.68-7.08-2.92-2.25-5.07.62-7.3,2.1-5.36,2.62-9.92,6.79-15.94,8.1.71-.96,1.43-1.93,2.14-2.89.28-.39.56-.78.84-1.16,2.64.36,4.49-1.07,6.21-2.77,2.07-1.21,5.19-1.03,5.74-4.29,2.38.23,4.44-.11,5.08-2.91,3.62.14,5.8-1.54,6.43-5.14,2.37.25,2.85,3.89,5.74,3.21Z"/>
      <path class="cls-1" d="M270.07,149.01c.37-1.74.7-3.5,1.12-5.23q1.83-7.53,9.53-7.73c-1.87,5.7-5.86,9.66-10.65,12.96Z"/>
      <path class="cls-3" d="M139.18,327.84c-3.41,1.16-6.42,3.04-9.34,5.09-4.49.22-8.27,2.28-11.75,4.84-3.6,2.64-3.86,5.94-1.08,9.43,1.38,1.73,3.2,2.87,5.19,3.77,13.32,5.99,27.67,7.59,41.87,9.82,1.1.17,1.94-.35,2.02-1.63l8.86.16c-.14.25-.15.51-.03.77.35,1.21.77,2.25,2.1.76,5.11.04,10.23.25,15.33.06,5.22-.19,10.56,1.1,15.66-1,3.83.6,7.47-.72,11.2-1.13,10.34-1.25,20.54-3.12,29.97-7.77,3.34-1.65,6.41-4.12,5.66-8.42-.81-4.63-4.55-6.1-8.73-6.68-.68-.4-1.35-.8-2.03-1.2-.74-2.46-3.35-2.54-4.96-3.9-.51-1.41-.8-3.2-2.99-1.79l-4.04-1.3c-.89-2.55-4.87-2.02-5.16-5.18,11.36,1.44,22.44,3.98,32.96,8.62,3.33,1.47,6.63,3.01,9.34,5.54,5.23,4.91,4.95,10.14-.73,14.59-.9.7-1.67,1.57-2.51,2.36-4.98,2.44-9.96,4.88-14.95,7.31-7.03.18-13.54,3.03-20.42,4.02-11.82,1.69-23.7,2.45-35.59,3.38-10.54.82-20.88-.3-31.27-.65-7.36-.25-14.79-1.35-22.17-2.42-7.74-1.13-14.95-4.26-22.69-5.09-3.63-2.33-7.93-3.01-11.78-4.79-2.05-1.67-4.25-3.19-6.12-5.04-4.96-4.92-4.53-10.09,1.12-14.32,7.75-5.8,16.92-8.32,26.01-10.95,3.02-.87,6.14-1.4,9.22-2.09.54-.03,1.08-.07,1.62-.1.07,1.65.13,3.29.2,4.93Z"/>
      <path class="cls-7" d="M251.07,360.96c4.98-2.44,9.97-4.88,14.95-7.31-.13,2.11,1.82,2.61,2.94,3.72,4.1,4.07,4.17,7.96.07,12.12-3.24,3.29-7.43,5.07-11.67,6.45-13.08,4.27-26.43,7.04-40.24,8.19-17.12,1.43-34.26,1.42-51.28.51-19.46-1.04-38.89-3.76-56.83-12.55-5.7-2.79-7.34-8.34-3.37-13.13.89-1.08,1.57-2.13,1.51-3.55,3.85,1.78,8.15,2.45,11.78,4.79.31,1.83,1.73,2.75,3.08,3.73,6.01,4.35,12.7,7.33,19.87,8.93,27.56,6.14,55.26,6.36,82.94,1.01,9.79-1.89,19.42-4.72,26.26-12.89Z"/>
      <path class="cls-1" d="M212.1,329.93c-2.92-.08-7.19,1.08-8.29-1.31-1.21-2.63,2.98-4.44,4.67-6.72,1.25-1.69,3.32-2.04,4.63-3.49,4.52-1.6,8.66-1.44,11.99,2.56.06.34.13.67.19,1.01-.39,4.95-5.16,2.01-7.19,4-1.71-.2-3.23,0-3.91,1.91-1.05.31-1.63,1.12-2.09,2.03Z"/>
      <path class="cls-11" d="M218.1,325.99c2.03-1.99,6.81.94,7.19-4,.55.19,1.11.37,1.66.56.29,3.15,4.27,2.62,5.16,5.18-.77,1.54-1.54,3.09-2.31,4.63-.27-.09-.52-.19-.77-.32-2.2-4.62-7.43-3.77-10.93-6.04Z"/>
      <path class="cls-14" d="M138.98,322.9c-.54.03-1.08.07-1.62.1-.07-1.97,1.02-2.81,2.84-2.96,0,0,.05.03.05.03-.14,1.07.13,2.32-1.27,2.82Z"/>
      <path class="cls-13" d="M231.12,287.54c-4.39,3.07-7.24.1-9.96-2.71-2.55-2.63-3.75-7.04-9.01-5.59-1.22.34-2.78-1.02-3.04-2.74-.25-1.65-.47-4.22,1.03-4.46,4.52-.73,5.33-5.58,8.88-7.16-.1,1.53.84,2.32,1.99,3.1,6.91,4.67,10.19,11.25,10.11,19.56Z"/>
      <path class="cls-7" d="M231.12,287.54c.09-8.31-3.2-14.88-10.11-19.56-1.15-.78-2.1-1.57-1.99-3.1,2.45-1.63,5.07-2.49,8.04-1.91,5.12,5.58,9.67,11.47,10.39,19.41-1.22,2.81-3.54,4.27-6.33,5.15Z"/>
      <path class="cls-15" d="M249.21,276.11c-.71.96-1.43,1.93-2.14,2.89,0,0,.03-.02.03-.02-2.5.01-5.8,1.99-7.26-.99-3.31-6.76-8.63-12.22-11.77-19.03-.65-4.11,3.92-4.47,5.18-7.2.29.06.57.13.85.21-.1,1.01.35,1.77,1.07,2.41-1.33,2.88-5.37,5.75,0,8.64-.11,3.77,2.86,6.14,4.25,9.23,2.83,6.32,2.99,6.25,9.21,3.2.2.22.4.45.6.67Z"/>
      <path class="cls-13" d="M228.07,258.96c3.14,6.82,8.46,12.27,11.77,19.03,1.46,2.98,4.76,1,7.26.99-.83,2.2-2.79,2.08-4.56,2.07-1.85,0-3.63-.02-5.09,1.34-.71-7.94-5.27-13.83-10.39-19.41.33-1.34.67-2.68,1-4.02Z"/>
      <path class="cls-6" d="M242.33,311.98c-2.6-.36-4.41-1.67-4.03-4.51.33-2.46,2.16-3.67,4.62-3.48,2.74.22,4.25,1.89,3.97,4.62-.27,2.53-1.91,3.73-4.56,3.36Z"/>
      <path class="cls-6" d="M212.7,246.82c-2.35-.45-3.64-1.84-3.63-4.36,0-2.43,1.24-3.58,3.66-3.57,2.76.02,3.82,1.93,3.89,4.13.08,2.27-1.7,3.35-3.91,3.79Z"/>
      <path class="cls-6" d="M213.13,302.98c2.1.16,2.96,1.35,3.02,3.28.07,2.23-1.26,2.76-3.18,2.78-2.08.02-3.11-.84-2.93-2.97.16-1.94,1.19-3,3.1-3.09Z"/>
      <path class="cls-16" d="M142.04,227.05c.36-.03.71-.06,1.07-.08,2.71,3.8,2.42,7.91,1.28,12.11-1.09-.27-2.18-.54-3.27-.81.31-1.1.62-2.2.93-3.3,0-2.64,0-5.28,0-7.91Z"/>
      <path class="cls-10" d="M141.11,238.27c1.09.27,2.18.54,3.27.81-.22.84-.44,1.69-.66,2.53-3.39.29-4.57-2.09-5.61-4.64,0,0-.01,0-.01,0,1,.44,2.01.87,3.01,1.31Z"/>
      <path class="cls-6" d="M169.78,239.23c-.12.03-.29.11-.34.06-.09-.08-.12-.25-.17-.38.19-.04.38-.07.57-.11-.02.14-.05.28-.07.42Z"/>
      <path class="cls-14" d="M263.32,115.9c-.29-.59-.7-1.16-.84-1.78-2.39-10.51-9.69-13.14-19.49-13.17-4.38-.02-8.61-1.04-12.81-2.3-.93-.28-1.86-.57-2.79-.86h-.01c-1.86-.59-3.72-1.19-5.58-1.73,0-.01-.01,0-.01,0-.46-.14-.93-.27-1.39-.4h-.01s-.52.53-.52.53c.29.77.57,1.55.86,2.32.47,1.21,1.85,2.47,1.01,3.66-1.13,1.63-2.72.06-4.08-.15-5.33-.81-10.31-2.98-14.9-5.47-2.99-1.63-6.49-4.09-6.8-8.45-3.02-.18-5.9.39-8.62,1.74-1.38,7.62-6.07,13.08-11.84,17.7-1.58,1.27-2.52,2.38-2.41,4.44.24,4.63.34,9.25.51,13.88,2.27,3.42,1.01,7.35,1.66,11,.32,1.75,1.17,3.39,1.78,5.08.04,1.54.66,2.8,1.41,4.01.96,1.56,2.15,3.02,2.62,4.83,2.57,10,8.3,17.51,17.7,22.19,2.07,1.04,4.78,1.83,5.3,4.79,1.02.68,2.04,1.35,3.06,2.03,1.66.06,3.32.13,4.99.2.68-.96,1.32-.89,1.93.08,1.34.27,2.68.55,4.02.82,5.87-1.9,12.25-1.5,18-3.95,5.36-3.96,11.66-6.56,15.89-12.16,9.47-12.56,12.87-26.44,10.35-41.92-.37-2.27-1.27-4.93,1.01-6.96ZM180.13,119.44c-.24-5.57,2.84-7.11,5.76-8.45,2.97-1.36,6.14-1.28,9.05.49.91.55,1.31,1.52.95,2.59-.41,1.24-1.49,1.2-2.45.96-4.86-1.19-9.13-.22-13.31,4.41ZM196.88,131.47c-.17,3.23-1.45,6.29-5.11,6.02-3.87-.29-5.17-3.58-5.58-7.16.43-3.14,1.47-5.84,5.18-6.14,3.31-.27,5.72,2.88,5.51,7.28ZM230.31,107.09c1.02-.5,2.21-.65,3.35-.97,3.31.94,7.02.52,9.66,3.33.71.76,1.3,1.68.55,2.63-.82,1.02-1.84.35-2.68-.1-3.14-1.72-6.48-1.24-9.68-.61-1.74.34-3.42,1.15-4.1-.99-.72-2.22,1.53-2.6,2.9-3.29ZM204.16,137.37c.43-4.63,2.06-8.9,5.4-13.24,1.15,4.13-.92,6.89-1.55,9.9-1.35,6.38-.56,7.36,5.76,7.03,1.32-.07,3.55-2.27,4.06.53.37,1.99-1.74,2.87-3.55,3.51-5.44,1.91-10.66-1.93-10.12-7.73ZM232.99,153.86c-6.78,6.03-14.68,7.93-23.5,5.51-1.55-.43-2.06-.95-4.71-4.07,9.54,3.1,17.81,3.36,25.13-2.99.38-.33.8-.59,1.21-.87,1.43-.97,1.85-4.78,4.1-2.74,2.02,1.84-.85,3.93-2.23,5.16ZM231.23,126.32c-.27-3.29,1-6.19,4.79-6.27,4.46-.09,5.21,3.72,5.57,6.95.38,3.33-1.36,5.7-5,6.05-4.98.26-5.1-3.49-5.36-6.73ZM256.32,139.37c-2.1,3.55-5.48,4.47-9.78,4.67-.81-.14-2.17-.17-3.38-.62-1.88-.7-3.7-1.72-3.96-4.01-.25-2.19,1.58-3.19,2.96-4.24,1.01-.77,2.37-1.17,3.64-1.49,3.38-.86,6.78-1.72,9.72,1.28,1.32,1.34,1.83,2.68.8,4.41Z"/>
      <path class="cls-12" d="M174.96,359.31c-2.95-.05-5.91-.11-8.86-.16-4.62-3.7-10.12-3.95-15.68-4.1-1.96-.05-3.98.16-5.77-1.08-3.25-2.25-6.61-3.19-10.77-2.39-4.6.88-11.39-3.2-12.22-6.79-1.02-4.4,2.2-6.13,5.38-7.75-1.97,7.98.65,10.93,9.08,11.9,9.42,1.09,18.77,2.9,28.12,4.57,3.29.59,6.49.4,10.11.25-2.15-1.69-5.08.45-6.65-2.27,3.57-1.51,7.78-.82,11.77-3.68-5.14-1.58-9.31-5.03-13.48.1-3.14-1.77-7.33-.3-10.08-3.27,2.49-3,5.51.52,8.14-.67.15.14.3.29.46.43-.14-.16-.27-.32-.41-.48-1.22-2.95,1.27-2.1,2.29-1.95,6.72.96,13.68.91,19.92,4.16-.11.36-.22.72-.33,1.08-1.73,2.6-5.42,2.6-7.08,5.44,2.77-2.18,7.28,1.65,9.3-2.89,10.01,5.71,15.7,5.47,23.59-1,2.09,2.06,2.85-.31,2.91-1.31.38-7.55,6.2-8.23,11.6-9.53.94-.23,1.82-.68,2.73-1.03.34,0,.67.02,1.01.03,1.37,1.91,3.46.52,5.12,1.13.33.99.67,1.98,1.01,2.98-3.8-.03-7.61-.08-11.41-.07-1.13,0-3.1.37-2.19,1.62,2.19,2.99,4.68,5.68,9.26,5.33,4.27-.32,5.47-2.33,5.13-6.09.94.93,2.1,1.72,2.79,2.8,1.93,3.07,3.61,2.37,5.95.3,4.17-3.7.75-5.18-1.71-7.06.04-1.06.09-2.11.13-3.17.68.4,1.35.8,2.03,1.2.23.43.39.92.7,1.29,5.18,6.27,4.08,9.73-3.7,11.94-2.69.76-5.73,1.25-7.86,2.86-5.23,3.95-10.76,3.37-16.55,2.37-2.71-.47-5.59-1.34-7.84,1.29-.3.06-.59.13-.88.22-.34.29-.67.57-1.01.86l-.14.05c-7.36,2.76-14.63,2.69-22.21.38-3.83-1.17-8.13-.49-11.66,2.15Z"/>
      <path class="cls-6" d="M127.04,337.04c-3.19,1.62-6.4,3.36-5.38,7.75.83,3.59,7.63,7.67,12.22,6.79,4.15-.8,7.52.13,10.77,2.39,1.79,1.24,3.81,1.02,5.77,1.08,5.55.15,11.06.4,15.68,4.1-.09,1.28-.93,1.8-2.02,1.63-14.2-2.22-28.55-3.82-41.87-9.82-1.99-.9-3.81-2.04-5.19-3.77-2.78-3.49-2.52-6.78,1.08-9.43,3.48-2.56,7.27-4.61,11.75-4.84.54,2.38-2.07,2.6-2.8,4.12Z"/>
      <path class="cls-2" d="M189.04,345.84c5.81-3.56,12.17-5.64,18.79-7.07,3.99,2.66,4.35,5.59,1.15,9.2-4.65,5.24-16.11,4.02-19.94-2.13Z"/>
      <path class="cls-2" d="M162.84,325.1c-.23,0-.46-.03-.68-.11-6.02-1-11.17-5.04-17.48-5.05-4.3,1.01-1.9,5.73-4.3,7.78-.09,2.74,1,4.09,3.94,4.6,5.7.98,11.26.99,16.71-.96,5.23-1.87,5.39-2.62,1.81-6.26ZM147.77,329.44c-2.43-.77-4.68-3.14-.73-5.54.09-.13.18-.26.28-.39-.07.16-.13.32-.19.48.02.17.04.48.05.48,4.09-.22,7.09,3.5,11.34,3.1-3.22,3.07-7.18,3.01-10.75,1.87Z"/>
      <path class="cls-5" d="M156.11,339.01c6.56-7.78,19.13-8.57,26.47-1.72,1,.93,1.48,1.73.62,2.96-.75,1.08-1.55,1.52-2.9.81-2.19-1.14-4.4-2.35-6.74-3.05-5.19-1.54-10.41-2.52-15.04,1.7-.46.42-1.57.12-2.38.15,0-.29,0-.57-.03-.86Z"/>
      <path class="cls-1" d="M142.01,344.03c-3.76,1.29-7.47,1.78-10.8-1.05-1.11-.94-2.38-1.97-1.05-3.72,3.52-4.62,13.95-3.66,16.62,1.55-1.59,1.07-3.18,2.14-4.78,3.21Z"/>
      <path class="cls-9" d="M189.04,345.84c3.83,6.15,15.29,7.37,19.94,2.13,3.2-3.61,2.83-6.53-1.15-9.2,3.33-1.88,4.86-.36,5.37,2.91.39,2.52-.25,4.87-1.41,7.1-7.89,6.47-13.58,6.71-23.59,1-.74-.85-1.48-1.7-2.21-2.55.11-.36.22-.72.33-1.08.91-.1,1.81-.21,2.72-.31Z"/>
      <path class="cls-12" d="M186.94,340.61c4.46-4.92,10.66-6.05,16.71-7.42,1.18-.27,2.21.77,2.24,2.15.03,1.33-1.06,1.67-2.07,1.54-6.04-.79-11.31,1.67-16.88,3.73Z"/>
      <path class="cls-12" d="M142.01,344.03c1.59-1.07,3.18-2.14,4.78-3.21,2.71-2.64,5.97-2.46,9.32-1.8.02.29.03.57.03.86-1.77,1.53-6.67.38-4.55,5.28.03.06-.2.24-.32.36-2.75-2.6-6.57,1.45-9.27-1.48Z"/>
      <path class="cls-12" d="M193.19,318.99c3.4-.3,6.19.71,8.89,2,.87.41,2.03,1,1.6,2.15-.47,1.26-1.65.69-2.52.33-3.44-1.44-7.02-1.7-10.69-1.62-1.02.02-2.73.64-2.84-.99-.12-1.74,1.61-1.76,2.91-1.86.99-.07,1.98-.01,2.66-.01Z"/>
      <path class="cls-12" d="M184.97,327.77c2.41-3.64,6.06-4.37,9.92-3.6,1.42.28,4.92,1.12,1.52,3.92-3.8-.74-7.7,2.54-11.44-.31Z"/>
      <path class="cls-5" d="M155.92,344.65c2.75,2.97,6.94,1.5,10.08,3.27-3.25,2.83-6.49,2.3-9.63-.14-1.04-.81-2-1.85-.44-3.13Z"/>
      <path class="cls-5" d="M212.1,329.93c.47-.92,1.04-1.72,2.09-2.03,4.16-.09,8.13.35,10.88,4.06l-.03.04c-4.27-.95-8.52-2.07-12.94-2.07Z"/>
      <path class="cls-5" d="M184.97,327.77c3.74,2.86,7.64-.42,11.44.31-2.62,3.74-6.46,3.29-10.18,2.74-1.5-.22-2.94-1.17-1.26-3.05Z"/>
      <path class="cls-12" d="M162.84,325.1c-.23,0-.46-.03-.68-.1,3.11-3.7,6.69-3.32,11.22-1.27-3.77,2.29-7.29.83-10.53,1.37Z"/>
      <path class="cls-9" d="M144.68,319.94c-4.3,1.01-1.9,5.73-4.3,7.78-.4.04-.8.08-1.19.12-.07-1.65-.13-3.29-.2-4.94,1.41-.5,1.13-1.76,1.27-2.82,1.46-.53,2.85-3.27,4.42-.14Z"/>
      <path class="cls-12" d="M182.03,330.01h-13.11c.02-.46.03-.93.05-1.39,4.45-1.08,8.87-1.49,13.16,1.3l-.09.09Z"/>
      <path class="cls-12" d="M221.58,335.55c-3.05,2.4-5.18,3.24-7.64,1.58-.3-.2-.53-1.14-.4-1.24,2.19-1.72,4.52-.85,8.04-.35Z"/>
      <path class="cls-5" d="M230.03,336.93c-.34,0-.67-.02-1.01-.03-1.33-1.64-2.65-3.27-3.98-4.91,0,0,.03-.04.03-.04,1.32.02,2.64.05,3.96.07.25.13.51.23.77.32.08,1.53.15,3.06.23,4.59Z"/>
      <path class="cls-12" d="M182.13,329.92c.13.15.26.31.38.46-.16-.12-.32-.24-.48-.37,0,0,.09-.09.09-.09Z"/>
      <path class="cls-12" d="M218.07,180.89c5.87-1.9,12.24-1.5,17.99-3.96,1.21,2.45,3.43,2.67,4.8.9,2.97-3.84,7.78-3.47,11.36-5.74-2.3,4.23-5.12,8.01-9.09,10.83-.41-.58-.78-.66-1.06.1,0,0,.03-.02.03-.02-1.46.2-2.94.35-4.39.62-5.85,1.1-11.7,2.32-17.61.34-.37,0-.74.02-1.12.02-.3-1.03-.61-2.06-.92-3.09Z"/>
      <path class="cls-14" d="M220.11,183.96c5.91,1.98,11.76.76,17.61-.34,1.45-.27,2.93-.42,4.39-.62-.03.65-.06,1.31-.09,1.96-1.66,1.27-3.32,2.53-4.98,3.8-.65.03-1.3.06-1.96.09-2.71-1.56-5.51-.91-8.16-.02-4.68,1.57-6.45-.59-6.82-4.87Z"/>
      <path class="cls-9" d="M218.07,180.89c.31,1.03.61,2.06.92,3.09-4.19-.9-5.96,3.58-9.95,4.39,1.93-3.59-3.96-4.95-1.91-8.59,1.66.07,3.33.14,4.99.21.61.97,1.25.95,1.93.07l4.03.83Z"/>
      <path class="cls-9" d="M226.24,205.16c-2.42-1.05-4.29-1.08-5.32,2.01-.99,2.98-3.96,4.23-6.48,6,.92-4.62,2.9-8.91,6.8-11.5,2.96-1.96,4.23.97,5.02,3.47,0,0-.02.02-.02.02Z"/>
      <path class="cls-16" d="M173.6,125.86c2.27,3.42,1.01,7.36,1.67,11.01.31,1.74,1.17,3.39,1.77,5.08-5.75-.47-8.3-5.33-9.48-9.38-1.1-3.77-2.66-9.15,2.16-12.6,1.62,1.75,1.34,4.75,3.88,5.9Z"/>
      <path class="cls-14" d="M142.04,227.05c0,2.64,0,5.28,0,7.91-1.35-.32-2.7-.63-4.05-.95-2.11-5.82-2.7-6.1-8.98-3.36-2.63,1.15-5.12,2.23-7.79.27.23-4.37,4.36-6.24,6.68-9.76-4.69,1.21-6.87,3.45-8.92,8.73-2.25.1-4.9.93-5.14-2.74.79-2.35,1.58-4.7,2.38-7.06.72-.22,1.52-.37,1.42-1.4-.01-.12-.2-.3-.31-.31-1.03-.1-1.18.7-1.41,1.42-3.21.86-3.55,3.6-4.08,6.22-2.1.02-3.67-.62-3.77-3.06-.9-4.44,3.56-5.9,5.01-9.02,0,0-.02.03-.02.03.34-.41.69-.81,1.03-1.22,5.48-2.42,10.41-.17,14.76,2.58,4.57,2.89,9.93,5.28,11.86,11.15.1.3.87.37,1.32.55Z"/>
      <path class="cls-10" d="M121.21,230.93c2.67,1.95,5.16.88,7.79-.27,6.28-2.74,6.87-2.46,8.98,3.36.04.98.07,1.97.11,2.95,0,0,.01,0,.01,0-2.77-4.7-6.04-6.43-11.44-3.28-3.8,2.22-12.15-.86-14.76-4.54.39-.58.78-1.17,1.17-1.76.22-.18.47-.25.75-.22.24,3.68,2.88,2.84,5.14,2.74.47.94,1.29,1.12,2.23,1.02Z"/>
      <path class="cls-12" d="M113.09,213.95c-1.46,3.13-5.91,4.59-5.01,9.02-3.37-2.01-2.8-6.33,1.26-8.49,1.05-.56,2.49-.37,3.75-.53Z"/>
      <path class="cls-12" d="M113.84,227.16c-.28-.03-.53.05-.75.22-.41-.45-.83-.9-1.24-1.35.53-2.62.86-5.36,4.08-6.22l.3.29c-.79,2.35-1.58,4.7-2.38,7.06Z"/>
      <path class="cls-12" d="M114.1,212.76c-.34.41-.69.81-1.03,1.22.34-.41.69-.81,1.03-1.22Z"/>
      <path class="cls-3" d="M133.09,250.94c-10.85-2.79-20.24-8.76-30.05-13.8-.54-.28-.63-1.43-.92-2.17,8.88,1.66,17.76,3.3,26.63,4.98,1.12.21,2.27.51,3.28,1.02,7.18,3.64,7.31,5,1.06,9.97Z"/>
      <path class="cls-16" d="M279.25,263.05c-2.89.68-3.37-2.96-5.74-3.21-.15-.65-.3-1.29-.44-1.94-.02-.6-.03-1.21-.05-1.81,2.27-2.77.47-3.63-1.96-4.2-2.06-3.51-3.87-5.6-6.91-.47-2.13,3.6-11.98,5.25-16.04,3.38-.37-.59-.74-1.19-1.11-1.78.68-.02,1.36-.05,2.04-.07,2.01.07,4.06.34,5.82-1.03.81,0,1.61,0,2.42-.01,2.69.55,4.06-.92,5.6-2.96,4.33-5.72,6.1-6.07,12.45-3.47,2.17-3.02.78-6.28.63-9.46.68-.07,1.36-.15,2.04-.22-.04.81-.04,1.61.74,2.15,5,7.97,3.58,16.36,1.62,24.78-.37.1-.74.21-1.11.32Z"/>
      <path class="cls-6" d="M278.74,237.95c-.78-.53-.78-1.33-.74-2.15.74-1.08,1.9-.83,2.95-.93,3.7.03,7.41.07,11.11.1,7.41,1.78,15.36,1.13,22.31,5.23-11.92-.37-23.71-2.47-35.63-2.25Z"/>
      <path class="cls-15" d="M292.06,234.97c-3.7-.03-7.41-.07-11.11-.1.41-3.54-.89-6.83-1.51-10.21-.2-1.1-.9-2.39.39-3.11,1.08-.6,1.78.56,2.44,1.22,3.72,3.7,7.56,7.31,9.79,12.21Z"/>
      <path class="cls-14" d="M219.87,96.19c-.16-.21-.5-.53-.45-.61.34-.52.67-.24.97.09-.17.18-.35.35-.52.52Z"/>
      <path class="cls-5" d="M283.6,119.42c-4.4.58-5.53,3.24-6.35,6.18-.33,1.2-.4,3.21-2.06,2.82-1.96-.45-.59-2.1-.33-3.24.37-1.6.64-3.26,1.24-4.77,1.29-3.25,3.34-4.41,7.5-1Z"/>
      <path class="cls-3" d="M273.01,256.08c.02.6.03,1.21.05,1.81-.71.05-1.43.1-2.14.15-12.24-.64-24,2.18-35.77,4.97-5.37-2.88-1.32-5.76,0-8.64.76-.4,1.52-.8,2.28-1.2,3.33,1.97,6.63,4.19,10.66,1.62,4.06,1.87,13.91.22,16.04-3.38,3.03-5.13,4.84-3.04,6.91.47.13,1.64.68,3.09,1.96,4.19Z"/>
      <path class="cls-12" d="M239.7,252.06c-1.35-7.8-.94-9.71,2.81-14.66.8,1.66-.18,7.09-2.81,14.66Z"/>
      <path class="cls-12" d="M249.04,252.94c-.68.02-1.36.05-2.04.07-.26-5,.57-9.68,4.73-14.9-.59,5.95-3.04,10.18-2.7,14.83Z"/>
      <path class="cls-12" d="M257.27,251.9c-.81,0-1.61,0-2.42.01.28-4.77,2.93-8.47,5.96-13.57-.17,5.78-3.74,9.19-3.55,13.56Z"/>
      <path class="cls-13" d="M237.45,253.17c-.76.4-1.52.8-2.28,1.2-.72-.64-1.17-1.4-1.07-2.4,1.12.4,2.24.8,3.36,1.21Z"/>
      <path class="cls-2" d="M237.04,188.77c1.66-1.27,3.32-2.53,4.98-3.8,1.95-.09,3.17.55,3.03,2.8-.12,2.1-4.45,6.46-6.37,5.98-2.87-.72-1.06-3.31-1.64-4.98Z"/>
      <path class="cls-14" d="M242.08,183.02c.29-.76.65-.68,1.06-.1-.35.03-.71.07-1.06.1Z"/>
      <path class="cls-15" d="M270.92,258.05c.71-.05,1.43-.1,2.14-.15.15.65.29,1.29.44,1.94-.63,3.6-2.81,5.28-6.43,5.14,0,0-.22-.26-.22-.26,1.99-1.84,4.75-3.21,4.07-6.68Z"/>
      <path class="cls-15" d="M262,267.89c-.54,3.26-3.66,3.08-5.74,4.29-.3-.3-.59-.61-.89-.91,2.17-1.17,4.34-2.34,6.51-3.52l.12.14Z"/>
      <path class="cls-15" d="M256.26,272.18c-1.72,1.7-3.57,3.13-6.21,2.77l-.18-.19c1.83-1.16,3.67-2.33,5.5-3.49.3.3.59.61.89.91Z"/>
      <path class="cls-15" d="M267.08,264.98c-.64,2.8-2.7,3.14-5.08,2.91,0,0-.12-.14-.12-.14,1.66-1.01,3.32-2.02,4.97-3.02,0,0,.22.26.22.26Z"/>
      <path class="cls-15" d="M250.05,274.95c-.28.39-.56.78-.84,1.16-.2-.22-.4-.44-.6-.67.42-.23.83-.46,1.25-.69l.18.19Z"/>
      <path class="cls-6" d="M251.07,360.96c-6.84,8.18-16.46,11-26.26,12.89-27.68,5.35-55.38,5.14-82.94-1.01-7.17-1.6-13.86-4.58-19.87-8.93-1.35-.98-2.76-1.9-3.08-3.73,7.75.83,14.96,3.96,22.69,5.09,7.38,1.08,14.81,2.17,22.17,2.42,10.39.35,20.74,1.47,31.27.65,11.89-.92,23.77-1.69,35.59-3.38,6.89-.98,13.39-3.83,20.42-4.02Z"/>
      <path class="cls-11" d="M210.86,355.64c2.25-2.62,5.13-1.75,7.84-1.29,5.79,1,11.32,1.58,16.55-2.37,2.13-1.61,5.17-2.1,7.86-2.86,7.79-2.21,8.89-5.67,3.7-11.94-.31-.37-.47-.86-.7-1.29,4.18.58,7.92,2.05,8.73,6.68.75,4.31-2.32,6.78-5.66,8.42-9.43,4.65-19.63,6.53-29.97,7.78-.06-1.96-.95-2.93-3.03-2.86-1.77.05-3.55-.17-5.33-.27Z"/>
      <path class="cls-14" d="M230.03,336.93c-.08-1.53-.15-3.06-.23-4.59.77-1.54,1.54-3.08,2.31-4.63,1.35.43,2.69.86,4.04,1.3.56,1.33,1.52,1.98,2.99,1.79,1.61,1.36,4.22,1.43,4.96,3.9-.04,1.06-.09,2.11-.13,3.17-2.94.06-5.88.13-8.83.19-1.65-.61-3.75.78-5.12-1.13Z"/>
      <path class="cls-11" d="M174.96,359.31c3.53-2.64,7.83-3.31,11.66-2.15,7.58,2.31,14.85,2.38,22.21-.38-.27,1.04-.54,2.08-.81,3.13-5.1,2.09-10.44.8-15.66,1-5.1.19-10.22-.03-15.33-.06-.51-.79-1.27-.88-2.1-.77-.12-.26-.11-.52.03-.77Z"/>
      <path class="cls-15" d="M208.02,359.91c.27-1.04.54-2.08.81-3.13,0,0,.14-.05.14-.05.34-.29.67-.57,1.01-.86.29-.09.58-.17.88-.22,1.78.1,3.56.32,5.33.27,2.08-.06,2.97.9,3.03,2.86-3.73.41-7.37,1.73-11.2,1.13Z"/>
      <path class="cls-11" d="M239.14,330.8c-1.47.19-2.43-.46-2.99-1.79,2.2-1.41,2.48.38,2.99,1.79Z"/>
      <path class="cls-6" d="M174.93,360.08c.84-.11,1.6-.03,2.1.77-1.33,1.49-1.75.45-2.1-.77Z"/>
      <path class="cls-16" d="M229.02,332.03c-1.32-.02-2.64-.05-3.96-.07-2.75-3.71-6.71-4.15-10.88-4.06.68-1.91,2.2-2.11,3.91-1.91,3.5,2.27,8.73,1.42,10.93,6.04Z"/>
      <path class="cls-8" d="M249.87,274.76c-.42.23-.83.46-1.25.69-6.22,3.05-6.38,3.12-9.21-3.2-1.39-3.09-4.36-5.47-4.25-9.23,11.77-2.78,23.53-5.6,35.77-4.97.68,3.47-2.08,4.84-4.07,6.68-1.66,1.01-3.32,2.02-4.97,3.02-2.17,1.17-4.34,2.34-6.51,3.52-1.83,1.16-3.67,2.33-5.5,3.49Z"/>
      <path class="cls-11" d="M138.1,236.96c-.04-.98-.07-1.97-.11-2.95,1.35.32,2.7.63,4.05.95-.31,1.1-.62,2.2-.93,3.3-1-.43-2.01-.87-3.01-1.3Z"/>
      <path class="cls-16" d="M246.54,144.04c-.81-.14-2.17-.17-3.37-.62-1.89-.7-3.7-1.72-3.96-4.02-.25-2.19,1.58-3.18,2.96-4.24,1.01-.77,2.37-1.17,3.64-1.49,3.38-.86,6.78-1.72,9.72,1.28,1.32,1.35,1.84,2.68.81,4.42-2.1,3.55-5.48,4.47-9.79,4.66Z"/>
      <path class="cls-1" d="M186.19,130.33c.43-3.14,1.47-5.84,5.18-6.14,3.31-.27,5.72,2.88,5.5,7.28-.16,3.23-1.45,6.29-5.11,6.02-3.87-.29-5.17-3.57-5.58-7.16Z"/>
      <path class="cls-1" d="M236.59,133.05c-4.98.26-5.1-3.5-5.36-6.73-.27-3.29,1-6.2,4.79-6.28,4.47-.09,5.21,3.72,5.57,6.95.38,3.33-1.36,5.7-5,6.05Z"/>
      <path class="cls-1" d="M204.78,155.3c9.54,3.1,17.81,3.36,25.14-3,.37-.32.8-.59,1.21-.87,1.42-.96,1.85-4.78,4.09-2.74,2.02,1.84-.84,3.93-2.23,5.16-6.78,6.03-14.68,7.93-23.5,5.51-1.56-.43-2.06-.95-4.72-4.07Z"/>
      <path class="cls-12" d="M209.56,124.13c1.14,4.13-.92,6.89-1.55,9.9-1.35,6.39-.56,7.36,5.76,7.03,1.32-.07,3.55-2.27,4.06.52.37,1.99-1.74,2.87-3.55,3.51-5.44,1.92-10.67-1.92-10.12-7.73.43-4.63,2.06-8.9,5.41-13.24Z"/>
      <path class="cls-1" d="M233.66,106.12c3.3.93,7.02.52,9.66,3.33.71.76,1.3,1.68.55,2.63-.81,1.02-1.84.36-2.68-.1-3.14-1.71-6.48-1.23-9.68-.61-1.74.34-3.42,1.15-4.1-.99-.71-2.22,1.53-2.6,2.91-3.29,1.01-.5,2.21-.65,3.35-.97Z"/>
      <path class="cls-1" d="M180.13,119.44c-.24-5.57,2.84-7.11,5.76-8.45,2.97-1.36,6.15-1.28,9.05.49.9.55,1.31,1.52.95,2.59-.41,1.24-1.49,1.2-2.46.96-4.86-1.19-9.13-.22-13.3,4.41Z"/>
      <path class="cls-12" d="M214.05,180.07c-.68.87-1.32.89-1.93-.07.68-.96,1.32-.9,1.93.07Z"/>
      <path class="cls-1" d="M236.94,341.82c.34,3.76-.87,5.77-5.13,6.09-4.58.35-7.07-2.34-9.26-5.33-.91-1.25,1.05-1.62,2.19-1.62,3.8,0,7.61.05,11.41.07.26.26.53.53.79.79Z"/>
      <path class="cls-5" d="M236.94,341.82c-.27-.26-.53-.53-.79-.79-.33-.99-.67-1.98-1.01-2.98,2.94-.06,5.89-.13,8.83-.19,2.46,1.88,5.89,3.36,1.71,7.06-2.34,2.07-4.02,2.77-5.95-.3-.69-1.09-1.84-1.88-2.79-2.8Z"/>
      <path class="cls-14" d="M185.98,347.23c.74.85,1.48,1.7,2.21,2.55-2.02,4.54-6.52.71-9.3,2.89,1.66-2.85,5.35-2.84,7.08-5.44Z"/>
      <path class="cls-14" d="M164.1,343.94c.14.16.27.32.41.48-.15-.14-.3-.29-.46-.43,0,0,.05-.05.05-.05Z"/>
      <path class="cls-11" d="M209.98,355.87c-.34.29-.67.58-1.01.86.34-.29.67-.58,1.01-.86Z"/>
      <path class="cls-9" d="M147.13,323.99c.01.17.04.48.04.48,4.09-.22,7.09,3.51,11.34,3.1-3.21,3.07-7.17,3.01-10.74,1.87-2.43-.77-4.68-3.15-.73-5.55l.1.09Z"/>
      <path class="cls-9" d="M147.04,323.9c.09-.13.18-.26.28-.39-.06.16-.12.32-.18.48,0,0-.1-.09-.1-.09Z"/>
      <path class="cls-12" d="M121.21,230.93c-.95.1-1.76-.09-2.23-1.02,2.05-5.28,4.23-7.52,8.92-8.73-2.32,3.51-6.45,5.39-6.68,9.76Z"/>
      <path class="cls-12" d="M115.92,219.81c.22-.72.37-1.52,1.41-1.42.12.01.3.19.31.31.1,1.03-.7,1.18-1.42,1.4,0,0-.3-.29-.3-.29Z"/>
      <path class="cls-13" d="M273.01,256.08c-1.28-1.11-1.83-2.55-1.96-4.19,2.44.56,4.23,1.43,1.96,4.19Z"/>
    </g>
  </g>
</svg>