<?xml version="1.0" encoding="UTF-8"?>
<svg id="Layer_2" xmlns="http://www.w3.org/2000/svg" viewBox="0 0 408.28 416.01">
  <defs>
    <style>
      .cls-1 {
        fill: #d5d5d8;
      }

      .cls-2 {
        fill: #d2bfb4;
      }

      .cls-3 {
        fill: #cd9a76;
      }

      .cls-4 {
        fill: #76868e;
      }

      .cls-5 {
        fill: #9fabb2;
      }

      .cls-6 {
        fill: #979696;
      }

      .cls-7 {
        fill: #be6b5f;
      }

      .cls-8 {
        fill: #d68b51;
      }

      .cls-9 {
        fill: #575e63;
      }

      .cls-10 {
        fill: #e2b48b;
      }

      .cls-11 {
        fill: #c0bfbf;
      }

      .cls-12 {
        fill: #fefefe;
      }

      .cls-13 {
        fill: #876b55;
      }

      .cls-14 {
        fill: #826045;
      }

      .cls-15 {
        fill: #a54f45;
      }
    </style>
  </defs>
  <g id="Layer_1-2" data-name="Layer_1">
    <path class="cls-11" d="M42.13,331.22c-4.74-1.49-5.77-6.27-8-9.7-16.59-25.52-27.53-53.34-31.88-83.53-5.59-38.86-.77-76.48,14.9-112.53,9.38-21.57,21.87-41.18,37.77-58.65,27.63-30.36,61.39-50.58,100.94-60.88C177.48.3,199.56-1.15,222,.86c22.97,2.06,44.69,8.25,65.47,17.67,16.36,7.41,31.51,17.04,45.34,28.66,18.49,15.54,34.08,33.53,46.31,54.35,11.34,19.31,19.35,39.89,24.23,61.83,3.67,16.51,4.98,33.06,4.94,49.89-.06,25.28-5.85,49.3-15.02,72.66-6.05,15.4-14.25,29.6-23.93,42.98-1.1,1.53-2.01,3.09-4.17,3.07-1.54-1.5-3.47-.84-5.22-.85-15.27-.08-30.54-.09-45.81-.12-.3-1.44-1.04-2.95-.83-4.31,1.62-10.54.79-21.26,3.17-31.81,1.2-5.29,2.96-11.11.75-16.79,0-1.83.02-3.67.03-5.5.04-21.17-7.42-32.4-27.1-40.79.58-3.42-2.04-5.42-3.49-7.95-1.07-1.87-2.52-3.97-.53-5.92,6.9-6.77,13.9-13.43,20.96-20.04.92-.86,2.3-1.32,3.56-1.69,6.2-1.84,10.93-9.22,10.55-15.58-.5-8.43-5.88-13.58-11.58-18.65.31-1.04-.28-1.82-.76-2.63,3.47-4.14,3.67-9.51,4.67-14.36,1.02-4.99,3.68-5.86,7.85-5.89,8.52-.06,14.86-4.19,20.25-10.57,6.56-7.76,7.64-16.93,6.2-26.16-.52-3.35.31-9.05-5.42-10.36-.22-2.6-1.58-4.57-3.29-6.46-6.98-7.75-15.92-10-25.91-9.45-1.14-7.1-3.88-13.61-8.13-19.33-1.4-1.89-2.44-4.98-5.85-4.66-7.42-7.85-16.47-12.34-27.32-11.82-8.07.39-15.51,3.26-22.03,8.33-1.72,1.33-3.55,4.1-6.37,1.35-3.11-3.02-7.18-4.11-11.17-5.23-15.5-4.32-34.43,8.84-35.18,24.39-6.29,8.5,2.23,31.34,15.14,33.98-1.69,6.36-3.39,12.73-5.08,19.09-6.25,6.01-6.64,13.97-7.25,21.85-3.96.74-4.7,4.49-6.63,7.11-4.66,1.67-2.68,5.7-3.06,8.83-.26,2.17.34,4.02,3.1,4.04l1.05,2.04c-.78.46-1.31,1.2-1.13,2.04,1.41,6.63,1.35,13.44,2.34,20.07,1.69,11.39,7.44,21.33,16.2,28.54,5.77,4.75,4.58,9.45,3.42,14.92-5.92,2.28-11.4,5.3-15.92,9.82-9.41,9.41-16.08,20.61-21.16,32.81-5.69,13.65-11.52,27.27-9.74,42.63.04,5.03,2.52,9.39,3.83,14.07-.61.1-1.21.19-1.82.29-42.77-.02-85.54-.03-128.3-.05ZM77.2,178.2c.33,2.43,2.15,3.67,3.97,4.84,13.81,8.83,28.75,12.65,44.91,8.83,13.68-3.23,25-10.65,32.86-22.42,7.52-11.24,10.83-23.88,9.18-37.41-.82-6.71-1.07-13.87-6.68-19.01-2.57-7.78-7.26-14.43-13.07-19.79-17.24-15.89-37.14-20.46-59.52-12.15-23.23,8.62-38.67,36.28-33.98,60.41,2.93,15.09,10.8,26.96,22.34,36.7Z"/>
    <path class="cls-4" d="M350.18,352.03c-5.77,7.15-12.83,12.88-19.96,18.61-13.62,10.95-28.24,20.25-44.14,27.42-16.95,7.64-34.63,13.16-53.04,15.74-17.73,2.49-35.48,3.13-53.45.58-15.87-2.25-31.3-5.93-46.11-11.59-18.23-6.97-35.33-16.19-50.88-28.41-7.71-6.06-13.95-13.61-21.83-19.35-.97-.71-1.55-1.73-1.53-3,96.98,0,193.97,0,290.95,0Z"/>
    <path class="cls-5" d="M350.18,352.03c-96.98,0-193.97,0-290.95,0-7.05-4.55-10.97-11.95-16.34-18.02-.57-.65-.52-1.85-.77-2.79,42.77.02,85.53.04,128.3.05-.39,3.6,2.37,4.82,4.8,6.21,11.1,6.38,23.13,4.72,35.06,4,6.73-.41,13.25-3.86,20.1-1.85,11.31,3.32,22.62,6.88,34.36,7.91,13.83,1.21,27.62.22,40.23-6.48,3.99-2.12,8.27-4.46,9.19-9.71l-.03-.36c15.27.03,30.54.04,45.81.12,1.75,0,3.68-.65,5.22.85.3,4.28-2.77,6.88-5.15,9.66-3.09,3.62-7.09,6.41-9.83,10.4Z"/>
    <path class="cls-12" d="M313.2,76.08c9.98-.55,18.93,1.7,25.91,9.45,1.7,1.89,3.07,3.86,3.28,6.46.08.65.1,1.32.24,1.96,2.43,10.92-3.14,23.32-13.02,28.92-7.94,4.51-21.53,2.2-29.11-4.95-5.39-5.08-5.61-6.31-2.29-12.9.3-.59.67-1.17.88-1.79.3-.87,1.35-1.79.33-2.68-.94-.83-1.86-.11-2.63.54-7.69,6.49-16.67,8.42-26.38,7-14.11-2.07-25.4-8.25-30.9-22.35-.39-1-.35-2.7-1.95-2.39-1.82.35-1.61,2.23-1.17,3.28,1.43,3.41-.78,4.43-3.16,5.49-6.43,2.88-18.58.44-23.88-4.24-5.86-5.18-10.16-11.2-12.2-18.77.76-15.55,19.68-28.71,35.18-24.39,3.99,1.11,8.07,2.2,11.17,5.23,2.83,2.75,4.66-.02,6.37-1.35,6.52-5.07,13.96-7.94,22.03-8.33,10.85-.53,19.9,3.97,27.32,11.82.09,2.09,1.33,3.74,2.28,5.45,2.52,4.54,4.32,9.3,4.67,14.48.38,5.72,1.1,6.22,7.03,4.05Z"/>
    <path class="cls-12" d="M290.15,231.79c19.68,8.39,27.14,19.62,27.1,40.79,0,1.83-.02,3.67-.03,5.5-1.3.81-1.44,2.31-1.63,3.5-2.03,12.36-6.57,23.89-11.8,35.14-4.17,8.96-11.27,14.94-21.17,16.24-12.1,1.58-23.6-2.03-34.93-5.76-4.34-1.43-4.15-2.44-.98-5.52,3.47-3.38,8.12-5.85,9.51-11.04.52.02,1.03.04,1.55.06,1.53.44,2.36-.11,2.42-1.73,4.3-1.1,8.4-3.05,12.97-2.95,4.15,1.19,8.3,2.39,12.65,3.64-.18-2.3-1.56-3.18-2.91-3.57-5.28-1.52-5.2-4.91-3.95-9.32,2.12-7.51,3.8-15.13,5.68-22.7.31-1.23.93-2.46-.46-3.46-1.38.87-1.48,2.27-2.06,3.42-3.28,6.52-3.83,14.12-7.98,20.29-1.58-1.8-3.64-2.7-5.94-3.13-.4-.95-1.14-1.14-2.06-.91-.74-.36-1.48-.73-2.22-1.09-.19-3.37-2.15-5.06-5.35-5.03-2.91.03-4.38,1.85-4.53,4.73-1.95.3-4.04,0-5.78,1.26-.74-.04-1.47-.09-2.21-.13-.25-.18-.5-.36-.75-.54-.38-.85-.97-1.43-1.94-1.53l-.08.09c-.29-.38-.58-.76-.87-1.14-.76-.88-1.8-.94-2.74-.63-4,1.3-7.31,1.41-10.62-2.27-2.18-2.42-5.25-.31-5.41,2.39-.24,4.25-2.83,3.7-5.43,3.81-.07-1.33-.15-2.66-.22-3.99.38-8.21.01-16.48,1.31-24.63.63-3.97-.25-9.11,6.02-9.65.48,2.98-4.66,4.61-1.96,8.12-.18.61-.36,1.22-.54,1.82-1.1.49-1.95,1.05-.58,2.19-.13.94-.26,1.88-.39,2.81-1.99,1.22-2.18,4.12-.82,4.39,4.09.81,7.53,5.37,12.63,1.67,4-2.9,7.5-6.02,10.01-10.17,1.66-2.76,2.9-3.63,4.57-.1.32.67,1.17,1.09,1.78,1.62,2.74,8.2,9.46,11.47,17.02,13.61,1.52.43,2.73.03,3.11-2.1,1.28-7.29.59-14.21-3.88-20.27-2.83-3.83-1.86-5.07,2.39-6.72,8.8-3.41,17.68-7.17,21.52-17.03Z"/>
    <path class="cls-12" d="M168.42,316.91c-1.79-15.36,4.05-28.99,9.74-42.63,5.08-12.2,11.75-23.4,21.16-32.81,4.52-4.52,10-7.54,15.92-9.81.56.32,1.37.5,1.64.99,2.53,4.54,4.77,9.27,9.5,12.12.97.58.94,1.64-.12,2.39-7.24-.07-11.34,3.78-12.04,11.53-.71,7.89-1.29,15.79-1.92,23.69-9.55-1.36-8.93-7.8-6.63-15.11-2.46,2.29-2.9,4.73-3.42,7.11-.44,2-1.55,3.02-3.53,2.4-5.7-1.77-9.92-.58-13.61,4.62-2.91,4.1-5.37,12.93-2.09,16.22,2.36,2.37,3.1,4.16,1.35,7.64,11.27-5.93,22.8-7.85,33.85-11.27,8.43-1.2,16.47-4.74,25.2-4.04,3.09,5.66,4.79,11.78,5.85,18.1-17.94,7.51-35.22,16.9-54.91,19.47-8.23,1.08-15.79.11-21.8-6.47-1.3-1.42-2.02-3.51-4.13-4.14Z"/>
    <path class="cls-4" d="M77.2,178.2c-11.54-9.74-19.41-21.61-22.34-36.7-4.68-24.13,10.75-51.79,33.98-60.41,22.38-8.3,42.29-3.74,59.52,12.15,5.81,5.36,10.51,12.01,13.07,19.79,2.42,9.88,3.85,19.74,1.89,29.99-5.82,30.51-36.2,50.33-66.47,43.31-7.07-1.64-13.16-5.3-19.66-8.13ZM126.3,89.58c-1.04-.49-2.03-1.16-3.13-1.45-18.61-4.8-35.03-1.24-48.09,13.43-10.92,12.27-14.4,26.55-9.99,42.54.12.99.08,2.03.37,2.97,7.53,24.54,36.22,38.26,60.44,28.93,17.75-6.84,29.6-24.3,29.48-43.45-.12-19.93-11.26-36.39-29.08-42.96Z"/>
    <path class="cls-1" d="M197.14,69.12c2.05,7.57,6.34,13.59,12.2,18.77,5.3,4.68,17.45,7.11,23.88,4.24,2.38-1.07,4.59-2.08,3.16-5.49-.44-1.05-.65-2.93,1.17-3.28,1.61-.3,1.56,1.4,1.95,2.39,5.5,14.09,16.8,20.28,30.9,22.35,9.71,1.43,18.69-.51,26.38-7,.77-.65,1.69-1.37,2.63-.54,1.02.89-.03,1.81-.33,2.68-.21.62-.58,1.2-.88,1.79-3.32,6.59-3.1,7.82,2.29,12.9,7.58,7.15,21.17,9.45,29.11,4.95,9.88-5.61,15.45-18,13.02-28.92-.14-.64-.17-1.31-.24-1.96,5.73,1.31,4.89,7.01,5.42,10.36,1.44,9.23.37,18.39-6.2,26.16-5.39,6.38-11.73,10.51-20.25,10.57-4.17.03-6.83.9-7.85,5.89-1,4.85-1.2,10.22-4.67,14.36-7.9-5.95-15.8-11.91-23.71-17.86,1.03-3.83,2.29-7.62,3.05-11.51,1.82-9.26-2.95-14.82-12.37-14.86-3.3-.02-6.62.37-9.91-.57-9.27-2.65-17.65-6.74-24-14.25-2.13-2.51-4.04-3.32-7.67-1.99-4.35,1.59-9.2,2.83-14.08,1.02-3.81-1.41-6.97-1.04-7.88,3.79-12.91-2.63-21.44-25.48-15.14-33.98Z"/>
    <path class="cls-1" d="M168.42,316.91c2.11.63,2.83,2.71,4.13,4.14,6.01,6.59,13.57,7.55,21.8,6.47,19.69-2.57,36.97-11.96,54.91-19.47,1.79,2.28,4.77,1.36,6.95,2.59-1.39,5.2-6.03,7.67-9.51,11.05-3.17,3.08-3.36,4.09.98,5.52,11.33,3.73,22.83,7.34,34.93,5.76,9.9-1.29,17-7.28,21.17-16.24,5.24-11.25,9.77-22.78,11.8-35.14.2-1.19.34-2.69,1.63-3.5,2.22,5.68.45,11.5-.74,16.79-2.38,10.55-1.55,21.27-3.17,31.81-.21,1.36.53,2.87.83,4.31,0,0,.03.36.03.36-5.91-.65-11.25-.27-15.74,4.74-2.75,3.06-7.15,4.05-11.24,4.97-9.64,2.18-19.11.69-28.59-1.21-11.41-2.29-22.29-6.34-33.35-9.81.4-.52.68-1.24,1.21-1.51,5.14-2.68,10.37-5.2,15.49-7.92,3.05-1.62,5.87-3.61,7.76-6.64-8.5,3.95-16.59,8.43-24.73,12.83-1.4.76-1.8,1.82-1.81,3.23-7.72,1.88-15.38,4.03-23.17,5.56-6.89,1.35-13.86,1.23-20.55-1.51-2.42-.99-4.26-3.31-7.19-3.09-1.31-4.68-3.79-9.04-3.83-14.07Z"/>
    <path class="cls-12" d="M212.28,103.1c.9-4.84,4.06-5.2,7.88-3.79,4.88,1.8,9.73.57,14.08-1.02,3.63-1.33,5.54-.53,7.67,1.99,6.35,7.51,14.73,11.6,24,14.25,3.3.94,6.61.56,9.91.57,9.42.05,14.19,5.6,12.37,14.86-.76,3.89-2.02,7.67-3.05,11.51-1.65-.78-3.3-1.55-4.94-2.35-13.43-6.59-27.11-12.49-42-14.97-.67-.12-1.33-.24-2-.36-.31-.05-.62-.09-.92-.14-.36-.03-.71-.07-1.07-.1-2.99-.42-5.97-.83-8.96-1.25-6.01-.04-12.03-.07-18.04-.11,1.69-6.36,3.39-12.73,5.08-19.09Z"/>
    <path class="cls-4" d="M172.25,330.98c2.93-.21,4.77,2.1,7.19,3.09,6.69,2.74,13.66,2.86,20.55,1.51,7.79-1.53,15.45-3.68,23.17-5.56.7,0,1.39.02,2.08.03,11.06,3.47,21.94,7.52,33.35,9.81,9.48,1.9,18.95,3.39,28.59,1.21,4.09-.93,8.49-1.91,11.24-4.97,4.49-5,9.83-5.39,15.74-4.74-.92,5.25-5.2,7.59-9.19,9.71-12.61,6.7-26.4,7.69-40.23,6.48-11.74-1.03-23.05-4.59-34.36-7.91-6.85-2.01-13.37,1.44-20.1,1.85-11.92.72-23.95,2.38-35.06-4-2.43-1.4-5.18-2.61-4.8-6.21.61-.1,1.21-.19,1.82-.29Z"/>
    <path class="cls-5" d="M77.2,178.2c6.5,2.83,12.6,6.49,19.66,8.13,30.27,7.02,60.65-12.79,66.47-43.31,1.95-10.25.52-20.11-1.89-29.99,5.61,5.14,5.86,12.3,6.68,19.01,1.65,13.52-1.66,26.16-9.18,37.41-7.86,11.76-19.18,19.18-32.86,22.42-16.16,3.82-31.1,0-44.91-8.83-1.82-1.16-3.64-2.41-3.97-4.84Z"/>
    <path class="cls-2" d="M290.15,231.79c-3.84,9.86-12.72,13.62-21.52,17.03-4.25,1.65-5.22,2.89-2.39,6.72,4.47,6.05,5.17,12.97,3.88,20.27-.37,2.13-1.58,2.53-3.11,2.1-7.56-2.13-14.29-5.4-17.02-13.61.16-.16.33-.3.5-.45,3.79,3.66,7.39,7.54,12.64,9.29,2.37.79,3.15.4,3.25-2.28.2-5.43-.76-10.42-3.4-15.23-1.54-2.8-3.85-5.2-4.59-8.43,9.15-2.14,17.85-5.2,24.9-11.79,2.9-2.71,5.03-5.26,1.53-9.21-1.71-1.94-2.59-4.62-3.84-6.96,3-5.54,8.04-9.26,12.21-13.76,5-2.13,8.77-5.61,11.35-10.39,14.81-4.84,15.06-19.19,5.85-25.92.66-1.95-1.09-3.3-1.25-5.05.16-.72.32-1.44.47-2.16,5.71,5.06,11.08,10.21,11.58,18.65.38,6.36-4.36,13.74-10.55,15.58-1.25.37-2.64.83-3.56,1.69-7.05,6.61-14.06,13.27-20.96,20.04-1.99,1.95-.54,4.05.53,5.92,1.45,2.53,4.07,4.53,3.49,7.95Z"/>
    <path class="cls-2" d="M226.26,247.15c1.06-.75,1.09-1.81.12-2.39-4.73-2.85-6.96-7.58-9.5-12.12-.27-.48-1.08-.66-1.64-.99,1.15-5.48,2.35-10.18-3.42-14.93-8.76-7.21-14.52-17.15-16.2-28.54-.98-6.63-.93-13.44-2.34-20.07-.18-.85.35-1.58,1.13-2.04,1.26.99,1.58,3.23,3.83,2.93.13,6.77-.31,13.54.97,20.3,1.69,8.97,5.84,16.5,12.59,22.44,3.74,3.29,7.42,6.56,10.51,10.48-1.89,3.41-4.93,7-1.81,10.82,4.01,4.92,7.76,10.46,14.67,11.93-3.55,5.33-9.46,8.83-11.81,15.1-2.71-3.52,2.43-5.14,1.96-8.12.32-1.6.65-3.19.97-4.79Z"/>
    <path class="cls-14" d="M207.2,122.19c6.01.04,12.03.07,18.04.11-3.14,6.08-8.53,9.49-14.58,11.97-3.05,1.25-4.69,3.29-5.6,6.42-1.15,3.95-1.54,8.16-3.73,11.78-1.88-2.58-.64-5.66-1.38-8.42.62-7.88,1-15.84,7.25-21.85Z"/>
    <path class="cls-13" d="M309.6,161.96c-.16.72-.32,1.44-.47,2.16-2.49-2.01-4.8-4.29-7.49-5.98-9.43-5.9-16.9-14.69-27.88-18.36-6.13-2.05-11.78-5.63-17.96-7.41-5.06-1.46-9.58-4.38-14.9-5.05-1.53-.19-2.62-1.42-2.71-3.17,14.89,2.48,28.57,8.38,42,14.97,1.64.8,3.29,1.57,4.94,2.35,7.9,5.95,15.8,11.91,23.71,17.86.49.81,1.07,1.59.76,2.63Z"/>
    <path class="cls-3" d="M199.95,144.05c.74,2.76-.5,5.85,1.38,8.42-1.03,5.51-2.06,11.02-3.1,16.54-2.25.3-2.57-1.94-3.83-2.93-.35-.68-.7-1.36-1.05-2.04-1.29-4.29-1.29-8.58-.03-12.88,1.93-2.63,2.68-6.37,6.63-7.11Z"/>
    <path class="cls-1" d="M313.2,76.08c-5.93,2.17-6.65,1.67-7.03-4.05-.35-5.18-2.15-9.95-4.67-14.48-.95-1.71-2.19-3.36-2.28-5.45,3.4-.32,4.44,2.77,5.85,4.66,4.25,5.72,6.99,12.22,8.13,19.33Z"/>
    <path class="cls-2" d="M193.32,151.16c-1.25,4.3-1.25,8.59.03,12.88-2.76-.02-3.36-1.87-3.09-4.04.38-3.14-1.6-7.17,3.06-8.83Z"/>
    <path class="cls-2" d="M218.2,293.99c-11.05,3.42-22.58,5.34-33.85,11.27,1.75-3.48,1.02-5.28-1.35-7.64-3.28-3.28-.81-12.12,2.09-16.22,3.69-5.2,7.91-6.39,13.61-4.62,1.99.62,3.09-.4,3.53-2.4.52-2.38.96-4.83,3.42-7.11-2.3,7.31-2.92,13.75,6.63,15.11,2.13.93,3.28,3.3,5.67,3.85.07,1.33.15,2.66.22,3.99,0,1.26.02,2.52.02,3.78ZM200.16,282.12c-2.07-.55-4.14-1.11-6.21-1.66-1.67-.45-3.36-.93-3.78,1.6-2.55.08-3,1.84-3.1,3.88-1.24.27-3.53-.36-1.97,2.3-.24,1.33-.48,2.67-.73,4-.02.98-.19,2.4.91,2.51,3.42.33,6.72,1.06,10.03,1.9.14.03.54-1,.82-1.53,3.32-1.97,7.22-1.67,10.79-2.71,4.84-1.41,5.3-2.65,2.17-6.68-1.36-1.75-3.05-1.64-4.84-1.71-.72-2.04-1.63-3.63-4.1-1.9Z"/>
    <path class="cls-7" d="M223.33,260.07c2.35-6.27,8.26-9.76,11.81-15.1-.48-4.15,4.84-5.01,4.99-8.79,4.12-.53,8.22-.7,12.15,1.03-1.01,3.67-4.54,5.72-5.95,9.01-1.48,3.47-3.59,3.45-6.3,2.04-1.16-.61-2.71-2.02-3.37-.41-1.83,4.5-5.39,8.03-7.84,13.24,3.56-.84,5.07-2.95,7.05-4.21,2.13-1.35,3.23-4.48,6.58-3.59-1.72,9.51-8.04,15.85-16.4,17.03-3.13.44-4.14-.65-4.24-3.42.13-.94.26-1.88.39-2.81.85-.55.94-1.31.58-2.19.18-.61.36-1.22.54-1.82Z"/>
    <path class="cls-10" d="M268.18,291.2c2.3.43,4.36,1.33,5.94,3.13-.05,2.62-.11,5.25-.16,7.87-5.72.05-11.37,1.41-17.13.94-1.83-.15-3.67.06-4.61-2.01-1.62-3.55-3.66-6.95-3.99-10.98,1.75-1.25,3.83-.95,5.79-1.25,3.29.1,6.59.2,9.88.29.74.36,1.48.73,2.22,1.09.27,1.25.62,2.32,2.06.91Z"/>
    <path class="cls-1" d="M217.96,286.22c-2.39-.55-3.54-2.92-5.67-3.85.64-7.89,1.21-15.79,1.93-23.68.7-7.75,4.8-11.6,12.04-11.53-.32,1.6-.65,3.2-.97,4.79-6.27.54-5.39,5.67-6.02,9.64-1.3,8.15-.94,16.41-1.31,24.63Z"/>
    <path class="cls-3" d="M248.23,290.16c.33,4.02,2.37,7.42,3.99,10.98.94,2.07,2.79,1.86,4.61,2.01,5.76.47,11.41-.9,17.13-.95.47,1.44-.17,2.64-.82,3.84-4.57-.1-8.68,1.84-12.97,2.95-1.34-.17-2.05.55-2.42,1.73-.52-.02-1.03-.04-1.55-.06-2.18-1.23-5.16-.31-6.95-2.59-1.06-6.32-2.76-12.43-5.85-18.1-.03-.66-.05-1.33-.08-1.99.97.1,1.56.68,1.94,1.53.15.33.4.51.76.54.74.04,1.47.09,2.21.13Z"/>
    <path class="cls-2" d="M221.83,266.9c.1,2.77,1.11,3.87,4.24,3.42,8.36-1.19,14.68-7.52,16.4-17.03,1.58-1.01,3.21-1.19,4.89-.27.11,3.88,1.63,7.36,3.13,10.83-.17.15-.34.29-.5.45-.61-.53-1.46-.95-1.78-1.62-1.67-3.53-2.9-2.66-4.57.1-2.5,4.16-6.01,7.27-10.01,10.17-5.1,3.7-8.54-.87-12.63-1.67-1.36-.27-1.18-3.16.82-4.39Z"/>
    <path class="cls-11" d="M273.15,306.03c.65-1.2,1.29-2.4.82-3.84.05-2.62.11-5.25.16-7.87,4.15-6.17,4.7-13.77,7.98-20.29.58-1.15.68-2.56,2.06-3.42,1.38,1,.76,2.24.46,3.46-1.89,7.57-3.57,15.2-5.68,22.7-1.25,4.42-1.33,7.8,3.95,9.32,1.35.39,2.73,1.27,2.91,3.57-4.35-1.25-8.5-2.44-12.65-3.64Z"/>
    <path class="cls-11" d="M243.33,287.96c.03.66.05,1.33.08,1.99-8.73-.7-16.78,2.84-25.2,4.04,0-1.26-.01-2.52-.02-3.78,2.6-.1,5.19.44,5.43-3.8.15-2.7,3.23-4.81,5.41-2.39,3.31,3.68,6.62,3.57,10.62,2.27.94-.31,1.99-.25,2.74.63.29.38.58.76.87,1.14l.08-.09Z"/>
    <path class="cls-2" d="M263.9,289.2c-3.29-.1-6.59-.19-9.88-.29.15-2.88,1.62-4.71,4.53-4.73,3.2-.03,5.16,1.66,5.35,5.03Z"/>
    <path class="cls-2" d="M268.18,291.2c-1.44,1.41-1.79.34-2.06-.91.92-.23,1.66-.04,2.06.91Z"/>
    <path class="cls-1" d="M257.76,310.7c.38-1.18,1.09-1.89,2.42-1.73-.06,1.62-.89,2.16-2.42,1.73Z"/>
    <path class="cls-2" d="M222.79,261.89c.36.88.28,1.63-.58,2.19-1.37-1.14-.52-1.7.58-2.19Z"/>
    <path class="cls-3" d="M243.24,288.05c-.29-.38-.58-.76-.87-1.14.29.38.58.76.87,1.14Z"/>
    <path class="cls-10" d="M246.02,290.02c-.36-.03-.61-.21-.76-.54.25.18.5.36.76.54Z"/>
    <path class="cls-12" d="M126.3,89.58c17.82,6.57,28.96,23.04,29.08,42.96.12,19.15-11.73,36.62-29.48,43.45-24.22,9.33-52.91-4.39-60.44-28.93-.29-.94-.25-1.98-.37-2.97,1.46-.09,1.94-.66,1.59-2.25-1.93-8.83,1.58-16.87,3.83-25.08.41-1.48,1.3-2.68,3.02-2.91,1.15.65,2.29,1.33,3.46,1.95.99.52,2.19,1.46,3.05.11.87-1.36-.43-2.1-1.41-2.69-1.41-.86-2.9-1.59-4.36-2.38,2.09-6.47,7.7-9.37,12.88-12.72.89,1.35,1.81,2.68,2.66,4.05.54.88,1.09,1.72,2.26,1.17,1.12-.53,1.09-1.54.63-2.49-.78-1.6-1.66-3.16-2.49-4.73,4.93-4.75,11.37-4.98,17.59-5.88-.05.33-.17.66-.13.97.34,2.42-1.55,6.67,1.41,6.82,3.49.17,1.3-4.18,2.01-6.43.14-.44-.04-.98-.07-1.47,4.19.2,8.43-.63,12.56.82,1.12.39,2.26-.03,2.71-1.39ZM106.31,137.3c3.5.33,6.56.08,7.96-4.06.43-1.26,1.98-2.18,3.1-3.15,2.9-2.5,5.86-4.93,8.79-7.4.95-.8,1.74-1.77.74-2.96-.86-1.02-1.9-.22-2.68.25-2.99,1.81-5.99,3.61-8.83,5.64-2.75,1.96-3.9,1.94-3.86-1.93.06-5.82-.26-11.65-.47-17.48-.04-1.16-.19-2.51-1.73-2.6-1.55-.09-1.89,1.17-1.95,2.37-.46,9.7.24,19.49-2.33,29.03-6.34,6.92-13.27,13.36-18.17,21.54,7.2-5.72,13.72-12.09,19.42-19.27ZM71.84,131.33c-1.38.41-4.04-.68-3.73,1.75.3,2.35,2.99.98,4.58,1.28,1.11.21,3.14.57,3.04-1.33-.12-2.46-2.41-1.43-3.89-1.71ZM110.69,171.4c-.68-1.28,1.11-3.87-1.51-4.15-1.69-.18-1.24,1.99-1.2,3.13.05,1.46-.98,3.75,1.28,4.09,1.99.3,1.17-1.78,1.42-3.07ZM143.54,111.18c-1.26,1.46-4.37,1.4-4.88,4.3-.13.77,1,1.53,1.77,1.13,2.06-1.07,4.75-1.57,5.35-4.33.18-.82-.81-1.29-2.25-1.1ZM126.81,162.06c-1.24.44-1.9,1.32-1.28,2.29,1.17,1.82,1.17,4.63,3.89,5.16.75.14,1.67-.73,1.2-1.65-1.07-2.07-1.23-4.81-3.81-5.8ZM74.97,154.21c1.8-1.22,4.55-1.49,5.63-3.96.36-.82-.67-1.57-1.52-1.37-2.4.56-4.69,1.55-5.83,3.89-.35.72.5,1.44,1.72,1.43ZM145.61,153.25c-.49-2.45-3.07-2.55-4.67-3.75-1.03-.77-2.71-.68-2.62.81.17,2.61,3.14,2.41,4.75,3.65.78.6,1.87.69,2.54-.7ZM89.47,169.16c2.07-.95,2.77-3.06,3.58-4.99.44-1.04-.22-2.26-1.39-2.02-2.33.47-2.53,2.86-3.34,4.6-.43.94-.33,1.99,1.15,2.4ZM131.16,98.3c.21-1.18-.22-2.18-1.06-2.07-2.8.37-2.94,3.19-4.09,5.03-.63,1.02.06,2.23,1.21,2.01,2.71-.52,2.67-3.43,3.93-4.98ZM147.36,134.49c1.41-.41,3.88.86,3.69-1.91-.15-2.16-2.29-1.51-3.62-1.4-1.56.13-4.32-1.11-4.16,1.83.13,2.37,2.68.98,4.09,1.48Z"/>
    <path class="cls-1" d="M126.3,89.58c-.44,1.36-1.59,1.78-2.71,1.39-4.13-1.45-8.37-.62-12.56-.82-1.08.03-2.15.07-3.23.1-6.22.89-12.66,1.12-17.59,5.88-1.76-.47-2.78.21-3.05,2-5.18,3.35-10.79,6.25-12.88,12.72-1.25.75-1.32,1.8-.75,3.01-1.72.23-2.62,1.43-3.02,2.91-2.25,8.21-5.77,16.25-3.83,25.08.35,1.59-.13,2.16-1.59,2.25-4.41-16-.93-30.28,9.99-42.54,13.06-14.67,29.48-18.23,48.09-13.43,1.09.28,2.09.96,3.13,1.45Z"/>
    <path class="cls-5" d="M225.25,330.04c-.69,0-1.39-.02-2.08-.03,0-1.41.4-2.47,1.81-3.23,8.14-4.39,16.23-8.88,24.73-12.83-1.89,3.03-4.71,5.02-7.76,6.64-5.12,2.72-10.34,5.25-15.49,7.92-.52.27-.81,1-1.21,1.51Z"/>
    <path class="cls-10" d="M198.23,169c1.03-5.51,2.06-11.03,3.1-16.54,2.19-3.62,2.58-7.83,3.73-11.78.91-3.13,2.55-5.17,5.6-6.42,6.05-2.48,11.44-5.89,14.58-11.97,2.99.42,5.97.83,8.96,1.25.04.69,0,1.43.93,1.6l-.09.26c2.18,7.28,7.51,11.81,13.65,15.64q8.1,5.05,8.98-4.48c4.75,4.04,9.15,7.8,13.55,11.55-2.26-.24-4.52-.61-6.78-.68-1.55-.05-3.1.58-3.21,2.39-.13,2.23,1.77,2.09,3.17,2.04,3.44-.13,6.43.91,9.25,2.83,1.03.7,1.86,3.04,3.55,1.34,1.35-1.35-.07-2.7-.82-3.92-.41-.67-.8-1.35-1.2-2.03,4.96.34,9.26,3.06,14.11,3.86,1.09.18,1.63,1.14,1.76,2.15.79,6.02,3.6,11.7,2.94,17.95-2.35.56-2.38,2.79-2.58,4.37-.47,3.86-2.02,7.34-3.15,10.97-4.99,15.99-15.08,27.11-30.89,33.23-7.41,2.87-15.01,2.09-22.55,2.81-1.21-.12-2.41-.23-3.62-.35-.86-1.26-2.07-.93-3.26-.71-1.96-.52-2.98-3.5-5.65-2.15-3.08-3.91-6.77-7.18-10.51-10.48-6.74-5.94-10.9-13.47-12.59-22.44-1.27-6.76-.84-13.53-.97-20.3ZM241.57,199.89c6.67.29,12.38-2,17.29-6.37.99-.88,2.97-1.6,1.36-3.48-1.51-1.76-2.58-.48-3.59.7-1.56,1.82-3.6,2.93-5.8,3.72-9.51,3.42-18.22,1.91-26.15-4.33-1.08-.85-2.19-2.94-3.63-1.51-1.73,1.73.58,2.9,1.59,3.94,5.16,5.36,11.83,6.97,18.93,7.32ZM269.72,166.06c-.4-2.87-1.74-5.3-5.27-5.01-4.07.33-5.45,3.16-5.44,6.93,0,3.47,1.4,6.1,5.1,5.87,4.43-.27,5.19-3.93,5.61-7.79ZM223.88,158.5c-.58-2.69-1.44-5.75-5.27-5.6-3.85.16-5.26,3.07-5.33,6.51-.06,3.36,1.5,6.06,5.1,6.05,3.97-.02,4.85-3.33,5.5-6.96ZM237.99,162.19c-3.75,1.28-4.89,4.39-7,6.5-2.34,2.33-3.84,4.88-2.29,7.9,1.6,3.11,4.53,4.96,8.19,4.45,2.11-.29,5.92,1.77,5.96-2.01.04-3.36-3.6-1.64-5.6-1.85-4.82-.5-6.07-2.76-3.57-6.93,1.46-2.44,3.77-4.46,4.3-8.07ZM222.57,144.79c.66.07,1.32.21,1.97.19,1.35-.05,3.27.87,3.57-1.37.21-1.54-1.2-2.22-2.5-2.64-4.7-1.5-9.12-1.11-13.05,2.1-.89.73-1.81,1.68-1.1,2.96.79,1.42,1.98.84,2.98.24,2.54-1.52,5.28-1.76,8.13-1.48ZM238.98,206.12c-.83,0-1.49-.07-2.14.01-1.17.15-3.11-.66-3.09,1.27.01,1.5,1.77,1.65,3.12,1.66.66,0,1.34.13,1.96,0,1.73-.39,4.9,1.1,4.88-1.47-.02-2.64-3.22-.89-4.74-1.47Z"/>
    <path class="cls-14" d="M293.99,174.04c.66-6.25-2.16-11.93-2.94-17.95-.13-1.02-.67-1.97-1.76-2.15-4.84-.79-9.15-3.52-14.11-3.86l.04.03c-.22-1.27-.99-1.42-2.05-1.03l.05.03c-.19-1.32-.98-1.44-2.05-1.03,0,0,.04.03.04.03-4.4-3.75-8.81-7.51-13.55-11.55q-.88,9.54-8.98,4.48c-6.14-3.83-11.47-8.35-13.65-15.64.39-.54.77-1.08,1.15-1.62.67.12,1.33.24,2,.36.09,1.75,1.18,2.98,2.71,3.17,5.31.68,9.84,3.59,14.9,5.05,6.18,1.79,11.83,5.36,17.96,7.41,10.99,3.67,18.45,12.46,27.88,18.36,2.69,1.68,5.01,3.97,7.49,5.98.16,1.75,1.91,3.1,1.25,5.05-6.24-1.35-8.21,3.53-10.92,7.41-.79,1.13-.88,3.32-2.76,3.01-1.7-.28-1.55-2.33-2.08-3.67-.24-.61-.42-1.25-.63-1.88Z"/>
    <path class="cls-13" d="M236.19,123.79c-.38.54-.77,1.08-1.15,1.62,0,0,.09-.26.09-.26.05-.5.1-1,.14-1.5.31.05.62.09.92.14Z"/>
    <path class="cls-14" d="M235.27,123.65c-.05.5-.1,1-.14,1.5-.92-.18-.89-.91-.93-1.6.36.03.71.07,1.07.1Z"/>
    <path class="cls-3" d="M293.99,174.04c.21.63.39,1.27.63,1.88.53,1.34.38,3.38,2.08,3.67,1.88.31,1.97-1.88,2.76-3.01,2.71-3.88,4.68-8.76,10.92-7.41,9.2,6.73,8.96,21.08-5.85,25.92-7.06.07-8.79,1.65-11.35,10.39-4.17,4.5-9.21,8.23-12.21,13.76-1-.16-1.87.09-2.8.55-6.84,3.31-13.81,6.39-19.06,12.18-.67-.71-1.38-.53-2.22-.26-7.12,2.29-14.06,2.17-20.7-1.64-1.06-1.36-1.1-3.03-1.37-4.63,7.54-.73,15.14.06,22.55-2.81,15.81-6.12,25.89-17.24,30.89-33.23,1.13-3.63,2.68-7.11,3.15-10.97.19-1.58.23-3.81,2.58-4.37ZM301.53,188.88c2.39-4.3,3.44-9.09,8.68-10.05.67-.12.99-.9.71-1.62-.5-1.27-1.48-.93-2.49-.73-4.33.87-6.57,4.64-6.9,12.39Z"/>
    <path class="cls-15" d="M259.11,231.96c5.25-5.79,12.22-8.87,19.06-12.18.94-.45,1.8-.7,2.8-.55,1.25,2.34,2.13,5.02,3.84,6.96,3.5,3.96,1.37,6.5-1.53,9.21-7.05,6.59-15.76,9.64-24.9,11.79-3.78-.43-5.03.26-2.75,4.25,1.94,3.39,2.86,7.35,4.24,11.07-.55.41-1.09.82-1.64,1.23-2.01-2.38-4.09-4.7-6-7.16-1.31-1.68-2.12-3.89-4.87-3.56-1.69-.92-3.31-.73-4.89.27-3.35-.89-4.45,2.24-6.58,3.59-1.99,1.26-3.49,3.37-7.05,4.21,2.45-5.21,6.01-8.74,7.84-13.24.65-1.61,2.2-.2,3.37.41,2.71,1.41,4.82,1.42,6.3-2.04,1.41-3.3,4.94-5.34,5.95-9.01,2.59-1.33,5.43-2.34,6.82-5.24ZM270.18,227.06c-2.11-.1-3.01,1.8-4.49,2.74-1.26.8-2.25,2.02-.64,3.01,1.1.68.47,3.16,2.36,2.36,1.26-.54,2.94-1.78,2.4-3.32-.63-1.81.28-3.17.41-4.74,2.02-.19,4.47.75,5.44-2.18-1.75.93-4.67-1.29-5.49,2.13ZM274.19,232.08c1.49-.08,2.94-.03,4.36.64,1.58.74,2.42-.24,3.08-1.55.79-1.56.36-3-.6-4.16-1.24-1.49-2.48-.15-3.44.51-1.6,1.11-3.35,2.25-3.37,4.58-2.05.07-2.55,1.94-3.45,3.19-.8,1.12-1.97,2.39-1.18,4.01.38.78,1.15.47,1.74.21,1.67-.76,3.46-1.61,3.65-3.64.12-1.23-.5-2.53-.79-3.8ZM261.11,237.79c-.14-1.14-.71-1.8-1.65-1.53-2.59.75-5.02,1.93-5.73,4.79-.24.97,1.16,1.12,1.89.95,2.49-.57,4.63-1.71,5.5-4.21ZM265.08,240.59c-.07-.34.45-2.22-1.06-1.98-1.95.3-2.36,2.43-2.73,4.18-.16.78-.09,1.72,1.13,1.58,1.8-.21,3.14-.92,2.66-3.78Z"/>
    <path class="cls-7" d="M247.36,253.01c2.74-.33,3.56,1.88,4.87,3.56,1.91,2.46,3.99,4.78,6,7.16.55-.41,1.09-.82,1.64-1.23-1.37-3.71-2.3-7.68-4.24-11.07-2.28-3.98-1.03-4.68,2.75-4.25.74,3.24,3.05,5.63,4.59,8.44,2.64,4.81,3.6,9.81,3.4,15.23-.1,2.67-.88,3.06-3.25,2.28-5.24-1.74-8.84-5.63-12.64-9.29-1.51-3.48-3.02-6.95-3.13-10.84Z"/>
    <path class="cls-14" d="M293.18,205.47c2.56-8.74,4.29-10.32,11.35-10.39-2.58,4.78-6.35,8.25-11.35,10.39Z"/>
    <path class="cls-15" d="M234.82,225.43c.27,1.6.31,3.26,1.37,4.63,0,.67.02,1.35.03,2.02-4.04-1.43-7.61.82-7.69,4.89-.03,1.55,1.12,2.34,2.34,2.9.91.41,2.78.2,2.64-.26-1.02-3.31,4.07-4.27,2.71-7.53,1.31,1.37,2.61,2.73,3.92,4.1-.16,3.79-5.47,4.65-4.99,8.79-6.91-1.47-10.66-7.01-14.67-11.93-3.12-3.82-.08-7.41,1.81-10.82,2.67-1.35,3.69,1.64,5.65,2.15-.77,1.19-2.64.13-3.54,2.15,1.67.6,2.51,2.81,4.77,2.41,2.07-.36,2.13-2.15,2.03-3.85,1.21.12,2.41.23,3.62.35Z"/>
    <path class="cls-10" d="M187.07,285.93c.09-2.04.55-3.8,3.1-3.88,3.93-.67,7.26,1.92,11.05,2.03h-.02c.77,1.8,2.29,2.1,4.01,1.99.13.08.27.16.4.24-.14-.08-.28-.15-.41-.23-.35-.64-.7-1.29-1.05-1.93l.11-.13c1.78.07,3.48-.05,4.84,1.71,3.13,4.03,2.67,5.27-2.17,6.68-3.57,1.04-7.47.73-10.79,2.7-3.56-2.45-7.98-1.35-11.77-2.87.24-1.33.48-2.67.73-4.01,5.44-1.28,10.29,2.09,15.6,2.14-4.11-3-8.5-4.89-13.63-4.44Z"/>
    <path class="cls-3" d="M187.07,285.93c5.13-.45,9.52,1.44,13.63,4.44-5.31-.05-10.16-3.43-15.6-2.14-1.56-2.66.73-2.03,1.97-2.3Z"/>
    <path class="cls-3" d="M184.38,292.24c3.78,1.52,8.21.43,11.77,2.87-.28.54-.69,1.57-.82,1.53-3.31-.83-6.62-1.56-10.03-1.9-1.1-.11-.94-1.53-.91-2.51Z"/>
    <path class="cls-3" d="M201.22,284.09c-3.79-.11-7.12-2.7-11.05-2.03.42-2.52,2.11-2.04,3.78-1.6,2.07.55,4.14,1.11,6.21,1.66.35.65.71,1.31,1.06,1.96Z"/>
    <path class="cls-10" d="M201.22,284.09c-.35-.65-.7-1.31-1.06-1.96,2.46-1.73,3.38-.13,4.1,1.9,0,0-.11.13-.1.13-.98-.03-1.97-.05-2.95-.08h.02Z"/>
    <path class="cls-10" d="M240.14,236.18c-1.31-1.37-2.61-2.73-3.92-4.1h0c0-.67-.02-1.34-.03-2.02,6.64,3.82,13.58,3.94,20.7,1.64.83-.27,1.55-.45,2.22.26-1.39,2.9-4.23,3.91-6.82,5.24-3.93-1.72-8.03-1.55-12.15-1.03Z"/>
    <path class="cls-4" d="M105.06,135.02c2.57-9.53,1.88-19.33,2.33-29.03.06-1.2.4-2.47,1.95-2.37,1.54.09,1.69,1.44,1.73,2.6.21,5.83.53,11.65.47,17.48-.04,3.87,1.12,3.89,3.86,1.93,2.84-2.03,5.84-3.83,8.83-5.64.78-.47,1.82-1.27,2.68-.25.99,1.18.21,2.15-.74,2.96-2.93,2.47-5.89,4.9-8.79,7.4-1.13.97-2.68,1.89-3.1,3.15-1.4,4.13-4.46,4.39-7.96,4.06-.14-.91-.33-1.8-1.25-2.27Z"/>
    <path class="cls-6" d="M105.06,135.02c.92.48,1.11,1.36,1.25,2.27-5.71,7.18-12.22,13.55-19.42,19.27,4.91-8.18,11.83-14.62,18.17-21.54Z"/>
    <path class="cls-4" d="M107.81,90.26c1.08-.03,2.15-.07,3.23-.1.03.49.21,1.03.07,1.47-.71,2.26,1.48,6.61-2.01,6.43-2.97-.15-1.07-4.4-1.41-6.82-.04-.31.08-.65.13-.97Z"/>
    <path class="cls-9" d="M71.84,131.33c1.48.27,3.77-.76,3.89,1.71.1,1.9-1.93,1.53-3.04,1.33-1.59-.3-4.28,1.07-4.58-1.28-.31-2.44,2.35-1.35,3.73-1.75Z"/>
    <path class="cls-9" d="M110.69,171.4c-.25,1.29.57,3.37-1.42,3.07-2.26-.34-1.23-2.63-1.28-4.09-.04-1.15-.49-3.31,1.2-3.13,2.62.28.83,2.88,1.51,4.15Z"/>
    <path class="cls-4" d="M143.54,111.18c1.44-.19,2.42.28,2.25,1.1-.6,2.76-3.29,3.26-5.35,4.33-.77.4-1.91-.36-1.77-1.13.51-2.9,3.62-2.84,4.88-4.3Z"/>
    <path class="cls-4" d="M87.17,98.14c.28-1.8,1.29-2.47,3.05-2,.84,1.58,1.71,3.13,2.49,4.73.46.95.5,1.96-.63,2.49-1.17.56-1.72-.29-2.26-1.17-.84-1.38-1.77-2.71-2.66-4.05Z"/>
    <path class="cls-4" d="M126.81,162.06c2.58.99,2.74,3.73,3.81,5.8.47.92-.45,1.79-1.2,1.65-2.72-.52-2.72-3.34-3.89-5.16-.62-.97.03-1.85,1.28-2.29Z"/>
    <path class="cls-4" d="M74.97,154.21c-1.22,0-2.07-.71-1.72-1.43,1.15-2.35,3.43-3.33,5.83-3.89.85-.2,1.88.55,1.52,1.37-1.09,2.46-3.84,2.74-5.63,3.96Z"/>
    <path class="cls-4" d="M145.61,153.25c-.67,1.39-1.76,1.31-2.54.7-1.6-1.24-4.58-1.04-4.75-3.65-.1-1.48,1.59-1.58,2.62-.81,1.6,1.2,4.19,1.3,4.67,3.75Z"/>
    <path class="cls-4" d="M73.54,113.86c-.57-1.21-.5-2.25.75-3.01,1.46.79,2.95,1.52,4.36,2.38.97.59,2.27,1.32,1.41,2.69-.86,1.36-2.06.42-3.05-.11-1.17-.62-2.31-1.3-3.46-1.95Z"/>
    <path class="cls-4" d="M89.47,169.16c-1.48-.42-1.58-1.47-1.15-2.4.81-1.75,1.01-4.13,3.34-4.6,1.16-.24,1.83.98,1.39,2.02-.81,1.92-1.51,4.03-3.58,4.99Z"/>
    <path class="cls-4" d="M131.16,98.3c-1.27,1.55-1.22,4.45-3.93,4.98-1.15.22-1.85-1-1.21-2.01,1.15-1.84,1.29-4.66,4.09-5.03.84-.11,1.27.88,1.06,2.07Z"/>
    <path class="cls-4" d="M147.36,134.49c-1.4-.5-3.96.88-4.09-1.48-.16-2.94,2.6-1.7,4.16-1.83,1.33-.11,3.47-.76,3.62,1.4.19,2.78-2.29,1.51-3.69,1.91Z"/>
    <path class="cls-14" d="M241.57,199.89c-7.1-.36-13.77-1.97-18.93-7.32-1.01-1.04-3.32-2.21-1.59-3.94,1.43-1.43,2.54.65,3.63,1.51,7.93,6.24,16.64,7.74,26.15,4.33,2.2-.79,4.23-1.9,5.8-3.72,1.01-1.17,2.08-2.46,3.59-.7,1.61,1.88-.37,2.6-1.36,3.48-4.91,4.38-10.62,6.66-17.29,6.37Z"/>
    <path class="cls-14" d="M269.72,166.06c-.42,3.87-1.19,7.53-5.61,7.79-3.7.22-5.09-2.4-5.1-5.87,0-3.77,1.37-6.6,5.44-6.93,3.53-.29,4.87,2.14,5.27,5.01Z"/>
    <path class="cls-14" d="M223.88,158.5c-.65,3.64-1.52,6.95-5.5,6.96-3.61.02-5.16-2.68-5.1-6.05.06-3.44,1.47-6.36,5.33-6.51,3.83-.16,4.69,2.91,5.27,5.6Z"/>
    <path class="cls-3" d="M237.99,162.19c-.53,3.61-2.83,5.62-4.3,8.07-2.5,4.17-1.25,6.43,3.57,6.93,2,.21,5.63-1.51,5.6,1.85-.04,3.77-3.85,1.71-5.96,2.01-3.66.51-6.59-1.34-8.19-4.45-1.56-3.02-.06-5.57,2.29-7.9,2.11-2.1,3.25-5.22,7-6.5Z"/>
    <path class="cls-14" d="M275.18,150.08c.4.68.79,1.36,1.2,2.03.75,1.23,2.17,2.57.82,3.92-1.69,1.7-2.52-.64-3.55-1.34-2.82-1.91-5.81-2.95-9.25-2.83-1.4.05-3.3.19-3.17-2.04.11-1.82,1.66-2.44,3.21-2.39,2.27.07,4.52.44,6.78.68,0,0-.04-.03-.04-.03.25,1.21,1.11,1.19,2.05,1.03,0,0-.05-.03-.05-.03.28,1.14,1.08,1.25,2.05,1.03l-.04-.03Z"/>
    <path class="cls-14" d="M222.57,144.79c-2.85-.28-5.59-.04-8.13,1.47-1,.6-2.2,1.18-2.98-.24-.71-1.28.21-2.23,1.1-2.96,3.93-3.21,8.35-3.6,13.05-2.1,1.3.41,2.7,1.1,2.5,2.64-.3,2.24-2.22,1.32-3.57,1.37-.65.02-1.31-.12-1.97-.18Z"/>
    <path class="cls-3" d="M238.98,206.12c1.52.58,4.72-1.17,4.74,1.47.02,2.57-3.15,1.08-4.88,1.47-.62.14-1.31.01-1.96,0-1.36-.01-3.11-.15-3.12-1.66-.02-1.94,1.92-1.13,3.09-1.27.65-.08,1.31-.01,2.14-.01Z"/>
    <path class="cls-7" d="M231.2,225.08c.1,1.7.04,3.49-2.03,3.85-2.25.4-3.1-1.81-4.77-2.41.89-2.02,2.77-.96,3.54-2.15,1.18-.22,2.4-.55,3.26.71Z"/>
    <path class="cls-10" d="M275.22,150.12c-.96.22-1.76.11-2.05-1.03,1.05-.39,1.83-.24,2.05,1.03Z"/>
    <path class="cls-10" d="M273.23,149.12c-.94.16-1.8.18-2.05-1.03,1.06-.41,1.85-.29,2.05,1.03Z"/>
    <path class="cls-8" d="M301.53,188.88c.33-7.74,2.57-11.52,6.9-12.39,1.02-.2,1.99-.54,2.49.73.28.71-.04,1.49-.71,1.62-5.24.96-6.29,5.74-8.68,10.05Z"/>
    <path class="cls-7" d="M274.21,232.1c.02-2.33,1.77-3.48,3.37-4.58.96-.67,2.2-2,3.44-.51.97,1.17,1.4,2.6.6,4.16-.67,1.31-1.51,2.3-3.08,1.55-1.42-.67-2.86-.72-4.36-.64l.02.02Z"/>
    <path class="cls-7" d="M270.23,227.12c-.13,1.56-1.04,2.92-.41,4.73.53,1.53-1.14,2.78-2.4,3.32-1.89.8-1.27-1.68-2.36-2.36-1.61-.99-.63-2.21.64-3.01,1.48-.93,2.38-2.84,4.49-2.74l.05.05Z"/>
    <path class="cls-7" d="M261.11,237.79c-.87,2.5-3,3.64-5.5,4.21-.73.17-2.13.02-1.89-.95.71-2.86,3.14-4.04,5.73-4.79.95-.27,1.51.39,1.65,1.53Z"/>
    <path class="cls-7" d="M274.19,232.08c.29,1.27.9,2.57.79,3.8-.19,2.03-1.98,2.88-3.65,3.64-.59.26-1.36.57-1.74-.21-.79-1.62.37-2.89,1.18-4.01.9-1.25,1.4-3.12,3.45-3.19,0,0-.02-.02-.02-.02Z"/>
    <path class="cls-7" d="M265.08,240.59c.48,2.86-.86,3.57-2.66,3.78-1.21.14-1.29-.81-1.13-1.58.36-1.74.78-3.88,2.73-4.18,1.51-.23.99,1.65,1.06,1.98Z"/>
    <path class="cls-7" d="M270.18,227.06c.82-3.42,3.74-1.2,5.49-2.13-.96,2.93-3.42,1.99-5.44,2.18,0,0-.05-.05-.05-.05Z"/>
    <path class="cls-7" d="M236.22,232.08c1.36,3.26-3.73,4.22-2.71,7.53.14.46-1.73.67-2.64.26-1.22-.55-2.37-1.35-2.34-2.9.08-4.07,3.65-6.31,7.69-4.89,0,0,0,0,0,0Z"/>
    <path class="cls-3" d="M201.2,284.07c.98.03,1.97.05,2.95.08.35.64.7,1.29,1.05,1.93h.01c-1.73.11-3.25-.2-4.01-2.01Z"/>
    <path class="cls-3" d="M205.21,286.08c.14.08.28.15.41.23-.13-.08-.27-.16-.4-.24,0,0-.01.01-.01.01Z"/>
  </g>
</svg>