<?xml version="1.0" encoding="UTF-8"?>
<svg id="Layer_2" xmlns="http://www.w3.org/2000/svg" viewBox="0 0 393.93 92.24">
  <defs>
    <style>
      .cls-1, .cls-2 {
        fill: #2a2524;
      }

      .cls-3 {
        fill: #7dce00;
      }

      .cls-4 {
        fill: #9be500;
      }

      .cls-2 {
        opacity: .1;
      }

      .cls-5 {
        fill: #bbf452;
      }

      .cls-6 {
        fill: #5ea500;
      }
    </style>
  </defs>
  <g id="Layer_1-2" data-name="Layer_1">
    <g>
      <circle class="cls-2" cx="46.12" cy="46.12" r="46.12"/>
      <ellipse class="cls-6" cx="46.68" cy="49.19" rx="40.39" ry="38.17"/>
      <path class="cls-3" d="M36.94,7.79c30.93-8.9,48.21,14.86,45.4,33.36-.13.93,0,1.89.38,2.75l2.24,5.1c1.16,2.59,0,5.64-2.59,6.8-.08.04-.16.07-.24.1-3.85,1.32-6.85,4.37-8.11,8.24-.98,2.66-3.93,4.02-6.58,3.04-.07-.03-.14-.05-.21-.08-1.84-.72-3.8-1.06-5.77-.99L36.94,7.79Z"/>
      <path class="cls-4" d="M71.54,52.67c-5.03,3.39-7.77,6.05-7.43,12.01.17,2.82-1.8,5.32-4.58,5.81-4.21.71-7.97,3.04-10.47,6.5-1.57,2.15-4.46,2.83-6.83,1.61-3.34-2-7.32-2.63-11.11-1.76-3.2.7-6.54.24-9.42-1.3-3.64-1.9-6.83-4.56-9.35-7.8-.52-.67-1.03-1.36-1.49-2.07-1.03-1.55-1.93-3.18-2.67-4.89-2.53-5.8-3.65-12.12-3.26-18.44.42-8.44,3.36-16.55,8.46-23.29,1.76-2.3,4.31-3.87,7.16-4.38,6.08-1.08,8.5-2.76,13.34-7.55,1.74-1.71,4.5-1.81,6.36-.22,4.26,3.63,6.92,5.42,12.34,3.97,3.07-.78,6.21,1.02,7.1,4.06,1.33,4.41,3.91,8.04,8.9,9.72,3.68,1.34,5.59,5.41,4.25,9.1-1.23,3.27-.96,6.91.73,9.97,1.75,3.06.87,6.96-2.03,8.97v-.02Z"/>
      <path class="cls-5" d="M55.74,54.56c-2.42.6-4.9.9-7.39.91-7.25.02-14.18-2.96-19.15-8.23-3.85,2.95-7.46,6.2-10.81,9.71,4.67,5.52,12.06,7.92,19.08,6.19,1.41-.32,2.82.56,3.14,1.98.32,1.41-.56,2.82-1.98,3.14-1.89.43-3.82.65-5.76.66-6.86-.06-13.39-2.97-18.03-8.03-2.05,2.4-3.16,3.97-3.2,4.03-.21.3-.48.56-.79.74-1.03-1.55-1.93-3.18-2.67-4.89,2.83-3.71,5.95-7.2,9.31-10.43-1.66-4.4-5-15.99.82-26.76.69-1.27,2.28-1.75,3.56-1.06s1.75,2.28,1.06,3.56c-4.06,7.51-2.56,15.85-1.2,20.4,4.38-3.79,9.13-7.13,14.17-9.98-.5-3.66-1.18-11.72,1.36-17.26.58-1.33,2.13-1.93,3.46-1.34,1.33.58,1.93,2.13,1.34,3.46,0,.03-.02.05-.03.08-1.57,3.42-1.51,8.74-1.15,12.52,3.78-1.77,7.71-3.19,11.75-4.23,1.41-.34,2.83.52,3.17,1.92.34,1.39-.49,2.79-1.87,3.16-7.28,1.95-14.18,5.11-20.41,9.36,3.04,2.98,10.01,7.94,20.99,5.3,1.41-.31,2.81.58,3.13,1.99.31,1.38-.53,2.75-1.9,3.1Z"/>
    </g>
    <g>
      <path class="cls-1" d="M140.82,57.6h13.09c-.04,4.33-.98,8.07-2.84,11.23-1.85,3.16-4.32,5.6-7.41,7.31-3.09,1.7-6.56,2.56-10.41,2.56s-7.41-.63-10.33-1.88c-2.93-1.26-5.34-3.1-7.22-5.54-1.9-2.43-3.31-5.38-4.26-8.85-.94-3.47-1.41-7.45-1.41-11.92v-4.85c0-4.43.47-8.38,1.41-11.85.95-3.47,2.36-6.43,4.26-8.86,1.88-2.44,4.29-4.28,7.22-5.54,2.92-1.25,6.35-1.88,10.27-1.88,4.15,0,7.76.88,10.85,2.62,3.09,1.74,5.5,4.3,7.22,7.66,1.73,3.36,2.61,7.5,2.65,12.4h-13.09c-.07-2.4-.4-4.4-.98-6.02-.58-1.62-1.43-2.85-2.56-3.71-1.12-.85-2.58-1.28-4.36-1.28-1.89,0-3.43.37-4.61,1.12-1.18.74-2.08,1.82-2.69,3.24-.62,1.42-1.04,3.14-1.26,5.18-.22,2.03-.33,4.34-.33,6.92v4.85c0,2.73.11,5.1.33,7.12.22,2.01.63,3.73,1.23,5.15.6,1.42,1.5,2.48,2.7,3.19,1.2.71,2.78,1.06,4.74,1.06,1.53,0,2.86-.31,4.01-.93,1.14-.61,2.04-1.63,2.69-3.05.66-1.41,1.02-3.23,1.09-5.45Z"/>
      <path class="cls-1" d="M175.74,25.66c-1.69,2.58-2.97,5.6-3.84,9.07-.87,3.47-1.29,7.26-1.26,11.37l4.09-.06c0-2.32.2-4.49.6-6.51.37-1.86.91-3.51,1.64-4.95v-10.62c-.43.54-.84,1.1-1.23,1.7ZM175.74,25.66c-1.69,2.58-2.97,5.6-3.84,9.07-.87,3.47-1.29,7.26-1.26,11.37l4.09-.06c0-2.32.2-4.49.6-6.51.37-1.86.91-3.51,1.64-4.95v-10.62c-.43.54-.84,1.1-1.23,1.7Z"/>
      <path class="cls-1" d="M206.08,40.05v37.56h-14.01v-37.67c0-2.69-.29-4.8-.85-6.32-.56-1.53-1.39-2.63-2.48-3.3-1.09-.67-2.45-1.01-4.09-1.01s-3.18.43-4.41,1.31c-1.24.87-2.26,2.07-3.08,3.59-.07.12-.13.25-.19.37v-10.62c1.42-1.78,3.04-3.21,4.88-4.3,2.38-1.42,5-2.13,7.87-2.13,2.44,0,4.65.42,6.65,1.26,2,.83,3.73,2.13,5.18,3.9,1.45,1.76,2.57,4.08,3.35,6.95.79,2.87,1.18,6.34,1.18,10.41Z"/>
      <path class="cls-1" d="M171.9,34.73c-.87,3.47-1.29,7.26-1.26,11.37l4.09-.06c0-2.32.2-4.49.6-6.51.37-1.86.91-3.51,1.64-4.95v43.03h-14.01V9.53h14.01v14.43c-.43.54-.84,1.1-1.23,1.7-1.69,2.58-2.97,5.6-3.84,9.07Z"/>
      <path class="cls-1" d="M245.32,60.22c.18.89-.04,1.85-.65,2.89v1.74c0,2.33.16,4.65.49,6.98.03.24.07.48.11.71.58-.79,1.09-1.62,1.53-2.48.76-1.51,1.32-2.94,1.69-4.28l-3.17-5.56ZM246.47,41.58h-1.8v8.78h1.85l-.05-8.78ZM246.47,41.58h-1.8v8.78h1.85l-.05-8.78ZM245.32,60.22c.18.89-.04,1.85-.65,2.89v1.74c0,2.33.16,4.65.49,6.98.03.24.07.48.11.71.58-.79,1.09-1.62,1.53-2.48.76-1.51,1.32-2.94,1.69-4.28l-3.17-5.56Z"/>
      <path class="cls-1" d="M245.27,72.54c-.42.59-.89,1.16-1.39,1.71-1.18,1.29-2.62,2.36-4.31,3.19-1.69.84-3.68,1.26-5.96,1.26-3.24,0-6.15-.71-8.73-2.13-2.58-1.42-4.62-3.43-6.13-6.05-1.51-2.62-2.26-5.72-2.26-9.32,0-2.98.48-5.67,1.44-8.07.97-2.4,2.41-4.45,4.34-6.16,1.92-1.71,4.37-3.03,7.33-3.98,2.96-.94,6.4-1.42,10.33-1.42h4.74v8.78h-4.03c-1.64,0-3.09.24-4.36.71-1.28.47-2.34,1.14-3.19,2.02-.86.87-1.5,1.9-1.94,3.08-.43,1.18-.65,2.5-.65,3.95,0,1.63.23,2.98.71,4.03.47,1.06,1.16,1.86,2.07,2.4.91.55,2,.82,3.27.82,1.89,0,3.52-.4,4.9-1.2,1.39-.8,2.42-1.75,3.11-2.86.04-.06.08-.13.11-.19v1.74c0,2.33.16,4.65.49,6.98.03.24.07.48.11.71Z"/>
      <path class="cls-1" d="M260.75,76.69v.93h-14.17c-.56-1.37-.99-3.06-1.31-5.07.58-.79,1.09-1.62,1.53-2.48.76-1.51,1.32-2.94,1.69-4.28l-3.17-5.56c.18.89-.04,1.85-.65,2.89v-12.76h1.85l-.05-8.78h-1.8v-5.07c0-1.88-.24-3.4-.73-4.55-.5-1.14-1.21-1.98-2.16-2.5-.94-.53-2.11-.8-3.49-.8-1.45,0-2.7.3-3.73.9-1.04.6-1.8,1.46-2.29,2.57-.49,1.1-.74,2.4-.74,3.89h-14.01c0-2.47.49-4.81,1.48-7.03.98-2.21,2.39-4.19,4.25-5.91,1.85-1.73,4.09-3.08,6.7-4.06,2.62-.99,5.56-1.48,8.83-1.48,3.82,0,7.24.65,10.25,1.94,3.02,1.29,5.39,3.34,7.12,6.16,1.72,2.82,2.59,6.51,2.59,11.09v26.88c0,3.01.16,5.58.49,7.68.32,2.11.83,3.91,1.52,5.4Z"/>
      <path class="cls-1" d="M283.81,25.3c-1.45,2.49-2.61,5.41-3.46,8.75-.86,3.35-1.48,7.02-1.88,11.01v6.11c.44,4.03,1.08,7.72,1.93,11.06.86,3.35,2.01,6.26,3.46,8.73.12.2.24.4.37.6l.56-7.09V23.78c-.34.48-.67.99-.98,1.52ZM283.81,25.3c-1.45,2.49-2.61,5.41-3.46,8.75-.86,3.35-1.48,7.02-1.88,11.01v6.11c.44,4.03,1.08,7.72,1.93,11.06.86,3.35,2.01,6.26,3.46,8.73.12.2.24.4.37.6l.56-7.09V23.78c-.34.48-.67.99-.98,1.52ZM283.89,37.24c-.42,1.58-.7,3.3-.84,5.15v11.45c.18,2.51.61,4.74,1.28,6.7.14.4.29.79.46,1.15v-26.92c-.37.76-.67,1.59-.9,2.47Z"/>
      <path class="cls-1" d="M316.03,45.94v4.31c0,4.76-.39,8.91-1.17,12.46-.79,3.54-1.97,6.5-3.55,8.88-1.58,2.38-3.57,4.16-5.97,5.35-2.4,1.18-5.21,1.77-8.45,1.77-2.94,0-5.48-.68-7.63-2.02-1.96-1.23-3.64-2.94-5.03-5.12l.56-7.09v-2.78c.65,1.44,1.54,2.6,2.65,3.52,1.39,1.14,3.26,1.71,5.58,1.71,1.82,0,3.31-.31,4.47-.92,1.17-.62,2.09-1.61,2.78-2.98.69-1.36,1.17-3.08,1.42-5.17.26-2.09.38-4.63.38-7.61v-4.31c0-2.79-.13-5.24-.41-7.33-.27-2.09-.73-3.82-1.39-5.2-.65-1.38-1.58-2.41-2.78-3.08-1.2-.67-2.72-1.01-4.58-1.01-1.67,0-3.08.33-4.22.98-1.15.65-2.13,1.58-2.94,2.78-.36.53-.68,1.1-.96,1.7v-10.99c1.26-1.76,2.73-3.17,4.42-4.23,2.14-1.34,4.67-2.02,7.57-2.02,3.31,0,6.17.6,8.59,1.8,2.42,1.2,4.41,2.98,5.97,5.35,1.56,2.36,2.73,5.32,3.52,8.88.78,3.56,1.17,7.69,1.17,12.37Z"/>
      <path class="cls-1" d="M278.47,45.07v6.11c.44,4.03,1.08,7.72,1.93,11.06.86,3.35,2.01,6.26,3.46,8.73.12.2.24.4.37.6l-.47,6.05h-12.92V9.53h13.95v14.25c-.34.48-.67.99-.98,1.52-1.45,2.49-2.61,5.41-3.46,8.75-.86,3.35-1.48,7.02-1.88,11.01Z"/>
      <rect class="cls-1" x="326.77" y="18.63" width="14.01" height="58.99"/>
      <path class="cls-1" d="M393.93,61.26c0,2.62-.49,4.99-1.45,7.12-.96,2.12-2.37,3.96-4.22,5.5-1.86,1.55-4.07,2.74-6.65,3.57-2.58.84-5.47,1.26-8.67,1.26-4.69,0-8.64-.94-11.86-2.81-3.21-1.87-5.65-4.27-7.3-7.2-1.66-2.92-2.48-6-2.48-9.24h13.41c.07,2.19.5,3.87,1.28,5.07.78,1.2,1.81,2.04,3.08,2.51,1.27.47,2.63.71,4.09.71,1.6,0,2.92-.23,3.98-.68,1.05-.46,1.84-1.13,2.37-2.02.52-.89.79-1.95.79-3.19,0-1.12-.36-2.12-1.06-3-.71-.87-1.82-1.75-3.33-2.64-1.51-.89-3.55-1.9-6.13-3.03-2.69-1.08-5.08-2.2-7.17-3.35-2.09-1.14-3.86-2.4-5.32-3.79-1.45-1.38-2.54-2.97-3.27-4.77-.72-1.8-1.09-3.86-1.09-6.18,0-2.47.46-4.76,1.37-6.87.9-2.11,2.22-3.95,3.95-5.53,1.72-1.59,3.82-2.84,6.29-3.77,2.47-.92,5.25-1.39,8.34-1.39,4.33,0,8.04.78,11.15,2.32,3.11,1.55,5.49,3.7,7.14,6.46,1.66,2.76,2.48,5.94,2.48,9.54h-13.95c0-1.42-.24-2.68-.71-3.79-.47-1.11-1.22-1.99-2.24-2.64-1.01-.66-2.32-.98-3.92-.98-1.34,0-2.49.26-3.43.79-.95.52-1.68,1.23-2.19,2.12-.5.89-.76,1.9-.76,3.03,0,.83.17,1.59.49,2.26.33.67.87,1.31,1.61,1.91s1.77,1.22,3.08,1.88c1.31.65,2.93,1.38,4.85,2.18,3.96,1.45,7.22,3.01,9.79,4.66,2.56,1.66,4.48,3.6,5.75,5.83,1.27,2.24,1.91,4.96,1.91,8.15Z"/>
    </g>
  </g>
</svg>