<?xml version="1.0" encoding="UTF-8"?>
<svg id="Layer_2" xmlns="http://www.w3.org/2000/svg" viewBox="0 0 92.24 92.24">
  <defs>
    <style>
      .cls-1 {
        fill: #2a2524;
        isolation: isolate;
        opacity: .1;
      }

      .cls-2 {
        fill: #7dce00;
      }

      .cls-3 {
        fill: #9be500;
      }

      .cls-4 {
        fill: #bbf452;
      }

      .cls-5 {
        fill: #5ea500;
      }
    </style>
  </defs>
  <g id="Layer_2-2" data-name="Layer_2">
    <g>
      <circle class="cls-1" cx="46.12" cy="46.12" r="46.12"/>
      <ellipse class="cls-5" cx="46.68" cy="49.19" rx="40.39" ry="38.17"/>
      <path class="cls-2" d="M36.94,7.79c30.93-8.9,48.21,14.86,45.4,33.36-.13.93,0,1.89.38,2.75l2.24,5.1c1.16,2.59,0,5.64-2.59,6.8-.08.04-.16.07-.24.1-3.85,1.32-6.85,4.37-8.11,8.24-.98,2.66-3.93,4.02-6.58,3.04-.07-.03-.14-.05-.21-.08-1.84-.72-3.8-1.06-5.77-.99L36.94,7.79Z"/>
      <path class="cls-3" d="M71.54,52.67c-5.03,3.39-7.77,6.05-7.43,12.01.17,2.82-1.8,5.32-4.58,5.81-4.21.71-7.97,3.04-10.47,6.5-1.57,2.15-4.46,2.83-6.83,1.61-3.34-2-7.32-2.63-11.11-1.76-3.2.7-6.54.24-9.42-1.3-3.64-1.9-6.83-4.56-9.35-7.8-.52-.67-1.03-1.36-1.49-2.07-1.03-1.55-1.93-3.18-2.67-4.89-2.53-5.8-3.65-12.12-3.26-18.44.42-8.44,3.36-16.55,8.46-23.29,1.76-2.3,4.31-3.87,7.16-4.38,6.08-1.08,8.5-2.76,13.34-7.55,1.74-1.71,4.5-1.81,6.36-.22,4.26,3.63,6.92,5.42,12.34,3.97,3.07-.78,6.21,1.02,7.1,4.06,1.33,4.41,3.91,8.04,8.9,9.72,3.68,1.34,5.59,5.41,4.25,9.1-1.23,3.27-.96,6.91.73,9.97,1.75,3.06.87,6.96-2.03,8.97v-.02h0Z"/>
      <path class="cls-4" d="M55.74,54.56c-2.42.6-4.9.9-7.39.91-7.25.02-14.18-2.96-19.15-8.23-3.85,2.95-7.46,6.2-10.81,9.71,4.67,5.52,12.06,7.92,19.08,6.19,1.41-.32,2.82.56,3.14,1.98.32,1.41-.56,2.82-1.98,3.14-1.89.43-3.82.65-5.76.66-6.86-.06-13.39-2.97-18.03-8.03-2.05,2.4-3.16,3.97-3.2,4.03-.21.3-.48.56-.79.74-1.03-1.55-1.93-3.18-2.67-4.89,2.83-3.71,5.95-7.2,9.31-10.43-1.66-4.4-5-15.99.82-26.76.69-1.27,2.28-1.75,3.56-1.06s1.75,2.28,1.06,3.56c-4.06,7.51-2.56,15.85-1.2,20.4,4.38-3.79,9.13-7.13,14.17-9.98-.5-3.66-1.18-11.72,1.36-17.26.58-1.33,2.13-1.93,3.46-1.34,1.33.58,1.93,2.13,1.34,3.46,0,.03-.02.05-.03.08-1.57,3.42-1.51,8.74-1.15,12.52,3.78-1.77,7.71-3.19,11.75-4.23,1.41-.34,2.83.52,3.17,1.92.34,1.39-.49,2.79-1.87,3.16-7.28,1.95-14.18,5.11-20.41,9.36,3.04,2.98,10.01,7.94,20.99,5.3,1.41-.31,2.81.58,3.13,1.99.31,1.38-.53,2.75-1.9,3.1Z"/>
    </g>
  </g>
</svg>