<?xml version="1.0" encoding="UTF-8"?>
<svg id="Layer_1" data-name="Layer 1" xmlns="http://www.w3.org/2000/svg" viewBox="0 0 1350.48 1923.22">
  <defs>
    <style>
      .cls-1 {
        fill: #fafaf0;
      }

      .cls-2 {
        fill: #fcfcf7;
      }

      .cls-3 {
        fill: #904b3c;
      }

      .cls-4 {
        fill: #c5c5c0;
      }

      .cls-5 {
        fill: #fdfdf9;
      }

      .cls-6 {
        fill: #cea373;
      }

      .cls-7 {
        fill: #7e3931;
      }

      .cls-8 {
        fill: #fdfbf4;
      }

      .cls-9 {
        fill: #a07b54;
      }

      .cls-10 {
        fill: #ac835f;
      }

      .cls-11 {
        fill: #64452a;
      }
    </style>
  </defs>
  <path class="cls-2" d="M35,0C15.91,2.29,2.85,16.34,0,35V0h35Z"/>
  <g>
    <path class="cls-5" d="M658,132c28.25-27.1,50.99-41.94,90.99-49.51,61.97-11.73,121.65,4.6,167.01,47.51-.2,1.55,2.2,4.1,4,4,.16.21-.16.79,0,1l2,1c.12.31-.14.79,0,1,20.11,29.56,21.01,67.34,14.71,102.21-4.95,27.4-31.36,73.24-51.69,92.31-26.97,25.28-86.08,52.61-119.34,28.31-3.31-2.42-9.98-10.31-12.06-13.95-4.46-7.83-6.67-20.1-10.38-28.6l-2.23-1.27c1.28,13.9.18,27.45-2.3,41.2-15.3,84.64-94.14,187.68-185.33,195.67-36.74,3.22-71.51-5.6-107.37-7.87.24-5.77-4.69-5.25-9-5-1.57,4.62,2.81,5.67,3,6,7.47,12.58,15.97,24.53,26.99,34.51,2.69,2.44,15.29,11.04,15.87,13.21-11.1,73.85-82.59,148.72-162.06,132.98-78.32-15.51-126.24-84.51-129.78-162.21-.87-19.09,6.7-30.45,12.99-47.49,8.37-14.28,16.85-25.83,28-38,1.76-.47,2.64-1.4,3.84-2.66,29.72-31.43,66.28-38.33,107.67-43.33,1.99-.24,13.97-.51,14.5-1.01-5.11-23.64-13.54-47.12-15-71.51-3.74-62.84,21.7-123.01,62.99-168.49.75-.83,2.2-2.33,3-3,.19-.16,2.32-1.54,3-2,3.76-2.55,10.13-5.76,14.36-8.19,1.34-.77,3.19-.32,2.64-2.81.3-.11.7.11,1,0,8.67-3.11,16.41-7.97,25.02-11.48,46.97-19.19,104.67-19.74,153.01-5.04,6.47,1.97,12.13,6.11,18.97,6.53.33.02.67.01,1,0-1.15,3.28,5.58,2.08,5.86,1.84.61-.52,6.07-12.73,6.14-14.84.32-.34.68-.66,1-1,3.73-3.97,3.27-3.65,6-8,.39-.62.62-1.36,1-2,3.94-1.49,8.56-6.13,10-10Z"/>
    <path class="cls-4" d="M922,137l7.97,7.53c14.67,16.49,23.25,34.23,33.03,53.47l1,1c.16.22-.16.81,0,1,.03,1.46.55,2.57,2,3,.04.33-.06.68,0,1,.59,2.91,1.73,4.03,2,5,.65,2.35,1.36,4.66,2,7,.43,1.56-.79,4.27,2,5,.09.99-.08,2.01,0,3,.17,1.97.11,3.83,2,5,.52,9.59,2.31,19.11,3,29l1,1c.44,7.99-.37,15.19-1,23-.07.87-.81,2.94-1,5-.29,3.22-.87,7.02-1,10v1c.03.66-.1,1.41,0,2-1.31.48-.95,1.91-1,3-1.4,30.1-29.95,75.62-53.51,94.03-1.38,1.08-3.96.45-3.49,2.97h-1c-.5-.34-1.39-.72-2-1,.37-1.99-1.52-2.35-2-3-.28-.39-.76-.66-1-1-2.02-2.83-12.89-20.42-14.64-20.94-2.43-.71-15.46,10.82-18.36,12.94-3.11.63-3.06.91-5,3l-8,4c-1.17.59-3,1.56-4,2-.76.34-1.45.76-2,1-2.24.96-6.38,2.02-9,3-2.04.76-5.04.49-6,3-18.27,2.62-34.45,8.24-53.49,6.99-3.63-.24-20.85-3.85-22.38-2.86-3.62,10.89-7.05,22.44-11.36,33.13-11.56,28.66-32.78,54.41-53.76,76.74-1.35,1.44-1.88,2.87-2,3-3.81,4-16.94,13.53-19,18-1.73.68-3.54.76-3,3-5.56,1.83-11.07,8.75-16,12-.43.29-1.24.5-2,1-8.21,5.36-21.2,12.81-30,17-2.42,1.15-7.04,2.77-10,4-1.53.64-2.87,1.56-4,2-15.1,5.91-31.85,8.37-46.02,16.48-10.08,21.42-33.85,54.61-25.75,78.8,3.89,11.61,25.86,54.53,33.27,63.73,4.31,5.36,12.66,13.8,19.51,14.99-4.44,5.11-7.9,11.84-12,17-.85,1.06-1.37,2.21-2,3-.29.36-.71.63-1,1-22.82,28.74-44.2,56.07-62.81,88.69-5.82,10.21-21.02,37.82-21.19,48.31-1.95.13-3.07-.43-4.65-1.39-3.31-2.01-4.34-8.68-8.35-9.61-19.88-32.03-41.24-63.23-60.18-95.82-1.83-1.08-10.64,3.01-13.38,3.76-70.44,19.45-150.18.7-193.83-60.05-44.21-61.53-53.2-163.04-14.61-228.89-6.29,17.04-13.86,28.4-12.99,47.49,3.55,77.7,51.47,146.71,129.78,162.21,79.46,15.74,150.96-59.13,162.06-132.98-.58-2.17-13.17-10.77-15.87-13.21-11.01-9.98-19.51-21.94-26.99-34.51,1.85-1.13,3.93-1.13,6-1,35.86,2.27,70.63,11.09,107.37,7.87,91.19-7.99,170.03-111.03,185.33-195.67,2.49-13.75,3.58-27.3,2.3-41.2l2.23,1.27c3.71,8.5,5.92,20.77,10.38,28.6,2.07,3.64,8.74,11.53,12.06,13.95,33.27,24.29,92.37-3.03,119.34-28.31,20.33-19.06,46.74-64.9,51.69-92.31,6.3-34.86,5.4-72.64-14.71-102.21Z"/>
    <path class="cls-4" d="M406,192c-41.29,45.48-66.73,105.65-62.99,168.49,1.45,24.38,9.88,47.87,15,71.51-.53.5-12.51.77-14.5,1.01-41.39,5-77.95,11.91-107.67,43.33-1.19,1.26-2.08,2.18-3.84,2.66,15.2-16.6,34.28-30.58,56.03-38.47,7.67-2.79,17.65-3.43,24.04-6,2.01-.81,1.74-2.14,2.71-2.5s2.93.24,3.23-.03c1.15-1.02-3.6-26.37-3.98-30.52-7.93-85.18,22.97-158.25,90.98-209.48h1Z"/>
    <path class="cls-1" d="M928,416c4.83,3.28,15.99,18.13,20.41,24.09,11.47,15.46,20.75,32.77,32.59,47.91,3.02,3.86,2.99,4.29,7,7,.44.3.94,1.82,2,2v1c-1.01.01-1.66.93-2,1-9.63,2.08-28.98,8.45-37,9,.79-3.09,4.61-1.36,5.85-2.15.27-.17,1.96-5.08,3.41-5.54,2.19-.7,4.14-.06,6.27-.3,4.96-.55-2.46-4.09-5.07-4.11-1.89-.02-1.41,2.16-1.97,2.16-1.6,0-2.91-1.79-4.14-1.89-.95-.08-2.78,1.62-5.34,1.84-.1,0-.68-.87-1.48-.81-3.43.24-13,1.99-15.91,2.95-1.38.46-1.29,2.72-2.29,2.93-1.68.36-4.05-1.18-5.87-1.12-4.57.15-10.84,3.71-12.96-1.94-2.27-6.03-.48-9.05-.39-14.51.05-2.73-1.31-5.31-.93-7.74,1.05-6.69,6.87-5.64,8.74-8.34,3.47-5.01,6.2-14.44,4.61-20.45-.96-3.6-7.33-7.66-3.54-11.49,1.09-1.1,3.77-1.78,5.31-1.35,2.48.69,2.31,4.84,4.2,3.87,1.48-.77.84-4.09,3.97-2.96,2.24.97,1.74,5.44,2.78,6.72.81.99,3.83.81,4.68,2.84,1.39,3.33-3.45,2.18-2.91,5.4,2.47,2.11,10.54-1.73,9.88,2.36-.14.84-3.78,3.23-.37,4.64,3.62,1.49,2.18-2.71,2.49-2.99l3.99,2.52-4,1.49v3.99c5.75.78,3.57-4.8,10-2,.55-2.67-2.53-2.55-3.46-4.06-2.33-3.77-9-13.37-10.26-16.2-.55-1.24.01-3.27-.34-3.66s-3.61.41-5.04-1.48c-.96-1.28-.53-3.2-1.22-4.28-4.39-6.86-8.72-8.71-11.67-16.32-.62-.42-5.76-3.7-6-4-2.6-3.27-2.84-6.29-4-9,3.63,3.02,8.28,8.55,10,13Z"/>
    <path class="cls-4" d="M834,1648c2.29-.6,2.73,2.62,3.33,4.15,12.04,30.44,27.95,59.54,41.88,88.14,1.46,3,8.56,15.53,8.76,16.45.29,1.27-.39,3.17.17,4.12.24.4,2.83.79,3.85,1.65,1.22,1.01,1.84,3.07,2.2,3.29,1.54.91,20.41.04,24.34.17,28.97,1,57.91,1.04,87,1.1,5.79.01,12.61,1.22,16.99,1.06,1.9-.07.58-2.05,3.87-2.21,14.37-.67,16.84,9.17,23.26,18.87,14.47,21.87,25.55,45.37,42.27,66.01,6.1,7.53,10.6,14.53,18.88,19.1,9.01,4.97,18.17,11.18,26.93,16.34.65.38.72,2.31,2.27,3.24,4.27,2.56,14.3,4.64,17.34,7.47,1.03.96.37,2.59.75,2.91.61.53,2.5-.19,3.61.43,7.95,4.43,15.21,8.24,24.26,11.24,2.25.75,8.69,1.17,9.01,1.49.35.35-.22,3.87,0,5,4.94.63,12.52-4.59,11,3,12.73.76,5.96-14.46,10-22.01-.05,5.23.34,10.85,0,16-.18,2.74-.32,4.64-2,7-3.8.47-7.73,1.72-12,1-.37-.11-1.14-.7-2-1-32.47-11.41-66.12-31.09-93.55-50.95-15.95-11.54-31.87-36.56-42.25-53.75-7.51-12.43-14.1-28.79-22.3-40.47-6.85-9.76-9.74-5.96-19.35-5.79-41.39.76-82.72-1.92-124.11-.98l-6.43-2.07c-9.81-18.35-20.53-35.9-29.69-54.81-8.97-18.5-23.43-46.16-28.31-65.19Z"/>
    <path class="cls-2" d="M911,395c.24.34.72.61,1,1-.63,4.14.81,2.46,2,3,.61.28,1.5.66,2,1,.21.14.88.81,1,1,.37.59.72,1.35,1,2,1.16,2.71,1.4,5.73,4,9-3.1,7.37-4.61-.13-6-1.5-1.87-1.83-7.4-2.18-9.45-6.55-.9-1.93-.44-4.53-1.48-6.27-1.1-1.86-5.83-2.22-4.06-7.68,4.69-1.43,5.35,7.8,9.99,4.99Z"/>
    <path class="cls-4" d="M920,134c-1.8.1-4.2-2.45-4-4,1.62,1.54,2.44,2.02,4,4Z"/>
    <path class="cls-4" d="M922,136l-2-1c.1.14,1.4-.51,2,1Z"/>
    <path class="cls-1" d="M917,401c-.12-.19-.79-.86-1-1h1v1Z"/>
    <path class="cls-2" d="M1216,1325c.44,65.64,0,131.36,0,197v9c-.13.1.08,2.32-1.61,2.86-4.45,1.43-14.5,1.97-19.39,2.14-2.68.09-5.76-1.08-5,2-.32.06-.67-.04-1,0-2.18.27-3.48-1.02-3,2-.26.14-.75-.14-1,0-3.94.61-.99-2.44-1.03-4.68-.03-1.49-.97-2.19-.97-2.32.34-9.37,2.97-16.95-1.13-26.37-7.05-16.21-30.67-9.47-36.18,4.56-3.22,8.2-1.09,21.47,7.31,25.81-1.96,8.72-10.16,2.07-16.55,2.18-4.26.07-2.99,2.64-4.85,4.91-.9,1.11-3.13,1.65-3.39,2.1-2.77,4.68,8.55,20.1,6.79,21.8l-8-1.99c-26.25-27.95-52.49-55.79-78.49-84.01-18.72-20.32-38.91-39.18-55.91-61.09-3.09-3.98-15.69-20.08-16.43-23.63-1.05-5.03,7.73-14.21,11.31-18.28,15.45-17.55,33.02-33.2,46.74-52.26,4.68-6.5,12.84-22.34,19.76-26.24.71-.4,1.01-.7,2.01-.48.06,6.99-.06,14.01,0,20.99.02,2.33-.03,4.67,0,7v1c.04,3.99-.11,8.02,0,12,.13,4.62-.76,9.93,2,14,.57,5.41,1.32,10.63,2,16,.37,2.89-.54,6.54.05,9.27s7.29,4.11,1.93,9.71c-.7.63-1.59-1.42-1.98-1.99-9.5-13.77-23.96-16.92-34.44-1.94-6.94,9.93-6.17,19.98,2.45,28.42,11.68,11.44,30.79,1.92,31.99-12.49l4.77,2.73c.57,7.61,2.62,14.88,4.23,22.27,3.5,16.07,5.94,37.37,17.96,49.54,11.04,11.18,17.06,7.69,27.07-2.01,19.48-18.89,29.7-44.53,34.97-70.53,6.81-33.55,7.77-69.26-4-102l-1-1c-.18-.47.12-1.39,0-2,.34.2,1.83-.05,2.9.56,21.5,12.4,44.6,21.04,69.1,25.44Z"/>
    <path class="cls-3" d="M1165,1034c4.77,5.07,9.1,10.71,10.88,17.62.48,1.86,2.12,10.5,2.12,11.88v35c0,2.22.07,6.86,0,8.5-.03.66,0,1.33,0,2l-3.53,7.97c-4.96,25.41-13.91,50.63-24.54,74.26-.6,1.33-.89.26-1.92,3.77-.1.33.13.92,0,1-1.35.83-1.46-1.56-2,2-.09.62.03,1.35,0,2-.02.33-.02.67,0,1,.06,1.14-.45,5.05.51,5.01,17.68-3.84,35.26-7.33,53.49-6.01,5.3.24,10.69-.17,16,0v96c0-.18-1.05-1.54-1.07-3.38-.26-22.86.35-45.76.06-68.61-1.81-.2,0,1.83-2.42,2.08-7.43.77-15.81-1.77-23.13-2.12-12.42-.59-31.03,1.14-42.9-2.02-3.75-1-5.86-6.39-10.55-.46-11.57,14.64-9.04,25.62-28.29,36.51-.73.41-.77,1.86-1.92,2.31-10.97,4.32-15.6-4.26-22.88-8.76-1.11-.69-3-.27-3.7-.75-.73-.51-6.81-11.04-10.15-14.37-7.81-7.78-19.43-11.94-22.05-23.44,5.57-8.57,9.87-18.96,16.98-26.52,6.3-6.7,14.97-7.68,22.75-13.25,3.9-2.79,5-2.64,6.27-7.23,3.72.04,2.69-4.5,3-7,.08-.65-.06-1.34,0-2,.17-1.94-.01-2.14,0-3,.05-4.35.36-8.61,0-13,1.63-3.27,1.27-8.91,1.04-12.54-.87-13.73-3.54-26.89-3.09-41,.11-3.6,2.03-6.7.05-10.46.17-.2.9-2.47,2-4,1.08-.35,1.5-1.06,2-2,9.03-16.87,19.97-35.19,28-52,14.13,1.21,27.1,7.81,39,15ZM1131.51,1042.01c-1.59.44-1.13,1.86-1.09,2.98.14,4.27,1.4,9.48,1.57,13.52,1.33,31.63-5.26,73.42-13.05,103.93-.79,3.08-3.71,6.63-3.87,10.13-.5,10.79,10.95,23.86,19.37,11.36,5.66-8.41,5.94-34.69,6.58-45.42,1.45-24.28,2.28-60.06-2.37-83.82-.3-1.56-3.09-9.76-3.86-10.98-.91-1.42-1.3-2.25-3.27-1.71Z"/>
    <path class="cls-7" d="M1047,1213c2.62,11.5,14.24,15.66,22.05,23.44,3.34,3.33,9.42,13.86,10.15,14.37s2.59.06,3.7.75c7.28,4.5,11.91,13.07,22.88,8.76,1.15-.45,1.19-1.9,1.92-2.31,19.25-10.89,16.73-21.87,28.29-36.51,4.68-5.93,6.8-.54,10.55.46,11.87,3.16,30.48,1.42,42.9,2.02,7.31.35,15.7,2.89,23.13,2.12,2.41-.25.61-2.28,2.42-2.08.29,22.85-.32,45.75-.06,68.61.02,1.84,1.07,3.2,1.07,3.38,0,.67,0,1.33,0,2-16.77-3.09-32.95-7.88-48.36-15.14-4.93-2.32-23.58-15.14-24.64-19.86-.33-1.48.53-5.14-.1-5.9-.23-.28-5.73-1.1-7.07-1.42-1.79-.43-3.4-2.89-5.81-1.19l-9.2,11.35c-13.48-3.64-8.45,12.03-16.82,16.67-.63,2.45,4.48,2.71,5.99,4,.86.73,6.81,9.13,7.49,10.51,8.3,17,13.76,37.26,7.08,56.03-.79,2.21-3.32,3.98-4.44,6.56-3.48,8.03-6.19,17.42-9.96,25.04-1.93,3.9-5.58,11.41-10.19,7.9-26.27-20.01-12.2-82.45-14.93-112.1-.24-2.58-.68-7.3-3.75-8.25-3.12-.97-11.9-3.1-14.8-3.02-11.83.32-8.53,6.91-8.44,14.26.24,18.69-.71,27.76,4.73,45.26,2.14,6.87,1.02,11.46,1.66,17.33.3,2.8,2.55,4.99,2.62,7.39.08,2.89-1.88,6.08-1.02,9.84.13.57,3.63,2.21,3.97,5.29.22,1.97-.98,3.73-.75,5.66.75,6.39,3.13,12.75,3.55,19.26.1,1.5-1.1,3.21-.85,4.86.04.28,5.54,3.25.06,3.63-.1-1.07-.46-2.08-1.01-2.99-5.07-8.29-6.68-18.78-11-28-.68-5.37-1.43-10.59-2-16-.48-4.48-.53-10.11-2-14-.11-3.98.04-8.01,0-12,0-.33,0-.65,0-1-.03-2.33.02-4.67,0-7,1.66-1.04,1-3.79,1.02-5.49.05-4.15.68-27.86-.97-29.08-.93-.69-2.84-.47-4.04-.44-.7-2.01,1.79-1.84,1.98-2.69.97-4.32-.64-9.53-2.58-13.39-16.66,1.66-34.45,6.81-51.02,7.94-19.08,1.3-89.23-5.26-105.55-13.19-2.5-1.21-6.92-3.21-3.83-6.19,2.45-2.36,7.33-1.12,10.46-1.53,9.5-1.22,17.94-.91,28.08-1.01,39.3-.37,63.19-5.67,101.23-12.68,1.97-.36,8.82,0,9.27-1.94.83-4.1-.13-19.74.96-22.34.17-.4,4.2-3.23,6-6Z"/>
    <path class="cls-9" d="M1260,1532c5.42.02,12.64-.96,17.4-.69,2.53.14,2.45,2.49,3.29,2.67,2.61.56,8.21.07,11.3.02,1.33-.02,2.67.02,4,0-.7,3.22,1.79,1.44,4.22,2.28,1.19.41,2.36,1.2,3.78,1.72,1.24.45,2.82.5,4,1,.87.37,2.85,1.44,4,2,.64.32,1.38.67,2,1,1.85,1,2.33,2.72,6,4,.42,1.16-1.07,2.49,2,2,.05.09.66-.04,1,0-.7,2.62,1.83,2.05,3,3,.82.66,1.06,2.34,3,3,.53,2.05.39,4.61,3,4,.51,2.08.42,2.38,2,4,1.08,5.28,2.58,10.6,3,16,.05.66-.03,1.34,0,2-.12.1-.94,2.64-1,3-.21,1.22.21,2.78,0,4-2.1-1.01-3.73,5.1-4,7-.05.32.01.67,0,1-9.69,2.68-8.19,11.46,0,15-.03.33.02.67,0,1v1c-.59-.07-1.69-1.48-2.99-.99-1.28,1.29,4.26,10.77,6.99,4.99.1.12,1.15-.04,1.58.43,1.53,1.69,3.24,4.4,5.42,4.57-.08,2.06.82,2.29,1,3,.72,2.79,1.4,5.56,3,8,.03.66-.04,1.34,0,2,1.01,17.64.85,19.97-9.42,33.61-1.64,2.18-5.27,3.59-5.58,6.39-.04.32-.01.68,0,1-5.34.26-3.13,2.44-4.06,4.2-.52.98-1.76.85-1.92,1.49-.97,3.92,1.6,6.14,1.98,9.3-2.48,4.73-.23,2,0,2,1.3,0,3.31,4.75,3.53,6.01.35,1.97-.56,2.94-.53,3.99.37,12.9,0,16.53-7.58,26.92-2.07,2.83-6.47,5.4-7.22,8.81-1.41,6.36,5.16,11.67,3.8,18.27-3.54.77-1.22-2.57-2.12-3.86-.33-.48-3.05-.75-4.14-1.35-1.29-.7-2.31-2.29-3.45-2.6-10.1-2.71-42.28-.03-54.28-.19-10.35-.13-20.71-.27-31-1-.48-2.05-6.03.31-4.99-2.48,1.66-4.43,3.15-4.9,7.61-5.39,11.94-1.31,26.14,2.17,36.91.9,5.24-.62,11.92-4.5,17.23-4.77,8.46-.42,20.46,1.38,28.77-1.23s4.66-13.66,6.61-15.9c.43-.49,3.17.1,3.8-1.75.54-1.59-.96-3.88-.86-5.78.82-14.81-.31-7.8-5.53-18.67-.99-2.07.13-4.99-2.25-5.76-9.13-.75-18.53-1.69-27.82-1.98-5.97-.19-14.14,3.39-17.29-3.16l-46.21-3.04c-.19-1.11,0-1.88.99-2.5.72-.44,14.68-3.31,16.52-3.48,8.31-.76,29.41,1.56,35.75-2.99,1.74-1.25,6.69-8.07,9.22-8.05,1.48,0,7.37,4.48,10.07,4.96,5.12.91,11.91-.18,17.12-.58,1.3-.1,2.79.83,3.66.7.97-.15,1.08-2.29,2.1-3.09,5.41-4.21,20.46-11.68,21.51-18.54.59-3.85-1.25-6.9-.95-9.85.26-2.6,2.82-4.08,2.92-6.04.4-7.66-7.29-4.98-7.89-5.58-.33-.33.47-3.46-1-4.56-.4-.3-7.43.22-10.01-.94-3.04-1.37-14.01-11.77-15.73-12.27-2.43-.71-12.69-.09-14.3-2.21-2.34-3.11,11.48-3.93,13.48-4.07,2.59-.17,5.01.78,7.55.62,9.92-.65,7.79-4.46,10.75-11.25.66-1.52,2.29-2.4,2.95-4.05,3.07-7.67,1.58-12.93-2.75-19.73-2.46-3.87-15.1-15.43-19-16.99-1.72-.69-9.34-3.95-9.87-4.09-1.88-.5-4.84-.02-5.91-.64-.57-.32-.96-2.96-3.46-4.04-2.8-1.22-22.45-3.55-26.44-3.7-1.49-.05-2.18.96-2.31.95-1.66-.05-3.34.04-5,0,.56-3.03-1.53-1.92-3.45-2-4.02-.16-8.07.13-12.09,0-1.92-.06-4.01,1.02-3.45-2,5.99,0,12.01-.03,18,0,1.33,0,2.67,0,4,0,2,.01,4,0,6,0Z"/>
    <path class="cls-8" d="M1200,1200c-.15,0-1.13-.99-2.42-1.04-7.17-.26-14.42.27-21.58.04-1.37-4.74,1.37-6.78,2.51-10,12.2-34.38,22.76-74.47,16.26-111.27-2.05-11.61-9.7-20.95-13.76-31.72,1.74-2.35,26.34-2.43,30.59-2.08,2.01.16,2.45.14,3.41,2.07.72,51.04,1,102.68,1,154-5.31-.17-10.7.24-16,0Z"/>
    <path class="cls-4" d="M1215,1036c-.68-.08-1.55-1.82-2.53-.04-2.33,4.23,1.79,6.86,2.53.04.33.04.68-.06,1,0,.51,3.43-1.05,6.63-1,10-.95-1.93-1.4-1.9-3.41-2.07-4.26-.35-28.86-.27-30.59,2.08,4.06,10.77,11.71,20.11,13.76,31.72,6.5,36.8-4.06,76.89-16.26,111.27-1.14,3.22-3.88,5.25-2.51,10,7.17.23,14.41-.3,21.58-.04,1.3.05,2.27,1.03,2.42,1.04-18.23-1.32-35.8,2.17-53.49,6.01-.97.04-.45-3.88-.51-5.01l.98-.5-.98-.5c.03-.65-.09-1.38,0-2,2.13.24,2.24.12,2-2,.13-.08-.1-.67,0-1,1.92-1.15,3.11-3.43,4.17-5.34,9.43-16.96,25.59-61.88,25.83-80.66,0-.67-.03-1.34,0-2l.81-.66c-.7-2.64,1.19-7.17,1.19-8.84v-36c0-.34-.94-1.68-1.04-2.96-.26-3.47.44-11.7-.96-14.54,8.44-2.52,20.86.75,28.79-2.66,1.84-.79,2.61-5.23,1.21-6.34l6.99-2c-.05.98.12,2.02,0,3Z"/>
    <path class="cls-10" d="M1331,1702c3.03-.56,1.92,1.53,2,3.46.23,5.75-.42,10.03-1,15.54-.03.33.04.67,0,1-2.19-.46-2.19,1.17-2.99,2.5-1.64,2.7-9.91,14.12-10.01,15.01-.31,2.93,2.31,7.13,2.89,10.1,1.63,8.19,3.29,16.34.11,24.39-.12.29.12.73,0,1-.8,1.76-7.6,9.4-9.45,11.06-7.65,6.83-18.44,9.67-27.9,11.92-1.07.26-.54,2.02-.65,2.02h-14c-.11,0,.41,1.73-.65,2.02-2.24.59-6.58-.26-9.35-.02-.55-3.53,6.62-2.48,7.8-4.21.49-.73.09-2.56.76-3.69,4.76-8.04,7.49-8.29,7.07-19.42-.32-8.52-3.87-15.05-9.72-21.07-2.91-3-6.01-4.39-9.9-5.6,12,.15,44.18-2.52,54.28.19,1.14.31,2.17,1.9,3.45,2.6,1.1.6,3.81.87,4.14,1.35.9,1.29-1.43,4.63,2.12,3.86,1.36-6.61-5.21-11.91-3.8-18.27.76-3.41,5.15-5.97,7.22-8.81,7.58-10.39,7.95-14.02,7.58-26.92ZM1320.99,1759.99c.72-1.4-.63-2.67-.98-1.99-.72,1.4.63,2.67.98,1.99Z"/>
    <path class="cls-4" d="M1143,1263c1.06,4.72,19.71,17.54,24.64,19.86,15.41,7.26,31.59,12.05,48.36,15.14.09,8.98-.06,18.02,0,27-24.5-4.4-47.6-13.04-69.1-25.44-1.07-.62-2.56-.36-2.9-.56-3.21-1.94-8.79-7.99-11.51-10.99-2.48-2.72-5.95-6.69-7.49-10.01,2.38-4.34,11.76-7.92,14.35-13.16l3.65-1.84Z"/>
    <path class="cls-6" d="M1304,575c16.39-2.01,18.68,3.45,26.17,15.38.66,1.06,2.26,1.23,2.79,2.41,2.9,6.47,4.8,20.57,3.93,27.59-1.09,8.85-11.46,20.21-10.89,25.02.51,4.3,7.98,7.67,11.19,10.67,2.09,1.95,12.25,12.42,12.81,13.92.16.43-.07,1.36,0,2-.63-.25-3.5-1.68-4-2-.31-.2,1.29-.77-2-2,.29-2-1.33-2.21-2-3-3.64-4.28-17.18-14.47-17.98-18.52-1.61-8.18,9.47-16.67,10.79-25.25.92-5.98-.66-16.52-2.81-22.23-1.25-3.3-8.29-15.48-10.58-17.95-3.47-3.74-12.41-4.5-17.42-5.05v-1Z"/>
    <path class="cls-11" d="M1332,1612c.32.04.67,0,1,0s.67-.01,1,0c1.21.79,1.53,3.44,2,4-2.74,5.78-8.27-3.7-6.99-4.99,1.31-.49,2.41.93,2.99.99Z"/>
    <path class="cls-1" d="M446,545c-2.07-.13-4.15-.13-6,1-.19-.32-4.58-1.38-3-6,4.31-.25,9.25-.77,9,5Z"/>
    <path class="cls-8" d="M911,395c-4.64,2.8-5.3-6.43-9.99-4.99-1.77,5.45,2.96,5.82,4.06,7.68,1.04,1.74.58,4.35,1.48,6.27,2.05,4.36,7.58,4.71,9.45,6.55,1.39,1.37,2.9,8.87,6,1.5.24.3,5.38,3.58,6,4,2.95,7.6,7.27,9.46,11.67,16.32.69,1.08.26,3.01,1.22,4.28,1.43,1.89,4.69,1.09,5.04,1.48s-.22,2.41.34,3.66c1.26,2.83,7.94,12.43,10.26,16.2.93,1.51,4.01,1.39,3.46,4.06-6.43-2.8-4.25,2.78-9.99,2v-3.99s3.99-1.49,3.99-1.49l-3.99-2.52c-.32.28,1.12,4.48-2.49,2.99-3.41-1.41.24-3.8.37-4.64.66-4.09-7.41-.25-9.88-2.36-.53-3.22,4.31-2.07,2.91-5.4-.85-2.03-3.87-1.85-4.68-2.84-1.05-1.28-.54-5.75-2.78-6.72-3.13-1.13-2.48,2.19-3.97,2.96-1.89.98-1.72-3.17-4.2-3.87-1.55-.43-4.22.25-5.31,1.35-3.79,3.83,2.59,7.89,3.54,11.49,1.59,6-1.14,15.43-4.61,20.45-1.87,2.7-7.69,1.65-8.74,8.34-.38,2.43.97,5.02.93,7.74-.09,5.46-1.88,8.48.39,14.51,2.12,5.65,8.4,2.09,12.96,1.94,1.82-.06,4.19,1.48,5.87,1.12.99-.21.9-2.47,2.29-2.93,2.91-.97,12.48-2.72,15.91-2.95.8-.06,1.38.82,1.48.81.91,7.95-3.3,1.89-5.3,2.19-2.94.43-9.55,4.57-12.47,5.54-10.08,3.34-20.6,4.45-30.32,8.68-4.26,1.85-5.85-1.21-5.91,5.59-.67,0-1.33,0-2,0,1.05-3.22-4.68-2.09-4.9-1.9-.61.53-.27,6.47-3.72,7.78-3.82,1.45-1.75-4.59-4.87-3.88-.68.15-2.62,3.22-5.22,3.79-2.98.66-5.96-.08-9.32.7-5.35,1.24-3.06,3.06-4.49,5.47-.77,1.3-2.69,1.35-3.49,2.03-4.06,1.65-17.85,3.28-14,10-.28.29.89,2.96-3,2-.11-1.04-.72-4.14-2.46-3.99-3.53.31-5.06,2.56-4.54,5.99-3.39-.55-2.84-2.81-6.69-1.24-3.55,1.45-13.84,10.17-16.85,13.2-1.29,1.3-1.1,3.12-1.74,3.75s-2.41.25-3.66,1.85c-1.98,2.55.81,4.59-5.05,2.43-.77,3.82,2.23,6.76,5.99,6.01-.74-6.24,1.09-3,4.38-4.14,1.52-.53,1.32-2.85,2.21-2.92.8-.06,2.8,1.49,3.41,1.06.98-.71-.61-6.03,7.01-4.01-2.36,3.3-4.18,3.16-7.91,5.59-32.65,21.22-61.19,40.19-91.09,65.41-8.39,4.13-19.17,10.78-24,19-.25.14-.75-.14-1,0-19.34,10.89-42.79,38.63-59,55-1.33,1.34-2.67,2.64-4,4-12.1,12.32-26.77,25.07-38,38-6.85-1.19-15.2-9.63-19.51-14.99-7.4-9.2-29.38-52.12-33.27-63.73-8.1-24.19,15.67-57.38,25.75-78.8,14.17-8.11,30.93-10.57,46.02-16.48.22,2.15-2.79,3.49-4.31,4.18-4.26,1.92-12.84,5.74-16.96,7.05-5.78,1.83-14.26.57-16.72,7.77,3.65-.16,8.14.58,11.61-.81,2.01-.8,1.63-2.87,3.89-3.25,4.8-.8,12.87,4.29,15.16-3.99,6.35.5,12.6-1.32,18.84-1.75,1.42-.1,2.94,1.12,4.78.67,2.42-.6,3.52-4.58,5.2-5.89,1.44-1.13,7.41-2.88,8.48-1.89.4.37-.96,4.48,2.54,2.91,2.32-1.04.5-11.2,10.51-7.99,1.15,4.42-2.36,2.3-3.53,3.94-1.54,2.14-1.18,12.73.66,13.92,3.33,2.16,9.47-1.71,11.34-1.8s3.8,1.69,5.99,1.77c1.95.07,9.88-1.32,11.49-2.38,3.07-2.04,1.23-5.13,3.01-6.99s9.3-1.24,12.13-4.92c2.43-3.16-3.82-5.41-1.1-9.54-4.49-1.33-2.12,2.99-4.62,3.87-1.93.68-5.2-.17-7.38.12-1.16-4.16,4.09-3.42,3.99-6.99-3.47-.83-9.42,6.64-12.06,4.56-6.36-11.63,7.53-15.43,13.79-22.43,1.61-.66,6.49,1.66,7.27.85,2.56-2.62-3.68-3.48-3.99-4.5-1.67-5.47,12.43-7.84,14.95-9.04,1.17-.56,8.55-5.03,10-6,.67-.44,7.56-7.2,7.84-7.68.65-1.12-.11-3.45.21-3.77.36-.37,2.95.46,3.85-.13.61-.4.67-4.54,3.14-6.38,2.15-1.59,4.63-1.18,6.95-2.04.97-.36,1.75-2.18,2.67-2.4,1.65-.39,3.64,4.14,6.37,2.94-.17-1.96.73-9.58,2.52-10,2.89,1.1,10.11,7.5,9.48,10.46-.3,1.42-4.1,1.54-5.55,2.48-1.89,1.21-2.57,4.42-4.48,5.52-1.7.98-4.02.54-5.68,1.83-5.4,4.18-1.19,6.78-1.37,8.07-.85,6.04-12.49,2.09-13.44,3.6-2.97,4.76,6.42,6.07,2.9,9.12-3.14,2.73-6.06,3.9-.65,7.76,4.11-1.48,11.11,1.06,14.25-.37,5.54-2.51.49-8.29,3.54-9.47,3.46-1.34,1.72,2.33,4.13,3.83,8.59,5.33,7.63-5.45,10.01-6.93,2.67-1.67,9.4-1.4,12.63-2.12,5.36-1.21,12.92-4.37,19.2-4.6,5.59-.2,15.23,2.75,19.01,2.76,1.79,0,3.5-1.99,6-2.01,3.45-.03,5,3.14,8,3.16,4.22.03,3.88-3.8,5.2-4.12,2.4-.59,7.46.92,9.36-.41,2.07-1.45.15-12.58,1.48-16.52,1.07-3.18,8.14-9.17,10.34-12.68s-.69-5.35,6.12-4.37c1.07-3.59-3.4-8.48-2.83-11.25.89-4.34,9.39-8.75,9.86-11.26,1.59-8.49-6.34-16.91-6.11-19.97s3.18-2.05,5.02-3.08c3.9-2.19.5-4.13.09-7.01-1.43-10.07,4.85-6.18,6.51-9.42,1.35-2.63-.59-4.66-.28-6.38.23-1.28,2.33-1.84,1.74-3.62-2.18.43-11.16-1.97-11.99-3.52-1.32-2.48,4.49-.74,4.99-3l-3.99-5.95c.32-1.34,6.97-4.18,8.52-5.52,1.89-1.63,2.74-4.23,4.49-5.51,1.64-1.2,4.17-1.19,5.48-2.52,3.16-3.21.2-10.32,8.5-9-2.31-7.97-6.45-2.45-9.76-1.26s-6.39.89-8.24,1.26c2.9-2.12,15.93-13.65,18.36-12.94,1.76.52,12.62,18.11,14.64,20.94ZM912.01,423.99v3s2.99.01,2.99.01v-3s-2.99-.01-2.99-.01ZM900.99,503.01h-2.99v1.99h2.99v-1.99Z"/>
    <path class="cls-11" d="M838,558c1.06-.26,2-.55,2.99-1,.83,3.97-.8,7.89-1,11.5-.09,1.66,1.23,3.48,1.07,4.88-.08.66-1.91.54-2.08,1.28-.47,2.05.96,4.83.81,7.53-1.99,36.24-45.14,106.44-71.77,131.32-2.66,2.48-12.24,11.51-15.4,10.43-1.2-.41-3.24-7.4-3.89-9.17-4.71-12.98-7.93-29.78-13.23-41.77-4.33-9.8-8.75,11.86-10.02,14.98-13.85,34.11-44,72.12-70.97,97.06-14.12,13.05-31.36,23.6-45.99,35.98-15.8,13.37-14.07,12.64-15.52,32.98-.53,7.36-.32,11.49,0,19,.18,4.31-.14,8.69,0,13,.04,1.1-.3,2.52,1,3-.14,1.91.48,16.32,1,17l1,2c-.1,1.31,0,2.68,0,4,.11,18.42,5.99,39.61,9,58,.53,3.21.81,5.73,1,9,.06,1.09-.32,2.52,1,3-.87,5.39-1.34,6.49-5,11-.37-.22-3.3,0-5.36-1.14-11.18-6.15-22.4-18.18-32.64-25.86-7.43-5.58-13.93-10.59-22.99-13.51-12.7-4.09-24.81-3.75-38.01-3.49-.83-12.72-4.2-28.02-4-40,.17-10.49,15.37-38.09,21.19-48.31,18.6-32.63,39.98-59.95,62.81-88.69l1-1c.63-.79,1.15-1.94,2-3,1.85-.08,2.95-1.15,4.03-2.51,10.4-13.01,23.57-25.81,35.31-38.15,4.26-4.48,11.44-6.58,10.66-14.34,1.33-1.36,2.67-2.66,4-4,4.65-.06,10.37-5.51,13.9-8.6,13.35-11.68,24.83-26.06,37.55-38.43,2.69-2.61,6.85-4.15,7.55-7.97.25-.14.75.14,1,0,9.36-5.35,16.22-12.44,24-19,29.89-25.22,58.43-44.2,91.09-65.41,3.74-2.43,5.55-2.28,7.91-5.59.26-.36.72-.63,1-1,2.59.44,3.91-1.7,5.91-2.47,1.63-.62,5.94-2,8.09-2.53Z"/>
    <path class="cls-5" d="M878,387c1.85-.37,4.96-.08,8.24-1.26s7.45-6.71,9.76,1.26c-8.3-1.33-5.35,5.79-8.5,9-1.31,1.33-3.84,1.32-5.48,2.52-1.75,1.27-2.6,3.88-4.49,5.51-1.55,1.33-8.19,4.18-8.52,5.52l3.99,5.95c-.49,2.26-6.3.52-4.99,3,.83,1.55,9.8,3.95,11.99,3.52.59,1.78-1.51,2.34-1.74,3.62-.31,1.72,1.62,3.75.28,6.38-1.66,3.24-7.94-.65-6.51,9.42.41,2.89,3.81,4.82-.09,7.01-1.83,1.03-4.78.02-5.02,3.08s7.7,11.48,6.11,19.97c-.47,2.51-8.97,6.92-9.86,11.26-.57,2.77,3.9,7.66,2.83,11.25-6.81-.97-4.02,1.01-6.12,4.37s-9.26,9.5-10.34,12.68c-1.33,3.94.59,15.07-1.48,16.52-1.91,1.33-6.97-.17-9.36.41-1.32.32-.99,4.14-5.2,4.12-3-.02-4.55-3.2-8-3.16-2.49.02-4.21,2.01-6,2.01-3.78,0-13.42-2.96-19.01-2.76-6.29.22-13.85,3.39-19.2,4.6-3.23.73-9.96.46-12.63,2.12-2.38,1.48-1.42,12.27-10.01,6.93-2.42-1.5-.67-5.17-4.13-3.83-3.05,1.18,2,6.96-3.54,9.47-3.14,1.43-10.14-1.11-14.25.37-5.41-3.86-2.49-5.03.65-7.76,3.52-3.06-5.88-4.36-2.9-9.12.94-1.51,12.59,2.44,13.44-3.6.18-1.29-4.03-3.89,1.37-8.07,1.67-1.29,3.98-.86,5.68-1.83,1.91-1.09,2.59-4.3,4.48-5.52,1.45-.93,5.25-1.05,5.55-2.48.63-2.97-6.59-9.36-9.48-10.46-1.79.42-2.68,8.03-2.52,10-2.72,1.2-4.71-3.34-6.37-2.94-.93.22-1.71,2.04-2.67,2.4-2.33.86-4.8.45-6.95,2.04-2.48,1.83-2.54,5.98-3.14,6.38-.91.59-3.49-.24-3.85.13-.32.32.44,2.66-.21,3.77-.28.48-7.18,7.23-7.84,7.68-1.45.97-8.83,5.44-10,6-2.52,1.2-16.62,3.57-14.95,9.04.31,1.03,6.55,1.88,3.99,4.5-.78.8-5.66-1.51-7.27-.85-6.26,7-20.14,10.8-13.79,22.43,2.64,2.08,8.59-5.4,12.06-4.56.1,3.57-5.15,2.83-3.99,6.99,2.18-.29,5.44.57,7.38-.12,2.49-.88.13-5.2,4.62-3.87-2.72,4.13,3.52,6.38,1.1,9.54-2.83,3.68-10.26,2.97-12.13,4.92s.06,4.95-3.01,6.99c-1.61,1.07-9.53,2.45-11.49,2.38-2.19-.08-4.2-1.86-5.99-1.77s-8.01,3.96-11.34,1.8c-1.84-1.19-2.2-11.78-.66-13.92,1.18-1.64,4.69.48,3.53-3.94-10.01-3.21-8.2,6.95-10.51,7.99-3.5,1.56-2.14-2.54-2.54-2.91-1.07-.99-7.04.76-8.48,1.89-1.67,1.31-2.78,5.29-5.2,5.89-1.84.46-3.36-.76-4.78-.67-6.24.43-12.5,2.25-18.84,1.75-2.28,8.28-10.36,3.19-15.16,3.99-2.26.38-1.88,2.44-3.89,3.25-3.46,1.38-7.95.65-11.61.81,2.46-7.2,10.94-5.93,16.72-7.77,4.12-1.31,12.7-5.12,16.96-7.05,1.52-.69,4.53-2.03,4.31-4.18,1.13-.44,2.47-1.36,4-2-.41,3.15.94,1.8,2.84,1.35,3.04-.73,6.81-1.47,7.16-5.35,8.8-4.19,21.79-11.64,30-17l.51.99c1.85.35,1.59-.29,1.49-1.99,4.93-3.25,10.44-10.17,16-12,.73-.24,2.71.29,3,0,.31-.31-.28-2.38,0-3,2.06-4.47,15.19-14,19-18,2.65.49,2.07-.66,2-3,20.98-22.33,42.2-48.07,53.76-76.74,4.31-10.69,7.74-22.25,11.36-33.13,1.53-.99,18.75,2.62,22.38,2.86,19.04,1.25,35.22-4.37,53.49-6.99,2.28-.33,6.59.32,6-3,2.62-.98,6.76-2.04,9-3,1.66,1.77,2.33,1.32,2-1,1-.44,2.83-1.41,4-2,1.05,2.28,6.38-.72,7.47-2.03.53-.63.35-1.77.53-1.97,1.94-2.09,1.89-2.37,5-3ZM775,506.99c.26-3.94-5.11-2.98-6.98-4.51-1.49-1.23-.87-4.94-4.02-4.47.24,5.36,5.77,9.76,10.99,8.99ZM837.99,519c-3.33-3.29-7.28,9.03.01,6.49-.24-1.3.33-6.16-.01-6.49ZM673.85,571.84c.31-.25,3.24-6.93,3.15-7.32-.31-1.51-4.72-2.13-5.88-1.39-.39.25-1.21,4.31-1.92,5.57-1.33,2.35-7.5,9.5-5.73,12.31,3.15,5.01,4.63-8.04,5.46-8.59,1.37-.9,4.13.07,4.92-.58Z"/>
    <path class="cls-3" d="M636,713c.78,7.75-6.4,9.85-10.66,14.34-11.73,12.34-24.91,25.14-35.31,38.15-1.08,1.35-2.18,2.43-4.03,2.51,4.1-5.16,7.56-11.89,12-17,11.23-12.93,25.9-25.68,38-38Z"/>
    <path class="cls-8" d="M631,571c-.35,3.87-4.12,4.62-7.16,5.35-1.9.46-3.25,1.8-2.84-1.35,2.96-1.23,7.58-2.85,10-4Z"/>
    <path class="cls-8" d="M873,390c-.18.2,0,1.33-.53,1.97-1.09,1.32-6.42,4.32-7.47,2.03l8-4Z"/>
    <path class="cls-8" d="M850,400c.59,3.32-3.72,2.67-6,3,.96-2.51,3.96-2.24,6-3Z"/>
    <path class="cls-1" d="M682,538c-.28.62.31,2.69,0,3-.29.29-2.27-.24-3,0-.54-2.24,1.27-2.32,3-3Z"/>
    <path class="cls-1" d="M914,399c-1.19-.54-2.63,1.14-2-3,.48.65,2.37,1.01,2,3Z"/>
    <path class="cls-1" d="M703,517c.07,2.34.65,3.49-2,3,.12-.13.65-1.56,2-3Z"/>
    <path class="cls-1" d="M663,553c.1,1.7.36,2.34-1.49,1.99l-.51-.99c.76-.5,1.57-.71,2-1Z"/>
    <path class="cls-8" d="M861,396c.33,2.32-.34,2.77-2,1,.55-.24,1.24-.66,2-1Z"/>
    <path class="cls-3" d="M583,772c.29-.37.71-.64,1-1l-1,1Z"/>
    <path class="cls-6" d="M1238,572c2.99-.02,6.01-.06,9,0,3.14.06,10.01-1.31,9,2-1.86.23-2.31-.73-2,2,5.8-.73,12,4.52,18,2,2.43.44,5.57.96,8,1,6.81,4.9-5.83,2.2-9.29,3.21-1.2.35-4.14,3.3-4.5,4.5-.87,2.87,1.82,18.05,2.88,21.7.89,3.06,4.32,6.58,3.93,10.07-.21,1.93-2.2,2.73-2.79,4.25-1.04,2.7-1.73,7.44-3.68,9.32-.68.66-11.82,5.61-13.11,5.89-5.18,1.13-15.2,1.59-20.95,2.05-6.63.52-16.62-.8-22.84,1.16-2.55.8-2.56,10.88,0,11.71,17.15-.24,34.25.79,51.36,1.14,2.99.06,6.01-.06,9,0,.06,3.47,5.03,5.1,5.79,7.71,1.18,4.05-.38,11.08.26,15.74.52,3.77,3.94,10.02,4.57,13.25,1.29,6.72,1,16.62-3.15,22.29-1.24,1.69-3.92,1.48-3.47,4.01-21.36-.84-42.96.49-64.34.16-1.59.11-2.2,3.31-1.66,3.84.31.3,7.2.91,8.51.99,12.16.83,24.34-.99,36.49-.99-.52,3.24,1.5,1.78,3.37,1.83,2.17.06,7.03-.55,8.7.61,1.25.86.51,3.19,1.18,4.3.16.27,4.17,4.17,4.43,4.33,1.25.79,4.08.44,4.38,1.54.18.66.97,10.46.97,11.85,0,1.83-1.04,3.84-1.08,6.01-.08,4.39,1,16.26-.88,19.11-1.12,1.69-3.78,2.06-4.85,4.15-1.18,2.33-1.23,6.61-1.23,9.28-.18,0-1.6,1.03-3.38,1.07-16.85.36-33.78-.42-50.62-.07v2.99c13.31.19,26.69-.24,40.01,0-.56,3.75,3.73,1.08,6.02,2.48,1.25.77,1.4,3.41,2.5,4.5,2.88,2.87,3.4,3.12,6.42,6.58,1.3,1.49,3.72,1.22,4.98,3.02,1.46,2.08,2.51,10.24,2.7,13.09s-.15,15.43-.8,17.64c-1.22,4.12-8.82,3.01-7.82,7.68-1.63,0-3.41-.15-5,0s-7.21,1.27-8.34,1.93-1.07,2.25-1.66,3.07c-.87,1.22-.71,1.56-2.5,1.96-6,1.33-13.37,1.82-19.5,2.04-3.3.12-7.28-.87-10,1-.91-.16-2.28.23-3,0-8.53-2.76-5.14-7.11-6-8-.44-.46-9.57-.99-12.54-1.95-7.85-2.54-23.7-18.5-25.22-26.78-1.31-7.15-.71-21.2-.24-28.77.14-2.33,2.06-5.56,1.8-6.85s-8.57-11.29-9.77-13.39c-5.27-9.2-8.41-20.67-6.58-31.31.86-5.04,6.6-13.67,6.29-17.29-.4-4.68-5.92-16.36-7.26-22.63-2.6-12.13-2.87-22.5,1.77-34.29,1.47-3.73,7.88-12.5,7.86-15.24-.03-3.52-3.26-5.61-3.96-7.35-4.2-10.41-4.83-16.39-2.14-27.15,5.01-20.03,18.16-29.69,37.21-36.09.84-.28.79-1.72,1.49-1.88,10.1-2.24,26.68-1.97,37.3-2.03Z"/>
    <path class="cls-11" d="M988,499c1.28,1.67,4.82,2.12,6,3,.14.1,1.74,1.73,2,2,.17.18.4,1.92,1.43,3.02,3.04,3.26,6.82,8.07,10.57,9.98.13.25-.11.69,0,1,1.39,3.72,21.62,23.93,26.02,29.52,10.33,13.12,19.54,28.06,26.83,43.13,2.93,6.05,9.13,18.25,10.15,24.35.8,4.78-1.67,3.61-2.33,5.22-1.22,2.99,3.44,33.45,4.41,39.19.54,3.18.63,5.55.92,7.59-4.23-5.51-6.65-12.27-10.19-18.31-8.33-14.18-36.17-56.16-50.02-61.98-17.95-7.55-42.42-11.78-61.57-18.43-13.89-4.82-28.07-10.91-40.89-18.11-7.96-4.47-21.02-10.34-21.33-20.17.13-.05.65-1.46,2-2,18.91-7.61,39.41-11.64,58-20,.33,0,.67.02,1,0,8.02-.55,27.37-6.92,37-9Z"/>
    <path class="cls-2" d="M868,1286l7,10.5c10.48,12.98,42.27,22.97,58.62,25.37,25.93,3.82,52.45,2.73,78.37,1.13.45,1.73-.71,2-1.49,3-6.36,8.25-14.77,16.46-21.48,24.52-9.02,10.84-24.77,28.08-31.48,39.52-3.77,6.43,2.52,14.11,6.03,19.87,17.03,27.88,44.08,52.84,65.93,77.07,33.5,37.14,66.73,76.88,100.97,113.03,4.09,4.32,23.57,21.46,24.3,24.7,1.86,8.24-1.8,21.99,1.94,30.08.76,1.65,2.66,1.66,3.45,3.61,3.92,9.66-9.32,15.67-15.11,20.17-4.25,3.3-17.64,15.56-22.34,14.28-1.49-.4-12.58-10.37-14.75-12.34-42.42-38.48-83.88-88.81-131.11-120.89-1.52-1.03-2.91-2.77-4.87-2.62-.84.85,2.84,5.84,3.58,6.91,11.35,16.22,25.85,32.13,37.83,48.17,15.72,21.03,30.31,42.7,46.61,63.39,4.88,6.2,31.9,36.13,31.91,41.02,0,.53-3.55,9.17-3.94,9.5-.98.85-.84-1.72-2,2-1.36,4.36-3.99,7.99-6,12-2.46.35-5.15,3.15-6.46,5.04-2.9,4.16-4.51,10.59-6.67,14.33-4.72,8.15-6.53-4.72-7.87-5.87-.99-.84-4.45-1.45-6.34-2.66-6.12-3.93-4.47-4.17-12.4-7.6-3.07-1.33-8.63-8.07-13.01-9.11-2.15-.51-3.21,1.89-4.75,1.88-1.34,0-2.41-1.83-3.94-1.92s-3.43,1.06-5.93.87c-5.33-.41-5.04-3.74-7.35-4.74-.74-.32-7.03-1.48-7.28-1.21v4.99c.59.63,6.43-2.94,5.99,2-2.77-1.34-13.9,1.2-12.99-2.48,7.1-3.55,2.93-6.52-2.95-7.07-2.42-.23-8.19-.48-10.58-.48-1.46,0-7.27,1.43-6.46,4.03,2.44.57,5.06-1.08,7.28-.8.49.06,7.47,3.47,7.71,3.82,2.68,3.88-5.94,3.21-6.36,3.29-12.81,2.61-11.59,1.18-23.19-1.25-2.63-.55-5.58.45-8.5-.5-3.46-1.13-3.16-4.63-5.41-6.59-8.13-7.07-16.65-1.99-23.96-12.05-.96-1.32-.93-3.9-1.81-4.69s-4.83-1.11-6.74-2.76c-2.1-1.8-1.95-4.21-3.46-5.54s-4.8-1.36-5.37-2.15c-1.21-1.69-2.94-10.27-4.11-12.13-.75-1.18-3.18-1.21-4.55-2.69-2.28-2.47-1.96-7.05-6.48-8.52-1.95-.63-4.48-.03-6.05-.95-2.17-1.27-7.24-9.67-8.9-11.1s-3.6-1.12-5.05-1.95c-2.6-1.5-7.09-15.54-8.64-19.36-5.44-13.32-6.2-24.44-10.89-38.11-2.64-7.68-.93-5.09-1.52-11.39-.52-5.53-5.15-16.26-6.61-22.57-5.33-23.15-8.81-33.65-19.96-54.95-1.05-2-1.08-4.66-2-6.04-.55-.83-2.39-.81-2.47-1.61-.09-.98,1.27-3.53,1.11-5.9-.18-2.65-2.09-4.43-2.11-6.97-.03-3.24,2.03-7.73,1.04-11.54,3.73-1.03,2,2.5,4.98,2,4.23-11.41,9.37-22.92,12.96-34.55,2.47-8,8.08-26.45,8.98-34.02,1.41-11.96-1.08-24.56,5.24-35.76.9-1.6,3.39-3.05,3.69-4.35.56-2.42-1.48-5.41.65-10.31,1.07-2.46,4.02-4.38,4.34-5.69.38-1.53-1.08-4.42-.93-6.79.32-5.09,2.52-8.59,4.31-12.79.73-1.71,3.48-10.95,3.98-11.52.56-.63,2.98.05,3.67-1.82,3.2-8.73-7.89-11.21-5.89-.39-4.06-.12-3-5.61-7.99-4,.72-1.14-.2-1.52,2-3,.36-.24,1.76.65,2.05-.59,1.11-4.74-1.46-12.58-.07-18.71.27-1.2,3.14-1.12,3.83-3.39s-.02-5.03.18-7.32c.1-.16.82.16,1,0,1.63-1.41.68-2.3,1-3,.45-.99,1.98-3.39,2-4,1.32.37,2.69.6,4,1ZM869.99,1309c-1.89-2.03-4.98,5.3-1.51,3.99,1.29-.49,2.13-3.32,1.51-3.99ZM860,1311.99v5.01s2,0,2,0v-5.01s-2,0-2,0Z"/>
    <path class="cls-10" d="M503,949c13.2-.26,25.31-.61,38.01,3.49,9.06,2.92,15.56,7.94,22.99,13.51.92,2.63-4.5,2.65-5.78,2.74-1.93.12-11.45-.74-12.23-.25-3.23,2,2.6,4.28,3.7,6.32,4.03,7.44.22,4.09-2.02,4.51-11.78,2.2-25.21,15.96-25.68,28.23-.32,8.19,11.85,24.24,16.51,16.47,2.97-4.95-2.19-8.18-2.26-10.28-.11-3.13,1.14-6.19,4.77-5.3,11.69,2.85,25.08,14.07,33.51,22.54,1.66,1.67,2.4,4.22,3.82,5.69.95.98,8.42,7.36,9.02,7.26,2.57-.44,6.44-9.91,6.71-12.4.68-6.23-4.36-12.97-4.12-14.93.07-.54,1.6-.44,1.97-1.35.45-1.1.2-2.67.84-3.96,2.15-4.36,4.32-2.39,7.22-3.79,1.96-.95,4.15-6.87,4.08-9.02-.03-.84-1.82-5.31-2.07-5.46,3.66-4.51,4.13-5.61,5-11,.2-1.21,2.97-3.44-1-3-.19-3.27-.47-5.79-1-9,9.72-1.02,5.3.88,7.94,4.59,2.14,3.02,10.69,7.77,12.14,9.83s.4,4.55,1.9,6.1c.28.28,5.85,4.17,6.47,4.53,1.47.87,3.41,1.97,4.55-.05.54,1.03,3.18,1.92,3,5,0,.06-.88-.17-.99.5-.59,3.75,2.43,3.72,1.99.5,3.23,2.36,3.03,4.33,5.17,7.33,73.73,102.98,190.14,173.37,320.84,144.19,27.57-6.16,54.12-16.35,78.99-29.51-6.46,8.84-10.48,17.23-19.53,24.97-30.77,26.32-109.78,39.25-150.09,44.91-6.77.95-7.62-2.5-10.38,5.12-.16.45-.68,1.03-1,2-5.56,1.44-4.64-1.99-7.62-3.88-5.24-3.33-12.43-3.09-17.65-4.35-20.5-4.95-41-7.6-61.18-11.82-23.29-4.86-48.16-14.46-69.58-25.42-10.63-5.44-17.95-12.13-29.24-14.57-.85-.18-3.31-5.13-7.42-5.75-.78-.12-1.23.78-1.3.78-.33-.02-.67.03-1,0,.59-3.53-2.41-6.48-4.49-9.01-5.8-7.07-16.11-16.96-22.9-23.58-6.97-6.8-14.38-13.39-21.66-19.87-1.73-.96-3.16-.73-4.91,0-4.81,1.98-13.37,11.67-18.56,14.45l-.47,2.02,4,2c-3.7-.24-1.4-.82-3.42-1.09-3.99-.53-17.08-.49-21.13.02-1.8.23-1.48,1.78-2.21,2-8.28,2.54-14.08.82-22.49-.17l-6.75-3.76c.64,0,7.73.41,5-1.99-.14-.12-2.15-.06-3.48-.99-33.89-23.86-63.43-77.43-51.23-119.23,3.27-11.21,7.35-12.78,6.71-25.79-.02-.33.02-.67,0-1Z"/>
    <path class="cls-3" d="M871,1201c-1.04.11-2.75-.48-1.98,1.48.08.2,2.35,3.34,2.53,3.48,2.86,2.32,22.51,2.87,27.96,3.08,1.89.07,4.08.86,3.5-2.04,25.13,4.43,54.83,10.01,80,12,6.3.5,12.57,0,18.5,0h24c.4,0,2.24-.98,3.93-1.07,3.4-.18,8.91-.54,11.57,1.07-1.09,2.59-.13,18.23-.96,22.34-.44,1.93-7.3,1.58-9.27,1.94-38.04,7.01-61.94,12.31-101.23,12.68-10.15.1-18.59-.22-28.08,1.01-3.13.4-8.01-.84-10.46,1.53-3.1,2.98,1.33,4.98,3.83,6.19,16.32,7.93,86.47,14.49,105.55,13.19,16.58-1.13,34.36-6.28,51.02-7.94,1.95,3.85,3.56,9.06,2.58,13.39-.19.85-2.68.68-1.98,2.69-5.77.16-16.05,5.95-21.92,7.58-28.56,7.92-57.68,11.93-87.57,10.41-4.22-.21-13.48-.51-15.51-2.99-.28-.34,0-1.79-1.44-3.03-.46-.39-8.06-4.43-8.53-4.53-2.03-.42-4.01.83-6.37.49s-15.31-3.23-16.43-4.16c-.92-.77-.71-3.19-1.38-3.62-.75-.48-3.29-.04-4.86-.61-8.45-3.11-17.8-10.57-21.64-18.62l-10.34-2.92c-6.35-16.5-13.03-26.85-4-45l1-1c.25-.39.72-.64,1-1,2.79-3.62,8.6-6.88,10.42-10.08,1.59-2.8.92-4.94,1.58-6.92.32-.97.84-1.55,1-2,2.34-.27,4.11.42,4,3Z"/>
    <path class="cls-6" d="M503,950c.64,13.01-3.44,14.58-6.71,25.79-12.2,41.8,17.34,95.37,51.23,119.23,1.33.94,3.34.87,3.48.99,2.73,2.39-4.36,1.99-5,1.99-.33,0-.67.03-1,0,.47-2.92-.73-1.82-3-2-.98-.08-2.05.13-3,0,.62-3-1.48-1.88-4-2-33.15-19.54-48.91-44.17-54.76-82.74-2.74-18.09,1.75-37.41,11.73-52.01,2.84-4.16,4.39-9.88,11.03-9.25Z"/>
    <path class="cls-9" d="M672,1135c.08,0,.52-.89,1.3-.78,4.12.62,6.57,5.56,7.42,5.75,11.29,2.44,18.6,9.14,29.24,14.57,21.42,10.95,46.29,20.55,69.58,25.42,20.19,4.21,40.68,6.87,61.18,11.82,5.22,1.26,12.41,1.02,17.65,4.35,2.98,1.89,2.06,5.31,7.62,3.88-.66,1.98,0,4.13-1.58,6.92-1.82,3.2-7.63,6.46-10.42,10.08,1.15-6.74-1.7-4.6-5.68-6.82-4.31-2.41-11.25-9.99-12.02-10.2-3.27-.88-9.74.59-13.74-.03-8.88-1.38-21.76-6.44-31.35-8.65-21.25-4.9-46.25-8-65.14-19.87-6.42-4.03-9.68-4.62-15.75-7.76-1.02-.53-11.12-7.1-11.61-7.6-1.02-1.04-.79-3.06-1.63-3.61-1.32-.87-3.31-.11-4.81-.74-1.72-.72-9.82-9.18-10.5-9.42-1.84-.66-3.68.07-5.52-.59-.37-.13-5.21-5.24-4.24-6.71Z"/>
    <path class="cls-11" d="M602,1101l-4-2,.47-2.02c5.2-2.78,13.75-12.47,18.56-14.45,1.75-.72,3.19-.95,4.91,0,7.28,6.48,14.69,13.07,21.66,19.87,6.79,6.62,17.1,16.51,22.9,23.58,2.08,2.53,5.08,5.48,4.49,9.01-.33-.03-.67,0-1,0h-1c-4.21-1.72-8.79-5.43-12.98-7.52-8.34-4.16-49-26.16-54.02-26.48Z"/>
    <path class="cls-7" d="M856,1264l10.34,2.92c3.84,8.05,13.19,15.51,21.64,18.62,1.57.58,4.12.13,4.86.61.67.43.46,2.85,1.38,3.62,1.12.94,14.03,3.82,16.43,4.16s4.34-.91,6.37-.49c.47.1,8.07,4.14,8.53,4.53,1.45,1.24,1.16,2.69,1.44,3.03-21.13,1.77-39.77-9.12-59-15-1.31-.4-2.68-.63-4-1,.09-3.16-6.41-16.87-8-21Z"/>
    <path class="cls-10" d="M535,1094c2.52.12,4.62-1,4,2-3.73-.5-2.52-1.13-4-2Z"/>
    <path class="cls-10" d="M542,1096c2.27.18,3.47-.92,3,2-2.26-.18-3.47.93-3-2Z"/>
    <path class="cls-1" d="M861,1292c-.11-.62.16-1.49,0-2l1-1c-.32.7.63,1.59-1,3Z"/>
    <path class="cls-9" d="M669,1135h1c-.33,0,.38.56-1,0Z"/>
    <path class="cls-9" d="M852,1219c.23-.47.81-.71,1-1l-1,1Z"/>
    <path class="cls-1" d="M852,1325c5-1.61,3.93,3.88,7.99,4-2.01-10.81,9.08-8.33,5.89.39-.68,1.87-3.11,1.19-3.67,1.82-.5.57-3.25,9.81-3.98,11.52-1.79,4.19-3.99,7.7-4.31,12.79-.15,2.38,1.31,5.26.93,6.79-.33,1.32-3.27,3.23-4.34,5.69-2.13,4.9-.09,7.89-.65,10.31-.3,1.3-2.79,2.76-3.69,4.35-6.32,11.2-3.84,23.79-5.24,35.76-.89,7.58-6.51,26.02-8.98,34.02-3.59,11.63-8.73,23.14-12.96,34.55-2.98.5-1.25-3.03-4.98-2,.99,3.81-1.07,8.3-1.04,11.54.02,2.55,1.93,4.33,2.11,6.97.16,2.38-1.21,4.93-1.11,5.9.08.8,1.92.78,2.47,1.61.92,1.38.95,4.04,2,6.04,11.15,21.29,14.63,31.8,19.96,54.95,1.45,6.31,6.09,17.04,6.61,22.57.59,6.3-1.11,3.71,1.52,11.39,4.7,13.67,5.45,24.79,10.89,38.11,1.56,3.82,6.05,17.85,8.64,19.36,1.44.84,3.34.48,5.05,1.95s6.73,9.82,8.9,11.1c1.56.92,4.1.32,6.05.95,4.52,1.47,4.2,6.05,6.48,8.52,1.37,1.49,3.8,1.51,4.55,2.69,1.17,1.86,2.91,10.44,4.11,12.13.56.79,3.93.88,5.37,2.15s1.36,3.74,3.46,5.54c1.91,1.64,5.89,2,6.74,2.76s.86,3.37,1.81,4.69c7.31,10.06,15.83,4.98,23.96,12.05,2.25,1.96,1.95,5.46,5.41,6.59,2.92.95,5.87-.06,8.5.5,11.6,2.43,10.38,3.86,23.19,1.25.42-.09,9.04.59,6.36-3.29-.24-.35-7.23-3.76-7.71-3.82-2.21-.29-4.84,1.37-7.28.8-.8-2.6,5-4.03,6.46-4.03,2.39,0,8.16.25,10.58.48,5.88.55,10.05,3.51,2.95,7.07-.91,3.69,10.22,1.15,12.99,2.48.45-4.94-5.4-1.37-5.99-2v-4.99c.25-.27,6.55.89,7.28,1.21,2.31,1.01,2.02,4.33,7.35,4.74,2.49.19,4.42-.96,5.93-.87s2.6,1.92,3.94,1.92c1.54.01,2.6-2.39,4.75-1.88,4.38,1.04,9.94,7.78,13.01,9.11,7.93,3.43,6.28,3.66,12.4,7.6,1.88,1.21,5.35,1.82,6.34,2.66,1.35,1.15,3.16,14.01,7.87,5.87,2.16-3.74,3.77-10.17,6.67-14.33,1.31-1.89,4-4.69,6.46-5.04-3.72,7.41-9.8,17.68-10.89,25.61-1.03,7.49-.74,16.74-1.1,24.39,2.75,3.02,11.4-14.14,12.58-15.91,17.91-26.75,38.07-46.43,58.38-70.62,6.29-7.49,12.83-19.18,19.5-25.5,2.61-2.48,2.86-.35,2.52,2.02-.07,1.33.06,2.67,0,4,0,.21-.88,1.91-1,4-.38,6.55-.8,19.13.24,25.26,1.86,11.02,12.3,14.2,13.75,29.25s.55,30.05,9.01,43.99c3.72,6.13,10.96,10.49,15,15.5,2.42,3,1.74,6.73,2,7,.49.51,12.1.83,13.99,0l2.01,20c.07,21.31.13,42.69,0,64-1.2,1-1.21,2,0,3,0,1,.01,2,0,3-4.04,7.55,2.73,22.76-10,22.01,1.52-7.59-6.06-2.37-11-3-.23-1.13.34-4.65,0-5-.32-.32-6.76-.74-9.01-1.49-9.05-3-16.31-6.81-24.26-11.24-1.11-.62-3,.1-3.61-.43-.38-.32.28-1.95-.75-2.91-3.05-2.83-13.07-4.9-17.34-7.47-1.55-.93-1.62-2.86-2.27-3.24-8.75-5.16-17.92-11.37-26.93-16.34-8.28-4.57-12.78-11.57-18.88-19.1-16.72-20.64-27.8-44.15-42.27-66.01-6.42-9.7-8.89-19.54-23.26-18.87-3.3.15-1.97,2.14-3.87,2.21-4.38.16-11.2-1.05-16.99-1.06-29.09-.06-58.03-.09-87-1.1-3.93-.14-22.8.74-24.34-.17-.36-.22-.98-2.27-2.2-3.29-1.03-.85-3.62-1.24-3.85-1.65-.56-.95.12-2.85-.17-4.12-.21-.92-7.3-13.45-8.76-16.45-13.93-28.6-29.84-57.7-41.88-88.14-.6-1.53-1.05-4.74-3.33-4.15-.08-.31.08-.69,0-1-4.95-18.69-11.69-37.43-16.26-55.22-13.87-53.97-16.32-113.2-1.48-170.01.59-2.27,3.23-4.8,3.68-7.32.64-3.6-.68-8.51.09-11.74,1.14-4.78,6.94-17.03,7.94-21.4.57-2.51-.4-5.72.24-8.59.58-2.58,3.11-3.74,3.59-5.41.67-2.35-.2-4.96.48-7.52,2.08-7.76,7.21-18.64,10.72-25.78l4,5.99c-7.02.81-3.95,1.6-5.04,5.43-.65,2.28-2.63,3.86-1.95,6.57,6.59.83,4.09-2.66,5.21-6.28.48-1.55,2.94-3.83,4.06-6.94,2.07-5.76.23-9.27.87-12.12.25-1.14,1.67-1.36,1.85-1.66Z"/>
    <path class="cls-4" d="M844,1331c-.12.57-.77,2.53-1,3-3.51,7.14-8.64,18.01-10.72,25.78-.68,2.56.19,5.17-.48,7.52-.48,1.67-3.01,2.83-3.59,5.41-.64,2.87.33,6.08-.24,8.59-1,4.37-6.8,16.62-7.94,21.4-.77,3.23.55,8.15-.09,11.74-.45,2.52-3.08,5.05-3.68,7.32-14.84,56.81-12.4,116.05,1.48,170.01,4.57,17.79,11.32,36.53,16.26,55.22-2.64.59-1.9-1.38-2.54-2.91-13.11-31.68-23.56-71.57-27.34-105.71-6.36-57.45,11.12-159.03,39.88-209.38-.08.64.13,1.41,0,2Z"/>
    <path class="cls-8" d="M846,1324c3.61-.26,3.5-3.46,4.34-5.67.24-.62,3.27-2.42,1.66-6.33,4.02-.63,1.2,7.57,1.99,9.99-2.2,1.48-1.28,1.86-2,3-.19.3-1.6.52-1.85,1.66-.64,2.85,1.21,6.36-.87,12.12-1.12,3.11-3.58,5.39-4.06,6.94-1.12,3.61,1.37,7.11-5.21,6.28-.68-2.72,1.3-4.29,1.95-6.57,1.09-3.83-1.98-4.62,5.04-5.43l-4-5.99c.23-.47.88-2.43,1-3,3.43.82,1.59-3.24,2-6,.05-.33-.06-.68,0-1Z"/>
    <path class="cls-1" d="M860,1292c-.2,2.29.48,5.16-.18,7.32-.7,2.27-3.56,2.19-3.83,3.39-1.39,6.13,1.17,13.96.07,18.71-.29,1.24-1.69.34-2.05.59-.79-2.42,2.02-10.62-1.99-9.99,1.61,3.9-1.43,5.7-1.66,6.33-.84,2.2-.73,5.41-4.34,5.67,1.08-6.18,10.53-26.14,14-32Z"/>
    <path class="cls-1" d="M846,1325c-.41,2.76,1.43,6.82-2,6,.13-.59-.08-1.36,0-2,.45-.79-.4-3.62,2-4Z"/>
    <path class="cls-2" d="M950,498c2.57-.22,4.4-1.92,5.34-1.84,1.24.1,2.54,1.9,4.14,1.89.56,0,.08-2.17,1.97-2.16,2.61.02,10.03,3.56,5.07,4.11-2.13.24-4.08-.39-6.27.3-1.44.46-3.13,5.36-3.41,5.54-1.25.79-5.06-.94-5.85,2.15-.33.02-.67,0-1,0-1.69.02-5.8-1.23-6-1-.26.3.35,2.53-.05,2.91-.57.53-3.78-.23-5.27.11-11.16,2.56-23.69,9.16-36.68,11.98.6-3.71-5.25-2.69-2,1-1.22.19-2.72-.14-4,0,0-1,0-2,0-3,.06-6.8,1.65-3.74,5.91-5.59,9.72-4.23,20.24-5.34,30.32-8.68,2.93-.97,9.53-5.11,12.47-5.54,2-.29,6.21,5.76,5.3-2.19Z"/>
    <path class="cls-6" d="M1222,1532c-.58,3.21,1.61,1.65,3.43,2.02,9.81,1.99,15.74,1.75,25.57,1.98,1.66.04,3.34-.05,5,0,6.28,1.18,3.96,1.55,6.53,4.96.84,1.12,2.27,1.92,2.9,3.12,2.81,5.39,3.55,37.58,2.62,44.47-1.24,9.19-17.86,7.28-24.54,7.45-8.63.23-20.53-.32-28.95,1.06-.66.11-6.7,2.55-7.12,2.87-3.62,2.79.12,4.27,1.02,6.15.59,1.23.29,3.01.74,3.7s13.5,2.73,15.6,2.91c11.49.95,22.63-1.57,34.65.36,1.33.21,6.97,3.53,7.33,4.16.87,1.55.7,9.02,1.68,11.83.83,2.39,3.03,3.27,3.97,5.03,1.5,2.81,2.05,14.94,1.12,17.98-.53,1.72-2.59,3.2-3.1,4.9-1.12,3.71.74,7.87-4.16,9.84-12.61.91-26.18-2.01-38.71-.71-1.61.17-13.68,2.8-14.27,3.23-2.5,1.8-3.67,8.39-.28,10.16,4.83,2.53,21.9,1.81,28.47,2.53,2.85.32,5.41,1.56,8.11,1.89,3.88.48,14.55.16,17.42,1.58,1.62.8,2.05,4,3.41,5.59,1.44,1.68,4.73,2.48,5.38,4.62,2.22,7.26-1.95,19.89-.86,27.76-.25,1.4-7.81,11.11-8.64,11.36-2.05.63-12.75.74-15.98.81-8.93.21-28.46-2.55-35.67,1.33-1.07.58-2.19,7.82-1.24,9.12.56.76,10,2.53,11.57.93,10.29.73,20.65.87,31,1,3.89,1.22,6.98,2.6,9.9,5.6,5.85,6.02,9.4,12.54,9.72,21.07.42,11.13-2.31,11.38-7.07,19.42-.67,1.13-.26,2.97-.76,3.69-1.18,1.74-8.35.69-7.8,4.21-13.18,1.17-33.58,2.59-45,6-1.45.43-4.27-.3-6,0l5.01-3.98c-5.49-.4-10.35-4.59-16.01-2.01-4.03-5.01-11.28-9.38-15-15.5-8.46-13.93-7.55-28.87-9.01-43.99s-11.89-18.23-13.75-29.25c-1.04-6.13-.62-18.71-.24-25.26l1-4c.06-1.33-.07-2.67,0-4,.89-15.83-.86-26.8-1.08-41.57-.03-1.86,2.72-.62,2.17-4.96-.24-1.95-2.92-.83-2.14-6,.8-5.36,2.54-11.88,3.96-16.27,1-3.09,3.41-8.57,1.1-11.21-2.04-26.48-7.53-44.49,20-60,.25-.14.74.14,1,0,.95-.5,2.64-.07,3-2,.33-.04.68.06,1,0,1.86-.35,3.82.05,5-2,4.89-.17,14.93-.71,19.39-2.14,1.69-.54,1.48-2.76,1.61-2.86.24-.18,3.9.98,6,1Z"/>
    <path class="cls-4" d="M927,1301c2.03,2.48,11.29,2.78,15.51,2.99,29.89,1.51,59-2.49,87.57-10.41,5.87-1.63,16.15-7.42,21.92-7.58,1.2-.03,3.11-.25,4.04.44,1.65,1.22,1.03,24.92.97,29.08-.02,1.69.64,4.44-1.02,5.49-.06-6.99.05-14.01,0-20.99-1-.23-1.3.08-2.01.48-6.92,3.91-15.07,19.74-19.76,26.24-13.72,19.06-31.3,34.7-46.74,52.26-3.58,4.07-12.37,13.25-11.31,18.28.74,3.55,13.34,19.65,16.43,23.63,17,21.91,37.19,40.77,55.91,61.09,26,28.23,52.23,56.07,78.49,84.01,9.91,10.55,18.88,21.96,28.35,32.65,1.95,2.19,6.27,4.5,8.16,7.35,2.35.98,1.57-4.9,1.49-5.99,2.31,2.64-.1,8.13-1.1,11.21-1.41,4.38-3.16,10.9-3.96,16.27-.77,5.16,1.9,4.05,2.14,6,.55,4.33-2.2,3.1-2.17,4.96.23,14.77,1.98,25.74,1.08,41.57.33-2.37.09-4.5-2.52-2.02-6.67,6.32-13.22,18.01-19.5,25.5-20.31,24.18-40.47,43.86-58.38,70.62-1.18,1.77-9.83,18.93-12.58,15.91.36-7.65.07-16.9,1.1-24.39,1.09-7.93,7.17-18.2,10.89-25.61,2.01-4.01,4.64-7.64,6-12,1.92.34,2.32-.09,2-2,.39-.34,3.94-8.98,3.94-9.5,0-4.9-27.02-34.82-31.91-41.02-16.3-20.69-30.89-42.36-46.61-63.39-11.99-16.04-26.48-31.95-37.83-48.17-.75-1.07-4.43-6.05-3.58-6.91,1.96-.15,3.35,1.58,4.87,2.62,47.23,32.08,88.69,82.41,131.11,120.89,2.17,1.97,13.26,11.93,14.75,12.34,4.7,1.28,18.08-10.98,22.34-14.28,5.79-4.5,19.04-10.51,15.11-20.17-.79-1.95-2.69-1.95-3.45-3.61-3.74-8.09-.08-21.84-1.94-30.08-.73-3.24-20.21-20.38-24.3-24.7-34.24-36.15-67.47-75.88-100.97-113.03-21.85-24.23-48.9-49.19-65.93-77.07-3.52-5.76-9.8-13.44-6.03-19.87,6.7-11.44,22.46-28.68,31.48-39.52,6.71-8.06,15.12-16.27,21.48-24.52.77-1,1.94-1.27,1.49-3-25.92,1.6-52.44,2.68-78.37-1.13-16.35-2.41-48.14-12.39-58.62-25.37l-7-10.5c19.23,5.88,37.87,16.77,59,15Z"/>
    <path class="cls-7" d="M1144,1299c.12.61-.18,1.53,0,2,.29.77.98.93,1,1,11.77,32.74,10.81,68.45,4,102-9.62,20.69-21.62,41.42-37.49,58.01-7.4,7.74-11.58,14.26-19.07,2.04-6.1-9.95-10.9-28.47-14.44-40.06,6.23.16,3.09,4.95,5.07,9.23.39.85,1.75.88,2.25,2,1.72,3.87,5.34,13.88,8.4,16.83.79.76,9,4.73,9.97,4.74,1.75.03,2.77-1.9,4.3-2.35,1.41-.41,2.97.51,4.76-.11,2.53-.87,17.76-22.64,18.81-26.31,2.89-10.15,6.2-18.15,8.49-29.33.1-.51,5.61-6.93,5.81-8.38.16-1.17-1.61-2.38-1.8-3.86-.47-3.67.69-6.73.57-9.79-.11-2.8-3.13-24.28-3.79-26.03-.56-1.51-2.68-1.36-2.9-2.3-.61-2.68,2.75-5,2.15-7.7-.22-.98-2.56-.91-3-2.27-.55-1.7,1.01-4.34.86-6.72-.8-12.41-5.21-34.05-10.96-44.92-1.36-2.58-5.18-2.89-1.98-8.74,1.54,3.32,5.01,7.29,7.49,10.01,2.73,3,8.31,9.04,11.51,10.99Z"/>
    <path class="cls-1" d="M1183,1533c0,.13.93.83.97,2.32.05,2.24-2.91,5.29,1.03,4.68-27.53,15.51-22.04,33.52-20,60,.08,1.09.87,6.97-1.49,5.99-1.89-2.84-6.21-5.15-8.16-7.35-9.48-10.69-18.45-22.1-28.35-32.65l8,1.99c1.75-1.7-9.56-17.12-6.79-21.8.27-.45,2.49-1,3.39-2.1,1.86-2.28.6-4.84,4.85-4.91,6.39-.11,14.59,6.54,16.55-2.18,9.74,5.04,21.68,2.49,30-4Z"/>
    <path class="cls-4" d="M1069,1427c.04-3.05,3.54-4.73,3.86-5.63,1.43-3.95-3.52-7.38,2.14-8.37.68,1.82,1.23,3.22,2,5,.11.96-.16,2.1,0,3,.12.68.72,2.08,1,3,3.54,11.58,8.35,30.11,14.44,40.06,7.49,12.21,11.67,5.7,19.07-2.04,15.87-16.59,27.86-37.32,37.49-58.01-5.27,26-15.49,51.64-34.97,70.53-10.01,9.7-16.03,13.19-27.07,2.01-12.02-12.17-14.46-33.47-17.96-49.54Z"/>
    <path class="cls-4" d="M1153,1537c-8.39-4.34-10.53-17.6-7.31-25.81,5.51-14.03,29.14-20.77,36.18-4.56,4.09,9.42,1.47,17,1.13,26.37-8.32,6.49-20.26,9.04-30,4Z"/>
    <path class="cls-4" d="M1060,1388c-.27,4.58.38,9.47,0,14-1.2,14.41-20.31,23.93-31.99,12.49-8.62-8.44-9.39-18.49-2.45-28.42,10.47-14.99,24.94-11.84,34.44,1.94Z"/>
    <path class="cls-1" d="M1060,1371c4.32,9.22,5.93,19.71,11,28l1.27,7.23c1.12,2.2,1.87,4.47,2.73,6.77-5.66.99-.71,4.42-2.14,8.37-.32.9-3.82,2.57-3.86,5.63-1.61-7.38-3.66-14.66-4.23-22.27l-4.77-2.73c.38-4.53-.27-9.42,0-14,.39.56,1.28,2.61,1.98,1.99,5.36-5.6-1.36-7.06-1.93-9.71s.32-6.38-.05-9.27Z"/>
    <path class="cls-10" d="M1058,1355c-2.76-4.07-1.87-9.38-2-14,1.47,3.89,1.52,9.52,2,14Z"/>
    <path class="cls-1" d="M1195,1536c-1.18,2.05-3.14,1.65-5,2-.76-3.08,2.32-1.91,5-2Z"/>
    <path class="cls-1" d="M1189,1538c-.36,1.93-2.05,1.5-3,2-.48-3.02.82-1.73,3-2Z"/>
    <path class="cls-4" d="M1145,1302c-.02-.07-.71-.23-1-1l1,1Z"/>
    <path class="cls-10" d="M1056,1329v-1c0,.35,0,.67,0,1Z"/>
    <path class="cls-6" d="M890,530c.31,9.83,13.37,15.7,21.33,20.17,12.82,7.2,27,13.3,40.89,18.11,19.16,6.65,43.62,10.88,61.57,18.43,13.85,5.82,41.69,47.81,50.02,61.98,3.54,6.03,5.97,12.8,10.19,18.31.82,5.81,12.91,23.38,16.38,30.12,12.18,23.67,24.26,48.96,33.62,73.88,20.07,53.39,31.92,121.3,21.95,177.45-3.7,20.84-10.82,51.43-19.95,70.55-8.03,16.81-18.97,35.13-28,52-1.06.33-1.42,1.19-2,2-1.1,1.53-1.83,3.8-2,4-12.64,15.39-36.11,31.11-47,46-24.86,13.16-51.42,23.36-78.99,29.51-130.7,29.18-247.11-41.21-320.84-144.19-2.14-2.99-1.95-4.97-5.17-7.33-.34-.25-.6-.76-1-1,.18-3.08-2.46-3.97-3-5-9.64-18.32-24.82-38.64-32.42-57.08-2.82-6.85-4.35-16.2-6.83-23.22-.56-1.6-.38-3.2-2.75-2.7,0-1.32-.1-2.69,0-4,0-.11,1.4-.94.99-1.99-.57-.11-1.87.15-1.99,0-.52-.68-1.14-15.09-1-17,.06-.85,3.07-3.5-1-3-.14-4.31.18-8.69,0-13,1.68-5.41,1.69-13.51,0-19,1.45-20.33-.27-19.61,15.52-32.98,14.64-12.39,31.88-22.93,45.99-35.98,26.97-24.94,57.11-62.96,70.97-97.06,1.27-3.12,5.68-24.79,10.02-14.98,5.3,11.99,8.51,28.8,13.23,41.77.64,1.77,2.68,8.75,3.89,9.17,3.16,1.09,12.75-7.95,15.4-10.43,26.63-24.88,69.78-95.08,71.77-131.32.15-2.7-1.28-5.48-.81-7.53.17-.74,2-.63,2.08-1.28.16-1.4-1.16-3.22-1.07-4.88.2-3.61,1.84-7.52,1-11.5-.99.45-1.93.74-2.99,1-.01-2.33,1.2-2.67,2.77-3.73,7.36-4.98,20.79-11.02,29.23-15.27.38-.19.67-.84,1-1,1.33-.66,2.69-1.36,4-2,.4-.2.7-.85,1-1,3.59-1.75,10.17-3.39,14-5ZM952.79,611.29c-23.7,1.2-45.5,8.49-55.26,31.74-3.01,7.17-8.4,22.67,3.7,22.79,17.55-8.49,34.42-17.97,53.56-22.53,10.42-2.48,38.56-2.8,36.16-18.71-1.27-8.44-22.18-13.11-29.47-13.56-2.97-.18-5.76.13-8.69.27ZM1008,716c.1-.61,1.1-1.53,1.04-2.4-.05-.76-1.8-.48-2.36-1.8-3.25-7.65-2.39-11.48-9.66-18.32-29.23-27.49-59.85,4.1-46.8,40.8,6.38,17.94,29.67,39.28,48.2,23.65.59-.5,8-9.57,8.33-10.15.38-.67,2.9-12.85,3.24-14.78.42-2.34,2.55-5.23,0-8,.14-2.08.2-4.96,0-7-.19-1.93.71-2.28-2-2ZM1084.65,807.65c14.83-14.26,28.22-34.57,14.18-53.98-16.75-23.15-47.72-13.98-64.82,3.83-13.59,14.15-18.41,27.21-14.93,46.92,1.76,9.98,5.84,15.64,15.86,18.14,18.94,4.73,36.06-1.79,49.71-14.91ZM703.35,799.35c1.91-1.75,8.66-6.4,10.95-7.55,5.41-2.72,23.7-6.37,26.19-8.82,3.1-3.06-.63-19.01-5.74-21.23-12.75-5.53-35.11,5.21-45.67,12.83-16.77,12.11-35.49,37.74-27.57,59.4,2.63,7.2,12.11,8.36,17.18,3.71,4.18-3.83,10.64-19.11,14.49-25,2.34-3.57,7.22-10.63,10.16-13.34ZM882,887.99c.46.66,13.83,3.71,15.6,3.91,28.02,3.15,59.07-16.56,66.9-43.89,8-27.94-6.71-37.95-29.14-48.86-4.78-2.33-39.39-17.86-41.35-16.14l29.42,43.07c1.32,4.28,12.04,17.95,11.37,21.29-.49,2.45-13.08,12.06-15.89,14.04-8.84,6.25-20.24,11.12-28.85,17.15-1.86,1.3-9.7,7.07-8.06,9.43ZM751.81,828.24c-7.96.57-16.05,6.12-20.79,12.29-23.92,31.16,19.4,93.22,46.97,56.97,10.69-14.05,11.19-31.01,5.3-47.29-3.96-10.95-19.54-22.82-31.48-21.97ZM1015,1027c20.61-19.63,31.52-41.06,34.88-69.62,2.1-17.9,1.43-67.29-11.34-80.41-9.73-9.99-18.25-.97-24.54,7.56-1.02,1.38-.6,3.84-2.98,3.49v.97c.98.06,2.53-.19,2.99,1.01-2.42-.34-4.21.2-6.4,1.1-16.5,6.79-37.81,21.67-54.58,30.42-14.05,7.33-28.4,14.44-42.66,21.34-21.91,10.59-48.51,20.01-69.28,31.75-1.31.74-2.02,1.59-3.08,2.39-.5.38-1.53-.07-2.87,1.59-20.27,25.12,30.78,61.36,49.87,70.41,46.62,22.11,93.15,13.09,130-22ZM693.35,1019.66c9.31,10.39,23.76,4.93,35.07,1.26,19.21-6.23,52.27-22.35,55.32-44.68,2.29-16.77-3.52-29.73-20.68-33.81-32.68-7.77-74.27,18.55-76.05,53.08-.39,7.6,1.07,18.28,6.33,24.15ZM952.19,1093.84c1.36,2.35,21.6,7.31,25.32,7.23,9.59-.2,30.36-9.04,37.97-15.09,3.99-3.18,13.61-13.78,14.46-18.54.39-2.19,1.17-11.81-2.94-9.96-10.12,6.5-20.74,14.55-31.81,19.2-5.77,2.43-41.9,12.47-43.13,14.38-.26.4-.19,2.21.14,2.77Z"/>
    <path class="cls-9" d="M1094,1077c1.98,3.76.07,6.86-.05,10.46-.45,14.11,2.22,27.27,3.09,41,.23,3.63.59,9.27-1.04,12.54-.24-2.9-.78-6.23-1-9.52-.1-1.49.76-2.89-1.49-2.47-10.36,10.64-18.83,23.24-29,34.01-17.74,18.79-54.44,46.16-79.2,52.85-2.5.68-2.67-.55-2.32,3.14-25.17-1.99-54.87-7.57-80-12-9.08-1.6-23.24-6.91-32-6,.11-2.58-1.66-3.27-4-3,2.76-7.62,3.61-4.18,10.38-5.12,40.31-5.65,119.33-18.59,150.09-44.91,9.05-7.74,13.07-16.13,19.53-24.97,10.89-14.89,34.36-30.61,47-46Z"/>
    <path class="cls-10" d="M983,1219c-.36-3.69-.18-2.46,2.32-3.14,24.75-6.69,61.46-34.06,79.2-52.85,10.17-10.77,18.64-23.36,29-34.01,2.25-.42,1.39.98,1.49,2.47.22,3.29.76,6.62,1,9.52.36,4.39.05,8.65,0,13-1.11.72-1.56,2.66,0,3-.06.66.08,1.35,0,2-2.78-.91-2.17,3.99-3,7-1.27,4.58-2.38,4.44-6.27,7.23-7.78,5.57-16.45,6.55-22.75,13.25-7.11,7.56-11.41,17.96-16.98,26.52-1.8,2.77-5.83,5.6-6,6-2.66-1.61-8.17-1.26-11.57-1.07-1.69.09-3.53,1.07-3.93,1.07h-24c-5.93,0-12.2.5-18.5,0Z"/>
    <path class="cls-7" d="M1131.51,1042.01c1.97-.55,2.37.28,3.27,1.71.77,1.21,3.56,9.42,3.86,10.98,4.65,23.76,3.81,59.54,2.37,83.82-.64,10.74-.91,37.01-6.58,45.42-8.42,12.5-19.86-.57-19.37-11.36.16-3.51,3.08-7.05,3.87-10.13,7.8-30.51,14.38-72.29,13.05-103.93-.17-4.04-1.43-9.25-1.57-13.52-.04-1.12-.5-2.54,1.09-2.98Z"/>
    <path class="cls-9" d="M1178,1109c-.25,18.79-16.4,63.7-25.83,80.66-1.06,1.91-2.24,4.19-4.17,5.34,1.03-3.51,1.33-2.44,1.92-3.77,10.63-23.63,19.58-48.85,24.54-74.26l3.53-7.97Z"/>
    <path class="cls-9" d="M1165,1034c.3.18,1.66-.37,2.7.31.81.53,7.81,8.06,8.73,9.27.37.48,1.53.35,1.57.42,1.4,2.84.7,11.07.96,14.54.1,1.28,1.04,2.62,1.04,2.96v36c0,1.67-1.89,6.2-1.19,8.84l-.81.66c.07-1.64,0-6.28,0-8.5v-35c0-1.39-1.64-10.03-2.12-11.88-1.79-6.91-6.11-12.55-10.88-17.62Z"/>
    <path class="cls-9" d="M1096,1159c-.31,2.5.72,7.04-3,7,.83-3.01.22-7.91,3-7Z"/>
    <path class="cls-9" d="M1096,1157c-1.56-.34-1.11-2.28,0-3-.01.86.17,1.06,0,3Z"/>
    <path class="cls-9" d="M1148,1196c.24,2.12.13,2.24-2,2,.54-3.56.65-1.17,2-2Z"/>
    <path class="cls-9" d="M1146,1201c-.02-.33-.02-.67,0-1l.98.5-.98.5Z"/>
    <path class="cls-9" d="M1096,1073c.58-.81.94-1.67,2-2-.5.94-.92,1.65-2,2Z"/>
    <path class="cls-3" d="M1071,1399c.56.91.91,1.92,1.01,2.99,5.48-.39-.02-3.36-.06-3.63-.25-1.65.95-3.37.85-4.86-.42-6.51-2.8-12.87-3.55-19.26-.23-1.92.97-3.69.75-5.66-.34-3.08-3.84-4.72-3.97-5.29-.85-3.76,1.1-6.96,1.02-9.84-.06-2.4-2.31-4.59-2.62-7.39-.63-5.87.48-10.46-1.66-17.33-5.44-17.5-4.49-26.57-4.73-45.26-.09-7.35-3.39-13.94,8.44-14.26,2.9-.08,11.68,2.05,14.8,3.02,3.07.95,3.51,5.66,3.75,8.25,2.73,29.64-11.33,92.08,14.93,112.1,4.6,3.51,8.26-4,10.19-7.9,3.77-7.62,6.48-17.01,9.96-25.04,1.12-2.58,3.65-4.35,4.44-6.56,6.69-18.77,1.22-39.03-7.08-56.03-.67-1.38-6.63-9.78-7.49-10.51-1.51-1.29-6.62-1.56-5.99-4,8.37-4.64,3.35-20.31,16.82-16.67l9.2-11.35c2.41-1.7,4.02.76,5.81,1.19,1.34.32,6.84,1.14,7.07,1.42.63.77-.23,4.43.1,5.9l-3.65,1.84c-2.59,5.24-11.98,8.83-14.35,13.16-3.21,5.85.61,6.16,1.98,8.74,5.75,10.87,10.16,32.51,10.96,44.92.15,2.37-1.41,5.02-.86,6.72.44,1.36,2.78,1.3,3,2.27.6,2.7-2.76,5.01-2.15,7.7.21.93,2.33.79,2.9,2.3.66,1.75,3.69,23.23,3.79,26.03.12,3.06-1.05,6.12-.57,9.79.19,1.48,1.97,2.69,1.8,3.86-.2,1.45-5.71,7.88-5.81,8.38-2.29,11.18-5.6,19.18-8.49,29.33-1.05,3.66-16.28,25.44-18.81,26.31-1.78.62-3.34-.3-4.76.11-1.53.44-2.54,2.37-4.3,2.35-.98-.01-9.18-3.98-9.97-4.74-3.06-2.95-6.68-12.95-8.4-16.83-.49-1.11-1.85-1.14-2.25-2-1.98-4.28,1.16-9.07-5.07-9.23-.28-.92-.88-2.32-1-3,1.94-1.73.4-2.07,0-3-.77-1.78-1.32-3.18-2-5-.85-2.3-1.61-4.57-2.73-6.77l-1.27-7.23Z"/>
    <path class="cls-10" d="M1071,615c1.97.37,4.37.45,6.22,1.09,8.62,2.97,28.06,16,34.74,24.67,21.49,27.9,18.04,67.73,14.06,101.76-.37,3.19.5,6.89-.06,9.94-.68,3.72-5.31,5.34-3.94,10.86.18.74,1.77.61,1.96,1.38.45,1.86-.21,4.32.02,6.31-9.36-24.92-21.44-50.21-33.62-73.88-3.47-6.74-15.56-24.31-16.38-30.12-.29-2.04-.38-4.41-.92-7.59-.98-5.74-5.64-36.2-4.41-39.19.66-1.61,3.13-.44,2.33-5.22Z"/>
    <path class="cls-10" d="M1256,1536c.12,0,.81-1.01,2.31-.95,3.99.15,23.64,2.48,26.44,3.7,2.49,1.08,2.88,3.72,3.46,4.04,1.08.61,4.03.13,5.91.64.53.14,8.15,3.4,9.87,4.09,3.91,1.56,16.54,13.12,19,16.99,4.33,6.81,5.82,12.06,2.75,19.73-.66,1.65-2.29,2.53-2.95,4.05-2.96,6.79-.83,10.6-10.75,11.25-2.55.17-4.96-.79-7.55-.62-2.01.13-15.83.96-13.48,4.07,1.6,2.12,11.86,1.51,14.3,2.21,1.72.5,12.69,10.9,15.73,12.27,2.58,1.16,9.6.64,10.01.94,1.47,1.09.67,4.22,1,4.56.59.59,8.29-2.08,7.89,5.58-.1,1.97-2.66,3.44-2.92,6.04-.3,2.95,1.54,6,.95,9.85-1.05,6.86-16.11,14.33-21.51,18.54-1.02.8-1.13,2.94-2.1,3.09-.87.13-2.35-.79-3.66-.7-5.21.4-12,1.49-17.12.58-2.7-.48-8.59-4.95-10.07-4.96-2.53-.02-7.49,6.8-9.22,8.05-6.34,4.54-27.44,2.23-35.75,2.99-1.84.17-15.8,3.04-16.52,3.48-.99.62-1.18,1.39-.99,2.5l46.21,3.04c3.15,6.55,11.32,2.98,17.29,3.16,9.28.29,18.68,1.23,27.82,1.98,2.37.77,1.25,3.69,2.25,5.76,5.22,10.87,6.34,3.86,5.53,18.67-.1,1.9,1.4,4.19.86,5.78-.63,1.86-3.38,1.26-3.8,1.75-1.94,2.24,1.6,13.33-6.61,15.9s-20.31.81-28.77,1.23c-5.31.26-11.99,4.15-17.23,4.77-10.77,1.27-24.97-2.21-36.91-.9-4.47.49-5.95.96-7.61,5.39-1.05,2.79,4.51.43,4.99,2.48-1.58,1.6-11.02-.17-11.57-.93-.95-1.3.17-8.54,1.24-9.12,7.2-3.88,26.74-1.12,35.67-1.33,3.23-.07,13.93-.18,15.98-.81.82-.25,8.39-9.96,8.64-11.36-1.09-7.87,3.09-20.5.86-27.76-.66-2.14-3.94-2.93-5.38-4.62-1.36-1.59-1.79-4.8-3.41-5.59-2.88-1.42-13.55-1.09-17.42-1.58-2.7-.34-5.26-1.58-8.11-1.89-6.57-.73-23.64,0-28.47-2.53-3.39-1.77-2.22-8.36.28-10.16.59-.43,12.66-3.06,14.27-3.23,12.53-1.3,26.1,1.62,38.71.71,4.9-1.98,3.03-6.13,4.16-9.84.51-1.7,2.57-3.17,3.1-4.9.93-3.04.37-15.16-1.12-17.98-.94-1.76-3.13-2.64-3.97-5.03-.98-2.81-.81-10.28-1.68-11.83-.36-.64-5.99-3.95-7.33-4.16-12.02-1.93-23.16.59-34.65-.36-2.09-.17-15.16-2.24-15.6-2.91s-.15-2.47-.74-3.7c-.9-1.88-4.64-3.36-1.02-6.15.42-.32,6.46-2.77,7.12-2.87,8.42-1.38,20.32-.83,28.95-1.06,6.67-.18,23.3,1.74,24.54-7.45.93-6.89.19-39.08-2.62-44.47-.62-1.2-2.06-2-2.9-3.12-2.57-3.41-.25-3.77-6.53-4.96Z"/>
    <path class="cls-10" d="M1226,1532c1.33,0,2.67,0,4,0,.33,0,.67,0,1,0s.67,0,1,0c-.56,3.02,1.53,1.94,3.45,2,4.02.13,8.07-.16,12.09,0,1.92.08,4.01-1.03,3.45,2-9.83-.23-15.76,0-25.57-1.98-1.83-.37-4.01,1.19-3.43-2.02,1.33.01,2.67,0,4,0Z"/>
    <path class="cls-10" d="M1328,1692c-.23,0-2.48,2.73,0-2,.08.65-.05,1.34,0,2Z"/>
    <path class="cls-3" d="M1344,736c.19,3.39-1.2,3.8,2,4,.65.04,1.38-.1,2,0-.02,6.67,1.12,19.57-.04,25.27-.17.81-3.07,2.2-3.63,3.05-.92,1.41-1.76,5.79-4.63,7.37-1.04.58-2.74,0-3.48.54-.54.4-.12,1.7-.22,1.77-1.91,1.4-5.96,2.86-7.31,5.27-2,3.59-5.17,15.82-6.42,20.49-1.03,3.84-2.51,18-4.51,20.03-.51.52-1.63.07-1.76.2,1.03-1.81.05-3.45,0-5,3.7.4,1.75-1.8,1-4-.1-.29.09-.69,0-1,7.81-1.39-4.46-8.12,4.01-8.01-3.33-3.42,4.23-15.35-.64-16.86-2.79-.86-7.06,1.2-8.34-3.58,4.09-4.22,5.12-8.82,11.65-10.21,4.94-1.05,13.11,2.19,14.32-5.34.1-.63-.1-1.37,0-2,4.67,1.28,7.02-8.81,7-12-.02-2.34-2.26-19.07-3-20,.66.04,1.35-.07,2,0Z"/>
    <path class="cls-10" d="M1263,843l-2,4v1c-2.66.02-5.34-.01-8,0,.59-.83.55-2.43,1.66-3.07s6.72-1.77,8.34-1.93Z"/>
    <path class="cls-11" d="M1268,843c2.45,0,3.28.88,4,1l-1,2c-.64.09-1.35-.07-2,0-2.69.27-5.36.34-8,1l2-4c1.59-.15,3.37,0,5,0Z"/>
    <path class="cls-8" d="M1215,1036c-.74,6.82-4.86,4.19-2.53-.04.98-1.78,1.85-.05,2.53.04Z"/>
    <path class="cls-9" d="M1320.99,1759.99c-.35.68-1.7-.59-.98-1.99.35-.68,1.7.59.98,1.99Z"/>
    <path class="cls-4" d="M1198,1802c5.66-2.58,10.51,1.6,16.01,2.01l-5.01,3.98c1.73-.29,4.55.44,6,0,1.81,6.5.98,14.17,1,21l-2.01-20c-1.89.82-13.51.51-13.99,0-.26-.27.42-4-2-7Z"/>
    <path class="cls-4" d="M1216,1896c-1.21-1-1.2-2,0-3,0,1,0,2,0,3Z"/>
    <path class="cls-9" d="M1231,1532c-.33,0-.67,0-1,0l.5-.98.5.98Z"/>
    <path class="cls-10" d="M1270,654c18.03.36,42.45-1.61,58.7,7.8,4.28,2.48,6.23,4.17,11.24,6.76,1.06.55,5.95,6.89,6.06,1.44.5.32,3.37,1.75,4,2,.79,7,.46,19.74,0,27-2.93-.47-1.81.74-2,3-1.07.15-3.31-.4-3.88.11-.47.43-3.87,10.41-4.67,11.84-2.69,4.88-8.72.19-11.95.17-2.8-.01-4.72,2.39-7.06,2.81-2.93.53-6.43-.24-9.45.06-.65,4.23.78,2.38,2.97,3.48,3.97,1.98,6.01,2.47,5.04,7.52,1.38.05,3.17-.16,4.32-.92,1.71-1.13.93-4.94,3.16-4.07s2.13,4.37,3.15,5.08c1.22.85,6.25,1.35,8.36,1.91.31,1.75-.87,2.33,2,2,.77,6.13.92,2.65,2,4,.74.93,2.98,17.66,3,20-4.22-.6-2.31.59-3.09,2.38-2.13,4.93-2.86,3-3.91,9.62-.1.63.1,1.37,0,2-5.61.19-13.57-.67-18.74,1.76-2.5,1.17-2.77,3.54-3.52,3.98-1.13.67-3.22-.12-4.27,1.22-1.11,1.41-.23,5.9-3.13,6.87-1.6.54-23.53.61-25.84.17-3.02-.57-3.48-5.49-5.98-5-2.19.43-1.28,5.76-1.52,6-.86.88-5.64-1.03-7-1.01,0-2.67.04-6.95,1.23-9.28,1.06-2.09,3.73-2.46,4.85-4.15,1.88-2.86.8-14.73.88-19.11.04-2.16,1.08-4.18,1.08-6.01,0-1.38-.8-11.19-.97-11.85-.3-1.1-3.12-.75-4.38-1.54-.26-.16-4.27-4.07-4.43-4.33-.67-1.12.06-3.44-1.18-4.3-1.68-1.16-6.53-.55-8.7-.61-1.88-.05-3.89,1.42-3.37-1.83,3.81,0,7.67-.14,11.48.02,8.08.33,10.25,3.23,19.25-.78,6.29-2.8-7.88-3.16-9.74-3.24-.45-2.53,2.23-2.32,3.47-4.01,4.15-5.67,4.44-15.57,3.15-22.29-.62-3.24-4.05-9.49-4.57-13.25-.64-4.66.92-11.68-.26-15.74-.76-2.61-5.73-4.24-5.79-7.71Z"/>
    <path class="cls-10" d="M1304,576c5.01.54,13.95,1.3,17.42,5.05,2.29,2.47,9.33,14.65,10.58,17.95-6.68,1.79-1.06,4.26-1.02,4.6.28,2.44,1.1,9.02,1.1,10.97,0,1.68-1.44,1.09-2.03,2.21-.35.67.26,2.35-.19,3.04-.55.84-3.61.54-4.6,1.45-.9.83-1.85,6.36-3.24,7.25s-3.56.11-5.01.99c-1,.6-1.03,2.69-2.69,3.31-3.64,1.38-17.62,6.13-21.04,6.78-18.67,3.54-47.26,1.89-66.83,2.35-3.89.09-7.45,1.47-11.46.05-.31,1.92.79,2.68,2.5,2.99,10.1,1.84,33.06-2.17,41.25,4.75,1.59,1.35,2.69,1.67,2.24,4.26-17.11-.35-34.21-1.38-51.36-1.14-2.56-.84-2.54-10.91,0-11.71,6.22-1.96,16.21-.64,22.84-1.16,5.75-.45,15.78-.91,20.95-2.05,1.28-.28,12.43-5.23,13.11-5.89,1.94-1.88,2.63-6.62,3.68-9.32.59-1.52,2.58-2.32,2.79-4.25.38-3.48-3.04-7-3.93-10.07-1.06-3.65-3.75-18.83-2.88-21.7.36-1.2,3.31-4.15,4.5-4.5,3.46-1.01,16.1,1.69,9.29-3.21.18,0,1.58-1.21,3.43-1.12,6.18.3,11.48,1.52,18.09,1.12,2.98-.18,1.26-1.68.48-3,.66.05,1.35-.07,2,0Z"/>
    <path class="cls-9" d="M1332,599c2.16,5.71,3.74,16.24,2.81,22.23-1.32,8.58-12.4,17.07-10.79,25.25.8,4.06,14.34,14.25,17.98,18.52-.45,4.24.4,2.4,2,3,3.29,1.23,1.69,1.8,2,2-.11,5.46-5.01-.89-6.06-1.44-5-2.6-6.96-4.29-11.24-6.76-16.25-9.41-40.67-7.44-58.7-7.8-2.99-.06-6.01.06-9,0,.44-2.59-.65-2.91-2.24-4.26-8.19-6.92-31.15-2.91-41.25-4.75-1.72-.31-2.81-1.07-2.5-2.99,4,1.42,7.57.04,11.46-.05,19.57-.46,48.15,1.2,66.83-2.35,3.42-.65,17.39-5.4,21.04-6.78,1.65-.63,1.69-2.71,2.69-3.31,1.45-.88,3.67-.13,5.01-.99s2.34-6.42,3.24-7.25c.99-.91,4.05-.61,4.6-1.45.45-.69-.16-2.37.19-3.04.59-1.12,2.03-.53,2.03-2.21,0-1.95-.82-8.53-1.1-10.97-.04-.34-5.66-2.82,1.02-4.6Z"/>
    <path class="cls-10" d="M1344,668c-1.6-.6-2.45,1.24-2-3,.67.79,2.29,1,2,3Z"/>
    <path class="cls-9" d="M1350,699c-.05.8.19,2.78,0,3-.15.17-1.4-.08-2,0-.13,1.58.41,3.18-.28,4.73-.55,1.25-7.57,8.74-8.75,10.73-.4.67-2.71,5.9-2.76,6.24s1.45,4.31,1.8,6.29c.51.14,1.65-.27,1.96.04.27.27-.03,1.37.04,1.96-2.87.33-1.69-.25-2-2-2.11-.56-7.14-1.06-8.36-1.91-1.02-.71-.96-4.23-3.15-5.08s-1.45,2.94-3.16,4.07c-1.15.76-2.94.97-4.32.92.97-5.05-1.08-5.53-5.04-7.52-2.19-1.09-3.62.75-2.97-3.48,3.02-.3,6.52.47,9.45-.06,2.34-.42,4.26-2.83,7.06-2.81,3.24.02,9.26,4.7,11.95-.17.79-1.44,4.2-11.41,4.67-11.84.57-.52,2.81.03,3.88-.11.19-2.26-.93-3.47,2-3Z"/>
    <path class="cls-10" d="M1256,574c.65-.08,1.34.04,2,0,1.32-.09,2.67.03,4,0-.77,3.23,2.47,1.59,5.25,2.25,1.7.4,3.86,1.58,4.75,1.75-6,2.51-12.19-2.74-18-2-.31-2.72.14-1.77,2-2Z"/>
    <path class="cls-5" d="M823,564c-7.63-2.02-6.03,3.3-7.01,4.01-.61.44-2.6-1.12-3.41-1.06-.88.07-.69,2.39-2.21,2.92-3.29,1.14-5.12-2.1-4.38,4.14-3.76.75-6.76-2.19-5.99-6.01,5.86,2.15,3.07.12,5.05-2.43,1.24-1.6,3-1.2,3.66-1.85s.45-2.45,1.74-3.75c3.01-3.03,13.3-11.75,16.85-13.2,3.86-1.58,3.31.68,6.69,1.24-.52-3.43,1.01-5.68,4.54-5.99,1.74-.15,2.35,2.95,2.46,3.99.07.64.11,2.9,0,3-.3.27-2.73-.28-2.98,0s-.27,5.43-3.3,6.69c-5.94,2.46-6.6,1.88-10.72,7.3-.28.37-.74.64-1,1Z"/>
    <path class="cls-2" d="M858,534c.79-.69,2.72-.73,3.49-2.03,1.43-2.42-.86-4.23,4.49-5.47,3.36-.78,6.34-.05,9.32-.7,2.6-.57,4.54-3.63,5.22-3.79,3.12-.71,1.05,5.33,4.87,3.88,3.45-1.31,3.11-7.25,3.72-7.78.22-.19,5.95-1.32,4.9,1.9-1.33,0-2.67,0-4,0-.56,1.82,1.51,2.53,2,3.99.14.42,0,1.39,0,2-4.52,2.01-9.09,2.59-13.52,4.98-.89.48-5.23,2.55-2.48,4.02-.3.15-.6.8-1,1-4.19-1.55-9.92-12.51-11-3-.18,1.63.13,3.36,0,5-4.14.49-9.16,5.72-12.31,7.67-.98.6-2.6.2-3.63.86-1.98,1.27-1.89,5.75-7.06,2.48.11-.1.07-2.36,0-3,3.89.96,2.72-1.71,3-2,.96-.97,3.93-.76,5.56-1.95,2.62-1.91,6.41-6.29,8.44-8.05Z"/>
    <path class="cls-9" d="M699,654c-.69,3.82-4.86,5.35-7.55,7.97-12.73,12.37-24.2,26.75-37.55,38.43-3.53,3.09-9.25,8.54-13.9,8.6,16.21-16.37,39.66-44.11,59-55Z"/>
    <path class="cls-9" d="M724,635c-7.78,6.56-14.64,13.65-24,19,4.83-8.22,15.61-14.87,24-19Z"/>
    <path class="cls-5" d="M858,534c-2.03,1.76-5.82,6.14-8.44,8.05-1.63,1.19-4.59.97-5.56,1.95-3.85-6.72,9.94-8.35,14-10Z"/>
    <path class="cls-5" d="M894,520c.67,0,1.33,0,2,0,0,1,0,2,0,3-1.34.15-2.66.78-4,1-.48-1.46-2.56-2.17-2-3.99,1.33-.01,2.66,0,4,0Z"/>
    <rect class="cls-1" x="912" y="424" width="3" height="3" transform="translate(484.74 1337.48) rotate(-89.8)"/>
    <rect class="cls-1" x="898.01" y="503.01" width="2.99" height="1.99"/>
    <path class="cls-9" d="M602,993c.25.15,2.04,4.62,2.07,5.46.07,2.15-2.12,8.07-4.08,9.02-2.9,1.4-5.07-.57-7.22,3.79-.64,1.29-.39,2.86-.84,3.96-.37.91-1.9.81-1.97,1.35-.24,1.96,4.8,8.7,4.12,14.93-.27,2.5-4.14,11.97-6.71,12.4-.6.1-8.07-6.28-9.02-7.26-1.42-1.46-2.16-4.01-3.82-5.69-8.43-8.48-21.82-19.69-33.51-22.54-3.63-.89-4.88,2.18-4.77,5.3.07,2.09,5.23,5.32,2.26,10.28-4.65,7.77-16.83-8.28-16.51-16.47.47-12.28,13.9-26.03,25.68-28.23,2.24-.42,6.05,2.93,2.02-4.51-1.11-2.04-6.93-4.31-3.7-6.32.78-.49,10.3.38,12.23.25,1.27-.08,6.69-.11,5.78-2.74,10.24,7.68,21.46,19.72,32.64,25.86,2.06,1.13,4.99.91,5.36,1.14Z"/>
    <path class="cls-9" d="M596,912c2.37-.5,2.19,1.1,2.75,2.7,2.48,7.02,4.01,16.37,6.83,23.22,7.59,18.44,22.78,38.76,32.42,57.08-1.14,2.02-3.08.91-4.55.05-.62-.36-6.19-4.24-6.47-4.53-1.51-1.54-.53-4.14-1.9-6.1-1.45-2.06-9.99-6.81-12.14-9.83-2.64-3.72,1.78-5.62-7.94-4.59-3.01-18.39-8.89-39.58-9-58Z"/>
    <path class="cls-8" d="M864,538c2.05-.24,4.06.52,6,1-8.44,4.24-21.87,10.29-29.23,15.27-1.57,1.06-2.78,1.4-2.77,3.73-2.15.53-6.46,1.91-8.09,2.53-2,.77-3.33,2.9-5.91,2.47,4.12-5.42,4.78-4.84,10.72-7.3,3.03-1.26,3.05-6.39,3.3-6.69s2.67.27,2.98,0c5.17,3.27,5.07-1.2,7.06-2.48,1.03-.66,2.65-.25,3.63-.86,3.15-1.95,8.17-7.18,12.31-7.67Z"/>
    <path class="cls-10" d="M593,873c-.32-7.51-.53-11.64,0-19,1.69,5.49,1.68,13.59,0,19Z"/>
    <path class="cls-10" d="M593,886c4.07-.5,1.06,2.15,1,3-1.3-.48-.96-1.9-1-3Z"/>
    <path class="cls-9" d="M606,979c3.97-.44,1.2,1.79,1,3-1.32-.48-.94-1.91-1-3Z"/>
    <path class="cls-9" d="M595,906c.12.16,1.42-.1,1.99,0,.4,1.06-.99,1.88-.99,1.99l-1-2Z"/>
    <path class="cls-8" d="M673.85,571.84c-.79.65-3.55-.32-4.92.58-.82.54-2.3,13.59-5.46,8.59-1.77-2.81,4.4-9.95,5.73-12.31.71-1.26,1.53-5.32,1.92-5.57,1.16-.74,5.57-.12,5.88,1.39.08.39-2.85,7.07-3.15,7.32Z"/>
    <path class="cls-8" d="M775,506.99c-5.22.77-10.75-3.63-10.99-8.99,3.14-.47,2.53,3.25,4.02,4.47,1.86,1.54,7.24.57,6.98,4.51Z"/>
    <path class="cls-8" d="M837.99,519c.34.33-.23,5.19.01,6.49-7.29,2.54-3.34-9.78-.01-6.49Z"/>
    <path class="cls-10" d="M1254,788c7.77.14,21.61,2.52,27.5,1.97,5.38-.51,8.93-4.27,14.51-1.49,4.38,2.19,4.26,6.8,5.15,7.35,1.44.89,5.85-.54,6.75.32.27.26-.12,1.81.4,2.48,1.1,1.43,3.31,2.68,4.73,4.85s3.23,7.96,3.97,10.51c.09.31-.1.71,0,1-1.45.67-1.05,2.7-1,4,.05,1.55,1.03,3.19,0,5-14.94,14.54-23.52,10.53-39.33,17.21-1.91.81-.85,3.41-4.67,2.79-.72-.12-1.55-1-4-1-1-4.68,6.59-3.57,7.82-7.68.66-2.21.99-14.67.8-17.64s-1.23-11.02-2.7-13.09c-1.26-1.79-3.69-1.53-4.98-3.02-3.01-3.46-3.54-3.72-6.42-6.58-1.1-1.09-1.25-3.73-2.5-4.5-2.3-1.4-6.59,1.27-6.02-2.48Z"/>
    <path class="cls-9" d="M1338,770c-1.21,7.53-9.38,4.29-14.32,5.34-6.53,1.39-7.56,5.98-11.65,10.21,1.27,4.78,5.54,2.72,8.34,3.58,4.87,1.51-2.69,13.43.64,16.86-8.47-.11,3.8,6.62-4.01,8.01-.74-2.55-2.53-8.31-3.97-10.51s-3.63-3.43-4.73-4.85c-.52-.67-.12-2.22-.4-2.48-.9-.85-5.31.58-6.75-.32-.89-.55-.77-5.17-5.15-7.35-5.57-2.78-9.12.98-14.51,1.49-5.89.55-19.73-1.83-27.5-1.97-13.31-.24-26.69.18-40.01,0v-2.99c16.85-.35,33.77.43,50.62.07,1.78-.04,3.2-1.07,3.38-1.07,1.36-.03,6.14,1.89,7,1.01.24-.24-.68-5.57,1.52-6,2.5-.49,2.96,4.43,5.98,5,2.31.44,24.24.37,25.84-.17,2.9-.98,2.02-5.46,3.13-6.87s3.14-.55,4.27-1.22c.76-.45,1.02-2.81,3.52-3.98,5.17-2.43,13.12-1.56,18.74-1.76Z"/>
    <path class="cls-9" d="M1274,717c1.86.07,16.02.44,9.74,3.24-9,4.01-11.17,1.11-19.25.78-3.81-.16-7.68-.02-11.48-.02-12.15,0-24.33,1.82-36.49.99-1.31-.09-8.2-.69-8.51-.99-.55-.53.07-3.73,1.66-3.84,21.39.34,42.98-1,64.34-.16Z"/>
    <path class="cls-1" d="M950,508c-18.59,8.36-39.09,12.39-58,20v-2c0-.61.14-1.58,0-2,1.34-.22,2.66-.85,4-1s2.78.19,4,0c.95-.15,1.64-.92,2-1,12.99-2.82,25.52-9.43,36.68-11.98,1.49-.34,4.7.42,5.27-.11.41-.38-.21-2.61.05-2.91.2-.23,4.31,1.02,6,1Z"/>
    <path class="cls-8" d="M892,526v2c-1.35.54-1.87,1.95-2,2-3.83,1.61-10.41,3.25-14,5-2.75-1.47,1.59-3.54,2.48-4.02,4.43-2.39,9-2.97,13.52-4.98Z"/>
    <rect class="cls-1" x="858.49" y="1313.5" width="5.01" height="2.01" transform="translate(-454.48 2174) rotate(-89.93)"/>
    <path class="cls-1" d="M869.99,1309c.62.66-.22,3.5-1.51,3.99-3.47,1.32-.38-6.02,1.51-3.99Z"/>
    <path class="cls-1" d="M1088,1726c.32,1.91-.08,2.34-2,2,1.16-3.72,1.02-1.15,2-2Z"/>
    <path class="cls-9" d="M642,1001c.44,3.23-2.58,3.25-1.99-.5.11-.67.99-.45.99-.5.4.24.66.75,1,1Z"/>
    <path class="cls-7" d="M871,1201c8.76-.91,22.92,4.4,32,6,.58,2.9-1.6,2.11-3.5,2.04-5.46-.21-25.11-.76-27.96-3.08-.18-.14-2.45-3.28-2.53-3.48-.77-1.96.94-1.37,1.98-1.48Z"/>
    <path class="cls-4" d="M1160,1688c.12-2.09.99-3.79,1-4l-1,4Z"/>
    <path class="cls-8" d="M900,523c-3.25-3.69,2.6-4.71,2-1-.36.08-1.05.85-2,1Z"/>
    <path class="cls-7" d="M1077,1421c-.16-.9.11-2.04,0-3,.4.93,1.94,1.27,0,3Z"/>
    <path class="cls-11" d="M1015,1027c-4.89.3.18-4.72.57-5.95,1.3-4.08-.88-5.38-4.56-6.56-7.71-2.47-25.32-5.87-33.74-7.26-32.65-5.38-57.35,4.33-79.78,27.76-2.16,2.26-3.82,5.92-5.95,8.05s-6.23,2.91-6.53,5.97c-19.09-9.06-70.15-45.3-49.87-70.41,1.34-1.66,2.38-1.21,2.87-1.59,28.13,10.97,53.89,10.04,82.21.71,22.63-7.45,84.76-41.76,92.53-64.47,1.14-3.34,2.25-20.66,1.26-23.24-.46-1.2-2.01-.95-3-1.01v-.97c2.38.35,1.97-2.1,2.99-3.49,6.29-8.53,14.82-17.55,24.54-7.56,12.78,13.12,13.45,62.51,11.34,80.41-3.36,28.57-14.27,49.99-34.88,69.62Z"/>
    <path class="cls-10" d="M693.35,1019.66c-5.26-5.87-6.72-16.55-6.33-24.15,1.78-34.53,43.37-60.85,76.05-53.08,17.15,4.08,22.97,17.04,20.68,33.81-3.05,22.33-36.11,38.44-55.32,44.68-11.32,3.67-25.76,9.13-35.07-1.26Z"/>
    <path class="cls-1" d="M1014,890c.98,2.58-.12,19.9-1.26,23.24-7.76,22.72-69.89,57.02-92.53,64.47-28.32,9.33-54.08,10.25-82.21-.71,1.06-.8,1.77-1.65,3.08-2.39,20.77-11.74,47.37-21.16,69.28-31.75,14.27-6.89,28.62-14,42.66-21.34,16.77-8.75,38.08-23.63,54.58-30.42,2.19-.9,3.98-1.44,6.4-1.1Z"/>
    <path class="cls-10" d="M1084.65,807.65c-13.65,13.12-30.77,19.64-49.71,14.91-10.02-2.5-14.1-8.16-15.86-18.14-3.48-19.7,1.34-32.76,14.93-46.92,17.11-17.82,48.08-26.98,64.82-3.83,14.04,19.41.65,39.72-14.18,53.98Z"/>
    <path class="cls-3" d="M885,1049c.31-3.06,4.34-3.78,6.53-5.97s3.79-5.79,5.95-8.05c22.43-23.43,47.13-33.13,79.78-27.76,8.43,1.39,26.04,4.79,33.74,7.26,3.68,1.18,5.86,2.48,4.56,6.56-.39,1.23-5.46,6.25-.57,5.95-36.85,35.09-83.38,44.11-130,22Z"/>
    <path class="cls-9" d="M882,887.99c-1.64-2.36,6.21-8.12,8.06-9.43,8.61-6.03,20.01-10.91,28.85-17.15,2.8-1.98,15.4-11.6,15.89-14.04.66-3.34-10.06-17.01-11.37-21.29l-29.42-43.07c1.96-1.73,36.57,13.81,41.35,16.14,22.44,10.91,37.14,20.92,29.14,48.86-7.83,27.33-38.87,47.04-66.9,43.89-1.78-.2-15.14-3.25-15.6-3.91Z"/>
    <path class="cls-11" d="M1010,733c-.35,1.93-2.86,14.11-3.24,14.78-.33.58-7.74,9.65-8.33,10.15-18.53,15.63-41.82-5.71-48.2-23.65-13.06-36.69,17.57-68.29,46.8-40.8,7.27,6.83,6.4,10.67,9.66,18.32.56,1.32,2.31,1.04,2.36,1.8.06.88-.93,1.8-1.04,2.4-.36,2.08,0,2.25,2,2,.2,2.04.14,4.92,0,7-.1,1.41-2.81,5.98,0,8Z"/>
    <path class="cls-11" d="M751.81,828.24c11.94-.85,27.52,11.02,31.48,21.97,5.9,16.29,5.39,33.24-5.3,47.29-27.58,36.25-70.9-25.82-46.97-56.97,4.74-6.17,12.83-11.72,20.79-12.29Z"/>
    <path class="cls-11" d="M952.79,611.29c2.94-.15,5.72-.46,8.69-.27,7.28.45,28.2,5.12,29.47,13.56,2.39,15.91-25.74,16.23-36.16,18.71-19.14,4.56-36.01,14.04-53.56,22.53-12.1-.12-6.72-15.62-3.7-22.79,9.76-23.25,31.56-30.54,55.26-31.74Z"/>
    <path class="cls-11" d="M703.35,799.35c-2.95,2.7-7.83,9.77-10.16,13.34-3.86,5.9-10.31,21.17-14.49,25-5.07,4.65-14.55,3.49-17.18-3.71-7.92-21.66,10.8-47.29,27.57-59.4,10.56-7.63,32.91-18.36,45.67-12.83,5.11,2.22,8.84,18.17,5.74,21.23-2.49,2.46-20.78,6.11-26.19,8.82-2.29,1.15-9.04,5.8-10.95,7.55Z"/>
    <path class="cls-10" d="M952.19,1093.84c-.33-.57-.39-2.38-.14-2.77,1.23-1.91,37.36-11.96,43.13-14.38,11.07-4.65,21.69-12.71,31.81-19.2,4.11-1.85,3.33,7.77,2.94,9.96-.85,4.76-10.47,15.36-14.46,18.54-7.61,6.06-28.38,14.9-37.97,15.09-3.72.08-23.96-4.88-25.32-7.23Z"/>
    <path class="cls-8" d="M875,536c-1.31.64-2.67,1.34-4,2-2.15-2.01-3.71-4.94-7-5,1.08-9.51,6.81,1.45,11,3Z"/>
    <path class="cls-5" d="M864,533c3.29.06,4.85,2.99,7,5-.33.16-.62.81-1,1-1.94-.48-3.95-1.24-6-1,.13-1.64-.18-3.37,0-5Z"/>
    <path class="cls-3" d="M1010,733c-2.81-2.02-.1-6.59,0-8,2.55,2.77.42,5.66,0,8Z"/>
    <path class="cls-3" d="M1008,716c2.71-.28,1.81.07,2,2-2,.25-2.36.08-2-2Z"/>
    <path class="cls-9" d="M1345,756c.02,3.19-2.33,13.28-7,12,1.05-6.62,1.78-4.69,3.91-9.62.78-1.79-1.14-2.98,3.09-2.38Z"/>
    <path class="cls-9" d="M1317,815c.75,2.2,2.7,4.4-1,4-.05-1.3-.45-3.33,1-4Z"/>
  </g>
</svg>