<?xml version="1.0" encoding="UTF-8"?>
<svg id="Layer_1" xmlns="http://www.w3.org/2000/svg" version="1.1" viewBox="0 0 575.4 575.4">
  <!-- Generator: Adobe Illustrator 30.0.0, SVG Export Plug-In . SVG Version: 2.1.1 Build 123)  -->
  <defs>
    <style>
      .st0 {
        fill: #f1f1f1;
      }

      .st1 {
        fill: #efc092;
      }

      .st2 {
        fill: #724f38;
      }

      .st3 {
        fill: #dea277;
      }

      .st4 {
        fill: #23262b;
      }

      .st5 {
        fill: #ecb989;
      }

      .st6 {
        fill: #798185;
      }

      .st7 {
        fill: #f5f5f5;
        fill-opacity: 0;
      }

      .st8 {
        fill: #d3966d;
      }

      .st9 {
        fill: #d9d0d0;
      }

      .st10 {
        fill: #606a6f;
      }

      .st11 {
        fill: #d4d8db;
      }

      .st12 {
        fill: #853f3a;
      }

      .st13 {
        fill: #aeb8bd;
      }

      .st14 {
        fill: #34383b;
      }

      .st15 {
        fill: #d6dade;
      }

      .st16 {
        fill: #fefefe;
      }

      .st17 {
        fill: #b34a40;
      }

      .st18 {
        fill: #c2c2c2;
      }

      .st19 {
        fill: #a23831;
      }

      .st20 {
        fill: #cb5d54;
      }

      .st21 {
        fill: #cb8a5d;
      }

      .st22 {
        fill: #fdfdfd;
      }

      .st23 {
        fill: #6e4b36;
      }
    </style>
  </defs>
  <path class="st7" d="M575.4,287.7c0,100.7-51.7,189.3-130.1,240.7-11.2,7.4-23,14-35.2,19.7-.5.2-1,.5-1.5.7-8.5,4-17.3,7.5-26.2,10.6-3.2,1.1-6.4,2.2-9.6,3.2-5.9,1.8-11.9,3.5-18,4.9-3.7.9-7.5,1.7-11.2,2.4-15.4,3-31.2,4.8-47.4,5.3-2.8,0-5.6.1-8.4.1s-5.8,0-8.7-.1c-24.5-.7-48.2-4.5-70.8-11-3.8-1.1-7.6-2.3-11.4-3.5-20.1-6.7-39.2-15.5-57.1-26.2C56,484.2,0,392.5,0,287.7,0,128.8,128.8,0,287.7,0s287.7,128.8,287.7,287.7h0Z"/>
  <g>
    <path class="st22" d="M367.9,505.3c-1.1-12.1-9.3-18.4-19.9-15.5,10,11.8,13.2,25.8,13.7,40.8,0,.2,0,.5-.1.8-.2-.1-.4-.3-.6-.4-2-.3-4-.7-6-1-3.8,1.6-3.4,4.9-2.8,7.9.5,2.5.1,3.6-2.5,2.9-9.2-2.5-17.6-6.4-25-12.5-8.3-6.9-12.5-16.1-15.7-25.9-.3-1.1-.5-2.6-1.8-2.7-1.5-.2-.9,1.9-1.9,2.5-.8,5-3.1,9.4-5.4,13.8.2,1,0,1.8-1.1,2.1-.2.4-.5.8-.7,1.2,0,.9-.3,1.6-1.2,1.8-.3.4-.6.8-.8,1.1.1,1.4-.3,2.5-1.2,3.7-4,5.1-8.8,9.7-13.9,13.5-6.1,4.6-13,8-20.4,10.1-2.3.7-4,.7-4.4-2.2-1.4-9.8-1.3-19.5.5-29.2,2.1-11.4,6-22,15.7-30.5-16.2-4.1-31.3-8.6-43.4-19.6-6.3-5.8-13.5-10.9-16.1-19.8-16.6,6.9-30.6,17.2-41.6,31.5-13,16.9-22.8,35.6-31.5,54.9,17.9,10.7,37,19.6,57.1,26.2,3.3-5.8,6.6-11.5,9.9-17.2,1.5.6,1.2,1.3,1.2,1.9,0,6.3.1,12.5.2,18.8,22.6,6.5,46.3,10.3,70.8,11,1.5-3.2,4.4-5.3,8.2-5.3,4.1,0,7.4,2,8.9,5.3,16.2-.5,32-2.3,47.4-5.3,1.8-2,4.6-3.2,7.7-3.1,1.2,0,2.4.3,3.5.7,6.1-1.4,12.1-3.1,18-4.9-2-19.1-3.2-38.2-4.8-57.4h0Z"/>
    <path class="st22" d="M445.4,528.5c-11.2,7.4-23,14-35.2,19.7-.4-.6-.9-1.2-1.8-1.6.1.8.2,1.5.3,2.3-8.5,4-17.3,7.5-26.2,10.6-.2-2-.4-4-.6-6-2-18.1-3.1-36.3-4.9-54.5-.8-8.2-8-15.7-16.7-18-4.6-1.2-9.4-2.1-14.1-3.1,11.1-8.8,17.8-20.7,23.9-33.1,5.9,2.8,11.9,5.3,17.5,8.5,11.8,6.7,22.6,14.9,30.1,26.4,10.3,15.7,19.4,32,27.7,48.7h0Z"/>
    <path class="st15" d="M208.2,564.3c-3.8-1.1-7.6-2.3-11.4-3.5,3.3-5.8,6.6-11.5,9.9-17.2,1.5.6,1.2,1.3,1.2,1.9,0,6.3.1,12.5.2,18.8Z"/>
    <path class="st11" d="M410.1,548.2c-.5.2-1,.5-1.5.7-.1-.8-.2-1.5-.3-2.3.9.4,1.4.9,1.8,1.6Z"/>
    <path class="st18" d="M382.4,559.5c-3.2,1.1-6.4,2.2-9.6,3.2-2-19.1-3.2-38.2-4.8-57.4-1.1-12.1-9.3-18.4-19.9-15.5-3.4-2.6-6.7-5.2-10.1-7.8,1.9-2.9,5.4-2.9,8.1-4.1,4.7,1,9.4,2,14.1,3.1,8.6,2.2,15.9,9.8,16.7,18,1.8,18.1,3,36.3,4.9,54.5.2,2,.4,4,.6,6Z"/>
    <path class="st16" d="M431.9,98.1c0-10.2-4.8-18.7-10.5-26.5-13.4-18.4-32-27.6-54.8-27.4-11.5,0-22.4,3.4-31.5,10.8-3.7,3-5.5,3.2-8.9-.9-7.9-9.5-18.7-15.2-30.4-19.3-19.5-6.9-38.7-6.4-57.9,1.2-4.4,1.7-8.2,4.3-12.1,6.9-2,2.2-4,4.5-6.1,6.5-5.3,5.1-9.5,11-12.9,17.5-5.9,11.2-9,23.1-9.9,35.6-.2,3.1-1.3,3.1-3.7,2.3-3.4-1.2-7-2.1-10.5-3.1-17.8-2.9-34.2.6-49,11.1-5,3.5-9.3,7.5-11.9,13,0,3.7-2.2,7-2.8,10.5-4.1,22.1.7,42,18.1,57,12.6,10.9,27.6,15.1,44.6,11.3,12.3-2.7,21.8-9.6,30.5-17.8,2.8-2.7,5.5-6.1,6.3-10,.6-2.8-2.9-4.6-4-7.1-1.8-4.3-2.9-8.8-4.3-13.2-.3-.8-.4-1.7.5-2.2.8-.5,1.6-.2,2.3.4,1.9,1.7,3.6,3.5,5.6,5,18.4,13.5,38.9,19,61.5,15.2,21.4-3.6,38.6-14.2,52-31.2,4.7-6,8.4-12.5,12.1-20.6,1,6.6.9,11.8.3,17-.2,1.9.1,2.7,1.7,3.5,7.7,3.6,15.5,7.3,24.1,7.2,24.3-.1,41.8-11.7,53.9-32.4,3.8-6.4,5.2-13.6,7.6-20.5h0Z"/>
    <path class="st1" d="M414,317c0-3-.5-5.9-.9-8.9-1.3-9-3.1-17.9-3.1-27.1-3-5-3-10.9-3.3-16.3-.8-12.6-6.2-20.4-17.8-26.1-11-5.4-19.7-14.6-25.9-25.6-6-.3-12,0-18,1.2.4,2.8-1.4,4.7-2.7,6.7-9.3,14.6-22.8,24.4-38,32.1-3.9,2-8,3.7-12.5,4.3.5-7.3,3.8-13.9,3.5-21.8-5.4,4.4-10,8.5-14.9,12-16.6,11.6-35.3,18.2-55.1,22.2-1.7.4-3.9,0-4.3,2.5-2.4,12.9-9.1,24.5-10.3,37.7,2.5,0,2.1,1.9,2.4,3.5,1.6,8.3,2.9,16.6,4.9,24.8,4.7,19.2,10.9,37.5,24.3,52.6,25.1,28.4,56.3,40.8,93.9,37.3h0c.1,0,.2,0,.3,0,.2,0,.4,0,.6,0,0,0,.1,0,.2,0,.3,0,.5,0,.8,0,.2,0,.4,0,.6-.1.2,0,.5,0,.7-.1.5-.1.9-.2,1.4-.4.5-.1.9-.3,1.4-.5.5-.2.9-.3,1.4-.5.5-.1.9-.3,1.4-.4.2,0,.5-.1.7-.2.7-.2,1.4-.3,2.1-.3.2,0,.4-.1.5-.2,1-.4,2-1,3.1-1.5.3-.2.7-.4,1-.5.2-.1.5-.2.7-.3.2-.1.5-.2.7-.3.4-.1.7-.2,1.1-.3.1,0,.3,0,.4,0h0c0,0,.1,0,.2,0,.8,0,1.6,0,2.5.3-1.1-5.8,4.5-6.5,7.4-8.4,8.1-5.2,14.5-11.8,21.1-18.8,8.3-8.7,13.1-19,18.3-29.4,3.2-6.5,4.1-13.5,5.3-20.5,1.5-8.5,2.4-16.9,1.9-25.5,0-1.6,1.3-2.2,2-3.3ZM352.8,250.4c4.2-2.9,8.9-3.6,13.8-3.4,6.6-.6,12.4,1.6,17.4,5.9,2.1,1.8,2.9,4.3,1.4,6.7-1.5,2.3-3.7,1.6-5.7.4-7.5-4.3-15.1-5.6-23.3-1.7-2.5,1.2-4.7.3-5.9-2-1.3-2.6.3-4.4,2.4-5.8h0ZM316.3,326.6c1.1-3.6,4.2-2.9,6.7-2.2,3.6,1,7.3,1,10.9.6,7.9-.8,9.7-5.3,5.8-12.1-1.5-2.6-4.7-3.8-5.5-6.8-1.7-1.6-1.5-3.9-2-5.9-.4-1.2-.2-2.8,1.1-3.5,1.6-.9,2.5.5,3.2,1.5,1.6,2.2,3.9,4,4.5,6.9,2.1,1.2,3.4,3.1,4.6,5.1,6.8,10.5,3.3,20.3-8.8,23.3-5.3,1.3-10.9,1.3-16.2-.7-2.7-1-5.5-2.5-4.3-6.1h0ZM247.2,278.5c.5-2.2,1.7-4,3.3-5.5,6.2-5.8,13.5-8.9,21.8-9.8,1.5.1,2.8,0,4.1.4,3,.7,6.2,1.7,5.9,5.5-.3,4.2-3.5,4.1-6.7,3.6-7.6-1.1-13.5,2.2-18.9,7.1-1.1,1-2.1,2.2-3.4,3-1.6,1-3.4,1.6-5.1.1-1.5-1.2-1.4-2.9-1.1-4.6ZM266.2,346.3c-5.7,5.2-18.6,6.7-25.7,3.8-9.4-3.8-9.8-12.7-2.4-18.7,4.8-4,10.4-4.7,16.3-5.5,2.5.4,5.2.6,7.7,1.4,9.1,3,11.2,12.6,4.2,19h0ZM277.5,317.1c-4.1,1.5-7.9,1.1-10.9-2.4-4.6-5.4-5.6-11.5-2.8-18.1,3.1-7.3,10.4-9.2,16.1-4.1,3.5,3,4.6,7.2,4.9,10.7.1,6.9-2.7,12.2-7.3,14ZM335.4,410.5c-3.5,1.5-7.3,1.9-11.2,1.5-3.4-.2-7.1.9-10.1-1.5-1.5-1.2-3.8-2.3-2.8-4.7,1-2.5,3.1-1.7,5.1-1.1,1.1.3,2.3.4,3.4.4,4.6-.1,9.2.4,13.8-.8,2-.5,5.1-1.3,6,1.7.8,3-2.4,3.8-4.2,4.6h0ZM368.7,350.6c-.4,8-2.3,15.7-6.6,22.6,0,.3,0,.6-.3.8-.2,1.2-.8,2.2-1.8,3-1.2,1.8-2.4,3.6-3.7,5.3-3.3,4.5-7.3,8-13.3,8.5-2.9,1.6-5.7,3.4-9,4.1-14.1,3-26.4-1.2-37.8-9.3-1.3-.9-2.6-2.1-2.4-4.1-.2,0-.4-.2-.5-.3-.2-.1-.4-.2-.5-.4-.2-.1-.4-.3-.5-.4-.2-.1-.4-.3-.5-.5-.6-.6-1.2-1.2-1.8-2-.2-.3-.5-.6-.7-.9-.2-.3-.4-.6-.7-.9-.8-1.2-1.6-2.5-2.3-3.9-.1-.2-.2-.4-.3-.6-.1-.2-.2-.4-.3-.6-.3-.6-.5-1.1-.8-1.7-.8-1.9-1.5-3.8-2-5.6,0-.3-.2-.6-.2-.9,0-.3-.1-.6-.2-.9s-.1-.6-.2-.9c0-.2-.1-.5-.1-.8,0-.2,0-.5-.1-.7,0-.3,0-.6-.1-.9,0-.2,0-.3,0-.5,0-.2,0-.4,0-.6,0-.2,0-.5,0-.7,0-1,.1-1.9.4-2.7.5-1.5,1.4-2.1,2.8-2.5,2.3-.9,1.9,1.8,3.1,2.3.3-1.1-.2-2.3,2-2.4,23.5-1.6,47.2-.9,70.5-5.5.5,0,1,0,1.4,0,4.6-1.9,6.9-.5,6.7,4.5h0ZM359.1,291.7c-.5-1.7-.7-3.5-.9-4.2,0-7.9,4.3-13.6,9.8-14.2,5.8-.6,11,3.7,12.5,10.5.3,1.4.5,3,.5,4.4,0,6.6-3.6,11.8-8.9,12.7-5.7,1-10.9-2.6-13-9.1h0ZM400.9,325.5c-4.5,3.7-17,6.5-24.1,2.3-6.1-3.6-7.1-8.6-3.1-14.4,4-5.6,10-6.5,16.1-7.5,2.9,0,5.7.7,8.3,1.7,9.4,3.8,10.7,11.4,2.8,17.9h0Z"/>
    <path class="st11" d="M431.9,98.1c-2.4,6.9-3.9,14-7.6,20.5-12.1,20.7-29.6,32.3-53.9,32.4-8.6,0-16.4-3.6-24.1-7.2-1.6-.7-1.9-1.6-1.7-3.5.6-5.2.7-10.4-.3-17-3.7,8.1-7.4,14.6-12.1,20.6-13.4,17.1-30.6,27.6-52,31.2-22.6,3.8-43.1-1.7-61.5-15.2-2-1.5-3.7-3.3-5.6-5-.6-.6-1.5-.9-2.3-.4-.8.5-.7,1.4-.5,2.2,1.4,4.4,2.6,9,4.3,13.2,1,2.5,4.5,4.3,4,7.1-.8,3.9-3.5,7.3-6.3,10-8.8,8.3-18.2,15.1-30.5,17.8-17,3.8-31.9-.4-44.6-11.3-17.4-15-22.1-34.8-18.1-57,.7-3.5,2.7-6.8,2.8-10.5-1.9,0-3,1.4-3.8,2.8-6.9,11.3-11.2,23.4-12.2,36.8-1.2,16.6,3,31.8,12.2,45.1,9.2,13.3,22.1,21.9,38.5,24.2,3.1.4,6.2,1.6,9.4,1,4.7-.8,6.4,1.4,7,5.8,1.9,13.6,4,27.1,6.1,40.7,0,.6.7,1.1,1,1.6,4.1-7.1,11.4-10.6,17.5-15.2,11.7-8.8,24.9-15.2,37.6-22.6-.4-.5-1-1-1.1-1.6-2.5-11.1-4.8-22.3-7.4-33.4-.5-2.1-.1-3.4,1.3-4.8,5-5.1,9.9-10.3,14.7-15.6,2.1-2.4,4.3-3,7.5-2.2,9.6,2.4,19.3,2.9,29,1.2,22.4-4,42-13.5,57.3-30.8,2.6-2.9,4.8-3,8.1-1.2,12,6.5,24.9,7.7,38.2,5.5,7.7-1.3,7.7-1.4,9.6,6.5.2.8.5,1.6.7,2.4,15.5-3.4,25.6-14.1,33.4-26.8,8.5-13.8,9.7-29.2,7.4-45-.2-1.3-.6-2.2-2-2.3h0Z"/>
    <path class="st22" d="M393.1,172.1c-.2-.8-.5-1.6-.7-2.4-1.9-7.9-1.9-7.8-9.6-6.5-13.3,2.2-26.2,1-38.2-5.5-3.3-1.8-5.5-1.8-8.1,1.2-15.3,17.3-34.9,26.7-57.3,30.8-9.7,1.7-19.5,1.2-29-1.2-3.2-.8-5.4-.1-7.5,2.2-4.8,5.3-9.7,10.5-14.7,15.6-1.4,1.5-1.8,2.8-1.3,4.8,2.6,11.1,4.9,22.3,7.4,33.4.1.6.7,1.1,1.1,1.6,2.1-.9,4.3-1.8,6.4-2.7,32.9-15.3,67-25.9,103.2-29.3,6-1.1,11.9-1.5,18-1.2,13.4-.2,26.7.5,39.9,2.9-.7-9.6-3.6-18.7-5.7-28-1.2-5.3-2.6-10.6-3.9-15.8h0Z"/>
    <path class="st3" d="M336.2,428.2c-37.6,3.5-68.9-8.9-93.9-37.3-13.4-15.2-19.7-33.5-24.3-52.6-2-8.2-3.3-16.5-4.9-24.8-.3-1.6,0-3.5-2.4-3.5-.9,3.5-1.8,7-2.8,10.5-.4,1.5-.7,3.4-2.9,3.6-2.4.2-3-1.6-3.9-3.2-2.6-4.8-5.4-9.5-7.9-14.3-2.9-5.4-7.2-7.5-13.1-6.4-.9,3.4-4.4.9-6.2,2.9-3.4,3.9-7.8,6.6-9.7,12-2.9,8.1-3.5,16,.4,23.8,1.2,2.4,1.6,4.6,1.6,7,5,7.4,12.3,10.8,20.8,12.1,3.1-.6,6.3-1.2,9.5-1.8,1.2-.2,2.6-.3,3,1,2.3,7.6,7.2,14.1,8.8,21.9,7.7,12.4,16.8,23.7,27.8,33.4,1.6,1.4,4.6,1.7,4.5,4.8,4.8-1.1,7.6,2.2,10.9,4.6,2.8,1.1,6,1.4,7,5,8.4.5,16,4,24.2,5.4,8.7,1.4,17.4,3,26.1,2.5,8.2-.5,16.5-1.6,24.5-3.8,1-.4,2-.7,3-1,0-.6.2-1.1.2-1.7h0ZM192.3,340.9c-2.8.2-3.1-1.8-3.5-3.9-.5-2.6-1.2-5.1-1.9-7.7-1.9-6.8-4-8-10.9-5.9-1.4.4-2.3,0-3.2-.8-1-.9-.2-1.8.2-2.7,1.9-4,6.9-5.9,10.9-4,8.2,3.7,10.5,10.9,11.1,17.6,0,2,0,2.5,0,3,0,2.1,0,4.2-2.8,4.4h0Z"/>
    <path class="st23" d="M179.9,300.2c6-1.1,10.3,1,13.1,6.4,2.6,4.8,5.3,9.6,7.9,14.3.9,1.6,1.5,3.4,3.9,3.2,2.2-.2,2.4-2.1,2.9-3.6,1-3.5,1.9-7,2.8-10.5,1.1-13.2,7.9-24.9,10.2-37.7.5-2.5,2.6-2.1,4.3-2.5,19.8-4,38.4-10.6,55.1-22.2,5-3.5,9.5-7.6,14.9-12,.3,7.9-3,14.4-3.5,21.8,4.5-.6,8.6-2.3,12.5-4.3,15.1-7.7,28.6-17.5,38-32.1,1.3-2.1,3.1-4,2.7-6.7-36.2,3.4-70.4,14-103.2,29.3-2.1,1-4.2,1.8-6.4,2.7-12.6,7.3-25.8,13.8-37.6,22.6-6.2,4.6-13.4,8.2-17.5,15.2-.4,1.7-.9,3.4-1.3,5.1-.2.3-.3.7-.5,1h0c-.2,2-.3,3.9-1.3,5.6-.1.8-.3,1.5-.4,2.2.2,2.2,1.9,1.9,3.3,2.1Z"/>
    <path class="st9" d="M212.9,448.1c2.6,8.9,9.7,14,16.1,19.8,12.1,10.9,27.1,15.4,43.3,19.6-9.7,8.5-13.6,19.1-15.7,30.5-1.8,9.7-1.9,19.4-.5,29.2.4,2.8,2,2.8,4.4,2.2,7.4-2.1,14.4-5.5,20.4-10.1,5.1-3.9,9.8-8.4,13.9-13.5.9-1.1,1.3-2.3,1.2-3.7-7.8,7.1-17,11.9-26.8,15.6-3.1,1.2-4.3.7-4.3-2.6,0-4.6,0-9.3.2-13.9.9-13.5,4.5-25.8,15.7-34.6,2.3-1.8,5.2-2.9,7-5.4h0c-.5-.3-1-.6-1.5-.9h-.3c0,0-.2-.1-.2-.1-4.1-.1-8.1-1-12-2.2-2.1-.3-4.2-.4-6-1.8-.8,0-1.7,0-2.5-.2-17.6-5-31.7-15.5-44.4-28.2-1.4-1.4-2.4-3.2-1.5-5.4-1.6,0-3.4-.4-3.6,2-.2,2-1.6,3.1-3.2,4h0Z"/>
    <path class="st17" d="M281.3,450.6c-2.3-2.8-5.2-4.8-8.2-6.8-.4,0-.7.2-1,.3-1.7,6.1-5.1,7.2-9.3,3.1-1.5-1.5-3.2-2.9-4.8-4.3-1.8,1.3-3.6,2.4-3.9,4.9,1,3.5,3.7,5.7,6.1,8.1,3.2,0,5-6.8,9.5-1.5,1.7,2.1,3.2,3,1,5.5-2,2.2-3.6,3.3-5.8.3-1.1-1.5-2.6-2.6-4.6-2.3-7.7,5.9-7.7,5.9-13.1,1.4-2.3-1.9-2.5-3.6-.3-5.7,1.9-1.8,3.5-3.9,5.3-5.8,0-1.7-1.2-2.6-2.2-3.6-1.6-1.5-3.1-2.7-.6-5,2.1-1.9,3.6-2.7,5.6-.1.8,1,1.8,1.9,3.3,1.9,2-1,4-2,6-3-1.2-3.5-3.9-6.1-5.9-9-.7,1.1-1.5,2.1-2.1,3.2-1.9,3.2-3.7,4.2-6.6.8-1.5-1.8-2.6-4.2-5.2-5-.9.7-1.8,1.4-2.7,2.1-1.2,1.1-2.3,2.6-4.2,1.4-1.5-.9-2.1-2.1-1.7-4.1.3-1.8-.8-4.1,1.5-5.1,2.3-1,3.6,1,5,2.3.6.5,1.3,1,2,1.4,2.8-.5,4.6-2.9,7.1-4.1-3.3-2.4-6.1-5.7-10.9-4.6-5.2,2.5-9.3,6.1-11.4,11.6-2,5.1-5.8,9-9.2,13.2-.9,2.2.1,4.1,1.5,5.4,12.7,12.7,26.8,23.2,44.4,28.2.8.2,1.6.2,2.5.2-.6-.5-1.2-1.2-2-1.4-2.2-.7-5.2-1-5.5-3.5-.3-2.6,2.7-3.9,4.4-5.6,2.2-2.3,3.9-.6,5.6.7,1.6,1.2,3,2.6,4.5,3.9,3.4,0,5.1-1.9,6-4.9-.1,0-.3-.1-.4-.2-7.5-7.4-11.5-7.4.6-14.2h0ZM238.3,449.9c-1.2,0-8-6.6-8.1-7.8,0-1.2,6.5-7.8,7.8-8,1.5-.2,7.6,5.3,7.8,7.1.1,1.3-6.3,8.6-7.6,8.7h0Z"/>
    <path class="st23" d="M402.8,216c-13.2-2.4-26.5-3.1-39.9-2.9,6.2,11,14.9,20.2,25.9,25.6,11.6,5.7,17,13.5,17.8,26.1.3,5.4.3,11.3,3.3,16.3,1.7-5.7,3.4-11.4,5.1-17.1.7-14.6-1.6-28.7-8.2-41.9-1.1-2.2-2.7-4.1-4.1-6.1h0Z"/>
    <path class="st3" d="M415.1,264c-1.7,5.7-3.4,11.4-5.1,17.1,0,9.1,1.8,18.1,3.1,27.1.4,3,1,5.9.9,8.9,14.3-10,17.1-25.7,11.8-39.6-2.1-5.4-4.4-11.2-10.7-13.4h0Z"/>
    <path class="st11" d="M182.9,101.9c3.5,1,7,2,10.5,3.1,2.4.8,3.5.7,3.7-2.3.9-12.5,4-24.4,9.9-35.6,3.4-6.5,7.6-12.4,12.9-17.5,2.1-2.1,4.1-4.3,6.1-6.5-5.3.2-8.5,4.2-12.1,7.2-16.6,13.4-26.1,31.2-30.9,51.7h0Z"/>
    <path class="st9" d="M338,482c1.9-2.9,5.4-2.9,8.1-4.1,11-8.8,17.8-20.7,23.9-33.1-.3-4.9,1.3-10.4-4-13.9-.9-.6-1.7-.9-2.7-.9.3,1,.6,1.9.9,2.9h-.2c.4.4.8.8,1.2,1.1,2.7,3.2,4.1,6.5,1.2,10.4-1.6,4.4-4.4,8.1-7.4,11.6-1.9,2.6-3.8,5.2-6.9,6.5-1.4,1.9-2.9,3.5-5.1,4.5-3.6,3-7.3,5.9-12,7-1.3,2-4.3,1.4-5.6,3.8,2.6,2,5.6,3.2,8.6,4.2h0Z"/>
    <path class="st1" d="M179.9,300.2c-1.4-.2-3.1,0-3.3-2.1-8.6,2.7-13.4,9-16.5,17.2-3,7.9-3.2,15.5,0,23.3.7,1.6,2.1,2.9,1.9,5-.2,2.9,2.1,2.4,3.8,2.5,0-2.5-.4-4.6-1.6-7-3.8-7.7-3.2-15.6-.4-23.8,1.9-5.4,6.3-8.1,9.7-12,1.8-2.1,5.4.5,6.2-2.9h0Z"/>
    <path class="st23" d="M208,379.2c-1.6-7.8-6.5-14.3-8.8-21.9-.4-1.3-1.8-1.3-3-1-3.1.6-6.3,1.2-9.5,1.8,4,7.7,9.9,13.6,17.1,18.3,1.4.9,2.7,1.9,4.1,2.8h0Z"/>
    <path class="st19" d="M364.2,432.8c-.3-1-.6-1.9-.9-2.9-2-1.8-2.5-4.9-5.1-6.2-2.1,1.7-2.9,5-6.3,5.2,0,.7,0,1.3.1,2,1.2,0,2.4.6,2.9,1.6,2.1,4.2,4.5,4,7.4.9.4-.4,1.2-.4,1.8-.6h0Z"/>
    <path class="st17" d="M351.9,429c3.4-.2,4.2-3.5,6.3-5.2,0-.3-.1-.6-.2-1-4.1-1.3-6.9,1.6-10.3,2.8,1,1.7,2,3.2,4.2,3.3h0Z"/>
    <path class="st1" d="M177.1,295.8c1-1.7,1.1-3.6,1.3-5.5-1.6,1.6-2.2,3.4-1.3,5.5Z"/>
    <path class="st1" d="M178.4,290.2c.2-.3.3-.7.5-1-.2.3-.3.7-.5,1Z"/>
    <path class="st20" d="M338,482c-3-1.1-6-2.2-8.6-4.2,1.3-2.4,4.3-1.8,5.6-3.8-5.7-5.9-6.3-6-9.4-1.6-1.3-3.1-1.9-6.2-1.6-9.5l-.2-2.9c-1.8-2.1-5.6-.9-6.9-4-3.6-1.9-7.4-.7-11.2-.7-4.8,0-8.7,4.6-13.7,2.5-.9,2.5,1.8,3.9,1.9,6.1,5.5,4.6,10.3,9.9,14.7,15.5,3.7,4.7,6.9,5.4,11.9,2.5,1.6-.9,3.2-1.7,5.5-2.9-2.2,6.3,2.9,7.4,5.6,9.6,5.4,4.5,8.4,10.1,10.1,16.7.3,1.1.5,2.5-.6,3.2-1.2.8-2.1-.4-3.1-.9-4.9-2.7-7.4-7.6-10.5-11.8-4.6-6.2-4.5-6.3-11.6-3.9.3,1.5.6,2.9.9,4.4,2.2,11.4,8.3,20,18.2,26.1,6.2,3.8,13.1,5.4,19.8,7.5,2,.3,4,.7,6,1,.2-.2.5-.4.8-.4-.5-15-3.7-29-13.7-40.8-3.4-2.6-6.7-5.2-10.1-7.8h0Z"/>
    <path class="st20" d="M287.9,481.1c-1.8,2.5-4.7,3.6-7,5.4-11.2,8.9-14.8,21.2-15.7,34.6-.3,4.6-.2,9.3-.2,13.9,0,3.2,1.2,3.8,4.3,2.6,9.8-3.8,19-8.5,26.8-15.6.3-.4.6-.8.8-1.1,0-.9.4-1.5,1.2-1.8.2-.4.5-.8.7-1.2.4-.7.7-1.4,1.1-2.1,2.3-4.4,4.6-8.8,5.4-13.8-.6-3.3-.2-6.6,0-9.9-5.1-2.4-8.4-.6-10.8,4.2-2.1,4.1-4.5,8.1-6.6,12.2-1.1,2.1-2.5,3.9-4.3,5.4-1.1,1-2.4,1.5-3.6.7-1.3-.8-.6-2-.2-3.1,3-8.2,5.8-16.5,11.5-23.4,3.9-4.7,3.1-6.2-3.4-7h0Z"/>
    <path class="st9" d="M305.1,492.1c-.2,3.3-.6,6.6,0,9.9,1-.6.4-2.6,1.9-2.5,1.3.1,1.5,1.6,1.8,2.7,3.2,9.9,7.4,19.1,15.7,25.9,7.4,6.2,15.8,10.1,25,12.6,2.6.7,3.1-.4,2.5-2.9-.6-3-1-6.3,2.8-7.9-6.8-2.1-13.7-3.7-19.8-7.5-9.9-6.1-16-14.7-18.2-26.1-.3-1.5-.6-2.9-.9-4.4-3.6,0-7.2,0-10.8.1h0Z"/>
    <path class="st22" d="M296.1,575.3c-2.8,0-5.6.1-8.4.1s-5.8,0-8.7-.1c1.5-3.2,4.4-5.3,8.2-5.3,4.1,0,7.4,2,8.9,5.3h0Z"/>
    <path class="st22" d="M354.7,567.6c-3.7.9-7.5,1.7-11.2,2.4,1.8-2,4.6-3.2,7.7-3.1,1.2,0,2.4.3,3.5.7h0Z"/>
    <path class="st9" d="M298,519c-.8.3-1.2,1-1.2,1.8.9-.3,1.2-1,1.2-1.8Z"/>
    <path class="st9" d="M299.8,515.8c-.4.7-.7,1.4-1.1,2.1,1.1-.3,1.2-1.1,1.1-2.1Z"/>
    <path class="st9" d="M361.7,530.6c-.3,0-.6.1-.8.4.2.1.4.3.6.4,0-.3.1-.5.1-.8h0Z"/>
    <path class="st12" d="M361.8,374c.2-.2.3-.5.3-.8-.4-1.9.3-3.8,1.2-5.2,3-5.4,2.8-11.1,2.8-16.9,0-3-.9-4.8-4-5-.5,0-1,0-1.5,0-.2,6.6-3.5,10.9-9.8,12.8-15.8,4.7-31.9,6.4-48.2,4-6-.9-11.7-2.7-14.6-8.9-1.2-.5-.8-3.2-3.1-2.3-1.3.5-2.3,1.1-2.8,2.5-2.1,6.5,5.5,24,11.8,27.3.5-1.7,2.1-2,3.4-2.7,6.4-3.6,13.6-3.8,20.4-2.7,10.2,1.6,19.4,5.6,25.4,14.8,6-.4,9.9-4,13.3-8.5,1.3-1.7,2.5-3.5,3.7-5.3,0-1.3-.2-2.8,1.8-3h0Z"/>
    <path class="st22" d="M288,353.9c2.9,6.2,8.6,8,14.6,8.9,16.4,2.4,32.4.7,48.2-4,6.3-1.9,9.6-6.2,9.8-12.8-23.3,4.6-47,3.9-70.5,5.5-2.3.2-1.8,1.3-2,2.4Z"/>
    <path class="st3" d="M254.3,325.9c-5.9.8-11.5,1.5-16.3,5.5-7.3,6-6.9,14.9,2.4,18.7,7.1,2.9,20.1,1.4,25.7-3.8,7-6.4,5-16.1-4.2-19-2.5-.8-5.2-1-7.7-1.4h0Z"/>
    <path class="st21" d="M343,390.8c-6-9.2-15.2-13.2-25.4-14.8-6.8-1-14-.9-20.4,2.7-1.3.7-2.9,1-3.4,2.7-.3,2,1,3.2,2.4,4.1,11.3,8.1,23.7,12.3,37.8,9.3,3.3-.7,6.1-2.5,9-4.1Z"/>
    <path class="st3" d="M389.8,305.9c-6,1-12.1,1.9-16.1,7.5-4.1,5.8-3.1,10.8,3.1,14.4,7.1,4.1,19.6,1.4,24.1-2.3,7.8-6.5,6.6-14.1-2.8-17.9-2.6-1-5.4-1.8-8.3-1.7Z"/>
    <path class="st23" d="M358.2,287.4c.1.7.3,2.5.9,4.2,2.1,6.5,7.3,10.1,13,9.1,5.3-.9,8.9-6.1,8.9-12.7,0-1.5-.1-3-.5-4.4-1.5-6.8-6.7-11.1-12.5-10.5-5.6.6-9.9,6.3-9.8,14.2h0Z"/>
    <path class="st23" d="M284.9,303.2c-.3-3.5-1.4-7.6-4.9-10.7-5.8-5-13.1-3.2-16.1,4.1-2.8,6.6-1.8,12.7,2.8,18.1,2.9,3.5,6.8,3.9,10.9,2.4,4.6-1.7,7.5-7,7.3-14Z"/>
    <path class="st21" d="M334.1,306c.9,3,4,4.2,5.5,6.8,4,6.8,2.1,11.3-5.8,12.1-3.6.4-7.2.5-10.9-.6-2.4-.7-5.6-1.4-6.7,2.2-1.1,3.7,1.6,5.1,4.3,6.1,5.3,2,10.9,2,16.2.7,12.1-3,15.6-12.9,8.8-23.3-1.3-2-2.6-3.9-4.6-5.1-2.4-.2-4.6.4-6.9,1h0Z"/>
    <path class="st23" d="M272.3,263.3c-8.3.8-15.6,4-21.8,9.8-1.6,1.5-2.8,3.3-3.3,5.5-.4,1.7-.4,3.4,1.1,4.6,1.7,1.4,3.5.8,5.1-.2,1.2-.8,2.2-2,3.3-3,5.3-4.9,11.3-8.3,18.9-7.1,3.2.5,6.4.6,6.7-3.6.3-3.8-2.8-4.9-5.9-5.6-1.3-.3-2.6-.2-4.1-.4h0Z"/>
    <path class="st23" d="M366.6,246.9c-5-.2-9.6.6-13.8,3.4-2.1,1.4-3.7,3.2-2.4,5.8,1.2,2.3,3.4,3.2,5.9,2,8.1-3.8,15.8-2.6,23.3,1.7,2,1.1,4.3,1.9,5.7-.4,1.5-2.4.7-4.9-1.4-6.7-5-4.3-10.8-6.4-17.4-5.9h0Z"/>
    <path class="st3" d="M324.2,412c3.9.4,7.7,0,11.2-1.5,1.8-.8,5.1-1.6,4.2-4.6s-4-2.3-6-1.7c-4.6,1.2-9.2.6-13.8.8-1.1,0-2.3,0-3.4-.4-2-.5-4.2-1.3-5.1,1.1-.9,2.4,1.4,3.5,2.8,4.7,3,2.4,6.7,1.4,10.1,1.5h0Z"/>
    <path class="st20" d="M351.9,429c-2.2-.1-3.2-1.6-4.2-3.3-4,.2-7.5,2.7-11.5,2.6,0,.6-.1,1.1-.2,1.7.2,1.9,1.1,3.4,2.3,4.8,4.5,5.4,5.6,5.3,10.3.2,1.2-1.3,1.6-3.3,3.5-4,0-.7,0-1.3-.1-2h0Z"/>
    <path class="st23" d="M362,346c3.1.3,4,2,4,5,0,5.8.1,11.5-2.8,16.9-.8,1.5-1.5,3.3-1.2,5.2,4.4-6.9,6.3-14.6,6.6-22.6.2-5-2.1-6.4-6.7-4.5h0Z"/>
    <path class="st3" d="M334.1,306c2.2-.6,4.5-1.2,6.9-1-.6-2.9-3-4.6-4.5-6.9-.7-1-1.6-2.4-3.2-1.5-1.4.8-1.5,2.3-1.1,3.5.5,2,.3,4.3,2,5.9h0Z"/>
    <path class="st23" d="M361.8,374c-2,.2-1.8,1.6-1.8,3,1-.8,1.6-1.8,1.8-3Z"/>
    <path class="st21" d="M258,428.9c2,3,4.7,5.5,5.9,9,3.7.8,5.3,4.3,8.2,6.2.4,0,.7-.2,1.1-.3,1-1.2,2-.6,3.1-.2,13.6,4.3,27.2,3.9,41.1,1.2,5.3-1,9.5-4.4,14.5-5.8,1.8-2.5,1-5.4,1.2-8.1-8,2.1-16.2,3.3-24.5,3.8-8.8.5-17.5-1.1-26.1-2.5-8.2-1.3-15.8-4.9-24.2-5.4,0,.7,0,1.4-.1,2h0Z"/>
    <path class="st17" d="M333,431c-.1,2.8.6,5.6-1.1,8.1-.2,1-.5,1.9-.8,2.9,2.6-.4,5,.3,7,2,3.9-3.5,7.6-3.4,10.9.8.1.2.6.1.9.2.4-.3.9-.5,1.2-.8,2.2-2.1,4.2-5.6,6.8-6.2,3.4-.7,4.6,3.9,7.1,5.8.4.3.9.3,1.4.5,2.9-3.9,1.5-7.2-1.2-10.4-.4-.4-.8-.7-1.2-1.1h.2c-.6.1-1.5.1-1.8.5-2.9,3.1-5.3,3.4-7.4-.9-.5-1-1.6-1.6-2.9-1.6-1.9.6-2.3,2.7-3.5,4-4.7,5.1-5.7,5.1-10.3-.2-1.2-1.4-2.1-2.9-2.3-4.8-1,.4-2,.7-3,1.1h0Z"/>
    <path class="st21" d="M195,333.5c-.6-6.7-2.9-13.9-11.1-17.6-4-1.8-9,0-10.9,4-.4.9-1.2,1.8-.2,2.7.9.7,1.8,1.2,3.2.8,6.9-2.1,9.1-.9,10.9,5.9.7,2.5,1.4,5.1,1.9,7.7.4,2.1.7,4.1,3.5,3.9,2.8-.2,2.8-2.4,2.8-4.4v-3h0Z"/>
    <path class="st20" d="M258,428.9c0-.7,0-1.4.1-2-1-3.5-4.3-3.9-7-5-2.5,1.2-4.2,3.5-7.1,4.1,0,.6,0,1.3,0,1.9,2.5.8,3.7,3.2,5.2,5,2.9,3.4,4.7,2.4,6.6-.8.7-1.1,1.4-2.2,2.1-3.2h0Z"/>
    <path class="st19" d="M305.1,492.1c3.6,0,7.2,0,10.8-.1,7.1-2.4,7-2.3,11.6,3.9,3.2,4.2,5.6,9.1,10.5,11.8,1,.6,1.9,1.7,3.1.9,1.2-.8.9-2.1.6-3.2-1.7-6.5-4.7-12.2-10.1-16.7-2.7-2.2-7.9-3.2-5.6-9.6-2.3,1.2-3.9,2-5.5,2.9-5,2.9-8.2,2.2-11.9-2.5-4.4-5.6-9.1-11-14.7-15.5-.7,1-1.3,2-2,3.1,0,1,0,2,0,2.9,0,.9.4,2.3-.8,2.5-1.8.4-2-1.2-2.4-2.4-2.4-1.2-5.1-1.8-5.8-5h-1.9c-.9,3-2.6,5-6,4.9,0,.6,0,1.3,0,1.9,4,2.2,8.7,3.5,10.9,8.1l.2.2s.3,0,.3,0c.5.3,1,.6,1.5.9h0c6.4.8,7.2,2.3,3.4,7-5.7,6.9-8.5,15.2-11.5,23.4-.4,1.1-1.1,2.3.2,3.1,1.2.8,2.6.3,3.6-.7,1.7-1.6,3.2-3.3,4.3-5.4,2.1-4.1,4.5-8.1,6.6-12.2,2.4-4.8,5.7-6.6,10.8-4.2h0Z"/>
    <path class="st20" d="M275.1,471.9c0-.6,0-1.3,0-1.9-1.5-1.3-3-2.7-4.5-3.9-1.7-1.3-3.3-3-5.6-.7-1.7,1.7-4.7,3-4.4,5.6.3,2.5,3.3,2.8,5.5,3.5.7.2,1.3.9,2,1.4,1.8,1.4,3.9,1.6,6,1.8,2.2-1.6-1.4-4.3,1.1-5.9h0Z"/>
    <path class="st17" d="M275.1,471.9c-2.5,1.6,1.2,4.3-1.1,5.9,3.9,1.2,7.9,2.1,12,2.2-2.2-4.6-6.9-5.9-10.9-8.1h0Z"/>
    <path class="st17" d="M288,481c-.5-.3-1-.6-1.5-.9.5.3,1,.6,1.5.9Z"/>
    <path class="st1" d="M331,442c.2-1,.5-1.9.8-2.9-5,1.4-9.2,4.8-14.5,5.8-13.8,2.7-27.5,3.1-41.1-1.2-1.1-.4-2.2-1-3.1.2,3,2,5.9,4,8.2,6.8,2.5,1,4.9,2,6.6,4.2l1.2,1.1h0c1.2.3,2.3.8,3,1.8,5.1,2.1,9-2.4,13.7-2.5,3.8,0,7.5-1.2,11.2.7,1.8.5,2.9-.3,4.1-1.6,1.4-1.5,2.4-3.5,4.8-3.8,1.7-2.9,3.5-5.8,5.2-8.7h0Z"/>
    <g>
      <path class="st20" d="M230.3,442.1c0,1.2,6.9,7.8,8.1,7.8,1.3,0,7.7-7.4,7.6-8.7-.2-1.8-6.2-7.3-7.8-7.1-1.4.2-7.9,6.8-7.8,8h0Z"/>
      <path class="st20" d="M287.9,454.9c-1.7-2.2-4.1-3.2-6.6-4.2-12.2,6.8-8.1,6.8-.7,14.2.1.1.3.2.4.3h1.9c1.5-3.4,6.3-4.6,6.1-9.2h0c-.4-.3-.8-.7-1.2-1h0Z"/>
      <path class="st20" d="M260.1,456c-2.4-2.4-5.1-4.6-6.1-8.1-.7,0-1.3,0-2,0-1.8,1.9-3.4,4-5.3,5.8-2.2,2.1-2,3.8.3,5.7,5.4,4.5,5.4,4.5,13.1-1.4,0-.7,0-1.3,0-2h0Z"/>
      <path class="st20" d="M272,444.2c-2.9-1.9-4.4-5.4-8.2-6.2-2,1-4,2-6,3,0,.6,0,1.3,0,2,1.6,1.4,3.3,2.8,4.8,4.3,4.2,4.1,7.6,3,9.3-3.1Z"/>
    </g>
    <path class="st19" d="M260.1,456c0,.7,0,1.3,0,2,2.1-.3,3.6.8,4.6,2.3,2.2,3,3.8,1.9,5.8-.3,2.3-2.5.8-3.4-1-5.5-4.4-5.3-6.3,1.4-9.5,1.5h0Z"/>
    <path class="st19" d="M257.9,443c0-.7,0-1.3,0-2-1.5,0-2.5-.9-3.3-1.9-2-2.5-3.5-1.8-5.5.1-2.5,2.3-1,3.5.6,5,1.1,1,2.3,2,2.2,3.6.7,0,1.3,0,2,0,.3-2.5,2.2-3.6,3.9-4.9h0Z"/>
    <path class="st19" d="M244.1,428c0-.6,0-1.3,0-1.9-.7-.5-1.4-.9-2-1.5-1.4-1.3-2.7-3.3-5-2.3-2.4,1-1.2,3.3-1.5,5.1-.4,2,.2,3.2,1.7,4.1,1.9,1.2,3-.3,4.2-1.4.9-.8,1.8-1.4,2.7-2.1h0Z"/>
    <path class="st17" d="M324,463c-.3,3.3.2,6.4,1.6,9.5,3.1-4.4,3.6-4.3,9.4,1.6,4.7-1.1,8.4-4,12-7-1.1-1.5-2.3-.5-3.6-.3-3.5.6-4.6-2.7-6.6-4.5-1.2-1-.8-2.3,0-3.5,4.4-6.7,8-6.8,12.7-.4,1,1.3,1.7,2.8,2.5,4.2,3.1-1.3,5-3.9,6.9-6.5-2.7-3.3-5.6-6.4-9-8.9-4,2.6-8,5.4-12,0-2.6,2.4-6.2,3.7-8,7.1,0,1.7,1.1,2.9,2.1,3.8,2.6,2.3,1.6,3.8-.3,6-3.3,3.9-5.3.8-7.7-.9h0Z"/>
    <path class="st20" d="M350,447c3.4,2.6,6.4,5.6,9,8.9,3-3.5,5.8-7.2,7.4-11.6-.5-.2-1-.2-1.4-.5-2.5-1.9-3.7-6.5-7.1-5.8-2.6.6-4.5,4-6.8,6.2-.4.3-.8.5-1.2.8,0,.7,0,1.3,0,2h0Z"/>
    <path class="st20" d="M352.1,462.5c-.8-1.4-1.6-2.9-2.5-4.2-4.7-6.4-8.2-6.2-12.7.4-.8,1.3-1.2,2.5,0,3.5,2,1.7,3.1,5.1,6.6,4.5,1.3-.2,2.5-1.1,3.6.3,2.1-1,3.7-2.6,5.1-4.5h0Z"/>
    <path class="st19" d="M364,432.9c.4.4.8.7,1.2,1.1-.4-.4-.8-.7-1.2-1.1Z"/>
    <path class="st17" d="M289,455.9c.3,4.6-4.6,5.8-6.1,9.2.6,3.2,3.4,3.8,5.8,5,.9-1.2,1.2-3.1,3.3-3.1.7-1,1.3-2,2-3.1-.1-2.2-2.8-3.6-1.9-6.1-.8-1.1-1.9-1.5-3-1.9h0Z"/>
    <path class="st19" d="M324,463c2.4,1.8,4.4,4.8,7.7.9,1.9-2.2,2.9-3.7.3-6-1-.9-2.1-2.1-2.1-3.8-.7,0-1.3,0-2,0-.2,2.8-3.1,3.7-4.1,6l.2,2.9Z"/>
    <path class="st17" d="M323.9,460c1-2.3,3.9-3.2,4.1-6-.7-1.1-1.4-2.3-2.1-3.4-2.4.3-3.4,2.3-4.8,3.8-1.2,1.3-2.3,2.1-4.1,1.6,1.2,3.1,5,1.9,6.9,4h0Z"/>
    <path class="st20" d="M325.9,450.7c.7,1.1,1.4,2.3,2.1,3.4.7,0,1.3,0,2,0,1.8-3.4,5.4-4.7,8-7.1,0-1,0-2,0-3-2-1.7-4.4-2.4-7-2-1.7,2.9-3.5,5.8-5.2,8.7h0Z"/>
    <path class="st19" d="M338.1,444c0,1,0,2,0,3,4,5.4,8,2.6,12,0,0-.7,0-1.3,0-2-.3,0-.8,0-.9-.2-3.4-4.2-7-4.4-10.9-.8h0Z"/>
    <path class="st20" d="M292,467c-2.1,0-2.3,1.9-3.3,3.1.5,1.2.7,2.8,2.4,2.4,1.2-.3.7-1.6.8-2.5,0-1,0-2,0-2.9Z"/>
    <path class="st17" d="M287.9,454.9c.4.4.8.7,1.2,1.1-.4-.4-.8-.7-1.2-1.1Z"/>
  </g>
  <g>
    <path class="st8" d="M-590.3,779.9c-1.1,6.7-20.6,10.6-26.9,11.4s-1.4-.8-1.5-.8c5.9-.4,4.9-8.7,1.7-9.4s-11.7,3.7-14.5,4.3c-13.8,2.8-28.1,4.2-42.2,3.9-11.2,2.1-23.5-1.1-34.9-1.2-1-3.8-3.4-7.3-2.4-11.8,34.2,1,68.2-2.4,100.6-13,3.5-1.1,6.1-2.2,9.5-3.6s6.4-2.2,9.5-3.6c.7,7.2,2.3,16.6,1.2,23.7Z"/>
    <path class="st8" d="M-780.9,776.3c6.3.2,13.9.4,20.1,0-.9,6.8-3,13.2-4.4,19.9s-.1,5.8-.3,6.2-5.4,2.3-6.5,2.4c-6.7.8-16.3-2.8-23.7-1.3-2.7-.5-2.6-1.2-3-3.6s1.1-7.2-1.2-8.9-25.9-5.7-30.8-7.1c-12-3.4-38.8-12.8-47.3-21.4s-1.1-2.6,1.1-4.1c26.5,10.4,67.3,16.8,95.9,17.8Z"/>
    <path class="st5" d="M-876.8,758.6c-2.2,1.5-3.7,1.5-1.1,4.1,8.5,8.6,35.2,18,47.3,21.4,4.9,1.4,29,5.7,30.8,7.1s.8,6.4,1.2,8.9c-13.3,0-27.2-3.6-40.3-6.5-14.9-3.3-28.4-7.6-42.6-12.4.8-7.6-2.1-17.1,2.4-23.7.8.4,1.8,1,2.4,1.2Z"/>
    <path class="st5" d="M-618.7,790.5c-1.1.2-2.4-.2-3.6,0-6.1.9-13.1,2.8-18.9,4.7-1.2,0-2.4,0-3.6,0-2,.1-5.5,1-7.1,2.4-1.6,0-3.2,0-4.7,0s-3-.3-3.6,1.2c-2.2,0-4.1,1-5.9,1.2s-1.6,0-2.4,0c-1.6.1-3.2-.2-4.7,0-2.4.3-6.3,1-8.3,2.4-1.2,0-2.4,0-3.6,0-3.7,0-7.4,1.1-9.5,1.2-3.1.2-6.3-.1-9.5,0-2.7-5.3-3.4-10-4.7-15.4,11.5,0,23.7,3.2,34.9,1.2,14.1.3,28.4-1.1,42.2-3.9,2.7-.5,13.7-4.4,14.5-4.3,3.2.7,4.2,8.9-1.7,9.4Z"/>
    <path class="st8" d="M-622.3,790.5c0,3.6-1.7,3-4.1,3.6-5.7,1.4-10.3.8-14.8,1.2,5.9-2,12.9-3.8,18.9-4.7Z"/>
    <path class="st8" d="M-685,802.4c1.3,3.9-6.8,2.9-9.5,1.2,2.1-.1,5.7-1.1,9.5-1.2Z"/>
    <path class="st8" d="M-673.2,800c.2,5.7-6.4,2.4-8.3,2.4,1.9-1.4,5.9-2.1,8.3-2.4Z"/>
    <path class="st8" d="M-644.8,795.3c.3,5.5-5.6,2.4-7.1,2.4,1.6-1.4,5.1-2.3,7.1-2.4Z"/>
    <path class="st8" d="M-656.6,797.6c.6,4.8-2.6,1.2-3.6,1.2.6-1.5,2.3-1.2,3.6-1.2Z"/>
    <path class="st8" d="M-666.1,800c.7,3.5-3,3.7-2.4,0,.8,0,1.6,0,2.4,0Z"/>
    <path class="st14" d="M-805.8,225.9c-6.1,40-3.1,98.8,45,110.1-.9,3.1,3.7,3.2,5.5,3.4,20.4,2.1,36.1-.9,52.6-12.9,26-18.9,34.7-46.1,46.2-74.6,0-.1,1.5-.4,2.1-2,1.2-3.2.2-8.2,3.3-11,1.9,2.5-2.7,6.9,1.8,8.3,2.4-6.6-1.9-17.8,8.3-15.4,1.7-4.6-12.7-.4-5.9-5.9,1.3.9,19.5-.3,22.5,4.7-9.2,39.2-11.2,87.3,3.6,125.5-2.9,8.1-6.8,16.1-11.8,23.1-6.6,9.2-15.3,19-14.2-.6-8.7,2.2-4.4.5-6.2-2s-8.4-4.8-8.9-4.9c-4.8-.7-16.7,2.3-22.2,2.2-5.7,0-11.9-2.7-16.7-3.5-2.3-.4-21.5,2.6-24.6,3.5s-.7,2.3-.8,2.4c-7.6,4.9-5.4,0-8.3-1.8s-10.6-2.5-9.5,1.8c-.4,0-.8,0-1.2,0-.9.1-2.1-.6-2.4.8-1.7,3.5,0,5.7,0,6.3,0,1.2.1,2.4,0,3.6h-5.9c-1.8-9.7-.4-12-11.8-10.6.5,4.4,1.5,8.7,2.4,13-2.4,3.1-.3,9.5.4,13.2s.8,9.5,4.4,11.6c0,.4,0,.8,0,1.2.2,1.7-.4,2.1,1.2,3.6s6.2,1.6,8.9,1.3,2-1.7,2.9-2.4,1.4.4,2.1-.3.4-2.4,1-3.1c3.6-4.8,3.1,3.1,4.3,4.3s1.9,0,2.1.2c.4.3.9,1.1,1.2,1.2,2.8.9,8.1,2.4,10.4-.3s3.8-11.3,3.8-12.3c.1-1.8-1.2-2.6-1.2-2.8,0-.4,0-.8,0-1.2,2,.9,3.7-4.6,5.9-2.4.7.7-.9,18.1,3.1,20.1.8.2,1.5-1.1,1.6-1.1,2.4,0,4.7,0,7.1,0,6.5,5.9,15.8.7,22.5,0s7.2-1.1,9.5-1.2,6.1,1.9,9.5,0c.9,1-3,6.9,6.3,4.7s.6-1.8,1.7-2.3,4.5.6,5.7-1.2c1.9-2.6-1.2-7.6-.7-8.3s11.1-3.5,12.7-3.4c3.9.2,2.9,6.7,2.5,9.7-1.8,16.7-7.7,33.7-9.3,51-1.3,14.4,1.7,26.9-5.5,40.7-9.9,18.9-28.6,26.4-45.4,37.5-.7.5-4.3.8-2.3,2.9,3.6,3.7,27.6-4.6,33.1-6.5,6.3-2.2,10.4-8.5,12.6,2.9s-1.6,10.5-5.4,14.5c-4.6,4.8-21.5,11.1-28.4,13.4-27.6,8.9-57.5,11.3-86.4,12.4-1.1,3.2,5.9,3.4,7.7,3.5,33,3,66.5-.6,98.8-5.9,1,4.9-1.6,2.9-4.1,4.7-16.3,11.8-37.6,21.4-58,20.1l-18.4,2.4c-33.6-.9-58.6-4.4-91.2-11.8-1.4-7.1-9-5.6-14.2-4.7-1-3.7,4.3-2.9,4.7-4.1,1.7-4.1-2.9-2.4-4.2-4.1s-2.9-7.8-3-8.8c-.5-3.5.5-30.3,1.2-33s5.4.3,0-4.8c.8-18-3.2-38-2.4-55.7s4.6-7.8,4.8-10.6-.5-22.9-1.4-27-3.2-7.5-3.5-7.7c-1-.8-6.3.6-8.1-1.4-3.4-8.5-9.4-17-13-26.6-2.3-6.1-8.1-19.8-4.7-25.5s2.7-1.5,3.6-2.9c7.4-11.6,11.8-23.5,16.6-36.1,13.3-35.6,19.8-70.4,26-107.7.3-1.9.4-4.7,1.4-6.3s14.7-5.7,17.5-6.2,5.7.1,9.5-.5ZM-835.4,375c0,.8,0,1.6,0,2.4-3.6-.7-2.3,1.8-2.4,4.1-.3,10.3-.4,21.8,0,32.1,0,2.3-1.2,4.7,2.4,4.1,0,.4,0,.8,0,1.2,0,.8,0,1.6,0,2.4,17,2.4,8.7-4.5,12.5-10.6,1.3-2.1,7.9-6.2,10-8.3s.8-.8,1.2-1.2c7.2-4,4.1,4.5,9.5,4.7,5.9,23.2,35.1,15.6,35.6-5.4s-1.4-11-2.5-14c-5.8-15.5-28.1-15.2-33,.5l-4.7-2.4c-1.7-6.1-5.2-8.5-11.8-9.5-4-2-12.4-2-16.6,0ZM-748.9,474.5c.8,2.4,8.1.7,10.7,1.2v-17.8h13c0-2.7.1-5.5,0-8.3s.2-2.2,0-2.4c-1.6-1.1-8.7,2.4-7.1-5.9,2.7-.1,5.5,0,8.3,0s3-1.2,3.6-1.2c1.4,0,6.5,2.5,9.5,1.2,1.1,1.1-.8,26.2-.6,30.3s.6,2.7,1.8,4.1c4,5,10.9,2.2,15.5-.7l-1.3-33.7c2.6-.2,2.4-.2,4.7-1.2s1.7.4,2.2-.2c1.3-1.7,2.1-10.9-2.8-10.5-19.4-.8-39.4,1.5-58.6-1.2l1.2,46.2ZM-796.3,474.5c0,0,1,1,1.2,1.2,2.2,1.8,17,1.6,20.8,1.3,2.5-.2,3.1-1,4-1.3s.7-1.1,1.2-1.2,3.1-.1,3.6,0,.8,2.2,3,2.5,6.5-.2,6.5-1.9v-43.2c-3.9-.4-6-.2-9.5,1.2s-2.1-.7-2.4.7c-.4,9.7.7,19.9,0,29.5s-1.2,2.6-1.2,2.9h-1.2c-2-2.8-12.1-.3-13-1.2s1.9-28.9-1.2-32-8.3-.7-11.8-1.2c-2,1.2-1.2,4.5-1.2,6.5-.1,9.9-.1,19.8,0,29.6s-.8,5.3,1.2,6.5Z"/>
    <path class="st5" d="M-359.5,268.5c-3.3-.7-2.2,1.7-2.9,3.5-6,15.3-13.5,30.9-31.1,35.2s-17.8,1-25.2,3.2-8.7,5.6-12.7,7.4c-29.4,13.3-65.9,19.4-96.5,6-16.4-7.2,3-6,7.4-13.9l-59.2,3.5c-.7-4.4,11.3-24.2,9.5-26s-10.7,7.5-12.4,9.4c-11,12.3-15.4,28.3-24.9,41.4-2.8,3.8-9.8,9.3-11.8,13.1-1.3,2.4,4.4,5.5.7,8.3-.5-1.2-1.9-2.4-2.4-3.6-14.7-38.1-12.8-86.3-3.6-125.5,23-13.2,46.7-15.4,71.4-4.5s11.9,9.1,18.1,9.3,12.1-6.4,17.6-8.4c13.2-4.8,28.7-4.5,42.1-.5,3,.9,12.2,7.8,14,2.2s0-12.2.2-16.5-1.2-4.7,2.4-4.1c.1,10.7.5,16.5,2.1,26.9s-1.5,4.8,2.4,11.8c5.9,10.5,17,21.6,28.6,25.2l-12-18.1c-3.7-8-5.3-16.6-6.8-25.2l3.7-46.9c.4-1.9,1.3-3.2,2.8-4.3,6.8-4.7,17.4-7.6,24.7-13.2s8.6-9.3,12.5-14.2c.7,1.4,4.4,4.5,5.7,6.7,10.6,18.1,22,39.1,28.6,59,6.9,20.5,6.7,31.4,7.1,52.7ZM-553.6,257.8c1.1,1.1,3.7-.8,4.8-1.7s11-12.2,11.6-13.3c1.9-3.3.8-5.9-3-6.2s-15.2,19.5-13.4,21.2ZM-454.2,282.7c-6.6.3-11.7,5.4-17.8,7.7-24.9,9.4-43.2,2-67.1-2.8s1.5,5.7,2.8,6.7c15.9,12.9,44.6,15.4,62.7,6.3s22.3-15.3,19.3-18Z"/>
    <path class="st5" d="M-1059.1,151.3c7.4,8.7,14,14.8,24.1,20.3s15.1,4.2,16.2,9.9-.4,5.6,0,8.2c3.7,24.3,8.2,44.5-5.3,66.9l-10.1,14.2c3.2,2.8,18.7-10.6,21.3-13.6s12.6-17.9,13-19c.8-2.4-2.4-.5-2.3-4,5.5,0,9.5-4.1,14.8-6,13.3-4.7,32.2-5,45.6-.5,3.1,1,15.4,7.6,16.6,10,3,6,8.5,13.1,14.2,17.2s2.4,2.2,4.8,1.7l-2.6-7.5-10.4-13.8c21.6-14.3,40.8-19,66.8-11.8,3.3.9,16.2,5.1,17,7.8s-.9,5.9,1.4,7.5c-6.2,37.4-12.7,72.1-26,107.7-9.1-13.8-16.2-28.3-21.3-44.1-3.5-1.1-13.6-16.8-16.6-13.9.7,4.6,1.9,10.4,3.8,14.6s2.6,1.5,3.3,2.9,1.5,7.1,1.2,7.3l-43.8-2.4c-.7,2.7.5,1.9,1.5,2.7,1.6,1.2,9.4,4.9,6.8,7.9s-33.3,9-37.4,9.3c-23,2-44-4.2-64.8-13-4.5-1.9-10.9-6.8-14.6-7.9s-11.5-.8-16.2-1.6c-25.1-4.3-31.3-16.5-39.2-39-.7-1.9.3-4.2-2.9-3.5.3-7.8-.7-16.5.1-24.1,2.9-25.8,23.5-66.5,37.9-88.8,1.2-1.9,3.3-1.7,3.4-1.9ZM-919.4,292.1c5.5-7.2-20.7.7-22.2.9-16.6,2.7-33.9,2.9-49.3-4.6s-8.1-6.1-11.4-7.6c-1.7-.7-3.3,0-3.6,1.2s4.7,7,5.9,8.3c15.4,16.8,42,18.8,62.5,11.5,7.3-2.6,11.2-7.3,18-9.8Z"/>
    <path class="st5" d="M-844.8,74.3c4.1-27,10.3-52.3,31.3-71.1,2.1-1.9,13.6-10.7,15.5-10.7,2.8,0,7.4,12.1,9.5,15.3,11.8,18.2,37.9,36.4,59.3,40.2,2.4.4,1.9-.9,1.4-2.6-1.4-4.5-7.5-11.6-9.8-17.4s-4.3-11.1-4.2-16.5l17.2,15.4c13.9,11.2,30.9,18,48.5,21.4,1.5,0-3.4-13.3-3.8-15.1-.8-3.9-1.1-9.3-.9-13.3,5.5,7.6,8.1,14.7,14.8,21.9,10.8,11.7,18.1,11.1,20,29.7.6,5.6-.1,11.4.2,17-2.1-1.5-3.6,3.9-3.6,5.3v17.8c0,12.2-12.1,42.4-18.7,53.5-22.5,37.3-72.5,59.2-115,46.6-42.4-12.6-62-58.7-63.9-99.4-.6-12.1.6-25.9,2.4-37.9ZM-807.3,41.5c-4.4.7-17.5,6.6-16.1,11.9,2,7.7,11.1-1.7,14.9-2.5s20.4,2.5,21.5-1c2.7-8-14.9-9.3-20.3-8.5ZM-713.7,53.3c-4.9.9-8.6,5.8-4.5,8.7s15.9-.4,23.7,4.7,7,9.1,10.2,2.9c3.7-7.5-14.7-15.4-20.4-16.3s-5.9-.6-8.9,0ZM-807.3,67.5c-12.2,2.8-10.4,27.5,2.1,27.1s15.6-31.1-2.1-27.1ZM-711.4,78.1c-12.1,2.6-12.5,30.2,4.4,27,11.2-2.1,11.7-30.5-4.4-27ZM-766.7,83.8c-2.5-.5-2.7,1.3-3.8,2.7-2.1,2.6-10.2,15.6-11.3,18.3-2.8,7.6-2.1,16.3,6.8,18.7,5.9,1.5,29.5,1,23.5-8.7-1.6-2.7-22.1,5.4-24.5-2.1-2.4-7.3,13.6-19,9.3-28.8ZM-838.5,116.6c9.3,11.5,41.7,6.1,32.1-9.1-6.7-10.7-32.4-9.7-33.6,4.2s.4,3.5,1.5,4.9ZM-693.6,113.7c-11.6,2.1-16,12.7-4.8,19.6,9.9,6.1,35.4,4.3,30.6-10.5-3-9.3-17.7-10.6-25.8-9.1ZM-776.2,178.5c14.6,6.3,26.2,6.8,41-1s5.4-4.6,8.7-8.5,5.6-5.6,8-12.7,1.7-7.5,1.6-11.7,2.5-6.9-1.8-6.3-2.7,1.9-3.1,2.3c.7-3.4-1.9-2.5-4.1-2.4-24.6,2.1-42.5,1.3-66.9,0-1.8,0-6.7-3.4-8.1.8-2.6,7.8,6.1,25.8,11.6,31.8,5.1,5.5,7.2,5.1,13.1,7.7ZM-741.8,190.4c-.5-.5-9.9,2.3-12.4,2.4s-18.4-3.5-17.2,1.7c4.2,6,26.7,5.2,29.3.4s.5-4.3.3-4.5Z"/>
    <path class="st2" d="M-850.7,61.3c-8.2-34-4.8-74,26-95.3l-14.1-4.2c-.3-1.2-.1-2.4.5-3.5,1.7-2.9,30.7-17.7,35.7-19.9,46.5-20.7,108.1-22.3,149,11.7,2.7,2.3,4.9,8.3,7.1,4.7s-1.7-15.4-.6-16.6c10.3,2.6,16.9,15.5,16.6,26,7.7-.4,23.5-1.1,27.2,7.7,1,2.5-1.8,1.6-3,1.7-3.1.4-13.5,1.4-14.7,4.2-.8,3.5,3.1,3.9,5.3,6.4s5.3,7,7.7,10.7l-1.2.6c1.3,3.3,3.6,6.2,5.9,8.9.3.7.8,1.3,1.2,2.4-2.2,1-.5,3.9-.1,5.4,2.4,9.8,5,23.1,3.8,33.1-.3,2.4-5.7,4.8-6,6.1-1.3,4.6,2.7,8.4,2.5,12.8s-2.1,1.7-2.4,2.6c-2,5.8-3.1,10.8-1.3,16.9-.5.6-12.9-8.2-14.2,0-12.4,1.5-12.3,16.3-17.5,24.5-9.1,14.5-8.3-14.8-8.5-19.8s.4-11.4-.2-17c-1.9-18.6-9.2-18-20-29.7s-9.3-14.3-14.8-21.9c-.2,4,.1,9.4.9,13.3s5.3,15.2,3.8,15.1c-17.5-3.3-34.6-10.2-48.5-21.4l-17.2-15.4c-.1,5.4,2.1,11.5,4.2,16.5s8.4,12.9,9.8,17.4,1,3-1.4,2.6c-21.4-3.8-47.5-22-59.3-40.2-2.1-3.2-6.8-15.3-9.5-15.3s-13.3,8.8-15.5,10.7c-21.1,18.8-27.3,44-31.3,71.1-3.3,1-3.1-6.1-4.1-9.6s-1.7-2.9-1.8-3.5Z"/>
    <path class="st4" d="M-618.7,359.6c7,15.6,16.9,33.8,35.5,36.7-2.4,7-3.7,14.2-7.2,21.8-8.1,17.4-20.4,28.9-23.4,48.8-2.4,15.8-1.6,33.6-2.5,49.6-.9,16.3-4.1,27.4-.8,44.7,1.4,7.4,5.8,15.9,5.6,23.4,0,3.4-2.3,8-2.4,11.8-5.3-.2-10.4,3.4-15.4,4.7s-6.8,1.8-9.5,2.4c-14.1,3.2-32.8,3-45.4,5.9-.9.2-.7,2.2-1.6,2.4-2.2.4-5.4-1.4-8.1-1.3-17.7.4-34,1.7-51.5,1.3l18.4-2.4c20.4,1.3,41.7-8.3,58-20.1,2.5-1.8,5.1.1,4.1-4.7-32.4,5.3-65.8,8.9-98.8,5.9-1.8-.2-8.8-.4-7.7-3.5,28.9-1.1,58.8-3.6,86.4-12.4,6.9-2.2,23.8-8.5,28.4-13.4,3.8-4,6.5-8.9,5.4-14.5-2.2-11.5-6.2-5.1-12.6-2.9-5.5,1.9-29.5,10.3-33.1,6.5s1.7-2.5,2.3-2.9c16.8-11.1,35.5-18.6,45.4-37.5,7.2-13.8,4.2-26.2,5.5-40.7,1.6-17.3,7.6-34.4,9.3-51s1.3-9.6-2.5-9.7-12.1,2.6-12.7,3.4,2.5,5.6.7,8.3-4.3.6-5.7,1.2-.8,2.1-1.7,2.3c-9.3,2.2-5.4-3.7-6.3-4.7-3.3,1.9-7.7,0-9.5,0,.7-3.5-2.2-16.6,3-16.6,5.9,0,5.1,14.7,7.9,16.4s7.9-.3,10.5.2c.9-.8-7.1-17.5-7.1-19.6s3.8-3.8,4.5-6.1.6-8,0-10.2-6.3-6.8-7.4-6.8h-20.7v43.8c-6.7.7-16,5.9-22.5,0,9.3,0,19,3.6,16.6-9.5,1.3.1,2.3.8,3.5,1.2v-26c-3.2-4.3-2.1,9-2.3,9.9-.3,1.3-2.3.7-2.4.8.2-6.6-12.9-2.2-14.2-3.5v-8.3s15.4,0,15.4,0v-8.3h-24.9l1.2,43.8c-.1,0-.9,1.4-1.6,1.1-4-2-2.4-19.4-3.1-20.1-2.2-2.2-3.9,3.3-5.9,2.4,1.3-9.2,3.7-18.1,4.7-27.2-1.7.3-9.1-.4-9.5,0-.9.9-2.7,22.6-3.6,26-2.3-.5-2-2.4-2.3-4.2-.6-3-2.8-21.1-3.6-21.8s-6.8-.2-8.2,0c-1.1-4.2,8.6-2.3,9.5-1.8,2.9,1.8.7,6.7,8.3,1.8s-.6-2,.8-2.4c3.1-.8,22.3-3.9,24.6-3.5,4.7.9,11,3.5,16.7,3.5,5.5,0,17.4-2.9,22.2-2.2s8.6,4.4,8.9,4.9c1.8,2.5-2.6,4.2,6.2,2-1,19.6,7.6,9.8,14.2.6,5-7,8.9-15,11.8-23.1.4,1.1,1.8,2.4,2.4,3.6Z"/>
    <path class="st5" d="M-783.3,215.2c-.8,7.5-1.8,15-2.4,22.5,5.5.5,9.1-4.5,9.5-9.5,3-.3,4.1,3.1,6.7,4.6,19.5,10.7,41.3,5.2,60.8-2.2-.7,8.1-6.7,14-9.5,21.3,1.3,1.3,9.5-7.6,10.6-8.9,6.4-7.6,10.5-14.7,17.8-22.5,1.6-1.7.7-5,4-1.7s7.5,12.1,13.7,15.3c-1.3-4.7,1.3-11.5,1.2-15.4,5.3,1.8,13.5,5.7,18.9,5.9l-4.7,27.2c-11.5,28.4-20.2,55.6-46.2,74.6-18.4,9.4-37.4,14.3-58,9.5-48.1-11.2-51.1-70.1-45-110.1,4.1-.7,15.1-3.7,18.3-6,2.4-1.8.7-5.3,4.2-4.6ZM-752.5,275.6c-.9-11.8-20.8-18.1-31-20.5-4.3-1-21.2-5.2-22.3-.2-.3,2,1.4,2.4,2.9,3,5.8,2.6,15,3.6,21.4,5.8,10,3.5,18.6,10,29,11.9ZM-661.3,253.1c-17-.5-36.7,2.1-52.7,8.2s-15.9,7.7-17.1,15.4c11.2-2.8,21.9-8.3,33.1-11.3,7.6-2,30.5-4.1,34.8-6.4s.7-4.4,1.9-6ZM-740.7,293.4c-2.4-.5-2.7,1.2-3.8,2.7-5,7.3-9.6,27.1-8.1,35.7.8,4.2,6,4,6.9,1l4.9-39.5Z"/>
    <path class="st8" d="M-359.5,268.5c.1,7.2,1.7,18.1,1.2,24.3-1.2,13.5-16.1,20.1-26.8,25.3-42.6,20.9-83.9,36.5-132.4,33.3-14.5-1-28.7-6-43-6.9-4,10.9-7,22-11.8,32.6-2.6,5.7-9.4,15-10.9,19.3-18.6-2.9-28.5-21.1-35.5-36.7,3.7-2.7-2-5.8-.7-8.3,2-3.8,9.1-9.3,11.8-13.1,9.6-13.1,13.9-29,24.9-41.4s10.3-11.5,12.4-9.4-10.2,21.6-9.5,26l59.2-3.5c-4.4,7.9-23.8,6.7-7.4,13.9,30.5,13.4,67.1,7.3,96.5-6,4.1-1.8,8.9-6.2,12.7-7.4,7.4-2.2,17.3-1.3,25.2-3.2,17.6-4.3,25.1-19.9,31.1-35.2.7-1.8-.4-4.2,2.9-3.5Z"/>
    <path class="st8" d="M-619.9,83.8c5.9-.7,9.8,2.3,15.4,2.4,3.9,6.6,7.5,10.1,8.3,18.4,1.5,15.5-8.3,33.3-24.8,34.9s-11.2-1.1-11.8-.7c-.9.6-8.2,17-9.7,20s-.6,3.7-.9,4.4c-4.5,8.6-14.6,22.1-21.9,28.4s-6.1,2.7-7.1,4.7c-2.9,6,1.6,16.6,1.8,22.5s-2.5,10.6-1.2,15.4c-6.2-3.2-9.4-11.1-13.7-15.3s-2.5,0-4,1.7c-7.4,7.8-11.4,14.9-17.8,22.5s-9.3,10.2-10.6,8.9c2.7-7.3,8.8-13.2,9.5-21.3-19.5,7.4-41.3,12.9-60.8,2.2-2.6-1.4-3.7-4.9-6.7-4.6-.3,4.9-4,9.9-9.5,9.5.6-7.5,1.5-15,2.4-22.5.1-1.2,0-2.4,0-3.6,42.5,12.6,92.5-9.2,115-46.6,6.6-11,18.7-41.3,18.7-53.5v-17.8c0-1.4,1.5-6.8,3.6-5.3.3,5-.5,34.3,8.5,19.8,5.2-8.2,5.1-23,17.5-24.5Z"/>
    <path class="st8" d="M-1100.5,266.1c3.2-.7,2.3,1.6,2.9,3.5,7.9,22.4,14.1,34.7,39.2,39,4.7.8,11.6.3,16.2,1.6s10.2,6,14.6,7.9c20.7,8.8,41.8,15.1,64.8,13s36.2-7.9,37.4-9.3c2.6-3-5.2-6.7-6.8-7.9s-2.2,0-1.5-2.7l43.8,2.4c.2-.3-.8-6.5-1.2-7.3-.7-1.4-2.6-1.5-3.3-2.9-1.9-4.2-3.1-10-3.8-14.6,3-2.9,13.1,12.8,16.6,13.9,5,15.8,12.2,30.3,21.3,44.1-4.7,12.6-9.2,24.5-16.6,36.1-.9,1.4-3.3,2.4-3.6,2.9-3.8-.5-6.6-8.3-7.9-11.6s-8.6-29-10.6-29.7c-2.5-.9-26.5,4.9-31.9,5.6-47.5,6.4-80.5-3.5-123.2-22.1s-24.1-10.1-33.1-15.4c-20.7-12.2-14.1-25.7-13.4-46.4ZM-889.5,317c0-.8-.7-1.5-1.5-1.5s-1.5.7-1.5,1.5.7,1.5,1.5,1.5,1.5-.7,1.5-1.5Z"/>
    <path class="st14" d="M-522.8,36.5c4.4,3.2,11.5.2,16,.2s15.4,3.9,16,4.5c2.7,3.2-5.5,1.2-3.6,4.7,2.1-.6,5,1.3,6.4,1.2s1.1-3.3,6.6-2.4c17.1,2.9,45.4,34.1,52.1,49.7,3.1,7.3,4.6,9-2.4,13s-3.7,1.4-5.1,2.4-.2,2.8-2,2.4v-4.7c-14.6,5.6-28.7,1.6-34.5-13.4s-1.6-5.1-1.5-10.3c.1-10.9-9.8,4.1-11.3,5.4-6.7,6-10.9.6-17.7-1.9-.9-1.3,10.1-18.1,8.2-20-7.7-1.5-8.7,14.1-11.8,16.1s-11.1-1.4-11.7-3.8c-1.1-3.9,11.6-18.3,9.4-20.5-8.3-2.2-10.3,14.6-13.2,16.3s-7.7-3-11.6-2.1c1.7-8.4,12-13.2,10.6-22.5-5.5,5.5-14,9.2-14.2,17.8-.5.4-9-2.6-9.5-4.7,5.2-9.5,14.7-23.4,24.9-27.2Z"/>
    <path class="st14" d="M-978.6,44.8l14.2,1.2-4.7-4.7c5-.2,8.8-4.2,13.7-4.7s12.1,2.2,18.2,1.2c-.3,10.2,3.7,5.2,9,8.2s7.1,9.6,9.5,13,4.5,1.1,2.7,3.5-1.9-.2-2.2.9,0,9.5-3.4,4.4-10.4-19-13.2-15.8c-1.6,4.2,10.5,19.9,9.5,21.3-3.4-.8-8.6,6.4-10.6,4.8s-.3-2.9-1-4.3c-1-2.2-9.7-18.3-13.3-14.6s8.9,14.8,9.3,18.6-8.5,6.9-11.6,7.5c-.7-3.9-5.3-13.7-7.7-16.6s-3.4-1.2-5.3-1.2c0,4.9,10.6,16.1,8.1,20s-12.3,6.6-14.4,5.9-5.4-12.7-10.8-12.9c-4.4,10-2.9,19.3-13.2,25.8-10.2,6.5-20.1,2-31.2,3.7-1.3-1.3-2.8-2.1-4.1-3.6s-1.1-3.9-1.8-4.6c8.8-19.8,20.9-36.9,39.2-49,4.8-3.2,10.2-5.2,15.3-7.8Z"/>
    <path class="st4" d="M-547.7,63.7c.4,2.1,9,5.1,9.5,4.7.2-8.6,8.7-12.3,14.2-17.8,1.4,9.3-9,14.1-10.6,22.5,3.9-.8,8.2,4.1,11.6,2.1s4.9-18.5,13.2-16.3c2.3,2.2-10.5,16.6-9.4,20.5.7,2.4,10.3,4.7,11.7,3.8,3.1-1.9,4.2-17.5,11.8-16.1,1.9,1.9-9.1,18.7-8.2,20,6.8,2.5,11,7.9,17.7,1.9s11.4-16.2,11.3-5.4c0,5.1-.6,5,1.5,10.3,5.9,15,20,19,34.5,13.4v4.7c1.8.4.9-1.6,2-2.4s3.5-1.4,5.1-2.4c-2.8,6.1-12.9,12.7-18.9,15.4s-21.6,7.2-23,7.1c-2.4-.2-4.1-3.2-7.2-3.5s-8.6,2.4-12.9,2.5c-12.1.2-20.9-6.1-31.4-9.6-.2-3.4,3.6-2.9,5-6.2s1-4.4.9-6.8c5.5,2.9,11.3.8,15.9,1.2s5.7,3.5,9.6,3.6c10.4.4,18.6-13.9,11.2-15.5s-4.9,1.4-7.4.9-11.5-3.7-13.9-4.5-3.1-2-3.6-2.4c-5.7-4.4-6.8-3.5-12.9-6.7-3.3-1.7-4.1-4.3-6.3-5.5s-6.7-1.2-9.2-2.1-2.3-1.1-2.4-1.2c-.5-.5-.2-2.5-2.4-4.1s-5.7-2.3-8.3-3c.4-.8.3-1.9,1.2-3.6Z"/>
    <path class="st4" d="M-978.6,44.8c5.2-2.6,17.2-9.6,22.2-10.4s17,.2,19.6,1,1.1,2,2.3,2.7c9.2,5.3,20.7,19.1,24.6,29.2-2.6,1.4-6.5,2-8.8,3.7s-1.4,2.7-1.9,3.4-1.1,1.2-1.2,1.2c-2.6.7-14.5,1.9-14.2,7.1h-1.2c-5.2.9-9.6,3.9-14.2,5.9s-3.3,1.7-4.7,2.4c-2.1.9-14,5.9-14.8,5.9-1.5,0-9.9-6.2-8.9,4.1s2.5,2.9,3.6,4.2c2.7,3,4.1,5.6,9,5.8s7.9-2.9,10.8-3.2,4.4,1.1,6.8,1,8.4-2.9,8.9-2.4,0,9,5.9,11.8c-8.2,5.8-21.4,10.8-31.4,10.6-3.7,0-9.3-2.6-12.8-2.1s-4.9,3.1-5.6,3.3c-1.1.3-20.4-5-22.5-5.9-5.5-2.4-15.9-9.8-20.1-14.2,11.1-1.8,21,2.7,31.2-3.7,10.4-6.6,8.9-15.9,13.2-25.8,5.5.2,8.6,12.2,10.8,12.9s14-5.2,14.4-5.9c2.5-3.9-8.2-15.1-8.1-20,1.9,0,3.8-.6,5.3,1.2,2.4,2.9,7,12.6,7.7,16.6,3.1-.6,11.9-3.8,11.6-7.5s-11.7-16-9.3-18.6c3.6-3.7,12.2,12.4,13.3,14.6s.8,4.2,1,4.3c2,1.7,7.2-5.6,10.6-4.8,1-1.4-11.1-17.1-9.5-21.3,2.7-3.2,12.4,14.6,13.2,15.8,3.3,5.2,3-2.9,3.4-4.4s2.1-.7,2.2-.9c1.7-2.4-1.8-2.3-2.7-3.5-2.4-3.5-5.6-10.8-9.5-13s-9.3,2-9-8.2c-6,1.1-12.5-1.7-18.2-1.2s-8.7,4.5-13.7,4.7l4.7,4.7-14.2-1.2Z"/>
    <path class="st22" d="M-402.1,146.6c-1.6.6-6.1,2.7-7.1,3.6-7.9,3.1-25.5,11.9-33.1,6.4s-14.8-27.2-8.4-33.6c6-2.7,16.1-9.3,18.9-15.4,6.9-4,5.5-5.8,2.4-13l13.5,11.9c1.3,10.5,14.9,23.9,15,33.6s-1.3,4.8-1.3,6.5Z"/>
    <path class="st22" d="M-1033,101.6c.8.8.9,3.5,1.8,4.6s2.8,2.3,4.1,3.6c4.2,4.4,14.6,11.8,20.1,14.2,2.2,8.8-5.5,31.5-14.9,33.1-8.4,1.4-16.3-2.6-24.2-4.7-2.7-2.7-9.2-4.5-10.7-5.9-7.6-7.6,6.4-25.3,10.5-32.7s6.4-19.2,13.1-12.3Z"/>
    <path class="st8" d="M-1056.7,146.6c1.5,1.5,8,3.2,10.7,5.9s.2,2.4,2.4,4.1c7.8,6.3,31.5,14.6,41.4,14.8-1.4,17.7,3.6,34.9,2.4,52.7s-2.3,7.1-2.4,10.1,3.1,1.6,2.3,4-11.5,17.2-13,19c-2.6,3.1-18,16.4-21.3,13.6l10.1-14.2c13.5-22.4,9-42.7,5.3-66.9-.4-2.6.4-5.6,0-8.2-1-5.7-11.7-7.4-16.2-9.9-10.1-5.5-16.7-11.7-24.1-20.3.9-1.4-1.9-5.8,2.4-4.7Z"/>
    <path class="st8" d="M-402.1,146.6c0,.2,1.1,3.4,1.2,3.6-3.8,4.8-7.5,10.4-12.5,14.2-7.3,5.6-17.9,8.5-24.7,13.2s-2.4,2.4-2.8,4.3l-3.7,46.9c1.5,8.6,3,17.3,6.8,25.2l12,18.1c-11.6-3.7-22.8-14.7-28.6-25.2s-1.6-6.6-2.4-11.8c-1.6-10.4-2-16.2-2.1-26.9,0-2.7.2-5.6,0-8.3,1.6-.6,1.1-2.3,1.2-3.6,0-1.9.1-4,0-5.9,1.5-.6,1.2-2.2,1.2-3.6,0-3.4-2.6-13.4.2-15.2s10.9-1.7,13.6-2.4c16.3-4.5,21.6-9.1,33.6-19.1,1-.8,5.5-2.9,7.1-3.6Z"/>
    <path class="st13" d="M-984.5,130c1.2,1.9,1.5,4.2,1.2,6.4-.6,3.3-8.6,24.6-10.4,28.8-1.9,4.2-3.5,6.4-8.5,6.3-10-.2-33.6-8.5-41.4-14.8-2.1-1.7-2-3.7-2.4-4.1,7.9,2,15.8,6.1,24.2,4.7,9.4-1.6,17.1-24.3,14.9-33.1,2.1.9,21.4,6.2,22.5,5.9Z"/>
    <path class="st8" d="M-535.9,75.5c-5.5,10.9-2.6,20.9,10.6,21.3l1.2-10.6c4,4.7,1.8,14.7,9.2,16.3s4-7.6,7.4-12.8c.5.3,3.3,2.3,3.6,2.4-2.2,5.9-.1,12.1,6.6,13,8.8,1.2,5.3-4.4,6.6-5.7s7.1-.6,8.1-3.7c7.4,1.6-.8,15.9-11.2,15.5s-6.4-3.3-9.6-3.6c-4.6-.4-10.4,1.7-15.9-1.2.1,2.4,0,4.6-.9,6.8-1.4,3.3-5.2,2.8-5,6.2-1.4-.5-4.6.2-7.1-.5-6.7-1.9-14.9-5.5-16.3-13.4s.9-5.6,1-8.6c11.6-4.7-.6-18.1,9.5-22.5,0,0,2.1,1.1,2.4,1.2Z"/>
    <path class="st8" d="M-920.6,74.3c4.9,3.3,1.2,12,2.4,16.9s1.5.8,1.8,1.4c2.3,3.9,2.1,2.3,2.8,3,3.1,3.3,3.1,8.9,1.8,13.1-2.2,7.1-16.8,12.5-23.1,9.4s-5.4-11.4-5.9-11.8-6.7,2.4-8.9,2.4-4.6-1.3-6.8-1-6.6,3.4-10.8,3.2-6.3-2.8-9-5.8v-7.1c1.8,1.5,5.8-.3,5.9,0,1.2,1.8-1,7.6,6.6,8.3s7.9-9.4,7.6-15.4c1.5-.6,3-1.6,4.7-2.4.7,6.2-2.7,16.2,5.9,13.6,9.3-2.7,5.6-12.2,8.3-19.6h1.2c0,.3,2.1,2.9,2.3,5.5.3,4.4-3.6,11,4.7,8.1s6-13.3,7.2-20.7c.1,0,1-.9,1.2-1.2Z"/>
    <path class="st4" d="M-862.6,437.8c1.9,1.9,7.1.5,8.1,1.4s3.4,7.3,3.5,7.7c.9,4.1,1.8,23,1.4,27s-4.5,4.3-4.8,10.6c-.8,17.8,3.1,37.7,2.4,55.7,5.4,5.1.5,3.4,0,4.8-.7,2.8-1.7,29.6-1.2,33s2.7,8.4,3,8.8c1.3,1.7,5.8,0,4.2,4.1s-5.8.5-4.7,4.1c5.2-.8,12.8-2.4,14.2,4.7-6.2-1.4-13.8-2.5-20.1-3.6,0-1.6-3-6.8-3.6-11.8s-.4-6.5.3-10.9,5.1-10.6,5.6-15.8c1.4-15.6-.8-36.3-1.2-52.7s.6-3.9-1.2-4.7c.2-2.5.5-17.1,0-17.8l-1.2-2.4c.8-11.3-.6-32.2-4.7-42.6Z"/>
    <path class="st8" d="M-850.7,61.3c.1.6,1.4,2,1.8,3.5,1,3.4.8,10.6,4.1,9.6-1.8,12-2.9,25.8-2.4,37.9-18.3-8.4-22.4-41.3-3.6-50.9Z"/>
    <path class="st2" d="M-604.5,86.2c-5.5,0-9.5-3.1-15.4-2.4,1.3-8.2,13.7.6,14.2,0-1.8-6-.7-11,1.3-16.9s2.3-.6,2.4-2.6c.2-4.3-3.8-8.1-2.5-12.8s5.7-3.8,6-6.1c1.2-9.9-1.4-23.3-3.8-33.1s-2-4.4.1-5.4c9.3,27,6.4,52.4-2.4,79.3Z"/>
    <path class="st5" d="M-538.2,74.3c-10,4.4,2.2,17.7-9.5,22.5.3-8.4-4.1-8.3-4.8-13.5-.4-2.7-.3-9,.3-11.7s3-3.7,3.3-4.4c2.6.7,6.1,1.3,8.3,3s1.9,3.6,2.4,4.1Z"/>
    <path class="st5" d="M-913.5,95.7c-.7-.8-.5.9-2.8-3s-1.7-.6-1.8-1.4c-1.2-4.9,2.5-13.6-2.4-16.9.5-.7-.1-1.9,1.9-3.4s6.2-2.3,8.8-3.7c.4.9,1.9,1.5,2.3,4.2,1.6,10.3-2.4,15.4-5.9,24.2Z"/>
    <path class="st2" d="M-621.1,139.5c-3.5,10.1-13.4,18.6-22.5,23.7.3-.6.1-2.8.9-4.4,1.5-3,8.8-19.4,9.7-20s9.1.9,11.8.7Z"/>
    <path class="st8" d="M-919.4,235.3l10.4,13.8,2.6,7.5c-2.4.5-3.2-.5-4.8-1.7-5.6-4.1-11.2-11.2-14.2-17.2,1.6-.7,4.7-1.5,5.9-2.4Z"/>
    <path class="st4" d="M-481.4,44.8c-5.5-.9-6.2,2.4-6.6,2.4-1.4,0-4.3-1.9-6.4-1.2-1.9-3.5,6.3-1.5,3.6-4.7s-14.2-4.5-16-4.5c-4.4,0-11.5,3-16-.2,14.9-5.6,28.7,0,41.4,8.3Z"/>
    <path class="st4" d="M-651.9,224.7c1.2,0,3.1-1.4,4-1.2s.6,2.3.7,2.4c-6.8,5.5,7.6,1.3,5.9,5.9-10.2-2.4-5.9,8.7-8.3,15.4-4.4-1.4.2-5.8-1.8-8.3-3,2.8-2,7.8-3.3,11s-2,1.9-2.1,2l4.7-27.2Z"/>
    <path class="st13" d="M-855.5,505.2c-5,.6-1.3-3.3-1.2-4.7,1.8.8,1.2,3.2,1.2,4.7Z"/>
    <path class="st5" d="M-457.7,196.3c0,1.3.4,3-1.2,3.6,0-1-3.6-4.1,1.2-3.6Z"/>
    <path class="st5" d="M-456.6,186.8c0,1.3.3,3-1.2,3.6,0-1-3.6-4.1,1.2-3.6Z"/>
    <path class="st2" d="M-608.1-5c2.7,4.1,2.9,5.1,4.7,9.5-2.3-2.7-4.6-5.6-5.9-8.9l1.2-.6Z"/>
    <path class="st13" d="M-856.7,482.8c-.2-.2-1.7.1-2.4,0-.5-1.2,1.2-2.2,1.2-2.4l1.2,2.4Z"/>
    <path class="st6" d="M-857.9,603.5c15,4.3,29.5,10.4,44.7,13.9,47.7,10.9,97.9,11.3,146.2,5.1,9.5,12.1,23.8,19.3,37.5,26.1,8,38,15.1,76.1,18.9,114.8-32.4,10.6-66.4,14-100.6,13-3.5-.1-8.7,1.3-10.5-2-7.5-22.5-8.8-47.8-15.6-70.2-.3-.9.8-2.8-.7-3.6l-24.2-9.9-26-16c-3.2,3.7,12.8,21.7,15.9,24.9s4.6,2.8,5.4,4c2.7,3.6-.8,19.3-1.8,24.4-3.3,16.3-10.1,32.1-12.5,48.5-28.6-1-69.4-7.4-95.9-17.8s-1.5-.8-2.4-1.2-7.8-4.6-8-5c-2.2-3.7,11.2-75.2,13.1-85.2,4.3-21.7,11-42.8,16.2-63.7Z"/>
    <path class="st10" d="M-836.5,599.9c32.6,7.5,57.5,11,91.2,11.8,17.5.5,33.8-.9,51.5-1.3,2.7,0,5.9,1.8,8.1,1.3s.7-2.2,1.6-2.4c12.6-3,31.2-2.8,45.4-5.9,3,15,6.3,30,9.5,45-13.7-6.8-28-13.9-37.5-26.1-48.3,6.2-98.5,5.8-146.2-5.1-15.3-3.5-29.7-9.6-44.7-13.9.2-.7,1.2-6.7,1.2-7.1,6.3,1,14,2.1,20.1,3.6Z"/>
    <path class="st10" d="M-614,596.4c-.3,9.6,6,21.6,8.3,30.8s1.8,5.8,2.4,8.3c8.8,36.8,13.1,74.8,20.1,111.9,1.3,7.1-3.7,6.8-8.3,8.8-3.1,1.4-6.4,2.3-9.5,3.6-6.4-53.4-16.1-106.3-28.4-158.6,5-1.3,10.1-4.9,15.4-4.7Z"/>
    <path class="st10" d="M-780.9,776.3c2.4-16.4,9.1-32.2,12.5-48.5s4.5-20.8,1.8-24.4-3.9-2.5-5.4-4c-3.1-3.2-19.2-21.2-15.9-24.9l26,16,24.2,9.9c1.5.8.5,2.7.7,3.6l-14.1,70.2c-.7,1.3-7.6,1.8-9.5,2-6.2.4-13.8.2-20.1,0Z"/>
    <path class="st13" d="M-629.4,601.1c12.3,52.3,22,105.2,28.4,158.6-3.3,1.3-6,2.4-9.5,3.6-3.9-38.7-10.9-76.9-18.9-114.8-3.2-15-6.5-30-9.5-45,2.7-.6,6.7-1.6,9.5-2.4Z"/>
    <path class="st0" d="M-763.2,389.2c-.8-4.3-1.9-8.6-2.4-13,11.5-1.4,10,1,11.8,10.6s1.3,15.5,3,15.4c.7-5,2.4-10.4,3-15.4s0-2.4,0-3.6l2.4-7.1c.4,0,.8,0,1.2,0,1.5-.1,7.9-.2,8.2,0,.8.8,3,18.8,3.6,21.8s0,3.7,2.3,4.2c.8-3.5,2.6-25.1,3.6-26s7.7.3,9.5,0c-1.1,9.2-3.5,18.1-4.7,27.2s0,.8,0,1.2c-6.1,7.3.7,18.3-13,15.4-.3-.1-.8-.9-1.2-1.2-1.7-3.8,0-9.2-3.6-11.8.1-.7,0-1.6,0-2.4,0-2.8.3-9-2.4-10.6l-3.6,23.7c-1,.8-.7,2.1-2.9,2.4s-7,.5-8.9-1.3l-1.2-3.6c0-.4,0-.8,0-1.2-1.1-8.9-3.1-16.2-4.7-24.9Z"/>
    <path class="st0" d="M-802.2,405.8c-1.3-5.1-1.5-14,0-18.9,4.9-15.7,27.2-16,33-.5,1.2,3.1,2.6,10.8,2.5,14-.5,21-29.6,28.6-35.6,5.4ZM-778.5,391.6c-1.5-11.7-12.5-10.3-14.1.7s-.2,13.1,2.2,16.3,1.8.5,2.4.8c10.6,4.1,10.4-10.4,9.5-17.8Z"/>
    <path class="st0" d="M-681.5,420v-43.8h20.7c1.2,0,7,5.1,7.4,6.8s.6,8,0,10.2-4.4,3.4-4.5,6.1,8,18.8,7.1,19.6c-2.5-.5-8.7.9-10.5-.2-2.8-1.7-2-16.4-7.9-16.4-5.2,0-2.2,13.1-3,16.6-2.3.1-6.6.9-9.5,1.2ZM-672,395.2c13.3,1.9,12.7-14,0-11.8v11.8Z"/>
    <path class="st0" d="M-818.8,375c6.7.9,10.2,3.4,11.8,9.5,2.1,7.7.5,11.1-4.7,16.6-.4.4-.8.8-1.2,1.2-2.1,1.6-12.5,1.9-13,2.4s.4,12,0,14.2h-9.5c0-.4,0-.8,0-1.2-.3-12.9-.7-27.5,0-40.2s0-1.6,0-2.4c5.2.5,11.5-.7,16.6,0ZM-817.6,385.7c-1.7-2.2-4.3-2.8-7-2.3-2.2,4.4-.9,8.4-.1,12.9,6.7.6,11.5-4.8,7.1-10.7Z"/>
    <path class="st0" d="M-711.1,420l-1.2-43.8h24.9v8.3s-15.4,0-15.4,0v8.3c1.3,1.3,14.4-3.1,14.2,3.5-.4.7.4,4.3,0,4.7s-12-.4-14.2,0v9.5c5,.3,10.4-.4,15.4,0,2.5,13-7.3,9.4-16.6,9.5s-4.7,0-7.1,0Z"/>
    <path class="st0" d="M-724.1,431.8v9.5c-2.8,0-5.5-.1-8.3,0s-5.4-.3-5.9,0-1.2,6.5-.7,7.1c1.7,2.4,10.6.7,13.7,1.1.1,2.7,0,5.5,0,8.3h-13s0,17.7,0,17.7c-2.5-.5-9.9,1.2-10.7-1.2v-42.6c8.3,0,16.6,0,24.9,0Z"/>
    <path class="st0" d="M-784.5,433v33.2s14.2,0,14.2,0h1.2c-.3,2.7.2,5.6,0,8.3-.5.1-.9,1.1-1.2,1.2h-24.9c-.2-.2-1.2-1.1-1.2-1.2-2.7-12.3,3.2-29.7,0-42.6,3.6.5,9.3-1.3,11.8,1.2Z"/>
    <path class="st0" d="M-720.5,431.8c9.9,0,19.7,0,29.6,0v8.3c-2.3,1-2.2.9-4.7,1.2s-3.2-.1-4.7,0v34.3s-9.5,0-9.5,0c-1.1-1.4-1.7-2.1-1.8-4.1-.2-4.1,1.7-29.2.6-30.3-3,1.3-8-1.2-9.5-1.2v-8.3Z"/>
    <path class="st0" d="M-765.5,433c3.5-1.4,5.6-1.5,9.5-1.2v43.2c0,1.7-4.9,2.1-6.5,1.9s-2.4-2.3-3-2.5v-41.4Z"/>
    <path class="st4" d="M-748.9,474.5l-1.2-46.2c19.2,2.7,39.1.4,58.6,1.2,4.9-.4,4,8.8,2.8,10.5s-1.8,0-2.2.2v-8.3c-9.8,0-19.7,0-29.6,0s-2.4,0-3.6,0c-8.3,0-16.6,0-24.9,0v42.6Z"/>
    <path class="st4" d="M-695.7,441.3l1.3,33.7c-4.6,2.9-11.5,5.7-15.5.7h9.5s0-34.3,0-34.3c1.6-.1,3.2.2,4.7,0Z"/>
    <path class="st4" d="M-702.8,326.5c-16.5,12-32.1,14.9-52.6,12.9-1.7-.2-6.3-.3-5.5-3.4,20.6,4.8,39.6,0,58-9.5Z"/>
    <path class="st4" d="M-765.5,433v41.4c-.4-.1-3-.1-3.6,0,.2-2.7-.3-5.6,0-8.3s1.1-1.3,1.2-2.9c.6-9.6-.5-19.9,0-29.5.3-1.5,1.8-.5,2.4-.7Z"/>
    <path class="st4" d="M-835.4,377.4c-.7,12.8-.3,27.4,0,40.2-3.6.7-2.3-1.8-2.4-4.1-.4-10.3-.3-21.8,0-32.1s-1.2-4.8,2.4-4.1Z"/>
    <path class="st4" d="M-739.5,404.6c-4.1-.9-1.9,4.2-2.4,7.1h1.2c-.7-1.9,1.1-3.8,1.2-4.7,3.5,2.7,1.9,8,3.6,11.8-.2-.2-1.5.4-2.1-.2-1.2-1.3-.8-9.2-4.3-4.3s-.4,2.5-1,3.1-1.9.1-2.1.3l3.6-23.7c2.7,1.7,2.4,7.8,2.4,10.6Z"/>
    <path class="st4" d="M-812.9,402.3c-2.2,2.1-8.7,6.2-10,8.3-3.7,6.1,4.6,13-12.5,10.6,0-.8,0-1.6,0-2.4h9.5c.4-2.2-.5-13.7,0-14.2s10.9-.8,13-2.4Z"/>
    <path class="st4" d="M-806.9,384.5l4.7,2.4c-1.5,4.9-1.3,13.9,0,18.9-5.3-.3-2.3-8.7-9.5-4.7,5.2-5.4,6.8-8.9,4.7-16.6Z"/>
    <path class="st4" d="M-732.4,441.3c-1.6,8.3,5.5,4.8,7.1,5.9s0,1.7,0,2.4c-3.1-.5-12,1.2-13.7-1.1s.5-6.8.7-7.1c.4-.4,4.5,0,5.9,0Z"/>
    <path class="st4" d="M-796.3,474.5c-2-1.2-1.2-4.5-1.2-6.5-.1-9.9-.1-19.8,0-29.6s-.8-5.3,1.2-6.5c3.2,12.9-2.7,30.3,0,42.6Z"/>
    <path class="st4" d="M-758.4,414.1c-3.5-2.1-3.6-7.9-4.4-11.6s-2.8-10.1-.4-13.2c1.7,8.7,3.6,15.9,4.7,24.9Z"/>
    <path class="st4" d="M-784.5,433c3.1,3.1,0,30.7,1.2,32s11-1.6,13,1.2h-14.2s0-33.1,0-33.1Z"/>
    <path class="st4" d="M-747.8,386.9c-.5,5-2.2,10.4-3,15.4-1.6,0-2.5-13.1-3-15.4h5.9Z"/>
    <path class="st4" d="M-721.7,404.6c0,.1,1.3,1,1.2,2.8s-3.4,11.8-3.8,12.3c-2.3,2.7-7.6,1.2-10.4.3,13.7,2.9,6.9-8.1,13-15.4Z"/>
    <path class="st4" d="M-770.3,475.6c-1,.2-1.5,1-4,1.3-3.8.3-18.6.5-20.8-1.3h24.9Z"/>
    <path class="st4" d="M-818.8,375c-5-.7-11.4.5-16.6,0,4.2-2,12.6-2,16.6,0Z"/>
    <path class="st4" d="M-745.4,376.2l-2.4,7.1c0-.7-1.7-2.8,0-6.3.3-1.4,1.5-.6,2.4-.8Z"/>
    <path class="st4" d="M-720.5,439v1.2c-.6,0-2.3,1.2-3.6,1.2v-2.4h3.6Z"/>
    <path class="st4" d="M-757.2,418.8c-1.6-1.4-1-1.9-1.2-3.6l1.2,3.6Z"/>
    <path class="st8" d="M-454.2,282.7c3,2.7-16.9,16.8-19.3,18-18.1,9-46.8,6.5-62.7-6.3-1.3-1-7.9-7.7-2.8-6.7,23.9,4.8,42.2,12.1,67.1,2.8,6.1-2.3,11.2-7.4,17.8-7.7Z"/>
    <path class="st8" d="M-553.6,257.8c-1.8-1.7,10.4-21.4,13.4-21.2s4.9,2.9,3,6.2-10.6,12.5-11.6,13.3-3.7,2.8-4.8,1.7Z"/>
    <path class="st8" d="M-919.4,292.1c-6.9,2.6-10.7,7.2-18,9.8-20.5,7.3-47.1,5.3-62.5-11.5s-6.1-7.2-5.9-8.3,1.9-2,3.6-1.2c3.3,1.5,7.4,5.6,11.4,7.6,15.4,7.5,32.7,7.3,49.3,4.6s27.7-8.1,22.2-.9Z"/>
    <path class="st2" d="M-792.7,138.3c-1.5,5.8,3.6,9.4,8.3,11.2,12.4,4.9,49.4,6.2,59.2-3.5,1.8-1.8,2.4-4.2,3.5-5.4s2.9-2.2,3.1-2.3c4.2-.6,1.7,4.4,1.8,6.3.2,4.1,0,7.2-1.6,11.7-2.4,7.1-3.6,7.5-8,12.7-3-7.2-18.5-6.8-25.2-5.6-7,1.2-21.2,8.6-24.5,15.1-5.8-2.5-8-2.2-13.1-7.7-5.5-6-14.3-24-11.6-31.8s6.3-.9,8.1-.8Z"/>
    <path class="st0" d="M-792.7,138.3c24.4,1.3,42.4,2.1,66.9,0,2.2-.2,4.8-1.1,4.1,2.4-1.1,1.2-1.7,3.6-3.5,5.4-9.8,9.7-46.8,8.3-59.2,3.5s-9.8-5.5-8.3-11.2Z"/>
    <path class="st8" d="M-693.6,113.7c8.1-1.5,22.8-.2,25.8,9.1,4.8,14.8-20.8,16.6-30.6,10.5-11.2-6.9-6.7-17.5,4.8-19.6Z"/>
    <path class="st8" d="M-776.2,178.5c3.3-6.5,17.6-13.9,24.5-15.1,6.7-1.1,22.2-1.6,25.2,5.6-3.3,3.9-2.7,5.3-8.7,8.5-14.8,7.8-26.5,7.3-41,1Z"/>
    <path class="st8" d="M-838.5,116.6c-1.1-1.4-1.7-3.1-1.5-4.9,1.2-13.8,26.9-14.9,33.6-4.2,9.5,15.1-22.9,20.6-32.1,9.1Z"/>
    <path class="st2" d="M-807.3,67.5c17.7-4,17.2,26.5,2.1,27.1s-14.3-24.3-2.1-27.1Z"/>
    <path class="st2" d="M-711.4,78.1c16.1-3.5,15.6,24.9,4.4,27-16.9,3.2-16.5-24.3-4.4-27Z"/>
    <path class="st8" d="M-766.7,83.8c4.3,9.8-11.7,21.5-9.3,28.8,2.4,7.5,22.9-.5,24.5,2.1,6,9.8-17.7,10.3-23.5,8.7-8.9-2.3-9.5-11.1-6.8-18.7s9.2-15.7,11.3-18.3,1.4-3.2,3.8-2.7Z"/>
    <path class="st2" d="M-713.7,53.3c3-.6,5.9-.5,8.9,0,5.7.9,24.2,8.8,20.4,16.3-3.1,6.3-7.4-1-10.2-2.9-7.8-5.2-21.3-3.1-23.7-4.7-4.1-2.9-.4-7.7,4.5-8.7Z"/>
    <path class="st2" d="M-807.3,41.5c5.4-.8,23,.5,20.3,8.5s-16.5,0-21.5,1-13,10.2-14.9,2.5,11.8-11.2,16.1-11.9Z"/>
    <path class="st8" d="M-741.8,190.4c.2.2.2,3.6-.3,4.5-2.6,4.9-25.2,5.7-29.3-.4-1.2-5.2,14-1.6,17.2-1.7s11.9-2.9,12.4-2.4Z"/>
    <path class="st14" d="M-688.6,396.3c0-.1,2,.5,2.4-.8s-.9-14.1,2.3-9.9v26c-1.2-.3-2.2-1.1-3.5-1.2-5-.4-10.4.3-15.4,0v-9.5c2.2-.4,13.7.5,14.2,0s-.4-4,0-4.7Z"/>
    <path class="st8" d="M-661.3,253.1c-1.2,1.6-.6,5.2-1.9,6-4.3,2.4-27.2,4.4-34.8,6.4-11.2,2.9-21.9,8.5-33.1,11.3,1.2-7.7,10.4-12.8,17.1-15.4,16-6.2,35.7-8.7,52.7-8.2Z"/>
    <path class="st8" d="M-752.5,275.6c-10.3-1.9-18.9-8.4-29-11.9s-15.6-3.2-21.4-5.8-3.1-1-2.9-3c1.1-5,18-.8,22.3.2,10.2,2.4,30,8.7,31,20.5Z"/>
    <path class="st8" d="M-740.7,293.4l-4.9,39.5c-1,3-6.2,3.2-6.9-1-1.6-8.6,3.1-28.4,8.1-35.7,1-1.5,1.3-3.2,3.8-2.7Z"/>
    <circle class="st5" cx="-891" cy="317" r="1.5"/>
    <path class="st5" d="M-535.9,75.5c2.5.9,6.4.7,9.2,2.1s3,3.7,6.3,5.5c6.2,3.2,7.2,2.3,12.9,6.7-3.4,5.2,2.7,15-7.4,12.8s-5.2-11.6-9.2-16.3l-1.2,10.6c-13.2-.4-16.2-10.4-10.6-21.3Z"/>
    <path class="st5" d="M-482.6,95.7c-1.1,3.1-7.8,3.3-8.1,3.7-1.3,1.3,2.3,6.9-6.6,5.7-6.7-.9-8.8-7-6.6-13,2.4.7,12.9,4.3,13.9,4.5,2.5.4,4.9-1.5,7.4-.9Z"/>
    <path class="st5" d="M-921.8,75.5c-1.1,7.4,2.3,17.3-7.2,20.7s-4.4-3.7-4.7-8.1-2.3-5.2-2.3-5.5c-.3-5.2,11.6-6.4,14.2-7.1Z"/>
    <path class="st5" d="M-956.1,90.9c.3,6,.9,16.2-7.6,15.4s-5.4-6.5-6.6-8.3-4.2,1.6-5.9,0v7.1c-1.1-1.2-3.3-1.2-3.6-4.2-1-10.3,7.4-4.1,8.9-4.1s12.7-5,14.8-5.9Z"/>
    <path class="st5" d="M-937.2,82.6c-2.7,7.3,1,16.9-8.3,19.6-8.7,2.5-5.3-7.5-5.9-13.6,4.6-2,9-5.1,14.2-5.9Z"/>
    <path class="st14" d="M-739.5,404.6c0,.8.1,1.6,0,2.4s-1.9,2.8-1.2,4.7h-1.2c.5-2.9-1.8-8,2.4-7.1Z"/>
    <path class="st14" d="M-786.8,388c0-.8,0-1.6,0-2.4,2.5-.3,2.7-.1,2.4,2.4-.8,0-1.6,0-2.4,0,0,4.4,4.3,1.5,8.3,3.6.9,7.3,1.2,21.9-9.5,17.8-.9-3.1-2.1-20.1-1.2-21.3s1.8,0,2.4,0Z"/>
    <path class="st4" d="M-788,409.4c-.6-.2-1.5.5-2.4-.8-2.4-3.2-2.7-12.3-2.2-16.3,1.6-11,12.6-12.4,14.1-.7-4-2-8.2.8-8.3-3.6.8-.1,1.6,0,2.4,0,.3-2.5.1-2.7-2.4-2.4,0,.8,0,1.6,0,2.4-.5,0-2.2-.2-2.4,0-.9,1.2.3,18.2,1.2,21.3Z"/>
    <path class="st14" d="M-672,395.2v-11.8c12.7-2.2,13.3,13.8,0,11.8Z"/>
    <path class="st4" d="M-817.6,385.7c-.3-.3-3.6.2-4.7,0l2.4,5.9c2.5-.1,2.9-5.4,2.4-5.9,4.4,5.8-.4,11.3-7.1,10.7-.8-4.6-2.1-8.5.1-12.9,2.7-.5,5.3,0,7,2.3Z"/>
    <path class="st14" d="M-720.5,431.8v7.1h-3.6v-7.1c1.2,0,2.4,0,3.6,0Z"/>
    <path class="st14" d="M-817.6,385.7c.6.5,0,5.8-2.4,5.9l-2.4-5.9c1.1.2,4.4-.3,4.7,0Z"/>
  </g>
</svg>